<svg id="z12736" class="acjk" version="1.1" viewBox="0 0 1024 1024" xmlns="http://www.w3.org/2000/svg" xmlns:xlink="http://www.w3.org/1999/xlink">
<style>
<![CDATA[
@keyframes zk {
	to {
		stroke-dashoffset:0;
	}
}
svg.acjk path[clip-path] {
	--t:3s;
	animation:zk var(--t) linear forwards var(--d);
	stroke-dasharray:var(--length);
	stroke-dashoffset:var(--length);
	stroke-width:30;
	stroke-linecap:round;
	fill:none;
	stroke:#000;
}
svg.acjk path[id] {fill:#ccc;}
]]>
</style>
<path id="z12736d1" d="m 300.99995,186.00006 q 0,-9.99999 -8.33332,-9.99999 -11.66666,0 -11.66666,9.99999 0,5.66666 9.99999,12.99998 9.99999,-5.16666 9.99999,-12.99998 z m 13.33332,69.99993 q 0,-17.99998 -6.99999,-23.49998 -7.33333,-3.99999 -13.33332,-7.99999 -23.66665,14.83332 -46.33329,14.83332 -29.66664,0 -43.49996,-11.49999 -14.83332,-12.49999 -14.83332,-35.16663 0,-14.16666 8.33333,-28.66664 8.33332,-14.66665 8.33332,-24.66664 0,-16.66666 -24.99998,-16.66666 0,-16.66665 16.66666,-16.66665 33.3333,0 33.3333,33.33331 0,10.83332 -8.33333,26.3333 -8.33332,15.33332 -8.33332,26.99998 0,9.83332 9.16665,15.83332 9.16666,5.83332 24.16665,5.83332 17.33331,0 26.66664,-5.49999 -13.33332,-10.16666 -13.33332,-22.83331 0,-29.99997 31.66664,-29.99997 29.99997,0 29.99997,29.99997 0,12.83332 -11.33333,24.66664 3.5,1.83333 7.16666,3.66666 20.83332,11.16666 20.83332,41.66663 v 149.99986 h -24.99998 l -49.99995,-48.83329 -49.99995,48.83329 h -24.99998 v -99.99991 q -16.66665,0 -16.66665,-23.33331 0,-26.66664 24.99998,-26.66664 h 16.66665 v 115.83322 l 49.99995,-48.83328 49.99995,48.83328 z"/>
<defs>
	<clipPath id="z12736c1"><use xlink:href="#z12736d1"/></clipPath>
</defs>
<path style="--d:0s;--length:1000" clip-path="url(#z12736c1)" d="m 189.90372,294.29524 -10.55021,0.55527 -2.22109,-9.99493 4.99746,-15.54767 17.2135,-2.77637 5.55274,1.11055 -3.33164,127.15775 61.63541,-52.19576 62.1907,52.19576 1.11054,-156.032 -9.99493,-13.88185 -42.20083,-28.87425 -3.88691,-17.2135 8.32911,-14.9924 16.10294,-1.11055 14.9924,8.88439 3.88692,14.9924 -12.21603,18.32404 -30.54007,18.32404 -33.31644,4.4422 -31.09535,-12.77131 -6.10801,-21.65569 8.88438,-32.76116 10.55021,-19.98987 -6.66329,-20.54514 -17.21349,-5.55274 -23.345,-3.33164 v 0"/>
</svg>
  