<svg id="z12736" class="acjk" version="1.1" viewBox="0 0 1024 1024" xmlns="http://www.w3.org/2000/svg" xmlns:xlink="http://www.w3.org/1999/xlink">
<style>
<![CDATA[
@keyframes zk {
	to {
		stroke-dashoffset:0;
	}
}
svg.acjk path[clip-path] {
	--t:3s;
	animation:zk var(--t) linear forwards var(--d);
	stroke-dasharray:var(--length);
	stroke-dashoffset:var(--length);
	stroke-width:40;
	stroke-linecap:round;
	fill:none;
	stroke:#000;
}
svg.acjk path[id] {fill:#ccc;}
]]>
</style>
<path id="z12736d1" d="m 332.49984,297.66662 q 0,83.33326 -72.83326,83.33326 -71.33326,0 -79.66659,-66.16661 h 24.99998 q 8.33332,41.16663 54.66661,41.16663 47.83329,0 47.83329,-58.33328 0,-58.33327 -46.16662,-58.33327 -33.66664,0 -47.99996,21.33331 H 189.16665 L 200.8333,131.00012 h 119.99989 v 29.66663 h -97.49991 l -6.16666,62.16661 q 17.83332,-8.49999 44.16663,-8.49999 71.16659,0 71.16659,83.33325 z"/>
<defs>
	<clipPath id="z12736c1"><use xlink:href="#z12736d1"/></clipPath>
</defs>
<path style="--d:0s;--length:1000" clip-path="url(#z12736c1)" d="m 208.88344,127.21472 -14.13497,133.49694 39.2638,-31.41105 51.82822,-6.28221 42.40491,43.97547 -12.56442,78.5276 -69.10429,25.12884 -34.55215,-15.70552 -29.84049,-64.39264 -62.82209,15.70552 48.68712,-164.90798 212.02454,3.14111"/>
</svg>
  