<svg id="z12736" class="acjk" version="1.1" viewBox="0 0 1024 1024" xmlns="http://www.w3.org/2000/svg" xmlns:xlink="http://www.w3.org/1999/xlink">
<style>
<![CDATA[
@keyframes zk {
	to {
		stroke-dashoffset:0;
	}
}
svg.acjk path[clip-path] {
	--t:3s;
	animation:zk var(--t) linear forwards var(--d);
	stroke-dasharray:var(--length);
	stroke-dashoffset:var(--length);
	stroke-width:40;
	stroke-linecap:round;
	fill:none;
	stroke:#000;
}
svg.acjk path[id] {fill:#ccc;}
]]>
</style>
<path id="z12736d1" d="m 205.16663,285.49997 q 7.16666,70.49993 51.16662,70.49993 52.49995,0 52.49995,-54.16661 0,-54.16662 -52.49995,-54.16662 -43.83329,0 -51.16662,37.8333 z m 51.16662,95.49991 q -77.49993,0 -77.49993,-124.99988 0,-124.99988 85.83326,-124.99988 69.1666,0 69.1666,58.66661 H 308.8332 q 0,-33.66664 -44.16662,-33.66664 -54.66662,0 -60.16661,80.99993 18.83331,-14.33332 51.83328,-14.33332 77.49993,0 77.49993,79.16659 0,79.16659 -77.49993,79.16659 z"/>
<defs>
	<clipPath id="z12736c1"><use xlink:href="#z12736d1"/></clipPath>
</defs>
<path style="--d:0s;--length:1000" clip-path="url(#z12736c1)" d="m 321.96319,196.31902 -9.42331,-36.1227 -40.83436,-18.84663 -51.82822,6.28221 -28.26994,45.54601 -1.57055,109.93865 29.84049,59.68099 50.25767,6.2822 43.97546,-23.55828 6.28221,-59.68098 -23.55828,-43.97546 -42.40491,-9.42331 -34.55215,10.99386 -40.83436,36.1227"/>
</svg>
  