<svg id="z12736" class="acjk" version="1.1" viewBox="0 0 1024 1024" xmlns="http://www.w3.org/2000/svg" xmlns:xlink="http://www.w3.org/1999/xlink">
<style>
<![CDATA[
@keyframes zk {
	to {
		stroke-dashoffset:0;
	}
}
svg.acjk path[clip-path] {
	--t:3s;
	animation:zk var(--t) linear forwards var(--d);
	stroke-dasharray:var(--length);
	stroke-dashoffset:var(--length);
	stroke-width:40;
	stroke-linecap:round;
	fill:none;
	stroke:#000;
}
svg.acjk path[id] {fill:#ccc;}
]]>
</style>
<path id="z12736d1" d="M 339.83317,253.16663 H 202.66664 q 0,17.16665 5.16666,29.99997 5.16666,12.66666 14.16665,20.83332 8.66666,7.99999 20.49998,11.99998 11.99999,4 26.33331,4 18.99998,0 38.16663,-7.49999 19.33331,-7.66666 27.49997,-14.99999 h 1.66667 v 34.16664 q -15.83332,6.66666 -32.3333,11.16665 -16.49999,4.5 -34.66664,4.5 -46.33329,0 -72.33326,-24.99998 -25.99998,-25.16664 -25.99998,-71.33326 0,-45.66663 24.83331,-72.49994 24.99998,-26.8333 65.66661,-26.8333 37.66663,0 57.99994,21.99998 20.49998,21.99998 20.49998,62.49994 z M 309.3332,229.16665 q -0.16667,-24.66664 -12.49999,-38.16663 -12.16665,-13.49998 -37.16663,-13.49998 -25.16664,0 -40.16663,14.83331 -14.83332,14.83332 -16.83331,36.8333 z"/>
<defs>
	<clipPath id="z12736c1"><use xlink:href="#z12736d1"/></clipPath>
</defs>
<path style="--d:0s;--length:1000" clip-path="url(#z12736c1)" d="m 199.46012,237.15337 127.21473,4.71166 -6.28221,-47.11656 -17.27608,-25.12884 -43.97546,-12.56442 -39.2638,14.13497 -26.69939,39.26381 -3.1411,59.68098 15.70552,40.83436 56.53988,21.98773 45.54601,-3.14111 61.25153,-26.69939"/>
</svg>
  