<svg id="z12736" class="acjk" version="1.1" viewBox="0 0 1024 1024" xmlns="http://www.w3.org/2000/svg" xmlns:xlink="http://www.w3.org/1999/xlink">
<style>
<![CDATA[
@keyframes zk {
	to {
		stroke-dashoffset:0;
	}
}
svg.acjk path[clip-path] {
	--t:3s;
	animation:zk var(--t) linear forwards var(--d);
	stroke-dasharray:var(--length);
	stroke-dashoffset:var(--length);
	stroke-width:40;
	stroke-linecap:round;
	fill:none;
	stroke:#000;
}
svg.acjk path[id] {fill:#ccc;}
]]>
</style>
<path id="z12736d1" d="m 362.83315,324.66656 q -20.33331,9.33333 -44.49996,16.33332 -23.99998,6.83333 -46.49995,6.83333 -28.99998,0 -53.16662,-8 -24.16664,-7.99999 -41.16663,-23.99997 -17.16665,-16.16665 -26.49997,-40.3333 -9.33333,-24.33331 -9.33333,-56.83328 0,-59.49994 34.66664,-93.83324 34.8333,-34.499968 95.49991,-34.499968 21.16664,0 43.16662,5.166662 22.16665,4.999996 47.66662,17.166646 v 39.16663 h -2.99999 q -5.16667,-3.99999 -14.99999,-10.49999 -9.83332,-6.49999 -19.33332,-10.83332 -11.49998,-5.16666 -26.16664,-8.49999 -14.49998,-3.5 -32.99997,-3.5 -41.66662,0 -65.99993,26.83331 -24.16665,26.66664 -24.16665,72.33326 0,48.16662 25.33331,74.99993 25.33331,26.66664 68.99994,26.66664 15.99998,0 31.8333,-3.16666 15.99998,-3.16666 27.99997,-8.16666 v -60.83327 h -66.49993 v -28.99998 h 99.16657 z"/>
<defs>
	<clipPath id="z12736c1"><use xlink:href="#z12736d1"/></clipPath>
</defs>
<path style="--d:0s;--length:1000" clip-path="url(#z12736c1)" d="m 365.93865,135.06748 -87.95092,-32.98159 -65.96319,17.27607 -53.39877,53.39878 v 89.52147 l 37.69325,50.25767 59.68098,25.12883 76.95706,-10.99386 20.41717,-17.27608 -7.85276,-78.5276 h -83.23926 109.93865"/>
</svg>
  