<svg id="z12736" class="acjk" version="1.1" viewBox="0 0 1024 1024" xmlns="http://www.w3.org/2000/svg" xmlns:xlink="http://www.w3.org/1999/xlink">
<style>
<![CDATA[
@keyframes zk {
	to {
		stroke-dashoffset:0;
	}
}
svg.acjk path[clip-path] {
	--t:3s;
	animation:zk var(--t) linear forwards var(--d);
	stroke-dasharray:var(--length);
	stroke-dashoffset:var(--length);
	stroke-width:40;
	stroke-linecap:round;
	fill:none;
	stroke:#000;
}
svg.acjk path[id] {fill:#ccc;}
]]>
</style>
<path id="z12736d1" d="m 391.33312,342.99988 h -31.3333 v -105.9999 q 0,-11.99999 -1.16667,-23.16665 -1,-11.16665 -4.49999,-17.83331 -3.83333,-7.16666 -10.99999,-10.83332 -7.16666,-3.66667 -20.66665,-3.66667 -13.16665,0 -26.33331,6.66666 -13.16665,6.5 -26.33331,16.66665 0.5,3.83333 0.83334,8.99999 0.33333,5 0.33333,9.99999 v 119.16656 h -31.3333 v -105.9999 q 0,-12.33332 -1.16667,-23.33331 -1,-11.16666 -4.5,-17.83332 -3.83332,-7.16666 -10.99998,-10.66665 -7.16666,-3.66667 -20.66665,-3.66667 -12.83332,0 -25.83331,6.33333 -12.83332,6.33333 -25.66664,16.16665 V 342.99988 H 119.66671 V 156.83339 h 31.33331 v 20.66665 q 14.66665,-12.16666 29.16664,-18.99999 14.66665,-6.83332 31.16663,-6.83332 18.99999,0 32.16664,7.99999 13.33332,7.99999 19.83331,22.16664 18.99999,-15.99998 34.66664,-22.99997 15.66665,-7.16666 33.49997,-7.16666 30.66663,0 45.16662,18.66665 14.66665,18.49998 14.66665,51.83328 z"/>
<defs>
	<clipPath id="z12736c1"><use xlink:href="#z12736d1"/></clipPath>
</defs>
<path style="--d:0s;--length:1000" clip-path="url(#z12736c1)" d="m 125.64417,152.34356 v 199.46012 l 6.28221,-153.91411 72.2454,-40.83436 45.54601,26.69939 9.42331,171.19019 -7.85276,-149.20246 59.68099,-45.54601 48.68711,9.42331 20.41718,47.11657 4.71166,146.06135"/>
</svg>
  