<svg id="z12736" class="acjk" version="1.1" viewBox="0 0 1024 1024" xmlns="http://www.w3.org/2000/svg" xmlns:xlink="http://www.w3.org/1999/xlink">
<style>
<![CDATA[
@keyframes zk {
	to {
		stroke-dashoffset:0;
	}
}
svg.acjk path[clip-path] {
	--t:3s;
	animation:zk var(--t) linear forwards var(--d);
	stroke-dasharray:var(--length);
	stroke-dashoffset:var(--length);
	stroke-width:40;
	stroke-linecap:round;
	fill:none;
	stroke:#000;
}
svg.acjk path[id] {fill:#ccc;}
]]>
</style>
<path id="z12736d1" d="m 347.58316,169.83338 q 0,16.49998 -5.83332,30.66663 -5.66667,13.99999 -15.99999,24.33331 -12.83332,12.83333 -30.3333,19.33332 -17.49999,6.33333 -44.16663,6.33333 h -32.99997 v 92.49991 H 185.24998 V 94.833448 h 67.33327 q 22.33332,0 37.8333,3.83333 15.49999,3.666662 27.49998,11.666652 14.16665,9.49999 21.83331,23.66665 7.83332,14.16665 7.83332,35.8333 z m -34.3333,0.83333 q 0,-12.83332 -4.49999,-22.33331 -4.5,-9.49999 -13.66666,-15.49999 -7.99999,-5.16666 -18.33331,-7.33332 -10.16666,-2.33334 -25.83331,-2.33334 h -32.66664 v 99.16658 h 27.83331 q 19.99998,0 32.49997,-3.5 12.49999,-3.66666 20.33331,-11.49999 7.83333,-7.99999 10.99999,-16.83332 3.33333,-8.83332 3.33333,-19.83331 z"/>
<defs>
	<clipPath id="z12736c1"><use xlink:href="#z12736d1"/></clipPath>
</defs>
<path style="--d:0s;--length:1000" clip-path="url(#z12736c1)" d="M 197.88957,351.80368 V 91.092025 l 15.70552,14.134965 83.23927,4.71166 37.69325,31.41104 -7.85276,62.82209 -37.69325,29.84049 -114.65031,1.57055"/>
</svg>
  