<svg id="z12736" class="acjk" version="1.1" viewBox="0 0 1024 1024" xmlns="http://www.w3.org/2000/svg" xmlns:xlink="http://www.w3.org/1999/xlink">
<style>
<![CDATA[
@keyframes zk {
	to {
		stroke-dashoffset:0;
	}
}
svg.acjk path[clip-path] {
	--t:3s;
	animation:zk var(--t) linear forwards var(--d);
	stroke-dasharray:var(--length);
	stroke-dashoffset:var(--length);
	stroke-width:40;
	stroke-linecap:round;
	fill:none;
	stroke:#000;
}
svg.acjk path[id] {fill:#ccc;}
]]>
</style>
<path id="z12736d1" d="m 329.74985,289.33326 q 0,25.49998 -21.16665,41.8333 -20.99998,16.33331 -57.49994,16.33331 -20.66665,0 -37.99997,-4.83333 -17.16665,-4.99999 -28.8333,-10.83332 v -35.16663 h 1.66666 q 14.83332,11.16665 32.99997,17.83332 18.16665,6.49999 34.8333,6.49999 20.66665,0 32.3333,-6.66666 11.66666,-6.66666 11.66666,-20.99998 0,-10.99999 -6.33333,-16.66665 -6.33333,-5.66666 -24.33331,-9.66666 -6.66666,-1.5 -17.49998,-3.5 -10.66666,-1.99999 -19.49998,-4.33333 -24.49998,-6.49999 -34.8333,-18.99998 -10.16666,-12.66665 -10.16666,-30.99997 0,-11.49999 4.66666,-21.66664 4.83333,-10.16666 14.49999,-18.16665 9.33332,-7.83333 23.66664,-12.33332 14.49999,-4.66667 32.3333,-4.66667 16.66665,0 33.66664,4.16667 17.16665,3.99999 28.49997,9.83332 v 33.49997 h -1.66666 q -11.99999,-8.83333 -29.16664,-14.83332 -17.16665,-6.16666 -33.66664,-6.16666 -17.16665,0 -28.99997,6.66666 -11.83332,6.49999 -11.83332,19.49998 0,11.49999 7.16666,17.33332 6.99999,5.83332 22.66664,9.49999 8.66666,2 19.33332,3.99999 10.83332,2 17.99998,3.66667 21.83331,4.99999 33.66664,17.16665 11.83332,12.33332 11.83332,32.66663 z"/>
<defs>
	<clipPath id="z12736c1"><use xlink:href="#z12736d1"/></clipPath>
</defs>
<path style="--d:0s;--length:1000" clip-path="url(#z12736c1)" d="m 326.67485,186.89571 -69.1043,-25.12884 -54.96932,20.41718 -4.71166,31.41104 15.70552,20.41718 54.96933,15.70552 42.40491,12.56442 3.1411,37.69325 -18.84663,28.26994 -54.96932,4.71166 -47.11657,-10.99387 -26.69938,-17.27607"/>
</svg>
  