<svg id="z12736" class="acjk" version="1.1" viewBox="0 0 1024 1024" xmlns="http://www.w3.org/2000/svg" xmlns:xlink="http://www.w3.org/1999/xlink">
<style>
<![CDATA[
@keyframes zk {
	to {
		stroke-dashoffset:0;
	}
}
svg.acjk path[clip-path] {
	--t:3s;
	animation:zk var(--t) linear forwards var(--d);
	stroke-dasharray:var(--length);
	stroke-dashoffset:var(--length);
	stroke-width:40;
	stroke-linecap:round;
	fill:none;
	stroke:#000;
}
svg.acjk path[id] {fill:#ccc;}
]]>
</style>
<path id="z12736d1" d="m 350.08316,243.33331 q 0,26.99997 -5.99999,47.16662 -5.83333,19.99998 -19.33332,33.3333 -12.83332,12.66665 -29.99997,18.49998 -17.16665,5.83333 -39.99996,5.83333 -23.33331,0 -40.66663,-6.16666 -17.33332,-6.16666 -29.16664,-18.16665 -13.49999,-13.66665 -19.49998,-32.99997 -5.83333,-19.33331 -5.83333,-47.49995 V 94.833448 h 32.99997 V 244.99997 q 0,20.16665 2.66667,31.8333 2.83333,11.66666 9.33332,21.16665 7.33333,10.83332 19.83331,16.33332 12.66666,5.49999 30.33331,5.49999 17.83332,0 30.3333,-5.33332 12.49999,-5.5 19.99998,-16.49999 6.5,-9.49999 9.16666,-21.66665 2.83333,-12.33332 2.83333,-30.49997 V 94.833448 h 32.99997 z"/>
<defs>
	<clipPath id="z12736c1"><use xlink:href="#z12736d1"/></clipPath>
</defs>
<path style="--d:0s;--length:1000" clip-path="url(#z12736c1)" d="m 169.61963,89.521472 4.71166,193.177918 21.98773,34.55214 42.40491,17.27608 58.11043,-6.28221 28.26993,-34.55215 12.56442,-34.55215 -6.28221,-183.754597"/>
</svg>
  