<svg id="z12736" class="acjk" version="1.1" viewBox="0 0 512 512" xmlns="http://www.w3.org/2000/svg" xmlns:xlink="http://www.w3.org/1999/xlink">
<style>
<![CDATA[
@keyframes zk {
	to {
		stroke-dashoffset:0;
	}
}
svg.acjk path[clip-path] {
	--t:3s;
	animation:zk var(--t) linear forwards var(--d);
	stroke-dasharray:var(--length);
	stroke-dashoffset:var(--length);
	stroke-width:40;
	stroke-linecap:round;
	fill:none;
	stroke:#000;
}
svg.acjk path[id] {fill:#ccc;}
]]>
</style>
<path id="z12736d1" d="m 202.66672,210.16671 v 12.49999 q 9.33333,0 9.33333,-8.33333 0,-4.16666 -9.33333,-4.16666 z m 136.66654,120.83322 q 0,49.99995 -83.33325,49.99995 -83.33326,0 -83.33326,-49.99995 v -44.49996 q 136.66654,-52.16662 136.66654,-80.49993 v -24.99997 q 0,-29.99997 -53.33328,-29.99997 -53.33329,0 -53.33329,29.99997 v 12.49999 q 13.66666,0 19.83332,5.16666 6.16666,5.33333 6.16666,15.66665 0,24.99998 -27.99997,24.99998 -27.99998,0 -27.99998,-16.66665 v -41.66663 q 0,-49.99995 83.33326,-49.99995 83.33325,0 83.33325,49.99995 v 24.99997 q 0,39.99997 -136.66654,90.33325 v 34.66664 q 0,29.99997 53.33329,29.99997 53.33328,0 53.33328,-29.99997 v -49.99996 h 29.99997 z"/>
<defs>
	<clipPath id="z12736c1"><use xlink:href="#z12736d1"/></clipPath>
</defs>
<path style="--d:0s;--length:1000" clip-path="url(#z12736c1)" d="m 201.03067,193.17791 25.12884,7.85276 4.71166,23.55829 -20.41718,15.70552 -26.69939,-3.14111 3.14111,-78.5276 54.96932,-23.55829 80.09816,12.56442 12.56442,42.40491 -21.98773,37.69325 -127.21473,70.67485 3.14111,51.82822 51.82822,25.12883 53.39877,-4.71165 26.69939,-21.98773 7.85276,-87.95092"/>
</svg>
  