<svg id="z12736" class="acjk" version="1.1" viewBox="0 0 1024 1024" xmlns="http://www.w3.org/2000/svg" xmlns:xlink="http://www.w3.org/1999/xlink">
<style>
<![CDATA[
@keyframes zk {
	to {
		stroke-dashoffset:0;
	}
}
svg.acjk path[clip-path] {
	--t:3s;
	animation:zk var(--t) linear forwards var(--d);
	stroke-dasharray:var(--length);
	stroke-dashoffset:var(--length);
	stroke-width:40;
	stroke-linecap:round;
	fill:none;
	stroke:#000;
}
svg.acjk path[id] {fill:#ccc;}
]]>
</style>
<path id="z12736d1" d="m 309.33328,186.00006 q 0,-9.99999 -8.33333,-9.99999 -11.66666,0 -11.66666,9.99999 0,5.66666 13.83333,14.83332 6.16666,-7 6.16666,-14.83332 z m -128.33322,88.16658 q -8.33332,0 -8.33332,13.49999 0,9.99999 8.33332,9.99999 z m 0,40.16663 q -24.99997,0 -24.99997,-26.66664 0,-31.66664 24.99997,-31.66664 29.99998,0 29.99998,16.66665 v 106.83323 l 39.33329,-39.33329 q 7,-7.16666 14.16666,-7.16666 6.99999,0 14.16665,7.16666 l 38.99996,39.16663 V 255.99999 q 0,-17.99998 -4.66666,-22.66664 -4.66666,-4.83333 -10.66666,-8.83333 -23.66664,14.83332 -52.99995,14.83332 -39.66663,0 -53.49995,-11.49999 -14.83332,-12.49999 -14.83332,-31.8333 0,-10.83333 4.16667,-21.99998 4.16666,-11.33332 4.16666,-22.99998 0,-11.66665 -16.66665,-11.66665 0,-16.66666 16.66665,-16.66666 29.99997,0 29.99997,28.33331 0,14.16665 -4.16666,23.83331 -4.16666,9.49999 -4.16666,21.16665 0,9.83332 9.16665,16.66665 9.16666,6.66666 29.16664,6.66666 20.66665,0 37.49997,-6 -17.49999,-14.66665 -17.49999,-27.3333 0,-29.99997 31.66664,-29.99997 29.99997,0 29.99997,29.99997 0,12.83332 -11.33332,24.66664 3.5,1.83333 7.16666,3.66666 20.83331,11.16666 20.83331,41.66663 V 389.3332 q 0,16.66665 -16.66665,16.66665 -14.99998,0 -27.8333,-12.83332 l -38.8333,-38.8333 -38.66663,38.8333 q -12.83332,12.83332 -27.99997,12.83332 -16.66666,0 -16.66666,-16.66665 z"/>
<defs>
	<clipPath id="z12736c1"><use xlink:href="#z12736d1"/></clipPath>
</defs>
<path style="--d:0s;--length:1000" clip-path="url(#z12736c1)" d="m 183.7546,304.68712 -25.12883,-4.71166 -3.14111,-25.12883 20.41718,-15.70553 18.84663,1.57056 1.57055,146.06135 69.10429,-70.67485 65.96319,69.10429 1.57056,-166.47852 -9.42332,-12.56442 -47.11656,-36.1227 4.71165,-18.84663 31.41105,-9.42331 10.99386,25.12884 -14.13497,18.84662 -42.4049,25.12884 -62.82209,-9.42332 -7.85276,-25.12883 10.99386,-54.96933 -42.4049,-25.12883"/>
</svg>
  