<svg id="z12736" class="acjk" version="1.1" viewBox="0 0 1024 1024" xmlns="http://www.w3.org/2000/svg" xmlns:xlink="http://www.w3.org/1999/xlink">
<style>
<![CDATA[
@keyframes zk {
	to {
		stroke-dashoffset:0;
	}
}
svg.acjk path[clip-path] {
	--t:3s;
	animation:zk var(--t) linear forwards var(--d);
	stroke-dasharray:var(--length);
	stroke-dashoffset:var(--length);
	stroke-width:40;
	stroke-linecap:round;
	fill:none;
	stroke:#000;
}
svg.acjk path[id] {fill:#ccc;}
]]>
</style>
<path id="z12736d1" d="m 245.53881,374.25333 q -24.99998,0 -37.49996,-10.33332 -12.49999,-10.49999 -12.49999,-31.3333 0,-16.66665 6.16666,-24.99998 6.33333,-8.33332 18.83331,-8.33332 8.33333,0 12.49999,4.16666 4.16666,4.16666 4.16666,8.33332 0,4.16667 -4.16666,4.16667 -4.16666,0 -8.33332,4.16666 -4.16667,4.16666 -4.16667,12.49999 0,9.16666 6.16666,15.33332 6.33333,6.33332 18.83332,6.33332 12.83332,0 24.33331,-5.16666 11.49999,-5.16666 18.99998,-13.99998 7.49999,-8.83333 12.83332,-24.49998 5.33333,-15.49999 6.66666,-23.83331 1.33334,-8.33333 5,-10.49999 3.66666,-2 8.83332,-2 6.66666,0 6.66666,9.99999 -2.16666,14.99999 -8.33332,33.66664 -6.16666,18.83331 -16.66665,31.3333 -10.49999,12.49999 -24.99998,18.66665 -14.49998,6.33332 -33.3333,6.33332 z"/>
<defs>
	<clipPath id="z12736c1"><use xlink:href="#z12736d1"/></clipPath>
</defs>
<path style="--d:0s;--length:1000" clip-path="url(#z12736c1)" d="m 232.44172,303.11656 -26.69939,25.12884 6.28221,26.69939 26.69939,9.42331 43.97546,-9.42331 23.55828,-23.55829 29.84049,-84.80981"/>
</svg>
  