<svg id="z12736" class="acjk" version="1.1" viewBox="0 0 1024 1024" xmlns="http://www.w3.org/2000/svg" xmlns:xlink="http://www.w3.org/1999/xlink">
<style>
<![CDATA[
@keyframes zk {
	to {
		stroke-dashoffset:0;
	}
}
svg.acjk path[clip-path] {
	--t:3s;
	animation:zk var(--t) linear forwards var(--d);
	stroke-dasharray:var(--length);
	stroke-dashoffset:var(--length);
	stroke-width:40;
	stroke-linecap:round;
	fill:none;
	stroke:#000;
}
svg.acjk path[id] {fill:#ccc;}
]]>
</style>
<path id="z12736d1" d="m 214.25661,326.9773 v 11.16666 q 8.33332,-3.16667 8.33332,-7.66666 0,-3.5 -8.33332,-3.5 z m -24.99998,-19.99998 q 0,-21.66665 18.33332,-31.66664 18.33331,-9.99999 48.33328,-9.99999 29.99998,0 48.33329,9.99999 18.33332,9.99999 18.33332,31.66664 v 49.99995 h -24.99998 v -49.99995 q 0,-13.33332 -11.99999,-19.16665 -12.16665,-5.83333 -29.66664,-5.83333 -17.49998,0 -29.49997,5.83333 -12.16665,5.83333 -12.16665,19.16665 v 3.33333 q 12.49999,0 18.83331,5 6.16666,4.99999 6.16666,14.99998 0,11.66666 -12.49998,19.16665 -12.49999,7.49999 -24.99998,7.49999 -12.49999,0 -12.49999,-12.49999 z"/>
<defs>
	<clipPath id="z12736c1"><use xlink:href="#z12736d1"/></clipPath>
</defs>
<path style="--d:0s;--length:1000" clip-path="url(#z12736c1)" d="m 213.59509,310.96933 29.84049,9.42331 v 28.26994 l -32.98159,14.13497 -14.13497,-3.14111 v -69.10429 l 29.84049,-17.27608 56.53988,3.14111 29.84049,17.27607 1.57055,76.95706"/>
</svg>
  