<svg id="z12736" class="acjk" version="1.1" viewBox="0 0 1024 1024" xmlns="http://www.w3.org/2000/svg" xmlns:xlink="http://www.w3.org/1999/xlink">
<style>
<![CDATA[
@keyframes zk {
	to {
		stroke-dashoffset:0;
	}
}
svg.acjk path[clip-path] {
	--t:3s;
	animation:zk var(--t) linear forwards var(--d);
	stroke-dasharray:var(--length);
	stroke-dashoffset:var(--length);
	stroke-width:40;
	stroke-linecap:round;
	fill:none;
	stroke:#000;
}
svg.acjk path[id] {fill:#ccc;}
]]>
</style>
<path id="z12736d1" d="m 143.16669,355.9999 q 19.99998,0 19.99998,-41.66663 0,-16.66665 -19.99998,-16.66665 z m 106.66657,-38.3333 q -8.33333,3.33334 -8.33333,13.33333 0,24.99997 8.33333,24.99997 z m 146.66652,21.66665 q 0,41.66663 -48.33328,41.66663 -43.3333,0 -43.3333,-41.66663 0,-21.66665 -24.99997,-21.66665 v 46.66663 q 0,16.66665 -21.66665,16.66665 -16.66665,0 -24.99997,-15.83332 -8.33333,-15.83332 -8.33333,-34.16663 0,-28.33331 24.99998,-33.33331 V 181.00007 q 0,-17.33332 -11.49999,-23.66665 -2.16667,-0.99999 -4.66666,-0.99999 -12.16666,0 -37.16664,24.66664 -24.83331,-24.66664 -37.16663,-24.66664 -2.49999,0 -4.49999,0.99999 -11.66666,6.33333 -11.66666,23.66665 v 99.9999 q 36.66663,0 36.66663,33.3333 0,33.33331 -10.49999,49.99996 -10.33332,16.66665 -31.16663,16.66665 -24.99998,0 -24.99998,-16.66665 V 181.00007 q 0,-20.33332 18.33332,-35.16663 18.33331,-14.83332 28.16664,-14.83332 8.33332,0 36.83329,22.33331 28.66664,-22.33331 36.99997,-22.33331 9.83332,0 27.99997,14.83332 18.33332,14.83331 18.33332,35.16663 v 116.66655 q 49.99995,0 49.99995,41.66663 0,21.66665 18.33332,21.66665 18.33331,0 18.33331,-21.66665 V 220.50003 q 0,-17.66665 -33.3333,-27.99997 3.33333,-16.83332 15.83332,-39.16663 12.66665,-22.33331 21.66664,-22.33331 7.33333,0 19.16665,7.16666 l 11.66666,7.16666 q 5.16666,3.16666 12.16665,3.16666 3.66667,0 7.83333,-0.83333 -1.66667,11.66665 -6.83333,19.16665 -4.99999,7.33332 -13.49998,8.16665 -0.83334,0.16667 -1.66667,0.16667 -8.33332,0 -22.49998,-8.83332 -4.33333,-2.5 -7.99999,-2.5 -10.49999,0 -18.16665,19.16665 45.66662,14.66665 45.66662,27.99997 z"/>
<defs>
	<clipPath id="z12736c1"><use xlink:href="#z12736d1"/></clipPath>
</defs>
<path style="--d:0s;--length:1000" clip-path="url(#z12736c1)" d="m 122.50307,287.41104 50.25767,4.71166 4.71165,40.83436 -18.84662,39.2638 -29.84049,6.28221 V 171.19018 l 25.12883,-28.26993 42.40491,26.69938 34.55215,-28.26994 40.83435,25.12884 v 207.31288 l -31.41104,-3.1411 -14.13497,-45.54602 18.84662,-15.70552 65.9632,4.71166 14.13496,48.68712 34.55215,10.99386 20.41718,-20.41718 1.57055,-146.06135 -40.83435,-20.41717 25.12883,-48.68712 81.66871,36.1227"/>
</svg>
  