<svg id="z12736" class="acjk" version="1.1" viewBox="0 0 1024 1024" xmlns="http://www.w3.org/2000/svg" xmlns:xlink="http://www.w3.org/1999/xlink">
<style>
<![CDATA[
@keyframes zk {
	to {
		stroke-dashoffset:0;
	}
}
svg.acjk path[clip-path] {
	--t:3s;
	animation:zk var(--t) linear forwards var(--d);
	stroke-dasharray:var(--length);
	stroke-dashoffset:var(--length);
	stroke-width:40;
	stroke-linecap:round;
	fill:none;
	stroke:#000;
}
svg.acjk path[id] {fill:#ccc;}
]]>
</style>
<path id="z12736d1" d="m 178.87221,313.74009 q 0,-20.83331 14.66665,-35.3333 14.49999,-14.66665 43.66662,-14.66665 27.33331,0 46.99996,13.99998 19.33331,13.83332 28.16664,30.49997 8.66666,16.66666 16.16665,23.49998 7.66666,7 16.99998,7 0,16.66665 -8.33332,16.66665 -16.66665,0 -27.66664,-7.66666 -10.99999,-7.66666 -18.16665,-24.33331 -7.16666,-16.66665 -21.16665,-29.83331 -13.99998,-13.16665 -32.99997,-13.16665 -16.66665,0 -24.99997,10.33332 -8.33333,10.49999 -8.33333,22.99998 0,12.49999 6.33333,18.66665 6.16666,6.33333 18.66665,6.33333 0,8.33332 -4.16666,12.49998 -4.16667,4.16667 -12.49999,4.16667 -16.66665,0 -24.99998,-10.33333 -8.33332,-10.49999 -8.33332,-31.3333 z"/>
<defs>
	<clipPath id="z12736c1"><use xlink:href="#z12736d1"/></clipPath>
</defs>
<path style="--d:0s;--length:1000" clip-path="url(#z12736c1)" d="m 218.30675,353.37423 -29.84049,-21.98773 10.99386,-39.2638 36.1227,-20.41718 61.25154,23.55828 18.84662,47.11657 51.82822,12.56442"/>
</svg>
  