<svg id="z12736" class="acjk" version="1.1" viewBox="0 0 1024 1024" xmlns="http://www.w3.org/2000/svg" xmlns:xlink="http://www.w3.org/1999/xlink">
<style>
<![CDATA[
@keyframes zk {
	to {
		stroke-dashoffset:0;
	}
}
svg.acjk path[clip-path] {
	--t:3s;
	animation:zk var(--t) linear forwards var(--d);
	stroke-dasharray:var(--length);
	stroke-dashoffset:var(--length);
	stroke-width:40;
	stroke-linecap:round;
	fill:none;
	stroke:#000;
}
svg.acjk path[id] {fill:#ccc;}
]]>
</style>
<path id="z12736d1" d="m 287.641,275.4518 q -2.83333,10.66666 -12.33332,18.99998 -10.66666,9.33333 -22.66664,15.99999 l 8.33332,3.99999 11.49999,4.33333 q 2,0.66667 3.83333,0.83333 h 1.16666 q 6,0 10.16666,-6.33332 4.33333,-6.83333 6,-21.33332 0.16666,-1.83333 0.16666,-3.49999 0,-9.16666 -6.16666,-12.99999 z m -82.16659,57.83328 q -0.16666,0.83333 -0.16666,1.66666 0,4.16667 2.99999,5.5 3.5,1.83333 11.49999,2.83333 2.16667,0.33333 4.33333,0.33333 5,0 8.83333,-1.83333 5.33333,-2.5 6.33332,-11.16666 l 1.16667,-11.99998 q -7.83333,3.83333 -16.49998,7.33332 -8.66666,3.66667 -18.49999,7.33333 z m 82.99992,-64.83327 q 4,-6.16666 10.33333,-6.16666 h 1.33333 q 7.16666,0.83333 13.49999,8.99999 5.33333,6.49999 5.33333,17.33331 0,2.66667 -0.5,5.83333 -2.66667,23.49998 -11.83333,34.16664 -7.99999,9.33332 -20.83331,9.33332 -2,0 -4.16666,-0.16667 -3.16667,-0.33333 -6.83333,-1.49999 -3.83333,-1 -7.99999,-2.33334 l -10.99999,-3.33333 q -1.83333,16.16666 -10.49999,23.33332 -7.16666,5.83332 -18.99998,5.83332 -2.66667,0 -5.66666,-0.16666 -21.49998,-2.33333 -31.49997,-10.16666 -8.66666,-6.83333 -8.66666,-17.83332 0,-1.66666 0.16666,-3.33333 1.33334,-11.83332 9.99999,-15.16665 28.33331,-5.49999 48.16662,-14.99998 19.66665,-9.16666 25.99998,-19.99999 2.66666,-4.66666 2.66666,-7.33332 0,-3.66667 -4.66666,-4.16666 0.83333,-6.5 12.33332,-6.5 12.49999,0 13.33332,8.33333 z"/>
<defs>
	<clipPath id="z12736c1"><use xlink:href="#z12736d1"/></clipPath>
</defs>
<path style="--d:0s;--length:1000" clip-path="url(#z12736c1)" d="m 271.70552,252.8589 -7.85276,25.12883 -51.82822,28.26994 -31.41104,10.99386 7.85276,34.55215 39.2638,9.42331 20.41718,-12.56441 1.57055,-34.55215 29.84049,14.13497 26.69939,-10.99387 -1.57055,-42.4049 -29.84049,-43.97546"/>
</svg>
  