<svg id="z12736" class="acjk" version="1.1" viewBox="0 0 1024 1024" xmlns="http://www.w3.org/2000/svg" xmlns:xlink="http://www.w3.org/1999/xlink">
<style>
<![CDATA[
@keyframes zk {
	to {
		stroke-dashoffset:0;
	}
}
svg.acjk path[clip-path] {
	--t:3s;
	animation:zk var(--t) linear forwards var(--d);
	stroke-dasharray:var(--length);
	stroke-dashoffset:var(--length);
	stroke-width:40;
	stroke-linecap:round;
	fill:none;
	stroke:#000;
}
svg.acjk path[id] {fill:#ccc;}
]]>
</style>
<path id="z12736d1" d="m 224.51937,344.92615 q -24.66664,0 -36.99996,-7.99999 -12.33332,-7.99999 -12.33332,-23.83331 0,-13.99999 12.49998,-22.66664 12.49999,-8.5 37.49997,-8.5 h 58.33328 v -4.33333 q 0,-14.33332 12.49998,-14.33332 12.49999,0 12.49999,14.33332 v 4.33333 h 24.99998 v 18.66665 h -24.99998 v 20.66665 q 8.33333,0 12.49999,4.83333 4.16666,4.66666 4.16666,17.66665 0,9.83332 -5.16666,14.66665 -5.33333,4.83333 -15.66665,4.83333 -10.33332,0 -15.66665,-6 -5.16666,-5.66666 -5.16666,-17.33331 l -49.99996,4.66666 h -4.49999 q -1.33333,0.16667 -2.33333,0.16667 -1.16667,0.16666 -2.16667,0.16666 z m -24.33331,-31.8333 q 0,5 5.5,9.16666 5.33333,4.16666 19.49998,4.16666 3.83333,0 8.33332,-0.5 l 49.99996,-4.66666 v -20.66665 h -58.33328 q -14.16665,0 -19.49998,3.83333 -5.5,4 -5.5,8.66666 z"/>
<defs>
	<clipPath id="z12736c1"><use xlink:href="#z12736d1"/></clipPath>
</defs>
<path style="--d:0s;--length:1000" clip-path="url(#z12736c1)" d="m 295.2638,248.14724 v 75.3865 l 1.57056,36.1227 29.84049,1.57055 1.57055,-31.41104 -48.68712,-4.71166 -50.25767,9.42332 -40.83435,-7.85276 1.57055,-28.26994 25.12883,-10.99387 142.92025,-1.57055"/>
</svg>
  