<svg id="z12736" class="acjk" version="1.1" viewBox="0 0 1024 1024" xmlns="http://www.w3.org/2000/svg" xmlns:xlink="http://www.w3.org/1999/xlink">
<style>
<![CDATA[
@keyframes zk {
	to {
		stroke-dashoffset:0;
	}
}
svg.acjk path[clip-path] {
	--t:3s;
	animation:zk var(--t) linear forwards var(--d);
	stroke-dasharray:var(--length);
	stroke-dashoffset:var(--length);
	stroke-width:40;
	stroke-linecap:round;
	fill:none;
	stroke:#000;
}
svg.acjk path[id] {fill:#ccc;}
]]>
</style>
<path id="z12736d1" d="m 256.48714,372.22272 q 2.16666,-2.16667 4.16666,-2.16667 2.16667,0 4.16667,2.16667 l 33.3333,33.3333 V 160.38959 q 0,-17.66665 -33.3333,-27.99998 3.33333,-16.83331 15.83331,-39.166625 12.66666,-22.333312 21.66665,-22.333312 7.33333,0 19.16665,7.16666 l 11.66665,7.16666 q 5.16667,3.166664 12.16666,3.166664 3.66666,0 7.83332,-0.833333 -1.66666,11.666656 -6.83332,19.166646 -5,7.33333 -13.49999,8.16666 -0.83333,0.16667 -1.66666,0.16667 -8.33333,0 -22.49998,-8.83333 -4.33333,-2.49999 -8,-2.49999 -10.49999,0 -18.16664,19.16664 45.66662,14.66666 45.66662,27.99998 v 261.66641 q 0,16.66665 -13.33332,16.66665 -16.66665,0 -26.99998,-10.49999 l -26.99997,-27.16664 -27.16664,27.16664 q -10.49999,10.49999 -27.16664,10.49999 -11.33332,0 -11.33332,-16.66665 v -49.99995 q 0,-24.99997 25.66664,-24.99997 8.99999,0 14.99998,3.33333 6,3.33333 6,11.66665 0,16.66665 -18.66665,26.66664 v 26.33331 z"/>
<defs>
	<clipPath id="z12736c1"><use xlink:href="#z12736d1"/></clipPath>
</defs>
<path style="--d:0s;--length:1000" clip-path="url(#z12736c1)" d="m 227.73006,367.5092 12.56442,-17.27607 -32.9816,-1.57055 v 78.5276 l 51.82822,-45.54601 42.40491,40.83436 h 12.56442 V 152.34356 l -42.40491,-23.55828 21.98773,-45.546016 26.69939,14.134969 32.98159,4.711657"/>
</svg>
  