<svg id="z12736" class="acjk" version="1.1" viewBox="0 0 1024 1024" xmlns="http://www.w3.org/2000/svg" xmlns:xlink="http://www.w3.org/1999/xlink">
<style>
<![CDATA[
@keyframes zk {
	to {
		stroke-dashoffset:0;
	}
}
svg.acjk path[clip-path] {
	--t:3s;
	animation:zk var(--t) linear forwards var(--d);
	stroke-dasharray:var(--length);
	stroke-dashoffset:var(--length);
	stroke-width:40;
	stroke-linecap:round;
	fill:none;
	stroke:#000;
}
svg.acjk path[id] {fill:#ccc;}
]]>
</style>
<path id="z12736d1" d="m 294.44878,297.25953 v -9.66666 q -6.66666,3.66667 -6.66666,7 0,2.66666 6.66666,2.66666 z m -92.49991,65.66661 q -15.83332,0 -15.83332,-14.49999 v -76.83326 h 24.99997 v 64.49994 l 41.66663,-31.49997 41.66663,31.49997 v -25.99998 q -10.83332,0 -17.16665,-3.83333 -6.16666,-3.66666 -6.16666,-11.49999 0,-8.83332 11.66665,-15.99998 11.66666,-7.16666 24.16665,-7.16666 12.49998,0 12.49998,9.66666 v 67.1666 q 0,14.49999 -15.83331,14.49999 -9.16666,0 -19.49999,-8.16666 l -31.3333,-24.66665 -31.16664,24.66665 q -10.49999,8.16666 -19.66664,8.16666 z"/>
<defs>
	<clipPath id="z12736c1"><use xlink:href="#z12736d1"/></clipPath>
</defs>
<path style="--d:0s;--length:1000" clip-path="url(#z12736c1)" d="m 193.17791,260.71166 4.71166,105.22699 51.82822,-47.11656 54.96933,36.1227 1.57055,-80.09816 -31.41104,3.1411 -6.28221,23.55828 72.2454,34.55215"/>
</svg>
  