<svg id="z12736" class="acjk" version="1.1" viewBox="0 0 1024 1024" xmlns="http://www.w3.org/2000/svg" xmlns:xlink="http://www.w3.org/1999/xlink">
<style>
<![CDATA[
@keyframes zk {
	to {
		stroke-dashoffset:0;
	}
}
svg.acjk path[clip-path] {
	--t:3s;
	animation:zk var(--t) linear forwards var(--d);
	stroke-dasharray:var(--length);
	stroke-dashoffset:var(--length);
	stroke-width:40;
	stroke-linecap:round;
	fill:none;
	stroke:#000;
}
svg.acjk path[id] {fill:#ccc;}
]]>
</style>
<path id="z12736d1" d="m 201.49997,355.9999 q 19.99998,0 19.99998,-41.66663 0,-16.66665 -19.99998,-16.66665 z M 171.5,181.00007 q 0,-20.33332 18.33331,-35.16663 18.33332,-14.83332 28.16664,-14.83332 8.33333,0 36.8333,22.33331 28.66664,-22.33331 36.99997,-22.33331 9.83332,0 27.99997,14.83332 18.33332,14.83331 18.33332,35.16663 V 380.99988 H 308.16653 V 181.00007 q 0,-17.33332 -11.49998,-23.66665 -2.16667,-0.99999 -4.66667,-0.99999 -12.16665,0 -37.16663,24.66664 -24.83331,-24.66664 -37.16663,-24.66664 -2.5,0 -4.49999,0.99999 -11.66666,6.33333 -11.66666,23.66665 v 99.9999 q 36.66663,0 36.66663,33.3333 0,33.33331 -10.49999,49.99996 -10.33332,16.66665 -31.16664,16.66665 -24.99997,0 -24.99997,-16.66665 z"/>
<defs>
	<clipPath id="z12736c1"><use xlink:href="#z12736d1"/></clipPath>
</defs>
<path style="--d:0s;--length:1000" clip-path="url(#z12736c1)" d="m 197.88957,282.69939 34.55215,15.70552 1.57055,40.83435 -18.84663,32.9816 -31.41104,3.1411 V 169.61963 l 34.55215,-28.26994 36.1227,26.69939 40.83435,-29.84049 32.9816,42.40491 -3.14111,215.16564"/>
</svg>
  