<svg id="z12736" class="acjk" version="1.1" viewBox="0 0 1024 1024" xmlns="http://www.w3.org/2000/svg" xmlns:xlink="http://www.w3.org/1999/xlink">
<style>
<![CDATA[
@keyframes zk {
	to {
		stroke-dashoffset:0;
	}
}
svg.acjk path[clip-path] {
	--t:3s;
	animation:zk var(--t) linear forwards var(--d);
	stroke-dasharray:var(--length);
	stroke-dashoffset:var(--length);
	stroke-width:40;
	stroke-linecap:round;
	fill:none;
	stroke:#000;
}
svg.acjk path[id] {fill:#ccc;}
]]>
</style>
<path id="z12736d1" d="m 177.78222,332.04784 q 0,4.5 8.33333,7.66666 v -11.16666 q -8.33333,0 -8.33333,3.5 z m 33.3333,-23.49998 v 37.49997 q 0,12.49998 -12.49998,12.49998 -12.49999,0 -24.99998,-7.49999 -12.49999,-7.49999 -12.49999,-19.16665 0,-9.99999 6.16666,-14.99998 6.33333,-5 18.83332,-5 v -3.33333 q 0,-21.66664 18.33331,-31.66663 18.33332,-9.99999 48.33329,-9.99999 29.99997,0 48.33329,9.99999 18.33331,9.99999 18.33331,31.66663 v 49.99995 h -24.99997 v -49.99995 q 0,-13.33332 -11.99999,-19.16665 -12.16666,-5.83332 -29.66664,-5.83332 -17.49998,0 -29.49997,5.83332 -12.16666,5.83333 -12.16666,19.16665 z"/>
<defs>
	<clipPath id="z12736c1"><use xlink:href="#z12736d1"/></clipPath>
</defs>
<path style="--d:0s;--length:1000" clip-path="url(#z12736c1)" d="m 182.18405,310.96933 -23.55828,17.27607 4.71165,21.98773 21.98773,14.13497 h 17.27608 l -4.71166,-75.3865 32.9816,-14.13497 61.25153,1.57055 20.41718,14.13497 -4.71166,87.95092"/>
</svg>
  