<svg id="z12736" class="acjk" version="1.1" viewBox="0 0 1024 1024" xmlns="http://www.w3.org/2000/svg" xmlns:xlink="http://www.w3.org/1999/xlink">
<style>
<![CDATA[
@keyframes zk {
	to {
		stroke-dashoffset:0;
	}
}
svg.acjk path[clip-path] {
	--t:3s;
	animation:zk var(--t) linear forwards var(--d);
	stroke-dasharray:var(--length);
	stroke-dashoffset:var(--length);
	stroke-width:40;
	stroke-linecap:round;
	fill:none;
	stroke:#000;
}
svg.acjk path[id] {fill:#ccc;}
]]>
</style>
<path id="z12736d1" d="m 326.33825,387.55604 q 0,41.66662 -67.49994,41.66662 -65.49993,0 -65.49993,-41.66662 v -33.49997 q 0,-16.49998 17.33331,-16.49998 10.66666,0 19.99998,8.99999 9.33333,9.16665 9.33333,17.49998 0,14.99999 -18.66665,14.99999 v 8.49999 q 0,24.99997 37.49996,24.99997 37.49997,0 37.49997,-24.99997 V 160.38959 q 0,-17.66665 -33.3333,-27.99998 3.33333,-16.83331 15.83331,-39.166625 12.66666,-22.333312 21.66665,-22.333312 7.33333,0 19.16665,7.16666 l 11.66665,7.16666 q 5.16667,3.166664 12.16666,3.166664 3.66666,0 7.83333,-0.833333 -1.66667,11.666656 -6.83333,19.166646 -5,7.33333 -13.49999,8.16666 -0.83333,0.16667 -1.66666,0.16667 -8.33333,0 -22.49998,-8.83333 -4.33333,-2.49999 -7.99999,-2.49999 -10.49999,0 -18.16665,19.16664 45.66662,14.66666 45.66662,27.99998 z"/>
<defs>
	<clipPath id="z12736c1"><use xlink:href="#z12736d1"/></clipPath>
</defs>
<path style="--d:0s;--length:1000" clip-path="url(#z12736c1)" d="m 229.30061,369.07975 h 18.84663 l -1.57055,-28.26993 -39.26381,3.1411 v 69.10429 l 42.40491,7.85277 42.40491,-9.42332 21.98773,-18.84662 -6.28221,-246.57669 -42.40491,-17.27607 26.69939,-42.404912 31.41104,10.993865 56.53988,-6.282208"/>
</svg>
  