<svg id="z12736" class="acjk" version="1.1" viewBox="0 0 1024 1024" xmlns="http://www.w3.org/2000/svg" xmlns:xlink="http://www.w3.org/1999/xlink">
<style>
<![CDATA[
@keyframes zk {
	to {
		stroke-dashoffset:0;
	}
}
svg.acjk path[clip-path] {
	--t:3s;
	animation:zk var(--t) linear forwards var(--d);
	stroke-dasharray:var(--length);
	stroke-dashoffset:var(--length);
	stroke-width:40;
	stroke-linecap:round;
	fill:none;
	stroke:#000;
}
svg.acjk path[id] {fill:#ccc;}
]]>
</style>
<path id="z12736d1" d="m 203.80775,329.92617 q 0,8.33332 4.16666,12.49999 4.16666,4.16666 12.49999,4.16666 8.33332,0 12.49999,-4.16666 4.16666,-4.16667 4.16666,-12.49999 v -24.99998 q 0,-16.66665 10.33332,-24.99997 10.49999,-8.33333 31.33331,-8.33333 20.83331,0 31.3333,8.33333 10.33332,8.33332 10.33332,24.99997 v 58.33328 h -24.99997 v -58.33328 q 0,-8.33332 -4.16667,-12.49999 -4.16666,-4.16666 -12.49998,-4.16666 -8.33333,0 -12.49999,4.16666 -4.16666,4.16667 -4.16666,12.49999 v 24.99998 q 0,16.66665 -10.33333,24.99997 -10.49999,8.33333 -31.3333,8.33333 -20.83331,0 -31.3333,-8.33333 -10.33333,-8.33332 -10.33333,-24.99997 v -58.33328 h 24.99998 z"/>
<defs>
	<clipPath id="z12736c1"><use xlink:href="#z12736d1"/></clipPath>
</defs>
<path style="--d:0s;--length:1000" clip-path="url(#z12736c1)" d="m 182.18405,266.99387 6.28221,76.95705 20.41718,15.70552 h 25.12883 l 17.27607,-14.13497 -1.57055,-61.25153 23.55828,-12.56442 26.69939,6.28221 9.42331,9.42331 -1.57055,100.51534"/>
</svg>
  