<svg id="z12736" class="acjk" version="1.1" viewBox="0 0 1024 1024" xmlns="http://www.w3.org/2000/svg" xmlns:xlink="http://www.w3.org/1999/xlink">
<style>
<![CDATA[
@keyframes zk {
	to {
		stroke-dashoffset:0;
	}
}
svg.acjk path[clip-path] {
	--t:3s;
	animation:zk var(--t) linear forwards var(--d);
	stroke-dasharray:var(--length);
	stroke-dashoffset:var(--length);
	stroke-width:40;
	stroke-linecap:round;
	fill:none;
	stroke:#000;
}
svg.acjk path[id] {fill:#ccc;}
]]>
</style>
<path id="z12736d1" d="m 242.07049,140.88961 q 0,4.99999 9.33332,4.99999 v -9.16666 q -9.33332,0 -9.33332,4.16667 z m 14.33332,63.33327 q 8.33332,0 8.33332,-4.16666 0,-4.16667 -4.16666,-4.16667 -4.16666,0 -4.16666,8.33333 z m 0,66.33327 q 0,50.33328 -59.66661,50.33328 -65.33327,0 -65.33327,-41.66662 v -41.66663 h 29.99997 v 41.66663 q 0,21.66664 35.3333,21.66664 29.66664,0 29.66664,-30.16663 v -46.49996 h -28.33331 q -83.33325,0 -83.33325,-49.99995 v -53.33328 q 0,-49.999957 83.33325,-49.999957 83.33325,0 83.33325,49.999957 v 24.99997 q 0,16.66665 -27.99997,16.66665 -27.99997,0 -27.99997,-21.66664 0,-10.33333 6.16666,-15.66666 6.16666,-5.16666 19.83331,-5.16666 0,-29.166636 -53.33328,-29.166636 -53.33328,0 -53.33328,29.999976 v 53.33328 q 0,29.99997 53.33328,29.99997 h 28.33331 q 0,-24.99998 34.16663,-24.99998 20.83331,0 20.83331,20.83332 0,24.16664 -24.99997,24.16664 z m 141.66653,141.99986 q 0,16.66665 -16.66665,16.66665 -14.99999,0 -27.83331,-12.83332 l -28.8333,-28.8333 -28.66664,28.8333 q -12.83332,12.83332 -27.99998,12.83332 -16.66665,0 -16.66665,-16.66665 v -33.3333 q -16.66665,0 -16.66665,-11.66665 0,-9.16666 9.99999,-19.66665 9.99999,-10.33332 19.99998,-10.33332 16.66665,0 16.66665,16.66665 v 48.49995 l 33.33331,-33.49997 q 4.99999,-4.99999 9.99999,-4.99999 4.99999,0 9.99999,4.99999 l 33.3333,33.3333 V 160.38959 q 0,-17.66665 -33.3333,-27.99998 3.33333,-16.83331 15.83332,-39.166625 12.66665,-22.333312 21.66664,-22.333312 7.33333,0 19.16665,7.16666 l 11.66666,7.16666 q 5.16666,3.166664 12.16665,3.166664 3.66666,0 7.83333,-0.833333 -1.66667,11.666656 -6.83333,19.166646 -5,7.33333 -13.49999,8.16666 -0.83333,0.16667 -1.66666,0.16667 -8.33333,0 -22.49998,-8.83333 -4.33333,-2.49999 -7.99999,-2.49999 -10.49999,0 -18.16665,19.16664 45.66662,14.66666 45.66662,27.99998 z"/>
<defs>
	<clipPath id="z12736c1"><use xlink:href="#z12736d1"/></clipPath>
</defs>
<path style="--d:0s;--length:1000" clip-path="url(#z12736c1)" d="m 141.34969,235.58282 6.28221,65.96319 31.41104,9.42332 50.25767,-3.14111 17.27608,-26.69939 -14.13497,-95.80368 32.98159,-6.28221 17.27608,15.70553 v 18.84662 l -80.09816,1.57055 -62.82209,-9.42331 -10.99386,-34.55215 6.2822,-75.386499 32.9816,-15.705521 87.95092,6.282208 15.70552,39.263802 4.71166,39.26381 -45.54601,-3.14111 -3.14111,-23.55828 53.39877,-17.27607 6.28221,158.62576 -103.65644,78.52761 1.57055,78.52761 56.53988,-65.96319 20.41718,-18.84663 6.28221,65.96319 54.96932,-42.40491 59.68098,43.97546 1.57056,-271.70552 -42.40491,-23.55828 31.41104,-42.404908 28.26994,18.846628 h 36.1227"/>
</svg>
  