<svg id="z12736" class="acjk" version="1.1" viewBox="0 0 1024 1024" xmlns="http://www.w3.org/2000/svg" xmlns:xlink="http://www.w3.org/1999/xlink">
<style>
<![CDATA[
@keyframes zk {
	to {
		stroke-dashoffset:0;
	}
}
svg.acjk path[clip-path] {
	--t:3s;
	animation:zk var(--t) linear forwards var(--d);
	stroke-dasharray:var(--length);
	stroke-dashoffset:var(--length);
	stroke-width:40;
	stroke-linecap:round;
	fill:none;
	stroke:#000;
}
svg.acjk path[id] {fill:#ccc;}
]]>
</style>
<path id="z12736d1" d="m 171.5,249.16667 q -8.33333,3.33333 -8.33333,15.16665 0,8.33333 8.33333,8.33333 z m 0,40.16663 q -24.99998,0 -24.99998,-24.99998 0,-33.3333 33.3333,-33.3333 21.66665,0 21.66665,16.66665 V 354.4999 l 39.3333,-39.33329 q 6.99999,-7.16666 14.16665,-7.16666 6.99999,0 14.16665,7.16666 l 38.99996,39.16663 V 181.00007 q 0,-29.99997 -44.99995,-29.99997 -61.66661,0 -61.66661,21.66664 0,16.66665 -13.33332,16.66665 -16.66665,0 -16.66665,-16.66665 0,-29.16664 4.16666,-40.33329 4.16666,-11.33332 4.16666,-22.99998 0,-11.666655 -16.66665,-11.666655 0,-16.666651 16.66665,-16.666651 29.99997,0 29.99997,28.333306 0,14.16665 -4.16666,23.66664 -2.5,5.66667 -3.49999,11.99999 16.66665,-13.99998 60.99994,-13.99998 74.99993,0 74.99993,49.99995 v 183.33316 q 0,16.66665 -16.66665,16.66665 -14.99999,0 -27.83331,-12.83332 l -38.8333,-38.8333 -38.66663,38.8333 q -12.83332,12.83332 -27.99997,12.83332 -16.66665,0 -16.66665,-16.66665 z"/>
<defs>
	<clipPath id="z12736c1"><use xlink:href="#z12736d1"/></clipPath>
</defs>
<path style="--d:0s;--length:1000" clip-path="url(#z12736c1)" d="m 169.61963,284.26994 -25.12883,-7.85276 v -28.26994 l 15.70552,-15.70552 26.69939,1.57055 9.42331,138.20859 58.11043,-56.53988 58.11043,54.96933 h 9.42331 V 161.76687 l -32.98159,-20.41718 -43.97547,-1.57055 -34.55214,10.99387 -28.26994,34.55214 10.99386,-56.53987 -1.57055,-40.83436 -50.25767,-18.846626"/>
</svg>
  