<svg id="z12736" class="acjk" version="1.1" viewBox="0 0 1024 1024" xmlns="http://www.w3.org/2000/svg" xmlns:xlink="http://www.w3.org/1999/xlink">
<style>
<![CDATA[
@keyframes zk {
	to {
		stroke-dashoffset:0;
	}
}
svg.acjk path[clip-path] {
	--t:3s;
	animation:zk var(--t) linear forwards var(--d);
	stroke-dasharray:var(--length);
	stroke-dashoffset:var(--length);
	stroke-width:40;
	stroke-linecap:round;
	fill:none;
	stroke:#000;
}
svg.acjk path[id] {fill:#ccc;}
]]>
</style>
<path id="z12736d1" d="m 251.04384,362.70225 q -15.33332,19.83331 -29.49997,19.83331 -24.33331,0 -24.33331,-20.33331 0,-11.83332 9.66666,-30.33331 l 10.33332,-18.99998 q -13.99999,0 -13.99999,-15.33332 0,-15.16665 19.99998,-15.16665 16.66666,0 21.66665,10.16666 1.66667,3.66666 1.66667,8.16666 0,8.49999 -6,20.49998 l -9.99999,18.66665 q -6.33333,12.33332 -6.33333,17.83331 0,4.33333 4,4.33333 8.66666,0 32.16664,-29.66664 3.49999,29.66664 9.49999,29.66664 5.49999,0 9.49999,-18.99998 12.49999,-60.66661 18.99998,-60.66661 6.49999,0 6.49999,14.83332 0,15.16665 -2.83333,46.16662 -6.16666,39.16663 -25.49997,39.16663 -18.83332,0 -25.49998,-19.83331 z"/>
<defs>
	<clipPath id="z12736c1"><use xlink:href="#z12736d1"/></clipPath>
</defs>
<path style="--d:0s;--length:1000" clip-path="url(#z12736c1)" d="m 205.74233,307.82822 -6.28221,-21.98773 36.1227,9.42331 -18.84662,40.83436 -10.99387,39.2638 21.98773,-4.71165 L 256,351.80368 l 9.42331,18.84663 h 20.41718 l 32.9816,-120.93252"/>
</svg>
  