<svg id="z12736" class="acjk" version="1.1" viewBox="0 0 1024 1024" xmlns="http://www.w3.org/2000/svg" xmlns:xlink="http://www.w3.org/1999/xlink">
<style>
<![CDATA[
@keyframes zk {
	to {
		stroke-dashoffset:0;
	}
}
svg.acjk path[clip-path] {
	--t:3s;
	animation:zk var(--t) linear forwards var(--d);
	stroke-dasharray:var(--length);
	stroke-dashoffset:var(--length);
	stroke-width:40;
	stroke-linecap:round;
	fill:none;
	stroke:#000;
}
svg.acjk path[id] {fill:#ccc;}
]]>
</style>
<path id="z12736d1" d="m 244.16047,156.0994 q 0,8.33333 3.33333,12.49999 3.33333,4.16666 9.99999,4.16666 6.66666,0 9.99999,-4.16666 3.33333,-4.16666 3.33333,-12.49999 0,-8.33333 -3.33333,-12.49999 -3.33333,-4.16666 -9.99999,-4.16666 -6.66666,0 -9.99999,4.16666 -3.33333,4.16666 -3.33333,12.49999 z m 50.83328,0 q 0,18.83332 -9.33332,28.16664 -9.33332,9.33332 -28.16664,9.33332 -18.83331,0 -28.16664,-9.33332 -9.33332,-9.33332 -9.33332,-28.16664 0,-18.83332 9.33332,-28.16664 9.33333,-9.33332 28.16664,-9.33332 18.83332,0 28.16664,9.33332 9.33332,9.33332 9.33332,28.16664 z"/>
<defs>
	<clipPath id="z12736c1"><use xlink:href="#z12736d1"/></clipPath>
</defs>
<path style="--d:0s;--length:1000" clip-path="url(#z12736c1)" d="m 259.1411,120.93252 -31.41104,10.99386 -6.28221,36.1227 17.27608,26.69939 h 36.1227 l 21.98773,-23.55829 v -34.55214 l -18.84663,-17.27608 -56.53988,-18.84662"/>
</svg>
  