<svg id="z12736" class="acjk" version="1.1" viewBox="0 0 512 512" xmlns="http://www.w3.org/2000/svg" xmlns:xlink="http://www.w3.org/1999/xlink">
<style>
<![CDATA[
@keyframes zk {
	to {
		stroke-dashoffset:0;
	}
}
svg.acjk path[clip-path] {
	--t:3s;
	animation:zk var(--t) linear forwards var(--d);
	stroke-dasharray:var(--length);
	stroke-dashoffset:var(--length);
	stroke-width:40;
	stroke-linecap:round;
	fill:none;
	stroke:#000;
}
svg.acjk path[id] {fill:#ccc;}
]]>
</style>
<path id="z12736d1" d="m 187.16665,349.83324 q -19.83331,-31.3333 -19.83331,-68.83327 v -49.99995 q 0,-37.49996 19.83331,-68.6666 19.83331,-31.3333 67.83327,-31.3333 47.83329,0 67.49993,31.3333 19.83332,31.16664 19.83332,68.6666 v 49.99995 q 0,37.49997 -19.83332,68.83327 -19.66664,31.16664 -67.49993,31.16664 -47.99996,0 -67.83327,-31.16664 z M 209.99996,180.3334 q -12.66665,25.16665 -12.66665,50.66662 v 49.99995 q 0,25.49998 12.66665,50.83329 12.66666,25.16664 44.99996,25.16664 32.16663,0 44.66662,-25.16664 12.66666,-25.33331 12.66666,-50.83329 v -49.99995 q 0,-25.49997 -12.66666,-50.66662 -12.49999,-25.33331 -44.66662,-25.33331 -32.3333,0 -44.99996,25.33331 z"/>
<defs>
	<clipPath id="z12736c1"><use xlink:href="#z12736d1"/></clipPath>
</defs>
<path style="--d:0s;--length:1000" clip-path="url(#z12736c1)" d="m 257.57055,139.77914 -45.54601,9.42331 -31.41104,54.96933 v 100.51534 l 21.98773,47.11656 43.97546,17.27607 62.82208,-10.99386 21.98773,-48.68712 -7.85276,-109.93865 -25.12883,-50.25767 -65.96319,-23.55828"/>
</svg>
  