<svg id="z12736" class="acjk" version="1.1" viewBox="0 0 1024 1024" xmlns="http://www.w3.org/2000/svg" xmlns:xlink="http://www.w3.org/1999/xlink">
<style>
<![CDATA[
@keyframes zk {
	to {
		stroke-dashoffset:0;
	}
}
svg.acjk path[clip-path] {
	--t:3s;
	animation:zk var(--t) linear forwards var(--d);
	stroke-dasharray:var(--length);
	stroke-dashoffset:var(--length);
	stroke-width:40;
	stroke-linecap:round;
	fill:none;
	stroke:#000;
}
svg.acjk path[id] {fill:#ccc;}
]]>
</style>
<path id="z12736d1" d="m 322.33319,264.33332 q 1.66666,-1.66666 1.66666,-5.83333 0,-5.16666 -6.66666,-8.49999 v 16.16665 q 3.33333,0 5,-1.83333 z M 167.33334,247.66667 q 0,-57.33328 60.83327,-75.66659 l 47.16662,-15.16665 q 36.99997,-11.33333 36.99997,-30.83331 0,-11.66665 -17.99999,-11.66665 0,-16.666655 16.66666,-16.666655 31.3333,0 31.3333,28.333305 0,34.99997 -56.99995,52.99995 l -50.66662,15.83332 q -37.33329,13.16665 -37.33329,52.83328 v 83.33326 q 0,9.66665 13.66665,17.83331 13.66665,8.16666 31.3333,8.16666 h 68.66661 q -23.66665,-37.8333 -23.66665,-50.99995 v -41.66663 q 0,-33.3333 20.99998,-33.3333 12.33332,0 19.83332,4.16666 7.66665,4 10.83332,11.49999 3.33333,7.33333 3.33333,16.83332 0,9.16666 -5.83333,17.49998 -5.83333,8.33333 -19.16665,8.33333 v 16.66665 q 0,16.83332 12.49999,35.49997 l 12.49999,18.66664 v 20.83332 h -99.99991 q -33.3333,0 -54.16661,-16.66665 -20.83331,-16.66665 -20.83331,-33.3333 z"/>
<defs>
	<clipPath id="z12736c1"><use xlink:href="#z12736d1"/></clipPath>
</defs>
<path style="--d:0s;--length:1000" clip-path="url(#z12736c1)" d="m 303.11656,282.69939 27.48467,-2.35583 10.99386,-22.77301 -11.77914,-19.6319 h -31.41104 l 3.92638,80.09816 29.84049,49.47239 -70.67485,3.92638 -47.11656,-4.71165 -29.84049,-15.70552 -2.35583,-41.61964 5.49693,-91.8773 25.12884,-29.84049 58.8957,-18.06135 50.25767,-16.4908 14.92025,-34.55214 -9.42332,-12.56442 -69.88957,-18.06135"/>
</svg>
  