<svg id="z12736" class="acjk" version="1.1" viewBox="0 0 1024 1024" xmlns="http://www.w3.org/2000/svg" xmlns:xlink="http://www.w3.org/1999/xlink">
<style>
<![CDATA[
@keyframes zk {
	to {
		stroke-dashoffset:0;
	}
}
svg.acjk path[clip-path] {
	--t:3s;
	animation:zk var(--t) linear forwards var(--d);
	stroke-dasharray:var(--length);
	stroke-dashoffset:var(--length);
	stroke-width:40;
	stroke-linecap:round;
	fill:none;
	stroke:#000;
}
svg.acjk path[id] {fill:#ccc;}
]]>
</style>
<path id="z12736d1" d="m 312.3332,282.8333 v -16.16665 q -9.99999,3.33333 -9.99999,8.5 0,4.16666 1.66666,5.83332 1.66667,1.83333 8.33333,1.83333 z M 167.33334,214.33337 q 0,-35.8333 19.66664,-59.49994 19.83332,-23.83331 65.16661,-23.83331 37.16663,0 60.16661,22.49997 v -22.49997 q 0,-41.666631 33.3333,-41.666631 21.66664,0 21.66664,22.333311 -24.99997,0 -24.99997,19.33332 v 58.33327 q 0,16.66665 -15.66665,16.66665 -11.99999,0 -15.66665,-8.33332 -18.99999,-42.66663 -58.83328,-42.66663 -29.66664,0 -42.3333,15.33332 -12.49998,15.16665 -12.49998,43.99996 v 116.66656 q 0,10.66665 16.16665,19.33331 3.49999,2 7.49999,2 14.16665,0 33.99997,-24.83331 19.83331,24.83331 33.99997,24.83331 3.83333,0 7.33332,-2 15.99999,-8.66666 15.99999,-19.33331 v -24.99998 q -16.66665,0 -22.49998,-8.33333 -5.83333,-8.33332 -5.83333,-17.49998 0,-9.49999 3.16666,-16.83332 3.33333,-7.49999 10.83333,-11.49999 7.66666,-4.16666 21.99998,-4.16666 22.33331,0 22.33331,33.3333 v 49.99996 q 0,20.33331 -21.33331,35.16663 -21.16665,14.83332 -32.66664,14.83332 -9.66666,0 -33.3333,-23.99998 -23.66665,23.99998 -33.3333,23.99998 -11.66666,0 -32.99997,-14.83332 -21.33331,-14.83332 -21.33331,-35.16663 z"/>
<defs>
	<clipPath id="z12736c1"><use xlink:href="#z12736d1"/></clipPath>
</defs>
<path style="--d:0s;--length:1000" clip-path="url(#z12736c1)" d="m 320.94839,299.84798 -24.43205,-6.66329 -5.55274,-16.65822 9.99493,-15.54767 19.98986,-6.66329 6.66329,2.2211 -2.22109,86.62274 -34.42699,27.76371 -36.64809,-27.76371 -33.31644,26.65316 -35.53754,-18.87932 -4.44219,-147.70289 16.65822,-42.20083 36.64808,-16.65822 34.42699,-4.44219 34.42699,17.76877 24.43206,36.64808 -1.11055,-75.51727 7.77384,-15.54767 83.29111,-16.65822"/>
</svg>
  