<?xml version="1.0" encoding="UTF-8" standalone="no"?>
<!-- Created with Inkscape (http://www.inkscape.org/) -->

<svg
   width="512"
   height="512"
   viewBox="0 0 512 512"
   version="1.1"
   id="svg1"
   xmlns="http://www.w3.org/2000/svg"
   xmlns:svg="http://www.w3.org/2000/svg">
  <defs
     id="defs1" />
  <path
     style="font-size:341.333px;font-family:'Khmer OS Siemreap';-inkscape-font-specification:'Khmer OS Siemreap';stroke:#000000;stroke-width:0"
     d="m 181.00008,288.49997 62.49994,-31.33331 q 62.49994,-31.16663 62.49994,-59.49994 0,-41.66663 -49.99995,-41.66663 -42.66663,0 -48.83329,30.33331 3.66666,0.66666 7.33333,2.49999 5.33332,3 8.33332,8.5 3.16666,5.33332 3.16666,11.16665 0,5.83333 -2.99999,11.16666 -3,5.33333 -8.33333,8.33332 -5.33333,3 -11.16665,3 -5.83333,0 -11.16666,-3 -5.33333,-2.99999 -8.33333,-8.33332 -2.99999,-5.33333 -2.99999,-11.16666 v -10.83332 q 0,-66.6666 74.99993,-66.6666 74.99992,0 74.99992,66.6666 0,43.66662 -75.49992,81.49992 l -49.49996,24.66664 v 10.49999 q 0,41.66663 49.99996,41.66663 49.99995,0 49.99995,-41.66663 v -33.3333 h 24.99997 v 33.3333 q 0,66.66661 -74.99992,66.66661 -74.99993,0 -74.99993,-66.66661 z"
     id="text1"
     aria-label="áž" />
  <path
     style="fill:#000000;stroke:#000000;stroke-width:0"
     d="m 204.34085,194.90119 10.5502,5.55274 3.33165,14.43712 -10.55021,9.99494 -15.54767,-3.33165 -5.55274,-14.43712 12.7713,-49.97467 53.30631,-15.54767 47.19829,8.88438 16.65822,38.31391 -3.88692,34.42699 -39.42445,33.87172 -69.96453,33.31644 -8.88439,8.32911 0.55528,32.2059 10.5502,21.65568 29.42953,16.10295 46.64302,-1.11055 19.98986,-11.10548 14.9924,-22.21096 6.10802,-68.29871 v 0"
     id="path1" />
</svg>
