<?xml version="1.0" encoding="UTF-8" standalone="no"?>
<!-- Created with Inkscape (http://www.inkscape.org/) -->

<svg
   width="512"
   height="512"
   viewBox="0 0 512 512"
   version="1.1"
   id="svg1"
   inkscape:version="1.3.2 (091e20e, 2023-11-25)"
   sodipodi:docname="p.svg"
   xmlns:inkscape="http://www.inkscape.org/namespaces/inkscape"
   xmlns:sodipodi="http://sodipodi.sourceforge.net/DTD/sodipodi-0.dtd"
   xmlns="http://www.w3.org/2000/svg"
   xmlns:svg="http://www.w3.org/2000/svg">
  <sodipodi:namedview
     id="namedview1"
     pagecolor="#ffffff"
     bordercolor="#000000"
     borderopacity="0.25"
     inkscape:showpageshadow="2"
     inkscape:pageopacity="0.0"
     inkscape:pagecheckerboard="0"
     inkscape:deskcolor="#d1d1d1"
     inkscape:document-units="px"
     inkscape:zoom="0.63671875"
     inkscape:cx="254.42945"
     inkscape:cy="255.21472"
     inkscape:window-width="1392"
     inkscape:window-height="942"
     inkscape:window-x="0"
     inkscape:window-y="25"
     inkscape:window-maximized="0"
     inkscape:current-layer="svg1" />
  <defs
     id="defs1" />
  <path
     style="-inkscape-font-specification:Dangrek;stroke:#000000;stroke-width:0"
     d="m 343.1665,247.66664 q 0,22.66664 -6.49999,41.49996 -6.5,18.66664 -18.33332,31.66663 -10.99999,12.33332 -25.99997,19.16665 -14.83332,6.66666 -31.49997,6.66666 -14.49999,0 -26.33331,-3.16666 -11.66666,-3.16667 -23.83331,-9.83333 v 77.99993 H 179.33332 V 156.83339 h 31.33331 v 19.49998 q 12.49999,-10.49999 27.99997,-17.49998 15.66665,-7.16666 33.3333,-7.16666 33.66664,0 52.33329,25.49997 18.83331,25.33331 18.83331,70.49994 z m -32.3333,0.83333 q 0,-33.66664 -11.49999,-50.33329 -11.49999,-16.66665 -35.3333,-16.66665 -13.49999,0 -27.16664,5.83333 -13.66665,5.83333 -26.16664,15.33332 v 105.4999 q 13.33332,5.99999 22.83331,8.16666 9.66666,2.16666 21.83331,2.16666 26.16664,0 40.8333,-17.66665 14.66665,-17.66665 14.66665,-52.33328 z"
     id="text1"
     inkscape:label="text1"
     aria-label="p" />
  <path
     style="fill:#000000;stroke:#000000;stroke-width:0"
     d="m 190.03681,136.63804 3.1411,287.41104"
     id="path1" />
  <path
     style="fill:#000000;stroke:#000000;stroke-width:0"
     d="m 168.04908,204.17178 76.95705,-36.1227 65.9632,3.1411 15.70552,70.67485 -9.42332,64.39264 -56.53987,23.55828 -113.07976,-21.98773"
     id="path2" />
</svg>
