<?xml version="1.0" encoding="UTF-8" standalone="no"?>
<!-- Created with Inkscape (http://www.inkscape.org/) -->

<svg
   width="512"
   height="512"
   viewBox="0 0 512 512"
   version="1.1"
   id="svg1"
   xmlns="http://www.w3.org/2000/svg"
   xmlns:svg="http://www.w3.org/2000/svg">
  <defs
     id="defs1" />
  <path
     style="font-size:341.333px;font-family:'Khmer OS Content';-inkscape-font-specification:'Khmer OS Content';text-align:center;text-anchor:middle;stroke:#000000;stroke-width:0"
     d="m 84.833414,355.9999 q 19.999986,0 19.999986,-41.66663 0,-16.66665 -19.999986,-16.66665 z M 178.16666,171.00008 q -9.99999,-19.99998 -46.66662,-19.99998 -36.666635,0 -46.666626,19.99998 v 109.99989 q 36.666636,0 36.666636,33.3333 0,33.33331 -10.49999,49.99996 -10.33333,16.66665 -31.166641,16.66665 -24.999976,0 -24.999976,-16.66665 V 164.33342 q 16.66665,-33.3333 76.666597,-33.3333 59.99994,0 76.66659,33.3333 v 176.6665 q 9.99999,19.99998 46.66662,19.99998 36.66663,0 46.66662,-19.99998 V 220.50003 q 0,-17.66665 -33.3333,-27.99997 3.33333,-16.83332 15.83332,-39.16663 12.66666,-22.33331 21.66665,-22.33331 7.33332,0 19.16665,7.16666 l 11.66665,7.16666 q 5.16666,3.16666 12.16666,3.16666 3.66666,0 7.83332,-0.83333 -1.66666,11.66665 -6.83333,19.16665 -4.99999,7.33332 -13.49998,8.16665 -0.83333,0.16667 -1.66667,0.16667 -8.33332,0 -22.49998,-8.83332 -4.33333,-2.5 -7.99999,-2.5 -10.49999,0 -18.16665,19.16665 45.66663,14.66665 45.66663,27.99997 v 129.99988 q 9.99999,19.99998 46.66662,19.99998 36.66663,0 46.66662,-19.99998 V 220.50003 q 0,-17.66665 -33.3333,-27.99997 3.33333,-16.83332 15.83332,-39.16663 12.66665,-22.33331 21.66664,-22.33331 7.33333,0 19.16665,7.16666 l 11.66666,7.16666 q 5.16666,3.16666 12.16665,3.16666 3.66666,0 7.83333,-0.83333 -1.66667,11.66665 -6.83333,19.16665 -4.99999,7.33332 -13.49999,8.16665 -0.83333,0.16667 -1.66666,0.16667 -8.33333,0 -22.49998,-8.83332 -4.33333,-2.5 -7.99999,-2.5 -10.49999,0 -18.16665,19.16665 45.66662,14.66665 45.66662,27.99997 v 136.66654 q -16.66665,33.3333 -76.66659,33.3333 -40.8333,0 -61.66661,-15.49999 -20.83331,15.49999 -61.66661,15.49999 -59.99994,0 -76.66659,-33.3333 z"
     id="text1"
     aria-label="ឈ" />
  <path
     style="fill:#000000;stroke:#000000;stroke-width:0"
     d="m 80.09816,284.26994 34.55215,10.99386 3.1411,43.97546 -21.987729,32.9816 -28.269939,6.28221 1.570552,-210.45399 47.116566,-31.41104 64.39264,10.99386 18.84662,21.98773 -4.71165,174.33129 14.13497,17.27607 43.97546,12.56442 53.39877,-10.99386 12.56442,-23.55829 -3.14111,-131.92638 -37.69325,-18.84662 23.55828,-43.97546 53.39878,21.98773"
     id="path1" />
  <path
     style="fill:#000000;stroke:#000000;stroke-width:0"
     d="m 307.82822,340.80982 40.83436,29.84049 59.68098,-1.57056 34.55215,-23.55828 V 207.31288 l -43.97546,-21.98773 28.26993,-45.54601 51.82822,36.1227"
     id="path2" />
</svg>
