<?xml version="1.0" encoding="UTF-8" standalone="no"?>
<!-- Created with Inkscape (http://www.inkscape.org/) -->

<svg
   width="512"
   height="512"
   viewBox="0 0 512 512"
   version="1.1"
   id="svg1"
   xmlns="http://www.w3.org/2000/svg"
   xmlns:svg="http://www.w3.org/2000/svg">
  <defs
     id="defs1" />
  <path
     style="font-size:341.333px;font-family:'Khmer OS Content';-inkscape-font-specification:'Khmer OS Content';text-align:center;text-anchor:middle;stroke:#000000;stroke-width:0"
     d="m 308.16653,232.50002 q -11.66665,0 -11.66665,13.49999 0,9.99999 11.66665,9.99999 z M 171.5,205.33338 q -4.5,-2.33333 -7.99999,-5.83333 -8.66666,-7.99999 -8.66666,-19.49998 0,-11.49999 38.99996,-48.99995 34.99997,0 65.49994,28.99997 31.49997,-28.99997 39.33329,-28.99997 14.33332,0 30.83331,15.16665 10.33332,9.66666 17.66665,9.66666 4.33333,0 7.66666,-3.33333 0,13.83332 -5.5,23.33331 -5.66666,9.49999 -15.16665,9.49999 -9.49999,0 -41.49996,-24.66665 h -0.16667 q -11.66665,0 -44.16662,29.49998 -18.33332,-17.33332 -30.66664,-23.16665 -12.16665,-5.83333 -23.83331,-6.66666 l -16.66665,15.66665 q 3,17.83332 24.33331,27.99998 V 354.4999 l 39.3333,-39.33329 q 6.99999,-7.16666 14.16665,-7.16666 6.99999,0 14.16665,7.16666 l 38.99996,39.16663 v -81.66659 q -28.3333,0 -28.3333,-26.66664 0,-31.66664 28.3333,-31.66664 29.99998,0 29.99998,16.66665 v 133.33321 q 0,16.66665 -16.66665,16.66665 -14.99999,0 -27.83331,-12.83332 l -38.8333,-38.8333 -38.66663,38.8333 q -12.83332,12.83332 -27.99997,12.83332 -16.66665,0 -16.66665,-16.66665 z"
     id="text1"
     aria-label="ធ" />
  <path
     style="fill:#000000;stroke:#000000;stroke-width:0"
     d="M 183.7546,201.03067 188.46626,375.36196 256,321.96319 l 69.10429,48.68712 -1.57055,-153.91411 -37.69325,6.2822 -3.1411,25.12884 7.85276,14.13497 43.97546,14.13497"
     id="path1" />
  <path
     style="fill:#000000;stroke:#000000;stroke-width:0"
     d="m 190.03681,218.30675 -23.55828,-37.69325 23.55828,-31.41105 25.12883,-3.1411 34.55215,28.26994 50.25767,-31.41104 37.69325,29.84049 58.11043,-12.56442"
     id="path2" />
</svg>
