<?xml version="1.0" encoding="UTF-8" standalone="no"?>
<!-- Created with Inkscape (http://www.inkscape.org/) -->

<svg
   width="512"
   height="512"
   viewBox="0 0 512 512"
   version="1.1"
   id="svg1"
   xmlns="http://www.w3.org/2000/svg"
   xmlns:svg="http://www.w3.org/2000/svg">
  <defs
     id="defs1" />
  <path
     style="font-size:341.333px;font-family:'Khmer OS Content';-inkscape-font-specification:'Khmer OS Content';text-align:center;text-anchor:middle;stroke:#000000;stroke-width:0"
     d="m 143.16669,197.66672 q 13.33332,0 13.33332,-16.66665 0,-21.66665 -13.33332,-24.99998 z m -29.99997,-49.99995 q 0,-16.66665 24.99998,-16.66665 13.33332,0 24.16664,14.16665 10.83332,14.16665 10.83332,35.8333 0,33.3333 -29.99997,33.3333 v 126.66655 q 9.99999,19.99998 48.33329,19.99998 38.3333,0 48.33329,-19.99998 V 220.50003 q 0,-17.66665 -33.33331,-27.99997 3.33333,-16.83332 15.83332,-39.16663 12.66666,-22.33331 21.66665,-22.33331 7.33333,0 19.16665,7.16666 l 11.66665,7.16666 q 5.16666,3.16666 12.16666,3.16666 3.66666,0 7.83332,-0.83333 -1.66666,11.66665 -6.83332,19.16665 -5,7.33332 -13.49999,8.16665 -0.83333,0.16667 -1.66667,0.16667 -8.33332,0 -22.49997,-8.83332 -4.33333,-2.5 -8,-2.5 -10.49999,0 -18.16665,19.16665 45.66663,14.66665 45.66663,27.99997 v 129.99988 q 9.99999,19.99998 48.33328,19.99998 38.3333,0 48.33329,-19.99998 V 220.50003 q 0,-17.66665 -33.3333,-27.99997 3.33333,-16.83332 15.83332,-39.16663 12.66665,-22.33331 21.66664,-22.33331 7.33333,0 19.16665,7.16666 l 11.66666,7.16666 q 5.16666,3.16666 12.16665,3.16666 3.66667,0 7.83333,-0.83333 -1.66667,11.66665 -6.83333,19.16665 -4.99999,7.33332 -13.49998,8.16665 -0.83334,0.16667 -1.66667,0.16667 -8.33332,0 -22.49998,-8.83332 -4.33333,-2.5 -7.99999,-2.5 -10.49999,0 -18.16665,19.16665 45.66662,14.66665 45.66662,27.99997 v 136.66654 q -16.66665,33.3333 -78.33326,33.3333 -42.16662,0 -63.33327,-15.66665 -21.16664,15.66665 -63.33327,15.66665 -61.66661,0 -78.33326,-33.3333 z"
     id="text1"
     aria-label="យ" />
  <path
     style="fill:#000000;stroke:#000000;stroke-width:0"
     d="m 144.4908,210.45399 25.12883,-6.28221 6.28221,-31.41104 -12.56442,-34.55215 -39.2638,6.28221 v 199.46012 l 32.98159,23.55828 56.53988,-3.1411 40.83436,-15.70552 V 212.02454 l -40.83436,-23.55828 21.98773,-39.26381 32.9816,12.56442 h 32.98159"
     id="path1" />
  <path
     style="fill:#000000;stroke:#000000;stroke-width:0"
     d="m 249.71779,348.66258 50.25767,23.55828 54.96933,-4.71166 34.55214,-21.98773 -6.28221,-138.20859 -40.83435,-23.55828 25.12883,-43.97546 26.69939,15.70552 47.11656,9.42332"
     id="path2" />
</svg>
