<?xml version="1.0" encoding="UTF-8" standalone="no"?>
<!-- Created with Inkscape (http://www.inkscape.org/) -->

<svg
   width="512"
   height="512"
   viewBox="0 0 512 512"
   version="1.1"
   id="svg1"
   xmlns="http://www.w3.org/2000/svg"
   xmlns:svg="http://www.w3.org/2000/svg">
  <defs
     id="defs1" />
  <path
     style="font-size:341.333px;font-family:'Khmer OS Content';-inkscape-font-specification:'Khmer OS Content';text-align:center;text-anchor:middle;stroke:#000000;stroke-width:0"
     d="m 113.16672,220.50003 q 0,-17.66665 -33.333301,-27.99997 3.33333,-16.83332 15.833318,-39.16663 12.666653,-22.33331 21.666643,-22.33331 7.33333,0 19.16665,7.16666 l 11.66666,7.16666 q 5.16666,3.16666 12.16665,3.16666 3.66667,0 7.83333,-0.83333 -1.66667,11.66665 -6.83333,19.16665 -4.99999,7.33332 -13.49999,8.16665 -0.83333,0.16667 -1.66666,0.16667 -8.33333,0 -22.49998,-8.83332 -4.33333,-2.5 -7.99999,-2.5 -10.49999,0 -18.166651,19.16665 45.666621,14.66665 45.666621,27.99997 v 129.99988 q 9.99999,19.99998 48.33329,19.99998 38.3333,0 48.33329,-19.99998 v -176.6665 q 16.66665,-33.3333 78.33325,-33.3333 61.66661,0 78.33326,33.3333 v 216.66646 h -29.99997 v -209.9998 q -9.99999,-19.99998 -48.33329,-19.99998 -38.33329,0 -48.33328,19.99998 v 176.6665 q -16.66665,33.3333 -78.33326,33.3333 -61.66661,0 -78.33326,-33.3333 z"
     id="text1"
     aria-label="ហ" />
  <path
     style="fill:#000000;stroke:#000000;stroke-width:0"
     d="m 128.78528,208.88344 -1.57056,133.49693 37.69326,31.41104 59.68098,-4.71166 L 256,339.23926 l -1.57055,-172.76073 32.98159,-23.55828 58.11043,-3.14111 40.83436,34.55215 -4.71166,219.8773"
     id="path1" />
  <path
     style="fill:#000000;stroke:#000000;stroke-width:0"
     d="m 135.06748,224.58896 -45.546008,-37.69325 26.699388,-43.97546 26.69939,15.70552 34.55214,1.57055"
     id="path2" />
</svg>
