<?xml version="1.0" encoding="UTF-8" standalone="no"?>
<!-- Created with Inkscape (http://www.inkscape.org/) -->

<svg
   width="512"
   height="512"
   viewBox="0 0 512 512"
   version="1.1"
   id="svg1"
   inkscape:version="1.3.2 (091e20e, 2023-11-25)"
   sodipodi:docname="ឦ.svg"
   xmlns:inkscape="http://www.inkscape.org/namespaces/inkscape"
   xmlns:sodipodi="http://sodipodi.sourceforge.net/DTD/sodipodi-0.dtd"
   xmlns="http://www.w3.org/2000/svg"
   xmlns:svg="http://www.w3.org/2000/svg">
  <sodipodi:namedview
     id="namedview1"
     pagecolor="#ffffff"
     bordercolor="#000000"
     borderopacity="0.25"
     inkscape:showpageshadow="2"
     inkscape:pageopacity="0.0"
     inkscape:pagecheckerboard="0"
     inkscape:deskcolor="#d1d1d1"
     inkscape:document-units="px"
     inkscape:zoom="0.63671875"
     inkscape:cx="254.42945"
     inkscape:cy="380.8589"
     inkscape:window-width="1392"
     inkscape:window-height="942"
     inkscape:window-x="0"
     inkscape:window-y="25"
     inkscape:window-maximized="0"
     inkscape:current-layer="svg1" />
  <defs
     id="defs1" />
  <path
     style="font-size:320px;line-height:0;font-family:'Khmer OS Content';-inkscape-font-specification:'Khmer OS Content';text-align:center;text-anchor:middle;stroke:#000000;stroke-width:0"
     d="m 150.14575,371.56238 q 15.625,0 15.625,-23.4375 0,-15.625 -15.625,-15.625 z m -28.125,-179.6875 q 15.625,-31.25 78.125,-31.25 62.5,0 78.125,31.25 v 203.125 h -28.125 v -196.875 q -9.375,-18.75 -50,-18.75 -40.625,0 -50,18.75 v 118.75 q 31.25,0 31.25,31.25 0,15.625 -8.28125,31.25 -8.125,15.625 -27.65625,15.625 -23.4375,0 -23.4375,-15.625 z m 265.625,273.4375 q 0,31.25 -74.53125,31.25 -74.6875,0 -74.6875,-31.25 v -15.625 q 0,-23.4375 -38.28125,-23.4375 -38.28125,0 -38.28125,23.4375 v 7.8125 q 15.3125,0 19.6875,3.90625 4.21875,3.90625 4.21875,9.53125 0,11.875 -11.25,18.75 -11.40625,6.875 -21.40625,6.875 -19.375,0 -19.375,-15.625 v -31.25 q 0,-39.0625 66.40625,-39.0625 66.40625,0 66.40625,39.0625 v 15.625 q 0,15.625 46.5625,15.625 46.40625,0 46.40625,-15.625 v -326.5625 q 0,-45.312502 -29.6875,-45.312502 -17.1875,0 -26.71875,9.843752 -9.53125,9.84375 -16.09375,10.46875 h -1.40625 q -5.78125,0 -12.1875,-4.6875 -10.78125,-11.718752 -10.78125,-29.843752 0,-10.15625 3.125,-20.625 3.125,-10.625 3.125,-21.5625 0,-10.9375 -14.0625,-10.9375 0,-15.625 15.625,-15.625 26.5625,0 26.5625,26.5625 0,13.28125 -4.0625,22.34375 -4.0625,8.90625 -4.0625,19.84375 v 6.71875 q 20.625,-11.25 40.9375,-11.25 57.8125,0 57.8125,64.062502 z"
     id="text1"
     inkscape:label="text1"
     aria-label="ឦ" />
  <path
     style="fill:#000000;stroke:#000000;stroke-width:0"
     d="m 152.34356,320.39264 25.12883,20.41718 -3.1411,40.83435 -40.83436,4.71166 V 190.03681 l 47.11657,-20.41718 h 64.39263 l 23.55829,25.12884 -3.14111,208.88343"
     id="path1" />
  <path
     style="fill:#000000;stroke:#000000;stroke-width:0"
     d="m 163.33742,466.45399 25.12884,7.85276 -7.85276,18.84662 -39.26381,-6.2822 7.85276,-51.82823 45.54602,-20.41717 43.97546,10.99386 12.56441,14.13497 4.71166,31.41104 15.70552,18.84663 67.53374,-3.1411 40.83436,-17.27608 -7.85276,-367.5092 -32.9816,-18.846626 -36.1227,6.282208 -20.41717,14.134968 -6.28221,-42.404906 7.85276,-26.699387 -39.26381,-28.2699384"
     id="path2" />
</svg>
