<?xml version="1.0" encoding="UTF-8" standalone="no"?>
<!-- Created with Inkscape (http://www.inkscape.org/) -->

<svg
   width="512"
   height="512"
   viewBox="0 0 512 512"
   version="1.1"
   id="svg1"
   inkscape:version="1.3.2 (091e20e, 2023-11-25)"
   sodipodi:docname="ឱ.svg"
   xmlns:inkscape="http://www.inkscape.org/namespaces/inkscape"
   xmlns:sodipodi="http://sodipodi.sourceforge.net/DTD/sodipodi-0.dtd"
   xmlns="http://www.w3.org/2000/svg"
   xmlns:svg="http://www.w3.org/2000/svg">
  <sodipodi:namedview
     id="namedview1"
     pagecolor="#ffffff"
     bordercolor="#000000"
     borderopacity="0.25"
     inkscape:showpageshadow="2"
     inkscape:pageopacity="0.0"
     inkscape:pagecheckerboard="0"
     inkscape:deskcolor="#d1d1d1"
     inkscape:document-units="px"
     inkscape:zoom="0.63671875"
     inkscape:cx="254.42945"
     inkscape:cy="380.8589"
     inkscape:window-width="1392"
     inkscape:window-height="942"
     inkscape:window-x="0"
     inkscape:window-y="25"
     inkscape:window-maximized="0"
     inkscape:current-layer="svg1" />
  <defs
     id="defs1" />
  <path
     style="font-size:341.333px;font-family:'Khmer OS Content';-inkscape-font-specification:'Khmer OS Content';text-align:center;text-anchor:middle;stroke:#000000;stroke-width:0"
     d="m 187.83332,138.50011 q -22.99998,-5.16666 -22.99998,-21.66665 v -12.49998 q 0,-8.666663 10.83332,-18.83332 l 10.99999,-10.166657 q 23.49998,-20.666647 68.1666,-20.666647 49.66662,0 79.66659,31.166637 11.99999,10.333323 11.99999,26.499977 0,16.16665 -20.99998,28.16664 1.5,-3.83333 1.5,-8 0,-13.83332 -16.16665,-30.16663 -20.99998,-21.333316 -55.99995,-21.333316 -54.33328,0 -59.66661,10.666657 -5.33333,10.666659 -5.33333,16.666649 0,8.33333 22.83332,19.99998 z m 13.66665,71.6666 v 12.49999 q 9.33332,0 9.33332,-8.33333 0,-4.16666 -9.33332,-4.16666 z m 0,120.83322 q 0,16.99998 7.49999,23.49997 7.66666,6.5 27.49998,6.5 19.66664,0 34.49996,-6 14.83332,-5.99999 37.16663,-28.8333 v -45.16663 h 29.99998 v 99.99991 q 0,28.3333 -33.33331,28.3333 -16.66665,0 -16.66665,-16.66665 19.99998,0 19.99998,-11.66665 V 357.4999 q -15.66665,11.49999 -30.3333,17.33332 -15.33332,6.16666 -41.33329,6.16666 -34.3333,0 -48.33329,-10.49999 Q 171.5,358.16657 171.5,330.99993 v -44.49996 q 136.66653,-52.16662 136.66653,-80.49993 v -24.99997 q 0,-29.99997 -53.33328,-29.99997 -53.33328,0 -53.33328,29.99997 v 12.49999 q 13.66665,0 19.83331,5.16666 6.16666,5.33333 6.16666,15.66665 0,24.99998 -27.99997,24.99998 -27.99997,0 -27.99997,-16.66665 v -41.66663 q 0,-49.99995 83.33325,-49.99995 83.33326,0 83.33326,49.99995 v 24.99997 q 0,39.99997 -136.66654,90.33325 z"
     id="text1"
     inkscape:label="text1"
     aria-label="ឱ" />
  <path
     style="fill:#000000;stroke:#000000;stroke-width:0"
     d="m 201.03067,196.31902 23.55829,1.57055 4.71165,23.55828 -14.13497,17.27608 -29.84049,-1.57056 1.57056,-70.67484 39.2638,-21.98773 72.2454,1.57055 20.41718,42.40491 -4.71166,36.1227 -72.2454,45.54601 -50.25767,18.84663 -3.1411,47.11656 12.56441,29.84049 51.82823,1.57055 50.25766,-28.26994 23.55829,-34.55214 -6.28221,-43.97546 -3.14111,155.48466 -39.2638,-20.41718"
     id="path1" />
  <path
     style="fill:#000000;stroke:#000000;stroke-width:0"
     d="m 207.31288,139.77914 -32.98159,-20.41718 12.56442,-42.404905 54.96932,-14.134969 56.53988,7.852761 32.98159,28.269938 3.14111,25.128835 -6.28221,23.55828"
     id="path2" />
</svg>
