<?xml version="1.0" encoding="UTF-8" standalone="no"?>
<!-- Created with Inkscape (http://www.inkscape.org/) -->

<svg
   width="512"
   height="512"
   viewBox="0 0 512 512"
   version="1.1"
   id="svg1"
   inkscape:version="1.3.2 (091e20e, 2023-11-25)"
   sodipodi:docname="ុំ.svg"
   xmlns:inkscape="http://www.inkscape.org/namespaces/inkscape"
   xmlns:sodipodi="http://sodipodi.sourceforge.net/DTD/sodipodi-0.dtd"
   xmlns="http://www.w3.org/2000/svg"
   xmlns:svg="http://www.w3.org/2000/svg">
  <sodipodi:namedview
     id="namedview1"
     pagecolor="#ffffff"
     bordercolor="#000000"
     borderopacity="0.25"
     inkscape:showpageshadow="2"
     inkscape:pageopacity="0.0"
     inkscape:pagecheckerboard="0"
     inkscape:deskcolor="#d1d1d1"
     inkscape:document-units="px"
     inkscape:zoom="0.63671875"
     inkscape:cx="254.42945"
     inkscape:cy="380.8589"
     inkscape:window-width="1392"
     inkscape:window-height="942"
     inkscape:window-x="0"
     inkscape:window-y="25"
     inkscape:window-maximized="0"
     inkscape:current-layer="svg1" />
  <defs
     id="defs1" />
  <path
     style="font-size:341.333px;font-family:'Khmer OS Content';-inkscape-font-specification:'Khmer OS Content';text-align:center;text-anchor:middle;stroke:#000000;stroke-width:0"
     d="m 315.21764,503.46809 h -24.99997 v -63.83328 q -8.33333,-2.99999 -8.33333,-13.33332 0,-14.49998 16.66665,-14.49998 16.66665,0 16.66665,14.49998 z M 226.88439,49.301854 q 0,8.333325 3.33333,12.499988 3.33333,4.166662 9.99999,4.166662 6.66666,0 9.99999,-4.166662 3.33333,-4.166663 3.33333,-12.499988 0,-8.333326 -3.33333,-12.499988 -3.33333,-4.166663 -9.99999,-4.166663 -6.66666,0 -9.99999,4.166663 -3.33333,4.166662 -3.33333,12.499988 z m 50.83329,0 q 0,18.833315 -9.33333,28.166639 -9.33332,9.333325 -28.16664,9.333325 -18.83331,0 -28.16664,-9.333325 -9.33332,-9.333324 -9.33332,-28.166639 0,-18.833316 9.33332,-28.16664 9.33333,-9.333325 28.16664,-9.333325 18.83332,0 28.16664,9.333325 9.33333,9.333324 9.33333,28.16664 z"
     id="text1"
     inkscape:label="text1"
     aria-label="ុំ" />
  <path
     style="fill:#000000;stroke:#000000;stroke-width:0"
     d="m 285.84049,425.61963 h 18.84663 v 94.23313"
     id="path1" />
  <path
     style="fill:#000000;stroke:#000000;stroke-width:0"
     d="m 235.58282,12.564417 -31.41104,25.128835 3.1411,29.84049 36.1227,17.276074 29.84049,-7.852761 V 29.840491 L 252.8589,18.846626 205.74233,4.7116564"
     id="path2" />
</svg>
