<?xml version="1.0" encoding="UTF-8" standalone="no"?>
<!-- Created with Inkscape (http://www.inkscape.org/) -->

<svg
   width="512"
   height="512"
   viewBox="0 0 512 512"
   version="1.1"
   id="svg1"
   inkscape:version="1.3.2 (091e20e, 2023-11-25)"
   sodipodi:docname="ឿ.svg"
   xmlns:inkscape="http://www.inkscape.org/namespaces/inkscape"
   xmlns:sodipodi="http://sodipodi.sourceforge.net/DTD/sodipodi-0.dtd"
   xmlns="http://www.w3.org/2000/svg"
   xmlns:svg="http://www.w3.org/2000/svg">
  <sodipodi:namedview
     id="namedview1"
     pagecolor="#ffffff"
     bordercolor="#000000"
     borderopacity="0.25"
     inkscape:showpageshadow="2"
     inkscape:pageopacity="0.0"
     inkscape:pagecheckerboard="0"
     inkscape:deskcolor="#d1d1d1"
     inkscape:document-units="px"
     inkscape:zoom="0.63671875"
     inkscape:cx="254.42945"
     inkscape:cy="380.8589"
     inkscape:window-width="1392"
     inkscape:window-height="942"
     inkscape:window-x="0"
     inkscape:window-y="25"
     inkscape:window-maximized="0"
     inkscape:current-layer="svg1" />
  <defs
     id="defs1" />
  <path
     style="font-size:320px;font-family:'Khmer OS Content';-inkscape-font-specification:'Khmer OS Content';text-align:center;text-anchor:middle;stroke:#000000;stroke-width:0"
     d="m 125.16187,368.55624 q 9.375,0 9.375,-23.4375 0,-15.625 -9.375,-15.625 z M 97.036865,241.52499 q 0,-16.5625 -31.25,-26.25 3.125,-15.78125 14.84375,-36.71875 11.875,-20.9375 20.312505,-20.9375 6.875,0 17.96875,6.71875 l 10.9375,6.71875 q 4.84375,2.96875 11.40625,2.96875 3.4375,0 7.34375,-0.78125 -1.5625,10.9375 -6.40625,17.96875 -4.6875,6.875 -12.65625,7.65625 -0.78125,0.15625 -1.5625,0.15625 -7.8125,0 -21.09375,-8.28125 -4.0625,-2.34375 -7.500005,-2.34375 -9.84375,0 -17.03125,17.96875 42.812505,13.75 42.812505,26.25 v 81.25 q 25,0 25,31.25 0,15.625 -8.28125,31.25 -8.125,15.625 -24.53125,15.625 -20.312505,0 -20.312505,-15.625 z M 287.34937,80.431244 h 78.125 q -15.15625,-12.03125 -27.8125,-15.46875 -12.65625,-3.59375 -26.875,-3.59375 -23.4375,0 -23.4375,19.0625 z m 103.4375,45.937496 q 0,-23.4375 -17.5,-23.4375 h -85.9375 q -22.5,0 -22.5,-22.499996 0,-40 45.9375,-40 17.03125,0 33.75,6.09375 v -29.53125 h 20.9375 v 15.625 l 0.15625,23.90625 q 9.0625,5.46875 17.96875,12.65625 v -44.375 h 20.9375 v 62.96875 q 14.375,11.09375 14.375,38.593746 v 328.125 q 0,39.0625 -59.375,39.0625 -59.375,0 -59.375,-39.0625 v -46.875 h 28.125 v 46.875 q 0,20.3125 31.25,20.3125 31.25,0 31.25,-20.3125 z"
     id="text1"
     inkscape:label="text1"
     aria-label="ឿ" />
  <path
     style="fill:#000000;stroke:#000000;stroke-width:0"
     d="m 125.64417,317.25153 25.12884,9.42332 -6.28221,50.25767 -39.26381,15.70552 4.71166,-163.33743 -37.693251,-21.98773 23.558282,-39.2638 31.411039,15.70552 42.40491,1.57055"
     id="path1" />
  <path
     style="fill:#000000;stroke:#000000;stroke-width:0"
     d="m 314.11043,397.34969 1.57055,70.67485 18.84663,20.41718 h 42.40491 l 25.12883,-20.41718 6.28221,-9.42331 -4.71166,-353.37424 -40.83435,-34.552143 -42.40491,-18.846626 -40.83436,3.141104 -4.71165,36.1227 113.07975,4.711656 89.52147,54.969329 6.28221,-153.9141143 -131.92638,-4.7116564 V 133.49693 L 428.76074,158.62577 461.74233,4.7116564 394.20859,6.2822086 380.07362,152.34356"
     id="path2" />
</svg>
