<?xml version="1.0" encoding="UTF-8" standalone="no"?>
<!-- Created with Inkscape (http://www.inkscape.org/) -->

<svg
   width="512"
   height="512"
   viewBox="0 0 512 512"
   version="1.1"
   id="svg1"
   inkscape:version="1.3.2 (091e20e, 2023-11-25)"
   sodipodi:docname="ែ.svg"
   xmlns:inkscape="http://www.inkscape.org/namespaces/inkscape"
   xmlns:sodipodi="http://sodipodi.sourceforge.net/DTD/sodipodi-0.dtd"
   xmlns="http://www.w3.org/2000/svg"
   xmlns:svg="http://www.w3.org/2000/svg">
  <sodipodi:namedview
     id="namedview1"
     pagecolor="#ffffff"
     bordercolor="#000000"
     borderopacity="0.25"
     inkscape:showpageshadow="2"
     inkscape:pageopacity="0.0"
     inkscape:pagecheckerboard="0"
     inkscape:deskcolor="#d1d1d1"
     inkscape:document-units="px"
     inkscape:zoom="0.63671875"
     inkscape:cx="254.42945"
     inkscape:cy="380.8589"
     inkscape:window-width="1392"
     inkscape:window-height="942"
     inkscape:window-x="0"
     inkscape:window-y="25"
     inkscape:window-maximized="0"
     inkscape:current-layer="svg1" />
  <defs
     id="defs1" />
  <path
     style="font-size:341.333px;font-family:'Khmer OS Content';-inkscape-font-specification:'Khmer OS Content';text-align:center;text-anchor:middle;stroke:#000000;stroke-width:0"
     d="m 257.30369,406.25756 q 9.99999,0 9.99999,-24.99997 0,-16.66666 -9.99999,-16.66666 z M 227.30372,270.75769 q 0,-17.66665 -33.3333,-27.99997 3.33333,-16.83332 15.83331,-39.16663 12.66666,-22.33331 21.66665,-22.33331 7.33333,0 19.16665,7.16666 l 11.66665,7.16666 q 5.16667,3.16666 12.16666,3.16666 3.66666,0 7.83332,-0.83333 -1.66666,11.66665 -6.83332,19.16665 -5,7.33332 -13.49999,8.16665 -0.83333,0.16667 -1.66666,0.16667 -8.33333,0 -22.49998,-8.83332 -4.33333,-2.5 -8,-2.5 -10.49999,0 -18.16665,19.16665 45.66663,14.66665 45.66663,27.99997 v 86.66658 q 26.66664,0 26.66664,33.33331 0,16.66665 -8.83333,33.3333 -8.66665,16.66665 -26.16664,16.66665 -21.66664,0 -21.66664,-16.66665 z m 3.33333,-139.49987 q -9.16666,0 -9.16666,4.16667 0,4.16666 14.16665,4.16666 11.16666,0 18.16665,-7.99999 6.83333,-7.83333 6.83333,-20.33332 0,-9.16665 -5,-15.499982 -4.99999,-6.166661 -13.33332,-6.166661 -14.99998,0 -14.99998,-12.499988 0,-12.499988 14.99998,-12.499988 18.66665,0 30.99997,11.999988 12.33332,12.166655 12.33332,34.666631 0,17.49999 -11.99998,31.16664 -12.16666,13.83332 -37.99997,13.83332 -18.66665,0 -30.16664,-5.16666 -11.49998,-5.16666 -11.49998,-15.66665 0,-10.49999 4.66666,-15.66666 4.49999,-5.16666 13.66665,-5.16666 9.16666,0 13.66665,4.16667 4.66667,4.16666 4.66667,12.49998 z"
     id="text1"
     inkscape:label="text1"
     aria-label="ែ" />
  <path
     style="fill:#000000;stroke:#000000;stroke-width:0"
     d="m 260.71166,353.37423 28.26994,14.13497 -10.99387,43.97546 -31.41104,17.27608 -4.71166,-168.04908 -40.83436,-23.55829 26.69939,-50.25766 20.41718,21.98773 45.54601,3.1411"
     id="path1" />
  <path
     style="fill:#000000;stroke:#000000;stroke-width:0"
     d="m 227.73006,111.5092 -21.98773,14.13497 1.57055,18.84663 32.9816,4.71165 32.98159,-15.70552 6.28221,-36.122697 L 268.56442,78.527607 216.7362,65.96319"
     id="path2" />
</svg>
