<?xml version="1.0" encoding="UTF-8" standalone="no"?>
<!-- Created with Inkscape (http://www.inkscape.org/) -->

<svg
   width="512"
   height="512"
   viewBox="0 0 512 512"
   version="1.1"
   id="svg1"
   inkscape:version="1.3.2 (091e20e, 2023-11-25)"
   sodipodi:docname="ៃ.svg"
   xmlns:inkscape="http://www.inkscape.org/namespaces/inkscape"
   xmlns:sodipodi="http://sodipodi.sourceforge.net/DTD/sodipodi-0.dtd"
   xmlns="http://www.w3.org/2000/svg"
   xmlns:svg="http://www.w3.org/2000/svg">
  <sodipodi:namedview
     id="namedview1"
     pagecolor="#ffffff"
     bordercolor="#000000"
     borderopacity="0.25"
     inkscape:showpageshadow="2"
     inkscape:pageopacity="0.0"
     inkscape:pagecheckerboard="0"
     inkscape:deskcolor="#d1d1d1"
     inkscape:document-units="px"
     inkscape:zoom="0.63671875"
     inkscape:cx="254.42945"
     inkscape:cy="380.8589"
     inkscape:window-width="1392"
     inkscape:window-height="942"
     inkscape:window-x="0"
     inkscape:window-y="25"
     inkscape:window-maximized="0"
     inkscape:current-layer="svg1" />
  <defs
     id="defs1" />
  <path
     style="font-size:341.333px;font-family:'Khmer OS Content';-inkscape-font-specification:'Khmer OS Content';text-align:center;text-anchor:middle;stroke:#000000;stroke-width:0"
     d="m 268.29755,382.69927 q 9.99999,0 9.99999,-24.99997 0,-16.66665 -9.99999,-16.66665 z M 238.29758,247.1994 q 0,-17.66665 -33.3333,-27.99997 3.33333,-16.83332 15.83332,-39.16663 12.66665,-22.33331 21.66665,-22.33331 7.33332,0 19.16664,7.16666 l 11.66666,7.16666 q 5.16666,3.16666 12.16665,3.16666 3.66667,0 7.83333,-0.83333 -1.66666,11.66665 -6.83333,19.16665 -4.99999,7.33332 -13.49998,8.16666 -0.83334,0.16666 -1.66667,0.16666 -8.33332,0 -22.49998,-8.83332 -4.33333,-2.5 -7.99999,-2.5 -10.49999,0 -18.16665,19.16665 45.66662,14.66665 45.66662,27.99997 V 324.366 q 26.66665,0 26.66665,33.3333 0,16.66665 -8.83333,33.3333 -8.66666,16.66665 -26.16664,16.66665 -21.66665,0 -21.66665,-16.66665 z M 234.13092,96.03288 q 12.49999,0 12.49999,11.66666 0,8.33332 8.33332,8.33332 8.33333,0 12.49999,-4.16666 4.16666,-4.16666 4.16666,-12.49999 0,-11.666656 -4.16666,-15.833318 -4.16666,-4.166663 -12.49999,-4.166663 h -8.33332 q -24.99998,0 -24.99998,-16.666651 0,-13.33332 -16.66665,-13.33332 0,-16.666651 16.66665,-16.666651 12.99999,0 18.99998,7.499993 6,7.499993 6,22.499978 h 8.33332 q 22.99998,0 32.33331,8.333326 9.33332,8.333325 9.33332,28.333306 0,16.66665 -9.33332,24.99998 -9.33333,8.33332 -32.33331,8.33332 -33.3333,0 -33.3333,-23.33331 0,-13.33332 12.49999,-13.33332 z"
     id="text1"
     inkscape:label="text1"
     aria-label="ៃ" />
  <path
     style="fill:#000000;stroke:#000000;stroke-width:0"
     d="m 268.56442,326.67485 26.69938,10.99386 1.57056,40.83436 -18.84663,26.69938 -25.12883,3.14111 1.57055,-175.90184 -42.40491,-18.84663 29.84049,-45.54601 25.12884,18.84663 h 29.84049"
     id="path1" />
  <path
     style="fill:#000000;stroke:#000000;stroke-width:0"
     d="m 229.30061,92.662577 4.71166,31.411043 25.12883,4.71166 32.9816,-9.42332 -4.71166,-47.116561 -39.2638,-7.852761 -15.70552,-1.570552 -1.57055,-21.98773 -69.1043,-26.699387"
     id="path2" />
</svg>
