<?xml version="1.0" encoding="UTF-8" standalone="no"?>
<!-- Created with Inkscape (http://www.inkscape.org/) -->

<svg
   width="512"
   height="512"
   viewBox="0 0 512 512"
   version="1.1"
   id="svg1"
   inkscape:version="1.3.2 (091e20e, 2023-11-25)"
   sodipodi:docname="ោ.svg"
   xmlns:inkscape="http://www.inkscape.org/namespaces/inkscape"
   xmlns:sodipodi="http://sodipodi.sourceforge.net/DTD/sodipodi-0.dtd"
   xmlns="http://www.w3.org/2000/svg"
   xmlns:svg="http://www.w3.org/2000/svg">
  <sodipodi:namedview
     id="namedview1"
     pagecolor="#ffffff"
     bordercolor="#000000"
     borderopacity="0.25"
     inkscape:showpageshadow="2"
     inkscape:pageopacity="0.0"
     inkscape:pagecheckerboard="0"
     inkscape:deskcolor="#d1d1d1"
     inkscape:document-units="px"
     inkscape:zoom="0.63671875"
     inkscape:cx="254.42945"
     inkscape:cy="380.8589"
     inkscape:window-width="1392"
     inkscape:window-height="942"
     inkscape:window-x="0"
     inkscape:window-y="25"
     inkscape:window-maximized="0"
     inkscape:current-layer="svg1" />
  <defs
     id="defs1" />
  <path
     style="font-size:341.333px;font-family:'Khmer OS Content';-inkscape-font-specification:'Khmer OS Content';text-align:center;text-anchor:middle;stroke:#000000;stroke-width:0"
     d="m 104.16673,355.9999 q 9.99999,0 9.99999,-24.99997 0,-16.66666 -9.99999,-16.66666 z M 74.166758,220.50003 q 0,-17.66665 -33.333302,-27.99997 3.33333,-16.83332 15.833318,-39.16663 12.666655,-22.33331 21.666646,-22.33331 7.333327,0 19.166649,7.16666 l 11.666651,7.16666 q 5.16667,3.16666 12.16666,3.16666 3.66666,0 7.83333,-0.83333 -1.66667,11.66665 -6.83333,19.16665 -5,7.33332 -13.49999,8.16665 -0.83333,0.16667 -1.66666,0.16667 -8.333329,0 -22.499982,-8.83332 -4.33333,-2.5 -7.999993,-2.5 -10.49999,0 -18.166649,19.16665 45.666624,14.66665 45.666624,27.99997 v 86.66658 q 26.66664,0 26.66664,33.33331 0,16.66665 -8.83332,33.3333 -8.66666,16.66665 -26.166646,16.66665 -21.666646,0 -21.666646,-16.66665 z M 320.66653,172.16674 q -8.16666,-7.83332 -8.16666,-17.66665 0,-6.16666 6.33332,-10.49999 18.99999,-12.99998 34.16664,-12.99998 14.83332,0 29.16664,11.16665 l 31.99997,25.16665 q 12.99998,9.83332 12.99998,25.66664 v 171.33317 q 0,16.66665 -15.66665,16.66665 -15.66665,0 -15.66665,-16.66665 V 193.00006 l -39.49996,-31.83331 q -6,-4.49999 -10.66666,-4.49999 -2.83333,0 -5.16666,1.66666 z"
     id="text1"
     inkscape:label="text1"
     aria-label="ោ" />
  <path
     style="fill:#000000;stroke:#000000;stroke-width:0"
     d="m 105.22699,296.83436 25.12884,10.99386 v 53.39877 l -26.69939,23.55829 -15.70552,-6.28221 -1.570552,-169.61963 -39.263804,-21.98773 28.269939,-47.11657 28.269937,20.41718 37.69325,-3.14111"
     id="path1" />
  <path
     style="fill:#000000;stroke:#000000;stroke-width:0"
     d="m 306.25767,166.47853 39.2638,-26.69939 31.41105,18.84663 37.69325,34.55214 v 202.60123"
     id="path2" />
</svg>
