<?xml version="1.0" encoding="UTF-8" standalone="no"?>
<!-- Created with Inkscape (http://www.inkscape.org/) -->

<svg
   width="512"
   height="512"
   viewBox="0 0 512 512"
   version="1.1"
   id="svg1"
   inkscape:version="1.3.2 (091e20e, 2023-11-25)"
   sodipodi:docname="គ1.svg"
   xmlns:inkscape="http://www.inkscape.org/namespaces/inkscape"
   xmlns:sodipodi="http://sodipodi.sourceforge.net/DTD/sodipodi-0.dtd"
   xmlns="http://www.w3.org/2000/svg"
   xmlns:svg="http://www.w3.org/2000/svg">
  <sodipodi:namedview
     id="namedview1"
     pagecolor="#ffffff"
     bordercolor="#000000"
     borderopacity="0.25"
     inkscape:showpageshadow="2"
     inkscape:pageopacity="0.0"
     inkscape:pagecheckerboard="0"
     inkscape:deskcolor="#d1d1d1"
     inkscape:document-units="px"
     inkscape:zoom="0.63671875"
     inkscape:cx="254.42945"
     inkscape:cy="380.8589"
     inkscape:window-width="1392"
     inkscape:window-height="942"
     inkscape:window-x="0"
     inkscape:window-y="25"
     inkscape:window-maximized="0"
     inkscape:current-layer="svg1" />
  <defs
     id="defs1" />
  <path
     style="font-size:341.333px;font-family:'Khmer OS Content';-inkscape-font-specification:'Khmer OS Content';text-align:center;text-anchor:middle;stroke:#000000;stroke-width:0"
     d="m 214.25661,341.40061 16.83331,-16.66665 q 16.66666,-16.66666 24.83331,-16.66666 16.66665,0 16.66665,12.49999 0,12.49999 -16.66665,12.49999 -8.33332,0 -24.99997,16.66665 l -16.66665,16.66665 h -24.99998 v -49.99995 q 0,-21.66665 18.33332,-31.66664 18.33331,-9.99999 48.33328,-9.99999 29.99998,0 48.33329,9.99999 18.33332,9.99999 18.33332,31.66664 v 49.99995 h -24.99998 v -49.99995 q 0,-13.33332 -11.99999,-19.16665 -12.16665,-5.83333 -29.66664,-5.83333 -17.49998,0 -29.49997,5.83333 -12.16665,5.83333 -12.16665,19.16665 z"
     id="text1"
     inkscape:label="text1"
     aria-label="្គ" />
  <path
     style="display:inline;fill:#000000;stroke:#000000;stroke-width:0"
     d="M 197.88957,383.21472 202.60123,293.69325 256,279.55828 l 43.97546,9.42332 14.13497,17.27607 10.99386,89.52147"
     id="path1" />
  <path
     style="fill:#000000;stroke:#000000;stroke-width:0"
     d="m 282.69939,307.82822 -36.1227,15.70552 -51.82822,56.53988"
     id="path2" />
</svg>
