<?xml version="1.0" encoding="UTF-8" standalone="no"?>
<!-- Created with Inkscape (http://www.inkscape.org/) -->

<svg
   width="512"
   height="512"
   viewBox="0 0 512 512"
   version="1.1"
   id="svg1"
   xmlns="http://www.w3.org/2000/svg"
   xmlns:svg="http://www.w3.org/2000/svg">
  <defs
     id="defs1" />
  <path
     style="font-size:341.333px;font-family:'Khmer OS Content';-inkscape-font-specification:'Khmer OS Content';text-align:center;text-anchor:middle;stroke:#000000;stroke-width:0"
     d="m 171.5,212.66671 q -11.83332,-10.99999 -14.33332,-15.16666 -2.33333,-4.33333 -2.33333,-10.66665 0,-6.16666 2.49999,-10.49999 2.33334,-4.33333 21.66665,-24.83331 19.49998,-20.49998 25.66664,-20.49998 6,0 31.83331,17.83331 33.99996,23.83331 49.99995,23.83331 31.66663,0 31.66663,-23.33331 0,-8.33332 -8.33332,-14.99998 -8.33333,-6.66666 -23.33331,-6.66666 -21.66665,0 -21.66665,-14.99999 0,-14.999985 21.66665,-14.999985 23.33331,0 37.49996,13.333325 14.16666,13.33332 14.16666,38.33329 0,23.66665 -13.49999,33.8333 -13.33332,10.16666 -39.8333,10.16666 -39.49996,0 -60.16661,-14.49999 l -10.33332,-7.16666 q -9.33332,-6.49999 -15.33332,-6.49999 -0.66666,0 -1.33333,0.16667 -6.49999,0.83333 -12.33332,8.16666 -5.66666,7.33332 -5.66666,12.83332 0,5.66666 21.83331,21.16664 V 354.4999 l 39.3333,-39.33329 q 6.99999,-7.16666 14.16665,-7.16666 6.99999,0 14.16665,7.16666 l 38.99996,39.16663 V 214.33337 h 29.99998 v 149.99986 q 0,16.66665 -16.66665,16.66665 -14.99999,0 -27.83331,-12.83332 l -38.8333,-38.8333 -38.66663,38.8333 q -12.83332,12.83332 -27.99997,12.83332 -16.66665,0 -16.66665,-16.66665 z"
     id="text1"
     aria-label="ជ" />
  <path
     style="fill:#000000;stroke:#000000;stroke-width:0"
     d="m 182.18405,207.31288 3.1411,171.19019 69.1043,-58.11043 69.10429,53.39877 -3.1411,-168.04908 v 0"
     id="path1" />
  <path
     style="fill:#000000;stroke:#000000;stroke-width:0"
     d="m 194.74847,216.7362 -29.84049,-31.41105 39.2638,-42.4049 65.96319,42.4049 51.82822,-6.28221 12.56442,-32.98159 -17.27608,-36.1227 -58.11043,-1.57055"
     id="path2" />
</svg>
