<?xml version="1.0" encoding="UTF-8" standalone="no"?>
<!-- Created with Inkscape (http://www.inkscape.org/) -->

<svg
   width="512"
   height="512"
   viewBox="0 0 512 512"
   version="1.1"
   id="svg1"
   xmlns="http://www.w3.org/2000/svg"
   xmlns:svg="http://www.w3.org/2000/svg">
  <defs
     id="defs1" />
  <path
     style="font-size:341.333px;font-family:'Khmer OS Content';-inkscape-font-specification:'Khmer OS Content';text-align:center;text-anchor:middle;stroke:#000000;stroke-width:0"
     d="m 197.83331,162.00009 q 0,4.83333 4.83333,8.33332 h 3.99999 q 8.83333,0 8.83333,-8.33332 0,-4 -2,-6 -2.33333,-2.33333 -6.83333,-2.33333 -4.33333,0 -6.66666,2.16667 -2.16666,1.99999 -2.16666,6.16666 z m 29.49997,15.49998 q 4.83333,0.5 10.16666,0.83333 6.99999,0.33334 23.16664,0.33334 20.49998,0 33.99997,-7.16666 13.49998,-7.16666 13.49998,-23.16665 0,-20.66664 -23.33331,-20.66664 -16.66665,0 -16.66665,-14.99999 0,-14.999985 16.66665,-14.999985 53.33329,0 53.33329,50.666615 0,21.33332 -21.16665,35.3333 -20.99998,13.99999 -81.49992,13.99999 -31.99997,0 -47.99996,-8.33333 Q 171.5,180.8334 171.5,162.66675 q 0,-13.83332 8.66666,-22.83331 8.83332,-8.83332 23.83331,-8.83332 15.16665,0 23.66664,7.16666 8.66666,7.16666 8.66666,19.66664 0,12.49999 -8.99999,19.66665 z m -25.83331,36.8333 V 354.4999 l 39.3333,-39.33329 q 6.99999,-7.16666 14.16665,-7.16666 6.99999,0 14.16665,7.16666 l 38.99996,39.16663 V 214.33337 h 29.99998 v 149.99986 q 0,16.66665 -16.66665,16.66665 -14.99999,0 -27.83331,-12.83332 l -38.8333,-38.8333 -38.66663,38.8333 q -12.83332,12.83332 -27.99997,12.83332 -16.66665,0 -16.66665,-16.66665 V 214.33337 Z"
     id="text1"
     aria-label="ដ" />
  <path
     style="fill:#000000;stroke:#000000;stroke-width:0"
     d="m 182.18405,199.46012 6.28221,183.7546 64.39264,-64.39263 70.67484,54.96932 -1.57055,-172.76074"
     id="path1" />
  <path
     style="fill:#000000;stroke:#000000;stroke-width:0"
     d="m 218.30675,177.47239 20.41718,-23.55828 -26.69939,-21.98773 -21.98773,6.28221 -9.42331,29.84049 48.68711,23.55828 64.39264,-6.28221 32.9816,-36.1227 -12.56442,-42.4049 -54.96933,-4.71166"
     id="path2" />
</svg>
