<?xml version="1.0" encoding="UTF-8" standalone="no"?>
<!-- Created with Inkscape (http://www.inkscape.org/) -->

<svg
   width="512"
   height="512"
   viewBox="0 0 512 512"
   version="1.1"
   id="svg1"
   xmlns="http://www.w3.org/2000/svg"
   xmlns:svg="http://www.w3.org/2000/svg">
  <defs
     id="defs1" />
  <path
     style="font-size:341.333px;font-family:'Khmer OS Content';-inkscape-font-specification:'Khmer OS Content';text-align:center;text-anchor:middle;stroke:#000000;stroke-width:0"
     d="m 201.49997,355.9999 q 16.66665,0 16.66665,-24.99997 0,-16.66666 -16.66665,-16.66666 z M 163.33334,199.66672 q -8.49999,-8.16666 -8.49999,-19.66665 0,-11.49999 38.99996,-48.99995 34.99997,0 65.49994,28.99997 31.49997,-28.99997 39.33329,-28.99997 14.33332,0 30.83331,15.16665 10.33332,9.66666 17.66665,9.66666 4.33333,0 7.66666,-3.33333 0,13.83332 -5.5,23.33331 -5.66666,9.49999 -15.16665,9.49999 -9.49999,0 -41.49996,-24.66665 h -0.16667 q -11.66665,0 -44.16662,29.49998 -18.33332,-17.33332 -30.66664,-23.16665 -12.16665,-5.83333 -23.83331,-6.66666 l -16.66665,15.66665 q 3,17.83332 21.49998,26.99998 l -12.99999,6.49999 Q 172,207.66671 163.33334,199.66672 Z m 38.16663,97.9999 q 33.3333,0 33.3333,33.33331 0,16.66665 -8.83332,33.3333 -8.66666,16.66665 -29.49998,16.66665 -24.99997,0 -24.99997,-16.66665 V 231.00002 q 16.66665,-33.3333 83.33325,-33.3333 66.66661,0 83.33326,33.3333 v 149.99986 h -29.99998 v -143.3332 q -9.99999,-19.99998 -53.33328,-19.99998 -43.33329,0 -53.33328,19.99998 z"
     id="text1"
     aria-label="áž" />
  <path
     style="fill:#000000;stroke:#000000;stroke-width:0"
     d="m 197.88957,303.11656 26.69939,6.28221 7.85276,29.84049 -20.41718,34.55215 -28.26994,-6.28221 3.14111,-139.77914 32.98159,-15.70552 51.82822,-3.1411 39.26381,4.71165 9.42331,20.41718 3.1411,152.34356"
     id="path1" />
  <path
     style="fill:#000000;stroke:#000000;stroke-width:0"
     d="m 199.46012,216.7362 -39.2638,-32.9816 34.55215,-42.40491 54.96932,37.69325 45.54601,-39.2638 61.25154,42.40491"
     id="path2" />
</svg>
