<?xml version="1.0" encoding="UTF-8" standalone="no"?>
<!-- Created with Inkscape (http://www.inkscape.org/) -->

<svg
   width="512"
   height="512"
   viewBox="0 0 512 512"
   version="1.1"
   id="svg1"
   xmlns="http://www.w3.org/2000/svg"
   xmlns:svg="http://www.w3.org/2000/svg">
  <defs
     id="defs1" />
  <path
     style="font-size:341.333px;font-family:'Khmer OS Content';-inkscape-font-specification:'Khmer OS Content';text-align:center;text-anchor:middle;stroke:#000000;stroke-width:0"
     d="m 171.5,314.33327 q -13.33332,0 -13.33332,16.66666 0,24.99997 13.33332,24.99997 z m -16.66665,-134.3332 q 0,-11.49999 38.99996,-48.99995 34.99997,0 65.49994,28.99997 31.49997,-28.99997 39.33329,-28.99997 14.33332,0 30.83331,15.16665 10.33332,9.66666 17.66665,9.66666 4.33333,0 7.66666,-3.33333 0,13.83332 -5.5,23.33331 -5.66666,9.49999 -15.16665,9.49999 -9.49999,0 -41.49996,-24.66665 h -0.16667 q -11.66665,0 -44.16662,29.49998 -18.33332,-17.33332 -30.66664,-23.16665 -12.16665,-5.83333 -23.83331,-6.66666 l -16.66665,15.66665 q 3,17.83332 21.49998,26.99998 l -12.99999,6.49999 Q 172,207.66671 163.33334,199.66672 q -8.49999,-8.16666 -8.49999,-19.66665 z M 171.5,231.00002 q 16.66665,-33.3333 83.33325,-33.3333 66.66661,0 83.33326,33.3333 v 149.99986 h -29.99998 v -143.3332 q -9.99999,-19.99998 -53.33328,-19.99998 -43.33329,0 -53.33328,19.99998 v 126.66655 q 0,16.66665 -24.99998,16.66665 -17.49998,0 -26.3333,-16.66665 -8.66666,-16.66665 -8.66666,-33.3333 0,-33.33331 29.99997,-33.33331 z"
     id="text1"
     aria-label="ភ" />
  <path
     style="fill:#000000;stroke:#000000;stroke-width:0"
     d="m 168.04908,295.2638 -26.69939,18.84663 3.14111,34.55215 17.27607,29.84049 31.41104,-4.71166 -6.2822,-142.92024 31.41104,-18.84663 70.67485,-6.28221 39.2638,31.41104 -3.14111,157.05522"
     id="path1" />
  <path
     style="fill:#000000;stroke:#000000;stroke-width:0"
     d="m 199.46012,221.44785 -39.2638,-40.83435 29.84049,-40.83436 62.82209,31.41104 47.11656,-29.84049 34.55215,26.69939 42.40491,-9.42331"
     id="path2" />
</svg>
