<?xml version="1.0" encoding="UTF-8" standalone="no"?>
<!-- Created with Inkscape (http://www.inkscape.org/) -->

<svg
   width="512"
   height="512"
   viewBox="0 0 512 512"
   version="1.1"
   id="svg1"
   xmlns="http://www.w3.org/2000/svg"
   xmlns:svg="http://www.w3.org/2000/svg">
  <defs
     id="defs1" />
  <path
     style="font-size:341.333px;font-family:'Khmer OS Content';-inkscape-font-specification:'Khmer OS Content';text-align:center;text-anchor:middle;stroke:#000000;stroke-width:0"
     d="m 143.16669,355.9999 q 16.66665,0 16.66665,-24.99997 0,-16.66666 -16.66665,-16.66666 z m 39.8333,-158.16651 q 4.16666,-0.16667 8.49999,-0.16667 61.66661,0 78.33326,33.3333 v 109.9999 q 9.99999,19.99998 48.33328,19.99998 38.3333,0 48.33329,-19.99998 V 220.50003 q 0,-17.66665 -33.3333,-27.99997 3.33333,-16.83332 15.83332,-39.16663 12.66665,-22.33331 21.66664,-22.33331 7.33333,0 19.16665,7.16666 l 11.66666,7.16666 q 5.16666,3.16666 12.16665,3.16666 3.66667,0 7.83333,-0.83333 -1.66667,11.66665 -6.83333,19.16665 -4.99999,7.33332 -13.49998,8.16665 -0.83334,0.16667 -1.66667,0.16667 -8.33332,0 -22.49998,-8.83332 -4.33333,-2.5 -7.99999,-2.5 -10.49999,0 -18.16665,19.16665 45.66662,14.66665 45.66662,27.99997 v 136.66654 q -16.66665,33.3333 -78.33326,33.3333 -61.6666,0 -78.33325,-33.3333 v -109.9999 q -9.99999,-19.99998 -48.33329,-19.99998 -38.3333,0 -48.33329,19.99998 v 59.99994 q 33.3333,0 33.3333,33.33331 0,16.66665 -8.83332,33.3333 -8.66666,16.66665 -29.49997,16.66665 -24.99998,0 -24.99998,-16.66665 V 231.00002 q 10.33332,-20.83331 38.16663,-28.66664 -11.33332,-6.16666 -29.8333,-13.16665 4.99999,-16.83332 20.83331,-37.49997 15.99998,-20.66664 28.33331,-20.66664 10.66665,0 30.49997,9.49999 15.66665,7.66666 26.66664,7.66666 2.83333,0 5.33333,-0.5 -1.66667,11.66665 -6.83333,19.16665 -5,7.33332 -13.49999,8.16665 -0.83333,0.16667 -1.66666,0.16667 -8.99999,0 -29.99997,-8.83332 -6.83333,-2.66667 -13.16666,-2.66667 -14.99998,0 -27.16664,15.99999 28.99997,8.66666 42.16663,18.16665 z"
     id="text1"
     aria-label="ស" />
  <path
     style="fill:#000000;stroke:#000000;stroke-width:0"
     d="m 141.34969,301.54601 29.84049,6.28221 3.14111,36.1227 -18.84663,32.9816 -32.98159,-3.14111 1.57055,-147.6319 39.2638,-7.85276 43.97546,-3.14111 48.68712,28.26994 4.71166,117.79141 45.54601,10.99387 50.25767,-4.71166 26.69938,-23.55828 -6.2822,-136.63804 -42.40491,-20.41717 17.27607,-31.41105 12.56442,-12.56441 37.69325,17.27607 28.26994,-4.71166"
     id="path1" />
  <path
     style="fill:#000000;stroke:#000000;stroke-width:0"
     d="m 175.90184,218.30675 -45.54601,-34.55215 26.69938,-34.55215 17.27608,-4.71165 80.09816,23.55828"
     id="path2" />
</svg>
