<?xml version="1.0" encoding="UTF-8" standalone="no"?>
<!-- Created with Inkscape (http://www.inkscape.org/) -->

<svg
   width="512"
   height="512"
   viewBox="0 0 512 512"
   version="1.1"
   id="svg1"
   inkscape:version="1.3.2 (091e20e, 2023-11-25)"
   sodipodi:docname="ឥ.svg"
   xmlns:inkscape="http://www.inkscape.org/namespaces/inkscape"
   xmlns:sodipodi="http://sodipodi.sourceforge.net/DTD/sodipodi-0.dtd"
   xmlns="http://www.w3.org/2000/svg"
   xmlns:svg="http://www.w3.org/2000/svg">
  <sodipodi:namedview
     id="namedview1"
     pagecolor="#ffffff"
     bordercolor="#000000"
     borderopacity="0.25"
     inkscape:showpageshadow="2"
     inkscape:pageopacity="0.0"
     inkscape:pagecheckerboard="0"
     inkscape:deskcolor="#d1d1d1"
     inkscape:document-units="px"
     inkscape:zoom="0.63671875"
     inkscape:cx="254.42945"
     inkscape:cy="380.8589"
     inkscape:window-width="1392"
     inkscape:window-height="942"
     inkscape:window-x="0"
     inkscape:window-y="25"
     inkscape:window-maximized="0"
     inkscape:current-layer="svg1" />
  <defs
     id="defs1" />
  <path
     style="font-size:341.333px;font-family:'Khmer OS Content';-inkscape-font-specification:'Khmer OS Content';text-align:center;text-anchor:middle;stroke:#000000;stroke-width:0"
     d="m 201.49997,355.9999 q 16.66665,0 16.66665,-24.99997 0,-16.66666 -16.66665,-16.66666 z M 171.5,239.33335 q 16.66665,-33.33331 83.33325,-33.33331 66.66661,0 83.33326,33.33331 V 380.99988 H 308.16653 V 246.00001 q -9.99999,-19.99998 -53.33328,-19.99998 -43.33329,0 -53.33328,19.99998 v 51.66661 q 33.3333,0 33.3333,33.33331 0,16.66665 -8.83332,33.3333 -8.66666,16.66665 -29.49998,16.66665 -24.99997,0 -24.99997,-16.66665 z m 7.66666,-24.99998 q -19.49998,-12.66665 -21.99998,-16.83332 -2.33333,-4.33333 -2.33333,-10.66665 0,-6.16666 2.49999,-10.49999 2.33334,-4.33333 21.66665,-24.83331 19.49998,-20.49998 25.66664,-20.49998 6,0 31.83331,17.83331 33.99996,23.83331 49.99995,23.83331 31.66663,0 31.66663,-23.33331 0,-8.33332 -8.33332,-14.99998 -8.33333,-6.66666 -23.33331,-6.66666 -21.66665,0 -21.66665,-14.99999 0,-14.999985 21.66665,-14.999985 23.33331,0 37.49996,13.333325 14.16666,13.33332 14.16666,38.33329 0,23.66665 -13.49999,33.8333 -13.33332,10.16666 -39.8333,10.16666 -39.49996,0 -60.16661,-14.49999 l -10.33332,-7.16666 q -9.33332,-6.49999 -15.33332,-6.49999 -0.66666,0 -1.33333,0.16667 -6.49999,0.83333 -12.33332,8.16666 -5.66666,7.33332 -5.66666,12.83332 0,5.66666 21.83331,16.16665 z"
     id="text1"
     inkscape:label="text1"
     aria-label="ឥ" />
  <path
     style="fill:#000000;stroke:#000000;stroke-width:0"
     d="m 197.88957,301.54601 32.9816,14.13497 v 28.26994 l -26.69939,32.9816 h -17.27607 l -3.14111,-135.06749 45.54601,-29.84049 54.96933,3.1411 45.54601,32.9816 1.57055,155.48466"
     id="path1" />
  <path
     style="fill:#000000;stroke:#000000;stroke-width:0"
     d="m 204.17178,221.44785 -40.83436,-36.1227 42.40491,-40.83435 43.97546,32.98159 69.1043,4.71166 14.13497,-40.83436 -17.27608,-28.26994 -62.82208,-14.134965"
     id="path2" />
</svg>
