<?xml version="1.0" encoding="UTF-8" standalone="no"?>
<!-- Created with Inkscape (http://www.inkscape.org/) -->

<svg
   width="512"
   height="512"
   viewBox="0 0 512 512"
   version="1.1"
   id="svg1"
   inkscape:version="1.3.2 (091e20e, 2023-11-25)"
   sodipodi:docname="ឪ.svg"
   xmlns:inkscape="http://www.inkscape.org/namespaces/inkscape"
   xmlns:sodipodi="http://sodipodi.sourceforge.net/DTD/sodipodi-0.dtd"
   xmlns="http://www.w3.org/2000/svg"
   xmlns:svg="http://www.w3.org/2000/svg">
  <sodipodi:namedview
     id="namedview1"
     pagecolor="#ffffff"
     bordercolor="#000000"
     borderopacity="0.25"
     inkscape:showpageshadow="2"
     inkscape:pageopacity="0.0"
     inkscape:pagecheckerboard="0"
     inkscape:deskcolor="#d1d1d1"
     inkscape:document-units="px"
     inkscape:zoom="0.63671875"
     inkscape:cx="254.42945"
     inkscape:cy="380.8589"
     inkscape:window-width="1392"
     inkscape:window-height="942"
     inkscape:window-x="0"
     inkscape:window-y="25"
     inkscape:window-maximized="0"
     inkscape:current-layer="svg1" />
  <defs
     id="defs1" />
  <path
     style="font-size:341.333px;font-family:'Khmer OS Content';-inkscape-font-specification:'Khmer OS Content';text-align:center;text-anchor:middle;stroke:#000000;stroke-width:0"
     d="m 201.49997,210.16671 v 12.49999 q 9.33332,0 9.33332,-8.33333 0,-4.16666 -9.33332,-4.16666 z m 0,120.83322 q 0,16.99998 7.49999,23.49997 7.66666,6.5 27.49998,6.5 19.66664,0 34.49996,-6 14.83332,-5.99999 37.16663,-28.8333 v -45.16663 h 29.99998 v 99.99991 q 0,28.3333 -33.33331,28.3333 -16.66665,0 -16.66665,-16.66665 19.99998,0 19.99998,-11.66665 V 357.4999 q -15.66665,11.49999 -30.3333,17.33332 -15.33332,6.16666 -41.33329,6.16666 -34.3333,0 -48.33329,-10.49999 Q 171.5,358.16657 171.5,330.99993 v -44.49996 q 136.66653,-52.16662 136.66653,-80.49993 v -24.99997 q 0,-29.99997 -53.33328,-29.99997 -53.33328,0 -53.33328,29.99997 v 12.49999 q 13.66665,0 19.83331,5.16666 6.16666,5.33333 6.16666,15.66665 0,24.99998 -27.99997,24.99998 -27.99997,0 -27.99997,-16.66665 v -41.66663 q 0,-49.99995 83.33325,-49.99995 83.33326,0 83.33326,49.99995 v 24.99997 q 0,39.99997 -136.66654,90.33325 z M 179.16666,140.33344 q -19.49998,-12.66665 -21.99998,-16.83332 -2.33333,-4.33333 -2.33333,-10.66665 0,-6.16666 2.49999,-10.49999 2.33334,-4.333332 21.66665,-24.833313 19.49998,-20.49998 25.66664,-20.49998 6,0 31.83331,17.833316 33.99996,23.833311 49.99995,23.833311 31.66663,0 31.66663,-23.333311 0,-8.333326 -8.33332,-14.999986 -8.33333,-6.66666 -23.33331,-6.66666 -21.66665,0 -21.66665,-14.999986 0,-14.999986 21.66665,-14.999986 23.33331,0 37.49996,13.333321 14.16666,13.333321 14.16666,38.333297 0,23.666644 -13.49999,33.833297 -13.33332,10.16666 -39.8333,10.16666 -39.49996,0 -60.16661,-14.49999 l -10.33332,-7.166655 q -9.33332,-6.499994 -15.33332,-6.499994 -0.66666,0 -1.33333,0.166667 -6.49999,0.833332 -12.33332,8.166658 -5.66666,7.333324 -5.66666,12.833324 0,5.66666 21.83331,16.16665 z"
     id="text1"
     inkscape:label="text1"
     aria-label="ឪ" />
  <path
     style="fill:#000000;stroke:#000000;stroke-width:0"
     d="m 199.46012,193.17791 26.69939,12.56442 -4.71166,29.84049 -37.69325,4.71166 1.57055,-70.67485 36.1227,-25.12883 48.68712,-6.28221 53.39877,17.27607 4.71166,47.11657 -47.11657,43.97546 -103.65644,43.97546 9.42332,76.95705 53.39877,7.85276 40.83435,-15.70552 36.1227,-40.83435 9.42332,-47.11657 1.57055,109.93865 -47.11657,28.26994 h -26.69938"
     id="path1" />
  <path
     style="fill:#000000;stroke:#000000;stroke-width:0"
     d="m 197.88957,142.92025 -34.55215,-31.41105 36.1227,-39.263801 45.54601,26.699386 65.9632,10.993865 28.26993,-20.417178 -12.56441,-40.834355 -72.2454,-25.128835"
     id="path2" />
</svg>
