<?xml version="1.0" encoding="UTF-8" standalone="no"?>
<!-- Created with Inkscape (http://www.inkscape.org/) -->

<svg
   width="512"
   height="512"
   viewBox="0 0 512 512"
   version="1.1"
   id="svg1"
   inkscape:version="1.3.2 (091e20e, 2023-11-25)"
   sodipodi:docname="ឭ.svg"
   xmlns:inkscape="http://www.inkscape.org/namespaces/inkscape"
   xmlns:sodipodi="http://sodipodi.sourceforge.net/DTD/sodipodi-0.dtd"
   xmlns="http://www.w3.org/2000/svg"
   xmlns:svg="http://www.w3.org/2000/svg">
  <sodipodi:namedview
     id="namedview1"
     pagecolor="#ffffff"
     bordercolor="#000000"
     borderopacity="0.25"
     inkscape:showpageshadow="2"
     inkscape:pageopacity="0.0"
     inkscape:pagecheckerboard="0"
     inkscape:deskcolor="#d1d1d1"
     inkscape:document-units="px"
     inkscape:zoom="0.63671875"
     inkscape:cx="254.42945"
     inkscape:cy="380.8589"
     inkscape:window-width="1392"
     inkscape:window-height="942"
     inkscape:window-x="0"
     inkscape:window-y="25"
     inkscape:window-maximized="0"
     inkscape:current-layer="svg1" />
  <defs
     id="defs1" />
  <path
     style="font-size:341.333px;font-family:'Khmer OS Content';-inkscape-font-specification:'Khmer OS Content';text-align:center;text-anchor:middle;stroke:#000000;stroke-width:0"
     d="m 201.49997,355.9999 q 19.99998,0 19.99998,-41.66663 0,-16.66665 -19.99998,-16.66665 z M 171.5,181.00007 q 0,-20.33332 18.33331,-35.16663 18.33332,-14.83332 28.16664,-14.83332 8.33333,0 36.8333,22.33331 28.66664,-22.33331 36.99997,-22.33331 9.83332,0 27.99997,14.83332 18.33332,14.83331 18.33332,35.16663 V 380.99988 H 308.16653 V 181.00007 q 0,-17.33332 -11.49998,-23.66665 -2.16667,-0.99999 -4.66667,-0.99999 -12.16665,0 -37.16663,24.66664 -24.83331,-24.66664 -37.16663,-24.66664 -2.5,0 -4.49999,0.99999 -11.66666,6.33333 -11.66666,23.66665 v 99.9999 q 36.66663,0 36.66663,33.3333 0,33.33331 -10.49999,49.99996 -10.33332,16.66665 -31.16664,16.66665 -24.99997,0 -24.99997,-16.66665 z M 338.16651,422.6665 q 0,24.99998 -25.83331,37.49997 -25.66665,12.49999 -77.1666,12.49999 -25.8333,0 -43.83329,-5.33333 -17.99998,-5.5 -28.16664,-16.33332 30.99997,5 72.1666,5 36.8333,0 55.33328,-8.33333 18.33332,-8.33332 18.33332,-24.99998 0,-4.16666 -3,-6.33332 -3.16666,-2 -9.33332,-2 0,-8.33333 5.16666,-12.49999 5.16666,-4.16666 15.49998,-4.16666 10.49999,0 15.66665,6.33333 5.16667,6.16666 5.16667,18.66664 z"
     id="text1"
     inkscape:label="text1"
     aria-label="ឭ" />
  <path
     style="fill:#000000;stroke:#000000;stroke-width:0"
     d="m 199.46012,285.84049 32.9816,14.13497 3.1411,43.97546 -17.27607,29.84049 -37.69325,1.57055 3.1411,-201.03067 31.41104,-37.69325 42.40491,34.55214 34.55215,-31.41104 28.26994,28.26994 v 221.44785"
     id="path1" />
  <path
     style="fill:#000000;stroke:#000000;stroke-width:0"
     d="m 292.1227,408.34356 26.69939,-6.28221 9.42331,14.13497 -1.57055,25.12883 -58.11043,23.55829 -69.1043,-1.57056 -48.68711,-17.27607"
     id="path2" />
</svg>
