<?xml version="1.0" encoding="UTF-8" standalone="no"?>
<!-- Created with Inkscape (http://www.inkscape.org/) -->

<svg
   width="512"
   height="512"
   viewBox="0 0 512 512"
   version="1.1"
   id="svg1"
   inkscape:version="1.3.2 (091e20e, 2023-11-25)"
   sodipodi:docname="ាំ.svg"
   xmlns:inkscape="http://www.inkscape.org/namespaces/inkscape"
   xmlns:sodipodi="http://sodipodi.sourceforge.net/DTD/sodipodi-0.dtd"
   xmlns="http://www.w3.org/2000/svg"
   xmlns:svg="http://www.w3.org/2000/svg">
  <sodipodi:namedview
     id="namedview1"
     pagecolor="#ffffff"
     bordercolor="#000000"
     borderopacity="0.25"
     inkscape:showpageshadow="2"
     inkscape:pageopacity="0.0"
     inkscape:pagecheckerboard="0"
     inkscape:deskcolor="#d1d1d1"
     inkscape:document-units="px"
     inkscape:zoom="0.63671875"
     inkscape:cx="254.42945"
     inkscape:cy="380.8589"
     inkscape:window-width="1392"
     inkscape:window-height="942"
     inkscape:window-x="0"
     inkscape:window-y="25"
     inkscape:window-maximized="0"
     inkscape:current-layer="svg1" />
  <defs
     id="defs1" />
  <path
     style="font-size:341.333px;font-family:'Khmer OS Content';-inkscape-font-specification:'Khmer OS Content';text-align:center;text-anchor:middle;stroke:#000000;stroke-width:0"
     d="M 323.19714,267.25157 V 442.2514 H 293.19716 V 267.25157 q 0,-13.33332 -19.33331,-29.16664 -19.16665,-15.83332 -30.66664,-15.83332 -10.49999,0 -33.49997,19.49999 l -10.99999,-15.33332 q 26.83331,-34.16664 44.49996,-34.16664 20.49998,0 50.16662,21.49998 29.83331,21.33331 29.83331,53.49995 z M 226.53057,96.4184 q 0,8.33333 3.33333,12.49999 3.33333,4.16666 9.99999,4.16666 6.66666,0 9.99999,-4.16666 3.33333,-4.16666 3.33333,-12.49999 0,-8.333325 -3.33333,-12.499988 -3.33333,-4.166662 -9.99999,-4.166662 -6.66666,0 -9.99999,4.166662 -3.33333,4.166663 -3.33333,12.499988 z m 50.83328,0 q 0,18.83332 -9.33332,28.16664 -9.33333,9.33332 -28.16664,9.33332 -18.83332,0 -28.16664,-9.33332 -9.33333,-9.33332 -9.33333,-28.16664 0,-18.833315 9.33333,-28.16664 9.33332,-9.333324 28.16664,-9.333324 18.83331,0 28.16664,9.333324 9.33332,9.333325 9.33332,28.16664 z"
     id="text1"
     inkscape:label="text1"
     aria-label="ាំ" />
  <path
     style="fill:#000000;stroke:#000000;stroke-width:0"
     d="m 191.60736,238.72393 45.54601,-32.9816 50.25767,12.56442 18.84663,34.55215 9.42331,210.45398"
     id="path1" />
  <path
     style="fill:#000000;stroke:#000000;stroke-width:0"
     d="m 238.72393,67.533742 -31.41105,10.993865 1.57056,39.263803 28.26993,15.70552 31.41105,-9.42331 L 282.69939,80.09816 259.1411,69.104294 202.60123,53.398773"
     id="path2" />
</svg>
