<?xml version="1.0" encoding="UTF-8" standalone="no"?>
<!-- Created with Inkscape (http://www.inkscape.org/) -->

<svg
   width="512"
   height="512"
   viewBox="0 0 512 512"
   version="1.1"
   id="svg1"
   inkscape:version="1.3.2 (091e20e, 2023-11-25)"
   sodipodi:docname="ើ.svg"
   xmlns:inkscape="http://www.inkscape.org/namespaces/inkscape"
   xmlns:sodipodi="http://sodipodi.sourceforge.net/DTD/sodipodi-0.dtd"
   xmlns="http://www.w3.org/2000/svg"
   xmlns:svg="http://www.w3.org/2000/svg">
  <sodipodi:namedview
     id="namedview1"
     pagecolor="#ffffff"
     bordercolor="#000000"
     borderopacity="0.25"
     inkscape:showpageshadow="2"
     inkscape:pageopacity="0.0"
     inkscape:pagecheckerboard="0"
     inkscape:deskcolor="#d1d1d1"
     inkscape:document-units="px"
     inkscape:zoom="0.63671875"
     inkscape:cx="254.42945"
     inkscape:cy="380.8589"
     inkscape:window-width="1392"
     inkscape:window-height="942"
     inkscape:window-x="0"
     inkscape:window-y="25"
     inkscape:window-maximized="0"
     inkscape:current-layer="svg1" />
  <defs
     id="defs1" />
  <path
     style="font-size:341.333px;font-family:'Khmer OS Content';-inkscape-font-specification:'Khmer OS Content';text-align:center;text-anchor:middle;stroke:#000000;stroke-width:0"
     d="m 161.50001,420.39254 q 9.99999,0 9.99999,-24.99998 0,-16.66665 -9.99999,-16.66665 z M 131.50004,284.89267 q 0,-17.66665 -33.333305,-27.99997 3.333325,-16.83332 15.833315,-39.16663 12.66666,-22.33331 21.66665,-22.33331 7.33333,0 19.16665,7.16666 L 166.5,209.72608 q 5.16666,3.16666 12.16666,3.16666 3.66666,0 7.83332,-0.83333 -1.66666,11.66665 -6.83332,19.16664 -5,7.33333 -13.49999,8.16666 -0.83333,0.16667 -1.66667,0.16667 -8.33332,0 -22.49997,-8.83332 -4.33333,-2.5 -8,-2.5 -10.49999,0 -18.16665,19.16665 45.66663,14.66665 45.66663,27.99997 v 86.66658 q 26.66664,0 26.66664,33.3333 0,16.66666 -8.83333,33.33331 -8.66665,16.66665 -26.16664,16.66665 -21.66664,0 -21.66664,-16.66665 z M 244.83327,112.0595 q 0,8.33333 8.33332,8.33333 h 86.66658 q -21.66664,-16.16665 -36.49996,-20.499983 -14.99999,-4.499996 -33.49997,-4.499996 -24.99997,0 -24.99997,16.666649 z M 347.49983,101.05951 V 53.726224 h 22.33332 v 74.999926 q 0,8.33333 -16.66665,8.33333 h -99.99991 q -33.3333,0 -33.3333,-24.99998 0,-41.666625 49.99995,-41.666625 39.3333,0 77.66659,30.666635 z"
     id="text1"
     inkscape:label="text1"
     aria-label="ើ" />
  <path
     style="fill:#000000;stroke:#000000;stroke-width:0"
     d="m 158.62577,365.93865 23.55828,20.41718 -3.14111,39.2638 -26.69938,14.13497 -4.71166,-169.61963 -40.83435,-20.41718 23.55828,-43.97546 25.12883,17.27607 34.55215,3.14111"
     id="path1" />
  <path
     style="fill:#000000;stroke:#000000;stroke-width:0"
     d="M 364.3681,131.92638 H 230.87117 L 226.15951,106.79755 256,81.668712 l 39.2638,1.570552 62.82209,37.693256 42.40491,9.42331 39.2638,-75.386505 -78.52761,-42.404908 -1.57055,152.343563"
     id="path2" />
</svg>
