<?xml version="1.0" encoding="UTF-8" standalone="no"?>
<!-- Created with Inkscape (http://www.inkscape.org/) -->

<svg
   width="512"
   height="512"
   viewBox="0 0 512 512"
   version="1.1"
   id="svg1"
   inkscape:version="1.3.2 (091e20e, 2023-11-25)"
   sodipodi:docname="ៀ.svg"
   xmlns:inkscape="http://www.inkscape.org/namespaces/inkscape"
   xmlns:sodipodi="http://sodipodi.sourceforge.net/DTD/sodipodi-0.dtd"
   xmlns="http://www.w3.org/2000/svg"
   xmlns:svg="http://www.w3.org/2000/svg">
  <sodipodi:namedview
     id="namedview1"
     pagecolor="#ffffff"
     bordercolor="#000000"
     borderopacity="0.25"
     inkscape:showpageshadow="2"
     inkscape:pageopacity="0.0"
     inkscape:pagecheckerboard="0"
     inkscape:deskcolor="#d1d1d1"
     inkscape:document-units="px"
     inkscape:zoom="0.63671875"
     inkscape:cx="284.26994"
     inkscape:cy="380.8589"
     inkscape:window-width="1392"
     inkscape:window-height="942"
     inkscape:window-x="0"
     inkscape:window-y="25"
     inkscape:window-maximized="0"
     inkscape:current-layer="svg1" />
  <defs
     id="defs1" />
  <path
     style="font-size:320px;font-family:'Khmer OS Content';-inkscape-font-specification:'Khmer OS Content';text-align:center;text-anchor:middle;stroke:#000000;stroke-width:0"
     d="m 123.59131,376.409 q 9.375,0 9.375,-23.4375 0,-15.625 -9.375,-15.625 z M 95.466309,249.37775 q 0,-16.5625 -31.25,-26.25 3.125,-15.78125 14.84375,-36.71875 11.875,-20.9375 20.3125,-20.9375 6.875001,0 17.968751,6.71875 l 10.9375,6.71875 q 4.84375,2.96875 11.40625,2.96875 3.4375,0 7.34375,-0.78125 -1.5625,10.9375 -6.40625,17.96875 -4.6875,6.875 -12.65625,7.65625 -0.78125,0.15625 -1.5625,0.15625 -7.8125,0 -21.09375,-8.28125 -4.0625,-2.34375 -7.500001,-2.34375 -9.84375,0 -17.03125,17.96875 42.812501,13.75 42.812501,26.25 v 81.25 q 25,0 25,31.25 0,15.625 -8.28125,31.25 -8.125,15.625 -24.53125,15.625 -20.312501,0 -20.312501,-15.625 z M 417.34131,462.3465 q 0,39.0625 -59.375,39.0625 -59.375,0 -59.375,-39.0625 v -46.875 h 28.125 v 46.875 q 0,20.3125 31.25,20.3125 31.25,0 31.25,-20.3125 v -318.75 q 0,-45.312503 -29.6875,-45.312503 -17.1875,0 -26.71875,9.843753 -9.53125,9.84375 -16.09375,10.46875 h -1.40625 q -5.78125,0 -12.1875,-4.6875 -10.78125,-11.71875 -10.78125,-29.843753 0,-10.15625 3.125,-20.625 3.125,-10.625 3.125,-21.5625 0,-10.9375 -14.0625,-10.9375 0,-15.625 15.625,-15.625 26.5625,0 26.5625,26.5625 0,13.28125 -4.0625,22.34375 -4.0625,8.90625 -4.0625,19.84375 v 6.71875 q 20.625,-11.25 40.9375,-11.25 57.8125,0 57.8125,64.062503 z"
     id="text1"
     inkscape:label="text1"
     aria-label="ៀ" />
  <path
     style="fill:#000000;stroke:#000000;stroke-width:0"
     d="m 124.07362,325.10429 26.69939,15.70553 -4.71166,29.84049 -15.70552,36.1227 -26.69939,-1.57056 9.42331,-29.84049 V 240.29448 l -45.546008,-25.12884 28.269939,-40.83435 18.846629,15.70552 58.11043,9.42331"
     id="path1" />
  <path
     style="fill:#000000;stroke:#000000;stroke-width:0"
     d="m 312.53988,408.34356 1.57055,7.85276 v 61.25153 l 25.12883,15.70552 37.69326,-3.1411 23.55828,-3.1411 4.71165,-15.70553 -1.57055,-364.36809 -23.55828,-20.417182 -42.40491,3.141104 -26.69938,23.558278 -7.85277,-39.263799 10.99387,-36.122699 -6.28221,-17.276074 -48.68712,-9.423313"
     id="path2" />
</svg>
