<?xml version="1.0" encoding="UTF-8" standalone="no"?>
<!-- Created with Inkscape (http://www.inkscape.org/) -->

<svg
   width="512"
   height="512"
   viewBox="0 0 512 512"
   version="1.1"
   id="svg1"
   inkscape:version="1.3.2 (091e20e, 2023-11-25)"
   sodipodi:docname="3.svg"
   xmlns:inkscape="http://www.inkscape.org/namespaces/inkscape"
   xmlns:sodipodi="http://sodipodi.sourceforge.net/DTD/sodipodi-0.dtd"
   xmlns="http://www.w3.org/2000/svg"
   xmlns:svg="http://www.w3.org/2000/svg">
  <sodipodi:namedview
     id="namedview1"
     pagecolor="#ffffff"
     bordercolor="#000000"
     borderopacity="0.25"
     inkscape:showpageshadow="2"
     inkscape:pageopacity="0.0"
     inkscape:pagecheckerboard="0"
     inkscape:deskcolor="#d1d1d1"
     inkscape:document-units="px"
     inkscape:zoom="0.63671875"
     inkscape:cx="254.42945"
     inkscape:cy="380.8589"
     inkscape:window-width="1392"
     inkscape:window-height="942"
     inkscape:window-x="0"
     inkscape:window-y="25"
     inkscape:window-maximized="0"
     inkscape:current-layer="svg1" />
  <defs
     id="defs1" />
  <path
     style="font-size:341.333px;font-family:Dangrek;-inkscape-font-specification:Dangrek;text-align:center;text-anchor:middle;stroke:#000000;stroke-width:0"
     d="m 253.24992,237.50001 q 47.49995,0 47.49995,-40.83329 0,-40.66663 -47.49995,-40.66663 -47.49995,0 -47.49995,40.66663 h -24.99998 q 0,-65.6666 72.49993,-65.6666 72.49993,0 72.49993,65.33327 0,36.66663 -22.66664,52.83328 27.66664,17.16665 27.66664,59.99994 0,71.83327 -77.49993,71.83327 -77.49993,0 -77.49993,-72.1666 h 24.99998 q 0,47.16662 52.49995,47.16662 52.49995,0 52.49995,-47.16662 0,-46.99996 -52.49995,-46.99996 h -12.99999 v -24.33331 z"
     id="text1"
     inkscape:label="text1"
     aria-label="3" />
  <path
     style="fill:#000000;stroke:#000000;stroke-width:0"
     d="m 190.03681,201.03067 9.42331,-34.55214 39.26381,-26.69939 65.96319,12.56442 14.13497,50.25767 -12.56442,29.84049 -18.84663,12.56441 -40.83435,4.71166 54.96932,4.71166 15.70552,42.40491 -6.2822,45.54601 -31.41105,21.98773 -50.25767,-1.57055 -31.41104,-10.99387 -7.85276,-17.27607 -4.71166,-48.68712"
     id="path1" />
</svg>
