<?xml version="1.0" encoding="UTF-8" standalone="no"?>
<!-- Created with Inkscape (http://www.inkscape.org/) -->

<svg
   width="512"
   height="512"
   viewBox="0 0 512 512"
   version="1.1"
   id="svg1"
   inkscape:version="1.3.2 (091e20e, 2023-11-25)"
   sodipodi:docname="5.svg"
   xmlns:inkscape="http://www.inkscape.org/namespaces/inkscape"
   xmlns:sodipodi="http://sodipodi.sourceforge.net/DTD/sodipodi-0.dtd"
   xmlns="http://www.w3.org/2000/svg"
   xmlns:svg="http://www.w3.org/2000/svg">
  <sodipodi:namedview
     id="namedview1"
     pagecolor="#ffffff"
     bordercolor="#000000"
     borderopacity="0.25"
     inkscape:showpageshadow="2"
     inkscape:pageopacity="0.0"
     inkscape:pagecheckerboard="0"
     inkscape:deskcolor="#d1d1d1"
     inkscape:document-units="px"
     inkscape:zoom="0.63671875"
     inkscape:cx="254.42945"
     inkscape:cy="380.8589"
     inkscape:window-width="1392"
     inkscape:window-height="942"
     inkscape:window-x="0"
     inkscape:window-y="25"
     inkscape:window-maximized="0"
     inkscape:current-layer="svg1" />
  <defs
     id="defs1" />
  <path
     style="font-size:341.333px;font-family:Dangrek;-inkscape-font-specification:Dangrek;text-align:center;text-anchor:middle;stroke:#000000;stroke-width:0"
     d="m 332.49984,297.66662 q 0,83.33326 -72.83326,83.33326 -71.33326,0 -79.66659,-66.16661 h 24.99998 q 8.33332,41.16663 54.66661,41.16663 47.83329,0 47.83329,-58.33328 0,-58.33327 -46.16662,-58.33327 -33.66664,0 -47.99996,21.33331 H 189.16665 L 200.8333,131.00012 h 119.99989 v 29.66663 h -97.49991 l -6.16666,62.16661 q 17.83332,-8.49999 44.16663,-8.49999 71.16659,0 71.16659,83.33325 z"
     id="text1"
     inkscape:label="text1"
     aria-label="5" />
  <path
     style="fill:#000000;stroke:#000000;stroke-width:0"
     d="m 208.88344,127.21472 -14.13497,133.49694 39.2638,-31.41105 51.82822,-6.28221 42.40491,43.97547 -12.56442,78.5276 -69.10429,25.12884 -34.55215,-15.70552 -29.84049,-64.39264 -62.82209,15.70552 48.68712,-164.90798 212.02454,3.14111"
     id="path1" />
</svg>
