<?xml version="1.0" encoding="UTF-8" standalone="no"?>
<!-- Created with Inkscape (http://www.inkscape.org/) -->

<svg
   width="512"
   height="512"
   viewBox="0 0 512 512"
   version="1.1"
   id="svg1"
   inkscape:version="1.3.2 (091e20e, 2023-11-25)"
   sodipodi:docname="6.svg"
   xmlns:inkscape="http://www.inkscape.org/namespaces/inkscape"
   xmlns:sodipodi="http://sodipodi.sourceforge.net/DTD/sodipodi-0.dtd"
   xmlns="http://www.w3.org/2000/svg"
   xmlns:svg="http://www.w3.org/2000/svg">
  <sodipodi:namedview
     id="namedview1"
     pagecolor="#ffffff"
     bordercolor="#000000"
     borderopacity="0.25"
     inkscape:showpageshadow="2"
     inkscape:pageopacity="0.0"
     inkscape:pagecheckerboard="0"
     inkscape:deskcolor="#d1d1d1"
     inkscape:document-units="px"
     inkscape:zoom="0.63671875"
     inkscape:cx="254.42945"
     inkscape:cy="380.8589"
     inkscape:window-width="1392"
     inkscape:window-height="942"
     inkscape:window-x="0"
     inkscape:window-y="25"
     inkscape:window-maximized="0"
     inkscape:current-layer="svg1" />
  <defs
     id="defs1" />
  <path
     style="font-size:341.333px;font-family:Dangrek;-inkscape-font-specification:Dangrek;text-align:center;text-anchor:middle;stroke:#000000;stroke-width:0"
     d="m 205.16663,285.49997 q 7.16666,70.49993 51.16662,70.49993 52.49995,0 52.49995,-54.16661 0,-54.16662 -52.49995,-54.16662 -43.83329,0 -51.16662,37.8333 z m 51.16662,95.49991 q -77.49993,0 -77.49993,-124.99988 0,-124.99988 85.83326,-124.99988 69.1666,0 69.1666,58.66661 H 308.8332 q 0,-33.66664 -44.16662,-33.66664 -54.66662,0 -60.16661,80.99993 18.83331,-14.33332 51.83328,-14.33332 77.49993,0 77.49993,79.16659 0,79.16659 -77.49993,79.16659 z"
     id="text1"
     inkscape:label="text1"
     aria-label="6" />
  <path
     style="fill:#000000;stroke:#000000;stroke-width:0"
     d="m 321.96319,196.31902 -9.42331,-36.1227 -40.83436,-18.84663 -51.82822,6.28221 -28.26994,45.54601 -1.57055,109.93865 29.84049,59.68099 50.25767,6.2822 43.97546,-23.55828 6.28221,-59.68098 -23.55828,-43.97546 -42.40491,-9.42331 -34.55215,10.99386 -40.83436,36.1227"
     id="path1" />
</svg>
