<?xml version="1.0" encoding="UTF-8" standalone="no"?>
<!-- Created with Inkscape (http://www.inkscape.org/) -->

<svg
   width="512"
   height="512"
   viewBox="0 0 512 512"
   version="1.1"
   id="svg1"
   inkscape:version="1.3.2 (091e20e, 2023-11-25)"
   sodipodi:docname="9.svg"
   xmlns:inkscape="http://www.inkscape.org/namespaces/inkscape"
   xmlns:sodipodi="http://sodipodi.sourceforge.net/DTD/sodipodi-0.dtd"
   xmlns="http://www.w3.org/2000/svg"
   xmlns:svg="http://www.w3.org/2000/svg">
  <sodipodi:namedview
     id="namedview1"
     pagecolor="#ffffff"
     bordercolor="#000000"
     borderopacity="0.25"
     inkscape:showpageshadow="2"
     inkscape:pageopacity="0.0"
     inkscape:pagecheckerboard="0"
     inkscape:deskcolor="#d1d1d1"
     inkscape:document-units="px"
     inkscape:zoom="0.63671875"
     inkscape:cx="254.42945"
     inkscape:cy="380.8589"
     inkscape:window-width="1392"
     inkscape:window-height="942"
     inkscape:window-x="0"
     inkscape:window-y="25"
     inkscape:window-maximized="0"
     inkscape:current-layer="svg1" />
  <defs
     id="defs1" />
  <path
     style="font-size:341.333px;font-family:Dangrek;-inkscape-font-specification:Dangrek;text-align:center;text-anchor:middle;stroke:#000000;stroke-width:0"
     d="m 304.49987,226.50003 q -7.16666,-70.49994 -51.16662,-70.49994 -52.49995,0 -52.49995,54.16662 0,54.16661 52.49995,54.16661 43.83329,0 51.16662,-37.83329 z m -51.16662,-95.49991 q 77.49993,0 77.49993,124.99988 0,124.99988 -85.83325,124.99988 -69.1666,0 -69.1666,-58.66661 h 24.99997 q 0,33.66663 44.16663,33.66663 54.66661,0 60.16661,-80.99992 -18.83332,14.33332 -51.83329,14.33332 -77.49992,0 -77.49992,-79.16659 0,-79.16659 77.49992,-79.16659 z"
     id="text1"
     inkscape:label="text1"
     aria-label="9" />
  <path
     style="fill:#000000;stroke:#000000;stroke-width:0"
     d="m 318.82209,238.72393 -28.26994,28.26994 -47.11657,10.99386 -47.11656,-18.84663 -12.56442,-51.82822 15.70552,-48.68711 37.69325,-15.70552 39.26381,1.57055 32.98159,36.1227 10.99387,103.65644 -23.55828,59.68098 -48.68712,26.69939 -42.40491,-9.42332 -18.84662,-25.12883 -3.14111,-26.69939"
     id="path1" />
</svg>
