<?xml version="1.0" encoding="UTF-8" standalone="no"?>
<!-- Created with Inkscape (http://www.inkscape.org/) -->

<svg
   width="512"
   height="512"
   viewBox="0 0 512 512"
   version="1.1"
   id="svg1"
   inkscape:version="1.3.2 (091e20e, 2023-11-25)"
   sodipodi:docname="BC.svg"
   xmlns:inkscape="http://www.inkscape.org/namespaces/inkscape"
   xmlns:sodipodi="http://sodipodi.sourceforge.net/DTD/sodipodi-0.dtd"
   xmlns="http://www.w3.org/2000/svg"
   xmlns:svg="http://www.w3.org/2000/svg">
  <sodipodi:namedview
     id="namedview1"
     pagecolor="#ffffff"
     bordercolor="#000000"
     borderopacity="0.25"
     inkscape:showpageshadow="2"
     inkscape:pageopacity="0.0"
     inkscape:pagecheckerboard="0"
     inkscape:deskcolor="#d1d1d1"
     inkscape:document-units="px"
     inkscape:zoom="0.63671875"
     inkscape:cx="254.42945"
     inkscape:cy="255.21472"
     inkscape:window-width="1392"
     inkscape:window-height="942"
     inkscape:window-x="0"
     inkscape:window-y="25"
     inkscape:window-maximized="0"
     inkscape:current-layer="svg1" />
  <defs
     id="defs1" />
  <path
     style="font-size:341.333px;font-family:Dangrek;-inkscape-font-specification:Dangrek;text-align:center;text-anchor:middle;stroke:#000000;stroke-width:0"
     d="m 358.33315,266.66662 q 0,18.49998 -6.99999,32.66663 -6.99999,14.16666 -18.83332,23.33331 -13.99998,10.99999 -30.8333,15.66666 -16.66665,4.66666 -42.49996,4.66666 H 171.16667 V 94.833448 h 73.49992 q 27.16665,0 40.66663,1.999998 13.49999,1.999998 25.83331,8.333324 13.66666,7.16666 19.83332,18.49998 6.16666,11.16666 6.16666,26.83331 0,17.66665 -8.99999,30.16664 -9,12.33332 -23.99998,19.83331 v 1.33334 q 25.16664,5.16666 39.66663,22.16664 14.49998,16.83332 14.49998,42.66663 z M 302.83321,154.83339 q 0,-8.99999 -3,-15.16665 -3,-6.16666 -9.66666,-9.99999 -7.83332,-4.5 -18.99998,-5.5 -11.16666,-1.16666 -27.66664,-1.16666 h -39.3333 v 71.6666 h 42.66663 q 15.49998,0 24.66664,-1.5 9.16666,-1.66667 16.99999,-6.66666 7.83332,-5 10.99999,-12.83332 3.33333,-8 3.33333,-18.83332 z m 21.16664,113.16656 q 0,-14.99999 -4.49999,-23.83331 -4.5,-8.83333 -16.33332,-14.99999 -7.99999,-4.16666 -19.49998,-5.33333 -11.33332,-1.33333 -27.66664,-1.33333 h -51.83329 v 92.33325 h 43.66663 q 21.66664,0 35.49996,-2.16667 13.83332,-2.33333 22.66665,-8.33332 9.33332,-6.5 13.66665,-14.83332 4.33333,-8.33333 4.33333,-21.49998 z"
     id="text1"
     inkscape:label="text1"
     aria-label="B" />
  <path
     style="fill:#000000;stroke:#000000;stroke-width:0"
     d="m 179.04294,76.957055 1.57056,282.699385 -67.53375,-7.85276 14.13497,-293.693251 28.26994,50.257671 139.77914,-3.14111 21.98773,26.69939 -3.1411,36.1227 -23.55828,23.55828 -54.96933,14.13497 -65.96319,3.14111 h 80.09816 37.69325 l 40.83436,15.70552 14.13497,39.2638 -14.13497,53.39877 -65.96319,10.99387 H 149.20245"
     id="path1" />
</svg>
