<?xml version="1.0" encoding="UTF-8" standalone="no"?>
<!-- Created with Inkscape (http://www.inkscape.org/) -->

<svg
   width="512"
   height="512"
   viewBox="0 0 512 512"
   version="1.1"
   id="svg1"
   inkscape:version="1.3.2 (091e20e, 2023-11-25)"
   sodipodi:docname="CC.svg"
   xmlns:inkscape="http://www.inkscape.org/namespaces/inkscape"
   xmlns:sodipodi="http://sodipodi.sourceforge.net/DTD/sodipodi-0.dtd"
   xmlns="http://www.w3.org/2000/svg"
   xmlns:svg="http://www.w3.org/2000/svg">
  <sodipodi:namedview
     id="namedview1"
     pagecolor="#ffffff"
     bordercolor="#000000"
     borderopacity="0.25"
     inkscape:showpageshadow="2"
     inkscape:pageopacity="0.0"
     inkscape:pagecheckerboard="0"
     inkscape:deskcolor="#d1d1d1"
     inkscape:document-units="px"
     inkscape:zoom="0.63671875"
     inkscape:cx="254.42945"
     inkscape:cy="255.21472"
     inkscape:window-width="1392"
     inkscape:window-height="942"
     inkscape:window-x="0"
     inkscape:window-y="25"
     inkscape:window-maximized="0"
     inkscape:current-layer="svg1" />
  <defs
     id="defs1" />
  <path
     style="font-size:341.333px;font-family:Dangrek;-inkscape-font-specification:Dangrek;text-align:center;text-anchor:middle;stroke:#000000;stroke-width:0"
     d="m 360.66648,324.9999 q -9.16665,3.99999 -16.66665,7.49999 -7.33332,3.49999 -19.33331,7.33332 -10.16666,3.16667 -22.16665,5.33333 -11.83332,2.33333 -26.16664,2.33333 -26.99997,0 -49.16662,-7.49999 -21.99998,-7.66666 -38.3333,-23.83331 -15.99998,-15.83332 -24.99997,-40.16663 -8.99999,-24.49997 -8.99999,-56.83328 0,-30.66663 8.66666,-54.83328 8.66665,-24.16664 24.99997,-40.83329 15.83332,-16.16665 38.16663,-24.666646 22.49998,-8.499992 49.83329,-8.499992 19.99998,0 39.83329,4.833329 19.99998,4.833329 44.33329,16.999979 v 39.16663 h -2.49999 q -20.49998,-17.16665 -40.66663,-24.99997 -20.16665,-7.83333 -43.16663,-7.83333 -18.83331,0 -33.99996,6.16666 -14.99999,6 -26.83331,18.83332 -11.49999,12.49999 -17.99998,31.66663 -6.33333,18.99999 -6.33333,43.99996 0,26.16664 6.99999,44.99996 7.16666,18.83332 18.33332,30.66664 11.66665,12.33332 27.16664,18.33331 15.66665,5.83333 32.99997,5.83333 23.83331,0 44.66662,-8.16666 20.83331,-8.16666 38.99996,-24.49997 h 2.33333 z"
     id="text1"
     inkscape:label="text1"
     aria-label="C" />
  <path
     style="fill:#000000;stroke:#000000;stroke-width:0"
     d="m 373.79141,131.92638 -65.96319,-28.26994 -87.95092,9.42331 -42.40491,51.82823 v 102.08589 l 36.1227,50.25766 43.97546,14.13497 62.82209,-9.42331 51.82822,-20.41718"
     id="path1" />
</svg>
