<?xml version="1.0" encoding="UTF-8" standalone="no"?>
<!-- Created with Inkscape (http://www.inkscape.org/) -->

<svg
   width="512"
   height="512"
   viewBox="0 0 512 512"
   version="1.1"
   id="svg1"
   inkscape:version="1.3.2 (091e20e, 2023-11-25)"
   sodipodi:docname="e.svg"
   xmlns:inkscape="http://www.inkscape.org/namespaces/inkscape"
   xmlns:sodipodi="http://sodipodi.sourceforge.net/DTD/sodipodi-0.dtd"
   xmlns="http://www.w3.org/2000/svg"
   xmlns:svg="http://www.w3.org/2000/svg">
  <sodipodi:namedview
     id="namedview1"
     pagecolor="#ffffff"
     bordercolor="#000000"
     borderopacity="0.25"
     inkscape:showpageshadow="2"
     inkscape:pageopacity="0.0"
     inkscape:pagecheckerboard="0"
     inkscape:deskcolor="#d1d1d1"
     inkscape:document-units="px"
     inkscape:zoom="0.63671875"
     inkscape:cx="254.42945"
     inkscape:cy="255.21472"
     inkscape:window-width="1392"
     inkscape:window-height="942"
     inkscape:window-x="0"
     inkscape:window-y="25"
     inkscape:window-maximized="0"
     inkscape:current-layer="svg1" />
  <defs
     id="defs1" />
  <path
     style="font-size:341.333px;font-family:Dangrek;-inkscape-font-specification:Dangrek;text-align:center;text-anchor:middle;stroke:#000000;stroke-width:0"
     d="M 339.83317,253.16663 H 202.66664 q 0,17.16665 5.16666,29.99997 5.16666,12.66666 14.16665,20.83332 8.66666,7.99999 20.49998,11.99998 11.99999,4 26.33331,4 18.99998,0 38.16663,-7.49999 19.33331,-7.66666 27.49997,-14.99999 h 1.66667 v 34.16664 q -15.83332,6.66666 -32.3333,11.16665 -16.49999,4.5 -34.66664,4.5 -46.33329,0 -72.33326,-24.99998 -25.99998,-25.16664 -25.99998,-71.33326 0,-45.66663 24.83331,-72.49994 24.99998,-26.8333 65.66661,-26.8333 37.66663,0 57.99994,21.99998 20.49998,21.99998 20.49998,62.49994 z M 309.3332,229.16665 q -0.16667,-24.66664 -12.49999,-38.16663 -12.16665,-13.49998 -37.16663,-13.49998 -25.16664,0 -40.16663,14.83331 -14.83332,14.83332 -16.83331,36.8333 z"
     id="text1"
     inkscape:label="text1"
     aria-label="e" />
  <path
     style="fill:#000000;stroke:#000000;stroke-width:0"
     d="m 199.46012,237.15337 127.21473,4.71166 -6.28221,-47.11656 -17.27608,-25.12884 -43.97546,-12.56442 -39.2638,14.13497 -26.69939,39.26381 -3.1411,59.68098 15.70552,40.83436 56.53988,21.98773 45.54601,-3.14111 61.25153,-26.69939"
     id="path1" />
</svg>
