<?xml version="1.0" encoding="UTF-8" standalone="no"?>
<!-- Created with Inkscape (http://www.inkscape.org/) -->

<svg
   width="512"
   height="512"
   viewBox="0 0 512 512"
   version="1.1"
   id="svg1"
   inkscape:version="1.3.2 (091e20e, 2023-11-25)"
   sodipodi:docname="f.svg"
   xmlns:inkscape="http://www.inkscape.org/namespaces/inkscape"
   xmlns:sodipodi="http://sodipodi.sourceforge.net/DTD/sodipodi-0.dtd"
   xmlns="http://www.w3.org/2000/svg"
   xmlns:svg="http://www.w3.org/2000/svg">
  <sodipodi:namedview
     id="namedview1"
     pagecolor="#ffffff"
     bordercolor="#000000"
     borderopacity="0.25"
     inkscape:showpageshadow="2"
     inkscape:pageopacity="0.0"
     inkscape:pagecheckerboard="0"
     inkscape:deskcolor="#d1d1d1"
     inkscape:document-units="px"
     inkscape:zoom="0.63671875"
     inkscape:cx="254.42945"
     inkscape:cy="255.21472"
     inkscape:window-width="1392"
     inkscape:window-height="942"
     inkscape:window-x="0"
     inkscape:window-y="25"
     inkscape:window-maximized="0"
     inkscape:current-layer="svg1" />
  <defs
     id="defs1" />
  <path
     style="font-size:341.333px;font-family:Dangrek;-inkscape-font-specification:Dangrek;text-align:center;text-anchor:middle;stroke:#000000;stroke-width:0"
     d="m 325.83318,114.0001 h -1.66666 q -5.16666,-1.5 -13.49999,-3 -8.33332,-1.66667 -14.66665,-1.66667 -20.16665,0 -29.33331,9 -8.99999,8.83332 -8.99999,32.16663 v 6.33333 h 56.49995 v 26.33331 h -55.49995 v 159.83318 h -31.3333 V 183.1667 h -21.16665 v -26.33331 h 21.16665 v -6.16666 q 0,-33.16664 16.49998,-50.833287 16.49999,-17.833316 47.66662,-17.833316 10.49999,0 18.83332,0.999999 8.49999,0.999999 15.49998,2.333331 z"
     id="text1"
     inkscape:label="text1"
     aria-label="f" />
  <path
     style="fill:#000000;stroke:#000000;stroke-width:0"
     d="m 358.08589,98.944785 -48.68712,-1.570552 -43.97546,1.570552 -21.98773,34.552145 1.57055,235.58282 -108.36809,3.14111 23.55828,-204.17178 226.15951,1.57055"
     id="path1" />
</svg>
