<?xml version="1.0" encoding="UTF-8" standalone="no"?>
<!-- Created with Inkscape (http://www.inkscape.org/) -->

<svg
   width="512"
   height="512"
   viewBox="0 0 512 512"
   version="1.1"
   id="svg1"
   inkscape:version="1.3.2 (091e20e, 2023-11-25)"
   sodipodi:docname="m.svg"
   xmlns:inkscape="http://www.inkscape.org/namespaces/inkscape"
   xmlns:sodipodi="http://sodipodi.sourceforge.net/DTD/sodipodi-0.dtd"
   xmlns="http://www.w3.org/2000/svg"
   xmlns:svg="http://www.w3.org/2000/svg">
  <sodipodi:namedview
     id="namedview1"
     pagecolor="#ffffff"
     bordercolor="#000000"
     borderopacity="0.25"
     inkscape:showpageshadow="2"
     inkscape:pageopacity="0.0"
     inkscape:pagecheckerboard="0"
     inkscape:deskcolor="#d1d1d1"
     inkscape:document-units="px"
     inkscape:zoom="0.63671875"
     inkscape:cx="254.42945"
     inkscape:cy="255.21472"
     inkscape:window-width="1392"
     inkscape:window-height="942"
     inkscape:window-x="0"
     inkscape:window-y="25"
     inkscape:window-maximized="0"
     inkscape:current-layer="svg1" />
  <defs
     id="defs1" />
  <path
     style="font-size:341.333px;font-family:Dangrek;-inkscape-font-specification:Dangrek;text-align:center;text-anchor:middle;stroke:#000000;stroke-width:0"
     d="m 391.33312,342.99988 h -31.3333 v -105.9999 q 0,-11.99999 -1.16667,-23.16665 -1,-11.16665 -4.49999,-17.83331 -3.83333,-7.16666 -10.99999,-10.83332 -7.16666,-3.66667 -20.66665,-3.66667 -13.16665,0 -26.33331,6.66666 -13.16665,6.5 -26.33331,16.66665 0.5,3.83333 0.83334,8.99999 0.33333,5 0.33333,9.99999 v 119.16656 h -31.3333 v -105.9999 q 0,-12.33332 -1.16667,-23.33331 -1,-11.16666 -4.5,-17.83332 -3.83332,-7.16666 -10.99998,-10.66665 -7.16666,-3.66667 -20.66665,-3.66667 -12.83332,0 -25.83331,6.33333 -12.83332,6.33333 -25.66664,16.16665 V 342.99988 H 119.66671 V 156.83339 h 31.33331 v 20.66665 q 14.66665,-12.16666 29.16664,-18.99999 14.66665,-6.83332 31.16663,-6.83332 18.99999,0 32.16664,7.99999 13.33332,7.99999 19.83331,22.16664 18.99999,-15.99998 34.66664,-22.99997 15.66665,-7.16666 33.49997,-7.16666 30.66663,0 45.16662,18.66665 14.66665,18.49998 14.66665,51.83328 z"
     id="text1"
     inkscape:label="text1"
     aria-label="m" />
  <path
     style="fill:#000000;stroke:#000000;stroke-width:0"
     d="m 125.64417,152.34356 v 199.46012 l 6.28221,-153.91411 72.2454,-40.83436 45.54601,26.69939 9.42331,171.19019 -7.85276,-149.20246 59.68099,-45.54601 48.68711,9.42331 20.41718,47.11657 4.71166,146.06135"
     id="path1" />
</svg>
