<?xml version="1.0" encoding="UTF-8" standalone="no"?>
<!-- Created with Inkscape (http://www.inkscape.org/) -->

<svg
   width="512"
   height="512"
   viewBox="0 0 512 512"
   version="1.1"
   id="svg1"
   xmlns="http://www.w3.org/2000/svg"
   xmlns:svg="http://www.w3.org/2000/svg">
  <defs
     id="defs1" />
  <path
     style="font-size:341.333px;font-family:'Khmer OS Content';-inkscape-font-specification:'Khmer OS Content';stroke:#000000;stroke-width:0"
     d="m 202.66672,210.16671 v 12.49999 q 9.33333,0 9.33333,-8.33333 0,-4.16666 -9.33333,-4.16666 z m 136.66654,120.83322 q 0,49.99995 -83.33325,49.99995 -83.33326,0 -83.33326,-49.99995 v -44.49996 q 136.66654,-52.16662 136.66654,-80.49993 v -24.99997 q 0,-29.99997 -53.33328,-29.99997 -53.33329,0 -53.33329,29.99997 v 12.49999 q 13.66666,0 19.83332,5.16666 6.16666,5.33333 6.16666,15.66665 0,24.99998 -27.99997,24.99998 -27.99998,0 -27.99998,-16.66665 v -41.66663 q 0,-49.99995 83.33326,-49.99995 83.33325,0 83.33325,49.99995 v 24.99997 q 0,39.99997 -136.66654,90.33325 v 34.66664 q 0,29.99997 53.33329,29.99997 53.33328,0 53.33328,-29.99997 v -49.99996 h 29.99997 z"
     id="text1"
     aria-label="áž" />
  <path
     style="fill:#000000;stroke:#000000;stroke-width:0"
     d="m 201.03067,193.17791 25.12884,7.85276 4.71166,23.55829 -20.41718,15.70552 -26.69939,-3.14111 3.14111,-78.5276 54.96932,-23.55829 80.09816,12.56442 12.56442,42.40491 -21.98773,37.69325 -127.21473,70.67485 3.14111,51.82822 51.82822,25.12883 53.39877,-4.71165 26.69939,-21.98773 7.85276,-87.95092"
     id="path1" />
</svg>
