<?xml version="1.0" encoding="UTF-8" standalone="no"?>
<!-- Created with Inkscape (http://www.inkscape.org/) -->

<svg
   width="512"
   height="512"
   viewBox="0 0 512 512"
   version="1.1"
   id="svg1"
   inkscape:version="1.3.2 (091e20e, 2023-11-25)"
   sodipodi:docname="ង1.svg"
   xmlns:inkscape="http://www.inkscape.org/namespaces/inkscape"
   xmlns:sodipodi="http://sodipodi.sourceforge.net/DTD/sodipodi-0.dtd"
   xmlns="http://www.w3.org/2000/svg"
   xmlns:svg="http://www.w3.org/2000/svg">
  <sodipodi:namedview
     id="namedview1"
     pagecolor="#ffffff"
     bordercolor="#000000"
     borderopacity="0.25"
     inkscape:showpageshadow="2"
     inkscape:pageopacity="0.0"
     inkscape:pagecheckerboard="0"
     inkscape:deskcolor="#d1d1d1"
     inkscape:document-units="px"
     inkscape:zoom="0.63671875"
     inkscape:cx="254.42945"
     inkscape:cy="380.8589"
     inkscape:window-width="1392"
     inkscape:window-height="942"
     inkscape:window-x="0"
     inkscape:window-y="25"
     inkscape:window-maximized="0"
     inkscape:current-layer="svg1" />
  <defs
     id="defs1" />
  <path
     style="font-size:341.333px;font-family:'Khmer OS Content';-inkscape-font-specification:'Khmer OS Content';text-align:center;text-anchor:middle;stroke:#000000;stroke-width:0"
     d="m 245.53881,374.25333 q -24.99998,0 -37.49996,-10.33332 -12.49999,-10.49999 -12.49999,-31.3333 0,-16.66665 6.16666,-24.99998 6.33333,-8.33332 18.83331,-8.33332 8.33333,0 12.49999,4.16666 4.16666,4.16666 4.16666,8.33332 0,4.16667 -4.16666,4.16667 -4.16666,0 -8.33332,4.16666 -4.16667,4.16666 -4.16667,12.49999 0,9.16666 6.16666,15.33332 6.33333,6.33332 18.83332,6.33332 12.83332,0 24.33331,-5.16666 11.49999,-5.16666 18.99998,-13.99998 7.49999,-8.83333 12.83332,-24.49998 5.33333,-15.49999 6.66666,-23.83331 1.33334,-8.33333 5,-10.49999 3.66666,-2 8.83332,-2 6.66666,0 6.66666,9.99999 -2.16666,14.99999 -8.33332,33.66664 -6.16666,18.83331 -16.66665,31.3333 -10.49999,12.49999 -24.99998,18.66665 -14.49998,6.33332 -33.3333,6.33332 z"
     id="text1"
     inkscape:label="text1"
     aria-label="្ង" />
  <path
     style="fill:#000000;stroke:#000000;stroke-width:0"
     d="m 232.44172,303.11656 -26.69939,25.12884 6.28221,26.69939 26.69939,9.42331 43.97546,-9.42331 23.55828,-23.55829 29.84049,-84.80981"
     id="path1" />
</svg>
