<?xml version="1.0" encoding="UTF-8" standalone="no"?>
<!-- Created with Inkscape (http://www.inkscape.org/) -->

<svg
   width="512"
   height="512"
   viewBox="0 0 512 512"
   version="1.1"
   id="svg1"
   inkscape:version="1.3.2 (091e20e, 2023-11-25)"
   sodipodi:docname="ច1.svg"
   xmlns:inkscape="http://www.inkscape.org/namespaces/inkscape"
   xmlns:sodipodi="http://sodipodi.sourceforge.net/DTD/sodipodi-0.dtd"
   xmlns="http://www.w3.org/2000/svg"
   xmlns:svg="http://www.w3.org/2000/svg">
  <sodipodi:namedview
     id="namedview1"
     pagecolor="#ffffff"
     bordercolor="#000000"
     borderopacity="0.25"
     inkscape:showpageshadow="2"
     inkscape:pageopacity="0.0"
     inkscape:pagecheckerboard="0"
     inkscape:deskcolor="#d1d1d1"
     inkscape:document-units="px"
     inkscape:zoom="0.63671875"
     inkscape:cx="254.42945"
     inkscape:cy="380.8589"
     inkscape:window-width="1392"
     inkscape:window-height="942"
     inkscape:window-x="0"
     inkscape:window-y="25"
     inkscape:window-maximized="0"
     inkscape:current-layer="svg1" />
  <defs
     id="defs1" />
  <path
     style="font-size:341.333px;font-family:'Khmer OS Content';-inkscape-font-specification:'Khmer OS Content';text-align:center;text-anchor:middle;stroke:#000000;stroke-width:0"
     d="m 226.40384,286.01619 q 0,-13.16665 12.49998,-13.16665 12.49999,0 12.49999,13.16665 0,11.49999 -7.49999,22.83332 -7.49999,11.49998 -18.66665,19.49998 -11.33332,7.99999 -27.16664,13.49998 0,7.16666 6.16666,10.66666 6.33333,3.5 18.83332,3.5 9.99999,0 19.83331,-4.83333 9.99999,-4.83333 19.83331,-14.33332 l 8.33333,-8.16666 q -14.66665,-5.66666 -14.66665,-19.33331 0,-11.66666 6.16666,-17.33332 6.33332,-5.83333 18.83331,-5.83333 10.83333,0 16.16665,5.83333 5.5,5.66666 5.5,17.33332 0,2.99999 -2.66667,7.66665 h 6 q 4.49999,0 16.66665,-6.16666 0,15.49999 -16.99998,21.66665 h -8 q -2.16666,0 -4.16666,-0.16667 -2.16666,0 -4,-0.16666 -2.16666,2.83333 -4.66666,5.99999 -2.66666,3.16666 -5.49999,6.66666 -11.66666,13.83332 -25.83331,20.83332 -14.16665,6.99999 -30.8333,6.99999 -24.99998,0 -37.49997,-7.66666 -12.49999,-7.66666 -12.49999,-23.16665 0,-15.83331 8.33333,-16.83331 17.49998,-2.33333 26.49997,-8.33333 8.99999,-5.99999 13.83332,-16.33332 4.66667,-10.16665 4.66667,-14.33332 z m 59.99994,23.33332 q 1,-2 1,-3.5 0,-3.66666 -6,-3.66666 -8.33332,0 -8.33332,7.16666 0,4.66666 9.16666,6.33332 2.99999,-3.66666 4.16666,-6.33332 z"
     id="text1"
     inkscape:label="text1"
     aria-label="្ច" />
  <path
     style="fill:#000000;stroke:#000000;stroke-width:0"
     d="m 240.29448,257.57055 -20.41718,50.25767 -42.40491,25.12884 12.56442,32.98159 45.54601,4.71166 32.9816,-26.69939 25.12883,-32.98159 -1.57055,-20.41718 -28.26994,-3.14111 -7.85276,25.12884 9.42331,12.56441 32.9816,1.57056 36.1227,-10.99387"
     id="path1" />
</svg>
