<?xml version="1.0" encoding="UTF-8" standalone="no"?>
<!-- Created with Inkscape (http://www.inkscape.org/) -->

<svg
   width="512"
   height="512"
   viewBox="0 0 512 512"
   version="1.1"
   id="svg1"
   inkscape:version="1.3.2 (091e20e, 2023-11-25)"
   sodipodi:docname="ឆ1.svg"
   xmlns:inkscape="http://www.inkscape.org/namespaces/inkscape"
   xmlns:sodipodi="http://sodipodi.sourceforge.net/DTD/sodipodi-0.dtd"
   xmlns="http://www.w3.org/2000/svg"
   xmlns:svg="http://www.w3.org/2000/svg">
  <sodipodi:namedview
     id="namedview1"
     pagecolor="#ffffff"
     bordercolor="#000000"
     borderopacity="0.25"
     inkscape:showpageshadow="2"
     inkscape:pageopacity="0.0"
     inkscape:pagecheckerboard="0"
     inkscape:deskcolor="#d1d1d1"
     inkscape:document-units="px"
     inkscape:zoom="0.63671875"
     inkscape:cx="254.42945"
     inkscape:cy="380.8589"
     inkscape:window-width="1392"
     inkscape:window-height="942"
     inkscape:window-x="0"
     inkscape:window-y="25"
     inkscape:window-maximized="0"
     inkscape:current-layer="svg1" />
  <defs
     id="defs1" />
  <path
     style="font-size:341.333px;font-family:'Khmer OS Content';-inkscape-font-specification:'Khmer OS Content';text-align:center;text-anchor:middle;stroke:#000000;stroke-width:0"
     d="m 219.44885,281.0162 v 34.99997 h 8.33333 q 16.66665,0 29.16663,16.99998 l 12.49999,12.16665 q 8.33333,10.83333 16.66665,10.83333 8.33333,0 12.49999,-6.33333 4.16666,-6.16666 4.16666,-18.83332 v -16.66665 h -6.16666 q -5.33333,0 -7.83332,-3.33333 -2.66667,-3.33333 -2.66667,-8.99999 0,-4.49999 16.66665,-20.83331 h 24.99998 v 49.83328 q 0,20.99998 -10.49999,31.33331 -10.33332,10.49999 -31.16664,10.49999 -16.66665,0 -29.16664,-16.99999 l -12.49998,-12.16665 q -8.33333,-10.83332 -16.66665,-10.83332 h -8.33333 v 19.99998 q 0,19.99998 -12.49999,19.99998 -12.49999,0 -20.83331,-16.66665 -8.33333,-13.33332 -8.33333,-23.33331 0,-8.33333 4.16667,-12.49999 4.16666,-4.16666 12.49998,-4.16666 V 281.0162 Z"
     id="text1"
     inkscape:label="text1"
     aria-label="្ឆ" />
  <path
     style="fill:#000000;stroke:#000000;stroke-width:0"
     d="m 205.74233,270.13497 10.99387,84.80982 -14.13497,21.98773 -31.41105,-17.27608 -1.57055,-40.83435 72.2454,4.71165 47.11657,42.40491 31.41104,-14.13497 1.57055,-67.53374 h -31.41104 l -1.57055,15.70552 70.67484,7.85276"
     id="path1" />
</svg>
