<?xml version="1.0" encoding="UTF-8" standalone="no"?>
<!-- Created with Inkscape (http://www.inkscape.org/) -->

<svg
   width="512"
   height="512"
   viewBox="0 0 512 512"
   version="1.1"
   id="svg1"
   inkscape:version="1.3.2 (091e20e, 2023-11-25)"
   sodipodi:docname="ឈ1.svg"
   xmlns:inkscape="http://www.inkscape.org/namespaces/inkscape"
   xmlns:sodipodi="http://sodipodi.sourceforge.net/DTD/sodipodi-0.dtd"
   xmlns="http://www.w3.org/2000/svg"
   xmlns:svg="http://www.w3.org/2000/svg">
  <sodipodi:namedview
     id="namedview1"
     pagecolor="#ffffff"
     bordercolor="#000000"
     borderopacity="0.25"
     inkscape:showpageshadow="2"
     inkscape:pageopacity="0.0"
     inkscape:pagecheckerboard="0"
     inkscape:deskcolor="#d1d1d1"
     inkscape:document-units="px"
     inkscape:zoom="0.63671875"
     inkscape:cx="254.42945"
     inkscape:cy="380.8589"
     inkscape:window-width="1392"
     inkscape:window-height="942"
     inkscape:window-x="0"
     inkscape:window-y="25"
     inkscape:window-maximized="0"
     inkscape:current-layer="svg1" />
  <defs
     id="defs1" />
  <path
     style="font-size:341.333px;font-family:'Khmer OS Content';-inkscape-font-specification:'Khmer OS Content';text-align:center;text-anchor:middle;stroke:#000000;stroke-width:0"
     d="m 379.73702,389.2227 q 0,23.33331 -11.99999,31.66664 -11.83332,8.33332 -35.49996,8.33332 -13.33332,0 -24.99998,-2.33333 -11.49999,-2.33333 -14.49998,-6.83332 -2.83334,4.49999 -11.83333,6.83332 -8.99999,2.33333 -25.33331,2.33333 -24.99997,0 -36.66663,-8.33332 -11.66665,-8.33333 -11.66665,-33.3333 v -13.33332 q 0,-19.99998 -20.33332,-19.99998 -20.33331,0 -20.33331,19.99998 v 13.33332 h 4.16666 q 12.49999,0 12.49999,8.33332 0,8 -8.33333,20.83332 -8.33332,12.49998 -25.49997,12.49998 -10.83332,0 -10.83332,-16.66665 v -38.49996 q 0,-19.83331 11.66665,-28.16664 11.66666,-8.33332 36.66663,-8.33332 24.99998,0 37.49997,8.33332 10.83332,8.33333 10.83332,28.33331 v 15.16665 q 0,23.16664 20.33331,23.16664 23.49998,0 23.49998,-23.33331 v -51.66661 h 27.99998 v 51.66661 q 0,23.33331 25.16664,23.33331 17.49998,0 17.49998,-23.33331 V 160.38959 q 0,-17.66665 -33.3333,-27.99998 3.33333,-16.83331 15.83332,-39.166625 12.66665,-22.333312 21.66664,-22.333312 7.33333,0 19.16665,7.16666 l 11.66666,7.16666 q 5.16666,3.166664 12.16665,3.166664 3.66667,0 7.83333,-0.833333 -1.66667,11.666656 -6.83333,19.166646 -4.99999,7.33333 -13.49999,8.16666 -0.83333,0.16667 -1.66666,0.16667 -8.33333,0 -22.49998,-8.83333 -4.33333,-2.49999 -7.99999,-2.49999 -10.49999,0 -18.16665,19.16664 45.66662,14.66666 45.66662,27.99998 z"
     id="text1"
     inkscape:label="text1"
     aria-label="្ឈ" />
  <path
     style="fill:#000000;stroke:#000000;stroke-width:0"
     d="m 164.90798,392.63804 23.55828,4.71165 1.57055,21.98773 -40.83436,9.42332 3.14111,-65.96319 45.54601,-20.41718 25.12883,10.99386 9.42332,69.1043 32.98159,3.1411 26.69939,-43.97546 -4.71166,-62.82208 15.70552,108.36809 43.97546,-7.85276 23.55829,-25.12883 -4.71166,-252.8589 -47.11656,-14.13497 34.55214,-42.404904 21.98773,12.564417 h 53.39878"
     id="path1" />
</svg>
