<?xml version="1.0" encoding="UTF-8" standalone="no"?>
<!-- Created with Inkscape (http://www.inkscape.org/) -->

<svg
   width="512"
   height="512"
   viewBox="0 0 512 512"
   version="1.1"
   id="svg1"
   inkscape:version="1.3.2 (091e20e, 2023-11-25)"
   sodipodi:docname="ដ1.svg"
   xmlns:inkscape="http://www.inkscape.org/namespaces/inkscape"
   xmlns:sodipodi="http://sodipodi.sourceforge.net/DTD/sodipodi-0.dtd"
   xmlns="http://www.w3.org/2000/svg"
   xmlns:svg="http://www.w3.org/2000/svg">
  <sodipodi:namedview
     id="namedview1"
     pagecolor="#ffffff"
     bordercolor="#000000"
     borderopacity="0.25"
     inkscape:showpageshadow="2"
     inkscape:pageopacity="0.0"
     inkscape:pagecheckerboard="0"
     inkscape:deskcolor="#d1d1d1"
     inkscape:document-units="px"
     inkscape:zoom="0.63671875"
     inkscape:cx="254.42945"
     inkscape:cy="380.8589"
     inkscape:window-width="1392"
     inkscape:window-height="942"
     inkscape:window-x="0"
     inkscape:window-y="25"
     inkscape:window-maximized="0"
     inkscape:current-layer="svg1" />
  <defs
     id="defs1" />
  <path
     style="font-size:341.333px;font-family:'Khmer OS Content';-inkscape-font-specification:'Khmer OS Content';text-align:center;text-anchor:middle;stroke:#000000;stroke-width:0"
     d="m 214.25661,326.9773 v 11.16666 q 8.33332,-3.16667 8.33332,-7.66666 0,-3.5 -8.33332,-3.5 z m -24.99998,-19.99998 q 0,-21.66665 18.33332,-31.66664 18.33331,-9.99999 48.33328,-9.99999 29.99998,0 48.33329,9.99999 18.33332,9.99999 18.33332,31.66664 v 49.99995 h -24.99998 v -49.99995 q 0,-13.33332 -11.99999,-19.16665 -12.16665,-5.83333 -29.66664,-5.83333 -17.49998,0 -29.49997,5.83333 -12.16665,5.83333 -12.16665,19.16665 v 3.33333 q 12.49999,0 18.83331,5 6.16666,4.99999 6.16666,14.99998 0,11.66666 -12.49998,19.16665 -12.49999,7.49999 -24.99998,7.49999 -12.49999,0 -12.49999,-12.49999 z"
     id="text1"
     inkscape:label="text1"
     aria-label="្ដ" />
  <path
     style="fill:#000000;stroke:#000000;stroke-width:0"
     d="m 213.59509,310.96933 29.84049,9.42331 v 28.26994 l -32.98159,14.13497 -14.13497,-3.14111 v -69.10429 l 29.84049,-17.27608 56.53988,3.14111 29.84049,17.27607 1.57055,76.95706"
     id="path1" />
</svg>
