<?xml version="1.0" encoding="UTF-8" standalone="no"?>
<!-- Created with Inkscape (http://www.inkscape.org/) -->

<svg
   width="512"
   height="512"
   viewBox="0 0 512 512"
   version="1.1"
   id="svg1"
   inkscape:version="1.3.2 (091e20e, 2023-11-25)"
   sodipodi:docname="ឋ1.svg"
   xmlns:inkscape="http://www.inkscape.org/namespaces/inkscape"
   xmlns:sodipodi="http://sodipodi.sourceforge.net/DTD/sodipodi-0.dtd"
   xmlns="http://www.w3.org/2000/svg"
   xmlns:svg="http://www.w3.org/2000/svg">
  <sodipodi:namedview
     id="namedview1"
     pagecolor="#ffffff"
     bordercolor="#000000"
     borderopacity="0.25"
     inkscape:showpageshadow="2"
     inkscape:pageopacity="0.0"
     inkscape:pagecheckerboard="0"
     inkscape:deskcolor="#d1d1d1"
     inkscape:document-units="px"
     inkscape:zoom="0.63671875"
     inkscape:cx="254.42945"
     inkscape:cy="380.8589"
     inkscape:window-width="1392"
     inkscape:window-height="942"
     inkscape:window-x="0"
     inkscape:window-y="25"
     inkscape:window-maximized="0"
     inkscape:current-layer="svg1" />
  <defs
     id="defs1" />
  <path
     style="font-size:341.333px;font-family:'Khmer OS Content';-inkscape-font-specification:'Khmer OS Content';text-align:center;text-anchor:middle;stroke:#000000;stroke-width:0"
     d="m 293.96821,274.75955 q 0,-5.66666 4.16666,-8.66665 4.16666,-2.83334 12.49999,-2.83334 8.33332,0 12.49998,5.83333 4.16667,5.66666 4.16667,17.16665 v 62.66661 q 0,7.16666 -4.5,10.66666 -4.33333,3.66666 -13.33332,3.66666 l -45.99996,-24.33331 -18.83331,18.33331 q -6.33333,6 -9.83332,6 -3.5,0 -8.16666,-6.66666 l -28.33331,-39.3333 q -4.16666,-5.66666 -4.16666,-15.49998 0,-9.49999 14.66665,-11.49999 15.16665,-2 27.33331,-3 12.33332,-0.83333 22.83331,-0.83333 h 43.49996 q -4.33333,-0.16667 -6.33333,-3.16666 -2.16666,-2.83334 -2.16666,-8.5 z m 8.33332,30.33331 h -45.49996 q -9.99999,0 -19.33331,0.83333 -9.16666,0.83333 -18.33332,2.66666 l 18.33332,26.33331 23.33331,-19.33331 41.49996,17.66665 z"
     id="text1"
     inkscape:label="text1"
     aria-label="្ឋ" />
  <path
     style="fill:#000000;stroke:#000000;stroke-width:0"
     d="m 299.97546,251.28834 15.70552,32.9816 v 67.53374 l -51.82822,-25.12883 -26.69939,21.98773 -40.83435,-45.54602 18.84662,-6.2822 135.06749,-4.71166"
     id="path1" />
</svg>
