<?xml version="1.0" encoding="UTF-8" standalone="no"?>
<!-- Created with Inkscape (http://www.inkscape.org/) -->

<svg
   width="512"
   height="512"
   viewBox="0 0 512 512"
   version="1.1"
   id="svg1"
   inkscape:version="1.3.2 (091e20e, 2023-11-25)"
   sodipodi:docname="ឌ1.svg"
   xmlns:inkscape="http://www.inkscape.org/namespaces/inkscape"
   xmlns:sodipodi="http://sodipodi.sourceforge.net/DTD/sodipodi-0.dtd"
   xmlns="http://www.w3.org/2000/svg"
   xmlns:svg="http://www.w3.org/2000/svg">
  <sodipodi:namedview
     id="namedview1"
     pagecolor="#ffffff"
     bordercolor="#000000"
     borderopacity="0.25"
     inkscape:showpageshadow="2"
     inkscape:pageopacity="0.0"
     inkscape:pagecheckerboard="0"
     inkscape:deskcolor="#d1d1d1"
     inkscape:document-units="px"
     inkscape:zoom="0.63671875"
     inkscape:cx="254.42945"
     inkscape:cy="380.8589"
     inkscape:window-width="1392"
     inkscape:window-height="942"
     inkscape:window-x="0"
     inkscape:window-y="25"
     inkscape:window-maximized="0"
     inkscape:current-layer="svg1" />
  <defs
     id="defs1" />
  <path
     style="font-size:341.333px;font-family:'Khmer OS Content';-inkscape-font-specification:'Khmer OS Content';text-align:center;text-anchor:middle;stroke:#000000;stroke-width:0"
     d="m 206.40385,294.90065 q 11.66666,0 11.66666,5.16666 0,5.83333 -5.83333,10.99999 -5.83333,5.16666 -18.33331,5.16666 -12.49999,0 -12.49999,-10.83332 v -8.83332 q 0,-8.83333 14.16665,-19.49999 14.16665,-10.66665 22.49998,-10.66665 8.33333,0 29.99997,15.99998 21.66665,-15.99998 29.99997,-15.99998 8.33333,0 22.49998,10.66665 14.16665,10.66666 14.16665,20.83332 0,9.33332 -10.83332,15.99998 -10.66666,6.5 -32.66663,12.33332 l -64.83328,17.16665 q 8.33333,3.5 20.83332,3.5 12.33332,0 30.99997,-3.16666 18.66665,-3.16667 31.49997,-16.33332 l 24.99997,-4 v 32.83331 q 0,7.16666 -4.16666,10.66665 -4.16666,3.66667 -29.16664,3.66667 8.33333,-7.16666 8.33333,-14.33332 v -7 q -14.83332,8.33333 -33.66664,12.66666 -18.83331,4.49999 -41.33329,4.49999 -16.66665,0 -24.99998,-5.83333 -8.33332,-5.83332 -8.33332,-17.33331 0,-12.49999 11.16665,-15.16665 l 74.83327,-18.83332 q 11.16665,-3.33333 16.83331,-6.99999 5.5,-3.5 5.5,-7.66666 0,-5.16666 -4.5,-7.5 -4.66666,-2.16666 -8.49999,-2.16666 -4,0 -28.66664,18.99998 -25.99997,-18.99998 -29.8333,-18.99998 -3.83333,0 -7.83333,2.33333 -4,2.33333 -4,7.66666 z"
     id="text1"
     inkscape:label="text1"
     aria-label="្ឌ" />
  <path
     style="fill:#000000;stroke:#000000;stroke-width:0"
     d="m 208.88344,304.68712 -23.55829,-3.14111 14.13497,-18.84662 18.84663,-14.13497 25.12883,10.99386 32.9816,-12.56441 37.69325,18.84662 -10.99387,17.27607 -125.64417,23.55829 4.71166,29.84049 32.98159,10.99386 37.69326,-4.71165 37.69325,-37.69326 18.84662,-3.1411 -14.13497,62.82209"
     id="path1" />
</svg>
