<?xml version="1.0" encoding="UTF-8" standalone="no"?>
<!-- Created with Inkscape (http://www.inkscape.org/) -->

<svg
   width="512"
   height="512"
   viewBox="0 0 512 512"
   version="1.1"
   id="svg1"
   inkscape:version="1.3.2 (091e20e, 2023-11-25)"
   sodipodi:docname="ឍ1.svg"
   xmlns:inkscape="http://www.inkscape.org/namespaces/inkscape"
   xmlns:sodipodi="http://sodipodi.sourceforge.net/DTD/sodipodi-0.dtd"
   xmlns="http://www.w3.org/2000/svg"
   xmlns:svg="http://www.w3.org/2000/svg">
  <sodipodi:namedview
     id="namedview1"
     pagecolor="#ffffff"
     bordercolor="#000000"
     borderopacity="0.25"
     inkscape:showpageshadow="2"
     inkscape:pageopacity="0.0"
     inkscape:pagecheckerboard="0"
     inkscape:deskcolor="#d1d1d1"
     inkscape:document-units="px"
     inkscape:zoom="0.63671875"
     inkscape:cx="254.42945"
     inkscape:cy="380.8589"
     inkscape:window-width="1392"
     inkscape:window-height="942"
     inkscape:window-x="0"
     inkscape:window-y="25"
     inkscape:window-maximized="0"
     inkscape:current-layer="svg1" />
  <defs
     id="defs1" />
  <path
     style="font-size:341.333px;font-family:'Khmer OS Content';-inkscape-font-specification:'Khmer OS Content';text-align:center;text-anchor:middle;stroke:#000000;stroke-width:0"
     d="m 157.73723,400.05603 v 12.49998 q 6.83333,0 6.83333,-8.33332 0,-2 -1.83333,-3.16666 -1.66667,-1 -5,-1 z m 221.99979,-12.66666 q 0,41.83329 -45.83329,41.83329 -24.99997,0 -37.49996,-18.33331 -12.49999,-18.33332 -20.83331,-18.33332 h -4.16667 v 16.66665 q 0,19.99998 -17.49998,19.99998 -10.83332,0 -19.16665,-14.16665 -8.33332,-14.16665 -8.33332,-22.49998 0,-8.33332 4.16666,-12.49998 3.99999,-4 11.49999,-4.16667 h -0.16667 q 0,-10.66665 -10.49999,-17.83331 -2.33333,-1.5 -5.16666,-1.5 -9.99999,0 -26.33331,19.49998 -16.49998,-19.49998 -26.49997,-19.49998 -2.83333,0 -5.16667,1.5 -10.49999,7.16666 -10.49999,17.83331 v 7.5 q 10.49999,0 15.66666,5.16666 5.16666,5.33333 5.16666,15.66665 0,24.99997 -20.83332,24.99997 -29.66663,0 -29.66663,-16.66665 v -36.66663 q 0,-20.33331 17.99998,-33.49997 17.83331,-13.16665 26.66664,-13.16665 7.33333,0 27.16664,18.99998 19.83331,-18.99998 27.16664,-18.99998 8.66666,0 26.49998,13.16665 17.83331,13.16666 17.83331,33.49997 h 4.16667 q 13.33332,0 26.66664,18.33332 13.33332,18.33331 31.66663,18.33331 15.83332,0 15.83332,-25.16664 V 160.38959 q 0,-17.66665 -33.3333,-27.99998 3.33333,-16.83331 15.83332,-39.166625 12.66665,-22.333312 21.66664,-22.333312 7.33333,0 19.16665,7.16666 l 11.66666,7.16666 q 5.16666,3.166664 12.16665,3.166664 3.66667,0 7.83333,-0.833333 -1.66667,11.666656 -6.83333,19.166646 -4.99999,7.33333 -13.49999,8.16666 -0.83333,0.16667 -1.66666,0.16667 -8.33333,0 -22.49998,-8.83333 -4.33333,-2.49999 -7.99999,-2.49999 -10.49999,0 -18.16665,19.16664 45.66662,14.66666 45.66662,27.99998 z"
     id="text1"
     inkscape:label="text1"
     aria-label="្ឍ" />
  <path
     style="fill:#000000;stroke:#000000;stroke-width:0"
     d="m 157.05521,384.78528 18.84663,6.2822 3.1411,21.98773 -15.70552,20.41718 -23.55828,-3.1411 3.14111,-65.96319 25.12883,-23.55828 29.84049,20.41717 28.26994,-21.98773 31.41104,26.69939 v 58.11043 l -34.55215,-15.70552 1.57056,-26.69939 58.11043,1.57055 25.12883,28.26994 29.84049,9.42332 29.84049,-12.56442 -4.71165,-256 -37.69326,-29.84049 28.26994,-40.834358 26.69939,17.276073 h 39.2638"
     id="path1" />
</svg>
