<?xml version="1.0" encoding="UTF-8" standalone="no"?>
<!-- Created with Inkscape (http://www.inkscape.org/) -->

<svg
   width="512"
   height="512"
   viewBox="0 0 512 512"
   version="1.1"
   id="svg1"
   inkscape:version="1.3.2 (091e20e, 2023-11-25)"
   sodipodi:docname="ថ1.svg"
   xmlns:inkscape="http://www.inkscape.org/namespaces/inkscape"
   xmlns:sodipodi="http://sodipodi.sourceforge.net/DTD/sodipodi-0.dtd"
   xmlns="http://www.w3.org/2000/svg"
   xmlns:svg="http://www.w3.org/2000/svg">
  <sodipodi:namedview
     id="namedview1"
     pagecolor="#ffffff"
     bordercolor="#000000"
     borderopacity="0.25"
     inkscape:showpageshadow="2"
     inkscape:pageopacity="0.0"
     inkscape:pagecheckerboard="0"
     inkscape:deskcolor="#d1d1d1"
     inkscape:document-units="px"
     inkscape:zoom="0.63671875"
     inkscape:cx="254.42945"
     inkscape:cy="380.8589"
     inkscape:window-width="1392"
     inkscape:window-height="942"
     inkscape:window-x="0"
     inkscape:window-y="25"
     inkscape:window-maximized="0"
     inkscape:current-layer="svg1" />
  <defs
     id="defs1" />
  <path
     style="font-size:341.333px;font-family:'Khmer OS Content';-inkscape-font-specification:'Khmer OS Content';text-align:center;text-anchor:middle;stroke:#000000;stroke-width:0"
     d="m 178.87221,313.74009 q 0,-20.83331 14.66665,-35.3333 14.49999,-14.66665 43.66662,-14.66665 27.33331,0 46.99996,13.99998 19.33331,13.83332 28.16664,30.49997 8.66666,16.66666 16.16665,23.49998 7.66666,7 16.99998,7 0,16.66665 -8.33332,16.66665 -16.66665,0 -27.66664,-7.66666 -10.99999,-7.66666 -18.16665,-24.33331 -7.16666,-16.66665 -21.16665,-29.83331 -13.99998,-13.16665 -32.99997,-13.16665 -16.66665,0 -24.99997,10.33332 -8.33333,10.49999 -8.33333,22.99998 0,12.49999 6.33333,18.66665 6.16666,6.33333 18.66665,6.33333 0,8.33332 -4.16666,12.49998 -4.16667,4.16667 -12.49999,4.16667 -16.66665,0 -24.99998,-10.33333 -8.33332,-10.49999 -8.33332,-31.3333 z"
     id="text1"
     inkscape:label="text1"
     aria-label="្ថ" />
  <path
     style="fill:#000000;stroke:#000000;stroke-width:0"
     d="m 218.30675,353.37423 -29.84049,-21.98773 10.99386,-39.2638 36.1227,-20.41718 61.25154,23.55828 18.84662,47.11657 51.82822,12.56442"
     id="path1" />
</svg>
