<?xml version="1.0" encoding="UTF-8" standalone="no"?>
<!-- Created with Inkscape (http://www.inkscape.org/) -->

<svg
   width="512"
   height="512"
   viewBox="0 0 512 512"
   version="1.1"
   id="svg1"
   xmlns="http://www.w3.org/2000/svg"
   xmlns:svg="http://www.w3.org/2000/svg">
  <defs
     id="defs1" />
  <path
     style="font-size:341.333px;font-family:'Khmer OS Content';-inkscape-font-specification:'Khmer OS Content';text-align:center;text-anchor:middle;stroke:#000000;stroke-width:0"
     d="m 298.83321,201.00005 q 0,4.99999 9.33332,4.99999 v -9.16665 q -9.33332,0 -9.33332,4.16666 z m 14.33332,63.33327 q 8.33333,0 8.33333,-4.16666 0,-4.16666 -4.16667,-4.16666 -4.16666,0 -4.16666,8.33332 z m 0,66.33327 q 0,50.33329 -59.66661,50.33329 -65.33327,0 -65.33327,-41.66663 v -41.66663 h 29.99997 v 41.66663 q 0,21.66665 35.3333,21.66665 29.66664,0 29.66664,-30.16664 V 284.3333 H 254.83325 Q 171.5,284.3333 171.5,234.33335 v -53.33328 q 0,-49.99995 83.33325,-49.99995 83.33326,0 83.33326,49.99995 v 24.99997 q 0,16.66666 -27.99998,16.66666 -27.99997,0 -27.99997,-21.66665 0,-10.33332 6.16666,-15.66665 6.16666,-5.16666 19.83331,-5.16666 0,-29.16664 -53.33328,-29.16664 -53.33328,0 -53.33328,29.99997 v 53.33328 q 0,29.99997 53.33328,29.99997 h 28.33331 q 0,-24.99997 34.16663,-24.99997 20.83332,0 20.83332,20.83331 0,24.16664 -24.99998,24.16664 z"
     id="text1"
     aria-label="ទ" />
  <path
     style="fill:#000000;stroke:#000000;stroke-width:0"
     d="m 197.88957,287.41104 4.71166,67.53375 28.26994,18.84662 48.68711,-3.1411 20.41718,-21.98773 -4.71166,-98.94479 20.41718,-14.13497 21.98773,9.42331 -1.57055,28.26994 -127.21472,-1.57055 -18.84663,-29.84049 v -84.80982 l 54.96932,-23.55828 70.67485,9.42332 12.56442,40.83435 -3.14111,34.55215 -29.84049,-4.71166 -3.1411,-21.98773 94.23313,-15.70552"
     id="path1" />
</svg>
