<?xml version="1.0" encoding="UTF-8" standalone="no"?>
<!-- Created with Inkscape (http://www.inkscape.org/) -->

<svg
   width="512"
   height="512"
   viewBox="0 0 512 512"
   version="1.1"
   id="svg1"
   inkscape:version="1.3.2 (091e20e, 2023-11-25)"
   sodipodi:docname="ទ1.svg"
   xmlns:inkscape="http://www.inkscape.org/namespaces/inkscape"
   xmlns:sodipodi="http://sodipodi.sourceforge.net/DTD/sodipodi-0.dtd"
   xmlns="http://www.w3.org/2000/svg"
   xmlns:svg="http://www.w3.org/2000/svg">
  <sodipodi:namedview
     id="namedview1"
     pagecolor="#ffffff"
     bordercolor="#000000"
     borderopacity="0.25"
     inkscape:showpageshadow="2"
     inkscape:pageopacity="0.0"
     inkscape:pagecheckerboard="0"
     inkscape:deskcolor="#d1d1d1"
     inkscape:document-units="px"
     inkscape:zoom="0.63671875"
     inkscape:cx="254.42945"
     inkscape:cy="380.8589"
     inkscape:window-width="1392"
     inkscape:window-height="942"
     inkscape:window-x="0"
     inkscape:window-y="25"
     inkscape:window-maximized="0"
     inkscape:current-layer="svg1" />
  <defs
     id="defs1" />
  <path
     style="font-size:341.333px;font-family:'Khmer OS Content';-inkscape-font-specification:'Khmer OS Content';text-align:center;text-anchor:middle;stroke:#000000;stroke-width:0"
     d="m 267.39767,280.68899 q 0,-3.66666 -8.33332,-3.66666 0,-7.66666 4.16666,-11.49999 4.16666,-3.83333 12.49999,-3.83333 8.33332,0 12.49999,3.83333 4.16666,3.83333 4.16666,11.49999 0,7.49999 -8.99999,18.83331 -8.99999,11.33332 -29.16664,21.66665 -20.16665,10.49999 -33.49997,13.66665 8.16666,9.83333 21.49998,9.83333 16.99998,0 36.49997,-16.16666 19.49998,-15.99998 21.83331,-26.49997 1.66666,-6.66666 5.33333,-9.83332 3.66666,-3.16667 8.99999,-3.16667 10.83332,0 10.83332,7.66666 v 52.99995 q 0,7.66666 -8.16666,11.49999 -7.99999,4.16666 -24.33331,4.16666 7.49999,-7.99999 7.49999,-15.66665 v -13.33332 q -16.83331,16.83332 -30.16663,22.83331 -13.49999,6.16666 -28.33331,6.16666 -20.66665,0 -35.3333,-7.66666 -14.49999,-7.16666 -14.49999,-21.83331 0,-17.16665 8.33333,-19.66665 33.3333,-9.99999 49.99995,-19.16665 16.66665,-8.99999 16.66665,-12.66665 z"
     id="text1"
     inkscape:label="text1"
     aria-label="្ទ" />
  <path
     style="fill:#000000;stroke:#000000;stroke-width:0"
     d="M 257.57055,246.57669 274.84663,271.70552 256,298.40491 l -64.39264,26.69938 6.28221,25.12884 39.2638,9.42331 29.8405,-23.55828 45.54601,-54.96933 3.1411,92.66258"
     id="path1" />
</svg>
