<?xml version="1.0" encoding="UTF-8" standalone="no"?>
<!-- Created with Inkscape (http://www.inkscape.org/) -->

<svg
   width="512"
   height="512"
   viewBox="0 0 512 512"
   version="1.1"
   id="svg1"
   inkscape:version="1.3.2 (091e20e, 2023-11-25)"
   sodipodi:docname="ប1.svg"
   xmlns:inkscape="http://www.inkscape.org/namespaces/inkscape"
   xmlns:sodipodi="http://sodipodi.sourceforge.net/DTD/sodipodi-0.dtd"
   xmlns="http://www.w3.org/2000/svg"
   xmlns:svg="http://www.w3.org/2000/svg">
  <sodipodi:namedview
     id="namedview1"
     pagecolor="#ffffff"
     bordercolor="#000000"
     borderopacity="0.25"
     inkscape:showpageshadow="2"
     inkscape:pageopacity="0.0"
     inkscape:pagecheckerboard="0"
     inkscape:deskcolor="#d1d1d1"
     inkscape:document-units="px"
     inkscape:zoom="0.63671875"
     inkscape:cx="254.42945"
     inkscape:cy="380.8589"
     inkscape:window-width="1392"
     inkscape:window-height="942"
     inkscape:window-x="0"
     inkscape:window-y="25"
     inkscape:window-maximized="0"
     inkscape:current-layer="svg1" />
  <defs
     id="defs1" />
  <path
     style="font-size:341.333px;font-family:'Khmer OS Content';-inkscape-font-specification:'Khmer OS Content';text-align:center;text-anchor:middle;stroke:#000000;stroke-width:0"
     d="m 256.48714,372.22272 q 2.16666,-2.16667 4.16666,-2.16667 2.16667,0 4.16667,2.16667 l 33.3333,33.3333 V 160.38959 q 0,-17.66665 -33.3333,-27.99998 3.33333,-16.83331 15.83331,-39.166625 12.66666,-22.333312 21.66665,-22.333312 7.33333,0 19.16665,7.16666 l 11.66665,7.16666 q 5.16667,3.166664 12.16666,3.166664 3.66666,0 7.83332,-0.833333 -1.66666,11.666656 -6.83332,19.166646 -5,7.33333 -13.49999,8.16666 -0.83333,0.16667 -1.66666,0.16667 -8.33333,0 -22.49998,-8.83333 -4.33333,-2.49999 -8,-2.49999 -10.49999,0 -18.16664,19.16664 45.66662,14.66666 45.66662,27.99998 v 261.66641 q 0,16.66665 -13.33332,16.66665 -16.66665,0 -26.99998,-10.49999 l -26.99997,-27.16664 -27.16664,27.16664 q -10.49999,10.49999 -27.16664,10.49999 -11.33332,0 -11.33332,-16.66665 v -49.99995 q 0,-24.99997 25.66664,-24.99997 8.99999,0 14.99998,3.33333 6,3.33333 6,11.66665 0,16.66665 -18.66665,26.66664 v 26.33331 z"
     id="text1"
     inkscape:label="text1"
     aria-label="្បក" />
  <path
     style="fill:#000000;stroke:#000000;stroke-width:0"
     d="m 227.73006,367.5092 12.56442,-17.27607 -32.9816,-1.57055 v 78.5276 l 51.82822,-45.54601 42.40491,40.83436 h 12.56442 V 152.34356 l -42.40491,-23.55828 21.98773,-45.546016 26.69939,14.134969 32.98159,4.711657"
     id="path1" />
</svg>
