<?xml version="1.0" encoding="UTF-8" standalone="no"?>
<!-- Created with Inkscape (http://www.inkscape.org/) -->

<svg
   width="512"
   height="512"
   viewBox="0 0 512 512"
   version="1.1"
   id="svg1"
   inkscape:version="1.3.2 (091e20e, 2023-11-25)"
   sodipodi:docname="ផ1.svg"
   xmlns:inkscape="http://www.inkscape.org/namespaces/inkscape"
   xmlns:sodipodi="http://sodipodi.sourceforge.net/DTD/sodipodi-0.dtd"
   xmlns="http://www.w3.org/2000/svg"
   xmlns:svg="http://www.w3.org/2000/svg">
  <sodipodi:namedview
     id="namedview1"
     pagecolor="#ffffff"
     bordercolor="#000000"
     borderopacity="0.25"
     inkscape:showpageshadow="2"
     inkscape:pageopacity="0.0"
     inkscape:pagecheckerboard="0"
     inkscape:deskcolor="#d1d1d1"
     inkscape:document-units="px"
     inkscape:zoom="0.63671875"
     inkscape:cx="254.42945"
     inkscape:cy="380.8589"
     inkscape:window-width="1392"
     inkscape:window-height="942"
     inkscape:window-x="0"
     inkscape:window-y="25"
     inkscape:window-maximized="0"
     inkscape:current-layer="svg1" />
  <defs
     id="defs1" />
  <path
     style="font-size:341.333px;font-family:'Khmer OS Content';-inkscape-font-specification:'Khmer OS Content';text-align:center;text-anchor:middle;stroke:#000000;stroke-width:0"
     d="m 294.44878,297.25953 v -9.66666 q -6.66666,3.66667 -6.66666,7 0,2.66666 6.66666,2.66666 z m -92.49991,65.66661 q -15.83332,0 -15.83332,-14.49999 v -76.83326 h 24.99997 v 64.49994 l 41.66663,-31.49997 41.66663,31.49997 v -25.99998 q -10.83332,0 -17.16665,-3.83333 -6.16666,-3.66666 -6.16666,-11.49999 0,-8.83332 11.66665,-15.99998 11.66666,-7.16666 24.16665,-7.16666 12.49998,0 12.49998,9.66666 v 67.1666 q 0,14.49999 -15.83331,14.49999 -9.16666,0 -19.49999,-8.16666 l -31.3333,-24.66665 -31.16664,24.66665 q -10.49999,8.16666 -19.66664,8.16666 z"
     id="text1"
     inkscape:label="text1"
     aria-label="្ផ" />
  <path
     style="fill:#000000;stroke:#000000;stroke-width:0"
     d="m 193.17791,260.71166 4.71166,105.22699 51.82822,-47.11656 54.96933,36.1227 1.57055,-80.09816 -31.41104,3.1411 -6.28221,23.55828 72.2454,34.55215"
     id="path1" />
</svg>
