<?xml version="1.0" encoding="UTF-8" standalone="no"?>
<!-- Created with Inkscape (http://www.inkscape.org/) -->

<svg
   width="512"
   height="512"
   viewBox="0 0 512 512"
   version="1.1"
   id="svg1"
   inkscape:version="1.3.2 (091e20e, 2023-11-25)"
   sodipodi:docname="ព1.svg"
   xmlns:inkscape="http://www.inkscape.org/namespaces/inkscape"
   xmlns:sodipodi="http://sodipodi.sourceforge.net/DTD/sodipodi-0.dtd"
   xmlns="http://www.w3.org/2000/svg"
   xmlns:svg="http://www.w3.org/2000/svg">
  <sodipodi:namedview
     id="namedview1"
     pagecolor="#ffffff"
     bordercolor="#000000"
     borderopacity="0.25"
     inkscape:showpageshadow="2"
     inkscape:pageopacity="0.0"
     inkscape:pagecheckerboard="0"
     inkscape:deskcolor="#d1d1d1"
     inkscape:document-units="px"
     inkscape:zoom="0.63671875"
     inkscape:cx="254.42945"
     inkscape:cy="380.8589"
     inkscape:window-width="1392"
     inkscape:window-height="942"
     inkscape:window-x="0"
     inkscape:window-y="25"
     inkscape:window-maximized="0"
     inkscape:current-layer="svg1" />
  <defs
     id="defs1" />
  <path
     style="font-size:341.333px;font-family:'Khmer OS Content';-inkscape-font-specification:'Khmer OS Content';text-align:center;text-anchor:middle;stroke:#000000;stroke-width:0"
     d="m 219.01938,316.24621 q -1.66667,-1 -5,-1 v 12.49999 q 6.83333,0 6.83333,-8.33333 0,-1.99999 -1.83333,-3.16666 z m -5,-17.66665 q 10.49999,0 15.66665,5.16666 5.16667,5.33333 5.16667,15.66665 0,24.99998 -20.83332,24.99998 -26.33331,0 -26.33331,-16.66665 v -33.3333 q 0,-15.33332 13.83332,-28.49997 13.66666,-13.16666 22.49998,-13.16666 7.33333,0 30.49997,17.33332 23.16665,-17.33332 30.49997,-17.33332 8.66666,0 22.33332,13.16666 13.66665,13.16665 13.66665,28.49997 v 49.99995 H 294.85264 V 294.4129 q 0,-10.66666 -7.16666,-19.49998 -1.66667,-2 -4.33333,-2 -8.99999,0 -28.83331,21.66664 -19.99998,-21.66664 -28.99997,-21.66664 -2.66666,0 -4.33333,2 -7.16666,8.83332 -7.16666,19.49998 z"
     id="text1"
     inkscape:label="text1"
     aria-label="្ព" />
  <path
     style="fill:#000000;stroke:#000000;stroke-width:0"
     d="m 216.7362,304.68712 23.55828,6.28221 -9.42331,32.98159 -39.26381,3.1411 7.85276,-54.96932 23.55828,-31.41104 29.8405,21.98773 32.98159,-20.41718 20.41718,18.84662 v 80.09816"
     id="path1" />
</svg>
