<?xml version="1.0" encoding="UTF-8" standalone="no"?>
<!-- Created with Inkscape (http://www.inkscape.org/) -->

<svg
   width="512"
   height="512"
   viewBox="0 0 512 512"
   version="1.1"
   id="svg1"
   inkscape:version="1.3.2 (091e20e, 2023-11-25)"
   sodipodi:docname="ភ1.svg"
   xmlns:inkscape="http://www.inkscape.org/namespaces/inkscape"
   xmlns:sodipodi="http://sodipodi.sourceforge.net/DTD/sodipodi-0.dtd"
   xmlns="http://www.w3.org/2000/svg"
   xmlns:svg="http://www.w3.org/2000/svg">
  <sodipodi:namedview
     id="namedview1"
     pagecolor="#ffffff"
     bordercolor="#000000"
     borderopacity="0.25"
     inkscape:showpageshadow="2"
     inkscape:pageopacity="0.0"
     inkscape:pagecheckerboard="0"
     inkscape:deskcolor="#d1d1d1"
     inkscape:document-units="px"
     inkscape:zoom="0.63671875"
     inkscape:cx="254.42945"
     inkscape:cy="380.8589"
     inkscape:window-width="1392"
     inkscape:window-height="942"
     inkscape:window-x="0"
     inkscape:window-y="25"
     inkscape:window-maximized="0"
     inkscape:current-layer="svg1" />
  <defs
     id="defs1" />
  <path
     style="font-size:341.333px;font-family:'Khmer OS Content';-inkscape-font-specification:'Khmer OS Content';text-align:center;text-anchor:middle;stroke:#000000;stroke-width:0"
     d="m 177.78222,332.04784 q 0,4.5 8.33333,7.66666 v -11.16666 q -8.33333,0 -8.33333,3.5 z m 33.3333,-23.49998 v 37.49997 q 0,12.49998 -12.49998,12.49998 -12.49999,0 -24.99998,-7.49999 -12.49999,-7.49999 -12.49999,-19.16665 0,-9.99999 6.16666,-14.99998 6.33333,-5 18.83332,-5 v -3.33333 q 0,-21.66664 18.33331,-31.66663 18.33332,-9.99999 48.33329,-9.99999 29.99997,0 48.33329,9.99999 18.33331,9.99999 18.33331,31.66663 v 49.99995 h -24.99997 v -49.99995 q 0,-13.33332 -11.99999,-19.16665 -12.16666,-5.83332 -29.66664,-5.83332 -17.49998,0 -29.49997,5.83332 -12.16666,5.83333 -12.16666,19.16665 z"
     id="text1"
     inkscape:label="text1"
     aria-label="្ភ" />
  <path
     style="fill:#000000;stroke:#000000;stroke-width:0"
     d="m 182.18405,310.96933 -23.55828,17.27607 4.71165,21.98773 21.98773,14.13497 h 17.27608 l -4.71166,-75.3865 32.9816,-14.13497 61.25153,1.57055 20.41718,14.13497 -4.71166,87.95092"
     id="path1" />
</svg>
