<?xml version="1.0" encoding="UTF-8" standalone="no"?>
<!-- Created with Inkscape (http://www.inkscape.org/) -->

<svg
   width="512"
   height="512"
   viewBox="0 0 512 512"
   version="1.1"
   id="svg1"
   inkscape:version="1.3.2 (091e20e, 2023-11-25)"
   sodipodi:docname="ម1.svg"
   xmlns:inkscape="http://www.inkscape.org/namespaces/inkscape"
   xmlns:sodipodi="http://sodipodi.sourceforge.net/DTD/sodipodi-0.dtd"
   xmlns="http://www.w3.org/2000/svg"
   xmlns:svg="http://www.w3.org/2000/svg">
  <sodipodi:namedview
     id="namedview1"
     pagecolor="#ffffff"
     bordercolor="#000000"
     borderopacity="0.25"
     inkscape:showpageshadow="2"
     inkscape:pageopacity="0.0"
     inkscape:pagecheckerboard="0"
     inkscape:deskcolor="#d1d1d1"
     inkscape:document-units="px"
     inkscape:zoom="0.63671875"
     inkscape:cx="254.42945"
     inkscape:cy="380.8589"
     inkscape:window-width="1392"
     inkscape:window-height="942"
     inkscape:window-x="0"
     inkscape:window-y="25"
     inkscape:window-maximized="0"
     inkscape:current-layer="svg1" />
  <defs
     id="defs1" />
  <path
     style="font-size:341.333px;font-family:'Khmer OS Content';-inkscape-font-specification:'Khmer OS Content';text-align:center;text-anchor:middle;stroke:#000000;stroke-width:0"
     d="m 202.94887,341.97116 q -16.66666,0 -25.16665,-7.99999 -8.33332,-8.16666 -8.33332,-24.33331 0,-8.33332 6.16666,-12.49999 6.33333,-4.16666 22.16664,-4.16666 v 13.33332 q 0,6 3.83333,9.66666 3.66667,3.83333 11.16666,3.83333 h 1.66666 q 1.5,0 1.66667,-0.16667 l 61.66661,-6.66666 v -36.66663 h 24.99997 v 36.66663 q 16.66665,0 24.99998,8.66666 8.33333,8.83332 8.33333,21.33331 0,12.49999 -7.33333,18.66665 -7.16666,6.33333 -21.83331,6.33333 -14.66666,0 -21.83332,-8.33333 -7.33332,-8.33332 -7.33332,-24.99997 l -64.99994,6.66666 h -0.5 q -2.5,0.16666 -4.83333,0.33333 -2.33333,0.33333 -4.49999,0.33333 z m 113.16655,1 q 0,-8.33332 -13.33332,-8.33332 0,13.33332 6.5,13.33332 h 0.16666 q 6.66666,0 6.66666,-5 z"
     id="text1"
     inkscape:label="text1"
     aria-label="្ម" />
  <path
     style="fill:#000000;stroke:#000000;stroke-width:0"
     d="m 292.1227,257.57055 -10.99387,76.95706 15.70553,31.41104 34.55214,-4.71166 1.57056,-34.55214 -15.70553,-15.70552 -95.80368,20.41717 -37.69325,-4.71165 -3.1411,-45.54602"
     id="path1" />
</svg>
