<?xml version="1.0" encoding="UTF-8" standalone="no"?>
<!-- Created with Inkscape (http://www.inkscape.org/) -->

<svg
   width="512"
   height="512"
   viewBox="0 0 512 512"
   version="1.1"
   id="svg1"
   inkscape:version="1.3.2 (091e20e, 2023-11-25)"
   sodipodi:docname="យ1.svg"
   xmlns:inkscape="http://www.inkscape.org/namespaces/inkscape"
   xmlns:sodipodi="http://sodipodi.sourceforge.net/DTD/sodipodi-0.dtd"
   xmlns="http://www.w3.org/2000/svg"
   xmlns:svg="http://www.w3.org/2000/svg">
  <sodipodi:namedview
     id="namedview1"
     pagecolor="#ffffff"
     bordercolor="#000000"
     borderopacity="0.25"
     inkscape:showpageshadow="2"
     inkscape:pageopacity="0.0"
     inkscape:pagecheckerboard="0"
     inkscape:deskcolor="#d1d1d1"
     inkscape:document-units="px"
     inkscape:zoom="0.63671875"
     inkscape:cx="254.42945"
     inkscape:cy="380.8589"
     inkscape:window-width="1392"
     inkscape:window-height="942"
     inkscape:window-x="0"
     inkscape:window-y="25"
     inkscape:window-maximized="0"
     inkscape:current-layer="svg1" />
  <defs
     id="defs1" />
  <path
     style="font-size:341.333px;font-family:'Khmer OS Content';-inkscape-font-specification:'Khmer OS Content';text-align:center;text-anchor:middle;stroke:#000000;stroke-width:0"
     d="m 326.33825,387.55604 q 0,41.66662 -67.49994,41.66662 -65.49993,0 -65.49993,-41.66662 v -33.49997 q 0,-16.49998 17.33331,-16.49998 10.66666,0 19.99998,8.99999 9.33333,9.16665 9.33333,17.49998 0,14.99999 -18.66665,14.99999 v 8.49999 q 0,24.99997 37.49996,24.99997 37.49997,0 37.49997,-24.99997 V 160.38959 q 0,-17.66665 -33.3333,-27.99998 3.33333,-16.83331 15.83331,-39.166625 12.66666,-22.333312 21.66665,-22.333312 7.33333,0 19.16665,7.16666 l 11.66665,7.16666 q 5.16667,3.166664 12.16666,3.166664 3.66666,0 7.83333,-0.833333 -1.66667,11.666656 -6.83333,19.166646 -5,7.33333 -13.49999,8.16666 -0.83333,0.16667 -1.66666,0.16667 -8.33333,0 -22.49998,-8.83333 -4.33333,-2.49999 -7.99999,-2.49999 -10.49999,0 -18.16665,19.16664 45.66662,14.66666 45.66662,27.99998 z"
     id="text1"
     inkscape:label="text1"
     aria-label="្យ" />
  <path
     style="fill:#000000;stroke:#000000;stroke-width:0"
     d="m 229.30061,369.07975 h 18.84663 l -1.57055,-28.26993 -39.26381,3.1411 v 69.10429 l 42.40491,7.85277 42.40491,-9.42332 21.98773,-18.84662 -6.28221,-246.57669 -42.40491,-17.27607 26.69939,-42.404912 31.41104,10.993865 56.53988,-6.282208"
     id="path1" />
</svg>
