<?xml version="1.0" encoding="UTF-8" standalone="no"?>
<!-- Created with Inkscape (http://www.inkscape.org/) -->

<svg
   width="512"
   height="512"
   viewBox="0 0 512 512"
   version="1.1"
   id="svg1"
   inkscape:version="1.3.2 (091e20e, 2023-11-25)"
   sodipodi:docname="ឧ.svg"
   xmlns:inkscape="http://www.inkscape.org/namespaces/inkscape"
   xmlns:sodipodi="http://sodipodi.sourceforge.net/DTD/sodipodi-0.dtd"
   xmlns="http://www.w3.org/2000/svg"
   xmlns:svg="http://www.w3.org/2000/svg">
  <sodipodi:namedview
     id="namedview1"
     pagecolor="#ffffff"
     bordercolor="#000000"
     borderopacity="0.25"
     inkscape:showpageshadow="2"
     inkscape:pageopacity="0.0"
     inkscape:pagecheckerboard="0"
     inkscape:deskcolor="#d1d1d1"
     inkscape:document-units="px"
     inkscape:zoom="0.63671875"
     inkscape:cx="254.42945"
     inkscape:cy="380.8589"
     inkscape:window-width="1392"
     inkscape:window-height="942"
     inkscape:window-x="0"
     inkscape:window-y="25"
     inkscape:window-maximized="0"
     inkscape:current-layer="svg1" />
  <defs
     id="defs1" />
  <path
     style="font-size:341.333px;font-family:'Khmer OS Content';-inkscape-font-specification:'Khmer OS Content';text-align:center;text-anchor:middle;stroke:#000000;stroke-width:0"
     d="m 201.49997,210.16671 v 12.49999 q 9.33332,0 9.33332,-8.33333 0,-4.16666 -9.33332,-4.16666 z m 0,120.83322 q 0,16.99998 7.49999,23.49997 7.66666,6.5 27.49998,6.5 19.66664,0 34.49996,-6 14.83332,-5.99999 37.16663,-28.8333 v -45.16663 h 29.99998 v 99.99991 q 0,28.3333 -33.33331,28.3333 -16.66665,0 -16.66665,-16.66665 19.99998,0 19.99998,-11.66665 V 357.4999 q -15.66665,11.49999 -30.3333,17.33332 -15.33332,6.16666 -41.33329,6.16666 -34.3333,0 -48.33329,-10.49999 Q 171.5,358.16657 171.5,330.99993 v -44.49996 q 136.66653,-52.16662 136.66653,-80.49993 v -24.99997 q 0,-29.99997 -53.33328,-29.99997 -53.33328,0 -53.33328,29.99997 v 12.49999 q 13.66665,0 19.83331,5.16666 6.16666,5.33333 6.16666,15.66665 0,24.99998 -27.99997,24.99998 -27.99997,0 -27.99997,-16.66665 v -41.66663 q 0,-49.99995 83.33325,-49.99995 83.33326,0 83.33326,49.99995 v 24.99997 q 0,39.99997 -136.66654,90.33325 z"
     id="text1"
     inkscape:label="text1"
     aria-label="ឧ" />
  <path
     style="fill:#000000;stroke:#000000;stroke-width:0"
     d="m 202.60123,196.31902 18.84662,9.42331 4.71166,17.27607 -18.84663,14.13497 H 180.6135 l 6.28221,-65.96319 21.98773,-25.12883 70.67484,-6.28221 37.69325,15.70552 7.85276,32.9816 -3.1411,31.41104 -51.82822,36.1227 -89.52147,40.83436 3.1411,51.82822 28.26994,20.41717 53.39877,1.57056 26.69939,-15.70552 32.98159,-23.55829 -4.71165,-59.68098 4.71165,119.36196 -48.68711,18.84663"
     id="path1" />
</svg>
