<?xml version="1.0" encoding="UTF-8" standalone="no"?>
<!-- Created with Inkscape (http://www.inkscape.org/) -->

<svg
   width="512"
   height="512"
   viewBox="0 0 512 512"
   version="1.1"
   id="svg1"
   inkscape:version="1.3.2 (091e20e, 2023-11-25)"
   sodipodi:docname="ឹ.svg"
   xmlns:inkscape="http://www.inkscape.org/namespaces/inkscape"
   xmlns:sodipodi="http://sodipodi.sourceforge.net/DTD/sodipodi-0.dtd"
   xmlns="http://www.w3.org/2000/svg"
   xmlns:svg="http://www.w3.org/2000/svg">
  <sodipodi:namedview
     id="namedview1"
     pagecolor="#ffffff"
     bordercolor="#000000"
     borderopacity="0.25"
     inkscape:showpageshadow="2"
     inkscape:pageopacity="0.0"
     inkscape:pagecheckerboard="0"
     inkscape:deskcolor="#d1d1d1"
     inkscape:document-units="px"
     inkscape:zoom="0.63671875"
     inkscape:cx="254.42945"
     inkscape:cy="380.8589"
     inkscape:window-width="1392"
     inkscape:window-height="942"
     inkscape:window-x="0"
     inkscape:window-y="25"
     inkscape:window-maximized="0"
     inkscape:current-layer="svg1" />
  <defs
     id="defs1" />
  <path
     style="font-size:341.333px;font-family:'Khmer OS Content';-inkscape-font-specification:'Khmer OS Content';text-align:center;text-anchor:middle;stroke:#000000;stroke-width:0"
     d="m 204.35273,196.86932 q 0,8.33332 8.33332,8.33332 h 86.66658 q -23.99997,-14.16665 -40.16662,-19.49998 -16.33332,-5.49999 -33.16664,-5.49999 -21.66664,0 -21.66664,16.66665 z m 58.99994,-32.49997 v -0.66667 q 1.83333,-12.49999 9.99999,-18.83331 8.33332,-6.33333 22.66664,-6.33333 16.66666,0 24.99998,8.33332 8.33333,8.33333 8.33333,24.99998 0,19.16665 -10.99999,27.33331 l -0.33334,0.33333 q 11.33333,9.49999 11.33333,13.99999 0,8.33332 -16.66665,8.33332 h -99.99991 q -33.3333,0 -33.3333,-24.99997 0,-41.66663 46.66662,-41.66663 17.99998,0 37.3333,9.16666 z m 19.49998,10.66665 q 4,2.5 8.16666,5.16667 4,2.49999 7.49999,4.99999 10.83332,-1.33333 10.83332,-13.33332 0,-13.33332 -13.33332,-13.33332 -13.33332,0 -13.33332,13.33332 0,1 0.16667,3.16666 z"
     id="text1"
     inkscape:label="text1"
     aria-label="ឹ" />
  <path
     style="fill:#000000;stroke:#000000;stroke-width:0"
     d="m 314.11043,224.58896 h -111.5092 l -15.70552,-26.69939 12.56441,-29.84049 31.41105,-3.1411 87.95092,47.11656 -69.1043,-26.69939 25.12884,-29.84049 26.69938,-15.70552 26.69939,26.69939 -14.13497,23.55828 -50.25767,42.40491"
     id="path1" />
</svg>
