<?xml version="1.0" encoding="UTF-8" standalone="no"?>
<!-- Created with Inkscape (http://www.inkscape.org/) -->

<svg
   width="512"
   height="512"
   viewBox="0 0 512 512"
   version="1.1"
   id="svg1"
   inkscape:version="1.3.2 (091e20e, 2023-11-25)"
   sodipodi:docname="ួ.svg"
   xmlns:inkscape="http://www.inkscape.org/namespaces/inkscape"
   xmlns:sodipodi="http://sodipodi.sourceforge.net/DTD/sodipodi-0.dtd"
   xmlns="http://www.w3.org/2000/svg"
   xmlns:svg="http://www.w3.org/2000/svg">
  <sodipodi:namedview
     id="namedview1"
     pagecolor="#ffffff"
     bordercolor="#000000"
     borderopacity="0.25"
     inkscape:showpageshadow="2"
     inkscape:pageopacity="0.0"
     inkscape:pagecheckerboard="0"
     inkscape:deskcolor="#d1d1d1"
     inkscape:document-units="px"
     inkscape:zoom="0.63671875"
     inkscape:cx="254.42945"
     inkscape:cy="380.8589"
     inkscape:window-width="1392"
     inkscape:window-height="942"
     inkscape:window-x="0"
     inkscape:window-y="25"
     inkscape:window-maximized="0"
     inkscape:current-layer="svg1" />
  <defs
     id="defs1" />
  <path
     style="font-size:341.333px;font-family:'Khmer OS Content';-inkscape-font-specification:'Khmer OS Content';text-align:center;text-anchor:middle;stroke:#000000;stroke-width:0"
     d="m 251.04384,362.70225 q -15.33332,19.83331 -29.49997,19.83331 -24.33331,0 -24.33331,-20.33331 0,-11.83332 9.66666,-30.33331 l 10.33332,-18.99998 q -13.99999,0 -13.99999,-15.33332 0,-15.16665 19.99998,-15.16665 16.66666,0 21.66665,10.16666 1.66667,3.66666 1.66667,8.16666 0,8.49999 -6,20.49998 l -9.99999,18.66665 q -6.33333,12.33332 -6.33333,17.83331 0,4.33333 4,4.33333 8.66666,0 32.16664,-29.66664 3.49999,29.66664 9.49999,29.66664 5.49999,0 9.49999,-18.99998 12.49999,-60.66661 18.99998,-60.66661 6.49999,0 6.49999,14.83332 0,15.16665 -2.83333,46.16662 -6.16666,39.16663 -25.49997,39.16663 -18.83332,0 -25.49998,-19.83331 z"
     id="text1"
     inkscape:label="text1"
     aria-label="ួ" />
  <path
     style="fill:#000000;stroke:#000000;stroke-width:0"
     d="m 205.74233,307.82822 -6.28221,-21.98773 36.1227,9.42331 -18.84662,40.83436 -10.99387,39.2638 21.98773,-4.71165 L 256,351.80368 l 9.42331,18.84663 h 20.41718 l 32.9816,-120.93252"
     id="path1" />
</svg>
