<?xml version="1.0" encoding="UTF-8" standalone="no"?>
<!-- Created with Inkscape (http://www.inkscape.org/) -->

<svg
   width="512"
   height="512"
   viewBox="0 0 512 512"
   version="1.1"
   id="svg1"
   xmlns="http://www.w3.org/2000/svg"
   xmlns:svg="http://www.w3.org/2000/svg">
  <defs
     id="defs1" />
  <path
     style="font-size:341.333px;font-family:'Khmer OS Content';-inkscape-font-specification:'Khmer OS Content';text-align:center;text-anchor:middle;stroke:#000000;stroke-width:0"
     d="m 342.33317,231.00002 q 0,72.49993 -29.66664,111.16656 -29.8333,38.8333 -86.99992,38.8333 -16.66665,0 -16.66665,-11.99999 0,-11.99999 16.66665,-11.99999 48.16662,0 67.33327,-31.8333 19.33332,-31.99997 19.33332,-94.16658 0,-45.49996 -17.66665,-60.66661 -17.49999,-15.33332 -42.99996,-15.33332 -25.66664,0 -39.99996,14.49999 -14.33332,14.33332 -14.33332,39.83329 0,20.83332 8.66666,31.33331 Q 214.83329,251 230.99994,251 q 11.83332,0 16.49999,-11.66665 -13.49999,-2.33333 -13.49999,-14.99999 0,-21.66665 20.83331,-21.66665 20.83332,0 20.83332,21.66665 0,22.83331 -11.49999,35.8333 -11.66666,13.16665 -33.16664,13.16665 -30.16664,0 -46.83329,-18.16665 -16.83331,-17.99998 -16.83331,-45.83329 0,-32.49996 21.49997,-55.49994 21.49998,-22.83331 62.83328,-22.83331 41.16663,0 65.99994,23.66664 24.66664,23.83331 24.66664,76.33326 z"
     id="text1"
     aria-label="១" />
  <path
     style="fill:#000000;stroke:#000000;stroke-width:0"
     d="m 245.00613,226.15951 -3.1411,-14.13497 h 17.27607 l 6.28221,10.99386 -10.99386,28.26994 -39.26381,7.85276 -34.55214,-42.4049 9.42331,-45.54602 42.40491,-29.84049 51.82822,9.42332 37.69325,25.12883 3.1411,106.79755 -28.26993,67.53374 -43.97546,21.98773 -54.96933,-3.14111 h -1.57055"
     id="path1" />
</svg>
