<?xml version="1.0" encoding="UTF-8" standalone="no"?>
<!-- Created with Inkscape (http://www.inkscape.org/) -->

<svg
   width="512"
   height="512"
   viewBox="0 0 512 512"
   version="1.1"
   id="svg1"
   xmlns="http://www.w3.org/2000/svg"
   xmlns:svg="http://www.w3.org/2000/svg">
  <defs
     id="defs1" />
  <path
     style="font-size:341.333px;font-family:'Khmer OS Content';-inkscape-font-specification:'Khmer OS Content';text-align:center;text-anchor:middle;stroke:#000000;stroke-width:0"
     d="m 175.66666,351.83324 v 12.49999 q 7.99999,0 7.99999,-8.33333 0,-2 -2.16666,-3.16666 -2,-1 -5.83333,-1 z M 240.6666,189.33339 q 0,-35.99996 -32.49997,-35.99996 -32.49997,0 -32.49997,35.99996 v 145.8332 q 12.33332,0 18.49998,5.16666 6.16666,5.33333 6.16666,15.66665 0,24.99998 -24.66664,24.99998 -29.99997,0 -29.99997,-16.66665 V 189.33339 q 0,-58.33327 62.49994,-58.33327 32.8333,0 48.49995,14.49998 15.66666,-14.49998 45.16663,-14.49998 62.1666,0 62.1666,58.33327 v 174.99984 q 0,16.66665 -14.99998,16.66665 -14.99999,0 -14.99999,-16.66665 V 189.33339 q 0,-35.99996 -32.16663,-35.99996 -31.16664,0 -31.16664,35.99996 v 174.99984 q 0,16.66665 -14.99999,16.66665 -14.99998,0 -14.99998,-16.66665 z"
     id="text1"
     aria-label="៣" />
  <path
     style="fill:#000000;stroke:#000000;stroke-width:0"
     d="m 174.33129,337.66871 17.27607,4.71166 7.85276,15.70552 -9.42331,14.13497 -18.84663,1.57055 -12.56441,-9.42331 4.71165,-201.03068 29.84049,-21.98773 40.83436,1.57056 L 256,169.61963 254.42945,391.06748 256,171.19018 l 31.41104,-32.98159 43.97546,4.71166 20.41718,37.69325 -1.57055,215.16564"
     id="path1" />
</svg>
