<?xml version="1.0" encoding="UTF-8" standalone="no"?>
<!-- Created with Inkscape (http://www.inkscape.org/) -->

<svg
   width="512"
   height="512"
   viewBox="0 0 512 512"
   version="1.1"
   id="svg1"
   xmlns="http://www.w3.org/2000/svg"
   xmlns:svg="http://www.w3.org/2000/svg">
  <defs
     id="defs1" />
  <path
     style="font-size:341.333px;font-family:'Khmer OS Content';-inkscape-font-specification:'Khmer OS Content';text-align:center;text-anchor:middle;stroke:#000000;stroke-width:0"
     d="m 178.16666,343.99991 q 16.33332,-14.99998 16.33332,-27.8333 0,-6.66666 -4.5,-9.83333 -4.5,-2.99999 -11.83332,-2.99999 z m 128.33321,3.66667 q 0,9.33332 12.49999,9.33332 12.49999,0 12.49999,-9.33332 V 139.33344 q 0,-19.33331 -24.99998,-19.33331 0,-22.333315 21.66665,-22.333315 33.3333,0 33.3333,41.666625 v 208.33314 q 0,33.3333 -42.49996,33.3333 -42.49996,0 -42.49996,-33.3333 V 181.00007 q 0,-10.66666 -12.99999,-19.49998 -3.16666,-2 -6.83333,-2 -11.66665,0 -29.16664,21.66665 -17.49998,-21.66665 -29.3333,-21.66665 -3.66666,0 -6.83333,2 -13.16665,8.83332 -13.16665,19.49998 v 99.9999 q 24.16664,0 31.49997,9.83333 7.16666,9.99999 7.16666,20.99998 0,12.99998 -6.66666,27.49997 -6.66666,14.66665 -19.33332,28.16664 -12.66665,13.49999 -21.99998,13.49999 -20.66664,0 -20.66664,-16.66665 V 181.00007 q 0,-20.33332 19.33331,-35.16663 19.33332,-14.83332 29.83331,-14.83332 8.66666,0 30.16663,22.33331 21.33332,-22.33331 30.16664,-22.33331 10.33333,0 29.49997,14.83332 19.33332,14.83331 19.33332,35.16663 z"
     id="text1"
     aria-label="៧" />
  <path
     style="fill:#000000;stroke:#000000;stroke-width:0"
     d="m 160.9816,293.69325 29.84049,-1.57055 16.49079,20.41718 -8.63803,29.05521 -35.33743,29.84049 -3.1411,-193.17791 18.84662,-25.91411 18.06135,-10.99387 28.26994,22.77301 34.55215,-18.84663 29.84049,18.84663 4.71166,39.2638 1.57055,158.62577 14.13497,7.06748 26.69939,-3.92638 9.42331,-12.56441 1.57055,-202.60123 -4.71166,-35.33742 -51.04294,-21.987733"
     id="path1" />
</svg>
