<?xml version="1.0" encoding="UTF-8" standalone="no"?>
<!-- Created with Inkscape (http://www.inkscape.org/) -->

<svg
   width="512"
   height="512"
   viewBox="0 0 512 512"
   version="1.1"
   id="svg1"
   xmlns="http://www.w3.org/2000/svg"
   xmlns:svg="http://www.w3.org/2000/svg">
  <defs
     id="defs1" />
  <path
     id="text1"
     style="-inkscape-font-specification:'Khmer OS Content';stroke:#000000;stroke-width:0"
     d="M 307.66602 89.333984 C 293.22161 89.333984 286 96.777168 286 111.66602 C 303.5555 111.66602 312.33398 118.11114 312.33398 131 L 312.33398 153.5 C 297.0007 138.50004 280.83394 131 263.83398 131 C 243.05628 131 227.72284 135.22159 217.83398 143.66602 C 206.38958 153.33266 200.66602 168.55628 200.66602 189.33398 C 200.66602 207.8895 206.11115 221.99938 217 231.66602 C 200.4445 237.55488 187.99932 246.7216 179.66602 259.16602 C 171.44381 271.4993 167.33398 287.11117 167.33398 306 C 167.33398 331.44436 174.77717 350.66605 189.66602 363.66602 C 202.77708 375.22153 223.11054 381 250.66602 381 C 273.66594 381 293.33273 376.99998 309.66602 369 C 325.88819 361.00002 334 351.16663 334 339.5 C 334 327.94447 331.61175 320.27777 326.83398 316.5 C 322.05623 312.83334 316.99933 310.88824 311.66602 310.66602 L 310.16602 310.66602 C 305.16603 310.66602 299.99933 311.72288 294.66602 313.83398 C 288.99936 316.0562 284.83267 319.99936 282.16602 325.66602 C 281.27713 327.55489 280.83398 329.66668 280.83398 332 C 280.83398 336.88888 282.66734 342.83401 286.33398 349.83398 C 274.33403 354.61175 262.44375 357 250.66602 357 C 233.44384 357 220.22219 352.88821 211 344.66602 C 201.88892 336.3327 197.33398 323.44439 197.33398 306 C 197.33398 286.55561 203.66736 272.00062 216.33398 262.33398 C 229.11173 252.55624 247.77851 247.66602 272.33398 247.66602 C 293.44503 247.66602 310.38827 253.83272 323.16602 266.16602 C 330.16599 273.05489 335.27778 276.5 338.5 276.5 C 341.05555 276.5 342.33398 274.22155 342.33398 269.66602 C 342.33398 259.66605 339.2222 251.94442 333 246.5 C 314.11117 231.27782 293.88948 223.66602 272.33398 223.66602 C 258.88958 223.66602 248.5562 220.72286 241.33398 214.83398 C 234.2229 208.94511 230.66602 200.16663 230.66602 188.5 C 230.66602 175.61115 233.7778 166.5562 240 161.33398 C 246.2222 156.00067 254.16735 153.33398 263.83398 153.33398 C 279.27839 153.33398 295.00005 165.33407 311 189.33398 C 313.44444 194.88953 318.66603 197.66602 326.66602 197.66602 C 337.11043 197.66602 342.33398 192.11108 342.33398 181 L 342.33398 131 C 342.33398 103.2223 330.77706 89.333984 307.66602 89.333984 z M 308.5 328.66602 C 310.6111 328.66602 312.49935 329.99935 314.16602 332.66602 L 301.33398 341.5 C 300.88954 339.16667 300.66602 337.27843 300.66602 335.83398 C 300.66602 334.50067 300.83268 333.50065 301.16602 332.83398 C 301.83267 331.38955 303.44445 330.166 306 329.16602 C 306.88889 328.83268 307.72222 328.66602 308.5 328.66602 z " />
  <path
     style="fill:#000000;stroke:#000000;stroke-width:0"
     d="m 296.51634,348.7121 -7.77384,-22.21097 14.43712,-8.88438 16.65823,4.44219 3.33164,23.32151 -48.86412,23.32151 h -54.41685 l -35.53754,-36.64809 -1.11055,-46.64302 31.09535,-33.31644 32.20589,-16.65822 37.75864,-3.33164 27.7637,9.99493 38.86918,28.87425 -42.20083,-29.9848 -73.29617,-9.99493 -18.87932,-21.10041 v -21.10042 l 2.2211,-29.9848 28.87425,-14.43712 22.21096,-4.44219 24.43206,6.66329 32.20589,38.86918 4.4422,-21.10042 -4.4422,-51.08521 -4.44219,-11.10548 -65.52233,-12.216026"
     id="path1" />
</svg>
