<?xml version="1.0" encoding="UTF-8" standalone="no"?>
<!-- Created with Inkscape (http://www.inkscape.org/) -->

<svg
   width="512"
   height="512"
   viewBox="0 0 512 512"
   version="1.1"
   id="svg1"
   inkscape:version="1.3.2 (091e20e, 2023-11-25)"
   sodipodi:docname="kor_template.svg"
   xmlns:inkscape="http://www.inkscape.org/namespaces/inkscape"
   xmlns:sodipodi="http://sodipodi.sourceforge.net/DTD/sodipodi-0.dtd"
   xmlns="http://www.w3.org/2000/svg"
   xmlns:svg="http://www.w3.org/2000/svg">
  <sodipodi:namedview
     id="namedview1"
     pagecolor="#ffffff"
     bordercolor="#000000"
     borderopacity="0.25"
     inkscape:showpageshadow="2"
     inkscape:pageopacity="0.0"
     inkscape:pagecheckerboard="0"
     inkscape:deskcolor="#d1d1d1"
     inkscape:document-units="px"
     inkscape:zoom="0.84179688"
     inkscape:cx="256"
     inkscape:cy="227.48956"
     inkscape:window-width="1920"
     inkscape:window-height="942"
     inkscape:window-x="0"
     inkscape:window-y="25"
     inkscape:window-maximized="1"
     inkscape:current-layer="svg1"
     showguides="true">
    <sodipodi:guide
       position="104.53828,380.13921"
       orientation="0,-1"
       id="guide2"
       inkscape:locked="false" />
    <sodipodi:guide
       position="89.095128,147.30394"
       orientation="0,-1"
       id="guide3"
       inkscape:locked="false" />
  </sodipodi:namedview>
  <defs
     id="defs1" />
  <path
     style="font-size:341.333px;font-family:'Noto Serif Khmer';-inkscape-font-specification:'Noto Serif Khmer';stroke:#696969"
     d="m 196.2785,195.05354 -6.82666,5.46133 q -13.31198,-14.67732 -17.06665,-20.47998 -3.41333,-6.144 -3.41333,-9.21599 0,-2.048 1.024,-5.12 1.36533,-3.072 5.12,-7.50932 3.75466,-4.77867 11.60532,-11.60533 9.21599,-8.19199 14.67732,-11.60532 5.80266,-3.41333 10.23999,-3.41333 4.77866,0 8.53332,3.41333 4.096,3.41333 13.31199,12.62932 7.16799,7.168 11.60532,11.26399 4.43733,4.096 6.82666,4.096 1.70667,0 6.144,-2.38933 4.77866,-2.73067 12.28799,-8.87466 8.53332,-7.168 15.01865,-13.65332 6.82666,-6.48533 11.26399,-6.48533 2.73066,0 6.48532,2.73066 3.75467,2.73067 8.192,8.192 l 12.97065,15.70132 q 4.77866,5.46132 8.53333,8.53332 3.75466,3.072 8.53332,3.072 0,2.73066 -0.68266,5.11999 -0.68267,2.048 -2.048,3.072 -1.024,1.024 -2.73067,1.024 -4.09599,0 -10.23999,-5.80266 -5.80266,-5.80266 -11.94665,-13.31199 -5.80266,-7.85066 -10.58133,-13.65332 -4.77866,-5.80266 -6.82666,-5.80266 -2.38933,0 -7.85065,6.48533 -5.46133,6.14399 -16.04266,14.67732 -4.09599,3.41333 -9.55732,6.82666 -5.46133,3.41333 -11.26399,3.41333 -4.096,0 -8.87466,-3.072 -4.77866,-3.41333 -14.67732,-13.99465 -5.46132,-5.80267 -9.55732,-9.89866 -4.096,-4.43733 -6.82666,-4.43733 -2.38933,0 -7.16799,3.072 -4.77867,3.07199 -12.62933,9.89865 -7.50932,6.48533 -10.58132,10.23999 -3.072,3.75467 -3.072,6.82666 0,2.73067 3.41333,7.50933 3.41333,4.43733 14.67732,17.06665 z"
     id="path1"
     inkscape:label="hair" />
  <path
     style="font-size:341.333px;font-family:'Noto Serif Khmer';-inkscape-font-specification:'Noto Serif Khmer';stroke:#696969"
     d="m 318.47572,256.83481 v 107.86123 h -8.87466 V 255.12815 q 0,-10.23999 -7.50932,-18.77332 -7.168,-8.87465 -19.79732,-13.99465 -12.62932,-5.46133 -28.33064,-5.46133 -15.70132,0 -28.33064,5.46133 -12.62932,5.12 -20.13865,13.99465 -7.50932,8.53333 -7.50932,18.77332 v 109.56789 h -8.87466 V 256.83481 q 0,-14.33598 8.87466,-25.25864 8.87466,-10.92265 23.55198,-17.06665 14.67732,-6.48533 32.42663,-6.48533 17.74932,0 32.42664,6.48533 14.67732,6.144 23.21064,17.40798 8.87466,10.92266 8.87466,24.91731 z"
     id="text1"
     inkscape:label="body" />
  <path
     style="fill:#000000;stroke:#696969"
     d="m 192.44548,359.94432 1.18793,-111.6659 17.81903,-23.7587 36.82598,-8.31554 h 33.26218 l 22.57077,16.63109 10.69141,14.25522 -1.18793,117.60557 v 0"
     id="path2"
     inkscape:label="bodyAnim" />
</svg>
