<!--
AnimCJK 2016-2022 Copyright FM&SH - https://github.com/parsimonhi/animCJK
Derived from:
    MakeMeAHanzi project - https://github.com/skishore/makemeahanzi
    Arphic PL KaitiM GB font
    Arphic PL UKai font
You can redistribute and/or modify this file under the terms of the Arphic Public License
as published by Arphic Technology Co., Ltd.
You should have received a copy of this license along with this file.
If not, see http://ftp.gnu.org/non-gnu/chinese-fonts-truetype/LICENSE.
-->
<svg id="z11910" class="acjk" version="1.1" viewBox="0 0 1024 1024" xmlns="http://www.w3.org/2000/svg" xmlns:xlink="http://www.w3.org/1999/xlink">
<style>
<![CDATA[
@keyframes zk {
	to {
		stroke-dashoffset:0;
	}
}
svg.acjk path[clip-path] {
	--t:1.5s;
	animation:zk var(--t) linear forwards var(--d);
	stroke-dasharray:var(--length);
	stroke-dashoffset:var(--length);
	stroke-width:30;
	stroke-linecap:round;
	fill:none;
	stroke:#000;
}
svg.acjk path[id] {fill:#ccc;}
]]>
</style>
  <path
     style="font-size:341.333px;font-family:'Noto Serif Khmer';-inkscape-font-specification:'Noto Serif Khmer';display:inline;stroke:#aeaeae;stroke-opacity:1"
     d="m 197.46643,196.24147 -6.82666,5.46133 q -13.31199,-14.67732 -17.06665,-20.47999 -3.41333,-6.14399 -3.41333,-9.21599 0,-2.04799 1.024,-5.11999 1.36533,-3.072 5.11999,-7.50933 3.75467,-4.77866 11.60533,-11.60532 9.21599,-8.19199 14.67732,-11.60532 5.80266,-3.41333 10.23999,-3.41333 4.77866,0 8.53332,3.41333 4.096,3.41333 13.31199,12.62932 7.16799,7.16799 11.60532,11.26399 4.43733,4.09599 6.82666,4.09599 1.70667,0 6.144,-2.38933 4.77866,-2.73066 12.28798,-8.87465 8.53333,-7.168 15.01866,-13.65333 6.82666,-6.48532 11.26398,-6.48532 2.73067,0 6.48533,2.73066 3.75467,2.73067 8.19199,8.19199 l 12.97066,15.70132 q 4.77866,5.46133 8.53332,8.53333 3.75467,3.07199 8.53333,3.07199 0,2.73067 -0.68267,5.12 -0.68266,2.048 -2.048,3.072 -1.02399,1.024 -2.73066,1.024 -4.096,0 -10.23999,-5.80267 -5.80266,-5.80266 -11.94665,-13.31198 -5.80267,-7.85066 -10.58133,-13.65332 -4.77866,-5.80266 -6.82666,-5.80266 -2.38933,0 -7.85066,6.48532 -5.46133,6.144 -16.04265,14.67732 -4.09599,3.41333 -9.55732,6.82666 -5.46133,3.41333 -11.26399,3.41333 -4.096,0 -8.87466,-3.07199 -4.77866,-3.41333 -14.67732,-13.99466 -5.46133,-5.80266 -9.55732,-9.89865 -4.096,-4.43733 -6.82666,-4.43733 -2.38934,0 -7.168,3.07199 -4.77866,3.072 -12.62932,9.89866 -7.50932,6.48533 -10.58132,10.23999 -3.072,3.75466 -3.072,6.82666 0,2.73066 3.41333,7.50933 3.41333,4.43733 14.67732,17.06665 z"
     id="z11910d1" />
  <path
     style="font-size:341.333px;font-family:'Noto Serif Khmer';-inkscape-font-specification:'Noto Serif Khmer';stroke:#696969"
     d="m 319.66365,258.02274 v 107.86123 h -8.87466 V 256.31608 q 0,-10.23999 -7.50933,-18.77332 -7.16799,-8.87466 -19.79731,-13.99465 -12.62932,-5.46133 -28.33064,-5.46133 -15.70132,0 -28.33064,5.46133 -12.62932,5.11999 -20.13865,13.99465 -7.50932,8.53333 -7.50932,18.77332 v 109.56789 h -8.87466 V 258.02274 q 0,-14.33598 8.87466,-25.25864 8.87465,-10.92266 23.55197,-17.06665 14.67732,-6.48533 32.42664,-6.48533 17.74932,0 32.42663,6.48533 14.67732,6.14399 23.21065,17.40798 8.87466,10.92266 8.87466,24.91731 z"
     id="z11910d2" />
<defs>
	<clipPath id="z11910c1"><use xlink:href="#z11910d1"/></clipPath>
	<clipPath id="z11910c2"><use xlink:href="#z11910d2"/></clipPath>
</defs>
<path style="--d:1s;--length:288" clip-path="url(#z11910c1)" d="m 192.44548,197.19722 -20.1949,-26.13457 33.26218,-32.07425 10.69142,-4.75174 35.63805,34.45011 46.32946,-32.07424 38.01392,39.20186 h 8.31555 l -23.7587,15.44315"/>
<path style="--d:0s;--length:600" clip-path="url(#z11910c2)" d="m 319.66365,258.02274 v 107.86123 h -8.87466 V 256.31608 q 0,-10.23999 -7.50933,-18.77332 -7.16799,-8.87466 -19.79731,-13.99465 -12.62932,-5.46133 -28.33064,-5.46133 -15.70132,0 -28.33064,5.46133 -12.62932,5.11999 -20.13865,13.99465 -7.50932,8.53333 -7.50932,18.77332 v 109.56789 h -8.87466 V 258.02274 q 0,-14.33598 8.87466,-25.25864 8.87465,-10.92266 23.55197,-17.06665 14.67732,-6.48533 32.42664,-6.48533 17.74932,0 32.42663,6.48533 14.67732,6.14399 23.21065,17.40798 8.87466,10.92266 8.87466,24.91731 z"/>
</svg>