<?xml version="1.0" encoding="UTF-8"?><svg id="Objects" xmlns="http://www.w3.org/2000/svg" xmlns:xlink="http://www.w3.org/1999/xlink" viewBox="0 0 246.76 34.76"><defs><linearGradient id="linear-gradient" x1="123.38" y1="42.45" x2="123.38" y2="18.17" gradientUnits="userSpaceOnUse"><stop offset="0" stop-color="#06290e"/><stop offset="1" stop-color="#29c43f"/></linearGradient><linearGradient id="linear-gradient-2" x1="123.38" y1="22.93" x2="123.38" y2="8.72" gradientUnits="userSpaceOnUse"><stop offset="0" stop-color="#21cf46"/><stop offset="1" stop-color="#67ff7d"/></linearGradient></defs><path d="m222.12,24.36H24.64c-3.55,0-6.43-2.88-6.43-6.43h0c0-3.55,2.88-6.43,6.43-6.43h197.47c3.55,0,6.43,2.88,6.43,6.43h0c0,3.55-2.88,6.43-6.43,6.43Z" style="fill:#282844;"/><path d="m222.12,24.36H24.64c-3.55,0-6.43-2.88-6.43-6.43h0c0-3.55,2.88-6.43,6.43-6.43h197.47c3.55,0,6.43,2.88,6.43,6.43h0c0,3.55-2.88,6.43-6.43,6.43Z" style="fill:url(#linear-gradient);"/><path d="m222.86,22.87H23.89c-3.14,0-5.68-2.54-5.68-5.68h0c0-3.14,2.54-5.68,5.68-5.68h198.97c3.14,0,5.68,2.54,5.68,5.68h0c0,3.14-2.54,5.68-5.68,5.68Z" style="fill:url(#linear-gradient-2);"/></svg>