<?xml version="1.0" encoding="UTF-8"?><svg id="Objects" xmlns="http://www.w3.org/2000/svg" xmlns:xlink="http://www.w3.org/1999/xlink" viewBox="0 0 160.24 217.52"><defs><linearGradient id="linear-gradient" x1="77.65" y1="174.63" x2="77.65" y2="-19.98" gradientUnits="userSpaceOnUse"><stop offset="0" stop-color="#43466e"/><stop offset="1" stop-color="#585e81"/></linearGradient><linearGradient id="linear-gradient-2" x1="77.65" y1="44.96" x2="77.65" y2="-21.78" gradientUnits="userSpaceOnUse"><stop offset="0" stop-color="#b2f1e8"/><stop offset="1" stop-color="#f7ffec"/></linearGradient><linearGradient id="linear-gradient-3" x1="77.83" y1="41.62" x2="77.83" y2="-18.95" gradientUnits="userSpaceOnUse"><stop offset="0" stop-color="#7dc9e1"/><stop offset="1" stop-color="#f7ffec"/></linearGradient><linearGradient id="linear-gradient-4" x1="-1035.51" y1="1181.38" x2="-966.92" y2="1181.38" gradientTransform="translate(-1053.35 -819.31) rotate(-90)" xlink:href="#linear-gradient"/><linearGradient id="linear-gradient-5" x1="128.03" y1="211.07" x2="128.03" y2="146.28" gradientUnits="userSpaceOnUse"><stop offset="0" stop-color="#bdf8c7"/><stop offset="1" stop-color="#d9ffde"/></linearGradient><linearGradient id="linear-gradient-6" x1="128.03" y1="208.96" x2="128.03" y2="148.87" gradientUnits="userSpaceOnUse"><stop offset="0" stop-color="#21cf46"/><stop offset="1" stop-color="#67ff7d"/></linearGradient></defs><rect x="1.28" y="17.58" width="152.74" height="176.98" rx="19.68" ry="19.68" style="fill:#464866; stroke:#464866; stroke-miterlimit:10; stroke-width:1.08px;"/><rect x="1.28" y="13.33" width="152.74" height="176.98" rx="19.68" ry="19.68" style="fill:url(#linear-gradient); stroke:#6e78b3; stroke-miterlimit:10; stroke-width:2.55px;"/><path d="m21.29,8.93l5.06,15.76c.91,2.83,3.54,4.75,6.51,4.75h89.57c2.97,0,5.6-1.92,6.51-4.75l5.06-15.76c1.42-4.41-1.88-8.93-6.51-8.93H27.8c-4.64,0-7.93,4.51-6.51,8.93Z" style="fill:url(#linear-gradient-2);"/><path d="m26.9,18.02l1.67,5.21c.82,2.57,3.21,4.31,5.91,4.31h86.7c2.7,0,5.09-1.74,5.91-4.31l1.67-5.21H26.9Z" style="fill:url(#linear-gradient-3);"/><path d="m97.14,169.2v25.41c0,3.17,1.69,6.11,4.44,7.69l22.01,12.71c2.75,1.59,6.13,1.59,8.88,0l22.01-12.71c2.75-1.59,4.44-4.52,4.44-7.69v-25.41c0-3.17-1.69-6.11-4.44-7.69l-22.01-12.71c-2.75-1.59-6.13-1.59-8.88,0l-22.01,12.71c-2.75,1.59-4.44,4.52-4.44,7.69Z" style="fill:url(#linear-gradient-4); stroke:#6e78b3; stroke-miterlimit:10; stroke-width:2.65px;"/><path d="m128.03,209.78c-1.53,0-3.04-.4-4.36-1.17l-16.59-9.58c-2.69-1.55-4.36-4.45-4.36-7.55v-19.16c0-3.11,1.67-6,4.36-7.55l16.59-9.58c1.32-.76,2.83-1.17,4.36-1.17s3.04.4,4.36,1.17l16.59,9.58c2.69,1.55,4.36,4.45,4.36,7.55v19.16c0,3.11-1.67,6-4.36,7.55l-16.59,9.58c-1.32.76-2.83,1.17-4.36,1.17Z" style="fill:url(#linear-gradient-5);"/><path d="m104.74,172.33v19.16c0,2.39,1.28,4.6,3.35,5.8l16.59,9.58c2.07,1.2,4.62,1.2,6.7,0l16.59-9.58c2.07-1.2,3.35-3.41,3.35-5.8v-19.16c0-2.39-1.28-4.6-3.35-5.8l-16.59-9.58c-2.07-1.2-4.62-1.2-6.7,0l-16.59,9.58c-2.07,1.2-3.35,3.41-3.35,5.8Z" style="fill:url(#linear-gradient-6);"/></svg>