<?xml version="1.0" encoding="UTF-8"?><svg id="Objects" xmlns="http://www.w3.org/2000/svg" xmlns:xlink="http://www.w3.org/1999/xlink" viewBox="0 0 58.74 62.66"><defs><linearGradient id="linear-gradient" x1="29.37" y1="62.76" x2="29.37" y2="-6.79" gradientUnits="userSpaceOnUse"><stop offset="0" stop-color="#2a4ebf"/><stop offset="1" stop-color="#47c8fe"/></linearGradient><linearGradient id="linear-gradient-2" x1="29.37" y1="58.85" x2="29.37" y2="-10.7" gradientUnits="userSpaceOnUse"><stop offset="0" stop-color="#abd5f5"/><stop offset="1" stop-color="#c1ecfe"/></linearGradient><linearGradient id="linear-gradient-3" x1="29.37" y1="56.82" x2="29.37" y2="-7.94" xlink:href="#linear-gradient"/><linearGradient id="linear-gradient-4" x1="20.86" y1="29.37" x2="41.68" y2="29.37" gradientUnits="userSpaceOnUse"><stop offset="0" stop-color="#fff"/><stop offset="1" stop-color="#fff"/></linearGradient></defs><path d="m29.37,62.66c-4.51,0-9.09-.19-13.6-.58-8.12-.69-14.51-7.08-15.2-15.2C-.19,37.87-.19,28.71.57,19.69,1.26,11.57,7.65,5.18,15.77,4.49c4.51-.38,9.09-.58,13.6-.58s9.09.19,13.6.58c8.12.69,14.51,7.08,15.2,15.2.77,9.02.77,18.17,0,27.2-.69,8.12-7.08,14.51-15.2,15.2-4.51.38-9.09.58-13.6.58Z" style="fill:url(#linear-gradient);"/><path d="m29.37,58.75c-4.51,0-9.09-.19-13.6-.58-8.12-.69-14.51-7.08-15.2-15.2C-.19,33.95-.19,24.8.57,15.77,1.26,7.66,7.65,1.27,15.77.58c4.51-.38,9.09-.58,13.6-.58s9.09.19,13.6.58c8.12.69,14.51,7.08,15.2,15.2.77,9.02.77,18.17,0,27.2-.69,8.12-7.08,14.51-15.2,15.2-4.51.38-9.09.58-13.6.58Z" style="fill:url(#linear-gradient-2);"/><path d="m42.8,56.15c-8.95.76-17.9.76-26.86,0-7.09-.6-12.75-6.26-13.35-13.35-.76-8.95-.76-17.9,0-26.86.6-7.09,6.26-12.75,13.35-13.35,8.95-.76,17.9-.76,26.86,0,7.09.6,12.75,6.26,13.35,13.35.76,8.95.76,17.9,0,26.86-.6,7.09-6.26,12.75-13.35,13.35Z" style="fill:url(#linear-gradient-3);"/><path d="m21.64,24.95h3.34l7.74-6.64s.1-.04.15-.02c.05.02.08.07.08.12v7.48c1.53.42,2.66,1.81,2.66,3.48s-1.13,3.06-2.66,3.48v7.48c0,.05-.03.1-.08.12-.05.02-.11.02-.15-.02l-7.74-6.63h-3.34c-.43,0-.78-.35-.78-.78v-7.31c0-.43.35-.78.78-.78h0Zm13.23-.55c-.3-.17-.41-.56-.23-.87.17-.3.56-.41.87-.23,1.09.63,1.97,1.52,2.57,2.57.61,1.05.94,2.26.94,3.51s-.34,2.46-.94,3.51c-.61,1.05-1.48,1.94-2.57,2.57-.3.17-.69.07-.87-.23-.17-.3-.07-.69.23-.87.89-.51,1.61-1.24,2.1-2.11.5-.86.77-1.85.77-2.87s-.27-2.02-.77-2.87c-.5-.86-1.22-1.59-2.1-2.11h0Zm1.33-2.31c-.3-.17-.41-.56-.23-.87.17-.3.56-.41.87-.23,1.5.87,2.71,2.1,3.55,3.54,0,.01.01.03.02.04.82,1.44,1.28,3.09,1.28,4.81s-.46,3.39-1.3,4.84h0s0,0,0,0c-.84,1.45-2.05,2.68-3.55,3.54-.3.17-.69.07-.87-.23-.17-.3-.07-.69.23-.87,1.3-.75,2.35-1.82,3.08-3.08h0c.72-1.25,1.12-2.7,1.12-4.21s-.39-2.93-1.11-4.18c0-.01-.01-.02-.02-.03-.73-1.26-1.78-2.33-3.08-3.08h0Z" style="fill:url(#linear-gradient-4); fill-rule:evenodd;"/></svg>