<?xml version="1.0" encoding="UTF-8"?><svg id="Objects" xmlns="http://www.w3.org/2000/svg" xmlns:xlink="http://www.w3.org/1999/xlink" viewBox="0 0 58.74 62.66"><defs><linearGradient id="linear-gradient" x1="-1245.7" y1="690.82" x2="-1186.83" y2="690.82" gradientTransform="translate(-661.45 -1184.93) rotate(-90)" gradientUnits="userSpaceOnUse"><stop offset="0" stop-color="#43466e"/><stop offset="1" stop-color="#585e81"/></linearGradient><linearGradient id="linear-gradient-2" x1="25.61" y1="43.14" x2="33.09" y2="21.19" gradientUnits="userSpaceOnUse"><stop offset="0" stop-color="#fa6b49"/><stop offset="1" stop-color="#feb749"/></linearGradient><linearGradient id="linear-gradient-3" x1="25.61" y1="42" x2="33.09" y2="20.05" gradientUnits="userSpaceOnUse"><stop offset="0" stop-color="#fde049"/><stop offset="1" stop-color="#fefe49"/></linearGradient><linearGradient id="linear-gradient-4" x1="25.92" y1="41.07" x2="32.72" y2="21.13" xlink:href="#linear-gradient-2"/></defs><path d="m2.69,21.06v20.55c0,3.17,1.69,6.11,4.44,7.69l17.8,10.28c2.75,1.59,6.13,1.59,8.88,0l17.8-10.28c2.75-1.59,4.44-4.52,4.44-7.69v-20.55c0-3.17-1.69-6.11-4.44-7.69L33.81,3.09c-2.75-1.59-6.13-1.59-8.88,0L7.13,13.36c-2.75,1.59-4.44,4.52-4.44,7.69Z" style="fill:url(#linear-gradient); stroke:#6e78b3; stroke-miterlimit:10; stroke-width:2.65px;"/><path d="m9.26,23.59v15.49c0,2.39,1.28,4.6,3.35,5.8l13.42,7.75c2.07,1.2,4.62,1.2,6.7,0l13.42-7.75c2.07-1.2,3.35-3.41,3.35-5.8v-15.49c0-2.39-1.28-4.6-3.35-5.8l-13.42-7.75c-2.07-1.2-4.62-1.2-6.7,0l-13.42,7.75c-2.07,1.2-3.35,3.41-3.35,5.8Z" style="fill:#282844;"/><path d="m20.67,40.54c-.99,0-1.82-.71-1.99-1.68l-1.44-8.64c-.1-.59.06-1.18.44-1.63.39-.46.95-.72,1.55-.72.44,0,.86.14,1.22.42l2.42,1.85,4.88-6.59c.38-.52.97-.82,1.62-.82s1.23.3,1.62.82l4.88,6.59,2.42-1.85c.36-.27.78-.42,1.22-.42.6,0,1.16.26,1.55.72.38.45.54,1.04.44,1.63l-1.44,8.64c-.16.98-1,1.68-1.99,1.68h-17.4Z" style="fill:url(#linear-gradient-2);"/><path d="m20.67,39.4c-.99,0-1.82-.71-1.99-1.68l-1.44-8.64c-.1-.59.06-1.18.44-1.63.39-.46.95-.72,1.55-.72.44,0,.86.14,1.22.42l2.42,1.85,4.88-6.59c.38-.52.97-.82,1.62-.82s1.23.3,1.62.82l4.88,6.59,2.42-1.85c.36-.27.78-.42,1.22-.42.6,0,1.16.26,1.55.72.38.45.54,1.04.44,1.63l-1.44,8.64c-.16.98-1,1.68-1.99,1.68h-17.4Z" style="fill:url(#linear-gradient-3);"/><path d="m35.69,30.28l-5.43-7.33c-.44-.6-1.34-.6-1.78,0l-5.43,7.33-3.15-2.41c-.8-.61-1.93.07-1.76,1.06l1.44,8.64c.09.53.55.93,1.09.93h17.4c.54,0,1-.39,1.09-.93l1.44-8.64c.17-.99-.97-1.67-1.76-1.06l-3.15,2.41Z" style="fill:url(#linear-gradient-4);"/></svg>