<?xml version="1.0" encoding="UTF-8"?><svg id="Objects" xmlns="http://www.w3.org/2000/svg" xmlns:xlink="http://www.w3.org/1999/xlink" viewBox="0 0 65.4 69.39"><defs><linearGradient id="linear-gradient" x1="32.7" y1="66.76" x2="32.7" y2="-5.46" gradientTransform="translate(32.7 -13.54) rotate(45)" gradientUnits="userSpaceOnUse"><stop offset="0" stop-color="#43466e"/><stop offset="1" stop-color="#585e81"/></linearGradient><linearGradient id="linear-gradient-2" x1="33.12" y1="51.58" x2="33.12" y2="18.28" gradientUnits="userSpaceOnUse"><stop offset="0" stop-color="#21cf46"/><stop offset="1" stop-color="#67ff7d"/></linearGradient><linearGradient id="linear-gradient-3" x1="33.12" y1="51.58" x2="33.12" y2="18.28" gradientUnits="userSpaceOnUse"><stop offset="0" stop-color="#189934"/><stop offset="1" stop-color="#67ff7d"/></linearGradient><linearGradient id="linear-gradient-4" x1="33.12" y1="49.98" x2="33.12" y2="16.68" gradientUnits="userSpaceOnUse"><stop offset="0" stop-color="#bdf8c7"/><stop offset="1" stop-color="#d9ffde"/></linearGradient><linearGradient id="linear-gradient-5" x1="33.12" y1="48.94" x2="33.12" y2="17.74" xlink:href="#linear-gradient-2"/></defs><circle cx="32.7" cy="37.43" r="31.42" transform="translate(-16.89 34.08) rotate(-45)" style="fill:#464866; stroke:#464866; stroke-miterlimit:10; stroke-width:1.08px;"/><circle cx="32.7" cy="32.7" r="31.42" transform="translate(-13.54 32.7) rotate(-45)" style="fill:url(#linear-gradient); stroke:#6e78b3; stroke-miterlimit:10; stroke-width:2.55px;"/><path d="m30.18,52.06c-2.71,0-4.92-2.2-4.92-4.91v-4.3h-4.29c-2.71,0-4.92-2.2-4.92-4.91v-5.88c0-2.71,2.21-4.92,4.92-4.92h4.29v-4.29c0-2.71,2.21-4.92,4.92-4.92h5.88c2.71,0,4.92,2.21,4.92,4.92v4.29h4.29c2.71,0,4.91,2.21,4.91,4.92v5.88c0,2.71-2.2,4.91-4.91,4.91h-4.29v4.3c0,2.71-2.21,4.91-4.92,4.91h-5.88Z" style="fill:url(#linear-gradient-2);"/><path d="m30.18,52.06c-2.71,0-4.92-2.2-4.92-4.91v-4.3h-4.29c-2.71,0-4.92-2.2-4.92-4.91v-5.88c0-2.71,2.21-4.92,4.92-4.92h4.29v-4.29c0-2.71,2.21-4.92,4.92-4.92h5.88c2.71,0,4.92,2.21,4.92,4.92v4.29h4.29c2.71,0,4.91,2.21,4.91,4.92v5.88c0,2.71-2.2,4.91-4.91,4.91h-4.29v4.3c0,2.71-2.21,4.91-4.92,4.91h-5.88Z" style="fill:url(#linear-gradient-3);"/><path d="m30.18,50.46c-2.71,0-4.92-2.2-4.92-4.91v-4.29h-4.29c-2.71,0-4.92-2.2-4.92-4.91v-5.88c0-2.71,2.21-4.92,4.92-4.92h4.29v-4.29c0-2.71,2.21-4.92,4.92-4.92h5.88c2.71,0,4.92,2.21,4.92,4.92v4.29h4.29c2.71,0,4.91,2.21,4.91,4.92v5.88c0,2.71-2.2,4.91-4.91,4.91h-4.29v4.29c0,2.71-2.21,4.91-4.92,4.91h-5.88Z" style="fill:url(#linear-gradient-4);"/><path d="m45.27,26.62h-5.37v-5.37c0-2.12-1.72-3.84-3.84-3.84h-5.88c-2.12,0-3.84,1.72-3.84,3.84v5.37h-5.37c-2.12,0-3.84,1.72-3.84,3.84v5.88c0,2.12,1.72,3.84,3.84,3.84h5.37v5.37c0,2.12,1.72,3.84,3.84,3.84h5.88c2.12,0,3.84-1.72,3.84-3.84v-5.37h5.37c2.12,0,3.84-1.72,3.84-3.84v-5.88c0-2.12-1.72-3.84-3.84-3.84Z" style="fill:url(#linear-gradient-5);"/></svg>