<?xml version="1.0" encoding="UTF-8"?><svg id="Objects" xmlns="http://www.w3.org/2000/svg" xmlns:xlink="http://www.w3.org/1999/xlink" viewBox="0 0 65.4 69.39"><defs><linearGradient id="linear-gradient" x1="32.7" y1="66.76" x2="32.7" y2="-5.46" gradientTransform="translate(13.07 -9.17) rotate(19.88)" gradientUnits="userSpaceOnUse"><stop offset="0" stop-color="#43466e"/><stop offset="1" stop-color="#585e81"/></linearGradient><linearGradient id="linear-gradient-2" x1="33.62" y1="48.81" x2="33.62" y2="11.66" gradientUnits="userSpaceOnUse"><stop offset="0" stop-color="#fa6b49"/><stop offset="1" stop-color="#feb749"/></linearGradient><linearGradient id="linear-gradient-3" x1="33.62" y1="47.21" x2="33.62" y2="10.06" gradientUnits="userSpaceOnUse"><stop offset="0" stop-color="#fde049"/><stop offset="1" stop-color="#fefe49"/></linearGradient><linearGradient id="linear-gradient-4" x1="33.62" y1="46.22" x2="33.62" y2="11.59" xlink:href="#linear-gradient-2"/></defs><circle cx="32.7" cy="37.43" r="31.42" transform="translate(-10.78 13.35) rotate(-19.88)" style="fill:#464866; stroke:#464866; stroke-miterlimit:10; stroke-width:1.08px;"/><circle cx="32.7" cy="32.7" r="31.42" transform="translate(-9.17 13.07) rotate(-19.88)" style="fill:url(#linear-gradient); stroke:#6e78b3; stroke-miterlimit:10; stroke-width:2.55px;"/><path d="m40.63,50.04c-.81,0-1.6-.2-2.33-.58l-4.68-2.46-4.68,2.46c-.74.39-1.52.58-2.33.58-1.48,0-2.88-.66-3.85-1.8-.96-1.14-1.35-2.58-1.09-4.07l.89-5.21-3.79-3.69c-1.38-1.34-1.86-3.31-1.27-5.14.59-1.83,2.15-3.14,4.05-3.41l5.23-.76,2.34-4.74c.85-1.72,2.57-2.8,4.5-2.8s3.65,1.07,4.5,2.8l2.34,4.74,5.24.76c1.9.28,3.45,1.58,4.05,3.41.59,1.83.11,3.8-1.27,5.14l-3.79,3.69.89,5.21c.25,1.48-.13,2.93-1.09,4.07-.97,1.15-2.37,1.8-3.85,1.81Z" style="fill:url(#linear-gradient-2);"/><path d="m40.63,48.44c-.81,0-1.6-.2-2.33-.59l-4.68-2.46-4.68,2.46c-.74.39-1.52.59-2.33.59-1.48,0-2.88-.66-3.85-1.8-.96-1.14-1.35-2.58-1.09-4.07l.89-5.21-3.79-3.69c-1.38-1.34-1.86-3.31-1.27-5.14.59-1.83,2.15-3.14,4.05-3.41l5.23-.76,2.34-4.74c.85-1.72,2.57-2.8,4.5-2.8s3.65,1.07,4.5,2.8l2.34,4.74,5.24.76c1.9.28,3.45,1.58,4.05,3.41.59,1.83.11,3.8-1.27,5.14l-3.79,3.69.89,5.21c.25,1.48-.13,2.93-1.09,4.07-.97,1.15-2.37,1.8-3.85,1.81Z" style="fill:url(#linear-gradient-3);"/><path d="m37.15,20.08l2.59,5.25,5.8.84c3.23.47,4.52,4.44,2.18,6.72l-4.19,4.09.99,5.77c.55,3.22-2.82,5.67-5.71,4.15l-5.18-2.73-5.18,2.73c-2.89,1.52-6.26-.93-5.71-4.15l.99-5.77-4.19-4.09c-2.34-2.28-1.05-6.25,2.18-6.72l5.8-.84,2.59-5.25c1.44-2.93,5.62-2.93,7.06,0Z" style="fill:url(#linear-gradient-4);"/><path d="m41.26,28.14c0,1-.81,1.81-1.81,1.81s-1.81-.81-1.81-1.81.81-1.81,1.81-1.81,1.81.81,1.81,1.81Z" style="fill:#fff;"/><path d="m42.1,31c0,.33-.26.59-.59.59s-.59-.26-.59-.59.26-.59.59-.59.59.26.59.59Z" style="fill:#fff;"/></svg>