<?xml version="1.0" encoding="UTF-8"?><svg id="Objects" xmlns="http://www.w3.org/2000/svg" xmlns:xlink="http://www.w3.org/1999/xlink" viewBox="0 0 65.4 69.39"><defs><linearGradient id="linear-gradient" x1="32.7" y1="66.76" x2="32.7" y2="-5.46" gradientUnits="userSpaceOnUse"><stop offset="0" stop-color="#43466e"/><stop offset="1" stop-color="#585e81"/></linearGradient><linearGradient id="linear-gradient-2" x1="33.59" y1="47.91" x2="37.41" y2="18.7" gradientUnits="userSpaceOnUse"><stop offset="0" stop-color="#189934"/><stop offset="1" stop-color="#67ff7d"/></linearGradient><linearGradient id="linear-gradient-3" x1="33.59" y1="46.03" x2="37.41" y2="16.83" gradientUnits="userSpaceOnUse"><stop offset="0" stop-color="#bdf8c7"/><stop offset="1" stop-color="#d9ffde"/></linearGradient><linearGradient id="linear-gradient-4" x1="33.7" y1="45.15" x2="37.25" y2="18.04" gradientUnits="userSpaceOnUse"><stop offset="0" stop-color="#21cf46"/><stop offset="1" stop-color="#67ff7d"/></linearGradient></defs><circle cx="32.7" cy="37.43" r="31.42" style="fill:#464866; stroke:#464866; stroke-miterlimit:10; stroke-width:1.08px;"/><circle cx="32.7" cy="32.7" r="31.42" style="fill:url(#linear-gradient); stroke:#6e78b3; stroke-miterlimit:10; stroke-width:2.55px;"/><path d="m27.41,49.77c-2.89,0-5.25-2.35-5.25-5.25v-19.76c0-2.89,2.35-5.25,5.25-5.25.91,0,1.81.25,2.61.71l17.12,9.88c1.64.95,2.62,2.64,2.62,4.54s-.98,3.59-2.62,4.54l-17.12,9.88c-.8.46-1.71.71-2.61.71Z" style="fill:url(#linear-gradient-2);"/><path d="m27.41,47.89c-2.89,0-5.25-2.35-5.25-5.25v-19.76c0-2.89,2.35-5.25,5.25-5.25.91,0,1.81.25,2.61.71l17.12,9.88c1.64.95,2.62,2.64,2.62,4.54s-.98,3.59-2.62,4.54l-17.12,9.88c-.8.46-1.71.71-2.61.71Z" style="fill:url(#linear-gradient-3);"/><path d="m46.61,29.15c2.78,1.6,2.78,5.61,0,7.21l-8.56,4.94-8.56,4.94c-2.78,1.6-6.25-.4-6.25-3.61v-19.76c0-3.21,3.47-5.21,6.25-3.61l8.56,4.94,8.56,4.94Z" style="fill:url(#linear-gradient-4);"/></svg>