<svg id="z17553" class="acjk" version="1.1" viewBox="0 0 1024 1024" xmlns="http://www.w3.org/2000/svg" xmlns:xlink="http://www.w3.org/1999/xlink">
<style>
<![CDATA[
@keyframes zk {
	to {
		stroke-dashoffset:0;
	}
}
svg.acjk path[clip-path] {
	--t:0.8s;
	animation:zk var(--t) linear forwards var(--d);
	stroke-dasharray:3337;
	stroke-dashoffset:3339;
	stroke-width:40;
	stroke-linecap:round;
	fill:none;
	stroke:#000;
}
svg.acjk path[id] {fill:#ccc;}
]]>
</style>
<path id="z17553d1" d="m 369.41648,342.99988 h -42.8333 l -98.16657,-110.4999 -24.66664,26.33331 v 84.16659 H 170.75 V 94.833448 h 32.99997 V 224.33332 L 324.24985,94.833448 h 39.99996 L 253.41659,211.5 Z"/>
<path id="z17553d2" d="m 369.41648,342.99988 h -42.8333 l -98.16657,-110.4999 -24.66664,26.33331 v 84.16659 H 170.75 V 94.833448 h 32.99997 V 224.33332 L 324.24985,94.833448 h 39.99996 L 253.41659,211.5 Z"/>
<path id="z17553d3" d="m 369.41648,342.99988 h -42.8333 l -98.16657,-110.4999 -24.66664,26.33331 v 84.16659 H 170.75 V 94.833448 h 32.99997 V 224.33332 L 324.24985,94.833448 h 39.99996 L 253.41659,211.5 Z"/>
<defs>
	<clipPath id="z17553c1"><use xlink:href="#z17553d1"/></clipPath>
	<clipPath id="z17553c2"><use xlink:href="#z17553d2"/></clipPath>
	<clipPath id="z17553c3"><use xlink:href="#z17553d3"/></clipPath>
</defs>
<path style="--d:1s;" pathLength="3333" clip-path="url(#z17553c1)" d="m 180.6135,69.104294 4.71165,315.680986"/>
<path style="--d:2s;" pathLength="3333" clip-path="url(#z17553c2)" d="M 364.3681,64.392638 350.23313,75.386503 128.78528,314.11043"/>
<path style="--d:3s;" pathLength="3333" clip-path="url(#z17553c3)" d="M 215.16564,191.60736 373.79141,370.65031"/>
</svg>
  