<svg id="z17553" class="acjk" version="1.1" viewBox="0 0 512 512" xmlns="http://www.w3.org/2000/svg" xmlns:xlink="http://www.w3.org/1999/xlink">
<style>
<![CDATA[
@keyframes zk {
	to {
		stroke-dashoffset:0;
	}
}
svg.acjk path[clip-path] {
	--t:0.8s;
	animation:zk var(--t) linear forwards var(--d);
	stroke-dasharray:3337;
	stroke-dashoffset:3339;
	stroke-width:40;
	stroke-linecap:round;
	fill:none;
	stroke:#000;
}
svg.acjk path[id] {fill:#ccc;}
]]>
</style>
<path id="z17553d1" d="m 143.16669,355.9999 q 19.99998,0 19.99998,-41.66663 0,-16.66665 -19.99998,-16.66665 z m 204.16647,58.33328 q 0,-8.33333 5,-12.49999 5.16666,-4.16666 15.66665,-4.16666 13.99999,0 21.16665,8.33332 7.33332,8.33333 7.33332,24.99998 0,18.33332 -17.66665,31.66664 -17.66665,13.33332 -54.83328,13.33332 -22.49998,0 -40.33329,-6.33333 Q 265.83324,463.4998 228.66661,440.49982 191.49998,417.66651 172,417.66651 q -15.16665,0 -26.66664,4.5 -11.49999,4.66666 -23.83331,15.49998 0,-9.99999 6.16666,-17.99998 6.16666,-7.83333 20.16664,-14.99999 13.99999,-6.99999 32.49997,-6.99999 26.49998,0 45.33329,7.83332 18.83332,7.83333 40.99996,23.99998 41.99996,29.16664 60.66661,29.16664 19.99998,0 29.49997,-5.49999 9.66666,-5.5 9.66666,-22.16665 v -4.5 q -3.99999,0.5 -6.99999,0.5 -4,0 -5.66666,-0.99999 -3.16667,-1.83334 -4.83333,-5 -1.66667,-3.16666 -1.66667,-6.66666 z m -97.4999,-233.33311 q 0,-17.33332 -11.49999,-23.66665 -2.16667,-0.99999 -4.66666,-0.99999 -12.16666,0 -37.16664,24.66664 -24.83331,-24.66664 -37.16663,-24.66664 -2.49999,0 -4.49999,0.99999 -11.66666,6.33333 -11.66666,23.66665 v 99.9999 q 36.66663,0 36.66663,33.3333 0,33.33331 -10.49999,49.99996 -10.33332,16.66665 -31.16663,16.66665 -24.99998,0 -24.99998,-16.66665 V 181.00007 q 0,-20.33332 18.33332,-35.16663 18.33331,-14.83332 28.16664,-14.83332 8.33332,0 36.83329,22.33331 28.66664,-22.33331 36.99997,-22.33331 9.83332,0 27.99997,14.83332 2.66667,2.16666 4.83333,4.33332 18.33332,-19.16664 56.83328,-19.16664 73.33326,0 73.33326,69.83326 v 180.1665 h -29.99997 v -180.1665 q 0,-49.83328 -43.33329,-49.83328 -43.33329,0 -43.33329,49.83328 v 180.1665 h -29.99997 z"/>
<path id="z17553d2" d="m 143.16669,355.9999 q 19.99998,0 19.99998,-41.66663 0,-16.66665 -19.99998,-16.66665 z m 204.16647,58.33328 q 0,-8.33333 5,-12.49999 5.16666,-4.16666 15.66665,-4.16666 13.99999,0 21.16665,8.33332 7.33332,8.33333 7.33332,24.99998 0,18.33332 -17.66665,31.66664 -17.66665,13.33332 -54.83328,13.33332 -22.49998,0 -40.33329,-6.33333 Q 265.83324,463.4998 228.66661,440.49982 191.49998,417.66651 172,417.66651 q -15.16665,0 -26.66664,4.5 -11.49999,4.66666 -23.83331,15.49998 0,-9.99999 6.16666,-17.99998 6.16666,-7.83333 20.16664,-14.99999 13.99999,-6.99999 32.49997,-6.99999 26.49998,0 45.33329,7.83332 18.83332,7.83333 40.99996,23.99998 41.99996,29.16664 60.66661,29.16664 19.99998,0 29.49997,-5.49999 9.66666,-5.5 9.66666,-22.16665 v -4.5 q -3.99999,0.5 -6.99999,0.5 -4,0 -5.66666,-0.99999 -3.16667,-1.83334 -4.83333,-5 -1.66667,-3.16666 -1.66667,-6.66666 z m -97.4999,-233.33311 q 0,-17.33332 -11.49999,-23.66665 -2.16667,-0.99999 -4.66666,-0.99999 -12.16666,0 -37.16664,24.66664 -24.83331,-24.66664 -37.16663,-24.66664 -2.49999,0 -4.49999,0.99999 -11.66666,6.33333 -11.66666,23.66665 v 99.9999 q 36.66663,0 36.66663,33.3333 0,33.33331 -10.49999,49.99996 -10.33332,16.66665 -31.16663,16.66665 -24.99998,0 -24.99998,-16.66665 V 181.00007 q 0,-20.33332 18.33332,-35.16663 18.33331,-14.83332 28.16664,-14.83332 8.33332,0 36.83329,22.33331 28.66664,-22.33331 36.99997,-22.33331 9.83332,0 27.99997,14.83332 2.66667,2.16666 4.83333,4.33332 18.33332,-19.16664 56.83328,-19.16664 73.33326,0 73.33326,69.83326 v 180.1665 h -29.99997 v -180.1665 q 0,-49.83328 -43.33329,-49.83328 -43.33329,0 -43.33329,49.83328 v 180.1665 h -29.99997 z"/>
<path id="z17553d3" d="m 143.16669,355.9999 q 19.99998,0 19.99998,-41.66663 0,-16.66665 -19.99998,-16.66665 z m 204.16647,58.33328 q 0,-8.33333 5,-12.49999 5.16666,-4.16666 15.66665,-4.16666 13.99999,0 21.16665,8.33332 7.33332,8.33333 7.33332,24.99998 0,18.33332 -17.66665,31.66664 -17.66665,13.33332 -54.83328,13.33332 -22.49998,0 -40.33329,-6.33333 Q 265.83324,463.4998 228.66661,440.49982 191.49998,417.66651 172,417.66651 q -15.16665,0 -26.66664,4.5 -11.49999,4.66666 -23.83331,15.49998 0,-9.99999 6.16666,-17.99998 6.16666,-7.83333 20.16664,-14.99999 13.99999,-6.99999 32.49997,-6.99999 26.49998,0 45.33329,7.83332 18.83332,7.83333 40.99996,23.99998 41.99996,29.16664 60.66661,29.16664 19.99998,0 29.49997,-5.49999 9.66666,-5.5 9.66666,-22.16665 v -4.5 q -3.99999,0.5 -6.99999,0.5 -4,0 -5.66666,-0.99999 -3.16667,-1.83334 -4.83333,-5 -1.66667,-3.16666 -1.66667,-6.66666 z m -97.4999,-233.33311 q 0,-17.33332 -11.49999,-23.66665 -2.16667,-0.99999 -4.66666,-0.99999 -12.16666,0 -37.16664,24.66664 -24.83331,-24.66664 -37.16663,-24.66664 -2.49999,0 -4.49999,0.99999 -11.66666,6.33333 -11.66666,23.66665 v 99.9999 q 36.66663,0 36.66663,33.3333 0,33.33331 -10.49999,49.99996 -10.33332,16.66665 -31.16663,16.66665 -24.99998,0 -24.99998,-16.66665 V 181.00007 q 0,-20.33332 18.33332,-35.16663 18.33331,-14.83332 28.16664,-14.83332 8.33332,0 36.83329,22.33331 28.66664,-22.33331 36.99997,-22.33331 9.83332,0 27.99997,14.83332 2.66667,2.16666 4.83333,4.33332 18.33332,-19.16664 56.83328,-19.16664 73.33326,0 73.33326,69.83326 v 180.1665 h -29.99997 v -180.1665 q 0,-49.83328 -43.33329,-49.83328 -43.33329,0 -43.33329,49.83328 v 180.1665 h -29.99997 z"/>
<defs>
	<clipPath id="z17553c1"><use xlink:href="#z17553d1"/></clipPath>
	<clipPath id="z17553c2"><use xlink:href="#z17553d2"/></clipPath>
	<clipPath id="z17553c3"><use xlink:href="#z17553d3"/></clipPath>
</defs>
<path style="--d:1s;" pathLength="3333" clip-path="url(#z17553c1)" d="m 141.34969,284.26994 34.55215,7.85276 -1.57055,51.82822 -18.84663,25.12883 -34.55214,4.71166 7.85276,-202.60123 29.84049,-28.26993 45.54601,26.69938 21.98773,-26.69938 40.83436,26.69938 -3.14111,216.7362 v 0"/>
<path style="--d:2s;" pathLength="3333" clip-path="url(#z17553c2)" d="m 254.42945,164.90798 43.97546,-23.55829 70.67484,4.71166 10.99387,32.98159 v 208.88344"/>
<path style="--d:3s;" pathLength="3333" clip-path="url(#z17553c3)" d="m 347.09202,416.19632 28.26994,-6.28221 12.56442,20.41718 -21.98773,31.41104 -53.39877,7.85276 -98.94479,-58.11043 -43.97546,-3.1411 -58.11043,28.26994"/>
</svg>
  