<svg id="z17553" class="acjk" version="1.1" viewBox="0 0 512 512" xmlns="http://www.w3.org/2000/svg" xmlns:xlink="http://www.w3.org/1999/xlink">
<style>
<![CDATA[
@keyframes zk {
	to {
		stroke-dashoffset:0;
	}
}
svg.acjk path[clip-path] {
	--t:0.8s;
	animation:zk var(--t) linear forwards var(--d);
	stroke-dasharray:3337;
	stroke-dashoffset:3339;
	stroke-width:40;
	stroke-linecap:round;
	fill:none;
	stroke:#000;
}
svg.acjk path[id] {fill:#ccc;}
]]>
</style>
<path id="z17553d1" d="m 308.16653,314.33327 q -13.33332,0 -13.33332,16.66666 0,24.99997 13.33332,24.99997 z m -136.66653,0 q -13.33332,0 -13.33332,16.66666 0,24.99997 13.33332,24.99997 z m 136.66653,-68.33326 v -25.49998 q 0,-17.66665 -33.3333,-27.99997 3.33333,-16.83332 15.83332,-39.16663 12.66666,-22.33331 21.66665,-22.33331 7.33332,0 19.16665,7.16666 l 11.66665,7.16666 q 5.16666,3.16666 12.16666,3.16666 3.66666,0 7.83332,-0.83333 -1.66666,11.66665 -6.83332,19.16665 -5,7.33332 -13.49999,8.16665 -0.83333,0.16667 -1.66667,0.16667 -8.33332,0 -22.49998,-8.83332 -4.33332,-2.5 -7.99999,-2.5 -10.49999,0 -18.16665,19.16665 45.66663,14.66665 45.66663,27.99997 v 153.33319 q 0,16.66665 -21.66665,16.66665 -20.83331,0 -29.66664,-16.66665 -8.66666,-16.66665 -8.66666,-33.3333 0,-33.33331 29.99997,-33.33331 V 265.99999 H 201.49997 v 98.33324 q 0,16.66665 -21.66665,16.66665 -20.83331,0 -29.66663,-16.66665 -8.66666,-16.66665 -8.66666,-33.3333 0,-33.33331 29.99997,-33.33331 v -77.16659 q 0,-17.66665 -33.3333,-27.99997 3.33333,-16.83332 15.83331,-39.16663 12.66666,-22.33331 21.66665,-22.33331 7.33333,0 19.16665,7.16666 l 11.66665,7.16666 q 5.16667,3.16666 12.16666,3.16666 3.66666,0 7.83333,-0.83333 -1.66667,11.66665 -6.83333,19.16665 -5,7.33332 -13.49999,8.16665 -0.83333,0.16667 -1.66666,0.16667 -8.33333,0 -22.49998,-8.83332 -4.33333,-2.5 -7.99999,-2.5 -10.49999,0 -18.16665,19.16665 45.66662,14.66665 45.66662,27.99997 v 34.99997 z"/>
<path id="z17553d2" d="m 308.16653,314.33327 q -13.33332,0 -13.33332,16.66666 0,24.99997 13.33332,24.99997 z m -136.66653,0 q -13.33332,0 -13.33332,16.66666 0,24.99997 13.33332,24.99997 z m 136.66653,-68.33326 v -25.49998 q 0,-17.66665 -33.3333,-27.99997 3.33333,-16.83332 15.83332,-39.16663 12.66666,-22.33331 21.66665,-22.33331 7.33332,0 19.16665,7.16666 l 11.66665,7.16666 q 5.16666,3.16666 12.16666,3.16666 3.66666,0 7.83332,-0.83333 -1.66666,11.66665 -6.83332,19.16665 -5,7.33332 -13.49999,8.16665 -0.83333,0.16667 -1.66667,0.16667 -8.33332,0 -22.49998,-8.83332 -4.33332,-2.5 -7.99999,-2.5 -10.49999,0 -18.16665,19.16665 45.66663,14.66665 45.66663,27.99997 v 153.33319 q 0,16.66665 -21.66665,16.66665 -20.83331,0 -29.66664,-16.66665 -8.66666,-16.66665 -8.66666,-33.3333 0,-33.33331 29.99997,-33.33331 V 265.99999 H 201.49997 v 98.33324 q 0,16.66665 -21.66665,16.66665 -20.83331,0 -29.66663,-16.66665 -8.66666,-16.66665 -8.66666,-33.3333 0,-33.33331 29.99997,-33.33331 v -77.16659 q 0,-17.66665 -33.3333,-27.99997 3.33333,-16.83332 15.83331,-39.16663 12.66666,-22.33331 21.66665,-22.33331 7.33333,0 19.16665,7.16666 l 11.66665,7.16666 q 5.16667,3.16666 12.16666,3.16666 3.66666,0 7.83333,-0.83333 -1.66667,11.66665 -6.83333,19.16665 -5,7.33332 -13.49999,8.16665 -0.83333,0.16667 -1.66666,0.16667 -8.33333,0 -22.49998,-8.83332 -4.33333,-2.5 -7.99999,-2.5 -10.49999,0 -18.16665,19.16665 45.66662,14.66665 45.66662,27.99997 v 34.99997 z"/>
<path id="z17553d3" d="m 308.16653,314.33327 q -13.33332,0 -13.33332,16.66666 0,24.99997 13.33332,24.99997 z m -136.66653,0 q -13.33332,0 -13.33332,16.66666 0,24.99997 13.33332,24.99997 z m 136.66653,-68.33326 v -25.49998 q 0,-17.66665 -33.3333,-27.99997 3.33333,-16.83332 15.83332,-39.16663 12.66666,-22.33331 21.66665,-22.33331 7.33332,0 19.16665,7.16666 l 11.66665,7.16666 q 5.16666,3.16666 12.16666,3.16666 3.66666,0 7.83332,-0.83333 -1.66666,11.66665 -6.83332,19.16665 -5,7.33332 -13.49999,8.16665 -0.83333,0.16667 -1.66667,0.16667 -8.33332,0 -22.49998,-8.83332 -4.33332,-2.5 -7.99999,-2.5 -10.49999,0 -18.16665,19.16665 45.66663,14.66665 45.66663,27.99997 v 153.33319 q 0,16.66665 -21.66665,16.66665 -20.83331,0 -29.66664,-16.66665 -8.66666,-16.66665 -8.66666,-33.3333 0,-33.33331 29.99997,-33.33331 V 265.99999 H 201.49997 v 98.33324 q 0,16.66665 -21.66665,16.66665 -20.83331,0 -29.66663,-16.66665 -8.66666,-16.66665 -8.66666,-33.3333 0,-33.33331 29.99997,-33.33331 v -77.16659 q 0,-17.66665 -33.3333,-27.99997 3.33333,-16.83332 15.83331,-39.16663 12.66666,-22.33331 21.66665,-22.33331 7.33333,0 19.16665,7.16666 l 11.66665,7.16666 q 5.16667,3.16666 12.16666,3.16666 3.66666,0 7.83333,-0.83333 -1.66667,11.66665 -6.83333,19.16665 -5,7.33332 -13.49999,8.16665 -0.83333,0.16667 -1.66666,0.16667 -8.33333,0 -22.49998,-8.83332 -4.33333,-2.5 -7.99999,-2.5 -10.49999,0 -18.16665,19.16665 45.66662,14.66665 45.66662,27.99997 v 34.99997 z"/>
<defs>
	<clipPath id="z17553c1"><use xlink:href="#z17553d1"/></clipPath>
	<clipPath id="z17553c2"><use xlink:href="#z17553d2"/></clipPath>
	<clipPath id="z17553c3"><use xlink:href="#z17553d3"/></clipPath>
</defs>
<path style="--d:1s;" pathLength="3333" clip-path="url(#z17553c1)" d="m 164.90798,303.11656 -25.12884,15.70553 -3.1411,26.69938 6.28221,26.69939 42.4049,9.42331 V 208.88344 l -39.2638,-21.98773 21.98773,-45.54602 20.41718,12.56442 40.83435,9.42331"/>
<path style="--d:2s;" pathLength="3333" clip-path="url(#z17553c2)" d="m 307.82822,303.11656 -32.98159,14.13497 1.57055,26.69939 7.85276,21.98773 h 37.69325 V 210.45399 l -40.83436,-26.69939 28.26994,-37.69325 28.26994,12.56442 26.69939,3.1411"/>
<path style="--d:3s;" pathLength="3333" clip-path="url(#z17553c3)" d="m 177.47239,251.28834 152.34356,6.28221"/>
</svg>
  