<svg id="z17553" class="acjk" version="1.1" viewBox="0 0 512 512" xmlns="http://www.w3.org/2000/svg" xmlns:xlink="http://www.w3.org/1999/xlink">
<style>
<![CDATA[
@keyframes zk {
	to {
		stroke-dashoffset:0;
	}
}
svg.acjk path[clip-path] {
	--t:0.8s;
	animation:zk var(--t) linear forwards var(--d);
	stroke-dasharray:3337;
	stroke-dashoffset:3339;
	stroke-width:40;
	stroke-linecap:round;
	fill:none;
	stroke:#000;
}
svg.acjk path[id] {fill:#ccc;}
]]>
</style>
<path id="z17553d1" d="m 249.83326,314.33327 q -13.33332,0 -13.33332,16.66666 0,24.99997 13.33332,24.99997 z m -136.66654,0 q -13.33332,0 -13.33332,16.66666 0,24.99997 13.33332,24.99997 z M 216.49996,192.50006 q 5.16666,-16.83332 27.3333,-39.16663 21.83331,-22.33331 35.8333,-22.33331 20.49998,0 68.6666,19.49998 48.16662,19.49998 48.16662,55.49994 V 380.99988 H 366.49981 V 202.66671 q 0,-13.49998 -49.16662,-32.8333 -23.83331,-9.16666 -40.66663,-9.16666 -17.99998,0 -27.99997,10.49999 l -11.66665,12.16666 q 42.83329,14.49999 42.83329,27.66664 v 153.33319 q 0,16.66665 -21.66665,16.66665 -20.83331,0 -29.66664,-16.66665 -8.66665,-16.66665 -8.66665,-33.3333 0,-33.33331 29.99997,-33.33331 V 265.99999 H 143.16669 v 98.33324 q 0,16.66665 -21.66664,16.66665 -20.83332,0 -29.666643,-16.66665 -8.666658,-16.66665 -8.666658,-33.3333 0,-33.33331 29.999971,-33.33331 v -77.16659 q 0,-17.66665 -33.333301,-27.99997 3.33333,-16.83332 15.833318,-39.16663 12.666653,-22.33331 21.666643,-22.33331 7.33333,0 19.16665,7.16666 l 11.66666,7.16666 q 5.16666,3.16666 12.16665,3.16666 3.66667,0 7.83333,-0.83333 -1.66667,11.66665 -6.83333,19.16665 -4.99999,7.33332 -13.49999,8.16665 -0.83333,0.16667 -1.66666,0.16667 -8.33333,0 -22.49998,-8.83332 -4.33333,-2.5 -7.99999,-2.5 -10.49999,0 -18.166651,19.16665 45.666621,14.66665 45.666621,27.99997 v 34.99997 h 106.66657 v -25.49998 q 0,-17.66665 -33.3333,-27.99997 z"/>
<path id="z17553d2" d="m 249.83326,314.33327 q -13.33332,0 -13.33332,16.66666 0,24.99997 13.33332,24.99997 z m -136.66654,0 q -13.33332,0 -13.33332,16.66666 0,24.99997 13.33332,24.99997 z M 216.49996,192.50006 q 5.16666,-16.83332 27.3333,-39.16663 21.83331,-22.33331 35.8333,-22.33331 20.49998,0 68.6666,19.49998 48.16662,19.49998 48.16662,55.49994 V 380.99988 H 366.49981 V 202.66671 q 0,-13.49998 -49.16662,-32.8333 -23.83331,-9.16666 -40.66663,-9.16666 -17.99998,0 -27.99997,10.49999 l -11.66665,12.16666 q 42.83329,14.49999 42.83329,27.66664 v 153.33319 q 0,16.66665 -21.66665,16.66665 -20.83331,0 -29.66664,-16.66665 -8.66665,-16.66665 -8.66665,-33.3333 0,-33.33331 29.99997,-33.33331 V 265.99999 H 143.16669 v 98.33324 q 0,16.66665 -21.66664,16.66665 -20.83332,0 -29.666643,-16.66665 -8.666658,-16.66665 -8.666658,-33.3333 0,-33.33331 29.999971,-33.33331 v -77.16659 q 0,-17.66665 -33.333301,-27.99997 3.33333,-16.83332 15.833318,-39.16663 12.666653,-22.33331 21.666643,-22.33331 7.33333,0 19.16665,7.16666 l 11.66666,7.16666 q 5.16666,3.16666 12.16665,3.16666 3.66667,0 7.83333,-0.83333 -1.66667,11.66665 -6.83333,19.16665 -4.99999,7.33332 -13.49999,8.16665 -0.83333,0.16667 -1.66666,0.16667 -8.33333,0 -22.49998,-8.83332 -4.33333,-2.5 -7.99999,-2.5 -10.49999,0 -18.166651,19.16665 45.666621,14.66665 45.666621,27.99997 v 34.99997 h 106.66657 v -25.49998 q 0,-17.66665 -33.3333,-27.99997 z"/>
<path id="z17553d3" d="m 249.83326,314.33327 q -13.33332,0 -13.33332,16.66666 0,24.99997 13.33332,24.99997 z m -136.66654,0 q -13.33332,0 -13.33332,16.66666 0,24.99997 13.33332,24.99997 z M 216.49996,192.50006 q 5.16666,-16.83332 27.3333,-39.16663 21.83331,-22.33331 35.8333,-22.33331 20.49998,0 68.6666,19.49998 48.16662,19.49998 48.16662,55.49994 V 380.99988 H 366.49981 V 202.66671 q 0,-13.49998 -49.16662,-32.8333 -23.83331,-9.16666 -40.66663,-9.16666 -17.99998,0 -27.99997,10.49999 l -11.66665,12.16666 q 42.83329,14.49999 42.83329,27.66664 v 153.33319 q 0,16.66665 -21.66665,16.66665 -20.83331,0 -29.66664,-16.66665 -8.66665,-16.66665 -8.66665,-33.3333 0,-33.33331 29.99997,-33.33331 V 265.99999 H 143.16669 v 98.33324 q 0,16.66665 -21.66664,16.66665 -20.83332,0 -29.666643,-16.66665 -8.666658,-16.66665 -8.666658,-33.3333 0,-33.33331 29.999971,-33.33331 v -77.16659 q 0,-17.66665 -33.333301,-27.99997 3.33333,-16.83332 15.833318,-39.16663 12.666653,-22.33331 21.666643,-22.33331 7.33333,0 19.16665,7.16666 l 11.66666,7.16666 q 5.16666,3.16666 12.16665,3.16666 3.66667,0 7.83333,-0.83333 -1.66667,11.66665 -6.83333,19.16665 -4.99999,7.33332 -13.49999,8.16665 -0.83333,0.16667 -1.66666,0.16667 -8.33333,0 -22.49998,-8.83332 -4.33333,-2.5 -7.99999,-2.5 -10.49999,0 -18.166651,19.16665 45.666621,14.66665 45.666621,27.99997 v 34.99997 h 106.66657 v -25.49998 q 0,-17.66665 -33.3333,-27.99997 z"/>
<defs>
	<clipPath id="z17553c1"><use xlink:href="#z17553d1"/></clipPath>
	<clipPath id="z17553c2"><use xlink:href="#z17553d2"/></clipPath>
	<clipPath id="z17553c3"><use xlink:href="#z17553d3"/></clipPath>
</defs>
<path style="--d:1s;" pathLength="3333" clip-path="url(#z17553c1)" d="m 108.3681,301.54601 -20.41718,17.27608 4.711657,43.97546 25.128833,14.13497 18.84663,-4.71166 -10.99387,-171.19019 -39.263802,-14.13496 26.699382,-42.40491 36.1227,15.70552 h 25.12884"/>
<path style="--d:2s;" pathLength="3333" clip-path="url(#z17553c2)" d="m 246.57669,299.97546 -28.26994,17.27607 4.71165,32.9816 17.27608,28.26994 29.84049,-7.85276 -1.57055,-163.33743 -45.54602,-21.98773 40.83436,-39.2638 36.1227,3.1411 67.53374,21.98773 18.84663,31.41105 -3.14111,213.59509"/>
<path style="--d:3s;" pathLength="3333" clip-path="url(#z17553c3)" d="M 97.374233,254.42945 315.68098,256"/>
</svg>
  