<svg id="z17553" class="acjk" version="1.1" viewBox="0 0 512 512" xmlns="http://www.w3.org/2000/svg" xmlns:xlink="http://www.w3.org/1999/xlink">
<style>
<![CDATA[
@keyframes zk {
	to {
		stroke-dashoffset:0;
	}
}
svg.acjk path[clip-path] {
	--t:0.8s;
	animation:zk var(--t) linear forwards var(--d);
	stroke-dasharray:3337;
	stroke-dashoffset:3339;
	stroke-width:40;
	stroke-linecap:round;
	fill:none;
	stroke:#000;
}
svg.acjk path[id] {fill:#ccc;}
]]>
</style>
<path id="z17553d1" d="m 338.16651,422.6665 q 0,11.66666 -5.83333,20.66665 1.66666,6.33333 9.33332,9.66666 7.66666,3.16666 21.33332,3.16666 0,8.16666 -6.66666,12.33332 -6.83333,4.16667 -20.33332,4.16667 -9.66666,0 -16.83332,-2.66667 -6.99999,-2.66666 -11.33332,-7.83332 -12.83332,5.16666 -30.99997,7.83332 -18.16665,2.66667 -41.83329,2.66667 -25.66664,0 -43.66663,-5.33333 -17.99998,-5.5 -28.16664,-16.33332 30.83331,5 72.1666,5 36.66663,0 55.16661,-8.33333 18.33332,-8.33332 18.33332,-24.99998 0,-8.33332 -12.49999,-8.33332 0,-8.33333 5.33333,-12.49999 5.33333,-4.16666 15.83332,-4.16666 10.33332,0 15.49998,6.33333 5.16667,6.16666 5.16667,18.66664 z M 308.16653,220.50003 q 0,-17.66665 -33.3333,-27.99997 3.33333,-16.83332 15.83332,-39.16663 12.66666,-22.33331 21.66665,-22.33331 7.33332,0 19.16665,7.16666 l 11.66665,7.16666 q 5.16666,3.16666 12.16666,3.16666 3.66666,0 7.83332,-0.83333 -1.66666,11.66665 -6.83332,19.16665 -5,7.33332 -13.49999,8.16665 -0.83333,0.16667 -1.66667,0.16667 -8.33332,0 -22.49998,-8.83332 -4.33332,-2.5 -7.99999,-2.5 -10.49999,0 -18.16665,19.16665 45.66663,14.66665 45.66663,27.99997 v 136.66654 q -16.66665,33.3333 -83.33326,33.3333 -66.6666,0 -83.33325,-33.3333 V 220.50003 q 0,-17.66665 -33.3333,-27.99997 3.33333,-16.83332 15.83331,-39.16663 12.66666,-22.33331 21.66665,-22.33331 7.33333,0 19.16665,7.16666 l 11.66665,7.16666 q 5.16667,3.16666 12.16666,3.16666 3.66666,0 7.83333,-0.83333 -1.66667,11.66665 -6.83333,19.16665 -5,7.33332 -13.49999,8.16665 -0.83333,0.16667 -1.66666,0.16667 -8.33333,0 -22.49998,-8.83332 -4.33333,-2.5 -7.99999,-2.5 -10.49999,0 -18.16665,19.16665 45.66662,14.66665 45.66662,27.99997 v 129.99988 q 9.99999,19.99998 53.33328,19.99998 43.33329,0 53.33328,-19.99998 z"/>
<path id="z17553d2" d="m 338.16651,422.6665 q 0,11.66666 -5.83333,20.66665 1.66666,6.33333 9.33332,9.66666 7.66666,3.16666 21.33332,3.16666 0,8.16666 -6.66666,12.33332 -6.83333,4.16667 -20.33332,4.16667 -9.66666,0 -16.83332,-2.66667 -6.99999,-2.66666 -11.33332,-7.83332 -12.83332,5.16666 -30.99997,7.83332 -18.16665,2.66667 -41.83329,2.66667 -25.66664,0 -43.66663,-5.33333 -17.99998,-5.5 -28.16664,-16.33332 30.83331,5 72.1666,5 36.66663,0 55.16661,-8.33333 18.33332,-8.33332 18.33332,-24.99998 0,-8.33332 -12.49999,-8.33332 0,-8.33333 5.33333,-12.49999 5.33333,-4.16666 15.83332,-4.16666 10.33332,0 15.49998,6.33333 5.16667,6.16666 5.16667,18.66664 z M 308.16653,220.50003 q 0,-17.66665 -33.3333,-27.99997 3.33333,-16.83332 15.83332,-39.16663 12.66666,-22.33331 21.66665,-22.33331 7.33332,0 19.16665,7.16666 l 11.66665,7.16666 q 5.16666,3.16666 12.16666,3.16666 3.66666,0 7.83332,-0.83333 -1.66666,11.66665 -6.83332,19.16665 -5,7.33332 -13.49999,8.16665 -0.83333,0.16667 -1.66667,0.16667 -8.33332,0 -22.49998,-8.83332 -4.33332,-2.5 -7.99999,-2.5 -10.49999,0 -18.16665,19.16665 45.66663,14.66665 45.66663,27.99997 v 136.66654 q -16.66665,33.3333 -83.33326,33.3333 -66.6666,0 -83.33325,-33.3333 V 220.50003 q 0,-17.66665 -33.3333,-27.99997 3.33333,-16.83332 15.83331,-39.16663 12.66666,-22.33331 21.66665,-22.33331 7.33333,0 19.16665,7.16666 l 11.66665,7.16666 q 5.16667,3.16666 12.16666,3.16666 3.66666,0 7.83333,-0.83333 -1.66667,11.66665 -6.83333,19.16665 -5,7.33332 -13.49999,8.16665 -0.83333,0.16667 -1.66666,0.16667 -8.33333,0 -22.49998,-8.83332 -4.33333,-2.5 -7.99999,-2.5 -10.49999,0 -18.16665,19.16665 45.66662,14.66665 45.66662,27.99997 v 129.99988 q 9.99999,19.99998 53.33328,19.99998 43.33329,0 53.33328,-19.99998 z"/>
<path id="z17553d3" d="m 338.16651,422.6665 q 0,11.66666 -5.83333,20.66665 1.66666,6.33333 9.33332,9.66666 7.66666,3.16666 21.33332,3.16666 0,8.16666 -6.66666,12.33332 -6.83333,4.16667 -20.33332,4.16667 -9.66666,0 -16.83332,-2.66667 -6.99999,-2.66666 -11.33332,-7.83332 -12.83332,5.16666 -30.99997,7.83332 -18.16665,2.66667 -41.83329,2.66667 -25.66664,0 -43.66663,-5.33333 -17.99998,-5.5 -28.16664,-16.33332 30.83331,5 72.1666,5 36.66663,0 55.16661,-8.33333 18.33332,-8.33332 18.33332,-24.99998 0,-8.33332 -12.49999,-8.33332 0,-8.33333 5.33333,-12.49999 5.33333,-4.16666 15.83332,-4.16666 10.33332,0 15.49998,6.33333 5.16667,6.16666 5.16667,18.66664 z M 308.16653,220.50003 q 0,-17.66665 -33.3333,-27.99997 3.33333,-16.83332 15.83332,-39.16663 12.66666,-22.33331 21.66665,-22.33331 7.33332,0 19.16665,7.16666 l 11.66665,7.16666 q 5.16666,3.16666 12.16666,3.16666 3.66666,0 7.83332,-0.83333 -1.66666,11.66665 -6.83332,19.16665 -5,7.33332 -13.49999,8.16665 -0.83333,0.16667 -1.66667,0.16667 -8.33332,0 -22.49998,-8.83332 -4.33332,-2.5 -7.99999,-2.5 -10.49999,0 -18.16665,19.16665 45.66663,14.66665 45.66663,27.99997 v 136.66654 q -16.66665,33.3333 -83.33326,33.3333 -66.6666,0 -83.33325,-33.3333 V 220.50003 q 0,-17.66665 -33.3333,-27.99997 3.33333,-16.83332 15.83331,-39.16663 12.66666,-22.33331 21.66665,-22.33331 7.33333,0 19.16665,7.16666 l 11.66665,7.16666 q 5.16667,3.16666 12.16666,3.16666 3.66666,0 7.83333,-0.83333 -1.66667,11.66665 -6.83333,19.16665 -5,7.33332 -13.49999,8.16665 -0.83333,0.16667 -1.66666,0.16667 -8.33333,0 -22.49998,-8.83332 -4.33333,-2.5 -7.99999,-2.5 -10.49999,0 -18.16665,19.16665 45.66662,14.66665 45.66662,27.99997 v 129.99988 q 9.99999,19.99998 53.33328,19.99998 43.33329,0 53.33328,-19.99998 z"/>
<defs>
	<clipPath id="z17553c1"><use xlink:href="#z17553d1"/></clipPath>
	<clipPath id="z17553c2"><use xlink:href="#z17553d2"/></clipPath>
	<clipPath id="z17553c3"><use xlink:href="#z17553d3"/></clipPath>
</defs>
<path style="--d:1s;" pathLength="3333" clip-path="url(#z17553c1)" d="m 182.18405,210.45399 1.57055,133.49693 37.69325,28.26994 64.39264,-6.28221 45.54601,-20.41718 -4.71165,-136.63803 -43.97546,-23.55829 25.12883,-43.97546 25.12884,17.27608 50.25766,1.57055"/>
<path style="--d:2s;" pathLength="3333" clip-path="url(#z17553c2)" d="m 213.59509,230.87117 -67.53374,-43.97546 25.12883,-47.11657 40.83436,25.12884 25.12883,-3.14111"/>
<path style="--d:3s;" pathLength="3333" clip-path="url(#z17553c3)" d="m 281.12883,400.4908 34.55215,6.28221 1.57055,28.26993 -51.82822,25.12884 -113.07975,1.57055 -18.84663,-51.82822 120.93252,6.28221 70.67484,40.83435 65.96319,7.85277"/>
</svg>
  