<svg id="z17553" class="acjk" version="1.1" viewBox="0 0 512 512" xmlns="http://www.w3.org/2000/svg" xmlns:xlink="http://www.w3.org/1999/xlink">
<style>
<![CDATA[
@keyframes zk {
	to {
		stroke-dashoffset:0;
	}
}
svg.acjk path[clip-path] {
	--t:0.8s;
	animation:zk var(--t) linear forwards var(--d);
	stroke-dasharray:3337;
	stroke-dashoffset:3339;
	stroke-width:40;
	stroke-linecap:round;
	fill:none;
	stroke:#000;
}
svg.acjk path[id] {fill:#ccc;}
]]>
</style>
<path id="z17553d1" d="m 250.66659,454.78095 h -24.99998 v -63.83327 q -8.33332,-3 -8.33332,-13.33332 0,-14.49999 16.66665,-14.49999 16.66665,0 16.66665,14.49999 z m 99.16657,-312.4997 q 0,8.33333 3.33333,12.49999 3.33333,4.16666 9.99999,4.16666 6.66666,0 9.99999,-4.16666 3.33333,-4.16666 3.33333,-12.49999 0,-8.33332 -3.33333,-12.49999 -3.33333,-4.16666 -9.99999,-4.16666 -6.66666,0 -9.99999,4.16666 -3.33333,4.16667 -3.33333,12.49999 z m 50.83328,0 q 0,18.83332 -9.33332,28.16664 -9.33332,9.33333 -28.16664,9.33333 -18.83332,0 -28.16664,-9.33333 -9.33332,-9.33332 -9.33332,-28.16664 0,-18.83331 9.33332,-28.16664 9.33332,-9.33332 28.16664,-9.33332 18.83332,0 28.16664,9.33332 9.33332,9.33333 9.33332,28.16664 z m -50.83328,158.33318 q 0,8.33333 3.33333,12.49999 3.33333,4.16666 9.99999,4.16666 6.66666,0 9.99999,-4.16666 3.33333,-4.16666 3.33333,-12.49999 0,-8.33332 -3.33333,-12.49998 -3.33333,-4.16667 -9.99999,-4.16667 -6.66666,0 -9.99999,4.16667 -3.33333,4.16666 -3.33333,12.49998 z m 50.83328,0 q 0,18.83332 -9.33332,28.16664 -9.33332,9.33333 -28.16664,9.33333 -18.83332,0 -28.16664,-9.33333 -9.33332,-9.33332 -9.33332,-28.16664 0,-18.83331 9.33332,-28.16664 9.33332,-9.33332 28.16664,-9.33332 18.83332,0 28.16664,9.33332 9.33332,9.33333 9.33332,28.16664 z"/>
<path id="z17553d2" d="m 250.66659,454.78095 h -24.99998 v -63.83327 q -8.33332,-3 -8.33332,-13.33332 0,-14.49999 16.66665,-14.49999 16.66665,0 16.66665,14.49999 z m 99.16657,-312.4997 q 0,8.33333 3.33333,12.49999 3.33333,4.16666 9.99999,4.16666 6.66666,0 9.99999,-4.16666 3.33333,-4.16666 3.33333,-12.49999 0,-8.33332 -3.33333,-12.49999 -3.33333,-4.16666 -9.99999,-4.16666 -6.66666,0 -9.99999,4.16666 -3.33333,4.16667 -3.33333,12.49999 z m 50.83328,0 q 0,18.83332 -9.33332,28.16664 -9.33332,9.33333 -28.16664,9.33333 -18.83332,0 -28.16664,-9.33333 -9.33332,-9.33332 -9.33332,-28.16664 0,-18.83331 9.33332,-28.16664 9.33332,-9.33332 28.16664,-9.33332 18.83332,0 28.16664,9.33332 9.33332,9.33333 9.33332,28.16664 z m -50.83328,158.33318 q 0,8.33333 3.33333,12.49999 3.33333,4.16666 9.99999,4.16666 6.66666,0 9.99999,-4.16666 3.33333,-4.16666 3.33333,-12.49999 0,-8.33332 -3.33333,-12.49998 -3.33333,-4.16667 -9.99999,-4.16667 -6.66666,0 -9.99999,4.16667 -3.33333,4.16666 -3.33333,12.49998 z m 50.83328,0 q 0,18.83332 -9.33332,28.16664 -9.33332,9.33333 -28.16664,9.33333 -18.83332,0 -28.16664,-9.33333 -9.33332,-9.33332 -9.33332,-28.16664 0,-18.83331 9.33332,-28.16664 9.33332,-9.33332 28.16664,-9.33332 18.83332,0 28.16664,9.33332 9.33332,9.33333 9.33332,28.16664 z"/>
<path id="z17553d3" d="m 250.66659,454.78095 h -24.99998 v -63.83327 q -8.33332,-3 -8.33332,-13.33332 0,-14.49999 16.66665,-14.49999 16.66665,0 16.66665,14.49999 z m 99.16657,-312.4997 q 0,8.33333 3.33333,12.49999 3.33333,4.16666 9.99999,4.16666 6.66666,0 9.99999,-4.16666 3.33333,-4.16666 3.33333,-12.49999 0,-8.33332 -3.33333,-12.49999 -3.33333,-4.16666 -9.99999,-4.16666 -6.66666,0 -9.99999,4.16666 -3.33333,4.16667 -3.33333,12.49999 z m 50.83328,0 q 0,18.83332 -9.33332,28.16664 -9.33332,9.33333 -28.16664,9.33333 -18.83332,0 -28.16664,-9.33333 -9.33332,-9.33332 -9.33332,-28.16664 0,-18.83331 9.33332,-28.16664 9.33332,-9.33332 28.16664,-9.33332 18.83332,0 28.16664,9.33332 9.33332,9.33333 9.33332,28.16664 z m -50.83328,158.33318 q 0,8.33333 3.33333,12.49999 3.33333,4.16666 9.99999,4.16666 6.66666,0 9.99999,-4.16666 3.33333,-4.16666 3.33333,-12.49999 0,-8.33332 -3.33333,-12.49998 -3.33333,-4.16667 -9.99999,-4.16667 -6.66666,0 -9.99999,4.16667 -3.33333,4.16666 -3.33333,12.49998 z m 50.83328,0 q 0,18.83332 -9.33332,28.16664 -9.33332,9.33333 -28.16664,9.33333 -18.83332,0 -28.16664,-9.33333 -9.33332,-9.33332 -9.33332,-28.16664 0,-18.83331 9.33332,-28.16664 9.33332,-9.33332 28.16664,-9.33332 18.83332,0 28.16664,9.33332 9.33332,9.33333 9.33332,28.16664 z"/>
<defs>
	<clipPath id="z17553c1"><use xlink:href="#z17553d1"/></clipPath>
	<clipPath id="z17553c2"><use xlink:href="#z17553d2"/></clipPath>
	<clipPath id="z17553c3"><use xlink:href="#z17553d3"/></clipPath>
</defs>
<path style="--d:1s;" pathLength="3333" clip-path="url(#z17553c1)" d="m 205.74233,373.79141 h 32.9816 l 7.85276,94.23313"/>
<path style="--d:2s;" pathLength="3333" clip-path="url(#z17553c2)" d="m 358.08589,109.93865 -29.84049,23.55828 7.85276,31.41105 23.55828,7.85276 28.26994,-1.57056 10.99387,-21.98773 -9.42332,-32.98159 -53.39877,-25.128835"/>
<path style="--d:3s;" pathLength="3333" clip-path="url(#z17553c3)" d="m 359.65644,270.13497 -34.55215,20.41718 6.28221,36.1227 36.1227,10.99386 29.84049,-17.27607 1.57056,-31.41104 -64.39264,-39.26381"/>
</svg>
  