<?xml version="1.0" encoding="UTF-8"?><svg id="Objects" xmlns="http://www.w3.org/2000/svg" xmlns:xlink="http://www.w3.org/1999/xlink" viewBox="0 0 34.15 28.29"><defs><linearGradient id="linear-gradient" x1="17.08" y1="14.28" x2="17.08" y2="29.66" gradientUnits="userSpaceOnUse"><stop offset="0" stop-color="#914736"/><stop offset="1" stop-color="#feb749"/></linearGradient></defs><path d="m13.44,27.77c-1.27,0-2.5-.46-3.46-1.3-.19-.17-.37-.35-.54-.54L1.92,17.02c-1.12-1.33-1.66-3.01-1.51-4.75.15-1.74.96-3.31,2.28-4.43,1.17-.99,2.67-1.54,4.2-1.54,1.92,0,3.74.84,4.98,2.31.26.3.51.66.72,1.03l2.16,3.9L26.37,2.39c.82-.79,1.9-1.22,3.03-1.22,1.21,0,2.33.48,3.16,1.35,1.55,1.62,1.62,4.22.14,5.91l-15.3,17.53c-1,1.15-2.44,1.8-3.97,1.8Z" style="fill:url(#linear-gradient);"/><path d="m13.44,26.83c-1.05,0-2.06-.38-2.85-1.07-.16-.14-.31-.29-.44-.45l-7.52-8.9c-1.99-2.35-1.69-5.88.66-7.87,1.01-.85,2.28-1.32,3.6-1.32,1.65,0,3.2.72,4.27,1.98.22.26.44.57.61.89l2.75,4.96L27.02,3.07c.65-.62,1.49-.96,2.39-.96.95,0,1.83.38,2.49,1.06,1.22,1.27,1.27,3.32.11,4.65l-15.3,17.53c-.82.94-2.01,1.48-3.26,1.48h0Z" style="fill:#7a4633;"/></svg>