<?xml version="1.0" encoding="UTF-8"?><svg xmlns="http://www.w3.org/2000/svg" xmlns:xlink="http://www.w3.org/1999/xlink" viewBox="0 0 134.7 53.28"><defs><linearGradient id="linear-gradient" x1="81.56" y1="52.62" x2="81.56" y2="-22.15" gradientUnits="userSpaceOnUse"><stop offset="0" stop-color="#43466e"/><stop offset="1" stop-color="#585e81"/></linearGradient><linearGradient id="linear-gradient-2" x1="24.32" y1="48.54" x2="24.32" y2="6.99" gradientUnits="userSpaceOnUse"><stop offset="0" stop-color="#fa6b49"/><stop offset="1" stop-color="#feb749"/></linearGradient><linearGradient id="linear-gradient-3" x1="21.5" y1="33.35" x2="27.1" y2="16.93" xlink:href="#linear-gradient-2"/><linearGradient id="linear-gradient-4" x1="21.5" y1="32.5" x2="27.1" y2="16.08" gradientUnits="userSpaceOnUse"><stop offset="0" stop-color="#fde049"/><stop offset="1" stop-color="#fefe49"/></linearGradient><linearGradient id="linear-gradient-5" x1="21.74" y1="31.8" x2="26.82" y2="16.88" xlink:href="#linear-gradient-2"/></defs><g style="isolation:isolate;"><g id="Objects"><rect x="29.47" y="11.31" width="104.17" height="34.1" rx="9.51" ry="9.51" style="fill:url(#linear-gradient); stroke:#6e78b3; stroke-miterlimit:10; stroke-width:2.11px;"/><rect x="56.21" y="16.8" width="71.53" height="23.11" rx="5.59" ry="5.59" style="fill:#282844;"/><path d="m24.32,53.28C10.91,53.28,0,42.37,0,28.96S10.91,4.65,24.32,4.65s24.32,10.91,24.32,24.32-10.91,24.32-24.32,24.32Z" style="fill:#c96046;"/><circle cx="24.32" cy="28.96" r="23.32" transform="translate(-13.36 25.68) rotate(-45)" style="fill:#943328;"/><path d="m24.32,48.63C10.91,48.63,0,37.73,0,24.32S10.91,0,24.32,0s24.32,10.91,24.32,24.32-10.91,24.32-24.32,24.32Z" style="fill:#c96046;"/><circle cx="24.32" cy="24.32" r="23.32" style="fill:url(#linear-gradient-2);"/><path d="m25.81,24.73v17.45c9.07-.75,16.22-8.24,16.43-17.45h-16.43Z" style="fill:#fff; mix-blend-mode:overlay; opacity:.56;"/><path d="m1,24.32c0,2.72.47,5.33,1.33,7.76,3.45,1.9,7.42,2.99,11.63,2.99,13.34,0,24.15-10.81,24.15-24.15,0-2.05-.26-4.03-.74-5.93-3.73-2.52-8.22-4-13.06-4C11.44,1,1,11.44,1,24.32Z" style="fill:#fff; mix-blend-mode:overlay; opacity:.56;"/><circle cx="24.32" cy="24.32" r="16.01" style="fill:#943328;"/><circle cx="24.32" cy="24.9" r="13.59" transform="translate(-5.5 42.85) rotate(-76.72)" style="fill:#c96046;"/><path d="m17.81,31.41c-.74,0-1.36-.53-1.49-1.26l-1.08-6.46c-.07-.44.05-.88.33-1.22.29-.34.71-.54,1.16-.54.33,0,.64.11.91.31l1.81,1.38,3.65-4.93c.29-.39.73-.61,1.21-.61s.92.22,1.21.61l3.65,4.93,1.81-1.38c.27-.2.58-.31.91-.31.45,0,.87.2,1.16.54.28.33.4.78.33,1.22l-1.08,6.46c-.12.73-.75,1.26-1.49,1.26h-13.02Z" style="fill:url(#linear-gradient-3);"/><path d="m17.81,30.55c-.74,0-1.36-.53-1.49-1.26l-1.08-6.46c-.07-.44.05-.88.33-1.22.29-.34.71-.54,1.16-.54.33,0,.64.11.91.31l1.81,1.38,3.65-4.93c.29-.39.73-.61,1.21-.61s.92.22,1.21.61l3.65,4.93,1.81-1.38c.27-.2.58-.31.91-.31.45,0,.87.2,1.16.54.28.33.4.78.33,1.22l-1.08,6.46c-.12.73-.75,1.26-1.49,1.26h-13.02Z" style="fill:url(#linear-gradient-4);"/><path d="m29.05,23.73l-4.06-5.49c-.33-.45-1-.45-1.33,0l-4.06,5.49-2.35-1.8c-.6-.46-1.44.05-1.32.79l1.08,6.46c.07.4.41.69.82.69h13.02c.41,0,.75-.29.82-.69l1.08-6.46c.12-.74-.72-1.25-1.32-.79l-2.35,1.8Z" style="fill:url(#linear-gradient-5);"/></g></g></svg>