<?xml version="1.0" encoding="UTF-8"?><svg id="Objects" xmlns="http://www.w3.org/2000/svg" xmlns:xlink="http://www.w3.org/1999/xlink" viewBox="0 0 182.59 50.87"><defs><linearGradient id="linear-gradient" x1="91.29" y1="52.48" x2="91.29" y2="41.78" gradientTransform="translate(48.09 134.5) rotate(-90)" gradientUnits="userSpaceOnUse"><stop offset="0" stop-color="#fde049"/><stop offset="1" stop-color="#fefe49"/></linearGradient><linearGradient id="linear-gradient-2" x1="91.29" y1="51.35" x2="91.29" y2="41.95" gradientUnits="userSpaceOnUse"><stop offset="0" stop-color="#fa6b49"/><stop offset="1" stop-color="#feb749"/></linearGradient><linearGradient id="linear-gradient-3" x1="6.4" y1="22.78" x2="176.19" y2="22.78" gradientTransform="translate(68.51 114.08) rotate(-90)" gradientUnits="userSpaceOnUse"><stop offset="0" stop-color="#43466e"/><stop offset="1" stop-color="#585e81"/></linearGradient><linearGradient id="linear-gradient-4" x1="175.24" y1="23.27" x2="175.24" y2="16.73" gradientTransform="translate(157.64 192.84) rotate(-90)" xlink:href="#linear-gradient"/><linearGradient id="linear-gradient-5" x1="175.24" y1="22.14" x2="175.24" y2="16.9" xlink:href="#linear-gradient-2"/><linearGradient id="linear-gradient-6" x1="175.24" y1="35.97" x2="175.24" y2="29.43" gradientTransform="translate(144.93 205.54) rotate(-90)" xlink:href="#linear-gradient"/><linearGradient id="linear-gradient-7" x1="175.24" y1="34.84" x2="175.24" y2="29.61" xlink:href="#linear-gradient-2"/><linearGradient id="linear-gradient-8" x1="7.35" y1="23.27" x2="7.35" y2="16.73" gradientTransform="translate(-10.25 24.95) rotate(-90)" xlink:href="#linear-gradient"/><linearGradient id="linear-gradient-9" x1="7.35" y1="22.14" x2="7.35" y2="16.9" xlink:href="#linear-gradient-2"/><linearGradient id="linear-gradient-10" x1="7.35" y1="35.97" x2="7.35" y2="29.43" gradientTransform="translate(-22.96 37.65) rotate(-90)" xlink:href="#linear-gradient"/><linearGradient id="linear-gradient-11" x1="7.35" y1="34.84" x2="7.35" y2="29.61" xlink:href="#linear-gradient-2"/><linearGradient id="linear-gradient-12" x1="91.21" y1="2.69" x2="91.21" y2=".99" gradientUnits="userSpaceOnUse"><stop offset="0" stop-color="#b2f1e8"/><stop offset="1" stop-color="#f7ffec"/></linearGradient></defs><path d="m83.64-22.82h10.37c2.73,0,4.95,2.22,4.95,4.95v122.16c0,2.73-2.22,4.95-4.95,4.95h-10.37V-22.82h0Z" transform="translate(134.5 -48.09) rotate(90)" style="fill:url(#linear-gradient);"/><path d="m26.21,36.49h130.17v9.43c0,2.21-1.8,4.01-4.01,4.01H30.22c-2.21,0-4.01-1.8-4.01-4.01v-9.43h0Z" style="fill:url(#linear-gradient-2);"/><rect x="69.73" y="-62.12" width="43.13" height="169.79" rx="11.91" ry="11.91" transform="translate(114.08 -68.51) rotate(90)" style="fill:url(#linear-gradient-3); stroke:#6e78b3; stroke-miterlimit:10; stroke-width:2.4px;"/><rect x="21.97" y="8.2" width="138.64" height="29.17" rx="6.24" ry="6.24" style="fill:#282844;"/><path d="m173.06,10.25h4.36c1.38,0,2.5,1.12,2.5,2.5v9.69c0,1.38-1.12,2.5-2.5,2.5h-4.36c-1.38,0-2.5-1.12-2.5-2.5v-9.69c0-1.38,1.12-2.5,2.5-2.5Z" transform="translate(192.84 -157.64) rotate(90)" style="fill:url(#linear-gradient-4);"/><rect x="168.83" y="13.86" width="12.82" height="7.49" rx="1.57" ry="1.57" style="fill:url(#linear-gradient-5);"/><path d="m173.06,22.96h4.36c1.38,0,2.5,1.12,2.5,2.5v9.69c0,1.38-1.12,2.5-2.5,2.5h-4.36c-1.38,0-2.5-1.12-2.5-2.5v-9.69c0-1.38,1.12-2.5,2.5-2.5Z" transform="translate(205.54 -144.93) rotate(90)" style="fill:url(#linear-gradient-6);"/><rect x="168.83" y="26.56" width="12.82" height="7.49" rx="1.57" ry="1.57" style="fill:url(#linear-gradient-7);"/><path d="m5.17,10.25h4.36c1.38,0,2.5,1.12,2.5,2.5v9.69c0,1.38-1.12,2.5-2.5,2.5h-4.36c-1.38,0-2.5-1.12-2.5-2.5v-9.69c0-1.38,1.12-2.5,2.5-2.5Z" transform="translate(24.95 10.25) rotate(90)" style="fill:url(#linear-gradient-8);"/><rect x=".94" y="13.86" width="12.82" height="7.49" rx="1.57" ry="1.57" style="fill:url(#linear-gradient-9);"/><path d="m5.17,22.96h4.36c1.38,0,2.5,1.12,2.5,2.5v9.69c0,1.38-1.12,2.5-2.5,2.5h-4.36c-1.38,0-2.5-1.12-2.5-2.5v-9.69c0-1.38,1.12-2.5,2.5-2.5Z" transform="translate(37.65 22.96) rotate(90)" style="fill:url(#linear-gradient-10);"/><rect x=".94" y="26.56" width="12.82" height="7.49" rx="1.57" ry="1.57" style="fill:url(#linear-gradient-11);"/><path d="m145.64,0H36.78c-.67,0-1.22.55-1.22,1.22h0c0,.67.55,1.22,1.22,1.22h108.87c.67,0,1.22-.55,1.22-1.22h0c0-.67-.55-1.22-1.22-1.22Z" style="fill:url(#linear-gradient-12);"/></svg>