<?xml version="1.0" encoding="UTF-8"?><svg id="Objects" xmlns="http://www.w3.org/2000/svg" xmlns:xlink="http://www.w3.org/1999/xlink" viewBox="0 0 152.55 52.38"><defs><linearGradient id="linear-gradient" x1="76.27" y1="55.9" x2="76.27" y2="-2.17" gradientTransform="translate(47.99 104.55) rotate(-90)" gradientUnits="userSpaceOnUse"><stop offset="0" stop-color="#fa6b49"/><stop offset="1" stop-color="#feb749"/></linearGradient><linearGradient id="linear-gradient-2" x1="76.27" y1="51.72" x2="76.27" y2="-6.34" gradientTransform="translate(52.17 100.38) rotate(-90)" gradientUnits="userSpaceOnUse"><stop offset="0" stop-color="#fde049"/><stop offset="1" stop-color="#fefe49"/></linearGradient><linearGradient id="linear-gradient-3" x1="76.27" y1="48.24" x2="76.27" y2="-2.51" gradientTransform="matrix(1,0,0,1,0,0)" xlink:href="#linear-gradient"/><linearGradient id="linear-gradient-4" x1="76.27" y1="48.24" x2="76.27" y2="-2.51" gradientUnits="userSpaceOnUse"><stop offset="0" stop-color="#eb5634"/><stop offset="1" stop-color="#feb749"/></linearGradient><linearGradient id="linear-gradient-5" x1="76.47" y1="51.18" x2="76.47" y2="30.43" gradientUnits="userSpaceOnUse"><stop offset="0" stop-color="#d64f2f"/><stop offset="1" stop-color="#feb749"/></linearGradient></defs><rect x="52.17" y="-47.99" width="48.21" height="152.55" rx="14.42" ry="14.42" transform="translate(104.55 -47.99) rotate(90)" style="fill:url(#linear-gradient);"/><rect x="52.17" y="-52.17" width="48.21" height="152.55" rx="14.42" ry="14.42" transform="translate(100.38 -52.17) rotate(90)" style="fill:url(#linear-gradient-2);"/><rect x="3.04" y="3.04" width="146.48" height="42.14" rx="11.39" ry="11.39" style="fill:url(#linear-gradient-3);"/><path d="m3.04,27.58v6.2c0,6.29,5.1,11.39,11.39,11.39h123.7c6.29,0,11.39-5.1,11.39-11.39v-6.2H3.04Z" style="fill:url(#linear-gradient-4);"/><rect x="30.06" y="48.21" width="92.82" height="4.18" style="fill:url(#linear-gradient-5);"/></svg>