<?xml version="1.0" encoding="UTF-8"?><svg id="Objects" xmlns="http://www.w3.org/2000/svg" xmlns:xlink="http://www.w3.org/1999/xlink" viewBox="0 0 186.91 71.24"><defs><linearGradient id="linear-gradient" x1="93.46" y1="70.7" x2="93.46" y2="-11.83" gradientUnits="userSpaceOnUse"><stop offset="0" stop-color="#43466e"/><stop offset="1" stop-color="#585e81"/></linearGradient><linearGradient id="linear-gradient-2" x1="1156.32" y1="-2934.81" x2="1224.91" y2="-2934.81" gradientTransform="translate(3028.27 1226.24) rotate(-90)" xlink:href="#linear-gradient"/></defs><rect x="1.28" y="12.85" width="184.36" height="45.54" rx="11.59" ry="11.59" style="fill:url(#linear-gradient); stroke:#6e78b3; stroke-miterlimit:10; stroke-width:2.55px;"/><path d="m62.57,22.91v25.41c0,3.17,1.69,6.11,4.44,7.69l22.01,12.71c2.75,1.59,6.13,1.59,8.88,0l22.01-12.71c2.75-1.59,4.44-4.52,4.44-7.69v-25.41c0-3.17-1.69-6.11-4.44-7.69l-22.01-12.71c-2.75-1.59-6.13-1.59-8.88,0l-22.01,12.71c-2.75,1.59-4.44,4.52-4.44,7.69Z" style="fill:url(#linear-gradient-2); stroke:#6e78b3; stroke-miterlimit:10; stroke-width:2.65px;"/><path d="m70.17,26.04v19.16c0,2.39,1.28,4.6,3.35,5.8l16.59,9.58c2.07,1.2,4.62,1.2,6.7,0l16.59-9.58c2.07-1.2,3.35-3.41,3.35-5.8v-19.16c0-2.39-1.28-4.6-3.35-5.8l-16.59-9.58c-2.07-1.2-4.62-1.2-6.7,0l-16.59,9.58c-2.07,1.2-3.35,3.41-3.35,5.8Z" style="fill:#282844;"/></svg>