<?xml version="1.0" encoding="UTF-8"?><svg id="Objects" xmlns="http://www.w3.org/2000/svg" xmlns:xlink="http://www.w3.org/1999/xlink" viewBox="0 0 65.4 69.39"><defs><linearGradient id="linear-gradient" x1="32.7" y1="66.76" x2="32.7" y2="-5.46" gradientUnits="userSpaceOnUse"><stop offset="0" stop-color="#43466e"/><stop offset="1" stop-color="#585e81"/></linearGradient><linearGradient id="linear-gradient-2" x1="24.83" y1="50.04" x2="24.83" y2="14.97" gradientTransform="translate(-9.59 59.25) rotate(-90)" gradientUnits="userSpaceOnUse"><stop offset="0" stop-color="#d92348"/><stop offset="1" stop-color="#ff476a"/></linearGradient><linearGradient id="linear-gradient-3" x1="24.83" y1="48.65" x2="24.83" y2="13.58" gradientTransform="translate(-8.2 57.86) rotate(-90)" gradientUnits="userSpaceOnUse"><stop offset="0" stop-color="#fd859b"/><stop offset="1" stop-color="#ff8aa0"/></linearGradient><linearGradient id="linear-gradient-4" x1="24.83" y1="47.58" x2="24.83" y2="14.92" gradientTransform="matrix(1,0,0,1,0,0)" xlink:href="#linear-gradient-2"/><linearGradient id="linear-gradient-5" x1="40.47" x2="40.47" gradientTransform="translate(6.05 74.89) rotate(-90)" xlink:href="#linear-gradient-2"/><linearGradient id="linear-gradient-6" x1="40.47" x2="40.47" gradientTransform="translate(7.44 73.5) rotate(-90)" xlink:href="#linear-gradient-3"/><linearGradient id="linear-gradient-7" x1="40.47" y1="47.58" x2="40.47" y2="14.92" gradientTransform="matrix(1,0,0,1,0,0)" xlink:href="#linear-gradient-2"/></defs><circle cx="32.7" cy="37.43" r="31.42" style="fill:#464866; stroke:#464866; stroke-miterlimit:10; stroke-width:1.08px;"/><circle cx="32.7" cy="32.7" r="31.42" style="fill:url(#linear-gradient); stroke:#6e78b3; stroke-miterlimit:10; stroke-width:2.55px;"/><path d="m14.35,28.34h20.96c2.84,0,5.14,2.31,5.14,5.14v1.88c0,2.84-2.3,5.14-5.14,5.14H14.35c-2.84,0-5.14-2.3-5.14-5.14v-1.88c0-2.84,2.31-5.14,5.14-5.14Z" transform="translate(59.25 9.59) rotate(90)" style="fill:url(#linear-gradient-2);"/><path d="m14.35,26.95h20.96c2.84,0,5.14,2.31,5.14,5.14v1.88c0,2.84-2.3,5.14-5.14,5.14H14.35c-2.84,0-5.14-2.3-5.14-5.14v-1.88c0-2.84,2.31-5.14,5.14-5.14Z" transform="translate(57.86 8.2) rotate(90)" style="fill:url(#linear-gradient-3);"/><rect x="19.83" y="18.48" width="10.01" height="29.09" rx="4.07" ry="4.07" style="fill:url(#linear-gradient-4);"/><path d="m29.99,28.34h20.96c2.84,0,5.14,2.31,5.14,5.14v1.88c0,2.84-2.31,5.14-5.14,5.14h-20.96c-2.84,0-5.14-2.3-5.14-5.14v-1.88c0-2.84,2.31-5.14,5.14-5.14Z" transform="translate(74.89 -6.05) rotate(90)" style="fill:url(#linear-gradient-5);"/><path d="m29.99,26.95h20.96c2.84,0,5.14,2.31,5.14,5.14v1.88c0,2.84-2.31,5.14-5.14,5.14h-20.96c-2.84,0-5.14-2.3-5.14-5.14v-1.88c0-2.84,2.31-5.14,5.14-5.14Z" transform="translate(73.5 -7.44) rotate(90)" style="fill:url(#linear-gradient-6);"/><rect x="35.47" y="18.48" width="10.01" height="29.09" rx="4.07" ry="4.07" style="fill:url(#linear-gradient-7);"/></svg>