<?xml version="1.0" encoding="UTF-8"?><svg id="Objects" xmlns="http://www.w3.org/2000/svg" xmlns:xlink="http://www.w3.org/1999/xlink" viewBox="0 0 65.4 69.39"><defs><linearGradient id="linear-gradient" x1="32.7" y1="69.5" x2="32.7" y2="-7.52" gradientUnits="userSpaceOnUse"><stop offset="0" stop-color="#2a4ebf"/><stop offset="1" stop-color="#47c8fe"/></linearGradient><linearGradient id="linear-gradient-2" x1="32.7" y1="65.16" x2="32.7" y2="-11.85" gradientUnits="userSpaceOnUse"><stop offset="0" stop-color="#abd5f5"/><stop offset="1" stop-color="#c1ecfe"/></linearGradient><linearGradient id="linear-gradient-3" x1="32.7" y1="62.91" x2="32.7" y2="-8.8" xlink:href="#linear-gradient"/><linearGradient id="linear-gradient-4" x1="33.72" y1="50.33" x2="33.72" y2="9.18" gradientUnits="userSpaceOnUse"><stop offset="0" stop-color="#fa6b49"/><stop offset="1" stop-color="#feb749"/></linearGradient><linearGradient id="linear-gradient-5" x1="33.72" y1="48.56" x2="33.72" y2="7.41" gradientUnits="userSpaceOnUse"><stop offset="0" stop-color="#fde049"/><stop offset="1" stop-color="#fefe49"/></linearGradient><linearGradient id="linear-gradient-6" x1="33.72" y1="47.46" x2="33.72" y2="9.11" xlink:href="#linear-gradient-4"/></defs><path d="m32.7,69.39c-5,0-10.06-.22-15.06-.64-8.99-.76-16.07-7.84-16.83-16.83C-.04,41.93-.04,31.8.81,21.8,1.58,12.82,8.65,5.74,17.64,4.98c5-.42,10.06-.64,15.06-.64s10.06.21,15.06.64c8.99.76,16.07,7.84,16.83,16.83.85,9.99.85,20.13,0,30.12-.76,8.99-7.84,16.07-16.83,16.83-5,.42-10.06.64-15.06.64Z" style="fill:url(#linear-gradient);"/><path d="m32.7,65.05c-5,0-10.06-.22-15.06-.64-8.99-.76-16.07-7.84-16.83-16.83C-.04,37.59-.04,27.46.81,17.47,1.58,8.48,8.65,1.4,17.64.64c5-.42,10.06-.64,15.06-.64s10.06.21,15.06.64c8.99.76,16.07,7.84,16.83,16.83.85,9.99.85,20.13,0,30.12-.76,8.99-7.84,16.07-16.83,16.83-5,.42-10.06.64-15.06.64Z" style="fill:url(#linear-gradient-2);"/><path d="m47.57,62.18c-9.91.84-19.83.84-29.74,0-7.85-.67-14.12-6.93-14.79-14.79-.84-9.91-.84-19.83,0-29.74.67-7.85,6.93-14.12,14.79-14.79,9.91-.84,19.83-.84,29.74,0,7.85.67,14.12,6.93,14.79,14.79.84,9.91.84,19.82,0,29.74-.67,7.85-6.93,14.12-14.79,14.79Z" style="fill:url(#linear-gradient-3);"/><path d="m41.49,51.69c-.9,0-1.77-.22-2.59-.65l-5.19-2.73-5.18,2.73c-.82.43-1.69.65-2.59.65-1.64,0-3.19-.73-4.26-2-1.06-1.26-1.49-2.86-1.21-4.5l.99-5.77-4.19-4.09c-1.53-1.49-2.06-3.67-1.41-5.69.66-2.03,2.38-3.47,4.48-3.78l5.8-.84,2.59-5.25c.94-1.91,2.85-3.1,4.98-3.1s4.04,1.19,4.98,3.1l2.59,5.25,5.8.84c2.11.31,3.82,1.75,4.48,3.78.66,2.03.12,4.21-1.4,5.69l-4.19,4.09.99,5.77c.28,1.64-.15,3.24-1.21,4.5-1.07,1.27-2.62,2-4.26,2Z" style="fill:url(#linear-gradient-4);"/><path d="m41.49,49.92c-.9,0-1.77-.22-2.59-.65l-5.19-2.73-5.18,2.73c-.82.43-1.69.65-2.59.65-1.64,0-3.19-.73-4.26-2-1.06-1.26-1.49-2.86-1.21-4.5l.99-5.77-4.19-4.09c-1.53-1.49-2.06-3.67-1.41-5.69.66-2.03,2.38-3.47,4.48-3.78l5.8-.84,2.59-5.25c.94-1.91,2.85-3.1,4.98-3.1s4.04,1.19,4.98,3.1l2.59,5.25,5.8.84c2.11.31,3.82,1.75,4.48,3.78.66,2.03.12,4.21-1.4,5.69l-4.19,4.09.99,5.77c.28,1.64-.15,3.24-1.21,4.5-1.07,1.27-2.62,2-4.26,2Z" style="fill:url(#linear-gradient-5);"/><path d="m37.63,18.51l2.87,5.82,6.42.93c3.58.52,5,4.91,2.42,7.44l-4.64,4.53,1.1,6.39c.61,3.56-3.13,6.28-6.33,4.6l-5.74-3.02-5.74,3.02c-3.2,1.68-6.94-1.03-6.33-4.6l1.1-6.39-4.64-4.53c-2.59-2.52-1.16-6.92,2.42-7.44l6.42-.93,2.87-5.82c1.6-3.24,6.22-3.24,7.82,0Z" style="fill:url(#linear-gradient-6);"/><path d="m42.18,27.44c0,1.11-.9,2-2,2s-2-.9-2-2,.9-2,2-2,2,.9,2,2Z" style="fill:#fff;"/><path d="m43.11,30.6c0,.36-.29.65-.65.65s-.65-.29-.65-.65.29-.65.65-.65.65.29.65.65Z" style="fill:#fff;"/></svg>