<?xml version="1.0" encoding="UTF-8"?><svg id="Objects" xmlns="http://www.w3.org/2000/svg" xmlns:xlink="http://www.w3.org/1999/xlink" viewBox="0 0 12.72 12.91"><defs><linearGradient id="linear-gradient" x1="6.36" y1="12.43" x2="6.36" y2="-2" gradientUnits="userSpaceOnUse"><stop offset="0" stop-color="#929292"/><stop offset="1" stop-color="silver"/></linearGradient><linearGradient id="linear-gradient-2" x1="6.36" y1="11.81" x2="6.36" y2="-2.62" gradientUnits="userSpaceOnUse"><stop offset="0" stop-color="#d8d8d8"/><stop offset="1" stop-color="#eaeaea"/></linearGradient><linearGradient id="linear-gradient-3" x1="6.36" y1="11.42" x2="6.36" y2="-2.02" xlink:href="#linear-gradient"/></defs><path d="m9.08,12.91c-.31,0-.62-.08-.91-.23l-1.82-.96-1.82.96c-.29.15-.59.23-.91.23-.57,0-1.12-.26-1.49-.7-.37-.44-.52-1-.42-1.58l.35-2.03-1.47-1.43C.05,6.65-.13,5.88.1,5.17c.23-.71.83-1.22,1.57-1.33l2.03-.3.91-1.84c.33-.67,1-1.09,1.75-1.09s1.42.42,1.75,1.09l.91,1.84,2.03.3c.74.11,1.34.62,1.57,1.33.23.71.04,1.48-.49,2l-1.47,1.43.35,2.03c.1.58-.05,1.14-.42,1.58-.38.45-.92.7-1.49.7Z" style="fill:url(#linear-gradient);"/><path d="m9.08,12.29c-.31,0-.62-.08-.91-.23l-1.82-.96-1.82.96c-.29.15-.59.23-.91.23-.57,0-1.12-.26-1.49-.7-.37-.44-.52-1-.42-1.58l.35-2.03-1.47-1.43C.05,6.02-.13,5.26.1,4.55c.23-.71.83-1.22,1.57-1.33l2.03-.3.91-1.84c.33-.67,1-1.09,1.75-1.09s1.42.42,1.75,1.09l.91,1.84,2.03.3c.74.11,1.34.62,1.57,1.33.23.71.04,1.48-.49,2l-1.47,1.43.35,2.03c.1.58-.05,1.14-.42,1.58-.38.45-.92.7-1.49.7Z" style="fill:url(#linear-gradient-2);"/><path d="m7.73,1.27l1.01,2.04,2.25.33c1.25.18,1.76,1.72.85,2.61l-1.63,1.59.38,2.24c.21,1.25-1.1,2.2-2.22,1.61l-2.01-1.06-2.01,1.06c-1.12.59-2.43-.36-2.22-1.61l.38-2.24-1.63-1.59C-.03,5.36.48,3.82,1.73,3.64l2.25-.33,1.01-2.04c.56-1.14,2.18-1.14,2.74,0Z" style="fill:url(#linear-gradient-3);"/><path d="m9.33,4.4c0,.39-.31.7-.7.7s-.7-.31-.7-.7.31-.7.7-.7.7.31.7.7Z" style="fill:#fff;"/><path d="m9.65,5.51c0,.13-.1.23-.23.23s-.23-.1-.23-.23.1-.23.23-.23.23.1.23.23Z" style="fill:#fff;"/></svg>