<?xml version="1.0" encoding="UTF-8" standalone="no"?>
<!-- Created with Inkscape (http://www.inkscape.org/) -->

<svg
   width="512"
   height="512"
   viewBox="0 0 512 512"
   version="1.1"
   id="svg1"
   inkscape:version="1.3.2 (091e20e, 2023-11-25)"
   sodipodi:docname="េះ.svg"
   xmlns:inkscape="http://www.inkscape.org/namespaces/inkscape"
   xmlns:sodipodi="http://sodipodi.sourceforge.net/DTD/sodipodi-0.dtd"
   xmlns="http://www.w3.org/2000/svg"
   xmlns:svg="http://www.w3.org/2000/svg">
  <sodipodi:namedview
     id="namedview1"
     pagecolor="#ffffff"
     bordercolor="#000000"
     borderopacity="0.25"
     inkscape:showpageshadow="2"
     inkscape:pageopacity="0.0"
     inkscape:pagecheckerboard="0"
     inkscape:deskcolor="#d1d1d1"
     inkscape:document-units="px"
     inkscape:zoom="0.63671875"
     inkscape:cx="254.42945"
     inkscape:cy="380.8589"
     inkscape:window-width="1392"
     inkscape:window-height="942"
     inkscape:window-x="0"
     inkscape:window-y="25"
     inkscape:window-maximized="0"
     inkscape:current-layer="svg1" />
  <defs
     id="defs1" />
  <path
     style="font-size:341.333px;font-family:'Khmer OS Content';-inkscape-font-specification:'Khmer OS Content';text-align:center;text-anchor:middle;stroke:#000000;stroke-width:0"
     d="m 104.80172,355.9999 q 9.99999,0 9.99999,-24.99997 0,-16.66666 -9.99999,-16.66666 z M 74.80175,220.50003 q 0,-17.66665 -33.333302,-27.99997 3.33333,-16.83332 15.833318,-39.16663 12.666655,-22.33331 21.666646,-22.33331 7.333327,0 19.166649,7.16666 l 11.666659,7.16666 q 5.16666,3.16666 12.16665,3.16666 3.66666,0 7.83333,-0.83333 -1.66667,11.66665 -6.83333,19.16665 -4.99999,7.33332 -13.49999,8.16665 -0.83333,0.16667 -1.66666,0.16667 -8.333327,0 -22.49998,-8.83332 -4.33333,-2.5 -7.999993,-2.5 -10.49999,0 -18.166649,19.16665 45.666622,14.66665 45.666622,27.99997 v 86.66658 q 26.66664,0 26.66664,33.33331 0,16.66665 -8.83332,33.3333 -8.66666,16.66665 -26.166644,16.66665 -21.666646,0 -21.666646,-16.66665 z m 337.49968,-43.66662 q 0,8.33332 3.33333,12.49998 3.33333,4.16667 9.99999,4.16667 6.66666,0 9.99999,-4.16667 3.33333,-4.16666 3.33333,-12.49998 0,-8.33333 -3.33333,-12.49999 -3.33333,-4.16666 -9.99999,-4.16666 -6.66666,0 -9.99999,4.16666 -3.33333,4.16666 -3.33333,12.49999 z m 50.83329,0 q 0,18.83331 -9.33333,28.16664 -9.33332,9.33332 -28.16664,9.33332 -18.83331,0 -28.16664,-9.33332 -9.33332,-9.33333 -9.33332,-28.16664 0,-18.83332 9.33332,-28.16664 9.33333,-9.33333 28.16664,-9.33333 18.83332,0 28.16664,9.33333 9.33333,9.33332 9.33333,28.16664 z m -50.83329,158.33318 q 0,8.33332 3.33333,12.49999 3.33333,4.16666 9.99999,4.16666 6.66666,0 9.99999,-4.16666 3.33333,-4.16667 3.33333,-12.49999 0,-8.33333 -3.33333,-12.49999 -3.33333,-4.16666 -9.99999,-4.16666 -6.66666,0 -9.99999,4.16666 -3.33333,4.16666 -3.33333,12.49999 z m 50.83329,0 q 0,18.83331 -9.33333,28.16664 -9.33332,9.33332 -28.16664,9.33332 -18.83331,0 -28.16664,-9.33332 -9.33332,-9.33333 -9.33332,-28.16664 0,-18.83332 9.33332,-28.16664 9.33333,-9.33333 28.16664,-9.33333 18.83332,0 28.16664,9.33333 9.33333,9.33332 9.33333,28.16664 z"
     id="text1"
     inkscape:label="text1"
     aria-label="េះ" />
  <path
     style="fill:#000000;stroke:#000000;stroke-width:0"
     d="m 105.22699,304.68712 23.55829,10.99386 v 43.97546 l -28.26994,25.12884 -15.705524,1.57055 9.423313,-174.33129 -47.116565,-25.12883 29.840491,-43.97546 29.840495,17.27607 h 43.97546"
     id="path1" />
  <path
     style="fill:#000000;stroke:#000000;stroke-width:0"
     d="m 427.19018,138.20859 -25.12883,26.69939 v 31.41104 l 25.12883,15.70552 23.55829,-12.56442 1.57055,-29.84049 -7.85276,-26.69938 -39.26381,-25.12884"
     id="path2" />
  <path
     style="fill:#000000;stroke:#000000;stroke-width:0"
     d="m 427.19018,303.11656 -29.84049,21.98773 1.57056,31.41105 28.26993,14.13497 25.12884,-9.42332 9.42331,-28.26993 -14.13497,-25.12884 -40.83435,-15.70552"
     id="path3" />
</svg>
