<svg id="z20023" class="acjk" version="1.1" viewBox="0 0 512 512" xmlns="http://www.w3.org/2000/svg" xmlns:xlink="http://www.w3.org/1999/xlink">
<style>
<![CDATA[
@keyframes zk {
	to {
		stroke-dashoffset:0;
	}
}
svg.acjk path[clip-path] {
	--t:0.8s;
	animation:zk var(--t) linear forwards var(--d);
	stroke-dasharray:3337;
	stroke-dashoffset:3339;
	stroke-width:40;
	stroke-linecap:round;
	fill:none;
	stroke:#000;
}
svg.acjk path[id] {fill:#ccc;}
]]>
</style>
<path id="z20023d1" d="m 171.5,231.00002 q 16.66665,-33.3333 83.33325,-33.3333 66.66661,0 83.33326,33.3333 v 149.99986 h -29.99998 v -143.3332 q -9.99999,-19.99998 -53.33328,-19.99998 -43.33329,0 -53.33328,19.99998 v 143.3332 H 171.5 Z m 14.16665,-21.49998 Q 172,207.66671 163.33334,199.66672 q -8.49999,-8.16666 -8.49999,-19.66665 0,-11.49999 38.99996,-48.99995 34.99997,0 65.49994,28.99997 31.49997,-28.99997 39.33329,-28.99997 14.33332,0 30.83331,15.16665 10.33332,9.66666 17.66665,9.66666 4.33333,0 7.66666,-3.33333 0,13.83332 -5.5,23.33331 -5.66666,9.49999 -15.16665,9.49999 -9.49999,0 -41.49996,-24.66665 h -0.16667 q -11.66665,0 -44.16662,29.49998 -18.33332,-17.33332 -30.66664,-23.16665 -12.16665,-5.83333 -23.83331,-6.66666 l -16.66665,15.66665 q 3,17.83332 21.49998,26.99998 z"/>
<path id="z20023d2" d="m 171.5,231.00002 q 16.66665,-33.3333 83.33325,-33.3333 66.66661,0 83.33326,33.3333 v 149.99986 h -29.99998 v -143.3332 q -9.99999,-19.99998 -53.33328,-19.99998 -43.33329,0 -53.33328,19.99998 v 143.3332 H 171.5 Z m 14.16665,-21.49998 Q 172,207.66671 163.33334,199.66672 q -8.49999,-8.16666 -8.49999,-19.66665 0,-11.49999 38.99996,-48.99995 34.99997,0 65.49994,28.99997 31.49997,-28.99997 39.33329,-28.99997 14.33332,0 30.83331,15.16665 10.33332,9.66666 17.66665,9.66666 4.33333,0 7.66666,-3.33333 0,13.83332 -5.5,23.33331 -5.66666,9.49999 -15.16665,9.49999 -9.49999,0 -41.49996,-24.66665 h -0.16667 q -11.66665,0 -44.16662,29.49998 -18.33332,-17.33332 -30.66664,-23.16665 -12.16665,-5.83333 -23.83331,-6.66666 l -16.66665,15.66665 q 3,17.83332 21.49998,26.99998 z"/>
<defs>
	<clipPath id="z20023c1"><use xlink:href="#z20023d1"/></clipPath>
	<clipPath id="z20023c2"><use xlink:href="#z20023d2"/></clipPath>
</defs>
<path style="--d:1s;" pathLength="3333" clip-path="url(#z20023c1)" d="M 183.7546,397.34969 V 243.43558 l 32.9816,-25.12883 58.11043,-6.28221 45.54601,25.12883 10.99386,21.98773 -4.71165,125.64418"/>
<path style="--d:2s;" pathLength="3333" clip-path="url(#z20023c2)" d="m 194.74847,213.59509 -32.9816,-31.41104 37.69325,-40.83436 50.25767,36.1227 54.96933,-37.69325 40.83435,40.83436 50.25767,-25.12884"/>
</svg>
  