<svg id="z20023" class="acjk" version="1.1" viewBox="0 0 512 512" xmlns="http://www.w3.org/2000/svg" xmlns:xlink="http://www.w3.org/1999/xlink">
<style>
<![CDATA[
@keyframes zk {
	to {
		stroke-dashoffset:0;
	}
}
svg.acjk path[clip-path] {
	--t:0.8s;
	animation:zk var(--t) linear forwards var(--d);
	stroke-dasharray:3337;
	stroke-dashoffset:3339;
	stroke-width:40;
	stroke-linecap:round;
	fill:none;
	stroke:#000;
}
svg.acjk path[id] {fill:#ccc;}
]]>
</style>
<path id="z20023d1" d="m 113.16672,156.00009 q -13.33332,3.33333 -13.33332,24.99998 0,16.66665 13.33332,16.66665 z m 253.33309,64.49994 q 0,-17.66665 -33.3333,-27.99997 3.33333,-16.83332 15.83332,-39.16663 12.66665,-22.33331 21.66664,-22.33331 7.33333,0 19.16665,7.16666 l 11.66666,7.16666 q 5.16666,3.16666 12.16665,3.16666 3.66667,0 7.83333,-0.83333 -1.66667,11.66665 -6.83333,19.16665 -4.99999,7.33332 -13.49998,8.16665 -0.83334,0.16667 -1.66667,0.16667 -8.33332,0 -22.49998,-8.83332 -4.33333,-2.5 -7.99999,-2.5 -10.49999,0 -18.16665,19.16665 45.66662,14.66665 45.66662,27.99997 v 136.66654 q -16.66665,33.3333 -78.33326,33.3333 -42.16662,0 -63.33327,-15.66665 -21.16664,15.66665 -63.33327,15.66665 -61.66661,0 -78.33326,-33.3333 V 214.33337 q -29.999971,0 -29.999971,-33.3333 0,-21.66665 10.833323,-35.8333 10.833328,-14.16665 24.166648,-14.16665 24.99997,0 24.99997,16.66665 v 193.33315 q 9.99999,19.99998 48.33329,19.99998 38.3333,0 48.33329,-19.99998 V 220.50003 q 0,-17.66665 -33.33331,-27.99997 3.33333,-16.83332 15.83332,-39.16663 12.66666,-22.33331 21.66665,-22.33331 7.33333,0 19.16665,7.16666 l 11.66665,7.16666 q 5.16666,3.16666 12.16666,3.16666 3.66666,0 7.83332,-0.83333 -1.66666,11.66665 -6.83332,19.16665 -5,7.33332 -13.49999,8.16665 -0.83333,0.16667 -1.66667,0.16667 -8.33332,0 -22.49997,-8.83332 -4.33333,-2.5 -8,-2.5 -10.49999,0 -18.16665,19.16665 45.66663,14.66665 45.66663,27.99997 v 129.99988 q 9.99999,19.99998 48.33328,19.99998 38.3333,0 48.33329,-19.99998 z"/>
<path id="z20023d2" d="m 113.16672,156.00009 q -13.33332,3.33333 -13.33332,24.99998 0,16.66665 13.33332,16.66665 z m 253.33309,64.49994 q 0,-17.66665 -33.3333,-27.99997 3.33333,-16.83332 15.83332,-39.16663 12.66665,-22.33331 21.66664,-22.33331 7.33333,0 19.16665,7.16666 l 11.66666,7.16666 q 5.16666,3.16666 12.16665,3.16666 3.66667,0 7.83333,-0.83333 -1.66667,11.66665 -6.83333,19.16665 -4.99999,7.33332 -13.49998,8.16665 -0.83334,0.16667 -1.66667,0.16667 -8.33332,0 -22.49998,-8.83332 -4.33333,-2.5 -7.99999,-2.5 -10.49999,0 -18.16665,19.16665 45.66662,14.66665 45.66662,27.99997 v 136.66654 q -16.66665,33.3333 -78.33326,33.3333 -42.16662,0 -63.33327,-15.66665 -21.16664,15.66665 -63.33327,15.66665 -61.66661,0 -78.33326,-33.3333 V 214.33337 q -29.999971,0 -29.999971,-33.3333 0,-21.66665 10.833323,-35.8333 10.833328,-14.16665 24.166648,-14.16665 24.99997,0 24.99997,16.66665 v 193.33315 q 9.99999,19.99998 48.33329,19.99998 38.3333,0 48.33329,-19.99998 V 220.50003 q 0,-17.66665 -33.33331,-27.99997 3.33333,-16.83332 15.83332,-39.16663 12.66666,-22.33331 21.66665,-22.33331 7.33333,0 19.16665,7.16666 l 11.66665,7.16666 q 5.16666,3.16666 12.16666,3.16666 3.66666,0 7.83332,-0.83333 -1.66666,11.66665 -6.83332,19.16665 -5,7.33332 -13.49999,8.16665 -0.83333,0.16667 -1.66667,0.16667 -8.33332,0 -22.49997,-8.83332 -4.33333,-2.5 -8,-2.5 -10.49999,0 -18.16665,19.16665 45.66663,14.66665 45.66663,27.99997 v 129.99988 q 9.99999,19.99998 48.33328,19.99998 38.3333,0 48.33329,-19.99998 z"/>
<defs>
	<clipPath id="z20023c1"><use xlink:href="#z20023d1"/></clipPath>
	<clipPath id="z20023c2"><use xlink:href="#z20023d2"/></clipPath>
</defs>
<path style="--d:1s;" pathLength="3333" clip-path="url(#z20023c1)" d="m 114.65031,208.88344 -28.269942,-3.14111 -7.852761,-26.69939 17.276074,-42.4049 32.981599,-4.71166 -1.57056,216.7362 48.68712,25.12883 59.68098,-10.99386 18.84663,-17.27608 L 256,210.45399 l -45.54601,-25.12884 25.12883,-50.25767 65.96319,39.26381"/>
<path style="--d:2s;" pathLength="3333" clip-path="url(#z20023c2)" d="m 245.00613,339.23926 37.69326,29.84049 50.25767,3.14111 50.25766,-26.69939 -3.1411,-139.77914 -47.11656,-21.98773 10.99386,-29.84049 17.27607,-18.84663 75.38651,37.69326"/>
</svg>
  