<svg id="z20023" class="acjk" version="1.1" viewBox="0 0 512 512" xmlns="http://www.w3.org/2000/svg" xmlns:xlink="http://www.w3.org/1999/xlink">
<style>
<![CDATA[
@keyframes zk {
	to {
		stroke-dashoffset:0;
	}
}
svg.acjk path[clip-path] {
	--t:0.8s;
	animation:zk var(--t) linear forwards var(--d);
	stroke-dasharray:3337;
	stroke-dashoffset:3339;
	stroke-width:40;
	stroke-linecap:round;
	fill:none;
	stroke:#000;
}
svg.acjk path[id] {fill:#ccc;}
]]>
</style>
<path id="z20023d1" d="m 308.16653,232.50002 q -11.66665,0 -11.66665,13.49999 0,9.99999 11.66665,9.99999 z m 0,40.16663 q -28.3333,0 -28.3333,-26.66664 0,-31.66664 28.3333,-31.66664 29.99998,0 29.99998,16.66665 v 116.66656 q -16.66665,33.3333 -83.33326,33.3333 -66.6666,0 -83.33325,-33.3333 v -142.3332 q -4.5,-2.33333 -7.99999,-5.83333 -8.66666,-7.99999 -8.66666,-19.49998 0,-11.49999 38.99996,-48.99995 34.99997,0 65.49994,28.99997 31.49997,-28.99997 39.33329,-28.99997 14.33332,0 30.83331,15.16665 10.33332,9.66666 17.66665,9.66666 4.33333,0 7.66666,-3.33333 0,13.83332 -5.5,23.33331 -5.66666,9.49999 -15.16665,9.49999 -9.49999,0 -41.49996,-24.66665 h -0.16667 q -11.66665,0 -44.16662,29.49998 -18.33332,-17.33332 -30.66664,-23.16665 -12.16665,-5.83333 -23.83331,-6.66666 l -16.66665,15.66665 q 3,17.83332 24.33331,27.99998 v 136.99987 q 9.99999,19.99998 53.33328,19.99998 43.33329,0 53.33328,-19.99998 z"/>
<path id="z20023d2" d="m 308.16653,232.50002 q -11.66665,0 -11.66665,13.49999 0,9.99999 11.66665,9.99999 z m 0,40.16663 q -28.3333,0 -28.3333,-26.66664 0,-31.66664 28.3333,-31.66664 29.99998,0 29.99998,16.66665 v 116.66656 q -16.66665,33.3333 -83.33326,33.3333 -66.6666,0 -83.33325,-33.3333 v -142.3332 q -4.5,-2.33333 -7.99999,-5.83333 -8.66666,-7.99999 -8.66666,-19.49998 0,-11.49999 38.99996,-48.99995 34.99997,0 65.49994,28.99997 31.49997,-28.99997 39.33329,-28.99997 14.33332,0 30.83331,15.16665 10.33332,9.66666 17.66665,9.66666 4.33333,0 7.66666,-3.33333 0,13.83332 -5.5,23.33331 -5.66666,9.49999 -15.16665,9.49999 -9.49999,0 -41.49996,-24.66665 h -0.16667 q -11.66665,0 -44.16662,29.49998 -18.33332,-17.33332 -30.66664,-23.16665 -12.16665,-5.83333 -23.83331,-6.66666 l -16.66665,15.66665 q 3,17.83332 24.33331,27.99998 v 136.99987 q 9.99999,19.99998 53.33328,19.99998 43.33329,0 53.33328,-19.99998 z"/>
<defs>
	<clipPath id="z20023c1"><use xlink:href="#z20023d1"/></clipPath>
	<clipPath id="z20023c2"><use xlink:href="#z20023d2"/></clipPath>
</defs>
<path style="--d:1s;" pathLength="3333" clip-path="url(#z20023c1)" d="m 186.89571,202.60123 v 146.06135 l 31.41104,18.84662 47.11656,4.71166 48.68712,-15.70552 10.99386,-21.98773 -3.1411,-114.65031 -29.84049,1.57055 -6.28221,21.98773 9.42331,20.41718 28.26994,1.57055"/>
<path style="--d:2s;" pathLength="3333" clip-path="url(#z20023c2)" d="m 196.31902,221.44785 -36.1227,-39.2638 34.55215,-39.2638 58.11043,29.84049 47.11656,-28.26994 62.82209,34.55214"/>
</svg>
  