<svg id="z20023" class="acjk" version="1.1" viewBox="0 0 512 512" xmlns="http://www.w3.org/2000/svg" xmlns:xlink="http://www.w3.org/1999/xlink">
<style>
<![CDATA[
@keyframes zk {
	to {
		stroke-dashoffset:0;
	}
}
svg.acjk path[clip-path] {
	--t:0.8s;
	animation:zk var(--t) linear forwards var(--d);
	stroke-dasharray:3337;
	stroke-dashoffset:3339;
	stroke-width:40;
	stroke-linecap:round;
	fill:none;
	stroke:#000;
}
svg.acjk path[id] {fill:#ccc;}
]]>
</style>
<path id="z20023d1" d="m 308.16653,232.50002 q -11.66665,0 -11.66665,13.49999 0,9.99999 11.66665,9.99999 z M 171.5,212.66671 q -11.83332,-10.99999 -14.33332,-15.16666 -2.33333,-4.33333 -2.33333,-10.66665 0,-6.16666 2.49999,-10.49999 2.33334,-4.33333 21.66665,-24.83331 19.49998,-20.49998 25.66664,-20.49998 6,0 31.83331,17.83331 33.99996,23.83331 49.99995,23.83331 31.66663,0 31.66663,-23.33331 0,-8.33332 -8.33332,-14.99998 -8.33333,-6.66666 -23.33331,-6.66666 -21.66665,0 -21.66665,-14.99999 0,-14.999985 21.66665,-14.999985 23.33331,0 37.49996,13.333325 14.16666,13.33332 14.16666,38.33329 0,23.66665 -13.49999,33.8333 -13.33332,10.16666 -39.8333,10.16666 -39.49996,0 -60.16661,-14.49999 l -10.33332,-7.16666 q -9.33332,-6.49999 -15.33332,-6.49999 -0.66666,0 -1.33333,0.16667 -6.49999,0.83333 -12.33332,8.16666 -5.66666,7.33332 -5.66666,12.83332 0,5.66666 21.83331,21.16664 v 133.49988 q 9.99999,19.99998 53.33328,19.99998 43.33329,0 53.33328,-19.99998 v -68.33327 q -28.3333,0 -28.3333,-26.66664 0,-31.66664 28.3333,-31.66664 29.99998,0 29.99998,16.66665 v 116.66656 q -16.66665,33.3333 -83.33326,33.3333 -66.6666,0 -83.33325,-33.3333 z"/>
<path id="z20023d2" d="m 308.16653,232.50002 q -11.66665,0 -11.66665,13.49999 0,9.99999 11.66665,9.99999 z M 171.5,212.66671 q -11.83332,-10.99999 -14.33332,-15.16666 -2.33333,-4.33333 -2.33333,-10.66665 0,-6.16666 2.49999,-10.49999 2.33334,-4.33333 21.66665,-24.83331 19.49998,-20.49998 25.66664,-20.49998 6,0 31.83331,17.83331 33.99996,23.83331 49.99995,23.83331 31.66663,0 31.66663,-23.33331 0,-8.33332 -8.33332,-14.99998 -8.33333,-6.66666 -23.33331,-6.66666 -21.66665,0 -21.66665,-14.99999 0,-14.999985 21.66665,-14.999985 23.33331,0 37.49996,13.333325 14.16666,13.33332 14.16666,38.33329 0,23.66665 -13.49999,33.8333 -13.33332,10.16666 -39.8333,10.16666 -39.49996,0 -60.16661,-14.49999 l -10.33332,-7.16666 q -9.33332,-6.49999 -15.33332,-6.49999 -0.66666,0 -1.33333,0.16667 -6.49999,0.83333 -12.33332,8.16666 -5.66666,7.33332 -5.66666,12.83332 0,5.66666 21.83331,21.16664 v 133.49988 q 9.99999,19.99998 53.33328,19.99998 43.33329,0 53.33328,-19.99998 v -68.33327 q -28.3333,0 -28.3333,-26.66664 0,-31.66664 28.3333,-31.66664 29.99998,0 29.99998,16.66665 v 116.66656 q -16.66665,33.3333 -83.33326,33.3333 -66.6666,0 -83.33325,-33.3333 z"/>
<defs>
	<clipPath id="z20023c1"><use xlink:href="#z20023d1"/></clipPath>
	<clipPath id="z20023c2"><use xlink:href="#z20023d2"/></clipPath>
</defs>
<path style="--d:1s;" pathLength="3333" clip-path="url(#z20023c1)" d="m 185.32515,202.60123 1.57056,146.06135 37.69325,18.84662 67.53374,3.14111 32.98159,-31.41105 -1.57055,-122.50306 -34.55214,-3.14111 -10.99387,23.55828 4.71166,23.55829 54.96932,10.99386"/>
<path style="--d:2s;" pathLength="3333" clip-path="url(#z20023c2)" d="m 190.03681,219.8773 -28.26994,-32.98159 40.83436,-43.97546 37.69325,26.69938 37.69325,15.70552 36.1227,-7.85276 15.70552,-20.41718 -4.71166,-29.84049 -92.66257,-36.122695"/>
</svg>
  