<svg id="z20023" class="acjk" version="1.1" viewBox="0 0 512 512" xmlns="http://www.w3.org/2000/svg" xmlns:xlink="http://www.w3.org/1999/xlink">
<style>
<![CDATA[
@keyframes zk {
	to {
		stroke-dashoffset:0;
	}
}
svg.acjk path[clip-path] {
	--t:0.8s;
	animation:zk var(--t) linear forwards var(--d);
	stroke-dasharray:3337;
	stroke-dashoffset:3339;
	stroke-width:40;
	stroke-linecap:round;
	fill:none;
	stroke:#000;
}
svg.acjk path[id] {fill:#ccc;}
]]>
</style>
<path id="z20023d1" d="m 308.16653,232.50002 q -11.66665,0 -11.66665,13.49999 0,9.99999 11.66665,9.99999 z m 29.99998,131.83321 q 0,16.66665 -16.66665,16.66665 -14.99999,0 -27.83331,-12.83332 l -38.8333,-38.8333 -38.66663,38.8333 q -12.83332,12.83332 -27.99997,12.83332 -16.66665,0 -16.66665,-16.66665 V 212.66671 q -11.83332,-10.99999 -14.33332,-15.16666 -2.33333,-4.33333 -2.33333,-10.66665 0,-6.16666 2.49999,-10.49999 2.33334,-4.33333 21.66665,-24.83331 19.49998,-20.49998 25.66664,-20.49998 6,0 31.83331,17.83331 33.99996,23.83331 49.99995,23.83331 31.66663,0 31.66663,-23.33331 0,-8.33332 -8.33332,-14.99998 -8.33333,-6.66666 -23.33331,-6.66666 -21.66665,0 -21.66665,-14.99999 0,-14.999985 21.66665,-14.999985 23.33331,0 37.49996,13.333325 14.16666,13.33332 14.16666,38.33329 0,23.66665 -13.49999,33.8333 -13.33332,10.16666 -39.8333,10.16666 -39.49996,0 -60.16661,-14.49999 l -10.33332,-7.16666 q -9.33332,-6.49999 -15.33332,-6.49999 -0.66666,0 -1.33333,0.16667 -6.49999,0.83333 -12.33332,8.16666 -5.66666,7.33332 -5.66666,12.83332 0,5.66666 21.83331,21.16664 V 354.4999 l 39.3333,-39.33329 q 6.99999,-7.16666 14.16665,-7.16666 6.99999,0 14.16665,7.16666 l 38.99996,39.16663 v -81.66659 q -28.3333,0 -28.3333,-26.66664 0,-31.66664 28.3333,-31.66664 29.99998,0 29.99998,16.66665 z"/>
<path id="z20023d2" d="m 308.16653,232.50002 q -11.66665,0 -11.66665,13.49999 0,9.99999 11.66665,9.99999 z m 29.99998,131.83321 q 0,16.66665 -16.66665,16.66665 -14.99999,0 -27.83331,-12.83332 l -38.8333,-38.8333 -38.66663,38.8333 q -12.83332,12.83332 -27.99997,12.83332 -16.66665,0 -16.66665,-16.66665 V 212.66671 q -11.83332,-10.99999 -14.33332,-15.16666 -2.33333,-4.33333 -2.33333,-10.66665 0,-6.16666 2.49999,-10.49999 2.33334,-4.33333 21.66665,-24.83331 19.49998,-20.49998 25.66664,-20.49998 6,0 31.83331,17.83331 33.99996,23.83331 49.99995,23.83331 31.66663,0 31.66663,-23.33331 0,-8.33332 -8.33332,-14.99998 -8.33333,-6.66666 -23.33331,-6.66666 -21.66665,0 -21.66665,-14.99999 0,-14.999985 21.66665,-14.999985 23.33331,0 37.49996,13.333325 14.16666,13.33332 14.16666,38.33329 0,23.66665 -13.49999,33.8333 -13.33332,10.16666 -39.8333,10.16666 -39.49996,0 -60.16661,-14.49999 l -10.33332,-7.16666 q -9.33332,-6.49999 -15.33332,-6.49999 -0.66666,0 -1.33333,0.16667 -6.49999,0.83333 -12.33332,8.16666 -5.66666,7.33332 -5.66666,12.83332 0,5.66666 21.83331,21.16664 V 354.4999 l 39.3333,-39.33329 q 6.99999,-7.16666 14.16665,-7.16666 6.99999,0 14.16665,7.16666 l 38.99996,39.16663 v -81.66659 q -28.3333,0 -28.3333,-26.66664 0,-31.66664 28.3333,-31.66664 29.99998,0 29.99998,16.66665 z"/>
<defs>
	<clipPath id="z20023c1"><use xlink:href="#z20023d1"/></clipPath>
	<clipPath id="z20023c2"><use xlink:href="#z20023d2"/></clipPath>
</defs>
<path style="--d:1s;" pathLength="3333" clip-path="url(#z20023c1)" d="m 183.7546,207.31288 1.57055,164.90798 67.53375,-51.82822 70.67484,53.39877 -1.57055,-157.05521 -31.41104,-3.14111 -10.99387,18.84663 1.57055,29.84049 31.41105,3.1411"/>
<path style="--d:2s;" pathLength="3333" clip-path="url(#z20023c2)" d="m 197.88957,224.58896 -37.69325,-39.26381 43.97546,-40.83435 56.53988,36.1227 50.25767,4.71165 21.98773,-15.70552 1.57055,-51.82822 -84.80982,-14.13497"/>
</svg>
  