<svg id="z20023" class="acjk" version="1.1" viewBox="0 0 512 512" xmlns="http://www.w3.org/2000/svg" xmlns:xlink="http://www.w3.org/1999/xlink">
<style>
<![CDATA[
@keyframes zk {
	to {
		stroke-dashoffset:0;
	}
}
svg.acjk path[clip-path] {
	--t:0.8s;
	animation:zk var(--t) linear forwards var(--d);
	stroke-dasharray:3337;
	stroke-dashoffset:3339;
	stroke-width:40;
	stroke-linecap:round;
	fill:none;
	stroke:#000;
}
svg.acjk path[id] {fill:#ccc;}
]]>
</style>
<path id="z20023d1" d="m 113.16672,220.50003 q 0,-17.66665 -33.333301,-27.99997 3.33333,-16.83332 15.833318,-39.16663 12.666653,-22.33331 21.666643,-22.33331 7.33333,0 19.16665,7.16666 l 11.66666,7.16666 q 5.16666,3.16666 12.16665,3.16666 3.66667,0 7.83333,-0.83333 -1.66667,11.66665 -6.83333,19.16665 -4.99999,7.33332 -13.49999,8.16665 -0.83333,0.16667 -1.66666,0.16667 -8.33333,0 -22.49998,-8.83332 -4.33333,-2.5 -7.99999,-2.5 -10.49999,0 -18.166651,19.16665 45.666621,14.66665 45.666621,27.99997 v 129.99988 q 9.99999,19.99998 48.33329,19.99998 38.3333,0 48.33329,-19.99998 v -176.6665 q 16.66665,-33.3333 78.33325,-33.3333 61.66661,0 78.33326,33.3333 v 216.66646 h -29.99997 v -209.9998 q -9.99999,-19.99998 -48.33329,-19.99998 -38.33329,0 -48.33328,19.99998 v 176.6665 q -16.66665,33.3333 -78.33326,33.3333 -61.66661,0 -78.33326,-33.3333 z"/>
<path id="z20023d2" d="m 113.16672,220.50003 q 0,-17.66665 -33.333301,-27.99997 3.33333,-16.83332 15.833318,-39.16663 12.666653,-22.33331 21.666643,-22.33331 7.33333,0 19.16665,7.16666 l 11.66666,7.16666 q 5.16666,3.16666 12.16665,3.16666 3.66667,0 7.83333,-0.83333 -1.66667,11.66665 -6.83333,19.16665 -4.99999,7.33332 -13.49999,8.16665 -0.83333,0.16667 -1.66666,0.16667 -8.33333,0 -22.49998,-8.83332 -4.33333,-2.5 -7.99999,-2.5 -10.49999,0 -18.166651,19.16665 45.666621,14.66665 45.666621,27.99997 v 129.99988 q 9.99999,19.99998 48.33329,19.99998 38.3333,0 48.33329,-19.99998 v -176.6665 q 16.66665,-33.3333 78.33325,-33.3333 61.66661,0 78.33326,33.3333 v 216.66646 h -29.99997 v -209.9998 q -9.99999,-19.99998 -48.33329,-19.99998 -38.33329,0 -48.33328,19.99998 v 176.6665 q -16.66665,33.3333 -78.33326,33.3333 -61.66661,0 -78.33326,-33.3333 z"/>
<defs>
	<clipPath id="z20023c1"><use xlink:href="#z20023d1"/></clipPath>
	<clipPath id="z20023c2"><use xlink:href="#z20023d2"/></clipPath>
</defs>
<path style="--d:1s;" pathLength="3333" clip-path="url(#z20023c1)" d="m 128.78528,208.88344 -1.57056,133.49693 37.69326,31.41104 59.68098,-4.71166 L 256,339.23926 l -1.57055,-172.76073 32.98159,-23.55828 58.11043,-3.14111 40.83436,34.55215 -4.71166,219.8773"/>
<path style="--d:2s;" pathLength="3333" clip-path="url(#z20023c2)" d="m 135.06748,224.58896 -45.546008,-37.69325 26.699388,-43.97546 26.69939,15.70552 34.55214,1.57055"/>
</svg>
  