<svg id="z20023" class="acjk" version="1.1" viewBox="0 0 1024 1024" xmlns="http://www.w3.org/2000/svg" xmlns:xlink="http://www.w3.org/1999/xlink">
<style>
<![CDATA[
@keyframes zk {
	to {
		stroke-dashoffset:0;
	}
}
svg.acjk path[clip-path] {
	--t:0.8s;
	animation:zk var(--t) linear forwards var(--d);
	stroke-dasharray:3337;
	stroke-dashoffset:3339;
	stroke-width:40;
	stroke-linecap:round;
	fill:none;
	stroke:#000;
}
svg.acjk path[id] {fill:#ccc;}
]]>
</style>
<path id="z20023d1" d="m 349.83316,280.99997 h 29.99997 V 397.66653 H 349.83316 Z M 193.16664,210.16671 v 12.49999 q 9.33333,0 9.33333,-8.33333 0,-4.16666 -9.33333,-4.16666 z m 0,120.83322 q 0,16.99998 7.5,23.49997 7.66666,6.5 27.49997,6.5 19.66665,0 34.49997,-6 14.83332,-5.99999 37.16663,-28.8333 v -45.16663 h 29.99997 v 99.99991 q 0,28.3333 -33.3333,28.3333 -16.66665,0 -16.66665,-16.66665 19.99998,0 19.99998,-11.66665 V 357.4999 q -15.66665,11.49999 -30.33331,17.33332 -15.33331,6.16666 -41.33329,6.16666 -34.3333,0 -48.33329,-10.49999 -16.66665,-12.33332 -16.66665,-39.49996 v -44.49996 q 136.66654,-52.16662 136.66654,-80.49993 v -24.99997 q 0,-29.99997 -53.33328,-29.99997 -53.33329,0 -53.33329,29.99997 v 12.49999 q 13.66666,0 19.83332,5.16666 6.16666,5.33333 6.16666,15.66665 0,24.99998 -27.99997,24.99998 -27.99998,0 -27.99998,-16.66665 v -41.66663 q 0,-49.99995 83.33326,-49.99995 83.33325,0 83.33325,49.99995 v 24.99997 q 0,39.99997 -136.66654,90.33325 z"/>
<path id="z20023d2" d="m 349.83316,280.99997 h 29.99997 V 397.66653 H 349.83316 Z M 193.16664,210.16671 v 12.49999 q 9.33333,0 9.33333,-8.33333 0,-4.16666 -9.33333,-4.16666 z m 0,120.83322 q 0,16.99998 7.5,23.49997 7.66666,6.5 27.49997,6.5 19.66665,0 34.49997,-6 14.83332,-5.99999 37.16663,-28.8333 v -45.16663 h 29.99997 v 99.99991 q 0,28.3333 -33.3333,28.3333 -16.66665,0 -16.66665,-16.66665 19.99998,0 19.99998,-11.66665 V 357.4999 q -15.66665,11.49999 -30.33331,17.33332 -15.33331,6.16666 -41.33329,6.16666 -34.3333,0 -48.33329,-10.49999 -16.66665,-12.33332 -16.66665,-39.49996 v -44.49996 q 136.66654,-52.16662 136.66654,-80.49993 v -24.99997 q 0,-29.99997 -53.33328,-29.99997 -53.33329,0 -53.33329,29.99997 v 12.49999 q 13.66666,0 19.83332,5.16666 6.16666,5.33333 6.16666,15.66665 0,24.99998 -27.99997,24.99998 -27.99998,0 -27.99998,-16.66665 v -41.66663 q 0,-49.99995 83.33326,-49.99995 83.33325,0 83.33325,49.99995 v 24.99997 q 0,39.99997 -136.66654,90.33325 z"/>
<defs>
	<clipPath id="z20023c1"><use xlink:href="#z20023d1"/></clipPath>
	<clipPath id="z20023c2"><use xlink:href="#z20023d2"/></clipPath>
</defs>
<path style="--d:1s;" pathLength="3333" clip-path="url(#z20023c1)" d="m 194.74847,196.31902 25.12883,14.13497 -12.56442,21.98773 -34.55214,-1.57055 v -64.39264 l 40.83435,-26.69939 58.11043,4.71166 45.54601,14.13497 v 51.82822 l -37.69325,34.55214 -105.22699,47.11657 4.71165,61.25153 17.27608,18.84663 54.96932,-1.57055 45.54602,-37.69325 20.41717,-10.99387 -3.1411,-50.25767 1.57055,119.36196 -36.1227,23.55829"/>
<path style="--d:2s;" pathLength="3333" clip-path="url(#z20023c2)" d="m 359.65644,268.56442 7.85276,146.06135"/>
</svg>
  