<svg id="z20023" class="acjk" version="1.1" viewBox="0 0 1024 1024" xmlns="http://www.w3.org/2000/svg" xmlns:xlink="http://www.w3.org/1999/xlink">
<style>
<![CDATA[
@keyframes zk {
	to {
		stroke-dashoffset:0;
	}
}
svg.acjk path[clip-path] {
	--t:0.8s;
	animation:zk var(--t) linear forwards var(--d);
	stroke-dasharray:3337;
	stroke-dashoffset:3339;
	stroke-width:40;
	stroke-linecap:round;
	fill:none;
	stroke:#000;
}
svg.acjk path[id] {fill:#ccc;}
]]>
</style>
<path id="z20023d1" d="m 201.49997,210.16671 v 12.49999 q 9.33332,0 9.33332,-8.33333 0,-4.16666 -9.33332,-4.16666 z m 0,120.83322 q 0,16.99998 7.49999,23.49997 7.66666,6.5 27.49998,6.5 19.66664,0 34.49996,-6 14.83332,-5.99999 37.16663,-28.8333 v -45.16663 h 29.99998 v 99.99991 q 0,28.3333 -33.33331,28.3333 -16.66665,0 -16.66665,-16.66665 19.99998,0 19.99998,-11.66665 V 357.4999 q -15.66665,11.49999 -30.3333,17.33332 -15.33332,6.16666 -41.33329,6.16666 -34.3333,0 -48.33329,-10.49999 Q 171.5,358.16657 171.5,330.99993 v -44.49996 q 136.66653,-52.16662 136.66653,-80.49993 v -24.99997 q 0,-29.99997 -53.33328,-29.99997 -53.33328,0 -53.33328,29.99997 v 12.49999 q 13.66665,0 19.83331,5.16666 6.16666,5.33333 6.16666,15.66665 0,24.99998 -27.99997,24.99998 -27.99997,0 -27.99997,-16.66665 v -41.66663 q 0,-49.99995 83.33325,-49.99995 83.33326,0 83.33326,49.99995 v 24.99997 q 0,39.99997 -136.66654,90.33325 z M 179.16666,140.33344 q -19.49998,-12.66665 -21.99998,-16.83332 -2.33333,-4.33333 -2.33333,-10.66665 0,-6.16666 2.49999,-10.49999 2.33334,-4.333332 21.66665,-24.833313 19.49998,-20.49998 25.66664,-20.49998 6,0 31.83331,17.833316 33.99996,23.833311 49.99995,23.833311 31.66663,0 31.66663,-23.333311 0,-8.333326 -8.33332,-14.999986 -8.33333,-6.66666 -23.33331,-6.66666 -21.66665,0 -21.66665,-14.999986 0,-14.999986 21.66665,-14.999986 23.33331,0 37.49996,13.333321 14.16666,13.333321 14.16666,38.333297 0,23.666644 -13.49999,33.833297 -13.33332,10.16666 -39.8333,10.16666 -39.49996,0 -60.16661,-14.49999 l -10.33332,-7.166655 q -9.33332,-6.499994 -15.33332,-6.499994 -0.66666,0 -1.33333,0.166667 -6.49999,0.833332 -12.33332,8.166658 -5.66666,7.333324 -5.66666,12.833324 0,5.66666 21.83331,16.16665 z"/>
<path id="z20023d2" d="m 201.49997,210.16671 v 12.49999 q 9.33332,0 9.33332,-8.33333 0,-4.16666 -9.33332,-4.16666 z m 0,120.83322 q 0,16.99998 7.49999,23.49997 7.66666,6.5 27.49998,6.5 19.66664,0 34.49996,-6 14.83332,-5.99999 37.16663,-28.8333 v -45.16663 h 29.99998 v 99.99991 q 0,28.3333 -33.33331,28.3333 -16.66665,0 -16.66665,-16.66665 19.99998,0 19.99998,-11.66665 V 357.4999 q -15.66665,11.49999 -30.3333,17.33332 -15.33332,6.16666 -41.33329,6.16666 -34.3333,0 -48.33329,-10.49999 Q 171.5,358.16657 171.5,330.99993 v -44.49996 q 136.66653,-52.16662 136.66653,-80.49993 v -24.99997 q 0,-29.99997 -53.33328,-29.99997 -53.33328,0 -53.33328,29.99997 v 12.49999 q 13.66665,0 19.83331,5.16666 6.16666,5.33333 6.16666,15.66665 0,24.99998 -27.99997,24.99998 -27.99997,0 -27.99997,-16.66665 v -41.66663 q 0,-49.99995 83.33325,-49.99995 83.33326,0 83.33326,49.99995 v 24.99997 q 0,39.99997 -136.66654,90.33325 z M 179.16666,140.33344 q -19.49998,-12.66665 -21.99998,-16.83332 -2.33333,-4.33333 -2.33333,-10.66665 0,-6.16666 2.49999,-10.49999 2.33334,-4.333332 21.66665,-24.833313 19.49998,-20.49998 25.66664,-20.49998 6,0 31.83331,17.833316 33.99996,23.833311 49.99995,23.833311 31.66663,0 31.66663,-23.333311 0,-8.333326 -8.33332,-14.999986 -8.33333,-6.66666 -23.33331,-6.66666 -21.66665,0 -21.66665,-14.999986 0,-14.999986 21.66665,-14.999986 23.33331,0 37.49996,13.333321 14.16666,13.333321 14.16666,38.333297 0,23.666644 -13.49999,33.833297 -13.33332,10.16666 -39.8333,10.16666 -39.49996,0 -60.16661,-14.49999 l -10.33332,-7.166655 q -9.33332,-6.499994 -15.33332,-6.499994 -0.66666,0 -1.33333,0.166667 -6.49999,0.833332 -12.33332,8.166658 -5.66666,7.333324 -5.66666,12.833324 0,5.66666 21.83331,16.16665 z"/>
<defs>
	<clipPath id="z20023c1"><use xlink:href="#z20023d1"/></clipPath>
	<clipPath id="z20023c2"><use xlink:href="#z20023d2"/></clipPath>
</defs>
<path style="--d:1s;" pathLength="3333" clip-path="url(#z20023c1)" d="m 199.46012,193.17791 26.69939,12.56442 -4.71166,29.84049 -37.69325,4.71166 1.57055,-70.67485 36.1227,-25.12883 48.68712,-6.28221 53.39877,17.27607 4.71166,47.11657 -47.11657,43.97546 -103.65644,43.97546 9.42332,76.95705 53.39877,7.85276 40.83435,-15.70552 36.1227,-40.83435 9.42332,-47.11657 1.57055,109.93865 -47.11657,28.26994 h -26.69938"/>
<path style="--d:2s;" pathLength="3333" clip-path="url(#z20023c2)" d="m 197.88957,142.92025 -34.55215,-31.41105 36.1227,-39.263801 45.54601,26.699386 65.9632,10.993865 28.26993,-20.417178 -12.56441,-40.834355 -72.2454,-25.128835"/>
</svg>
  