<svg id="z20023" class="acjk" version="1.1" viewBox="0 0 1024 1024" xmlns="http://www.w3.org/2000/svg" xmlns:xlink="http://www.w3.org/1999/xlink">
<style>
<![CDATA[
@keyframes zk {
	to {
		stroke-dashoffset:0;
	}
}
svg.acjk path[clip-path] {
	--t:0.8s;
	animation:zk var(--t) linear forwards var(--d);
	stroke-dasharray:3337;
	stroke-dashoffset:3339;
	stroke-width:40;
	stroke-linecap:round;
	fill:none;
	stroke:#000;
}
svg.acjk path[id] {fill:#ccc;}
]]>
</style>
<path id="z20023d1" d="m 201.49997,355.9999 q 19.99998,0 19.99998,-41.66663 0,-16.66665 -19.99998,-16.66665 z M 171.5,181.00007 q 0,-20.33332 18.33331,-35.16663 18.33332,-14.83332 28.16664,-14.83332 8.33333,0 36.8333,22.33331 28.66664,-22.33331 36.99997,-22.33331 9.83332,0 27.99997,14.83332 18.33332,14.83331 18.33332,35.16663 V 380.99988 H 308.16653 V 181.00007 q 0,-17.33332 -11.49998,-23.66665 -2.16667,-0.99999 -4.66667,-0.99999 -12.16665,0 -37.16663,24.66664 -24.83331,-24.66664 -37.16663,-24.66664 -2.5,0 -4.49999,0.99999 -11.66666,6.33333 -11.66666,23.66665 v 99.9999 q 36.66663,0 36.66663,33.3333 0,33.33331 -10.49999,49.99996 -10.33332,16.66665 -31.16664,16.66665 -24.99997,0 -24.99997,-16.66665 z M 338.16651,422.6665 q 0,24.99998 -25.83331,37.49997 -25.66665,12.49999 -77.1666,12.49999 -25.8333,0 -43.83329,-5.33333 -17.99998,-5.5 -28.16664,-16.33332 30.99997,5 72.1666,5 36.8333,0 55.33328,-8.33333 18.33332,-8.33332 18.33332,-24.99998 0,-4.16666 -3,-6.33332 -3.16666,-2 -9.33332,-2 0,-8.33333 5.16666,-12.49999 5.16666,-4.16666 15.49998,-4.16666 10.49999,0 15.66665,6.33333 5.16667,6.16666 5.16667,18.66664 z"/>
<path id="z20023d2" d="m 201.49997,355.9999 q 19.99998,0 19.99998,-41.66663 0,-16.66665 -19.99998,-16.66665 z M 171.5,181.00007 q 0,-20.33332 18.33331,-35.16663 18.33332,-14.83332 28.16664,-14.83332 8.33333,0 36.8333,22.33331 28.66664,-22.33331 36.99997,-22.33331 9.83332,0 27.99997,14.83332 18.33332,14.83331 18.33332,35.16663 V 380.99988 H 308.16653 V 181.00007 q 0,-17.33332 -11.49998,-23.66665 -2.16667,-0.99999 -4.66667,-0.99999 -12.16665,0 -37.16663,24.66664 -24.83331,-24.66664 -37.16663,-24.66664 -2.5,0 -4.49999,0.99999 -11.66666,6.33333 -11.66666,23.66665 v 99.9999 q 36.66663,0 36.66663,33.3333 0,33.33331 -10.49999,49.99996 -10.33332,16.66665 -31.16664,16.66665 -24.99997,0 -24.99997,-16.66665 z M 338.16651,422.6665 q 0,24.99998 -25.83331,37.49997 -25.66665,12.49999 -77.1666,12.49999 -25.8333,0 -43.83329,-5.33333 -17.99998,-5.5 -28.16664,-16.33332 30.99997,5 72.1666,5 36.8333,0 55.33328,-8.33333 18.33332,-8.33332 18.33332,-24.99998 0,-4.16666 -3,-6.33332 -3.16666,-2 -9.33332,-2 0,-8.33333 5.16666,-12.49999 5.16666,-4.16666 15.49998,-4.16666 10.49999,0 15.66665,6.33333 5.16667,6.16666 5.16667,18.66664 z"/>
<defs>
	<clipPath id="z20023c1"><use xlink:href="#z20023d1"/></clipPath>
	<clipPath id="z20023c2"><use xlink:href="#z20023d2"/></clipPath>
</defs>
<path style="--d:1s;" pathLength="3333" clip-path="url(#z20023c1)" d="m 199.46012,285.84049 32.9816,14.13497 3.1411,43.97546 -17.27607,29.84049 -37.69325,1.57055 3.1411,-201.03067 31.41104,-37.69325 42.40491,34.55214 34.55215,-31.41104 28.26994,28.26994 v 221.44785"/>
<path style="--d:2s;" pathLength="3333" clip-path="url(#z20023c2)" d="m 292.1227,408.34356 26.69939,-6.28221 9.42331,14.13497 -1.57055,25.12883 -58.11043,23.55829 -69.1043,-1.57056 -48.68711,-17.27607"/>
</svg>
  