<svg id="z20023" class="acjk" version="1.1" viewBox="0 0 512 512" xmlns="http://www.w3.org/2000/svg" xmlns:xlink="http://www.w3.org/1999/xlink">
<style>
<![CDATA[
@keyframes zk {
	to {
		stroke-dashoffset:0;
	}
}
svg.acjk path[clip-path] {
	--t:0.8s;
	animation:zk var(--t) linear forwards var(--d);
	stroke-dasharray:3337;
	stroke-dashoffset:3339;
	stroke-width:40;
	stroke-linecap:round;
	fill:none;
	stroke:#000;
}
svg.acjk path[id] {fill:#ccc;}
]]>
</style>
<path id="z20023d1" d="m 123.59131,376.409 q 9.375,0 9.375,-23.4375 0,-15.625 -9.375,-15.625 z M 95.466309,249.37775 q 0,-16.5625 -31.25,-26.25 3.125,-15.78125 14.84375,-36.71875 11.875,-20.9375 20.3125,-20.9375 6.875001,0 17.968751,6.71875 l 10.9375,6.71875 q 4.84375,2.96875 11.40625,2.96875 3.4375,0 7.34375,-0.78125 -1.5625,10.9375 -6.40625,17.96875 -4.6875,6.875 -12.65625,7.65625 -0.78125,0.15625 -1.5625,0.15625 -7.8125,0 -21.09375,-8.28125 -4.0625,-2.34375 -7.500001,-2.34375 -9.84375,0 -17.03125,17.96875 42.812501,13.75 42.812501,26.25 v 81.25 q 25,0 25,31.25 0,15.625 -8.28125,31.25 -8.125,15.625 -24.53125,15.625 -20.312501,0 -20.312501,-15.625 z M 417.34131,462.3465 q 0,39.0625 -59.375,39.0625 -59.375,0 -59.375,-39.0625 v -46.875 h 28.125 v 46.875 q 0,20.3125 31.25,20.3125 31.25,0 31.25,-20.3125 v -318.75 q 0,-45.312503 -29.6875,-45.312503 -17.1875,0 -26.71875,9.843753 -9.53125,9.84375 -16.09375,10.46875 h -1.40625 q -5.78125,0 -12.1875,-4.6875 -10.78125,-11.71875 -10.78125,-29.843753 0,-10.15625 3.125,-20.625 3.125,-10.625 3.125,-21.5625 0,-10.9375 -14.0625,-10.9375 0,-15.625 15.625,-15.625 26.5625,0 26.5625,26.5625 0,13.28125 -4.0625,22.34375 -4.0625,8.90625 -4.0625,19.84375 v 6.71875 q 20.625,-11.25 40.9375,-11.25 57.8125,0 57.8125,64.062503 z"/>
<path id="z20023d2" d="m 123.59131,376.409 q 9.375,0 9.375,-23.4375 0,-15.625 -9.375,-15.625 z M 95.466309,249.37775 q 0,-16.5625 -31.25,-26.25 3.125,-15.78125 14.84375,-36.71875 11.875,-20.9375 20.3125,-20.9375 6.875001,0 17.968751,6.71875 l 10.9375,6.71875 q 4.84375,2.96875 11.40625,2.96875 3.4375,0 7.34375,-0.78125 -1.5625,10.9375 -6.40625,17.96875 -4.6875,6.875 -12.65625,7.65625 -0.78125,0.15625 -1.5625,0.15625 -7.8125,0 -21.09375,-8.28125 -4.0625,-2.34375 -7.500001,-2.34375 -9.84375,0 -17.03125,17.96875 42.812501,13.75 42.812501,26.25 v 81.25 q 25,0 25,31.25 0,15.625 -8.28125,31.25 -8.125,15.625 -24.53125,15.625 -20.312501,0 -20.312501,-15.625 z M 417.34131,462.3465 q 0,39.0625 -59.375,39.0625 -59.375,0 -59.375,-39.0625 v -46.875 h 28.125 v 46.875 q 0,20.3125 31.25,20.3125 31.25,0 31.25,-20.3125 v -318.75 q 0,-45.312503 -29.6875,-45.312503 -17.1875,0 -26.71875,9.843753 -9.53125,9.84375 -16.09375,10.46875 h -1.40625 q -5.78125,0 -12.1875,-4.6875 -10.78125,-11.71875 -10.78125,-29.843753 0,-10.15625 3.125,-20.625 3.125,-10.625 3.125,-21.5625 0,-10.9375 -14.0625,-10.9375 0,-15.625 15.625,-15.625 26.5625,0 26.5625,26.5625 0,13.28125 -4.0625,22.34375 -4.0625,8.90625 -4.0625,19.84375 v 6.71875 q 20.625,-11.25 40.9375,-11.25 57.8125,0 57.8125,64.062503 z"/>
<defs>
	<clipPath id="z20023c1"><use xlink:href="#z20023d1"/></clipPath>
	<clipPath id="z20023c2"><use xlink:href="#z20023d2"/></clipPath>
</defs>
<path style="--d:1s;" pathLength="3333" clip-path="url(#z20023c1)" d="m 124.07362,325.10429 26.69939,15.70553 -4.71166,29.84049 -15.70552,36.1227 -26.69939,-1.57056 9.42331,-29.84049 V 240.29448 l -45.546008,-25.12884 28.269939,-40.83435 18.846629,15.70552 58.11043,9.42331"/>
<path style="--d:2s;" pathLength="3333" clip-path="url(#z20023c2)" d="m 312.53988,408.34356 1.57055,7.85276 v 61.25153 l 25.12883,15.70552 37.69326,-3.1411 23.55828,-3.1411 4.71165,-15.70553 -1.57055,-364.36809 -23.55828,-20.417182 -42.40491,3.141104 -26.69938,23.558278 -7.85277,-39.263799 10.99387,-36.122699 -6.28221,-17.276074 -48.68712,-9.423313"/>
</svg>
  