<?xml version="1.0" encoding="UTF-8" standalone="no"?>
<!-- Created with Inkscape (http://www.inkscape.org/) -->

<svg
   width="512"
   height="512"
   viewBox="0 0 512 512"
   version="1.1"
   id="svg1"
   inkscape:version="1.3.2 (091e20e, 2023-11-25)"
   sodipodi:docname="0.svg"
   xmlns:inkscape="http://www.inkscape.org/namespaces/inkscape"
   xmlns:sodipodi="http://sodipodi.sourceforge.net/DTD/sodipodi-0.dtd"
   xmlns="http://www.w3.org/2000/svg"
   xmlns:svg="http://www.w3.org/2000/svg">
  <sodipodi:namedview
     id="namedview1"
     pagecolor="#ffffff"
     bordercolor="#000000"
     borderopacity="0.25"
     inkscape:showpageshadow="2"
     inkscape:pageopacity="0.0"
     inkscape:pagecheckerboard="0"
     inkscape:deskcolor="#d1d1d1"
     inkscape:document-units="px"
     inkscape:zoom="0.63671875"
     inkscape:cx="254.42945"
     inkscape:cy="380.8589"
     inkscape:window-width="1392"
     inkscape:window-height="942"
     inkscape:window-x="0"
     inkscape:window-y="25"
     inkscape:window-maximized="0"
     inkscape:current-layer="svg1" />
  <defs
     id="defs1" />
  <path
     style="-inkscape-font-specification:'Khmer OS Content';stroke:#000000;stroke-width:0"
     d="m 172.33333,256 q 0,-124.99988 82.49992,-124.99988 82.49992,0 82.49992,124.99988 0,124.99988 -82.49992,124.99988 -82.49992,0 -82.49992,-124.99988 z m 139.99987,0 q 0,-99.99991 -57.49995,-99.99991 -57.49994,0 -57.49994,99.99991 0,99.9999 57.49994,99.9999 57.49995,0 57.49995,-99.9999 z"
     id="text1"
     inkscape:label="text1"
     aria-label="0" />
  <path
     style="fill:#000000;stroke:#000000;stroke-width:0"
     d="m 251.28834,138.20859 -40.83435,18.84662 -26.69939,58.11043 6.28221,91.09203 21.98773,50.25767 43.97546,15.70552 48.68712,-18.84663 20.41717,-53.39877 -1.57055,-113.07975 -39.2638,-39.26381 -72.2454,-26.69938"
     id="path1" />
</svg>
