<?xml version="1.0" encoding="UTF-8" standalone="no"?>
<!-- Created with Inkscape (http://www.inkscape.org/) -->

<svg
   width="512"
   height="512"
   viewBox="0 0 512 512"
   version="1.1"
   id="svg1"
   inkscape:version="1.3.2 (091e20e, 2023-11-25)"
   sodipodi:docname="a.svg"
   xmlns:inkscape="http://www.inkscape.org/namespaces/inkscape"
   xmlns:sodipodi="http://sodipodi.sourceforge.net/DTD/sodipodi-0.dtd"
   xmlns="http://www.w3.org/2000/svg"
   xmlns:svg="http://www.w3.org/2000/svg">
  <sodipodi:namedview
     id="namedview1"
     pagecolor="#ffffff"
     bordercolor="#000000"
     borderopacity="0.25"
     inkscape:showpageshadow="2"
     inkscape:pageopacity="0.0"
     inkscape:pagecheckerboard="0"
     inkscape:deskcolor="#d1d1d1"
     inkscape:document-units="px"
     inkscape:zoom="0.63671875"
     inkscape:cx="254.42945"
     inkscape:cy="255.21472"
     inkscape:window-width="1392"
     inkscape:window-height="942"
     inkscape:window-x="0"
     inkscape:window-y="25"
     inkscape:window-maximized="0"
     inkscape:current-layer="svg1" />
  <defs
     id="defs1" />
  <path
     style="font-size:341.333px;font-family:Dangrek;-inkscape-font-specification:Dangrek;text-align:center;text-anchor:middle;stroke:#000000;stroke-width:0"
     d="m 327.83318,342.99988 h -31.16663 v -19.83332 q -4.16667,2.83333 -11.33333,8 -6.99999,4.99999 -13.66665,7.99999 -7.83333,3.83333 -17.99998,6.33333 -10.16666,2.66666 -23.83331,2.66666 -25.16665,0 -42.66663,-16.66665 -17.49998,-16.66665 -17.49998,-42.49996 0,-21.16665 8.99999,-34.16663 9.16666,-13.16666 25.99997,-20.66665 16.99999,-7.49999 40.8333,-10.16666 23.83331,-2.66666 51.16662,-3.99999 v -4.83333 q 0,-10.66666 -3.83333,-17.66665 -3.66667,-7 -10.66666,-10.99999 -6.66666,-3.83333 -15.99999,-5.16666 -9.33332,-1.33334 -19.49998,-1.33334 -12.33332,0 -27.49997,3.33333 -15.16665,3.16667 -31.3333,9.33333 h -1.66667 v -31.83331 q 9.16666,-2.49999 26.49998,-5.49999 17.33331,-3 34.16663,-3 19.66665,0 34.16663,3.33333 14.66666,3.16667 25.33331,10.99999 10.49999,7.66666 15.99999,19.83332 5.49999,12.16665 5.49999,30.16664 z M 296.66655,297.16659 V 245.3333 q -14.33332,0.83334 -33.83331,2.5 -19.33331,1.66667 -30.66663,4.83333 -13.49999,3.83333 -21.83332,11.99999 -8.33332,7.99999 -8.33332,22.16664 0,15.99999 9.66666,24.16665 9.66665,7.99999 29.49997,7.99999 16.49998,0 30.16664,-6.33333 13.66665,-6.49999 25.33331,-15.49998 z"
     id="text1"
     inkscape:label="text1"
     aria-label="a" />
  <path
     style="fill:#000000;stroke:#000000;stroke-width:0"
     d="m 174.33129,177.47239 78.52761,-15.70552 58.11043,23.55828 6.2822,45.54602 -81.66871,4.71165 -50.25767,34.55215 3.14111,51.82822 47.11656,12.56442 47.11657,-10.99387 26.69938,-21.98773 6.28221,-73.81595 -4.71165,130.35583"
     id="path1" />
</svg>
