<?xml version="1.0" encoding="UTF-8" standalone="no"?>
<!-- Created with Inkscape (http://www.inkscape.org/) -->

<svg
   width="512"
   height="512"
   viewBox="0 0 512 512"
   version="1.1"
   id="svg1"
   inkscape:version="1.3.2 (091e20e, 2023-11-25)"
   sodipodi:docname="c.svg"
   xmlns:inkscape="http://www.inkscape.org/namespaces/inkscape"
   xmlns:sodipodi="http://sodipodi.sourceforge.net/DTD/sodipodi-0.dtd"
   xmlns="http://www.w3.org/2000/svg"
   xmlns:svg="http://www.w3.org/2000/svg">
  <sodipodi:namedview
     id="namedview1"
     pagecolor="#ffffff"
     bordercolor="#000000"
     borderopacity="0.25"
     inkscape:showpageshadow="2"
     inkscape:pageopacity="0.0"
     inkscape:pagecheckerboard="0"
     inkscape:deskcolor="#d1d1d1"
     inkscape:document-units="px"
     inkscape:zoom="0.63671875"
     inkscape:cx="254.42945"
     inkscape:cy="255.21472"
     inkscape:window-width="1392"
     inkscape:window-height="942"
     inkscape:window-x="0"
     inkscape:window-y="25"
     inkscape:window-maximized="0"
     inkscape:current-layer="svg1" />
  <defs
     id="defs1" />
  <path
     style="font-size:341.333px;font-family:Dangrek;-inkscape-font-specification:Dangrek;text-align:center;text-anchor:middle;stroke:#000000;stroke-width:0"
     d="m 334.41651,331.33322 q -15.66665,7.5 -29.83331,11.66666 -13.99998,4.16666 -29.8333,4.16666 -20.16665,0 -36.99997,-5.83333 -16.83331,-5.99999 -28.8333,-17.99998 -12.16666,-11.99999 -18.83332,-30.3333 -6.66666,-18.33332 -6.66666,-42.8333 0,-45.66662 24.99998,-71.6666 25.16664,-25.99997 66.33327,-25.99997 15.99998,0 31.3333,4.5 15.49999,4.49999 28.33331,10.99998 v 34.8333 h -1.66667 q -14.33332,-11.16665 -29.66663,-17.16665 -15.16666,-5.99999 -29.66664,-5.99999 -26.66664,0 -42.16663,17.99998 -15.33332,17.83332 -15.33332,52.49995 0,33.66664 14.99999,51.83329 15.16665,17.99998 42.49996,17.99998 9.49999,0 19.33331,-2.5 9.83333,-2.5 17.66665,-6.49999 6.83333,-3.5 12.83332,-7.33333 6,-3.99999 9.49999,-6.83332 h 1.66667 z"
     id="text1"
     inkscape:label="text1"
     aria-label="c" />
  <path
     style="fill:#000000;stroke:#000000;stroke-width:0"
     d="m 343.95092,190.03681 -61.25153,-25.12883 -48.68712,10.99386 -29.84049,47.11656 v 72.2454 l 26.69939,31.41105 50.25766,6.28221 58.11043,-14.13497"
     id="path1" />
</svg>
