<?xml version="1.0" encoding="UTF-8" standalone="no"?>
<!-- Created with Inkscape (http://www.inkscape.org/) -->

<svg
   width="512"
   height="512"
   viewBox="0 0 512 512"
   version="1.1"
   id="svg1"
   inkscape:version="1.3.2 (091e20e, 2023-11-25)"
   sodipodi:docname="d.svg"
   xmlns:inkscape="http://www.inkscape.org/namespaces/inkscape"
   xmlns:sodipodi="http://sodipodi.sourceforge.net/DTD/sodipodi-0.dtd"
   xmlns="http://www.w3.org/2000/svg"
   xmlns:svg="http://www.w3.org/2000/svg">
  <sodipodi:namedview
     id="namedview1"
     pagecolor="#ffffff"
     bordercolor="#000000"
     borderopacity="0.25"
     inkscape:showpageshadow="2"
     inkscape:pageopacity="0.0"
     inkscape:pagecheckerboard="0"
     inkscape:deskcolor="#d1d1d1"
     inkscape:document-units="px"
     inkscape:zoom="0.63671875"
     inkscape:cx="254.42945"
     inkscape:cy="255.21472"
     inkscape:window-width="1392"
     inkscape:window-height="942"
     inkscape:window-x="0"
     inkscape:window-y="25"
     inkscape:window-maximized="0"
     inkscape:current-layer="svg1" />
  <defs
     id="defs1" />
  <path
     style="font-size:341.333px;font-family:Dangrek;-inkscape-font-specification:Dangrek;text-align:center;text-anchor:middle;stroke:#000000;stroke-width:0"
     d="m 330.33318,342.99988 h -31.3333 V 323.4999 q -13.49999,11.66665 -28.16664,18.16665 -14.66666,6.49999 -31.83331,6.49999 -33.3333,0 -52.99995,-25.66664 Q 166.5,296.83326 166.5,251.3333 q 0,-23.66665 6.66666,-42.16663 6.83333,-18.49998 18.33332,-31.49997 11.33332,-12.66665 26.33331,-19.33331 15.16665,-6.66666 31.3333,-6.66666 14.66665,0 25.99998,3.16666 11.33332,3 23.83331,9.49999 V 83.666792 h 31.3333 z m -31.3333,-45.83329 V 190.33336 q -12.66666,-5.66666 -22.66665,-7.83333 -9.99999,-2.16666 -21.83331,-2.16666 -26.33331,0 -40.99996,18.33331 -14.66665,18.33332 -14.66665,51.99995 0,33.16664 11.33332,50.49995 11.33332,17.16665 36.3333,17.16665 13.33332,0 26.99997,-5.83332 13.66665,-6 25.49998,-15.33332 z"
     id="text1"
     inkscape:label="text1"
     aria-label="d" />
  <path
     style="fill:#000000;stroke:#000000;stroke-width:0"
     d="m 296.83436,177.47239 -51.82823,-14.13497 -43.97546,21.98773 -21.98773,64.39264 14.13497,59.68098 31.41105,25.12884 h 36.1227 l 47.11656,-28.26994 6.28221,-9.42331 -1.57055,-227.730066 1.57055,292.122696"
     id="path1" />
</svg>
