<?xml version="1.0" encoding="UTF-8" standalone="no"?>
<!-- Created with Inkscape (http://www.inkscape.org/) -->

<svg
   width="512"
   height="512"
   viewBox="0 0 512 512"
   version="1.1"
   id="svg1"
   inkscape:version="1.3.2 (091e20e, 2023-11-25)"
   sodipodi:docname="GC.svg"
   xmlns:inkscape="http://www.inkscape.org/namespaces/inkscape"
   xmlns:sodipodi="http://sodipodi.sourceforge.net/DTD/sodipodi-0.dtd"
   xmlns="http://www.w3.org/2000/svg"
   xmlns:svg="http://www.w3.org/2000/svg">
  <sodipodi:namedview
     id="namedview1"
     pagecolor="#ffffff"
     bordercolor="#000000"
     borderopacity="0.25"
     inkscape:showpageshadow="2"
     inkscape:pageopacity="0.0"
     inkscape:pagecheckerboard="0"
     inkscape:deskcolor="#d1d1d1"
     inkscape:document-units="px"
     inkscape:zoom="0.63671875"
     inkscape:cx="254.42945"
     inkscape:cy="255.21472"
     inkscape:window-width="1392"
     inkscape:window-height="942"
     inkscape:window-x="0"
     inkscape:window-y="25"
     inkscape:window-maximized="0"
     inkscape:current-layer="svg1" />
  <defs
     id="defs1" />
  <path
     style="font-size:341.333px;font-family:Dangrek;-inkscape-font-specification:Dangrek;text-align:center;text-anchor:middle;stroke:#000000;stroke-width:0"
     d="m 362.83315,324.66656 q -20.33331,9.33333 -44.49996,16.33332 -23.99998,6.83333 -46.49995,6.83333 -28.99998,0 -53.16662,-8 -24.16664,-7.99999 -41.16663,-23.99997 -17.16665,-16.16665 -26.49997,-40.3333 -9.33333,-24.33331 -9.33333,-56.83328 0,-59.49994 34.66664,-93.83324 34.8333,-34.499968 95.49991,-34.499968 21.16664,0 43.16662,5.166662 22.16665,4.999996 47.66662,17.166646 v 39.16663 h -2.99999 q -5.16667,-3.99999 -14.99999,-10.49999 -9.83332,-6.49999 -19.33332,-10.83332 -11.49998,-5.16666 -26.16664,-8.49999 -14.49998,-3.5 -32.99997,-3.5 -41.66662,0 -65.99993,26.83331 -24.16665,26.66664 -24.16665,72.33326 0,48.16662 25.33331,74.99993 25.33331,26.66664 68.99994,26.66664 15.99998,0 31.8333,-3.16666 15.99998,-3.16666 27.99997,-8.16666 v -60.83327 h -66.49993 v -28.99998 h 99.16657 z"
     id="text1"
     inkscape:label="text1"
     aria-label="G" />
  <path
     style="fill:#000000;stroke:#000000;stroke-width:0"
     d="m 365.93865,135.06748 -87.95092,-32.98159 -65.96319,17.27607 -53.39877,53.39878 v 89.52147 l 37.69325,50.25767 59.68098,25.12883 76.95706,-10.99386 20.41717,-17.27608 -7.85276,-78.5276 h -83.23926 109.93865"
     id="path1" />
</svg>
