<?xml version="1.0" encoding="UTF-8" standalone="no"?>
<!-- Created with Inkscape (http://www.inkscape.org/) -->

<svg
   width="512"
   height="512"
   viewBox="0 0 512 512"
   version="1.1"
   id="svg1"
   inkscape:version="1.3.2 (091e20e, 2023-11-25)"
   sodipodi:docname="h.svg"
   xmlns:inkscape="http://www.inkscape.org/namespaces/inkscape"
   xmlns:sodipodi="http://sodipodi.sourceforge.net/DTD/sodipodi-0.dtd"
   xmlns="http://www.w3.org/2000/svg"
   xmlns:svg="http://www.w3.org/2000/svg">
  <sodipodi:namedview
     id="namedview1"
     pagecolor="#ffffff"
     bordercolor="#000000"
     borderopacity="0.25"
     inkscape:showpageshadow="2"
     inkscape:pageopacity="0.0"
     inkscape:pagecheckerboard="0"
     inkscape:deskcolor="#d1d1d1"
     inkscape:document-units="px"
     inkscape:zoom="0.63671875"
     inkscape:cx="254.42945"
     inkscape:cy="255.21472"
     inkscape:window-width="1392"
     inkscape:window-height="942"
     inkscape:window-x="0"
     inkscape:window-y="25"
     inkscape:window-maximized="0"
     inkscape:current-layer="svg1" />
  <defs
     id="defs1" />
  <path
     style="font-size:341.333px;font-family:Dangrek;-inkscape-font-specification:Dangrek;text-align:center;text-anchor:middle;stroke:#000000;stroke-width:0"
     d="m 333.33318,342.99988 h -31.33331 v -105.9999 q 0,-12.83332 -1.49999,-23.99998 -1.5,-11.33332 -5.5,-17.66665 -4.16666,-6.99999 -11.99999,-10.33332 -7.83332,-3.5 -20.33331,-3.5 -12.83332,0 -26.83331,6.33333 -13.99999,6.33333 -26.83331,16.16665 v 138.99987 h -31.3333 V 83.666792 h 31.3333 v 93.833248 q 14.66666,-12.16666 30.33331,-18.99999 15.66665,-6.83332 32.16663,-6.83332 30.16664,0 45.99996,18.16665 15.83332,18.16665 15.83332,52.33328 z"
     id="text1"
     inkscape:label="text1"
     aria-label="h" />
  <path
     style="fill:#000000;stroke:#000000;stroke-width:0"
     d="m 190.03681,73.815951 1.57055,282.699389 -1.57055,-152.34356 48.68712,-36.1227 h 56.53987 l 23.55829,21.98773 1.57055,83.23926 -1.57055,76.95706 v 0"
     id="path1" />
</svg>
