<?xml version="1.0" encoding="UTF-8" standalone="no"?>
<!-- Created with Inkscape (http://www.inkscape.org/) -->

<svg
   width="512"
   height="512"
   viewBox="0 0 512 512"
   version="1.1"
   id="svg1"
   inkscape:version="1.3.2 (091e20e, 2023-11-25)"
   sodipodi:docname="j.svg"
   xmlns:inkscape="http://www.inkscape.org/namespaces/inkscape"
   xmlns:sodipodi="http://sodipodi.sourceforge.net/DTD/sodipodi-0.dtd"
   xmlns="http://www.w3.org/2000/svg"
   xmlns:svg="http://www.w3.org/2000/svg">
  <sodipodi:namedview
     id="namedview1"
     pagecolor="#ffffff"
     bordercolor="#000000"
     borderopacity="0.25"
     inkscape:showpageshadow="2"
     inkscape:pageopacity="0.0"
     inkscape:pagecheckerboard="0"
     inkscape:deskcolor="#d1d1d1"
     inkscape:document-units="px"
     inkscape:zoom="0.63671875"
     inkscape:cx="254.42945"
     inkscape:cy="255.21472"
     inkscape:window-width="1392"
     inkscape:window-height="942"
     inkscape:window-x="0"
     inkscape:window-y="25"
     inkscape:window-maximized="0"
     inkscape:current-layer="svg1" />
  <defs
     id="defs1" />
  <path
     style="font-size:341.333px;font-family:Dangrek;-inkscape-font-specification:Dangrek;text-align:center;text-anchor:middle;stroke:#000000;stroke-width:0"
     d="m 284.91656,125.66675 h -35.3333 V 93.166783 h 35.3333 z m -2,221.83312 q 0,32.66664 -16.66665,49.33329 -16.66665,16.66665 -44.66663,16.66665 -6.66666,0 -17.66665,-1.33333 -10.83332,-1.33333 -18.16665,-3.33333 v -29.83331 h 1.66667 q 4.66666,1.83334 12.49999,4.16667 7.99999,2.33333 15.49998,2.33333 11.99999,0 19.33332,-3.33333 7.33332,-3.33333 10.99999,-9.99999 3.66666,-6.66666 4.66666,-16.16665 1.16667,-9.33333 1.16667,-22.83332 V 183.1667 h -38.8333 v -26.33331 h 70.1666 z"
     id="text1"
     inkscape:label="text1"
     aria-label="j" />
  <path
     style="fill:#000000;stroke:#000000;stroke-width:0"
     d="m 268.56442,152.34356 v 186.8957 l -17.27608,50.25767 -45.54601,10.99387 -56.53988,-12.56442 29.84049,-284.26994 87.95093,4.71166 1.57055,1.57055"
     id="path1" />
</svg>
