<?xml version="1.0" encoding="UTF-8" standalone="no"?>
<!-- Created with Inkscape (http://www.inkscape.org/) -->

<svg
   width="512"
   height="512"
   viewBox="0 0 512 512"
   version="1.1"
   id="svg1"
   inkscape:version="1.3.2 (091e20e, 2023-11-25)"
   sodipodi:docname="JC.svg"
   xmlns:inkscape="http://www.inkscape.org/namespaces/inkscape"
   xmlns:sodipodi="http://sodipodi.sourceforge.net/DTD/sodipodi-0.dtd"
   xmlns="http://www.w3.org/2000/svg"
   xmlns:svg="http://www.w3.org/2000/svg">
  <sodipodi:namedview
     id="namedview1"
     pagecolor="#ffffff"
     bordercolor="#000000"
     borderopacity="0.25"
     inkscape:showpageshadow="2"
     inkscape:pageopacity="0.0"
     inkscape:pagecheckerboard="0"
     inkscape:deskcolor="#d1d1d1"
     inkscape:document-units="px"
     inkscape:zoom="0.63671875"
     inkscape:cx="254.42945"
     inkscape:cy="255.21472"
     inkscape:window-width="1392"
     inkscape:window-height="942"
     inkscape:window-x="0"
     inkscape:window-y="25"
     inkscape:window-maximized="0"
     inkscape:current-layer="svg1" />
  <defs
     id="defs1" />
  <path
     style="font-size:341.333px;font-family:Dangrek;-inkscape-font-specification:Dangrek;text-align:center;text-anchor:middle;stroke:#000000;stroke-width:0"
     d="m 301.58321,278.49994 q 0,32.66663 -19.99998,50.33328 -19.83332,17.66665 -53.33329,17.66665 -7.99999,0 -21.33331,-1.49999 -13.33332,-1.33334 -22.33331,-3.33333 v -30.83331 h 1.83333 q 6.83333,2.33333 16.83332,4.83333 9.99999,2.5 20.49998,2.5 15.33332,0 24.33331,-3.5 9.16666,-3.5 13.49999,-9.99999 4.49999,-6.66666 5.66666,-16.33332 1.33333,-9.66665 1.33333,-22.33331 V 121.16676 H 216.08329 V 94.833448 h 85.49992 z"
     id="text1"
     inkscape:label="text1"
     aria-label="J" />
  <path
     style="fill:#000000;stroke:#000000;stroke-width:0"
     d="M 282.69939,106.79755 285.84049,256 l -4.71166,54.96933 -36.1227,21.98773 h -42.4049 l -58.11043,-12.56442 21.98773,-216.7362 194.74846,3.14111"
     id="path1" />
</svg>
