<?xml version="1.0" encoding="UTF-8" standalone="no"?>
<!-- Created with Inkscape (http://www.inkscape.org/) -->

<svg
   width="512"
   height="512"
   viewBox="0 0 512 512"
   version="1.1"
   id="svg1"
   inkscape:version="1.3.2 (091e20e, 2023-11-25)"
   sodipodi:docname="o.svg"
   xmlns:inkscape="http://www.inkscape.org/namespaces/inkscape"
   xmlns:sodipodi="http://sodipodi.sourceforge.net/DTD/sodipodi-0.dtd"
   xmlns="http://www.w3.org/2000/svg"
   xmlns:svg="http://www.w3.org/2000/svg">
  <sodipodi:namedview
     id="namedview1"
     pagecolor="#ffffff"
     bordercolor="#000000"
     borderopacity="0.25"
     inkscape:showpageshadow="2"
     inkscape:pageopacity="0.0"
     inkscape:pagecheckerboard="0"
     inkscape:deskcolor="#d1d1d1"
     inkscape:document-units="px"
     inkscape:zoom="0.63671875"
     inkscape:cx="254.42945"
     inkscape:cy="255.21472"
     inkscape:window-width="1392"
     inkscape:window-height="942"
     inkscape:window-x="0"
     inkscape:window-y="25"
     inkscape:window-maximized="0"
     inkscape:current-layer="svg1" />
  <defs
     id="defs1" />
  <path
     style="-inkscape-font-specification:Dangrek;stroke:#000000;stroke-width:0"
     d="m 340.74984,249.99997 q 0,45.49995 -23.33331,71.83326 -23.33332,26.33331 -62.49994,26.33331 -39.49997,0 -62.83328,-26.33331 -23.16664,-26.33331 -23.16664,-71.83326 0,-45.49996 23.16664,-71.83327 23.33331,-26.49997 62.83328,-26.49997 39.16662,0 62.49994,26.49997 23.33331,26.33331 23.33331,71.83327 z m -32.33331,0 q 0,-36.16664 -14.16665,-53.66662 -14.16665,-17.66665 -39.33329,-17.66665 -25.49998,0 -39.66663,17.66665 -13.99999,17.49998 -13.99999,53.66662 0,34.99996 14.16665,53.16661 14.16666,17.99999 39.49997,17.99999 24.99997,0 39.16662,-17.83332 14.33332,-17.99998 14.33332,-53.33328 z"
     id="text1"
     inkscape:label="text1"
     aria-label="o" />
  <path
     style="fill:#000000;stroke:#000000;stroke-width:0"
     d="m 254.42945,158.62577 -54.96933,29.84049 -17.27607,64.39264 17.27607,56.53987 39.26381,28.26994 56.53987,-10.99386 28.26994,-37.69325 v -67.53375 l -26.69938,-48.68711 -58.11043,-26.69939"
     id="path1" />
</svg>
