<?xml version="1.0" encoding="UTF-8" standalone="no"?>
<!-- Created with Inkscape (http://www.inkscape.org/) -->

<svg
   width="512"
   height="512"
   viewBox="0 0 512 512"
   version="1.1"
   id="svg1"
   inkscape:version="1.3.2 (091e20e, 2023-11-25)"
   sodipodi:docname="PC.svg"
   xmlns:inkscape="http://www.inkscape.org/namespaces/inkscape"
   xmlns:sodipodi="http://sodipodi.sourceforge.net/DTD/sodipodi-0.dtd"
   xmlns="http://www.w3.org/2000/svg"
   xmlns:svg="http://www.w3.org/2000/svg">
  <sodipodi:namedview
     id="namedview1"
     pagecolor="#ffffff"
     bordercolor="#000000"
     borderopacity="0.25"
     inkscape:showpageshadow="2"
     inkscape:pageopacity="0.0"
     inkscape:pagecheckerboard="0"
     inkscape:deskcolor="#d1d1d1"
     inkscape:document-units="px"
     inkscape:zoom="0.63671875"
     inkscape:cx="254.42945"
     inkscape:cy="255.21472"
     inkscape:window-width="1392"
     inkscape:window-height="942"
     inkscape:window-x="0"
     inkscape:window-y="25"
     inkscape:window-maximized="0"
     inkscape:current-layer="svg1" />
  <defs
     id="defs1" />
  <path
     style="font-size:341.333px;font-family:Dangrek;-inkscape-font-specification:Dangrek;text-align:center;text-anchor:middle;stroke:#000000;stroke-width:0"
     d="m 347.58316,169.83338 q 0,16.49998 -5.83332,30.66663 -5.66667,13.99999 -15.99999,24.33331 -12.83332,12.83333 -30.3333,19.33332 -17.49999,6.33333 -44.16663,6.33333 h -32.99997 v 92.49991 H 185.24998 V 94.833448 h 67.33327 q 22.33332,0 37.8333,3.83333 15.49999,3.666662 27.49998,11.666652 14.16665,9.49999 21.83331,23.66665 7.83332,14.16665 7.83332,35.8333 z m -34.3333,0.83333 q 0,-12.83332 -4.49999,-22.33331 -4.5,-9.49999 -13.66666,-15.49999 -7.99999,-5.16666 -18.33331,-7.33332 -10.16666,-2.33334 -25.83331,-2.33334 h -32.66664 v 99.16658 h 27.83331 q 19.99998,0 32.49997,-3.5 12.49999,-3.66666 20.33331,-11.49999 7.83333,-7.99999 10.99999,-16.83332 3.33333,-8.83332 3.33333,-19.83331 z"
     id="text1"
     inkscape:label="text1"
     aria-label="P" />
  <path
     style="fill:#000000;stroke:#000000;stroke-width:0"
     d="M 197.88957,351.80368 V 91.092025 l 15.70552,14.134965 83.23927,4.71166 37.69325,31.41104 -7.85276,62.82209 -37.69325,29.84049 -114.65031,1.57055"
     id="path1" />
</svg>
