<?xml version="1.0" encoding="UTF-8" standalone="no"?>
<!-- Created with Inkscape (http://www.inkscape.org/) -->

<svg
   width="512"
   height="512"
   viewBox="0 0 512 512"
   version="1.1"
   id="svg1"
   inkscape:version="1.3.2 (091e20e, 2023-11-25)"
   sodipodi:docname="s.svg"
   xmlns:inkscape="http://www.inkscape.org/namespaces/inkscape"
   xmlns:sodipodi="http://sodipodi.sourceforge.net/DTD/sodipodi-0.dtd"
   xmlns="http://www.w3.org/2000/svg"
   xmlns:svg="http://www.w3.org/2000/svg">
  <sodipodi:namedview
     id="namedview1"
     pagecolor="#ffffff"
     bordercolor="#000000"
     borderopacity="0.25"
     inkscape:showpageshadow="2"
     inkscape:pageopacity="0.0"
     inkscape:pagecheckerboard="0"
     inkscape:deskcolor="#d1d1d1"
     inkscape:document-units="px"
     inkscape:zoom="0.63671875"
     inkscape:cx="254.42945"
     inkscape:cy="255.21472"
     inkscape:window-width="1392"
     inkscape:window-height="942"
     inkscape:window-x="0"
     inkscape:window-y="25"
     inkscape:window-maximized="0"
     inkscape:current-layer="svg1" />
  <defs
     id="defs1" />
  <path
     style="font-size:341.333px;font-family:Dangrek;-inkscape-font-specification:Dangrek;text-align:center;text-anchor:middle;stroke:#000000;stroke-width:0"
     d="m 329.74985,289.33326 q 0,25.49998 -21.16665,41.8333 -20.99998,16.33331 -57.49994,16.33331 -20.66665,0 -37.99997,-4.83333 -17.16665,-4.99999 -28.8333,-10.83332 v -35.16663 h 1.66666 q 14.83332,11.16665 32.99997,17.83332 18.16665,6.49999 34.8333,6.49999 20.66665,0 32.3333,-6.66666 11.66666,-6.66666 11.66666,-20.99998 0,-10.99999 -6.33333,-16.66665 -6.33333,-5.66666 -24.33331,-9.66666 -6.66666,-1.5 -17.49998,-3.5 -10.66666,-1.99999 -19.49998,-4.33333 -24.49998,-6.49999 -34.8333,-18.99998 -10.16666,-12.66665 -10.16666,-30.99997 0,-11.49999 4.66666,-21.66664 4.83333,-10.16666 14.49999,-18.16665 9.33332,-7.83333 23.66664,-12.33332 14.49999,-4.66667 32.3333,-4.66667 16.66665,0 33.66664,4.16667 17.16665,3.99999 28.49997,9.83332 v 33.49997 h -1.66666 q -11.99999,-8.83333 -29.16664,-14.83332 -17.16665,-6.16666 -33.66664,-6.16666 -17.16665,0 -28.99997,6.66666 -11.83332,6.49999 -11.83332,19.49998 0,11.49999 7.16666,17.33332 6.99999,5.83332 22.66664,9.49999 8.66666,2 19.33332,3.99999 10.83332,2 17.99998,3.66667 21.83331,4.99999 33.66664,17.16665 11.83332,12.33332 11.83332,32.66663 z"
     id="text1"
     inkscape:label="text1"
     aria-label="s" />
  <path
     style="fill:#000000;stroke:#000000;stroke-width:0"
     d="m 326.67485,186.89571 -69.1043,-25.12884 -54.96932,20.41718 -4.71166,31.41104 15.70552,20.41718 54.96933,15.70552 42.40491,12.56442 3.1411,37.69325 -18.84663,28.26994 -54.96932,4.71166 -47.11657,-10.99387 -26.69938,-17.27607"
     id="path1" />
</svg>
