<?xml version="1.0" encoding="UTF-8" standalone="no"?>
<!-- Created with Inkscape (http://www.inkscape.org/) -->

<svg
   width="512"
   height="512"
   viewBox="0 0 512 512"
   version="1.1"
   id="svg1"
   inkscape:version="1.3.2 (091e20e, 2023-11-25)"
   sodipodi:docname="SC.svg"
   xmlns:inkscape="http://www.inkscape.org/namespaces/inkscape"
   xmlns:sodipodi="http://sodipodi.sourceforge.net/DTD/sodipodi-0.dtd"
   xmlns="http://www.w3.org/2000/svg"
   xmlns:svg="http://www.w3.org/2000/svg">
  <sodipodi:namedview
     id="namedview1"
     pagecolor="#ffffff"
     bordercolor="#000000"
     borderopacity="0.25"
     inkscape:showpageshadow="2"
     inkscape:pageopacity="0.0"
     inkscape:pagecheckerboard="0"
     inkscape:deskcolor="#d1d1d1"
     inkscape:document-units="px"
     inkscape:zoom="0.63671875"
     inkscape:cx="254.42945"
     inkscape:cy="255.21472"
     inkscape:window-width="1392"
     inkscape:window-height="942"
     inkscape:window-x="0"
     inkscape:window-y="25"
     inkscape:window-maximized="0"
     inkscape:current-layer="svg1" />
  <defs
     id="defs1" />
  <path
     style="font-size:341.333px;font-family:Dangrek;-inkscape-font-specification:Dangrek;text-align:center;text-anchor:middle;stroke:#000000;stroke-width:0"
     d="m 351.83316,272.16661 q 0,14.49999 -6.83333,28.66664 -6.66666,14.16665 -18.83331,23.99998 -13.33332,10.66666 -31.16664,16.66665 -17.66665,5.99999 -42.66663,5.99999 -26.8333,0 -48.33328,-4.99999 -21.33332,-5 -43.49996,-14.83332 v -41.33329 h 2.33333 q 18.83332,15.66665 43.49996,24.16664 24.66664,8.49999 46.33329,8.49999 30.66663,0 47.66662,-11.49999 17.16665,-11.49999 17.16665,-30.66664 0,-16.49998 -8.16666,-24.33331 -7.99999,-7.83332 -24.49998,-12.16665 -12.49998,-3.33333 -27.16664,-5.5 -14.49998,-2.16666 -30.8333,-5.49999 -32.99997,-6.99999 -48.99995,-23.83331 -15.83332,-16.99998 -15.83332,-44.16663 0,-31.16663 26.33331,-50.99995 26.3333,-19.999978 66.83326,-19.999978 26.16665,0 47.99996,4.999995 21.83331,4.999993 38.66663,12.333323 v 38.99996 h -2.33333 q -14.16666,-11.99999 -37.3333,-19.83331 -22.99998,-7.99999 -47.16662,-7.99999 -26.49998,0 -42.66663,10.99998 -15.99998,10.99999 -15.99998,28.33331 0,15.49999 7.99999,24.33331 7.99999,8.83333 28.16664,13.49999 10.66666,2.33333 30.3333,5.66666 19.66665,3.33333 33.33331,6.83333 27.66664,7.33332 41.66662,22.16664 13.99999,14.83332 13.99999,41.49996 z"
     id="text1"
     inkscape:label="text1"
     aria-label="S" />
  <path
     style="fill:#000000;stroke:#000000;stroke-width:0"
     d="m 358.08589,128.78528 -64.39264,-21.98773 -56.53988,-3.14111 -45.54601,20.41718 -12.56442,39.2638 15.70553,36.1227 78.5276,20.41718 51.82822,21.98773 14.13497,43.97546 -26.69938,36.1227 -61.25154,12.56442 -65.96319,-10.99387 -39.2638,-26.69938"
     id="path1" />
</svg>
