<?xml version="1.0" encoding="UTF-8" standalone="no"?>
<!-- Created with Inkscape (http://www.inkscape.org/) -->

<svg
   width="512"
   height="512"
   viewBox="0 0 512 512"
   version="1.1"
   id="svg1"
   inkscape:version="1.3.2 (091e20e, 2023-11-25)"
   sodipodi:docname="t.svg"
   xmlns:inkscape="http://www.inkscape.org/namespaces/inkscape"
   xmlns:sodipodi="http://sodipodi.sourceforge.net/DTD/sodipodi-0.dtd"
   xmlns="http://www.w3.org/2000/svg"
   xmlns:svg="http://www.w3.org/2000/svg">
  <sodipodi:namedview
     id="namedview1"
     pagecolor="#ffffff"
     bordercolor="#000000"
     borderopacity="0.25"
     inkscape:showpageshadow="2"
     inkscape:pageopacity="0.0"
     inkscape:pagecheckerboard="0"
     inkscape:deskcolor="#d1d1d1"
     inkscape:document-units="px"
     inkscape:zoom="0.63671875"
     inkscape:cx="254.42945"
     inkscape:cy="255.21472"
     inkscape:window-width="1392"
     inkscape:window-height="942"
     inkscape:window-x="0"
     inkscape:window-y="25"
     inkscape:window-maximized="0"
     inkscape:current-layer="svg1" />
  <defs
     id="defs1" />
  <path
     style="font-size:341.333px;font-family:Dangrek;-inkscape-font-specification:Dangrek;text-align:center;text-anchor:middle;stroke:#000000;stroke-width:0"
     d="m 315.08319,341.33321 q -8.83332,2.33333 -19.33331,3.83333 -10.33332,1.5 -18.49998,1.5 -28.49998,0 -43.33329,-15.33332 -14.83332,-15.33332 -14.83332,-49.16662 v -98.9999 h -21.16665 v -26.33331 h 21.16665 v -53.49995 h 31.3333 v 53.49995 h 64.6666 v 26.33331 h -64.6666 v 84.83325 q 0,14.66665 0.66667,22.99998 0.66666,8.16666 4.66666,15.33332 3.66666,6.66666 9.99999,9.83332 6.49999,3 19.66665,3 7.66666,0 15.99998,-2.16667 8.33333,-2.33333 11.99999,-3.83333 h 1.66666 z"
     id="text1"
     inkscape:label="text1"
     aria-label="t" />
  <path
     style="fill:#000000;stroke:#000000;stroke-width:0"
     d="m 237.15337,86.380368 -3.1411,199.460122 20.41718,43.97546 48.68711,1.57055 29.8405,-10.99386 L 417.76687,37.693252 94.233129,26.699387 144.4908,171.19018 l 210.45399,-3.1411"
     id="path1" />
</svg>
