<?xml version="1.0" encoding="UTF-8" standalone="no"?>
<!-- Created with Inkscape (http://www.inkscape.org/) -->

<svg
   width="512"
   height="512"
   viewBox="0 0 512 512"
   version="1.1"
   id="svg1"
   inkscape:version="1.3.2 (091e20e, 2023-11-25)"
   sodipodi:docname="ជ1.svg"
   xmlns:inkscape="http://www.inkscape.org/namespaces/inkscape"
   xmlns:sodipodi="http://sodipodi.sourceforge.net/DTD/sodipodi-0.dtd"
   xmlns="http://www.w3.org/2000/svg"
   xmlns:svg="http://www.w3.org/2000/svg">
  <sodipodi:namedview
     id="namedview1"
     pagecolor="#ffffff"
     bordercolor="#000000"
     borderopacity="0.25"
     inkscape:showpageshadow="2"
     inkscape:pageopacity="0.0"
     inkscape:pagecheckerboard="0"
     inkscape:deskcolor="#d1d1d1"
     inkscape:document-units="px"
     inkscape:zoom="0.63671875"
     inkscape:cx="254.42945"
     inkscape:cy="380.8589"
     inkscape:window-width="1392"
     inkscape:window-height="942"
     inkscape:window-x="0"
     inkscape:window-y="25"
     inkscape:window-maximized="0"
     inkscape:current-layer="svg1" />
  <defs
     id="defs1" />
  <path
     style="font-size:341.333px;font-family:'Khmer OS Content';-inkscape-font-specification:'Khmer OS Content';text-align:center;text-anchor:middle;stroke:#000000;stroke-width:0"
     d="m 276.59602,366.40058 q -6.83333,0 -15.66665,-4.33333 -8.83333,-4.49999 -17.83332,-13.33332 l -6.16666,-5.83333 -6.49999,5.83333 q -9.99999,8.99999 -18.33332,13.33332 -8.33332,4.33333 -15.16665,4.33333 -18.33332,0 -26.66664,-15.49998 -8.33333,-15.49999 -8.33333,-32.99997 0,-19.83332 8.33333,-31.49997 8.33332,-11.66666 24.99997,-11.66666 8.33333,0 8.33333,8.33333 0,8.33332 -8.33333,8.33332 -4.16666,0 -6.16666,7.5 -2.16666,7.49999 -2.16666,18.99998 0,9.16666 2.16666,17.99998 2,8.83333 11.16666,8.83333 5.83333,0 36.66663,-24.66665 29.66664,24.66665 38.3333,24.66665 7.33332,0 9.49999,-8 2,-7.99999 2.16666,-12.33332 -1.99999,0.16667 -3.99999,0.16667 -2.16667,0.16667 -4.33333,0.16667 -12.49999,0 -18.83332,-6.33333 -6.16666,-6.16666 -6.16666,-18.66665 0,-12.49999 6.16666,-18.66665 6.33333,-6.33333 18.83332,-6.33333 13.33332,0 21.33331,7.5 7.99999,7.49999 10.66666,22.33331 9.83332,-3.5 11.99999,-3.5 5.49999,0 5.49999,7.16666 0,5.83333 -8.33332,9.16666 -1.83334,0.66667 -3.66667,1.33333 -2,0.66667 -4.16666,1.33333 v 1.33334 q 0,14.16665 -8.49999,29.66663 -8.33333,15.33332 -26.83331,15.33332 z m 2,-74.99993 q -4.16666,0 -6.16666,2 -2.16667,2.16667 -2.16667,6.33333 0,8.33332 7.99999,8.33332 h 6.16667 q 1.83333,0 1.99999,-0.16666 -1.83333,-16.49999 -7.83332,-16.49999 z"
     id="text1"
     inkscape:label="text1"
     aria-label="្ជ" />
  <path
     style="fill:#000000;stroke:#000000;stroke-width:0"
     d="m 213.59509,271.70552 -36.1227,15.70552 -3.1411,42.40491 15.70552,28.26994 28.26994,-12.56442 18.84662,-17.27607 18.84663,18.84662 32.9816,9.42332 6.2822,-26.69939 -4.71165,-47.11656 -29.84049,-4.71166 -9.42332,25.12883 7.85276,20.41718 89.52148,-21.98773"
     id="path1" />
</svg>
