<?xml version="1.0" encoding="UTF-8" standalone="no"?>
<!-- Created with Inkscape (http://www.inkscape.org/) -->

<svg
   width="512"
   height="512"
   viewBox="0 0 512 512"
   version="1.1"
   id="svg1"
   inkscape:version="1.3.2 (091e20e, 2023-11-25)"
   sodipodi:docname="ញ1.svg"
   xmlns:inkscape="http://www.inkscape.org/namespaces/inkscape"
   xmlns:sodipodi="http://sodipodi.sourceforge.net/DTD/sodipodi-0.dtd"
   xmlns="http://www.w3.org/2000/svg"
   xmlns:svg="http://www.w3.org/2000/svg">
  <sodipodi:namedview
     id="namedview1"
     pagecolor="#ffffff"
     bordercolor="#000000"
     borderopacity="0.25"
     inkscape:showpageshadow="2"
     inkscape:pageopacity="0.0"
     inkscape:pagecheckerboard="0"
     inkscape:deskcolor="#d1d1d1"
     inkscape:document-units="px"
     inkscape:zoom="0.63671875"
     inkscape:cx="254.42945"
     inkscape:cy="380.8589"
     inkscape:window-width="1392"
     inkscape:window-height="942"
     inkscape:window-x="0"
     inkscape:window-y="25"
     inkscape:window-maximized="0"
     inkscape:current-layer="svg1" />
  <defs
     id="defs1" />
  <path
     style="font-size:341.333px;font-family:'Khmer OS Content';-inkscape-font-specification:'Khmer OS Content';text-align:center;text-anchor:middle;stroke:#000000;stroke-width:0"
     d="m 326.40374,370.88939 q 0,24.99997 -11.16666,37.49996 -11.33332,12.49999 -33.8333,12.49999 -18.83331,0 -32.8333,-5.99999 -13.99999,-6 -23.16664,-18.16665 -13.16666,-17.16665 -23.16665,-25.66665 -10.33332,-8.49999 -17.49998,-8.49999 -8.83333,0 -14.99999,3.66666 -6.16666,3.83333 -9.99999,11.33333 v -8.33333 q 0,-8.33332 6.33333,-15.83332 6.16666,-7.49999 18.66665,-7.49999 16.49998,0 31.8333,9.16666 15.33332,9.16666 29.49997,27.66664 8.16666,10.83332 17.16665,16.16665 8.66666,5.33333 18.16665,5.33333 9.99999,0 14.99999,-8.33333 4.99999,-8.33332 4.99999,-24.99997 0,-8.33333 -4.16666,-12.49999 -4.16666,-4.16666 -12.49999,-4.16666 0,-8.33333 4.16667,-12.49999 4.16666,-4.16666 12.49998,-4.16666 12.49999,0 18.83332,8.33332 6.16666,8.33333 6.16666,24.99998 z"
     id="text1"
     inkscape:label="text1"
     aria-label="្ញ" />
  <path
     style="fill:#000000;stroke:#000000;stroke-width:0"
     d="m 279.55828,340.80982 31.41105,9.42331 4.71165,34.55215 -17.27607,25.12883 h -37.69325 l -45.54602,-42.40491 -34.55214,-18.84662 -47.11657,7.85276"
     id="path1" />
</svg>
