<?xml version="1.0" encoding="UTF-8" standalone="no"?>
<!-- Created with Inkscape (http://www.inkscape.org/) -->

<svg
   width="512"
   height="512"
   viewBox="0 0 512 512"
   version="1.1"
   id="svg1"
   inkscape:version="1.3.2 (091e20e, 2023-11-25)"
   sodipodi:docname="រ1.svg"
   xmlns:inkscape="http://www.inkscape.org/namespaces/inkscape"
   xmlns:sodipodi="http://sodipodi.sourceforge.net/DTD/sodipodi-0.dtd"
   xmlns="http://www.w3.org/2000/svg"
   xmlns:svg="http://www.w3.org/2000/svg">
  <sodipodi:namedview
     id="namedview1"
     pagecolor="#ffffff"
     bordercolor="#000000"
     borderopacity="0.25"
     inkscape:showpageshadow="2"
     inkscape:pageopacity="0.0"
     inkscape:pagecheckerboard="0"
     inkscape:deskcolor="#d1d1d1"
     inkscape:document-units="px"
     inkscape:zoom="0.63671875"
     inkscape:cx="254.42945"
     inkscape:cy="380.8589"
     inkscape:window-width="1392"
     inkscape:window-height="942"
     inkscape:window-x="0"
     inkscape:window-y="25"
     inkscape:window-maximized="0"
     inkscape:current-layer="svg1" />
  <defs
     id="defs1" />
  <path
     style="font-size:341.333px;font-family:'Khmer OS Content';-inkscape-font-specification:'Khmer OS Content';text-align:center;text-anchor:middle;stroke:#000000;stroke-width:0"
     d="m 243.16871,415.34542 q 0,24.99998 33.3333,24.99998 33.3333,0 33.3333,-24.99998 V 373.6788 h 29.99997 v 41.66662 q 0,41.66663 -63.33327,41.66663 -63.33327,0 -63.33327,-41.66663 V 196.5123 q 0,-17.66665 -33.3333,-27.99997 3.33333,-16.83332 15.83331,-39.16663 12.66666,-22.33332 21.66665,-22.33332 7.33333,0 19.16665,7.16666 l 11.66665,7.16666 q 5.16667,3.16667 12.16666,3.16667 3.66666,0 7.83332,-0.83333 -1.66666,11.66665 -6.83332,19.16664 -5,7.33333 -13.49999,8.16666 -0.83333,0.16667 -1.66666,0.16667 -8.33333,0 -22.49998,-8.83333 -4.33333,-2.49999 -7.99999,-2.49999 -10.49999,0 -18.16665,19.16664 45.66662,14.66666 45.66662,27.99998 z"
     id="text1"
     inkscape:label="text1"
     aria-label="្រ" />
  <path
     style="fill:#000000;stroke:#000000;stroke-width:0"
     d="m 227.73006,188.46626 1.57055,241.86503 21.98773,14.13497 h 39.26381 l 32.98159,-14.13497 1.57055,-76.95706 -98.94478,-10.99386 -1.57055,-160.19632 -39.26381,-20.41718 26.69939,-40.83435 62.82209,15.70552"
     id="path1" />
</svg>
