<?xml version="1.0" encoding="UTF-8" standalone="no"?>
<!-- Created with Inkscape (http://www.inkscape.org/) -->

<svg
   width="512"
   height="512"
   viewBox="0 0 512 512"
   version="1.1"
   id="svg1"
   inkscape:version="1.3.2 (091e20e, 2023-11-25)"
   sodipodi:docname="ល1.svg"
   xmlns:inkscape="http://www.inkscape.org/namespaces/inkscape"
   xmlns:sodipodi="http://sodipodi.sourceforge.net/DTD/sodipodi-0.dtd"
   xmlns="http://www.w3.org/2000/svg"
   xmlns:svg="http://www.w3.org/2000/svg">
  <sodipodi:namedview
     id="namedview1"
     pagecolor="#ffffff"
     bordercolor="#000000"
     borderopacity="0.25"
     inkscape:showpageshadow="2"
     inkscape:pageopacity="0.0"
     inkscape:pagecheckerboard="0"
     inkscape:deskcolor="#d1d1d1"
     inkscape:document-units="px"
     inkscape:zoom="0.63671875"
     inkscape:cx="254.42945"
     inkscape:cy="380.8589"
     inkscape:window-width="1392"
     inkscape:window-height="942"
     inkscape:window-x="0"
     inkscape:window-y="25"
     inkscape:window-maximized="0"
     inkscape:current-layer="svg1" />
  <defs
     id="defs1" />
  <path
     style="font-size:341.333px;font-family:'Khmer OS Content';-inkscape-font-specification:'Khmer OS Content';text-align:center;text-anchor:middle;stroke:#000000;stroke-width:0"
     d="m 165.75665,332.30451 q 0,-25.49998 12.49999,-40.8333 12.49999,-15.16665 37.49997,-15.16665 19.99998,0 33.66663,10.66666 13.66665,10.83332 20.99998,32.49997 6.99999,16.49998 13.83332,21.33331 6.66666,4.99999 13.16665,4.99999 6.5,0 13.33333,-15.83331 6.66666,-15.66666 10.33332,-34.66664 3.5,-18.99998 16.16665,-18.99998 8.83332,0 8.83332,10.83332 0,4.83333 -1.83333,11.99999 -5.83332,22.83331 -18.49998,45.66662 -12.83332,22.99998 -26.99997,22.99998 -18.33332,0 -30.49997,-8.99999 -12.16666,-8.99999 -18.16665,-26.99997 -6.33333,-20.16665 -14.83332,-28.66664 -8.66666,-8.33333 -19.49998,-8.33333 -12.49999,0 -18.66665,9.66666 -6.33333,9.83332 -6.33333,27.83331 0,15.33332 8.33332,15.33332 8.33333,0 8.33333,-10.16666 8.33333,0 12.49999,3.66666 4.16666,3.83333 4.16666,11.49999 0,7.66666 -6.33333,11.49999 -6.16666,3.83333 -18.66665,3.83333 -16.66665,0 -24.99997,-7.66666 -8.33333,-7.66666 -8.33333,-27.99997 z"
     id="text1"
     inkscape:label="text1"
     aria-label="្ល" />
  <path
     style="fill:#000000;stroke:#000000;stroke-width:0"
     d="m 221.44785,340.80982 -14.13497,20.41717 -25.12883,6.28221 -6.28221,-56.53987 28.26994,-29.8405 26.69939,3.14111 31.41104,43.97546 26.69939,31.41104 26.69938,-9.42331 34.55215,-100.51534"
     id="path1" />
</svg>
