<?xml version="1.0" encoding="UTF-8" standalone="no"?>
<!-- Created with Inkscape (http://www.inkscape.org/) -->

<svg
   width="512"
   height="512"
   viewBox="0 0 512 512"
   version="1.1"
   id="svg1"
   xmlns="http://www.w3.org/2000/svg"
   xmlns:svg="http://www.w3.org/2000/svg">
  <defs
     id="defs1" />
  <path
     style="font-size:341.333px;font-family:'Khmer OS Content';-inkscape-font-specification:'Khmer OS Content';text-align:center;text-anchor:middle;stroke:#000000;stroke-width:0"
     d="m 239.83327,314.33327 q -13.33332,0 -13.33332,16.66666 0,24.99997 13.33332,24.99997 z m 48.66662,-151.99985 q -6.16666,11.83332 -13.99999,12.66665 -0.83333,0.16667 -1.66667,0.16667 -8.49999,0 -22.49997,-8.83332 -4.33333,-2.5 -8,-2.5 -10.49999,0 -18.16665,19.16665 45.66663,14.66665 45.66663,27.99997 v 153.33319 q 0,16.66665 -21.66665,16.66665 -20.83331,0 -29.66664,-16.66665 -8.66666,-16.66665 -8.66666,-33.3333 0,-33.33331 29.99998,-33.33331 v -77.16659 q 0,-17.66665 -33.33331,-27.99997 3.33333,-16.83332 15.83332,-39.16663 12.66666,-22.33331 21.66665,-22.33331 7.33333,0 19.16665,7.16666 l 9.83332,5.99999 q 5.16666,-5.83333 5.16666,-13.16665 0,-19.99998 -14.99998,-19.99998 -18.33332,0 -18.33332,-14.99999 0,-14.999986 18.33332,-14.999986 31.66663,0 31.66663,49.999956 0,19.33331 -6.33332,31.3333 z"
     id="text1"
     aria-label="វ" />
  <path
     style="fill:#000000;stroke:#000000;stroke-width:0"
     d="m 237.15337,303.11656 -23.55828,14.13497 -3.1411,32.9816 17.27607,23.55828 32.9816,3.14111 L 256,207.31288 213.59509,183.7546 l 26.69939,-36.1227 40.83435,18.84663 15.70553,-61.25154 -69.1043,-25.12883"
     id="path1" />
</svg>
