<?xml version="1.0" encoding="UTF-8" standalone="no"?>
<!-- Created with Inkscape (http://www.inkscape.org/) -->

<svg
   width="512"
   height="512"
   viewBox="0 0 512 512"
   version="1.1"
   id="svg1"
   inkscape:version="1.3.2 (091e20e, 2023-11-25)"
   sodipodi:docname="វ1.svg"
   xmlns:inkscape="http://www.inkscape.org/namespaces/inkscape"
   xmlns:sodipodi="http://sodipodi.sourceforge.net/DTD/sodipodi-0.dtd"
   xmlns="http://www.w3.org/2000/svg"
   xmlns:svg="http://www.w3.org/2000/svg">
  <sodipodi:namedview
     id="namedview1"
     pagecolor="#ffffff"
     bordercolor="#000000"
     borderopacity="0.25"
     inkscape:showpageshadow="2"
     inkscape:pageopacity="0.0"
     inkscape:pagecheckerboard="0"
     inkscape:deskcolor="#d1d1d1"
     inkscape:document-units="px"
     inkscape:zoom="0.63671875"
     inkscape:cx="254.42945"
     inkscape:cy="380.8589"
     inkscape:window-width="1392"
     inkscape:window-height="942"
     inkscape:window-x="0"
     inkscape:window-y="25"
     inkscape:window-maximized="0"
     inkscape:current-layer="svg1" />
  <defs
     id="defs1" />
  <path
     style="font-size:341.333px;font-family:'Khmer OS Content';-inkscape-font-specification:'Khmer OS Content';text-align:center;text-anchor:middle;stroke:#000000;stroke-width:0"
     d="m 294.71155,363.34333 q -23.33331,20.33331 -60.16661,20.33331 -24.99997,0 -37.49996,-8.49999 -12.49999,-8.33332 -12.49999,-24.66664 0,-20.66665 14.99999,-20.83331 14.99998,0 38.83329,-9.83333 23.66665,-9.83332 54.49995,-36.16663 24.99998,0 24.99998,24.99998 0,34.49996 -23.16665,54.66661 z m -11.83332,-45.66662 q -17.49998,12.83332 -35.8333,20.99998 -18.33331,8.16666 -35.8333,11.83332 0,5.83333 6.33333,9.66666 6.16666,3.83333 16.99998,3.83333 23.33331,0 39.66663,-15.66666 16.33332,-15.66665 18.33332,-37.83329 l -0.83333,0.5 q -2.16667,1.66666 -4.33333,3.33333 -2.16667,1.66666 -4.5,3.33333 z"
     id="text1"
     inkscape:label="text1"
     aria-label="្វ" />
  <path
     style="fill:#000000;stroke:#000000;stroke-width:0"
     d="m 295.2638,282.69939 -51.82822,36.1227 -53.39877,14.13497 6.28221,34.55214 61.25153,7.85276 37.69325,-25.12883 15.70553,-80.09816"
     id="path1" />
</svg>
