<?xml version="1.0" encoding="UTF-8" standalone="no"?>
<!-- Created with Inkscape (http://www.inkscape.org/) -->

<svg
   width="512"
   height="512"
   viewBox="0 0 512 512"
   version="1.1"
   id="svg1"
   inkscape:version="1.3.2 (091e20e, 2023-11-25)"
   sodipodi:docname="ហ1.svg"
   xmlns:inkscape="http://www.inkscape.org/namespaces/inkscape"
   xmlns:sodipodi="http://sodipodi.sourceforge.net/DTD/sodipodi-0.dtd"
   xmlns="http://www.w3.org/2000/svg"
   xmlns:svg="http://www.w3.org/2000/svg">
  <sodipodi:namedview
     id="namedview1"
     pagecolor="#ffffff"
     bordercolor="#000000"
     borderopacity="0.25"
     inkscape:showpageshadow="2"
     inkscape:pageopacity="0.0"
     inkscape:pagecheckerboard="0"
     inkscape:deskcolor="#d1d1d1"
     inkscape:document-units="px"
     inkscape:zoom="0.63671875"
     inkscape:cx="254.42945"
     inkscape:cy="380.8589"
     inkscape:window-width="1392"
     inkscape:window-height="942"
     inkscape:window-x="0"
     inkscape:window-y="25"
     inkscape:window-maximized="0"
     inkscape:current-layer="svg1" />
  <defs
     id="defs1" />
  <path
     style="font-size:341.333px;font-family:'Khmer OS Content';-inkscape-font-specification:'Khmer OS Content';text-align:center;text-anchor:middle;stroke:#000000;stroke-width:0"
     d="m 203.80775,329.92617 q 0,8.33332 4.16666,12.49999 4.16666,4.16666 12.49999,4.16666 8.33332,0 12.49999,-4.16666 4.16666,-4.16667 4.16666,-12.49999 v -24.99998 q 0,-16.66665 10.33332,-24.99997 10.49999,-8.33333 31.33331,-8.33333 20.83331,0 31.3333,8.33333 10.33332,8.33332 10.33332,24.99997 v 58.33328 h -24.99997 v -58.33328 q 0,-8.33332 -4.16667,-12.49999 -4.16666,-4.16666 -12.49998,-4.16666 -8.33333,0 -12.49999,4.16666 -4.16666,4.16667 -4.16666,12.49999 v 24.99998 q 0,16.66665 -10.33333,24.99997 -10.49999,8.33333 -31.3333,8.33333 -20.83331,0 -31.3333,-8.33333 -10.33333,-8.33332 -10.33333,-24.99997 v -58.33328 h 24.99998 z"
     id="text1"
     inkscape:label="text1"
     aria-label="្ហ" />
  <path
     style="fill:#000000;stroke:#000000;stroke-width:0"
     d="m 182.18405,266.99387 6.28221,76.95705 20.41718,15.70552 h 25.12883 l 17.27607,-14.13497 -1.57055,-61.25153 23.55828,-12.56442 26.69939,6.28221 9.42331,9.42331 -1.57055,100.51534"
     id="path1" />
</svg>
