<?xml version="1.0" encoding="UTF-8" standalone="no"?>
<!-- Created with Inkscape (http://www.inkscape.org/) -->

<svg
   width="512"
   height="512"
   viewBox="0 0 512 512"
   version="1.1"
   id="svg1"
   inkscape:version="1.3.2 (091e20e, 2023-11-25)"
   sodipodi:docname="ឯ.svg"
   xmlns:inkscape="http://www.inkscape.org/namespaces/inkscape"
   xmlns:sodipodi="http://sodipodi.sourceforge.net/DTD/sodipodi-0.dtd"
   xmlns="http://www.w3.org/2000/svg"
   xmlns:svg="http://www.w3.org/2000/svg">
  <sodipodi:namedview
     id="namedview1"
     pagecolor="#ffffff"
     bordercolor="#000000"
     borderopacity="0.25"
     inkscape:showpageshadow="2"
     inkscape:pageopacity="0.0"
     inkscape:pagecheckerboard="0"
     inkscape:deskcolor="#d1d1d1"
     inkscape:document-units="px"
     inkscape:zoom="0.63671875"
     inkscape:cx="254.42945"
     inkscape:cy="380.8589"
     inkscape:window-width="1392"
     inkscape:window-height="942"
     inkscape:window-x="0"
     inkscape:window-y="25"
     inkscape:window-maximized="0"
     inkscape:current-layer="svg1" />
  <defs
     id="defs1" />
  <path
     style="font-size:341.333px;font-family:'Khmer OS Content';-inkscape-font-specification:'Khmer OS Content';text-align:center;text-anchor:middle;stroke:#000000;stroke-width:0"
     d="m 171.5,249.16667 q -8.33333,3.33333 -8.33333,15.16665 0,8.33333 8.33333,8.33333 z m 0,40.16663 q -24.99998,0 -24.99998,-24.99998 0,-33.3333 33.3333,-33.3333 21.66665,0 21.66665,16.66665 V 354.4999 l 39.3333,-39.33329 q 6.99999,-7.16666 14.16665,-7.16666 6.99999,0 14.16665,7.16666 l 38.99996,39.16663 V 181.00007 q 0,-29.99997 -44.99995,-29.99997 -61.66661,0 -61.66661,21.66664 0,16.66665 -13.33332,16.66665 -16.66665,0 -16.66665,-16.66665 0,-29.16664 4.16666,-40.33329 4.16666,-11.33332 4.16666,-22.99998 0,-11.666655 -16.66665,-11.666655 0,-16.666651 16.66665,-16.666651 29.99997,0 29.99997,28.333306 0,14.16665 -4.16666,23.66664 -2.5,5.66667 -3.49999,11.99999 16.66665,-13.99998 60.99994,-13.99998 74.99993,0 74.99993,49.99995 v 183.33316 q 0,16.66665 -16.66665,16.66665 -14.99999,0 -27.83331,-12.83332 l -38.8333,-38.8333 -38.66663,38.8333 q -12.83332,12.83332 -27.99997,12.83332 -16.66665,0 -16.66665,-16.66665 z"
     id="text1"
     inkscape:label="text1"
     aria-label="ឯ" />
  <path
     style="fill:#000000;stroke:#000000;stroke-width:0"
     d="m 169.61963,284.26994 -25.12883,-7.85276 v -28.26994 l 15.70552,-15.70552 26.69939,1.57055 9.42331,138.20859 58.11043,-56.53988 58.11043,54.96933 h 9.42331 V 161.76687 l -32.98159,-20.41718 -43.97547,-1.57055 -34.55214,10.99387 -28.26994,34.55214 10.99386,-56.53987 -1.57055,-40.83436 -50.25767,-18.846626"
     id="path1" />
</svg>
