<?xml version="1.0" encoding="UTF-8" standalone="no"?>
<!-- Created with Inkscape (http://www.inkscape.org/) -->

<svg
   width="512"
   height="512"
   viewBox="0 0 512 512"
   version="1.1"
   id="svg1"
   inkscape:version="1.3.2 (091e20e, 2023-11-25)"
   sodipodi:docname="ី.svg"
   xmlns:inkscape="http://www.inkscape.org/namespaces/inkscape"
   xmlns:sodipodi="http://sodipodi.sourceforge.net/DTD/sodipodi-0.dtd"
   xmlns="http://www.w3.org/2000/svg"
   xmlns:svg="http://www.w3.org/2000/svg">
  <sodipodi:namedview
     id="namedview1"
     pagecolor="#ffffff"
     bordercolor="#000000"
     borderopacity="0.25"
     inkscape:showpageshadow="2"
     inkscape:pageopacity="0.0"
     inkscape:pagecheckerboard="0"
     inkscape:deskcolor="#d1d1d1"
     inkscape:document-units="px"
     inkscape:zoom="0.63671875"
     inkscape:cx="254.42945"
     inkscape:cy="380.8589"
     inkscape:window-width="1392"
     inkscape:window-height="942"
     inkscape:window-x="0"
     inkscape:window-y="25"
     inkscape:window-maximized="0"
     inkscape:current-layer="svg1" />
  <defs
     id="defs1" />
  <path
     style="font-size:341.333px;font-family:'Khmer OS Content';-inkscape-font-specification:'Khmer OS Content';text-align:center;text-anchor:middle;stroke:#000000;stroke-width:0"
     d="m 213.77606,184.30486 q 0,8.33333 8.33333,8.33333 h 86.66658 q -21.66664,-16.16665 -36.49996,-20.49998 -14.99999,-4.5 -33.49997,-4.5 -24.99998,0 -24.99998,16.66665 z m 102.66657,-10.99999 v -47.33328 h 22.33332 v 74.99992 q 0,8.33333 -16.66666,8.33333 h -99.9999 q -33.3333,0 -33.3333,-24.99998 0,-41.66662 49.99995,-41.66662 39.3333,0 77.66659,30.66663 z"
     id="text1"
     inkscape:label="text1"
     aria-label="ី" />
  <path
     style="fill:#000000;stroke:#000000;stroke-width:0"
     d="m 325.10429,207.31288 -124.07362,-1.57055 -4.71165,-25.12883 10.99386,-31.41105 47.11657,3.14111 72.2454,37.69325 L 252.8589,144.4908 306.25767,78.527607 328.2454,89.521472 V 229.30061"
     id="path1" />
</svg>
