<?xml version="1.0" encoding="UTF-8" standalone="no"?>
<!-- Created with Inkscape (http://www.inkscape.org/) -->

<svg
   width="512"
   height="512"
   viewBox="0 0 512 512"
   version="1.1"
   id="svg1"
   inkscape:version="1.3.2 (091e20e, 2023-11-25)"
   sodipodi:docname="ឺ.svg"
   xmlns:inkscape="http://www.inkscape.org/namespaces/inkscape"
   xmlns:sodipodi="http://sodipodi.sourceforge.net/DTD/sodipodi-0.dtd"
   xmlns="http://www.w3.org/2000/svg"
   xmlns:svg="http://www.w3.org/2000/svg">
  <sodipodi:namedview
     id="namedview1"
     pagecolor="#ffffff"
     bordercolor="#000000"
     borderopacity="0.25"
     inkscape:showpageshadow="2"
     inkscape:pageopacity="0.0"
     inkscape:pagecheckerboard="0"
     inkscape:deskcolor="#d1d1d1"
     inkscape:document-units="px"
     inkscape:zoom="0.63671875"
     inkscape:cx="254.42945"
     inkscape:cy="380.8589"
     inkscape:window-width="1392"
     inkscape:window-height="942"
     inkscape:window-x="0"
     inkscape:window-y="25"
     inkscape:window-maximized="0"
     inkscape:current-layer="svg1" />
  <defs
     id="defs1" />
  <path
     style="font-size:341.333px;font-family:'Khmer OS Content';-inkscape-font-specification:'Khmer OS Content';text-align:center;text-anchor:middle;stroke:#000000;stroke-width:0"
     d="m 218.4877,190.58709 q 0,8.33332 8.33333,8.33332 h 86.66658 q -21.66664,-16.16665 -36.49996,-20.49998 -14.99999,-4.49999 -33.49997,-4.49999 -24.99998,0 -24.99998,16.66665 z m 60.99995,-35.16663 v -23.16665 h 22.33331 v 33.8333 q 9.83332,5.83333 19.33331,13.49999 v -47.33329 h 22.33332 v 74.99993 q 0,8.33333 -16.66666,8.33333 h -99.9999 q -33.3333,0 -33.3333,-24.99998 0,-41.66663 49.99995,-41.66663 18.16665,0 35.99997,6.5 z"
     id="text1"
     inkscape:label="text1"
     aria-label="ឺ" />
  <path
     style="fill:#000000;stroke:#000000;stroke-width:0"
     d="m 337.66871,218.30675 -130.35583,-6.28221 -3.1411,-28.26994 17.27607,-29.84049 23.55828,7.85276 92.66258,43.97546 53.39877,-26.69939 -40.83435,-94.233124 -62.82209,21.987734 1.57056,72.24539 51.82822,20.41718 58.11043,-1.57055 -14.13497,-120.932515 -59.68099,26.699385 6.28221,142.92025"
     id="path1" />
</svg>
