<?xml version="1.0" encoding="UTF-8" standalone="no"?>
<!-- Created with Inkscape (http://www.inkscape.org/) -->

<svg
   width="512"
   height="512"
   viewBox="0 0 512 512"
   version="1.1"
   id="svg1"
   inkscape:version="1.3.2 (091e20e, 2023-11-25)"
   sodipodi:docname="ូ.svg"
   xmlns:inkscape="http://www.inkscape.org/namespaces/inkscape"
   xmlns:sodipodi="http://sodipodi.sourceforge.net/DTD/sodipodi-0.dtd"
   xmlns="http://www.w3.org/2000/svg"
   xmlns:svg="http://www.w3.org/2000/svg">
  <sodipodi:namedview
     id="namedview1"
     pagecolor="#ffffff"
     bordercolor="#000000"
     borderopacity="0.25"
     inkscape:showpageshadow="2"
     inkscape:pageopacity="0.0"
     inkscape:pagecheckerboard="0"
     inkscape:deskcolor="#d1d1d1"
     inkscape:document-units="px"
     inkscape:zoom="0.63671875"
     inkscape:cx="254.42945"
     inkscape:cy="380.8589"
     inkscape:window-width="1392"
     inkscape:window-height="942"
     inkscape:window-x="0"
     inkscape:window-y="25"
     inkscape:window-maximized="0"
     inkscape:current-layer="svg1" />
  <defs
     id="defs1" />
  <path
     style="font-size:341.333px;font-family:'Khmer OS Content';-inkscape-font-specification:'Khmer OS Content';text-align:center;text-anchor:middle;stroke:#000000;stroke-width:0"
     d="m 251.47331,385.67664 q -38.16663,0 -38.16663,-27.99997 0,-7.99999 3.16667,-18.16665 l 8.33332,-22.83331 q -13.33332,0 -13.33332,-15.16665 0,-14.99999 19.99998,-14.99999 20.49998,0 20.49998,18.99998 0,7.83333 -3.49999,18.83332 l -6.83333,19.49998 q -1.83333,5.16666 -1.83333,8.83333 0,9.49999 11.66665,9.49999 16.16665,0 26.66664,-34.16664 11.99999,-41.49996 20.99998,-41.49996 4.16667,0 4.16667,10.16666 0,13.33332 -6.33333,42.83329 -9.66666,46.16662 -45.49996,46.16662 z"
     id="text1"
     inkscape:label="text1"
     aria-label="ូ" />
  <path
     style="fill:#000000;stroke:#000000;stroke-width:0"
     d="m 218.30675,307.82822 -12.56442,-12.56442 21.98773,-15.70552 23.55828,15.70552 -26.69938,58.11043 12.56441,26.69939 31.41105,-10.99387 18.84662,-12.56441 20.41718,-87.95092"
     id="path1" />
</svg>
