<?xml version="1.0" encoding="UTF-8" standalone="no"?>
<!-- Created with Inkscape (http://www.inkscape.org/) -->

<svg
   width="512"
   height="512"
   viewBox="0 0 512 512"
   version="1.1"
   id="svg1"
   inkscape:version="1.3.2 (091e20e, 2023-11-25)"
   sodipodi:docname="េ.svg"
   xmlns:inkscape="http://www.inkscape.org/namespaces/inkscape"
   xmlns:sodipodi="http://sodipodi.sourceforge.net/DTD/sodipodi-0.dtd"
   xmlns="http://www.w3.org/2000/svg"
   xmlns:svg="http://www.w3.org/2000/svg">
  <sodipodi:namedview
     id="namedview1"
     pagecolor="#ffffff"
     bordercolor="#000000"
     borderopacity="0.25"
     inkscape:showpageshadow="2"
     inkscape:pageopacity="0.0"
     inkscape:pagecheckerboard="0"
     inkscape:deskcolor="#d1d1d1"
     inkscape:document-units="px"
     inkscape:zoom="0.63671875"
     inkscape:cx="254.42945"
     inkscape:cy="380.8589"
     inkscape:window-width="1392"
     inkscape:window-height="942"
     inkscape:window-x="0"
     inkscape:window-y="25"
     inkscape:window-maximized="0"
     inkscape:current-layer="svg1" />
  <defs
     id="defs1" />
  <path
     style="font-size:341.333px;font-family:'Khmer OS Content';-inkscape-font-specification:'Khmer OS Content';text-align:center;text-anchor:middle;stroke:#000000;stroke-width:0"
     d="m 274.57978,352.85879 q 9.99999,0 9.99999,-24.99998 0,-16.66665 -9.99999,-16.66665 z M 244.57981,217.35892 q 0,-17.66665 -33.3333,-27.99998 3.33333,-16.83331 15.83332,-39.16662 12.66665,-22.33332 21.66664,-22.33332 7.33333,0 19.16665,7.16666 l 11.66666,7.16666 q 5.16666,3.16667 12.16665,3.16667 3.66666,0 7.83333,-0.83334 -1.66667,11.66666 -6.83333,19.16665 -5,7.33333 -13.49999,8.16666 -0.83333,0.16667 -1.66666,0.16667 -8.33333,0 -22.49998,-8.83333 -4.33333,-2.49999 -7.99999,-2.49999 -10.49999,0 -18.16665,19.16664 45.66662,14.66666 45.66662,27.99998 v 86.66658 q 26.66664,0 26.66664,33.3333 0,16.66665 -8.83332,33.3333 -8.66666,16.66665 -26.16664,16.66665 -21.66665,0 -21.66665,-16.66665 z"
     id="text1"
     inkscape:label="text1"
     aria-label="េ" />
  <path
     style="fill:#000000;stroke:#000000;stroke-width:0"
     d="m 274.84663,296.83436 21.98773,14.13497 1.57055,39.2638 -18.84663,25.12883 -20.41718,-3.1411 V 204.17178 l -40.83435,-18.84663 26.69938,-45.54601 21.98774,12.56442 67.53374,17.27607"
     id="path1" />
</svg>
