<?xml version="1.0" encoding="UTF-8" standalone="no"?>
<!-- Created with Inkscape (http://www.inkscape.org/) -->

<svg
   width="512"
   height="512"
   viewBox="0 0 512 512"
   version="1.1"
   id="svg1"
   inkscape:version="1.3.2 (091e20e, 2023-11-25)"
   sodipodi:docname="០.svg"
   xmlns:inkscape="http://www.inkscape.org/namespaces/inkscape"
   xmlns:sodipodi="http://sodipodi.sourceforge.net/DTD/sodipodi-0.dtd"
   xmlns="http://www.w3.org/2000/svg"
   xmlns:svg="http://www.w3.org/2000/svg">
  <sodipodi:namedview
     id="namedview1"
     pagecolor="#ffffff"
     bordercolor="#000000"
     borderopacity="0.25"
     inkscape:showpageshadow="2"
     inkscape:pageopacity="0.0"
     inkscape:pagecheckerboard="0"
     inkscape:deskcolor="#d1d1d1"
     inkscape:document-units="px"
     inkscape:zoom="0.63671875"
     inkscape:cx="254.42945"
     inkscape:cy="380.8589"
     inkscape:window-width="1392"
     inkscape:window-height="942"
     inkscape:window-x="0"
     inkscape:window-y="25"
     inkscape:window-maximized="0"
     inkscape:current-layer="svg1" />
  <defs
     id="defs1" />
  <path
     style="-inkscape-font-specification:'Khmer OS Content';stroke:#000000;stroke-width:0"
     d="m 187.16665,349.83324 q -19.83331,-31.3333 -19.83331,-68.83327 v -49.99995 q 0,-37.49996 19.83331,-68.6666 19.83331,-31.3333 67.83327,-31.3333 47.83329,0 67.49993,31.3333 19.83332,31.16664 19.83332,68.6666 v 49.99995 q 0,37.49997 -19.83332,68.83327 -19.66664,31.16664 -67.49993,31.16664 -47.99996,0 -67.83327,-31.16664 z M 209.99996,180.3334 q -12.66665,25.16665 -12.66665,50.66662 v 49.99995 q 0,25.49998 12.66665,50.83329 12.66666,25.16664 44.99996,25.16664 32.16663,0 44.66662,-25.16664 12.66666,-25.33331 12.66666,-50.83329 v -49.99995 q 0,-25.49997 -12.66666,-50.66662 -12.49999,-25.33331 -44.66662,-25.33331 -32.3333,0 -44.99996,25.33331 z"
     id="text1"
     inkscape:label="text1"
     aria-label="០" />
  <path
     style="fill:#000000;stroke:#000000;stroke-width:0"
     d="m 257.57055,139.77914 -45.54601,9.42331 -31.41104,54.96933 v 100.51534 l 21.98773,47.11656 43.97546,17.27607 62.82208,-10.99386 21.98773,-48.68712 -7.85276,-109.93865 -25.12883,-50.25767 -65.96319,-23.55828"
     id="path1" />
</svg>
