<svg id="z12736" class="acjk" version="1.1" viewBox="0 0 512 512" xmlns="http://www.w3.org/2000/svg" xmlns:xlink="http://www.w3.org/1999/xlink">
<style>
<![CDATA[
@keyframes zk {
	to {
		stroke-dashoffset:0;
	}
}
svg.acjk path[clip-path] {
	--t:3s;
	animation:zk var(--t) linear forwards var(--d);
	stroke-dasharray:var(--length);
	stroke-dashoffset:var(--length);
	stroke-width:40;
	stroke-linecap:round;
	fill:none;
	stroke:#000;
}
svg.acjk path[id] {fill:#ccc;}
]]>
</style>
<path id="z12736d1" d="m 253.24992,237.50001 q 47.49995,0 47.49995,-40.83329 0,-40.66663 -47.49995,-40.66663 -47.49995,0 -47.49995,40.66663 h -24.99998 q 0,-65.6666 72.49993,-65.6666 72.49993,0 72.49993,65.33327 0,36.66663 -22.66664,52.83328 27.66664,17.16665 27.66664,59.99994 0,71.83327 -77.49993,71.83327 -77.49993,0 -77.49993,-72.1666 h 24.99998 q 0,47.16662 52.49995,47.16662 52.49995,0 52.49995,-47.16662 0,-46.99996 -52.49995,-46.99996 h -12.99999 v -24.33331 z"/>
<defs>
	<clipPath id="z12736c1"><use xlink:href="#z12736d1"/></clipPath>
</defs>
<path style="--d:0s;--length:1000" clip-path="url(#z12736c1)" d="m 190.03681,201.03067 9.42331,-34.55214 39.26381,-26.69939 65.96319,12.56442 14.13497,50.25767 -12.56442,29.84049 -18.84663,12.56441 -40.83435,4.71166 54.96932,4.71166 15.70552,42.40491 -6.2822,45.54601 -31.41105,21.98773 -50.25767,-1.57055 -31.41104,-10.99387 -7.85276,-17.27607 -4.71166,-48.68712"/>
</svg>
  