<svg id="z12736" class="acjk" version="1.1" viewBox="0 0 512 512" xmlns="http://www.w3.org/2000/svg" xmlns:xlink="http://www.w3.org/1999/xlink">
<style>
<![CDATA[
@keyframes zk {
	to {
		stroke-dashoffset:0;
	}
}
svg.acjk path[clip-path] {
	--t:3s;
	animation:zk var(--t) linear forwards var(--d);
	stroke-dasharray:var(--length);
	stroke-dashoffset:var(--length);
	stroke-width:40;
	stroke-linecap:round;
	fill:none;
	stroke:#000;
}
svg.acjk path[id] {fill:#ccc;}
]]>
</style>
<path id="z12736d1" d="m 254.83325,156.00009 q -47.49995,0 -47.49995,41.66663 0,41.66663 47.49995,41.66663 47.49996,0 47.49996,-41.66663 0,-41.66663 -47.49996,-41.66663 z m 0,108.33323 q -52.49995,0 -52.49995,45.83329 0,45.83329 52.49995,45.83329 52.49995,0 52.49995,-45.83329 0,-45.83329 -52.49995,-45.83329 z M 204.49997,251 q -22.16665,-16.33332 -22.16665,-53.33328 0,-66.6666 72.49993,-66.6666 72.49993,0 72.49993,66.6666 0,36.99996 -22.16664,53.33328 27.16664,17.16665 27.16664,59.16661 0,70.83327 -77.49993,70.83327 -77.49992,0 -77.49992,-70.83327 0,-41.99996 27.16664,-59.16661 z"/>
<defs>
	<clipPath id="z12736c1"><use xlink:href="#z12736d1"/></clipPath>
</defs>
<path style="--d:0s;--length:1000" clip-path="url(#z12736c1)" d="m 252.8589,139.77914 -45.54602,15.70552 -17.27607,47.11657 25.12883,43.97546 61.25154,10.99386 40.83435,15.70552 4.71166,47.11657 -18.84663,37.69325 -47.11656,7.85276 -50.25767,-7.85276 -18.84662,-39.2638 6.2822,-45.54602 45.54602,-21.98773 51.82822,-6.28221 21.98773,-28.26993 -3.14111,-53.39878 -32.98159,-18.84662 -48.68712,-7.85276"/>
</svg>
  