<svg id="z12736" class="acjk" version="1.1" viewBox="0 0 512 512" xmlns="http://www.w3.org/2000/svg" xmlns:xlink="http://www.w3.org/1999/xlink">
<style>
<![CDATA[
@keyframes zk {
	to {
		stroke-dashoffset:0;
	}
}
svg.acjk path[clip-path] {
	--t:3s;
	animation:zk var(--t) linear forwards var(--d);
	stroke-dasharray:var(--length);
	stroke-dashoffset:var(--length);
	stroke-width:40;
	stroke-linecap:round;
	fill:none;
	stroke:#000;
}
svg.acjk path[id] {fill:#ccc;}
]]>
</style>
<path id="z12736d1" d="m 304.49987,226.50003 q -7.16666,-70.49994 -51.16662,-70.49994 -52.49995,0 -52.49995,54.16662 0,54.16661 52.49995,54.16661 43.83329,0 51.16662,-37.83329 z m -51.16662,-95.49991 q 77.49993,0 77.49993,124.99988 0,124.99988 -85.83325,124.99988 -69.1666,0 -69.1666,-58.66661 h 24.99997 q 0,33.66663 44.16663,33.66663 54.66661,0 60.16661,-80.99992 -18.83332,14.33332 -51.83329,14.33332 -77.49992,0 -77.49992,-79.16659 0,-79.16659 77.49992,-79.16659 z"/>
<defs>
	<clipPath id="z12736c1"><use xlink:href="#z12736d1"/></clipPath>
</defs>
<path style="--d:0s;--length:1000" clip-path="url(#z12736c1)" d="m 318.82209,238.72393 -28.26994,28.26994 -47.11657,10.99386 -47.11656,-18.84663 -12.56442,-51.82822 15.70552,-48.68711 37.69325,-15.70552 39.26381,1.57055 32.98159,36.1227 10.99387,103.65644 -23.55828,59.68098 -48.68712,26.69939 -42.40491,-9.42332 -18.84662,-25.12883 -3.14111,-26.69939"/>
</svg>
  