<svg id="z17553" class="acjk" version="1.1" viewBox="0 0 512 512" xmlns="http://www.w3.org/2000/svg" xmlns:xlink="http://www.w3.org/1999/xlink">
<style>
<![CDATA[
@keyframes zk {
	to {
		stroke-dashoffset:0;
	}
}
svg.acjk path[clip-path] {
	--t:0.8s;
	animation:zk var(--t) linear forwards var(--d);
	stroke-dasharray:3337;
	stroke-dashoffset:3339;
	stroke-width:40;
	stroke-linecap:round;
	fill:none;
	stroke:#000;
}
svg.acjk path[id] {fill:#ccc;}
]]>
</style>
<path id="z17553d1" d="m 367.16648,342.99988 h -35.16663 l -24.33332,-69.1666 H 200.3333 l -24.33331,69.1666 H 142.50003 L 232.83327,94.833448 h 43.99996 z m -69.6666,-97.49991 -43.49996,-121.83322 -43.66663,121.83322 z"/>
<path id="z17553d2" d="m 367.16648,342.99988 h -35.16663 l -24.33332,-69.1666 H 200.3333 l -24.33331,69.1666 H 142.50003 L 232.83327,94.833448 h 43.99996 z m -69.6666,-97.49991 -43.49996,-121.83322 -43.66663,121.83322 z"/>
<path id="z17553d3" d="m 367.16648,342.99988 h -35.16663 l -24.33332,-69.1666 H 200.3333 l -24.33331,69.1666 H 142.50003 L 232.83327,94.833448 h 43.99996 z m -69.6666,-97.49991 -43.49996,-121.83322 -43.66663,121.83322 z"/>
<defs>
	<clipPath id="z17553c1"><use xlink:href="#z17553d1"/></clipPath>
	<clipPath id="z17553c2"><use xlink:href="#z17553d2"/></clipPath>
	<clipPath id="z17553c3"><use xlink:href="#z17553d3"/></clipPath>
</defs>
<path style="--d:1s;" pathLength="3333" clip-path="url(#z17553c1)" d="M 254.42945,75.386503 146.06135,376.93252"/>
<path style="--d:2s;" pathLength="3333" clip-path="url(#z17553c2)" d="M 241.86503,45.546012 367.5092,381.64417"/>
<path style="--d:3s;" pathLength="3333" clip-path="url(#z17553c3)" d="m 139.77914,256 224.58896,4.71166"/>
</svg>
  