<svg id="z12736" class="acjk" version="1.1" viewBox="0 0 512 512" xmlns="http://www.w3.org/2000/svg" xmlns:xlink="http://www.w3.org/1999/xlink">
<style>
<![CDATA[
@keyframes zk {
	to {
		stroke-dashoffset:0;
	}
}
svg.acjk path[clip-path] {
	--t:3s;
	animation:zk var(--t) linear forwards var(--d);
	stroke-dasharray:var(--length);
	stroke-dashoffset:var(--length);
	stroke-width:40;
	stroke-linecap:round;
	fill:none;
	stroke:#000;
}
svg.acjk path[id] {fill:#ccc;}
]]>
</style>
<path id="z12736d1" d="m 343.1665,248.49997 q 0,23.33331 -6.66666,41.99996 -6.49999,18.66665 -17.66665,31.3333 -11.83332,13.16666 -25.99997,19.83332 -14.16666,6.49999 -31.16664,6.49999 -15.83332,0 -27.66664,-3.83333 -11.83332,-3.66666 -23.33331,-9.99999 l -2,8.66666 H 179.33332 V 83.666792 h 31.33331 v 92.666578 q 13.16665,-10.83332 27.99997,-17.66665 14.83332,-6.99999 33.3333,-6.99999 32.99997,0 51.99995,25.33331 19.16665,25.33331 19.16665,71.49993 z m -32.3333,0.83333 q 0,-33.3333 -10.99999,-50.49995 -10.99999,-17.33332 -35.49997,-17.33332 -13.66665,0 -27.66664,6 -13.99998,5.83332 -25.99997,15.16665 v 106.66656 q 13.33332,6 22.83331,8.33333 9.66666,2.33333 21.83331,2.33333 25.99998,0 40.66663,-16.99998 14.83332,-17.16665 14.83332,-53.66662 z"/>
<defs>
	<clipPath id="z12736c1"><use xlink:href="#z12736d1"/></clipPath>
</defs>
<path style="--d:0s;--length:1000" clip-path="url(#z12736c1)" d="m 190.03681,67.533742 3.1411,287.411048 -1.57055,-153.91412 42.40491,-31.41104 54.96933,-3.1411 37.69325,47.11656 7.85276,48.68712 -21.98773,50.25767 -45.54601,25.12883 -48.68712,-9.42331 -36.1227,-15.70552"/>
</svg>
  