<svg id="z12736" class="acjk" version="1.1" viewBox="0 0 512 512" xmlns="http://www.w3.org/2000/svg" xmlns:xlink="http://www.w3.org/1999/xlink">
<style>
<![CDATA[
@keyframes zk {
	to {
		stroke-dashoffset:0;
	}
}
svg.acjk path[clip-path] {
	--t:3s;
	animation:zk var(--t) linear forwards var(--d);
	stroke-dasharray:var(--length);
	stroke-dashoffset:var(--length);
	stroke-width:40;
	stroke-linecap:round;
	fill:none;
	stroke:#000;
}
svg.acjk path[id] {fill:#ccc;}
]]>
</style>
<path id="z12736d1" d="m 334.41651,331.33322 q -15.66665,7.5 -29.83331,11.66666 -13.99998,4.16666 -29.8333,4.16666 -20.16665,0 -36.99997,-5.83333 -16.83331,-5.99999 -28.8333,-17.99998 -12.16666,-11.99999 -18.83332,-30.3333 -6.66666,-18.33332 -6.66666,-42.8333 0,-45.66662 24.99998,-71.6666 25.16664,-25.99997 66.33327,-25.99997 15.99998,0 31.3333,4.5 15.49999,4.49999 28.33331,10.99998 v 34.8333 h -1.66667 q -14.33332,-11.16665 -29.66663,-17.16665 -15.16666,-5.99999 -29.66664,-5.99999 -26.66664,0 -42.16663,17.99998 -15.33332,17.83332 -15.33332,52.49995 0,33.66664 14.99999,51.83329 15.16665,17.99998 42.49996,17.99998 9.49999,0 19.33331,-2.5 9.83333,-2.5 17.66665,-6.49999 6.83333,-3.5 12.83332,-7.33333 6,-3.99999 9.49999,-6.83332 h 1.66667 z"/>
<defs>
	<clipPath id="z12736c1"><use xlink:href="#z12736d1"/></clipPath>
</defs>
<path style="--d:0s;--length:1000" clip-path="url(#z12736c1)" d="m 343.95092,190.03681 -61.25153,-25.12883 -48.68712,10.99386 -29.84049,47.11656 v 72.2454 l 26.69939,31.41105 50.25766,6.28221 58.11043,-14.13497"/>
</svg>
  