<svg id="z12736" class="acjk" version="1.1" viewBox="0 0 512 512" xmlns="http://www.w3.org/2000/svg" xmlns:xlink="http://www.w3.org/1999/xlink">
<style>
<![CDATA[
@keyframes zk {
	to {
		stroke-dashoffset:0;
	}
}
svg.acjk path[clip-path] {
	--t:3s;
	animation:zk var(--t) linear forwards var(--d);
	stroke-dasharray:var(--length);
	stroke-dashoffset:var(--length);
	stroke-width:40;
	stroke-linecap:round;
	fill:none;
	stroke:#000;
}
svg.acjk path[id] {fill:#ccc;}
]]>
</style>
<path id="z12736d1" d="m 330.33318,342.99988 h -31.3333 V 323.4999 q -13.49999,11.66665 -28.16664,18.16665 -14.66666,6.49999 -31.83331,6.49999 -33.3333,0 -52.99995,-25.66664 Q 166.5,296.83326 166.5,251.3333 q 0,-23.66665 6.66666,-42.16663 6.83333,-18.49998 18.33332,-31.49997 11.33332,-12.66665 26.33331,-19.33331 15.16665,-6.66666 31.3333,-6.66666 14.66665,0 25.99998,3.16666 11.33332,3 23.83331,9.49999 V 83.666792 h 31.3333 z m -31.3333,-45.83329 V 190.33336 q -12.66666,-5.66666 -22.66665,-7.83333 -9.99999,-2.16666 -21.83331,-2.16666 -26.33331,0 -40.99996,18.33331 -14.66665,18.33332 -14.66665,51.99995 0,33.16664 11.33332,50.49995 11.33332,17.16665 36.3333,17.16665 13.33332,0 26.99997,-5.83332 13.66665,-6 25.49998,-15.33332 z"/>
<defs>
	<clipPath id="z12736c1"><use xlink:href="#z12736d1"/></clipPath>
</defs>
<path style="--d:0s;--length:1000" clip-path="url(#z12736c1)" d="m 296.83436,177.47239 -51.82823,-14.13497 -43.97546,21.98773 -21.98773,64.39264 14.13497,59.68098 31.41105,25.12884 h 36.1227 l 47.11656,-28.26994 6.28221,-9.42331 -1.57055,-227.730066 1.57055,292.122696"/>
</svg>
  