<svg id="z12736" class="acjk" version="1.1" viewBox="0 0 512 512" xmlns="http://www.w3.org/2000/svg" xmlns:xlink="http://www.w3.org/1999/xlink">
<style>
<![CDATA[
@keyframes zk {
	to {
		stroke-dashoffset:0;
	}
}
svg.acjk path[clip-path] {
	--t:3s;
	animation:zk var(--t) linear forwards var(--d);
	stroke-dasharray:var(--length);
	stroke-dashoffset:var(--length);
	stroke-width:40;
	stroke-linecap:round;
	fill:none;
	stroke:#000;
}
svg.acjk path[id] {fill:#ccc;}
]]>
</style>
<path id="z12736d1" d="m 366.33315,219.16666 q 0,33.8333 -14.83332,61.33328 -14.66666,27.49997 -39.16663,42.66662 -16.99999,10.49999 -37.99997,15.16666 -20.83331,4.66666 -54.99994,4.66666 H 156.66668 V 94.833448 h 61.99994 q 36.3333,0 57.66661,5.333332 21.49998,5.16666 36.3333,14.33332 25.33331,15.83331 39.49996,42.16662 14.16666,26.33331 14.16666,62.49994 z m -34.49997,-0.5 q 0,-29.16664 -10.16666,-49.16662 -10.16666,-19.99998 -30.3333,-31.49997 -14.66666,-8.33332 -31.16664,-11.49999 -16.49998,-3.33333 -39.49996,-3.33333 h -30.99997 v 191.49982 h 30.99997 q 23.83331,0 41.49996,-3.5 17.83331,-3.49999 32.66663,-12.99998 18.49999,-11.83332 27.66664,-31.16664 9.33333,-19.33331 9.33333,-48.33329 z"/>
<defs>
	<clipPath id="z12736c1"><use xlink:href="#z12736d1"/></clipPath>
</defs>
<path style="--d:0s;--length:1000" clip-path="url(#z12736c1)" d="m 168.04908,84.809816 6.28221,279.558284 -97.374235,17.27607 45.546015,-276.41718 153.91411,1.57056 54.96932,47.11656 23.55829,73.81595 -21.98773,59.68098 -45.54602,36.1227 -75.3865,7.85276 -174.331288,1.57056"/>
</svg>
  