<svg id="z20013" class="acjk" version="1.1" viewBox="0 0 512 512" xmlns="http://www.w3.org/2000/svg" xmlns:xlink="http://www.w3.org/1999/xlink">
<style>
<![CDATA[
@keyframes zk {
	to {
		stroke-dashoffset:0;
	}
}
svg.acjk path[clip-path] {
	--t:0.8s;
	animation:zk var(--t) linear forwards var(--d);
	stroke-dasharray:3337;
	stroke-dashoffset:3339;
	stroke-width:35;
	stroke-linecap:round;
	fill:none;
	stroke:#000;
}
svg.acjk path[id] {fill:#ccc;}
]]>
</style>
<path id="z20013d1" d="M 343.74983,342.99988 H 180.24999 V 94.833448 H 343.74983 V 124.16675 H 213.24996 v 67.99994 h 130.49987 v 29.3333 H 213.24996 v 92.16658 h 130.49987 z"/>
<path id="z20013d2" d="M 343.74983,342.99988 H 180.24999 V 94.833448 H 343.74983 V 124.16675 H 213.24996 v 67.99994 h 130.49987 v 29.3333 H 213.24996 v 92.16658 h 130.49987 z"/>
<path id="z20013d3" d="M 343.74983,342.99988 H 180.24999 V 94.833448 H 343.74983 V 124.16675 H 213.24996 v 67.99994 h 130.49987 v 29.3333 H 213.24996 v 92.16658 h 130.49987 z"/>
<path id="z20013d4" d="M 343.74983,342.99988 H 180.24999 V 94.833448 H 343.74983 V 124.16675 H 213.24996 v 67.99994 h 130.49987 v 29.3333 H 213.24996 v 92.16658 h 130.49987 z"/>
<defs>
	<clipPath id="z20013c1"><use xlink:href="#z20013d1"/></clipPath>
	<clipPath id="z20013c2"><use xlink:href="#z20013d2"/></clipPath>
	<clipPath id="z20013c3"><use xlink:href="#z20013d3"/></clipPath>
	<clipPath id="z20013c4"><use xlink:href="#z20013d4"/></clipPath>
</defs>
<path style="--d:1s;" pathLength="3333" clip-path="url(#z20013c1)" d="m 193.17791,78.527607 1.57056,296.834353"/>
<path style="--d:2s;" pathLength="3333" clip-path="url(#z20013c2)" d="m 164.90798,106.79755 207.31288,1.57055"/>
<path style="--d:3s;" pathLength="3333" clip-path="url(#z20013c3)" d="m 158.62577,207.31288 223.0184,-3.1411"/>
<path style="--d:4s;" pathLength="3333" clip-path="url(#z20013c4)" d="M 160.19632,329.81595 367.5092,328.2454"/>
</svg>
  