<svg id="z12736" class="acjk" version="1.1" viewBox="0 0 512 512" xmlns="http://www.w3.org/2000/svg" xmlns:xlink="http://www.w3.org/1999/xlink">
<style>
<![CDATA[
@keyframes zk {
	to {
		stroke-dashoffset:0;
	}
}
svg.acjk path[clip-path] {
	--t:3s;
	animation:zk var(--t) linear forwards var(--d);
	stroke-dasharray:var(--length);
	stroke-dashoffset:var(--length);
	stroke-width:40;
	stroke-linecap:round;
	fill:none;
	stroke:#000;
}
svg.acjk path[id] {fill:#ccc;}
]]>
</style>
<path id="z12736d1" d="m 325.83318,114.0001 h -1.66666 q -5.16666,-1.5 -13.49999,-3 -8.33332,-1.66667 -14.66665,-1.66667 -20.16665,0 -29.33331,9 -8.99999,8.83332 -8.99999,32.16663 v 6.33333 h 56.49995 v 26.33331 h -55.49995 v 159.83318 h -31.3333 V 183.1667 h -21.16665 v -26.33331 h 21.16665 v -6.16666 q 0,-33.16664 16.49998,-50.833287 16.49999,-17.833316 47.66662,-17.833316 10.49999,0 18.83332,0.999999 8.49999,0.999999 15.49998,2.333331 z"/>
<defs>
	<clipPath id="z12736c1"><use xlink:href="#z12736d1"/></clipPath>
</defs>
<path style="--d:0s;--length:1000" clip-path="url(#z12736c1)" d="m 358.08589,98.944785 -48.68712,-1.570552 -43.97546,1.570552 -21.98773,34.552145 1.57055,235.58282 -108.36809,3.14111 23.55828,-204.17178 226.15951,1.57055"/>
</svg>
  