<svg id="z12736" class="acjk" version="1.1" viewBox="0 0 512 512" xmlns="http://www.w3.org/2000/svg" xmlns:xlink="http://www.w3.org/1999/xlink">
<style>
<![CDATA[
@keyframes zk {
	to {
		stroke-dashoffset:0;
	}
}
svg.acjk path[clip-path] {
	--t:3s;
	animation:zk var(--t) linear forwards var(--d);
	stroke-dasharray:var(--length);
	stroke-dashoffset:var(--length);
	stroke-width:40;
	stroke-linecap:round;
	fill:none;
	stroke:#000;
}
svg.acjk path[id] {fill:#ccc;}
]]>
</style>
<path id="z12736d1" d="m 330.33318,321.83323 q 0,47.33329 -21.49998,69.49994 -21.49998,22.16664 -66.1666,22.16664 -14.83332,0 -28.99998,-2.16666 -13.99998,-2 -27.66664,-5.83333 v -31.99997 h 1.66667 q 7.66666,3 24.33331,7.33333 16.66665,4.49999 33.3333,4.49999 15.99999,0 26.49998,-3.83333 10.49999,-3.83333 16.33331,-10.66666 5.83333,-6.49999 8.33333,-15.66665 2.5,-9.16665 2.5,-20.49998 v -16.99998 q -14.16666,11.33332 -27.16664,16.99998 -12.83333,5.5 -32.83331,5.5 -33.3333,0 -52.99995,-23.99998 Q 166.5,291.99993 166.5,248.16664 q 0,-23.99998 6.66666,-41.3333 6.83333,-17.49998 18.49999,-30.16664 10.83332,-11.83332 26.3333,-18.33331 15.49999,-6.66666 30.83331,-6.66666 16.16665,0 26.99997,3.33333 10.99999,3.16666 23.16665,9.83332 l 1.99999,-7.99999 h 29.33331 z m -31.3333,-29.99997 v -101.4999 q -12.49999,-5.66666 -23.33331,-8 -10.66666,-2.49999 -21.33332,-2.49999 -25.83331,0 -40.66663,17.33331 -14.83331,17.33332 -14.83331,50.33329 0,31.3333 10.99998,47.49995 10.99999,16.16665 36.49997,16.16665 13.66665,0 27.33331,-5.16666 13.83332,-5.33333 25.33331,-14.16665 z"/>
<defs>
	<clipPath id="z12736c1"><use xlink:href="#z12736d1"/></clipPath>
</defs>
<path style="--d:0s;--length:1000" clip-path="url(#z12736c1)" d="M 304.68712,179.04294 256,163.33742 l -53.39877,14.13497 -23.55829,53.39878 10.99387,65.96319 28.26994,32.98159 39.2638,-3.1411 58.11043,-26.69939 V 136.63804 l -1.57055,216.73619 -25.12883,39.26381 -54.96933,10.99386 -65.96319,-14.13497"/>
</svg>
  