<svg id="z12736" class="acjk" version="1.1" viewBox="0 0 512 512" xmlns="http://www.w3.org/2000/svg" xmlns:xlink="http://www.w3.org/1999/xlink">
<style>
<![CDATA[
@keyframes zk {
	to {
		stroke-dashoffset:0;
	}
}
svg.acjk path[clip-path] {
	--t:3s;
	animation:zk var(--t) linear forwards var(--d);
	stroke-dasharray:var(--length);
	stroke-dashoffset:var(--length);
	stroke-width:40;
	stroke-linecap:round;
	fill:none;
	stroke:#000;
}
svg.acjk path[id] {fill:#ccc;}
]]>
</style>
<path id="z12736d1" d="m 333.33318,342.99988 h -31.33331 v -105.9999 q 0,-12.83332 -1.49999,-23.99998 -1.5,-11.33332 -5.5,-17.66665 -4.16666,-6.99999 -11.99999,-10.33332 -7.83332,-3.5 -20.33331,-3.5 -12.83332,0 -26.83331,6.33333 -13.99999,6.33333 -26.83331,16.16665 v 138.99987 h -31.3333 V 83.666792 h 31.3333 v 93.833248 q 14.66666,-12.16666 30.33331,-18.99999 15.66665,-6.83332 32.16663,-6.83332 30.16664,0 45.99996,18.16665 15.83332,18.16665 15.83332,52.33328 z"/>
<defs>
	<clipPath id="z12736c1"><use xlink:href="#z12736d1"/></clipPath>
</defs>
<path style="--d:0s;--length:1000" clip-path="url(#z12736c1)" d="m 190.03681,73.815951 1.57055,282.699389 -1.57055,-152.34356 48.68712,-36.1227 h 56.53987 l 23.55829,21.98773 1.57055,83.23926 -1.57055,76.95706 v 0"/>
</svg>
  