<svg id="z12736" class="acjk" version="1.1" viewBox="0 0 512 512" xmlns="http://www.w3.org/2000/svg" xmlns:xlink="http://www.w3.org/1999/xlink">
<style>
<![CDATA[
@keyframes zk {
	to {
		stroke-dashoffset:0;
	}
}
svg.acjk path[clip-path] {
	--t:3s;
	animation:zk var(--t) linear forwards var(--d);
	stroke-dasharray:var(--length);
	stroke-dashoffset:var(--length);
	stroke-width:40;
	stroke-linecap:round;
	fill:none;
	stroke:#000;
}
svg.acjk path[id] {fill:#ccc;}
]]>
</style>
<path id="z12736d1" d="m 284.91656,125.66675 h -35.3333 V 93.166783 h 35.3333 z m -2,221.83312 q 0,32.66664 -16.66665,49.33329 -16.66665,16.66665 -44.66663,16.66665 -6.66666,0 -17.66665,-1.33333 -10.83332,-1.33333 -18.16665,-3.33333 v -29.83331 h 1.66667 q 4.66666,1.83334 12.49999,4.16667 7.99999,2.33333 15.49998,2.33333 11.99999,0 19.33332,-3.33333 7.33332,-3.33333 10.99999,-9.99999 3.66666,-6.66666 4.66666,-16.16665 1.16667,-9.33333 1.16667,-22.83332 V 183.1667 h -38.8333 v -26.33331 h 70.1666 z"/>
<defs>
	<clipPath id="z12736c1"><use xlink:href="#z12736d1"/></clipPath>
</defs>
<path style="--d:0s;--length:1000" clip-path="url(#z12736c1)" d="m 268.56442,152.34356 v 186.8957 l -17.27608,50.25767 -45.54601,10.99387 -56.53988,-12.56442 29.84049,-284.26994 87.95093,4.71166 1.57055,1.57055"/>
</svg>
  