<svg id="z12736" class="acjk" version="1.1" viewBox="0 0 512 512" xmlns="http://www.w3.org/2000/svg" xmlns:xlink="http://www.w3.org/1999/xlink">
<style>
<![CDATA[
@keyframes zk {
	to {
		stroke-dashoffset:0;
	}
}
svg.acjk path[clip-path] {
	--t:3s;
	animation:zk var(--t) linear forwards var(--d);
	stroke-dasharray:var(--length);
	stroke-dashoffset:var(--length);
	stroke-width:40;
	stroke-linecap:round;
	fill:none;
	stroke:#000;
}
svg.acjk path[id] {fill:#ccc;}
]]>
</style>
<path id="z12736d1" d="m 301.58321,278.49994 q 0,32.66663 -19.99998,50.33328 -19.83332,17.66665 -53.33329,17.66665 -7.99999,0 -21.33331,-1.49999 -13.33332,-1.33334 -22.33331,-3.33333 v -30.83331 h 1.83333 q 6.83333,2.33333 16.83332,4.83333 9.99999,2.5 20.49998,2.5 15.33332,0 24.33331,-3.5 9.16666,-3.5 13.49999,-9.99999 4.49999,-6.66666 5.66666,-16.33332 1.33333,-9.66665 1.33333,-22.33331 V 121.16676 H 216.08329 V 94.833448 h 85.49992 z"/>
<defs>
	<clipPath id="z12736c1"><use xlink:href="#z12736d1"/></clipPath>
</defs>
<path style="--d:0s;--length:1000" clip-path="url(#z12736c1)" d="M 282.69939,106.79755 285.84049,256 l -4.71166,54.96933 -36.1227,21.98773 h -42.4049 l -58.11043,-12.56442 21.98773,-216.7362 194.74846,3.14111"/>
</svg>
  