<svg id="z17553" class="acjk" version="1.1" viewBox="0 0 512 512" xmlns="http://www.w3.org/2000/svg" xmlns:xlink="http://www.w3.org/1999/xlink">
<style>
<![CDATA[
@keyframes zk {
	to {
		stroke-dashoffset:0;
	}
}
svg.acjk path[clip-path] {
	--t:0.8s;
	animation:zk var(--t) linear forwards var(--d);
	stroke-dasharray:3337;
	stroke-dashoffset:3339;
	stroke-width:40;
	stroke-linecap:round;
	fill:none;
	stroke:#000;
}
svg.acjk path[id] {fill:#ccc;}
]]>
</style>
<path id="z17553d1" d="M 353.66649,342.99988 H 312.3332 l -74.6666,-81.49992 -20.33331,19.33331 v 62.16661 H 185.99998 V 83.666792 h 31.33331 V 249.99997 l 90.49991,-93.16658 h 39.49996 l -86.49991,85.99992 z"/>
<path id="z17553d2" d="M 353.66649,342.99988 H 312.3332 l -74.6666,-81.49992 -20.33331,19.33331 v 62.16661 H 185.99998 V 83.666792 h 31.33331 V 249.99997 l 90.49991,-93.16658 h 39.49996 l -86.49991,85.99992 z"/>
<path id="z17553d3" d="M 353.66649,342.99988 H 312.3332 l -74.6666,-81.49992 -20.33331,19.33331 v 62.16661 H 185.99998 V 83.666792 h 31.33331 V 249.99997 l 90.49991,-93.16658 h 39.49996 l -86.49991,85.99992 z"/>
<defs>
	<clipPath id="z17553c1"><use xlink:href="#z17553d1"/></clipPath>
	<clipPath id="z17553c2"><use xlink:href="#z17553d2"/></clipPath>
	<clipPath id="z17553c3"><use xlink:href="#z17553d3"/></clipPath>
</defs>
<path style="--d:1s;" pathLength="3333" clip-path="url(#z17553c1)" d="m 194.74847,73.815951 7.85276,309.398769"/>
<path style="--d:2s;" pathLength="3333" clip-path="url(#z17553c2)" d="m 353.37423,130.35583 -12.56441,9.42331 -179.04295,174.33129"/>
<path style="--d:3s;" pathLength="3333" clip-path="url(#z17553c3)" d="M 229.30061,223.0184 358.08589,356.51534"/>
</svg>
  