<svg id="z12736" class="acjk" version="1.1" viewBox="0 0 512 512" xmlns="http://www.w3.org/2000/svg" xmlns:xlink="http://www.w3.org/1999/xlink">
<style>
<![CDATA[
@keyframes zk {
	to {
		stroke-dashoffset:0;
	}
}
svg.acjk path[clip-path] {
	--t:3s;
	animation:zk var(--t) linear forwards var(--d);
	stroke-dasharray:var(--length);
	stroke-dashoffset:var(--length);
	stroke-width:40;
	stroke-linecap:round;
	fill:none;
	stroke:#000;
}
svg.acjk path[id] {fill:#ccc;}
]]>
</style>
<path id="z12736d1" d="m 340.74984,249.99997 q 0,45.49995 -23.33331,71.83326 -23.33332,26.33331 -62.49994,26.33331 -39.49997,0 -62.83328,-26.33331 -23.16664,-26.33331 -23.16664,-71.83326 0,-45.49996 23.16664,-71.83327 23.33331,-26.49997 62.83328,-26.49997 39.16662,0 62.49994,26.49997 23.33331,26.33331 23.33331,71.83327 z m -32.33331,0 q 0,-36.16664 -14.16665,-53.66662 -14.16665,-17.66665 -39.33329,-17.66665 -25.49998,0 -39.66663,17.66665 -13.99999,17.49998 -13.99999,53.66662 0,34.99996 14.16665,53.16661 14.16666,17.99999 39.49997,17.99999 24.99997,0 39.16662,-17.83332 14.33332,-17.99998 14.33332,-53.33328 z"/>
<defs>
	<clipPath id="z12736c1"><use xlink:href="#z12736d1"/></clipPath>
</defs>
<path style="--d:0s;--length:1000" clip-path="url(#z12736c1)" d="m 254.42945,158.62577 -54.96933,29.84049 -17.27607,64.39264 17.27607,56.53987 39.26381,28.26994 56.53987,-10.99386 28.26994,-37.69325 v -67.53375 l -26.69938,-48.68711 -58.11043,-26.69939"/>
</svg>
  