<svg id="z20023" class="acjk" version="1.1" viewBox="0 0 512 512" xmlns="http://www.w3.org/2000/svg" xmlns:xlink="http://www.w3.org/1999/xlink">
<style>
<![CDATA[
@keyframes zk {
	to {
		stroke-dashoffset:0;
	}
}
svg.acjk path[clip-path] {
	--t:0.8s;
	animation:zk var(--t) linear forwards var(--d);
	stroke-dasharray:3337;
	stroke-dashoffset:3339;
	stroke-width:40;
	stroke-linecap:round;
	fill:none;
	stroke:#000;
}
svg.acjk path[id] {fill:#ccc;}
]]>
</style>
<path id="z20023d1" d="m 343.1665,247.66664 q 0,22.66664 -6.49999,41.49996 -6.5,18.66664 -18.33332,31.66663 -10.99999,12.33332 -25.99997,19.16665 -14.83332,6.66666 -31.49997,6.66666 -14.49999,0 -26.33331,-3.16666 -11.66666,-3.16667 -23.83331,-9.83333 v 77.99993 H 179.33332 V 156.83339 h 31.33331 v 19.49998 q 12.49999,-10.49999 27.99997,-17.49998 15.66665,-7.16666 33.3333,-7.16666 33.66664,0 52.33329,25.49997 18.83331,25.33331 18.83331,70.49994 z m -32.3333,0.83333 q 0,-33.66664 -11.49999,-50.33329 -11.49999,-16.66665 -35.3333,-16.66665 -13.49999,0 -27.16664,5.83333 -13.66665,5.83333 -26.16664,15.33332 v 105.4999 q 13.33332,5.99999 22.83331,8.16666 9.66666,2.16666 21.83331,2.16666 26.16664,0 40.8333,-17.66665 14.66665,-17.66665 14.66665,-52.33328 z"/>
<path id="z20023d2" d="m 343.1665,247.66664 q 0,22.66664 -6.49999,41.49996 -6.5,18.66664 -18.33332,31.66663 -10.99999,12.33332 -25.99997,19.16665 -14.83332,6.66666 -31.49997,6.66666 -14.49999,0 -26.33331,-3.16666 -11.66666,-3.16667 -23.83331,-9.83333 v 77.99993 H 179.33332 V 156.83339 h 31.33331 v 19.49998 q 12.49999,-10.49999 27.99997,-17.49998 15.66665,-7.16666 33.3333,-7.16666 33.66664,0 52.33329,25.49997 18.83331,25.33331 18.83331,70.49994 z m -32.3333,0.83333 q 0,-33.66664 -11.49999,-50.33329 -11.49999,-16.66665 -35.3333,-16.66665 -13.49999,0 -27.16664,5.83333 -13.66665,5.83333 -26.16664,15.33332 v 105.4999 q 13.33332,5.99999 22.83331,8.16666 9.66666,2.16666 21.83331,2.16666 26.16664,0 40.8333,-17.66665 14.66665,-17.66665 14.66665,-52.33328 z"/>
<defs>
	<clipPath id="z20023c1"><use xlink:href="#z20023d1"/></clipPath>
	<clipPath id="z20023c2"><use xlink:href="#z20023d2"/></clipPath>
</defs>
<path style="--d:1s;" pathLength="3333" clip-path="url(#z20023c1)" d="m 190.03681,136.63804 3.1411,287.41104"/>
<path style="--d:2s;" pathLength="3333" clip-path="url(#z20023c2)" d="m 168.04908,204.17178 76.95705,-36.1227 65.9632,3.1411 15.70552,70.67485 -9.42332,64.39264 -56.53987,23.55828 -113.07976,-21.98773"/>
</svg>
  