<svg id="z12736" class="acjk" version="1.1" viewBox="0 0 512 512" xmlns="http://www.w3.org/2000/svg" xmlns:xlink="http://www.w3.org/1999/xlink">
<style>
<![CDATA[
@keyframes zk {
	to {
		stroke-dashoffset:0;
	}
}
svg.acjk path[clip-path] {
	--t:3s;
	animation:zk var(--t) linear forwards var(--d);
	stroke-dasharray:var(--length);
	stroke-dashoffset:var(--length);
	stroke-width:40;
	stroke-linecap:round;
	fill:none;
	stroke:#000;
}
svg.acjk path[id] {fill:#ccc;}
]]>
</style>
<path id="z12736d1" d="m 375.16647,403.83315 q -9.99999,2.5 -19.83331,3.5 -9.66666,1.16667 -19.83332,1.16667 -28.99997,0 -46.66662,-15.99999 -17.49998,-15.83332 -18.99998,-45.49996 -4,0.66667 -7.83333,0.83334 -3.66666,0.33333 -7.16666,0.33333 -26.16664,0 -47.66662,-8.66666 -21.33331,-8.66666 -36.3333,-25.16664 Q 155.83335,297.83325 147.66669,273.83328 139.6667,249.8333 139.6667,219 q 0,-30.33331 7.99999,-54.33329 7.99999,-24.16664 23.33331,-41.33329 14.66665,-16.33332 36.3333,-24.999975 21.83331,-8.666659 47.49995,-8.666659 26.66664,0 47.83329,8.833325 21.33331,8.666659 36.16663,24.833309 15.16665,16.66665 23.16665,40.8333 8.16666,24.16664 8.16666,54.83328 0,45.49995 -18.66665,76.66659 -18.49999,31.16664 -49.83329,43.66662 0.66667,18.99999 8.99999,29.49998 8.33333,10.49999 30.33331,10.49999 6.83332,0 16.16665,-2.16667 9.49999,-2 13.49998,-3.66666 h 4.5 z M 335.83317,219 q 0,-48.33329 -21.66664,-74.49993 -21.66665,-26.33331 -59.16661,-26.33331 -37.8333,0 -59.49994,26.33331 Q 174,170.66671 174,219 q 0,48.83328 21.99997,74.83326 21.99998,25.83331 58.99995,25.83331 36.99996,0 58.83328,-25.83331 Q 335.83317,267.83328 335.83317,219 Z"/>
<defs>
	<clipPath id="z12736c1"><use xlink:href="#z12736d1"/></clipPath>
</defs>
<path style="--d:0s;--length:2500" clip-path="url(#z12736c1)" d="m 252.8589,102.08589 -58.11043,21.98773 -39.26381,65.96319 6.28221,87.95092 50.25767,48.68712 39.2638,1.57055 75.38651,-31.41104 32.98159,-65.96319 -28.26994,-97.37424 -54.96932,-29.84049 -69.1043,-21.987728 70.67485,199.460118 12.56442,87.95092 29.84049,28.26994 116.22086,-10.99386"/>
</svg>
  