<svg id="z12736" class="acjk" version="1.1" viewBox="0 0 512 512" xmlns="http://www.w3.org/2000/svg" xmlns:xlink="http://www.w3.org/1999/xlink">
<style>
<![CDATA[
@keyframes zk {
	to {
		stroke-dashoffset:0;
	}
}
svg.acjk path[clip-path] {
	--t:3s;
	animation:zk var(--t) linear forwards var(--d);
	stroke-dasharray:var(--length);
	stroke-dashoffset:var(--length);
	stroke-width:40;
	stroke-linecap:round;
	fill:none;
	stroke:#000;
}
svg.acjk path[id] {fill:#ccc;}
]]>
</style>
<path id="z12736d1" d="m 374.83314,342.99988 h -42.83329 l -82.99993,-98.66657 h -46.49995 v 98.66657 H 169.5 V 94.833448 h 69.49993 q 22.49998,0 37.49997,2.999997 14.99998,2.833335 26.99997,10.333325 13.49999,8.49999 20.99998,21.49998 7.66666,12.83332 7.66666,32.66663 0,26.83331 -13.49999,44.99996 -13.49998,17.99998 -37.16663,27.16664 z m -77.1666,-178.33317 q 0,-10.66665 -3.83333,-18.83331 -3.66666,-8.33333 -12.33332,-13.99999 -7.16666,-4.83333 -16.99998,-6.66666 -9.83332,-2 -23.16665,-2 h -38.83329 v 93.66658 h 33.3333 q 15.66665,0 27.33331,-2.66666 11.66665,-2.83333 19.83331,-10.33333 7.49999,-6.99999 10.99999,-15.99998 3.66666,-9.16666 3.66666,-23.16665 z"/>
<defs>
	<clipPath id="z12736c1"><use xlink:href="#z12736d1"/></clipPath>
</defs>
<path style="--d:0s;--length:2500" clip-path="url(#z12736c1)" d="M 180.6135,89.521472 V 351.80368 108.3681 l 47.11656,-1.57055 72.2454,7.85276 23.55828,43.97546 -7.85276,36.1227 -45.54601,21.98773 h -83.23926 l 56.53987,4.71165 32.9816,23.55828 86.38037,109.93866"/>
</svg>
  