<svg id="z12736" class="acjk" version="1.1" viewBox="0 0 512 512" xmlns="http://www.w3.org/2000/svg" xmlns:xlink="http://www.w3.org/1999/xlink">
<style>
<![CDATA[
@keyframes zk {
	to {
		stroke-dashoffset:0;
	}
}
svg.acjk path[clip-path] {
	--t:3s;
	animation:zk var(--t) linear forwards var(--d);
	stroke-dasharray:var(--length);
	stroke-dashoffset:var(--length);
	stroke-width:40;
	stroke-linecap:round;
	fill:none;
	stroke:#000;
}
svg.acjk path[id] {fill:#ccc;}
]]>
</style>
<path id="z12736d1" d="m 315.08319,341.33321 q -8.83332,2.33333 -19.33331,3.83333 -10.33332,1.5 -18.49998,1.5 -28.49998,0 -43.33329,-15.33332 -14.83332,-15.33332 -14.83332,-49.16662 v -98.9999 h -21.16665 v -26.33331 h 21.16665 v -53.49995 h 31.3333 v 53.49995 h 64.6666 v 26.33331 h -64.6666 v 84.83325 q 0,14.66665 0.66667,22.99998 0.66666,8.16666 4.66666,15.33332 3.66666,6.66666 9.99999,9.83332 6.49999,3 19.66665,3 7.66666,0 15.99998,-2.16667 8.33333,-2.33333 11.99999,-3.83333 h 1.66666 z"/>
<defs>
	<clipPath id="z12736c1"><use xlink:href="#z12736d1"/></clipPath>
</defs>
<path style="--d:0s;--length:2500" clip-path="url(#z12736c1)" d="m 237.15337,86.380368 -3.1411,199.460122 20.41718,43.97546 48.68711,1.57055 29.8405,-10.99386 L 417.76687,37.693252 94.233129,26.699387 144.4908,171.19018 l 210.45399,-3.1411"/>
</svg>
  