<svg id="z11910" class="acjk" version="1.1" viewBox="0 0 512 512" xmlns="http://www.w3.org/2000/svg" xmlns:xlink="http://www.w3.org/1999/xlink">
<style>
<![CDATA[
@keyframes zk {
	to {
		stroke-dashoffset:0;
	}
}
svg.acjk path[clip-path] {
	--t:0.8s;
	animation:zk var(--t) linear forwards var(--d);
	stroke-dasharray:3337;
	stroke-dashoffset:3339;
	stroke-width:30;
	stroke-linecap:round;
	fill:none;
	stroke:#000;
}
svg.acjk path[id] {fill:#ccc;}
]]>
</style>
<path id="z11910d1" d="M 330.99993,380.99988 H 305.99996 V 264.33332 q 0,-41.66662 -49.99995,-41.66662 -49.99996,0 -49.99996,41.66662 V 380.99988 H 181.00008 V 264.33332 q 0,-66.6666 74.99993,-66.6666 74.99992,0 74.99992,66.6666 z"/>
<path id="z11910d2" d="m 163.83343,167.66675 q 21.99998,-16.66665 32.99997,-26.66664 11.16665,-9.99999 15.99998,-9.99999 4.83333,0 14.49999,5.66666 l 9.49999,5.66666 19.16665,11.33332 15.83331,-11.33332 7.83333,-5.66666 q 7.83333,-5.66666 12.83332,-5.66666 4.83333,0 11.83332,5.83332 l 7.16666,5.83333 q 14.16666,11.83332 37.49997,21.66665 -11.49999,16.16665 -21.33332,16.16665 -2.49999,0 -4.83332,-1 -11.99999,-5 -31.66664,-21.33331 l -35.16663,24.33331 -40.66663,-24.83331 -20.16665,15.16665 6.66666,13.33332 -15.16665,9.66666 -22.83331,-18.99998 z"/>
<defs>
	<clipPath id="z11910c1"><use xlink:href="#z11910d1"/></clipPath>
	<clipPath id="z11910c2"><use xlink:href="#z11910d2"/></clipPath>
</defs>
<path style="--d:1s;" pathLength="3333" clip-path="url(#z11910c1)" d="m 188.46626,391.06749 7.85276,-153.91412 28.26994,-21.98773 51.82822,-7.85276 34.55215,21.98773 10.99386,42.40491 -4.71166,113.07976 v 0"/>
<path style="--d:2s;" pathLength="3333" clip-path="url(#z11910c2)" d="m 197.88957,196.31902 -21.98773,-26.69939 36.1227,-29.84049 42.40491,29.84049 36.1227,-26.69938 58.11043,36.12269"/>
</svg>