<svg id="z12736" class="acjk" version="1.1" viewBox="0 0 512 512" xmlns="http://www.w3.org/2000/svg" xmlns:xlink="http://www.w3.org/1999/xlink">
<style>
<![CDATA[
@keyframes zk {
	to {
		stroke-dashoffset:0;
	}
}
svg.acjk path[clip-path] {
	--t:3s;
	animation:zk var(--t) linear forwards var(--d);
	stroke-dasharray:var(--length);
	stroke-dashoffset:var(--length);
	stroke-width:40;
	stroke-linecap:round;
	fill:none;
	stroke:#000;
}
svg.acjk path[id] {fill:#ccc;}
]]>
</style>
<path id="z12736d1" d="m 259.06435,364.83003 q -33.3333,0 -49.99996,-7.83333 -16.66665,-7.66666 -16.66665,-22.99998 0,-12.99999 11.16666,-14.49998 l 52.49995,-7.5 q 22.66665,-2.99999 33.3333,-8.33332 10.83332,-5 10.83332,-11.16666 0,-6.33333 -10.33332,-9.33332 -10.16666,-3.16667 -30.8333,-3.16667 -27.66664,0 -34.3333,4.83333 -7.33333,5.33333 -7.33333,18.33332 -24.99998,0 -24.99998,-15.33332 0,-11.49999 16.66665,-17.33332 16.66666,-5.66666 49.99996,-5.66666 33.3333,0 49.99995,6.99999 16.66665,7.16666 16.66665,21.49998 0,12.66666 -14.49999,20.99998 -14.49998,8.5 -43.49995,12.33333 l -50.49996,6.99999 q 0,7.83332 10.49999,11.66665 10.33333,4 31.33331,4 20.83331,0 31.3333,-4.66666 10.33332,-4.5 10.33332,-13.16666 h 24.99998 q 0,13.16666 -16.66665,23.16665 -16.66665,10.16666 -49.99995,10.16666 z"/>
<defs>
	<clipPath id="z12736c1"><use xlink:href="#z12736d1"/></clipPath>
</defs>
<path style="--d:0s;--length:1000" clip-path="url(#z12736c1)" d="m 191.60736,299.97546 20.41718,-25.12883 53.39877,-9.42332 56.53988,14.13497 3.1411,21.98773 -62.82208,9.42332 -70.67485,12.56441 6.28221,25.12884 31.41104,12.56441 h 51.82822 l 29.8405,-12.56441 4.71165,-28.26994"/>
</svg>
  