<svg id="z20023" class="acjk" version="1.1" viewBox="0 0 512 512" xmlns="http://www.w3.org/2000/svg" xmlns:xlink="http://www.w3.org/1999/xlink">
<style>
<![CDATA[
@keyframes zk {
	to {
		stroke-dashoffset:0;
	}
}
svg.acjk path[clip-path] {
	--t:0.8s;
	animation:zk var(--t) linear forwards var(--d);
	stroke-dasharray:3337;
	stroke-dashoffset:3339;
	stroke-width:40;
	stroke-linecap:round;
	fill:none;
	stroke:#000;
}
svg.acjk path[id] {fill:#ccc;}
]]>
</style>
<path id="z20023d1" d="m 379.73702,389.2227 q 0,23.33331 -11.99999,31.66664 -11.83332,8.33332 -31.16663,8.33332 -19.33332,0 -30.99997,-2.33333 -11.49999,-2.33333 -14.49999,-6.83332 -2.83333,4.49999 -11.83332,6.83332 -8.99999,2.33333 -25.33331,2.33333 -24.99998,0 -37.49997,-8.33332 -12.49998,-8.33333 -12.49998,-24.99998 v -16.66665 q -12.99999,0 -16.83332,-4.16666 -4,-4.16666 -4,-13.33332 0,-7.49999 20.83332,-24.16664 h 27.99997 v 51.83328 q 0,23.16664 21.99998,23.16664 23.49998,0 23.49998,-23.33331 v -51.66661 h 27.99997 v 51.66661 q 0,23.33331 22.16665,23.33331 22.16664,0 22.16664,-23.33331 V 160.38959 q 0,-17.66665 -33.3333,-27.99998 3.33333,-16.83331 15.83332,-39.166625 12.66665,-22.333312 21.66664,-22.333312 7.33333,0 19.16665,7.16666 l 11.66666,7.16666 q 5.16666,3.166664 12.16665,3.166664 3.66667,0 7.83333,-0.833333 -1.66667,11.666656 -6.83333,19.166646 -4.99999,7.33333 -13.49999,8.16666 -0.83333,0.16667 -1.66666,0.16667 -8.33333,0 -22.49998,-8.83333 -4.33333,-2.49999 -7.99999,-2.49999 -10.49999,0 -18.16665,19.16664 45.66662,14.66666 45.66662,27.99998 z"/>
<path id="z20023d2" d="m 379.73702,389.2227 q 0,23.33331 -11.99999,31.66664 -11.83332,8.33332 -31.16663,8.33332 -19.33332,0 -30.99997,-2.33333 -11.49999,-2.33333 -14.49999,-6.83332 -2.83333,4.49999 -11.83332,6.83332 -8.99999,2.33333 -25.33331,2.33333 -24.99998,0 -37.49997,-8.33332 -12.49998,-8.33333 -12.49998,-24.99998 v -16.66665 q -12.99999,0 -16.83332,-4.16666 -4,-4.16666 -4,-13.33332 0,-7.49999 20.83332,-24.16664 h 27.99997 v 51.83328 q 0,23.16664 21.99998,23.16664 23.49998,0 23.49998,-23.33331 v -51.66661 h 27.99997 v 51.66661 q 0,23.33331 22.16665,23.33331 22.16664,0 22.16664,-23.33331 V 160.38959 q 0,-17.66665 -33.3333,-27.99998 3.33333,-16.83331 15.83332,-39.166625 12.66665,-22.333312 21.66664,-22.333312 7.33333,0 19.16665,7.16666 l 11.66666,7.16666 q 5.16666,3.166664 12.16665,3.166664 3.66667,0 7.83333,-0.833333 -1.66667,11.666656 -6.83333,19.166646 -4.99999,7.33333 -13.49999,8.16666 -0.83333,0.16667 -1.66666,0.16667 -8.33333,0 -22.49998,-8.83333 -4.33333,-2.49999 -7.99999,-2.49999 -10.49999,0 -18.16665,19.16664 45.66662,14.66666 45.66662,27.99998 z"/>
<defs>
	<clipPath id="z20023c1"><use xlink:href="#z20023d1"/></clipPath>
	<clipPath id="z20023c2"><use xlink:href="#z20023d2"/></clipPath>
</defs>
<path style="--d:1s;" pathLength="3333" clip-path="url(#z20023c1)" d="m 196.31902,378.50307 -23.55828,-12.56442 43.97546,-36.1227 1.57055,61.25153 14.13497,28.26994 h 43.97546 l 12.56442,-36.1227 6.2822,-70.67484"/>
<path style="--d:2s;" pathLength="3333" clip-path="url(#z20023c2)" d="m 273.27607,395.77914 37.69326,20.41718 h 42.4049 l 15.70552,-20.41718 -7.85276,-252.85889 -42.4049,-15.70553 29.84049,-51.828217 20.41717,25.128837 54.96933,1.57055"/>
</svg>
  