<svg id="z20023" class="acjk" version="1.1" viewBox="0 0 512 512" xmlns="http://www.w3.org/2000/svg" xmlns:xlink="http://www.w3.org/1999/xlink">
<style>
<![CDATA[
@keyframes zk {
	to {
		stroke-dashoffset:0;
	}
}
svg.acjk path[clip-path] {
	--t:0.8s;
	animation:zk var(--t) linear forwards var(--d);
	stroke-dasharray:3337;
	stroke-dashoffset:3339;
	stroke-width:40;
	stroke-linecap:round;
	fill:none;
	stroke:#000;
}
svg.acjk path[id] {fill:#ccc;}
]]>
</style>
<path id="z20023d1" d="m 171.5,317.6666 q -8.33333,3.33334 -8.33333,13.33333 0,24.99997 8.33333,24.99997 z m 136.66653,-85.16658 q -11.66665,0 -11.66665,13.49999 0,9.99999 11.66665,9.99999 z M 171.5,205.33338 q -4.5,-2.33333 -7.99999,-5.83333 -8.66666,-7.99999 -8.66666,-19.49998 0,-11.49999 38.99996,-48.99995 34.99997,0 65.49994,28.99997 31.49997,-28.99997 39.33329,-28.99997 14.33332,0 30.83331,15.16665 10.33332,9.66666 17.66665,9.66666 4.33333,0 7.66666,-3.33333 0,13.83332 -5.5,23.33331 -5.66666,9.49999 -15.16665,9.49999 -9.49999,0 -41.49996,-24.66665 h -0.16667 q -11.66665,0 -44.16662,29.49998 -18.33332,-17.33332 -30.66664,-23.16665 -12.16665,-5.83333 -23.83331,-6.66666 l -16.66665,15.66665 q 3,17.83332 24.33331,27.99998 v 93.66657 q 61.66661,0 61.66661,41.66663 0,21.66665 22.49998,21.66665 22.49997,0 22.49997,-21.66665 v -66.6666 q -28.3333,0 -28.3333,-26.66664 0,-31.66664 28.3333,-31.66664 29.99998,0 29.99998,16.66665 v 108.33323 q 0,41.66663 -52.49995,41.66663 -47.49996,0 -47.49996,-41.66663 0,-21.66665 -36.66663,-21.66665 v 46.66663 q 0,16.66665 -21.66665,16.66665 -16.66665,0 -24.99997,-15.83332 -8.33333,-15.83332 -8.33333,-34.16663 0,-28.33331 24.99998,-33.33331 z"/>
<path id="z20023d2" d="m 171.5,317.6666 q -8.33333,3.33334 -8.33333,13.33333 0,24.99997 8.33333,24.99997 z m 136.66653,-85.16658 q -11.66665,0 -11.66665,13.49999 0,9.99999 11.66665,9.99999 z M 171.5,205.33338 q -4.5,-2.33333 -7.99999,-5.83333 -8.66666,-7.99999 -8.66666,-19.49998 0,-11.49999 38.99996,-48.99995 34.99997,0 65.49994,28.99997 31.49997,-28.99997 39.33329,-28.99997 14.33332,0 30.83331,15.16665 10.33332,9.66666 17.66665,9.66666 4.33333,0 7.66666,-3.33333 0,13.83332 -5.5,23.33331 -5.66666,9.49999 -15.16665,9.49999 -9.49999,0 -41.49996,-24.66665 h -0.16667 q -11.66665,0 -44.16662,29.49998 -18.33332,-17.33332 -30.66664,-23.16665 -12.16665,-5.83333 -23.83331,-6.66666 l -16.66665,15.66665 q 3,17.83332 24.33331,27.99998 v 93.66657 q 61.66661,0 61.66661,41.66663 0,21.66665 22.49998,21.66665 22.49997,0 22.49997,-21.66665 v -66.6666 q -28.3333,0 -28.3333,-26.66664 0,-31.66664 28.3333,-31.66664 29.99998,0 29.99998,16.66665 v 108.33323 q 0,41.66663 -52.49995,41.66663 -47.49996,0 -47.49996,-41.66663 0,-21.66665 -36.66663,-21.66665 v 46.66663 q 0,16.66665 -21.66665,16.66665 -16.66665,0 -24.99997,-15.83332 -8.33333,-15.83332 -8.33333,-34.16663 0,-28.33331 24.99998,-33.33331 z"/>
<defs>
	<clipPath id="z20023c1"><use xlink:href="#z20023d1"/></clipPath>
	<clipPath id="z20023c2"><use xlink:href="#z20023d2"/></clipPath>
</defs>
<path style="--d:1s;" pathLength="3333" clip-path="url(#z20023c1)" d="m 185.32515,207.31288 1.57056,163.33743 -26.69939,-4.71166 -4.71166,-39.2638 7.85276,-20.41718 65.96319,1.57055 23.55829,28.26994 14.13497,32.98159 51.82822,1.57056 9.42331,-61.25154 -6.28221,-89.52147 -32.98159,-1.57055 -10.99387,21.98773 10.99387,25.12883 39.2638,3.14111 v 0"/>
<path style="--d:2s;" pathLength="3333" clip-path="url(#z20023c2)" d="m 196.31902,218.30675 -34.55215,-36.1227 32.9816,-37.69325 53.39877,26.69938 47.11656,-26.69938 69.1043,36.1227"/>
</svg>
  