<svg id="z20023" class="acjk" version="1.1" viewBox="0 0 512 512" xmlns="http://www.w3.org/2000/svg" xmlns:xlink="http://www.w3.org/1999/xlink">
<style>
<![CDATA[
@keyframes zk {
	to {
		stroke-dashoffset:0;
	}
}
svg.acjk path[clip-path] {
	--t:0.8s;
	animation:zk var(--t) linear forwards var(--d);
	stroke-dasharray:3337;
	stroke-dashoffset:3339;
	stroke-width:40;
	stroke-linecap:round;
	fill:none;
	stroke:#000;
}
svg.acjk path[id] {fill:#ccc;}
]]>
</style>
<path id="z20023d1" d="m 197.83331,162.00009 q 0,4.83333 4.83333,8.33332 h 3.99999 q 8.83333,0 8.83333,-8.33332 0,-4 -2,-6 -2.33333,-2.33333 -6.83333,-2.33333 -4.33333,0 -6.66666,2.16667 -2.16666,1.99999 -2.16666,6.16666 z m 29.49997,15.49998 q 4.83333,0.5 10.16666,0.83333 6.99999,0.33334 23.16664,0.33334 20.49998,0 33.99997,-7.16666 13.49998,-7.16666 13.49998,-23.16665 0,-20.66664 -23.33331,-20.66664 -16.66665,0 -16.66665,-14.99999 0,-14.999985 16.66665,-14.999985 53.33329,0 53.33329,50.666615 0,21.33332 -21.16665,35.3333 -20.99998,13.99999 -81.49992,13.99999 -31.99997,0 -47.99996,-8.33333 Q 171.5,180.8334 171.5,162.66675 q 0,-13.83332 8.66666,-22.83331 8.83332,-8.83332 23.83331,-8.83332 15.16665,0 23.66664,7.16666 8.66666,7.16666 8.66666,19.66664 0,12.49999 -8.99999,19.66665 z m -25.83331,36.8333 V 354.4999 l 39.3333,-39.33329 q 6.99999,-7.16666 14.16665,-7.16666 6.99999,0 14.16665,7.16666 l 38.99996,39.16663 V 214.33337 h 29.99998 v 149.99986 q 0,16.66665 -16.66665,16.66665 -14.99999,0 -27.83331,-12.83332 l -38.8333,-38.8333 -38.66663,38.8333 q -12.83332,12.83332 -27.99997,12.83332 -16.66665,0 -16.66665,-16.66665 V 214.33337 Z"/>
<path id="z20023d2" d="m 197.83331,162.00009 q 0,4.83333 4.83333,8.33332 h 3.99999 q 8.83333,0 8.83333,-8.33332 0,-4 -2,-6 -2.33333,-2.33333 -6.83333,-2.33333 -4.33333,0 -6.66666,2.16667 -2.16666,1.99999 -2.16666,6.16666 z m 29.49997,15.49998 q 4.83333,0.5 10.16666,0.83333 6.99999,0.33334 23.16664,0.33334 20.49998,0 33.99997,-7.16666 13.49998,-7.16666 13.49998,-23.16665 0,-20.66664 -23.33331,-20.66664 -16.66665,0 -16.66665,-14.99999 0,-14.999985 16.66665,-14.999985 53.33329,0 53.33329,50.666615 0,21.33332 -21.16665,35.3333 -20.99998,13.99999 -81.49992,13.99999 -31.99997,0 -47.99996,-8.33333 Q 171.5,180.8334 171.5,162.66675 q 0,-13.83332 8.66666,-22.83331 8.83332,-8.83332 23.83331,-8.83332 15.16665,0 23.66664,7.16666 8.66666,7.16666 8.66666,19.66664 0,12.49999 -8.99999,19.66665 z m -25.83331,36.8333 V 354.4999 l 39.3333,-39.33329 q 6.99999,-7.16666 14.16665,-7.16666 6.99999,0 14.16665,7.16666 l 38.99996,39.16663 V 214.33337 h 29.99998 v 149.99986 q 0,16.66665 -16.66665,16.66665 -14.99999,0 -27.83331,-12.83332 l -38.8333,-38.8333 -38.66663,38.8333 q -12.83332,12.83332 -27.99997,12.83332 -16.66665,0 -16.66665,-16.66665 V 214.33337 Z"/>
<defs>
	<clipPath id="z20023c1"><use xlink:href="#z20023d1"/></clipPath>
	<clipPath id="z20023c2"><use xlink:href="#z20023d2"/></clipPath>
</defs>
<path style="--d:1s;" pathLength="3333" clip-path="url(#z20023c1)" d="m 182.18405,199.46012 6.28221,183.7546 64.39264,-64.39263 70.67484,54.96932 -1.57055,-172.76074"/>
<path style="--d:2s;" pathLength="3333" clip-path="url(#z20023c2)" d="m 218.30675,177.47239 20.41718,-23.55828 -26.69939,-21.98773 -21.98773,6.28221 -9.42331,29.84049 48.68711,23.55828 64.39264,-6.28221 32.9816,-36.1227 -12.56442,-42.4049 -54.96933,-4.71166"/>
</svg>
  