<svg id="z12736" class="acjk" version="1.1" viewBox="0 0 512 512" xmlns="http://www.w3.org/2000/svg" xmlns:xlink="http://www.w3.org/1999/xlink">
<style>
<![CDATA[
@keyframes zk {
	to {
		stroke-dashoffset:0;
	}
}
svg.acjk path[clip-path] {
	--t:3s;
	animation:zk var(--t) linear forwards var(--d);
	stroke-dasharray:var(--length);
	stroke-dashoffset:var(--length);
	stroke-width:40;
	stroke-linecap:round;
	fill:none;
	stroke:#000;
}
svg.acjk path[id] {fill:#ccc;}
]]>
</style>
<path id="z12736d1" d="m 171.5,156.00009 q -13.33332,3.33333 -13.33332,24.99998 0,16.66665 13.33332,16.66665 z m 0,58.33328 q -29.99997,0 -29.99997,-33.3333 0,-21.66665 10.83332,-35.8333 10.83332,-14.16665 24.16664,-14.16665 24.99998,0 24.99998,16.66665 v 193.33315 q 9.99999,19.99998 53.33328,19.99998 43.33329,0 53.33328,-19.99998 V 220.50003 q 0,-17.66665 -33.3333,-27.99997 3.33333,-16.83332 15.83332,-39.16663 12.66666,-22.33331 21.66665,-22.33331 7.33332,0 19.16665,7.16666 l 9.83332,5.99999 q 5.16666,-5.83333 5.16666,-13.16665 0,-19.99998 -14.99998,-19.99998 -18.33332,0 -18.33332,-14.99999 0,-14.999986 18.33332,-14.999986 31.66663,0 31.66663,49.999956 0,19.33331 -6.33333,31.3333 -6.16666,11.83332 -13.99998,12.66665 -0.83333,0.16667 -1.66667,0.16667 -8.49999,0 -22.49998,-8.83332 -4.33332,-2.5 -7.99999,-2.5 -10.49999,0 -18.16665,19.16665 45.66663,14.66665 45.66663,27.99997 v 136.66654 q -16.66665,33.3333 -83.33326,33.3333 -66.6666,0 -83.33325,-33.3333 z"/>
<defs>
	<clipPath id="z12736c1"><use xlink:href="#z12736d1"/></clipPath>
</defs>
<path style="--d:0s;--length:1000" clip-path="url(#z12736c1)" d="m 188.46626,208.88344 -39.26381,-3.14111 -3.1411,-32.98159 4.71166,-32.9816 32.98159,-1.57055 4.71166,204.17178 20.41718,26.69938 76.95705,1.57056 40.83436,-20.41718 -1.57056,-144.4908 -42.4049,-20.41718 21.98773,-36.1227 40.83435,12.56442 12.56442,-29.84049 -10.99387,-36.122699 -50.25766,-17.276074"/>
</svg>
  