<svg id="z12736" class="acjk" version="1.1" viewBox="0 0 512 512" xmlns="http://www.w3.org/2000/svg" xmlns:xlink="http://www.w3.org/1999/xlink">
<style>
<![CDATA[
@keyframes zk {
	to {
		stroke-dashoffset:0;
	}
}
svg.acjk path[clip-path] {
	--t:3s;
	animation:zk var(--t) linear forwards var(--d);
	stroke-dasharray:var(--length);
	stroke-dashoffset:var(--length);
	stroke-width:40;
	stroke-linecap:round;
	fill:none;
	stroke:#000;
}
svg.acjk path[id] {fill:#ccc;}
]]>
</style>
<path id="z12736d1" d="m 202.66672,210.16671 v 12.49999 q 9.33333,0 9.33333,-8.33333 0,-4.16666 -9.33333,-4.16666 z M 309.33329,380.99988 V 357.4999 q -36.8333,23.49998 -71.6666,23.49998 -64.99994,0 -64.99994,-49.99995 v -47.83329 q 136.66654,-40.49996 136.66654,-77.1666 v -24.99997 q 0,-17.33332 -11.49999,-23.66665 -2.16667,-0.99999 -4.66666,-0.99999 -12.16666,0 -37.16663,24.66664 -24.83331,-24.66664 -37.16664,-24.66664 -2.49999,0 -4.49999,0.99999 -11.66666,6.33333 -11.66666,23.66665 v 12.49999 q 13.66666,0 19.83332,5.16666 6.16666,5.33333 6.16666,15.66665 0,24.99998 -24.66664,24.99998 -31.33331,0 -31.33331,-16.66665 v -41.66663 q 0,-20.33332 18.33332,-35.16663 18.33331,-14.83332 28.16664,-14.83332 8.33332,0 36.8333,22.33331 28.66664,-22.33331 36.99996,-22.33331 9.83332,0 27.99997,14.83332 18.33332,14.83331 18.33332,35.16663 v 24.99997 q 0,43.3333 -136.66654,90.33325 v 34.66664 q 0,29.99997 34.99997,29.99997 28.33331,0 71.6666,-34.8333 v -45.16663 h 29.99997 v 99.99991 q 0,28.3333 -33.3333,28.3333 -16.66665,0 -16.66665,-16.66665 19.99998,0 19.99998,-11.66665 z"/>
<defs>
	<clipPath id="z12736c1"><use xlink:href="#z12736d1"/></clipPath>
</defs>
<path style="--d:0s;--length:1000" clip-path="url(#z12736c1)" d="m 197.88957,194.74847 29.84049,9.42331 1.57055,23.55828 -32.98159,10.99387 -12.56442,-7.85276 6.28221,-70.67485 20.41718,-17.27607 43.97546,21.98773 40.83435,-18.84663 34.55215,31.41104 -10.99386,43.97546 -48.68712,37.69325 -89.52147,34.55215 7.85276,67.53374 42.40491,9.42332 64.39263,-20.41718 21.98773,-18.84663 9.42332,-45.54601 v 113.07976 l -36.1227,20.41717"/>
</svg>
  