<svg id="z12736" class="acjk" version="1.1" viewBox="0 0 512 512" xmlns="http://www.w3.org/2000/svg" xmlns:xlink="http://www.w3.org/1999/xlink">
<style>
<![CDATA[
@keyframes zk {
	to {
		stroke-dashoffset:0;
	}
}
svg.acjk path[clip-path] {
	--t:3s;
	animation:zk var(--t) linear forwards var(--d);
	stroke-dasharray:var(--length);
	stroke-dashoffset:var(--length);
	stroke-width:40;
	stroke-linecap:round;
	fill:none;
	stroke:#000;
}
svg.acjk path[id] {fill:#ccc;}
]]>
</style>
<path id="z12736d1" d="m 84.833414,355.9999 q 19.999986,0 19.999986,-41.66663 0,-16.66665 -19.999986,-16.66665 z m 0,-74.99993 q 36.666636,0 36.666636,33.3333 0,33.33331 -10.49999,49.99996 -10.33333,16.66665 -31.166641,16.66665 -24.999976,0 -24.999976,-16.66665 V 164.33342 q 16.66665,-33.3333 76.666597,-33.3333 59.99994,0 76.66659,33.3333 V 354.4999 l 39.99996,-40.16663 q 3.33333,-3.33333 6.66666,-3.33333 3.33333,0 6.66666,3.33333 l 39.99996,39.99997 V 164.33342 q 16.66665,-33.3333 76.6666,-33.3333 59.99994,0 76.66659,33.3333 v 216.66646 h -29.99997 v -209.9998 q -9.99999,-19.99998 -46.66662,-19.99998 -36.66663,0 -46.66662,19.99998 v 193.33315 q 0,16.66665 -16.66666,16.66665 -14.99998,0 -27.8333,-12.83332 l -32.16664,-32.16664 -31.99997,32.16664 q -12.83332,12.83332 -27.99997,12.83332 -16.66665,0 -16.66665,-16.66665 V 171.00008 q -9.99999,-19.99998 -46.66662,-19.99998 -36.666635,0 -46.666626,19.99998 z"/>
<defs>
	<clipPath id="z12736c1"><use xlink:href="#z12736d1"/></clipPath>
</defs>
<path style="--d:0s;--length:2000" clip-path="url(#z12736c1)" d="m 69.104294,287.41104 47.116566,4.71166 6.28221,26.69939 -17.27608,43.97546 -36.122696,6.2822 V 157.05521 l 48.687116,-20.41717 72.2454,14.13497 4.71166,23.55828 -3.14111,196.31902 L 256,326.67485 l 64.39264,47.11656 -4.71166,-207.31288 25.12884,-21.98773 64.39263,-6.28221 37.69326,34.55215 -1.57056,227.73006"/>
</svg>
  