<svg id="z12736" class="acjk" version="1.1" viewBox="0 0 512 512" xmlns="http://www.w3.org/2000/svg" xmlns:xlink="http://www.w3.org/1999/xlink">
<style>
<![CDATA[
@keyframes zk {
	to {
		stroke-dashoffset:0;
	}
}
svg.acjk path[clip-path] {
	--t:3s;
	animation:zk var(--t) linear forwards var(--d);
	stroke-dasharray:var(--length);
	stroke-dashoffset:var(--length);
	stroke-width:40;
	stroke-linecap:round;
	fill:none;
	stroke:#000;
}
svg.acjk path[id] {fill:#ccc;}
]]>
</style>
<path id="z12736d1" d="m 298.83321,214.33337 q 0,8.33333 9.33332,8.33333 v -12.49999 q -9.33332,0 -9.33332,4.16666 z m 39.3333,124.99988 q 0,41.66663 -49.16662,41.66663 -23.49998,0 -41.66663,-23.33331 -18.16665,-23.33331 -45.83329,-23.33331 v 46.66662 H 171.5 v -99.99991 h 29.99997 v 33.3333 q 32.49997,0 52.33328,20.83332 19.99998,20.83331 35.16664,20.83331 19.16664,0 19.16664,-16.66665 V 289.66663 L 239.83327,269.49998 Q 171.5,249.33334 171.5,206.00004 v -24.99997 q 0,-49.99995 83.33325,-49.99995 83.33326,0 83.33326,49.99995 v 41.66663 q 0,16.66665 -27.99998,16.66665 -27.99997,0 -27.99997,-24.99998 0,-10.33332 6.16666,-15.66665 6.16666,-5.16666 19.83331,-5.16666 v -12.49999 q 0,-29.99997 -53.33328,-29.99997 -53.33328,0 -53.33328,29.99997 v 24.99997 q 0,34.99997 68.33327,54.33329 l 68.33327,19.49998 z"/>
<defs>
	<clipPath id="z12736c1"><use xlink:href="#z12736d1"/></clipPath>
</defs>
<path style="--d:0s;--length:1000" clip-path="url(#z12736c1)" d="m 179.04294,276.41718 4.71166,113.07975 4.71166,-65.96319 37.69325,1.57055 39.2638,32.9816 34.55215,17.27607 29.84049,-25.12883 -6.28221,-62.82209 -120.93251,-43.97546 -21.98773,-43.97546 10.99386,-45.54601 47.11657,-15.70552 67.53374,6.28221 20.41718,23.55828 -3.14111,65.96319 -28.26994,1.57055 -17.27607,-15.70552 1.57055,-20.41718 81.66871,-7.85276"/>
</svg>
  