<svg id="z12736" class="acjk" version="1.1" viewBox="0 0 512 512" xmlns="http://www.w3.org/2000/svg" xmlns:xlink="http://www.w3.org/1999/xlink">
<style>
<![CDATA[
@keyframes zk {
	to {
		stroke-dashoffset:0;
	}
}
svg.acjk path[clip-path] {
	--t:3s;
	animation:zk var(--t) linear forwards var(--d);
	stroke-dasharray:var(--length);
	stroke-dashoffset:var(--length);
	stroke-width:40;
	stroke-linecap:round;
	fill:none;
	stroke:#000;
}
svg.acjk path[id] {fill:#ccc;}
]]>
</style>
<path id="z12736d1" d="m 219.01938,316.24621 q -1.66667,-1 -5,-1 v 12.49999 q 6.83333,0 6.83333,-8.33333 0,-1.99999 -1.83333,-3.16666 z m -5,-17.66665 q 10.49999,0 15.66665,5.16666 5.16667,5.33333 5.16667,15.66665 0,24.99998 -20.83332,24.99998 -26.33331,0 -26.33331,-16.66665 v -33.3333 q 0,-15.33332 13.83332,-28.49997 13.66666,-13.16666 22.49998,-13.16666 7.33333,0 30.49997,17.33332 23.16665,-17.33332 30.49997,-17.33332 8.66666,0 22.33332,13.16666 13.66665,13.16665 13.66665,28.49997 v 49.99995 H 294.85264 V 294.4129 q 0,-10.66666 -7.16666,-19.49998 -1.66667,-2 -4.33333,-2 -8.99999,0 -28.83331,21.66664 -19.99998,-21.66664 -28.99997,-21.66664 -2.66666,0 -4.33333,2 -7.16666,8.83332 -7.16666,19.49998 z"/>
<defs>
	<clipPath id="z12736c1"><use xlink:href="#z12736d1"/></clipPath>
</defs>
<path style="--d:0s;--length:1000" clip-path="url(#z12736c1)" d="m 216.7362,304.68712 23.55828,6.28221 -9.42331,32.98159 -39.26381,3.1411 7.85276,-54.96932 23.55828,-31.41104 29.8405,21.98773 32.98159,-20.41718 20.41718,18.84662 v 80.09816"/>
</svg>
  