<svg id="z20013" class="acjk" version="1.1" viewBox="0 0 512 512" xmlns="http://www.w3.org/2000/svg" xmlns:xlink="http://www.w3.org/1999/xlink">
<style>
<![CDATA[
@keyframes zk {
	to {
		stroke-dashoffset:0;
	}
}
svg.acjk path[clip-path] {
	--t:0.8s;
	animation:zk var(--t) linear forwards var(--d);
	stroke-dasharray:3337;
	stroke-dashoffset:3339;
	stroke-width:35;
	stroke-linecap:round;
	fill:none;
	stroke:#000;
}
svg.acjk path[id] {fill:#ccc;}
]]>
</style>
<path id="z20013d1" d="m 308.16653,251 v -30.49997 q 0,-17.66665 -33.3333,-27.99997 3.33333,-16.83332 15.83332,-39.16663 12.66666,-22.33331 21.66665,-22.33331 7.33332,0 19.16665,7.16666 l 11.66665,7.16666 q 5.16666,3.16666 12.16666,3.16666 3.66666,0 7.83332,-0.83333 -1.66666,11.66665 -6.83332,19.16665 -5,7.33332 -13.49999,8.16665 -0.83333,0.16667 -1.66667,0.16667 -8.33332,0 -22.49998,-8.83332 -4.33332,-2.5 -7.99999,-2.5 -10.49999,0 -18.16665,19.16665 45.66663,14.66665 45.66663,27.99997 v 136.66654 q -16.66665,33.3333 -83.33326,33.3333 -66.6666,0 -83.33325,-33.3333 V 220.50003 q 0,-17.66665 -33.3333,-27.99997 3.33333,-16.83332 15.83331,-39.16663 12.66666,-22.33331 21.66665,-22.33331 7.33333,0 19.16665,7.16666 l 11.66665,7.16666 q 5.16667,3.16666 12.16666,3.16666 3.66666,0 7.83333,-0.83333 -1.66667,11.66665 -6.83333,19.16665 -5,7.33332 -13.49999,8.16665 -0.83333,0.16667 -1.66666,0.16667 -8.33333,0 -22.49998,-8.83332 -4.33333,-2.5 -7.99999,-2.5 -10.49999,0 -18.16665,19.16665 45.66662,14.66665 45.66662,27.99997 V 251 Z m 0,19.99998 H 201.49997 v 69.99994 q 9.99999,19.99998 53.33328,19.99998 43.33329,0 53.33328,-19.99998 z"/>
<path id="z20013d2" d="m 308.16653,251 v -30.49997 q 0,-17.66665 -33.3333,-27.99997 3.33333,-16.83332 15.83332,-39.16663 12.66666,-22.33331 21.66665,-22.33331 7.33332,0 19.16665,7.16666 l 11.66665,7.16666 q 5.16666,3.16666 12.16666,3.16666 3.66666,0 7.83332,-0.83333 -1.66666,11.66665 -6.83332,19.16665 -5,7.33332 -13.49999,8.16665 -0.83333,0.16667 -1.66667,0.16667 -8.33332,0 -22.49998,-8.83332 -4.33332,-2.5 -7.99999,-2.5 -10.49999,0 -18.16665,19.16665 45.66663,14.66665 45.66663,27.99997 v 136.66654 q -16.66665,33.3333 -83.33326,33.3333 -66.6666,0 -83.33325,-33.3333 V 220.50003 q 0,-17.66665 -33.3333,-27.99997 3.33333,-16.83332 15.83331,-39.16663 12.66666,-22.33331 21.66665,-22.33331 7.33333,0 19.16665,7.16666 l 11.66665,7.16666 q 5.16667,3.16666 12.16666,3.16666 3.66666,0 7.83333,-0.83333 -1.66667,11.66665 -6.83333,19.16665 -5,7.33332 -13.49999,8.16665 -0.83333,0.16667 -1.66666,0.16667 -8.33333,0 -22.49998,-8.83332 -4.33333,-2.5 -7.99999,-2.5 -10.49999,0 -18.16665,19.16665 45.66662,14.66665 45.66662,27.99997 V 251 Z m 0,19.99998 H 201.49997 v 69.99994 q 9.99999,19.99998 53.33328,19.99998 43.33329,0 53.33328,-19.99998 z"/>
<path id="z20013d3" d="m 308.16653,251 v -30.49997 q 0,-17.66665 -33.3333,-27.99997 3.33333,-16.83332 15.83332,-39.16663 12.66666,-22.33331 21.66665,-22.33331 7.33332,0 19.16665,7.16666 l 11.66665,7.16666 q 5.16666,3.16666 12.16666,3.16666 3.66666,0 7.83332,-0.83333 -1.66666,11.66665 -6.83332,19.16665 -5,7.33332 -13.49999,8.16665 -0.83333,0.16667 -1.66667,0.16667 -8.33332,0 -22.49998,-8.83332 -4.33332,-2.5 -7.99999,-2.5 -10.49999,0 -18.16665,19.16665 45.66663,14.66665 45.66663,27.99997 v 136.66654 q -16.66665,33.3333 -83.33326,33.3333 -66.6666,0 -83.33325,-33.3333 V 220.50003 q 0,-17.66665 -33.3333,-27.99997 3.33333,-16.83332 15.83331,-39.16663 12.66666,-22.33331 21.66665,-22.33331 7.33333,0 19.16665,7.16666 l 11.66665,7.16666 q 5.16667,3.16666 12.16666,3.16666 3.66666,0 7.83333,-0.83333 -1.66667,11.66665 -6.83333,19.16665 -5,7.33332 -13.49999,8.16665 -0.83333,0.16667 -1.66666,0.16667 -8.33333,0 -22.49998,-8.83332 -4.33333,-2.5 -7.99999,-2.5 -10.49999,0 -18.16665,19.16665 45.66662,14.66665 45.66662,27.99997 V 251 Z m 0,19.99998 H 201.49997 v 69.99994 q 9.99999,19.99998 53.33328,19.99998 43.33329,0 53.33328,-19.99998 z"/>
<path id="z20013d4" d="m 308.16653,251 v -30.49997 q 0,-17.66665 -33.3333,-27.99997 3.33333,-16.83332 15.83332,-39.16663 12.66666,-22.33331 21.66665,-22.33331 7.33332,0 19.16665,7.16666 l 11.66665,7.16666 q 5.16666,3.16666 12.16666,3.16666 3.66666,0 7.83332,-0.83333 -1.66666,11.66665 -6.83332,19.16665 -5,7.33332 -13.49999,8.16665 -0.83333,0.16667 -1.66667,0.16667 -8.33332,0 -22.49998,-8.83332 -4.33332,-2.5 -7.99999,-2.5 -10.49999,0 -18.16665,19.16665 45.66663,14.66665 45.66663,27.99997 v 136.66654 q -16.66665,33.3333 -83.33326,33.3333 -66.6666,0 -83.33325,-33.3333 V 220.50003 q 0,-17.66665 -33.3333,-27.99997 3.33333,-16.83332 15.83331,-39.16663 12.66666,-22.33331 21.66665,-22.33331 7.33333,0 19.16665,7.16666 l 11.66665,7.16666 q 5.16667,3.16666 12.16666,3.16666 3.66666,0 7.83333,-0.83333 -1.66667,11.66665 -6.83333,19.16665 -5,7.33332 -13.49999,8.16665 -0.83333,0.16667 -1.66666,0.16667 -8.33333,0 -22.49998,-8.83332 -4.33333,-2.5 -7.99999,-2.5 -10.49999,0 -18.16665,19.16665 45.66662,14.66665 45.66662,27.99997 V 251 Z m 0,19.99998 H 201.49997 v 69.99994 q 9.99999,19.99998 53.33328,19.99998 43.33329,0 53.33328,-19.99998 z"/>
<defs>
	<clipPath id="z20013c1"><use xlink:href="#z20013d1"/></clipPath>
	<clipPath id="z20013c2"><use xlink:href="#z20013d2"/></clipPath>
	<clipPath id="z20013c3"><use xlink:href="#z20013d3"/></clipPath>
	<clipPath id="z20013c4"><use xlink:href="#z20013d4"/></clipPath>
</defs>
<path style="--d:1s;" pathLength="3333" clip-path="url(#z20013c1)" d="m 185.32515,205.74233 v 146.06135 l 61.25154,20.41718 62.82208,-14.13497 17.27608,-18.84663 -4.71166,-125.64417"/>
<path style="--d:2s;" pathLength="3333" clip-path="url(#z20013c2)" d="m 202.60123,218.30675 -32.9816,-25.12884 -21.98773,-6.2822 25.12884,-42.40491 25.12883,14.13497 37.69325,3.1411"/>
<path style="--d:3s;" pathLength="3333" clip-path="url(#z20013c3)" d="m 328.2454,226.15951 -23.55828,-31.41104 -20.41718,-9.42332 26.69939,-36.1227 26.69938,10.99387 h 34.55215"/>
<path style="--d:4s;" pathLength="3333" clip-path="url(#z20013c4)" d="m 183.7546,257.57055 147.6319,3.14111"/>
</svg>
  