<svg id="z12736" class="acjk" version="1.1" viewBox="0 0 512 512" xmlns="http://www.w3.org/2000/svg" xmlns:xlink="http://www.w3.org/1999/xlink">
<style>
<![CDATA[
@keyframes zk {
	to {
		stroke-dashoffset:0;
	}
}
svg.acjk path[clip-path] {
	--t:3s;
	animation:zk var(--t) linear forwards var(--d);
	stroke-dasharray:var(--length);
	stroke-dashoffset:var(--length);
	stroke-width:40;
	stroke-linecap:round;
	fill:none;
	stroke:#000;
}
svg.acjk path[id] {fill:#ccc;}
]]>
</style>
<path id="z12736d1" d="m 202.94887,341.97116 q -16.66666,0 -25.16665,-7.99999 -8.33332,-8.16666 -8.33332,-24.33331 0,-8.33332 6.16666,-12.49999 6.33333,-4.16666 22.16664,-4.16666 v 13.33332 q 0,6 3.83333,9.66666 3.66667,3.83333 11.16666,3.83333 h 1.66666 q 1.5,0 1.66667,-0.16667 l 61.66661,-6.66666 v -36.66663 h 24.99997 v 36.66663 q 16.66665,0 24.99998,8.66666 8.33333,8.83332 8.33333,21.33331 0,12.49999 -7.33333,18.66665 -7.16666,6.33333 -21.83331,6.33333 -14.66666,0 -21.83332,-8.33333 -7.33332,-8.33332 -7.33332,-24.99997 l -64.99994,6.66666 h -0.5 q -2.5,0.16666 -4.83333,0.33333 -2.33333,0.33333 -4.49999,0.33333 z m 113.16655,1 q 0,-8.33332 -13.33332,-8.33332 0,13.33332 6.5,13.33332 h 0.16666 q 6.66666,0 6.66666,-5 z"/>
<defs>
	<clipPath id="z12736c1"><use xlink:href="#z12736d1"/></clipPath>
</defs>
<path style="--d:0s;--length:1000" clip-path="url(#z12736c1)" d="m 292.1227,257.57055 -10.99387,76.95706 15.70553,31.41104 34.55214,-4.71166 1.57056,-34.55214 -15.70553,-15.70552 -95.80368,20.41717 -37.69325,-4.71165 -3.1411,-45.54602"/>
</svg>
  