<svg id="z12736" class="acjk" version="1.1" viewBox="0 0 512 512" xmlns="http://www.w3.org/2000/svg" xmlns:xlink="http://www.w3.org/1999/xlink">
<style>
<![CDATA[
@keyframes zk {
	to {
		stroke-dashoffset:0;
	}
}
svg.acjk path[clip-path] {
	--t:3s;
	animation:zk var(--t) linear forwards var(--d);
	stroke-dasharray:var(--length);
	stroke-dashoffset:var(--length);
	stroke-width:40;
	stroke-linecap:round;
	fill:none;
	stroke:#000;
}
svg.acjk path[id] {fill:#ccc;}
]]>
</style>
<path id="z12736d1" d="m 243.16871,415.34542 q 0,24.99998 33.3333,24.99998 33.3333,0 33.3333,-24.99998 V 373.6788 h 29.99997 v 41.66662 q 0,41.66663 -63.33327,41.66663 -63.33327,0 -63.33327,-41.66663 V 196.5123 q 0,-17.66665 -33.3333,-27.99997 3.33333,-16.83332 15.83331,-39.16663 12.66666,-22.33332 21.66665,-22.33332 7.33333,0 19.16665,7.16666 l 11.66665,7.16666 q 5.16667,3.16667 12.16666,3.16667 3.66666,0 7.83332,-0.83333 -1.66666,11.66665 -6.83332,19.16664 -5,7.33333 -13.49999,8.16666 -0.83333,0.16667 -1.66666,0.16667 -8.33333,0 -22.49998,-8.83333 -4.33333,-2.49999 -7.99999,-2.49999 -10.49999,0 -18.16665,19.16664 45.66662,14.66666 45.66662,27.99998 z"/>
<defs>
	<clipPath id="z12736c1"><use xlink:href="#z12736d1"/></clipPath>
</defs>
<path style="--d:0s;--length:1000" clip-path="url(#z12736c1)" d="m 227.73006,188.46626 1.57055,241.86503 21.98773,14.13497 h 39.26381 l 32.98159,-14.13497 1.57055,-76.95706 -98.94478,-10.99386 -1.57055,-160.19632 -39.26381,-20.41718 26.69939,-40.83435 62.82209,15.70552"/>
</svg>
  