<svg id="z12736" class="acjk" version="1.1" viewBox="0 0 512 512" xmlns="http://www.w3.org/2000/svg" xmlns:xlink="http://www.w3.org/1999/xlink">
<style>
<![CDATA[
@keyframes zk {
	to {
		stroke-dashoffset:0;
	}
}
svg.acjk path[clip-path] {
	--t:3s;
	animation:zk var(--t) linear forwards var(--d);
	stroke-dasharray:var(--length);
	stroke-dashoffset:var(--length);
	stroke-width:40;
	stroke-linecap:round;
	fill:none;
	stroke:#000;
}
svg.acjk path[id] {fill:#ccc;}
]]>
</style>
<path id="z12736d1" d="m 143.16669,355.9999 q 19.99998,0 19.99998,-41.66663 0,-16.66665 -19.99998,-16.66665 z m 253.33309,-8.33332 q -16.66665,33.3333 -78.33326,33.3333 -61.6666,0 -78.33325,-33.3333 v -176.6665 q -9.99999,-19.99998 -48.33329,-19.99998 -38.3333,0 -48.33329,19.99998 v 109.99989 q 36.66663,0 36.66663,33.3333 0,33.33331 -10.49999,49.99996 -10.33332,16.66665 -31.16663,16.66665 -24.99998,0 -24.99998,-16.66665 V 164.33342 q 16.66665,-33.3333 78.33326,-33.3333 61.66661,0 78.33326,33.3333 v 176.6665 q 9.99999,19.99998 48.33328,19.99998 38.3333,0 48.33329,-19.99998 V 220.50003 q 0,-17.66665 -33.3333,-27.99997 3.33333,-16.83332 15.83332,-39.16663 12.66665,-22.33331 21.66664,-22.33331 7.33333,0 19.16665,7.16666 l 11.66666,7.16666 q 5.16666,3.16666 12.16665,3.16666 3.66667,0 7.83333,-0.83333 -1.66667,11.66665 -6.83333,19.16665 -4.99999,7.33332 -13.49998,8.16665 -0.83334,0.16667 -1.66667,0.16667 -8.33332,0 -22.49998,-8.83332 -4.33333,-2.5 -7.99999,-2.5 -10.49999,0 -18.16665,19.16665 45.66662,14.66665 45.66662,27.99997 z"/>
<defs>
	<clipPath id="z12736c1"><use xlink:href="#z12736d1"/></clipPath>
</defs>
<path style="--d:0s;--length:1000" clip-path="url(#z12736c1)" d="m 139.77914,287.41104 26.69939,1.57056 9.42331,50.25766 -18.84663,25.12884 -28.26993,6.28221 -3.14111,-205.74233 59.68098,-28.26994 54.96933,15.70552 17.27607,28.26994 v 177.47239 l 42.40491,14.13497 45.54601,-3.14111 42.40491,-25.12883 -9.42331,-135.06748 -36.1227,-21.98773 18.84662,-45.54602 72.2454,34.55215"/>
</svg>
  