<svg id="z12736" class="acjk" version="1.1" viewBox="0 0 512 512" xmlns="http://www.w3.org/2000/svg" xmlns:xlink="http://www.w3.org/1999/xlink">
<style>
<![CDATA[
@keyframes zk {
	to {
		stroke-dashoffset:0;
	}
}
svg.acjk path[clip-path] {
	--t:3s;
	animation:zk var(--t) linear forwards var(--d);
	stroke-dasharray:var(--length);
	stroke-dashoffset:var(--length);
	stroke-width:40;
	stroke-linecap:round;
	fill:none;
	stroke:#000;
}
svg.acjk path[id] {fill:#ccc;}
]]>
</style>
<path id="z12736d1" d="m 165.75665,332.30451 q 0,-25.49998 12.49999,-40.8333 12.49999,-15.16665 37.49997,-15.16665 19.99998,0 33.66663,10.66666 13.66665,10.83332 20.99998,32.49997 6.99999,16.49998 13.83332,21.33331 6.66666,4.99999 13.16665,4.99999 6.5,0 13.33333,-15.83331 6.66666,-15.66666 10.33332,-34.66664 3.5,-18.99998 16.16665,-18.99998 8.83332,0 8.83332,10.83332 0,4.83333 -1.83333,11.99999 -5.83332,22.83331 -18.49998,45.66662 -12.83332,22.99998 -26.99997,22.99998 -18.33332,0 -30.49997,-8.99999 -12.16666,-8.99999 -18.16665,-26.99997 -6.33333,-20.16665 -14.83332,-28.66664 -8.66666,-8.33333 -19.49998,-8.33333 -12.49999,0 -18.66665,9.66666 -6.33333,9.83332 -6.33333,27.83331 0,15.33332 8.33332,15.33332 8.33333,0 8.33333,-10.16666 8.33333,0 12.49999,3.66666 4.16666,3.83333 4.16666,11.49999 0,7.66666 -6.33333,11.49999 -6.16666,3.83333 -18.66665,3.83333 -16.66665,0 -24.99997,-7.66666 -8.33333,-7.66666 -8.33333,-27.99997 z"/>
<defs>
	<clipPath id="z12736c1"><use xlink:href="#z12736d1"/></clipPath>
</defs>
<path style="--d:0s;--length:1000" clip-path="url(#z12736c1)" d="m 221.44785,340.80982 -14.13497,20.41717 -25.12883,6.28221 -6.28221,-56.53987 28.26994,-29.8405 26.69939,3.14111 31.41104,43.97546 26.69939,31.41104 26.69938,-9.42331 34.55215,-100.51534"/>
</svg>
  