<svg id="z12736" class="acjk" version="1.1" viewBox="0 0 512 512" xmlns="http://www.w3.org/2000/svg" xmlns:xlink="http://www.w3.org/1999/xlink">
<style>
<![CDATA[
@keyframes zk {
	to {
		stroke-dashoffset:0;
	}
}
svg.acjk path[clip-path] {
	--t:3s;
	animation:zk var(--t) linear forwards var(--d);
	stroke-dasharray:var(--length);
	stroke-dashoffset:var(--length);
	stroke-width:40;
	stroke-linecap:round;
	fill:none;
	stroke:#000;
}
svg.acjk path[id] {fill:#ccc;}
]]>
</style>
<path id="z12736d1" d="m 294.71155,363.34333 q -23.33331,20.33331 -60.16661,20.33331 -24.99997,0 -37.49996,-8.49999 -12.49999,-8.33332 -12.49999,-24.66664 0,-20.66665 14.99999,-20.83331 14.99998,0 38.83329,-9.83333 23.66665,-9.83332 54.49995,-36.16663 24.99998,0 24.99998,24.99998 0,34.49996 -23.16665,54.66661 z m -11.83332,-45.66662 q -17.49998,12.83332 -35.8333,20.99998 -18.33331,8.16666 -35.8333,11.83332 0,5.83333 6.33333,9.66666 6.16666,3.83333 16.99998,3.83333 23.33331,0 39.66663,-15.66666 16.33332,-15.66665 18.33332,-37.83329 l -0.83333,0.5 q -2.16667,1.66666 -4.33333,3.33333 -2.16667,1.66666 -4.5,3.33333 z"/>
<defs>
	<clipPath id="z12736c1"><use xlink:href="#z12736d1"/></clipPath>
</defs>
<path style="--d:0s;--length:1000" clip-path="url(#z12736c1)" d="m 295.2638,282.69939 -51.82822,36.1227 -53.39877,14.13497 6.28221,34.55214 61.25153,7.85276 37.69325,-25.12883 15.70553,-80.09816"/>
</svg>
  