<svg id="z20023" class="acjk" version="1.1" viewBox="0 0 512 512" xmlns="http://www.w3.org/2000/svg" xmlns:xlink="http://www.w3.org/1999/xlink">
<style>
<![CDATA[
@keyframes zk {
	to {
		stroke-dashoffset:0;
	}
}
svg.acjk path[clip-path] {
	--t:0.8s;
	animation:zk var(--t) linear forwards var(--d);
	stroke-dasharray:3337;
	stroke-dashoffset:3339;
	stroke-width:40;
	stroke-linecap:round;
	fill:none;
	stroke:#000;
}
svg.acjk path[id] {fill:#ccc;}
]]>
</style>
<path id="z20023d1" d="m 316.91494,304.22278 h 24.99998 v 16.66665 h -24.99998 v 66.66661 q 0,41.66662 -66.49994,41.66662 -66.49993,0 -66.49993,-41.66662 v -8.33333 q -18.66665,0 -18.66665,-14.99998 0,-8.33333 9.33332,-17.49999 9.33333,-9.16665 19.99998,-9.16665 17.33332,0 17.33332,16.66665 v 33.3333 q 0,24.99997 37.49996,24.99997 37.49997,0 37.49997,-24.99997 v -66.66661 h -24.99998 v -16.66665 h 24.99998 V 160.38959 q 0,-17.66665 -33.3333,-27.99998 3.33333,-16.83331 15.83332,-39.166625 12.66665,-22.333312 21.66664,-22.333312 7.33333,0 19.16665,7.16666 l 11.66666,7.16666 q 5.16666,3.166664 12.16665,3.166664 3.66666,0 7.83333,-0.833333 -1.66667,11.666656 -6.83333,19.166646 -5,7.33333 -13.49999,8.16666 -0.83333,0.16667 -1.66666,0.16667 -8.33333,0 -22.49998,-8.83333 -4.33333,-2.49999 -7.99999,-2.49999 -10.49999,0 -18.16665,19.16664 45.66662,14.66666 45.66662,27.99998 z"/>
<path id="z20023d2" d="m 316.91494,304.22278 h 24.99998 v 16.66665 h -24.99998 v 66.66661 q 0,41.66662 -66.49994,41.66662 -66.49993,0 -66.49993,-41.66662 v -8.33333 q -18.66665,0 -18.66665,-14.99998 0,-8.33333 9.33332,-17.49999 9.33333,-9.16665 19.99998,-9.16665 17.33332,0 17.33332,16.66665 v 33.3333 q 0,24.99997 37.49996,24.99997 37.49997,0 37.49997,-24.99997 v -66.66661 h -24.99998 v -16.66665 h 24.99998 V 160.38959 q 0,-17.66665 -33.3333,-27.99998 3.33333,-16.83331 15.83332,-39.166625 12.66665,-22.333312 21.66664,-22.333312 7.33333,0 19.16665,7.16666 l 11.66666,7.16666 q 5.16666,3.166664 12.16665,3.166664 3.66666,0 7.83333,-0.833333 -1.66667,11.666656 -6.83333,19.166646 -5,7.33333 -13.49999,8.16666 -0.83333,0.16667 -1.66666,0.16667 -8.33333,0 -22.49998,-8.83333 -4.33333,-2.49999 -7.99999,-2.49999 -10.49999,0 -18.16665,19.16664 45.66662,14.66666 45.66662,27.99998 z"/>
<defs>
	<clipPath id="z20023c1"><use xlink:href="#z20023d1"/></clipPath>
	<clipPath id="z20023c2"><use xlink:href="#z20023d2"/></clipPath>
</defs>
<path style="--d:1s;" pathLength="3333" clip-path="url(#z20023c1)" d="m 179.04294,378.50307 -20.41717,-9.42332 7.85276,-23.55828 29.84049,1.57055 4.71165,64.39264 39.26381,7.85276 48.68712,-1.57055 17.27607,-18.84662 -4.71166,-251.28835 -37.69325,-21.98773 23.55828,-42.404906 36.1227,18.846626 h 34.55215"/>
<path style="--d:2s;" pathLength="3333" clip-path="url(#z20023c2)" d="M 241.86503,310.96933 H 367.5092"/>
</svg>
  