<svg id="z20023" class="acjk" version="1.1" viewBox="0 0 512 512" xmlns="http://www.w3.org/2000/svg" xmlns:xlink="http://www.w3.org/1999/xlink">
<style>
<![CDATA[
@keyframes zk {
	to {
		stroke-dashoffset:0;
	}
}
svg.acjk path[clip-path] {
	--t:2.5s;
	animation:zk var(--t) linear forwards var(--d);
	stroke-dasharray:3337;
	stroke-dashoffset:3339;
	stroke-width:40;
	stroke-linecap:round;
	fill:none;
	stroke:#000;
}
svg.acjk path[id] {fill:#ccc;}
]]>
</style>
<path id="z20023d1" d="m 240.49993,201.00005 q 0,4.99999 9.33333,4.99999 v -9.16665 q -9.33333,0 -9.33333,4.16666 z m 14.33332,63.33327 q 8.33333,0 8.33333,-4.16666 0,-4.16666 -4.16667,-4.16666 -4.16666,0 -4.16666,8.33332 z m 0,66.33327 q 0,50.33329 -59.66661,50.33329 -65.33327,0 -65.33327,-41.66663 v -41.66663 h 29.99997 v 41.66663 q 0,21.66665 35.3333,21.66665 29.66664,0 29.66664,-30.16664 V 284.3333 h -28.33331 q -83.33325,0 -83.33325,-49.99995 v -53.33328 q 0,-49.99995 83.33325,-49.99995 83.33326,0 83.33326,49.99995 v 24.99997 q 0,16.66666 -27.99998,16.66666 -27.99997,0 -27.99997,-21.66665 0,-10.33332 6.16666,-15.66665 6.16666,-5.16666 19.83332,-5.16666 0,-29.16664 -53.33329,-29.16664 -53.33328,0 -53.33328,29.99997 v 53.33328 q 0,29.99997 53.33328,29.99997 h 28.33331 q 0,-24.99997 34.16663,-24.99997 20.83332,0 20.83332,20.83331 0,24.16664 -24.99998,24.16664 z m 141.66653,141.99987 q 0,16.66665 -16.66665,16.66665 -14.99998,0 -27.8333,-12.83332 l -28.83331,-28.83331 -28.66664,28.83331 q -12.83332,12.83332 -27.99997,12.83332 -16.66665,0 -16.66665,-16.66665 v -33.3333 q -16.66665,0 -16.66665,-11.66666 0,-9.16666 9.99999,-19.66665 9.99999,-10.33332 19.99998,-10.33332 16.66665,0 16.66665,16.66665 v 48.49995 l 33.3333,-33.49996 q 4.99999,-5 9.99999,-5 5,0 9.99999,5 l 33.3333,33.3333 V 220.50003 q 0,-17.66665 -33.3333,-27.99997 3.33333,-16.83332 15.83332,-39.16663 12.66665,-22.33331 21.66664,-22.33331 7.33333,0 19.16665,7.16666 l 11.66666,7.16666 q 5.16666,3.16666 12.16665,3.16666 3.66667,0 7.83333,-0.83333 -1.66667,11.66665 -6.83333,19.16665 -4.99999,7.33332 -13.49998,8.16665 -0.83334,0.16667 -1.66667,0.16667 -8.33332,0 -22.49998,-8.83332 -4.33333,-2.5 -7.99999,-2.5 -10.49999,0 -18.16665,19.16665 45.66662,14.66665 45.66662,27.99997 z"/>
<path id="z20023d2" d="m 240.49993,201.00005 q 0,4.99999 9.33333,4.99999 v -9.16665 q -9.33333,0 -9.33333,4.16666 z m 14.33332,63.33327 q 8.33333,0 8.33333,-4.16666 0,-4.16666 -4.16667,-4.16666 -4.16666,0 -4.16666,8.33332 z m 0,66.33327 q 0,50.33329 -59.66661,50.33329 -65.33327,0 -65.33327,-41.66663 v -41.66663 h 29.99997 v 41.66663 q 0,21.66665 35.3333,21.66665 29.66664,0 29.66664,-30.16664 V 284.3333 h -28.33331 q -83.33325,0 -83.33325,-49.99995 v -53.33328 q 0,-49.99995 83.33325,-49.99995 83.33326,0 83.33326,49.99995 v 24.99997 q 0,16.66666 -27.99998,16.66666 -27.99997,0 -27.99997,-21.66665 0,-10.33332 6.16666,-15.66665 6.16666,-5.16666 19.83332,-5.16666 0,-29.16664 -53.33329,-29.16664 -53.33328,0 -53.33328,29.99997 v 53.33328 q 0,29.99997 53.33328,29.99997 h 28.33331 q 0,-24.99997 34.16663,-24.99997 20.83332,0 20.83332,20.83331 0,24.16664 -24.99998,24.16664 z m 141.66653,141.99987 q 0,16.66665 -16.66665,16.66665 -14.99998,0 -27.8333,-12.83332 l -28.83331,-28.83331 -28.66664,28.83331 q -12.83332,12.83332 -27.99997,12.83332 -16.66665,0 -16.66665,-16.66665 v -33.3333 q -16.66665,0 -16.66665,-11.66666 0,-9.16666 9.99999,-19.66665 9.99999,-10.33332 19.99998,-10.33332 16.66665,0 16.66665,16.66665 v 48.49995 l 33.3333,-33.49996 q 4.99999,-5 9.99999,-5 5,0 9.99999,5 l 33.3333,33.3333 V 220.50003 q 0,-17.66665 -33.3333,-27.99997 3.33333,-16.83332 15.83332,-39.16663 12.66665,-22.33331 21.66664,-22.33331 7.33333,0 19.16665,7.16666 l 11.66666,7.16666 q 5.16666,3.16666 12.16665,3.16666 3.66667,0 7.83333,-0.83333 -1.66667,11.66665 -6.83333,19.16665 -4.99999,7.33332 -13.49998,8.16665 -0.83334,0.16667 -1.66667,0.16667 -8.33332,0 -22.49998,-8.83332 -4.33333,-2.5 -7.99999,-2.5 -10.49999,0 -18.16665,19.16665 45.66662,14.66665 45.66662,27.99997 z"/>
<defs>
	<clipPath id="z20023c1"><use xlink:href="#z20023d1"/></clipPath>
	<clipPath id="z20023c2"><use xlink:href="#z20023d2"/></clipPath>
</defs>
<path style="--d:0s;" pathLength="3333" clip-path="url(#z20023c1)" d="m 141.34969,295.2638 4.71166,62.82209 36.1227,14.13497 45.54601,-4.71166 12.56442,-20.41718 -6.28221,-95.80368 23.55828,-10.99386 21.98773,9.42331 4.71166,21.98773 -122.50307,1.57055 -40.83435,-18.84662 6.2822,-87.95092 36.1227,-28.26994 86.38037,4.71166 23.55828,28.26993 -6.2822,48.68712 -37.69326,1.57055 -9.42331,-25.12883 12.56442,-12.56442 40.83435,-3.1411"/>
<path style="--d:3s;" pathLength="3333" clip-path="url(#z20023c2)" d="m 237.15337,436.6135 -12.56441,-17.27608 20.41717,-18.84662 21.98774,6.28221 v 72.24539 l 56.53987,-43.97546 56.53988,42.40491 1.57055,-266.99386 -40.83435,-23.55828 20.41717,-51.82823 59.68099,40.83436"/>
</svg>
  