<svg id="z12736" class="acjk" version="1.1" viewBox="0 0 512 512" xmlns="http://www.w3.org/2000/svg" xmlns:xlink="http://www.w3.org/1999/xlink">
<style>
<![CDATA[
@keyframes zk {
	to {
		stroke-dashoffset:0;
	}
}
svg.acjk path[clip-path] {
	--t:3s;
	animation:zk var(--t) linear forwards var(--d);
	stroke-dasharray:var(--length);
	stroke-dashoffset:var(--length);
	stroke-width:40;
	stroke-linecap:round;
	fill:none;
	stroke:#000;
}
svg.acjk path[id] {fill:#ccc;}
]]>
</style>
<path id="z12736d1" d="m 242.07049,140.88961 q 0,4.99999 9.33332,4.99999 v -9.16666 q -9.33332,0 -9.33332,4.16667 z m 14.33332,63.33327 q 8.33332,0 8.33332,-4.16666 0,-4.16667 -4.16666,-4.16667 -4.16666,0 -4.16666,8.33333 z m 0,66.33327 q 0,50.33328 -59.66661,50.33328 -65.33327,0 -65.33327,-41.66662 v -41.66663 h 29.99997 v 41.66663 q 0,21.66664 35.3333,21.66664 29.66664,0 29.66664,-30.16663 v -46.49996 h -28.33331 q -83.33325,0 -83.33325,-49.99995 v -53.33328 q 0,-49.999957 83.33325,-49.999957 83.33325,0 83.33325,49.999957 v 24.99997 q 0,16.66665 -27.99997,16.66665 -27.99997,0 -27.99997,-21.66664 0,-10.33333 6.16666,-15.66666 6.16666,-5.16666 19.83331,-5.16666 0,-29.166636 -53.33328,-29.166636 -53.33328,0 -53.33328,29.999976 v 53.33328 q 0,29.99997 53.33328,29.99997 h 28.33331 q 0,-24.99998 34.16663,-24.99998 20.83331,0 20.83331,20.83332 0,24.16664 -24.99997,24.16664 z m 141.66653,141.99986 q 0,16.66665 -16.66665,16.66665 -14.99999,0 -27.83331,-12.83332 l -28.8333,-28.8333 -28.66664,28.8333 q -12.83332,12.83332 -27.99998,12.83332 -16.66665,0 -16.66665,-16.66665 v -33.3333 q -16.66665,0 -16.66665,-11.66665 0,-9.16666 9.99999,-19.66665 9.99999,-10.33332 19.99998,-10.33332 16.66665,0 16.66665,16.66665 v 48.49995 l 33.33331,-33.49997 q 4.99999,-4.99999 9.99999,-4.99999 4.99999,0 9.99999,4.99999 l 33.3333,33.3333 V 160.38959 q 0,-17.66665 -33.3333,-27.99998 3.33333,-16.83331 15.83332,-39.166625 12.66665,-22.333312 21.66664,-22.333312 7.33333,0 19.16665,7.16666 l 11.66666,7.16666 q 5.16666,3.166664 12.16665,3.166664 3.66666,0 7.83333,-0.833333 -1.66667,11.666656 -6.83333,19.166646 -5,7.33333 -13.49999,8.16666 -0.83333,0.16667 -1.66666,0.16667 -8.33333,0 -22.49998,-8.83333 -4.33333,-2.49999 -7.99999,-2.49999 -10.49999,0 -18.16665,19.16664 45.66662,14.66666 45.66662,27.99998 z"/>
<defs>
	<clipPath id="z12736c1"><use xlink:href="#z12736d1"/></clipPath>
</defs>
<path style="--d:0s;--length:1000" clip-path="url(#z12736c1)" d="m 144.4908,234.01227 v 54.96933 l 26.69938,21.98773 43.97546,-1.57056 26.69939,-28.26994 -1.57055,-54.96932 -3.14111,-43.97546 42.40491,-4.71166 1.57055,29.84049 -59.68098,4.71166 -61.25153,1.57055 -32.9816,-21.98773 4.71166,-80.09816 39.2638,-36.122697 89.52148,7.852761 17.27607,39.263806 -6.28221,34.55214 -48.68712,1.57056 3.14111,-28.26994 58.11043,-4.71166 18.84662,150.77301 -111.5092,83.23926 18.84663,25.12884 28.26994,-17.27608 26.69938,-20.41718 1.57056,70.67485 56.53987,-45.54601 56.53988,47.11656 1.57055,-262.28221 -37.69325,-28.26993 23.55828,-50.257673 29.84049,20.417178 h 36.1227"/>
</svg>
  