<svg id="z17553" class="acjk" version="1.1" viewBox="0 0 512 512" xmlns="http://www.w3.org/2000/svg" xmlns:xlink="http://www.w3.org/1999/xlink">
<style>
<![CDATA[
@keyframes zk {
	to {
		stroke-dashoffset:0;
	}
}
svg.acjk path[clip-path] {
	--t:0.8s;
	animation:zk var(--t) linear forwards var(--d);
	stroke-dasharray:3337;
	stroke-dashoffset:3339;
	stroke-width:40;
	stroke-linecap:round;
	fill:none;
	stroke:#000;
}
svg.acjk path[id] {fill:#ccc;}
]]>
</style>
<path id="z17553d1" d="m 338.16651,422.6665 q 0,24.99998 -25.83331,37.49997 -25.66665,12.49999 -77.1666,12.49999 -25.8333,0 -43.83329,-5.33333 -17.99998,-5.5 -28.16664,-16.33332 30.99997,5 72.1666,5 36.8333,0 55.33328,-8.33333 18.33332,-8.33332 18.33332,-24.99998 0,-4.16666 -3,-6.33332 -3.16666,-2 -9.33332,-2 0,-8.33333 5.16666,-12.49999 5.16666,-4.16666 15.49998,-4.16666 10.49999,0 15.66665,6.33333 5.16667,6.16666 5.16667,18.66664 z M 308.16653,220.50003 q 0,-17.66665 -33.3333,-27.99997 3.33333,-16.83332 15.83332,-39.16663 12.66666,-22.33331 21.66665,-22.33331 7.33332,0 19.16665,7.16666 l 11.66665,7.16666 q 5.16666,3.16666 12.16666,3.16666 3.66666,0 7.83332,-0.83333 -1.66666,11.66665 -6.83332,19.16665 -5,7.33332 -13.49999,8.16665 -0.83333,0.16667 -1.66667,0.16667 -8.33332,0 -22.49998,-8.83332 -4.33332,-2.5 -7.99999,-2.5 -10.49999,0 -18.16665,19.16665 45.66663,14.66665 45.66663,27.99997 v 136.66654 q -16.66665,33.3333 -83.33326,33.3333 -66.6666,0 -83.33325,-33.3333 V 220.50003 q 0,-17.66665 -33.3333,-27.99997 3.33333,-16.83332 15.83331,-39.16663 12.66666,-22.33331 21.66665,-22.33331 7.33333,0 19.16665,7.16666 l 11.66665,7.16666 q 5.16667,3.16666 12.16666,3.16666 3.66666,0 7.83333,-0.83333 -1.66667,11.66665 -6.83333,19.16665 -5,7.33332 -13.49999,8.16665 -0.83333,0.16667 -1.66666,0.16667 -8.33333,0 -22.49998,-8.83332 -4.33333,-2.5 -7.99999,-2.5 -10.49999,0 -18.16665,19.16665 45.66662,14.66665 45.66662,27.99997 v 129.99988 q 9.99999,19.99998 53.33328,19.99998 43.33329,0 53.33328,-19.99998 z"/>
<path id="z17553d2" d="m 338.16651,422.6665 q 0,24.99998 -25.83331,37.49997 -25.66665,12.49999 -77.1666,12.49999 -25.8333,0 -43.83329,-5.33333 -17.99998,-5.5 -28.16664,-16.33332 30.99997,5 72.1666,5 36.8333,0 55.33328,-8.33333 18.33332,-8.33332 18.33332,-24.99998 0,-4.16666 -3,-6.33332 -3.16666,-2 -9.33332,-2 0,-8.33333 5.16666,-12.49999 5.16666,-4.16666 15.49998,-4.16666 10.49999,0 15.66665,6.33333 5.16667,6.16666 5.16667,18.66664 z M 308.16653,220.50003 q 0,-17.66665 -33.3333,-27.99997 3.33333,-16.83332 15.83332,-39.16663 12.66666,-22.33331 21.66665,-22.33331 7.33332,0 19.16665,7.16666 l 11.66665,7.16666 q 5.16666,3.16666 12.16666,3.16666 3.66666,0 7.83332,-0.83333 -1.66666,11.66665 -6.83332,19.16665 -5,7.33332 -13.49999,8.16665 -0.83333,0.16667 -1.66667,0.16667 -8.33332,0 -22.49998,-8.83332 -4.33332,-2.5 -7.99999,-2.5 -10.49999,0 -18.16665,19.16665 45.66663,14.66665 45.66663,27.99997 v 136.66654 q -16.66665,33.3333 -83.33326,33.3333 -66.6666,0 -83.33325,-33.3333 V 220.50003 q 0,-17.66665 -33.3333,-27.99997 3.33333,-16.83332 15.83331,-39.16663 12.66666,-22.33331 21.66665,-22.33331 7.33333,0 19.16665,7.16666 l 11.66665,7.16666 q 5.16667,3.16666 12.16666,3.16666 3.66666,0 7.83333,-0.83333 -1.66667,11.66665 -6.83333,19.16665 -5,7.33332 -13.49999,8.16665 -0.83333,0.16667 -1.66666,0.16667 -8.33333,0 -22.49998,-8.83332 -4.33333,-2.5 -7.99999,-2.5 -10.49999,0 -18.16665,19.16665 45.66662,14.66665 45.66662,27.99997 v 129.99988 q 9.99999,19.99998 53.33328,19.99998 43.33329,0 53.33328,-19.99998 z"/>
<path id="z17553d3" d="m 338.16651,422.6665 q 0,24.99998 -25.83331,37.49997 -25.66665,12.49999 -77.1666,12.49999 -25.8333,0 -43.83329,-5.33333 -17.99998,-5.5 -28.16664,-16.33332 30.99997,5 72.1666,5 36.8333,0 55.33328,-8.33333 18.33332,-8.33332 18.33332,-24.99998 0,-4.16666 -3,-6.33332 -3.16666,-2 -9.33332,-2 0,-8.33333 5.16666,-12.49999 5.16666,-4.16666 15.49998,-4.16666 10.49999,0 15.66665,6.33333 5.16667,6.16666 5.16667,18.66664 z M 308.16653,220.50003 q 0,-17.66665 -33.3333,-27.99997 3.33333,-16.83332 15.83332,-39.16663 12.66666,-22.33331 21.66665,-22.33331 7.33332,0 19.16665,7.16666 l 11.66665,7.16666 q 5.16666,3.16666 12.16666,3.16666 3.66666,0 7.83332,-0.83333 -1.66666,11.66665 -6.83332,19.16665 -5,7.33332 -13.49999,8.16665 -0.83333,0.16667 -1.66667,0.16667 -8.33332,0 -22.49998,-8.83332 -4.33332,-2.5 -7.99999,-2.5 -10.49999,0 -18.16665,19.16665 45.66663,14.66665 45.66663,27.99997 v 136.66654 q -16.66665,33.3333 -83.33326,33.3333 -66.6666,0 -83.33325,-33.3333 V 220.50003 q 0,-17.66665 -33.3333,-27.99997 3.33333,-16.83332 15.83331,-39.16663 12.66666,-22.33331 21.66665,-22.33331 7.33333,0 19.16665,7.16666 l 11.66665,7.16666 q 5.16667,3.16666 12.16666,3.16666 3.66666,0 7.83333,-0.83333 -1.66667,11.66665 -6.83333,19.16665 -5,7.33332 -13.49999,8.16665 -0.83333,0.16667 -1.66666,0.16667 -8.33333,0 -22.49998,-8.83332 -4.33333,-2.5 -7.99999,-2.5 -10.49999,0 -18.16665,19.16665 45.66662,14.66665 45.66662,27.99997 v 129.99988 q 9.99999,19.99998 53.33328,19.99998 43.33329,0 53.33328,-19.99998 z"/>
<defs>
	<clipPath id="z17553c1"><use xlink:href="#z17553d1"/></clipPath>
	<clipPath id="z17553c2"><use xlink:href="#z17553d2"/></clipPath>
	<clipPath id="z17553c3"><use xlink:href="#z17553d3"/></clipPath>
</defs>
<path style="--d:1s;" pathLength="3333" clip-path="url(#z17553c1)" d="m 185.32515,213.59509 -3.1411,138.20859 47.11656,23.55828 50.25767,-4.71165 47.11657,-21.98773 -6.28221,-139.77914 -36.1227,-21.98773 25.12883,-47.11657 31.41105,23.55828 37.69325,3.14111"/>
<path style="--d:2s;" pathLength="3333" clip-path="url(#z17553c2)" d="m 196.31902,234.01227 -29.84049,-39.2638 -20.41718,-10.99387 25.12883,-43.97546 34.55215,20.41718 h 32.9816"/>
<path style="--d:3s;" pathLength="3333" clip-path="url(#z17553c3)" d="m 293.69325,395.77914 28.26994,14.13497 7.85276,23.55828 -23.55828,26.69939 -64.39264,4.71166 -109.93865,-6.28221"/>
</svg>
  