<svg id="z17553" class="acjk" version="1.1" viewBox="0 0 512 512" xmlns="http://www.w3.org/2000/svg" xmlns:xlink="http://www.w3.org/1999/xlink">
<style>
<![CDATA[
@keyframes zk {
	to {
		stroke-dashoffset:0;
	}
}
svg.acjk path[clip-path] {
	--t:0.8s;
	animation:zk var(--t) linear forwards var(--d);
	stroke-dasharray:3337;
	stroke-dashoffset:3339;
	stroke-width:40;
	stroke-linecap:round;
	fill:none;
	stroke:#000;
}
svg.acjk path[id] {fill:#ccc;}
]]>
</style>
<path id="z17553d1" d="m 201.49997,355.9999 q 19.99998,0 19.99998,-41.66663 0,-16.66665 -19.99998,-16.66665 z M 171.5,181.00007 q 0,-20.33332 18.33331,-35.16663 18.33332,-14.83332 28.16664,-14.83332 8.33333,0 36.8333,22.33331 28.66664,-22.33331 36.99997,-22.33331 9.83332,0 27.99997,14.83332 18.33332,14.83331 18.33332,35.16663 V 380.99988 H 308.16653 V 181.00007 q 0,-17.33332 -11.49998,-23.66665 -2.16667,-0.99999 -4.66667,-0.99999 -12.16665,0 -37.16663,24.66664 -24.83331,-24.66664 -37.16663,-24.66664 -2.5,0 -4.49999,0.99999 -11.66666,6.33333 -11.66666,23.66665 v 99.9999 q 36.66663,0 36.66663,33.3333 0,33.33331 -10.49999,49.99996 -10.33332,16.66665 -31.16664,16.66665 -24.99997,0 -24.99997,-16.66665 z M 338.16651,422.6665 q 0,11.66666 -5.83333,20.66665 1.66666,6.33333 9.33332,9.66666 7.66666,3.16666 21.33332,3.16666 0,8.16666 -6.66666,12.33332 -6.83333,4.16667 -20.33332,4.16667 -9.66666,0 -16.83332,-2.66667 -6.99999,-2.66666 -11.33332,-7.83332 -12.83332,5.16666 -30.99997,7.83332 -18.16665,2.66667 -41.83329,2.66667 -25.66664,0 -43.66663,-5.33333 -17.99998,-5.5 -28.16664,-16.33332 30.83331,5 72.1666,5 36.66663,0 55.16661,-8.33333 18.33332,-8.33332 18.33332,-24.99998 0,-8.33332 -12.49999,-8.33332 0,-8.33333 5.33333,-12.49999 5.33333,-4.16666 15.83332,-4.16666 10.33332,0 15.49998,6.33333 5.16667,6.16666 5.16667,18.66664 z"/>
<path id="z17553d2" d="m 201.49997,355.9999 q 19.99998,0 19.99998,-41.66663 0,-16.66665 -19.99998,-16.66665 z M 171.5,181.00007 q 0,-20.33332 18.33331,-35.16663 18.33332,-14.83332 28.16664,-14.83332 8.33333,0 36.8333,22.33331 28.66664,-22.33331 36.99997,-22.33331 9.83332,0 27.99997,14.83332 18.33332,14.83331 18.33332,35.16663 V 380.99988 H 308.16653 V 181.00007 q 0,-17.33332 -11.49998,-23.66665 -2.16667,-0.99999 -4.66667,-0.99999 -12.16665,0 -37.16663,24.66664 -24.83331,-24.66664 -37.16663,-24.66664 -2.5,0 -4.49999,0.99999 -11.66666,6.33333 -11.66666,23.66665 v 99.9999 q 36.66663,0 36.66663,33.3333 0,33.33331 -10.49999,49.99996 -10.33332,16.66665 -31.16664,16.66665 -24.99997,0 -24.99997,-16.66665 z M 338.16651,422.6665 q 0,11.66666 -5.83333,20.66665 1.66666,6.33333 9.33332,9.66666 7.66666,3.16666 21.33332,3.16666 0,8.16666 -6.66666,12.33332 -6.83333,4.16667 -20.33332,4.16667 -9.66666,0 -16.83332,-2.66667 -6.99999,-2.66666 -11.33332,-7.83332 -12.83332,5.16666 -30.99997,7.83332 -18.16665,2.66667 -41.83329,2.66667 -25.66664,0 -43.66663,-5.33333 -17.99998,-5.5 -28.16664,-16.33332 30.83331,5 72.1666,5 36.66663,0 55.16661,-8.33333 18.33332,-8.33332 18.33332,-24.99998 0,-8.33332 -12.49999,-8.33332 0,-8.33333 5.33333,-12.49999 5.33333,-4.16666 15.83332,-4.16666 10.33332,0 15.49998,6.33333 5.16667,6.16666 5.16667,18.66664 z"/>
<path id="z17553d3" d="m 201.49997,355.9999 q 19.99998,0 19.99998,-41.66663 0,-16.66665 -19.99998,-16.66665 z M 171.5,181.00007 q 0,-20.33332 18.33331,-35.16663 18.33332,-14.83332 28.16664,-14.83332 8.33333,0 36.8333,22.33331 28.66664,-22.33331 36.99997,-22.33331 9.83332,0 27.99997,14.83332 18.33332,14.83331 18.33332,35.16663 V 380.99988 H 308.16653 V 181.00007 q 0,-17.33332 -11.49998,-23.66665 -2.16667,-0.99999 -4.66667,-0.99999 -12.16665,0 -37.16663,24.66664 -24.83331,-24.66664 -37.16663,-24.66664 -2.5,0 -4.49999,0.99999 -11.66666,6.33333 -11.66666,23.66665 v 99.9999 q 36.66663,0 36.66663,33.3333 0,33.33331 -10.49999,49.99996 -10.33332,16.66665 -31.16664,16.66665 -24.99997,0 -24.99997,-16.66665 z M 338.16651,422.6665 q 0,11.66666 -5.83333,20.66665 1.66666,6.33333 9.33332,9.66666 7.66666,3.16666 21.33332,3.16666 0,8.16666 -6.66666,12.33332 -6.83333,4.16667 -20.33332,4.16667 -9.66666,0 -16.83332,-2.66667 -6.99999,-2.66666 -11.33332,-7.83332 -12.83332,5.16666 -30.99997,7.83332 -18.16665,2.66667 -41.83329,2.66667 -25.66664,0 -43.66663,-5.33333 -17.99998,-5.5 -28.16664,-16.33332 30.83331,5 72.1666,5 36.66663,0 55.16661,-8.33333 18.33332,-8.33332 18.33332,-24.99998 0,-8.33332 -12.49999,-8.33332 0,-8.33333 5.33333,-12.49999 5.33333,-4.16666 15.83332,-4.16666 10.33332,0 15.49998,6.33333 5.16667,6.16666 5.16667,18.66664 z"/>
<defs>
	<clipPath id="z17553c1"><use xlink:href="#z17553d1"/></clipPath>
	<clipPath id="z17553c2"><use xlink:href="#z17553d2"/></clipPath>
	<clipPath id="z17553c3"><use xlink:href="#z17553d3"/></clipPath>
</defs>
<path style="--d:1s;" pathLength="3333" clip-path="url(#z17553c1)" d="m 202.60123,284.26994 31.41104,17.27607 v 29.84049 l -9.42331,36.1227 -36.1227,9.42332 -4.71166,-204.17178 32.9816,-36.1227 39.2638,32.98159 32.9816,-26.69938 32.98159,17.27607 3.1411,226.15951"/>
<path style="--d:2s;" pathLength="3333" clip-path="url(#z17553c2)" d="m 288.9816,402.06135 32.98159,4.71166 -7.85276,31.41104 -50.25767,26.69939 -120.93251,-6.28221 v 0 h -1.57056"/>
<path style="--d:3s;" pathLength="3333" clip-path="url(#z17553c3)" d="m 287.41104,430.33129 34.55215,21.98773 23.55828,14.13497 56.53988,-4.71166"/>
</svg>
  