<svg id="z20023" class="acjk" version="1.1" viewBox="0 0 512 512" xmlns="http://www.w3.org/2000/svg" xmlns:xlink="http://www.w3.org/1999/xlink">
<style>
<![CDATA[
@keyframes zk {
	to {
		stroke-dashoffset:0;
	}
}
svg.acjk path[clip-path] {
	--t:0.8s;
	animation:zk var(--t) linear forwards var(--d);
	stroke-dasharray:3337;
	stroke-dashoffset:3339;
	stroke-width:40;
	stroke-linecap:round;
	fill:none;
	stroke:#000;
}
svg.acjk path[id] {fill:#ccc;}
]]>
</style>
<path id="z20023d1" d="m 308.16653,405.83319 q -25.66664,16.33332 -43.33329,25.99997 l 15.66665,5.66666 q 4.5,1 8.16666,1 7.33333,0 12.16666,-3.66666 7.33332,-5.49999 7.33332,-22.83331 z M 201.49997,355.9999 q 19.99998,0 19.99998,-41.66663 0,-16.66665 -19.99998,-16.66665 z m 39.99996,107.33323 q 4.33333,-4.33333 4.33333,-12.99998 v -9.83333 q -21.49998,10.66666 -38.49996,15.49999 v 3.33333 q 0,4.16666 6.83332,6.16666 7,2.16666 12.99999,2.16666 9.99999,0 14.33332,-4.33333 z m 96.66658,-51.33328 q 0,28.99997 -13.16666,40.66663 -8.83332,7.99999 -26.16664,7.99999 -8.16666,0 -18.49998,-1.83333 l -12.83332,-3 q 0,16.83332 -8.83333,25.16664 -8.83332,8.33333 -29.99997,8.33333 -24.49998,0 -36.66663,-6.33333 -12.16666,-6.16666 -12.16666,-18.66665 0,-23.99998 9.33333,-27.8333 29.49997,-8.66666 54.33328,-19.99999 24.99998,-11.16665 64.6666,-43.66662 V 181.00007 q 0,-17.33332 -11.49998,-23.66665 -2.16667,-0.99999 -4.66667,-0.99999 -12.16665,0 -37.16663,24.66664 -24.83331,-24.66664 -37.16663,-24.66664 -2.5,0 -4.49999,0.99999 -11.66666,6.33333 -11.66666,23.66665 v 99.9999 q 36.66663,0 36.66663,33.3333 0,33.33331 -10.49999,49.99996 -10.33332,16.66665 -31.16664,16.66665 -24.99997,0 -24.99997,-16.66665 V 181.00007 q 0,-20.33332 18.33331,-35.16663 18.33332,-14.83332 28.16664,-14.83332 8.33333,0 36.8333,22.33331 28.66664,-22.33331 36.99997,-22.33331 9.83332,0 27.99997,14.83332 18.33332,14.83331 18.33332,35.16663 z"/>
<path id="z20023d2" d="m 308.16653,405.83319 q -25.66664,16.33332 -43.33329,25.99997 l 15.66665,5.66666 q 4.5,1 8.16666,1 7.33333,0 12.16666,-3.66666 7.33332,-5.49999 7.33332,-22.83331 z M 201.49997,355.9999 q 19.99998,0 19.99998,-41.66663 0,-16.66665 -19.99998,-16.66665 z m 39.99996,107.33323 q 4.33333,-4.33333 4.33333,-12.99998 v -9.83333 q -21.49998,10.66666 -38.49996,15.49999 v 3.33333 q 0,4.16666 6.83332,6.16666 7,2.16666 12.99999,2.16666 9.99999,0 14.33332,-4.33333 z m 96.66658,-51.33328 q 0,28.99997 -13.16666,40.66663 -8.83332,7.99999 -26.16664,7.99999 -8.16666,0 -18.49998,-1.83333 l -12.83332,-3 q 0,16.83332 -8.83333,25.16664 -8.83332,8.33333 -29.99997,8.33333 -24.49998,0 -36.66663,-6.33333 -12.16666,-6.16666 -12.16666,-18.66665 0,-23.99998 9.33333,-27.8333 29.49997,-8.66666 54.33328,-19.99999 24.99998,-11.16665 64.6666,-43.66662 V 181.00007 q 0,-17.33332 -11.49998,-23.66665 -2.16667,-0.99999 -4.66667,-0.99999 -12.16665,0 -37.16663,24.66664 -24.83331,-24.66664 -37.16663,-24.66664 -2.5,0 -4.49999,0.99999 -11.66666,6.33333 -11.66666,23.66665 v 99.9999 q 36.66663,0 36.66663,33.3333 0,33.33331 -10.49999,49.99996 -10.33332,16.66665 -31.16664,16.66665 -24.99997,0 -24.99997,-16.66665 V 181.00007 q 0,-20.33332 18.33331,-35.16663 18.33332,-14.83332 28.16664,-14.83332 8.33333,0 36.8333,22.33331 28.66664,-22.33331 36.99997,-22.33331 9.83332,0 27.99997,14.83332 18.33332,14.83331 18.33332,35.16663 z"/>
<defs>
	<clipPath id="z20023c1"><use xlink:href="#z20023d1"/></clipPath>
	<clipPath id="z20023c2"><use xlink:href="#z20023d2"/></clipPath>
</defs>
<path style="--d:1s;" pathLength="3333" clip-path="url(#z20023c1)" d="m 199.46012,287.41104 31.41105,3.14111 1.57055,28.26994 -7.85276,45.54601 -37.69325,15.70552 -3.14111,-210.45399 36.1227,-26.69938 39.2638,26.69938 32.9816,-28.26994 36.1227,36.1227 -1.57055,194.74847"/>
<path style="--d:2s;" pathLength="3333" clip-path="url(#z20023c2)" d="m 350.23313,359.65644 -62.82209,37.69325 -75.3865,34.55215 -26.69939,12.56442 v 26.69938 l 37.69325,20.41718 31.41105,-7.85276 3.1411,-58.11043 34.55215,31.41104 31.41104,-15.70552 25.12884,-146.06135"/>
</svg>
  