<svg id="z20023" class="acjk" version="1.1" viewBox="0 0 512 512" xmlns="http://www.w3.org/2000/svg" xmlns:xlink="http://www.w3.org/1999/xlink">
<style>
<![CDATA[
@keyframes zk {
	to {
		stroke-dashoffset:0;
	}
}
svg.acjk path[clip-path] {
	--t:0.8s;
	animation:zk var(--t) linear forwards var(--d);
	stroke-dasharray:3337;
	stroke-dashoffset:3339;
	stroke-width:40;
	stroke-linecap:round;
	fill:none;
	stroke:#000;
}
svg.acjk path[id] {fill:#ccc;}
]]>
</style>
<path id="z20023d1" d="m 346.49983,97.333482 q 0,31.166638 -20.99998,43.166628 0.83333,-3.16667 0.83333,-6.5 0,-14.33332 -16.33331,-31.66663 -20.16665,-21.333316 -55.16662,-21.333316 -55.99994,0 -61.33327,10.666657 -5.33333,10.666659 -5.33333,16.666649 0,8.33333 22.83331,19.99998 l -24.83331,11.83332 q -22.99998,-6.83332 -22.99998,-23.33331 v -12.49998 q 0,-8.666663 10.83333,-18.83332 l 10.99999,-10.166657 q 23.49997,-20.666647 69.83326,-20.666647 40.66663,0 68.1666,20.833313 v -3.499996 q 0,-22.999978 -14.66665,-33.166635 l -7.83332,-5.499995 q -4.66667,-3.166664 -4.66667,-7.499993 0,-2.999997 2.5,-6.66666 3.16666,-4.499996 7.49999,-4.499996 4,0 8.99999,3.499997 l 10.49999,7.499992 q 21.16665,14.999986 21.16665,53.333283 z M 201.49997,210.16671 v 12.49999 q 9.33332,0 9.33332,-8.33333 0,-4.16666 -9.33332,-4.16666 z m 0,120.83322 q 0,16.99998 7.49999,23.49997 7.66666,6.5 27.49998,6.5 19.66664,0 34.49996,-6 14.83332,-5.99999 37.16663,-28.8333 v -45.16663 h 29.99998 v 99.99991 q 0,28.3333 -33.33331,28.3333 -16.66665,0 -16.66665,-16.66665 19.99998,0 19.99998,-11.66665 V 357.4999 q -15.66665,11.49999 -30.3333,17.33332 -15.33332,6.16666 -41.33329,6.16666 -34.3333,0 -48.33329,-10.49999 Q 171.5,358.16657 171.5,330.99993 v -44.49996 q 136.66653,-52.16662 136.66653,-80.49993 v -24.99997 q 0,-29.99997 -53.33328,-29.99997 -53.33328,0 -53.33328,29.99997 v 12.49999 q 13.66665,0 19.83331,5.16666 6.16666,5.33333 6.16666,15.66665 0,24.99998 -27.99997,24.99998 -27.99997,0 -27.99997,-16.66665 v -41.66663 q 0,-49.99995 83.33325,-49.99995 83.33326,0 83.33326,49.99995 v 24.99997 q 0,39.99997 -136.66654,90.33325 z"/>
<path id="z20023d2" d="m 346.49983,97.333482 q 0,31.166638 -20.99998,43.166628 0.83333,-3.16667 0.83333,-6.5 0,-14.33332 -16.33331,-31.66663 -20.16665,-21.333316 -55.16662,-21.333316 -55.99994,0 -61.33327,10.666657 -5.33333,10.666659 -5.33333,16.666649 0,8.33333 22.83331,19.99998 l -24.83331,11.83332 q -22.99998,-6.83332 -22.99998,-23.33331 v -12.49998 q 0,-8.666663 10.83333,-18.83332 l 10.99999,-10.166657 q 23.49997,-20.666647 69.83326,-20.666647 40.66663,0 68.1666,20.833313 v -3.499996 q 0,-22.999978 -14.66665,-33.166635 l -7.83332,-5.499995 q -4.66667,-3.166664 -4.66667,-7.499993 0,-2.999997 2.5,-6.66666 3.16666,-4.499996 7.49999,-4.499996 4,0 8.99999,3.499997 l 10.49999,7.499992 q 21.16665,14.999986 21.16665,53.333283 z M 201.49997,210.16671 v 12.49999 q 9.33332,0 9.33332,-8.33333 0,-4.16666 -9.33332,-4.16666 z m 0,120.83322 q 0,16.99998 7.49999,23.49997 7.66666,6.5 27.49998,6.5 19.66664,0 34.49996,-6 14.83332,-5.99999 37.16663,-28.8333 v -45.16663 h 29.99998 v 99.99991 q 0,28.3333 -33.33331,28.3333 -16.66665,0 -16.66665,-16.66665 19.99998,0 19.99998,-11.66665 V 357.4999 q -15.66665,11.49999 -30.3333,17.33332 -15.33332,6.16666 -41.33329,6.16666 -34.3333,0 -48.33329,-10.49999 Q 171.5,358.16657 171.5,330.99993 v -44.49996 q 136.66653,-52.16662 136.66653,-80.49993 v -24.99997 q 0,-29.99997 -53.33328,-29.99997 -53.33328,0 -53.33328,29.99997 v 12.49999 q 13.66665,0 19.83331,5.16666 6.16666,5.33333 6.16666,15.66665 0,24.99998 -27.99997,24.99998 -27.99997,0 -27.99997,-16.66665 v -41.66663 q 0,-49.99995 83.33325,-49.99995 83.33326,0 83.33326,49.99995 v 24.99997 q 0,39.99997 -136.66654,90.33325 z"/>
<defs>
	<clipPath id="z20023c1"><use xlink:href="#z20023d1"/></clipPath>
	<clipPath id="z20023c2"><use xlink:href="#z20023d2"/></clipPath>
</defs>
<path style="--d:1s;" pathLength="3333" clip-path="url(#z20023c1)" d="m 202.60123,199.46012 17.27607,1.57055 7.85276,15.70553 -10.99386,20.41717 -39.26381,3.14111 9.42332,-65.96319 32.98159,-21.98773 59.68098,-4.71166 32.9816,18.84663 -3.14111,53.39877 -61.25153,47.11657 -70.67485,31.41104 6.28221,59.68098 51.82822,18.84663 45.54601,-12.56442 37.69326,-40.83436 3.1411,-50.25767 1.57055,119.36197 -47.11656,23.55828"/>
<path style="--d:2s;" pathLength="3333" clip-path="url(#z20023c2)" d="m 205.74233,138.20859 -32.98159,-17.27607 10.99386,-34.552152 58.11043,-23.558282 61.25153,14.134969 32.9816,32.981595 -6.28221,18.84663 L 345.52147,65.96319 331.3865,29.840491 282.69939,10.993865"/>
</svg>
  