<svg id="z20023" class="acjk" version="1.1" viewBox="0 0 512 512" xmlns="http://www.w3.org/2000/svg" xmlns:xlink="http://www.w3.org/1999/xlink">
<style>
<![CDATA[
@keyframes zk {
	to {
		stroke-dashoffset:0;
	}
}
svg.acjk path[clip-path] {
	--t:0.8s;
	animation:zk var(--t) linear forwards var(--d);
	stroke-dasharray:3337;
	stroke-dashoffset:3339;
	stroke-width:40;
	stroke-linecap:round;
	fill:none;
	stroke:#000;
}
svg.acjk path[id] {fill:#ccc;}
]]>
</style>
<path id="z20023d1" d="M 323.19714,267.25157 V 442.2514 H 293.19716 V 267.25157 q 0,-13.33332 -19.33331,-29.16664 -19.16665,-15.83332 -30.66664,-15.83332 -10.49999,0 -33.49997,19.49999 l -10.99999,-15.33332 q 26.83331,-34.16664 44.49996,-34.16664 20.49998,0 50.16662,21.49998 29.83331,21.33331 29.83331,53.49995 z M 226.53057,96.4184 q 0,8.33333 3.33333,12.49999 3.33333,4.16666 9.99999,4.16666 6.66666,0 9.99999,-4.16666 3.33333,-4.16666 3.33333,-12.49999 0,-8.333325 -3.33333,-12.499988 -3.33333,-4.166662 -9.99999,-4.166662 -6.66666,0 -9.99999,4.166662 -3.33333,4.166663 -3.33333,12.499988 z m 50.83328,0 q 0,18.83332 -9.33332,28.16664 -9.33333,9.33332 -28.16664,9.33332 -18.83332,0 -28.16664,-9.33332 -9.33333,-9.33332 -9.33333,-28.16664 0,-18.833315 9.33333,-28.16664 9.33332,-9.333324 28.16664,-9.333324 18.83331,0 28.16664,9.333324 9.33332,9.333325 9.33332,28.16664 z"/>
<path id="z20023d2" d="M 323.19714,267.25157 V 442.2514 H 293.19716 V 267.25157 q 0,-13.33332 -19.33331,-29.16664 -19.16665,-15.83332 -30.66664,-15.83332 -10.49999,0 -33.49997,19.49999 l -10.99999,-15.33332 q 26.83331,-34.16664 44.49996,-34.16664 20.49998,0 50.16662,21.49998 29.83331,21.33331 29.83331,53.49995 z M 226.53057,96.4184 q 0,8.33333 3.33333,12.49999 3.33333,4.16666 9.99999,4.16666 6.66666,0 9.99999,-4.16666 3.33333,-4.16666 3.33333,-12.49999 0,-8.333325 -3.33333,-12.499988 -3.33333,-4.166662 -9.99999,-4.166662 -6.66666,0 -9.99999,4.166662 -3.33333,4.166663 -3.33333,12.499988 z m 50.83328,0 q 0,18.83332 -9.33332,28.16664 -9.33333,9.33332 -28.16664,9.33332 -18.83332,0 -28.16664,-9.33332 -9.33333,-9.33332 -9.33333,-28.16664 0,-18.833315 9.33333,-28.16664 9.33332,-9.333324 28.16664,-9.333324 18.83331,0 28.16664,9.333324 9.33332,9.333325 9.33332,28.16664 z"/>
<defs>
	<clipPath id="z20023c1"><use xlink:href="#z20023d1"/></clipPath>
	<clipPath id="z20023c2"><use xlink:href="#z20023d2"/></clipPath>
</defs>
<path style="--d:1s;" pathLength="3333" clip-path="url(#z20023c1)" d="m 191.60736,238.72393 45.54601,-32.9816 50.25767,12.56442 18.84663,34.55215 9.42331,210.45398"/>
<path style="--d:2s;" pathLength="3333" clip-path="url(#z20023c2)" d="m 238.72393,67.533742 -31.41105,10.993865 1.57056,39.263803 28.26993,15.70552 31.41105,-9.42331 L 282.69939,80.09816 259.1411,69.104294 202.60123,53.398773"/>
</svg>
  