<svg id="z12736" class="acjk" version="1.1" viewBox="0 0 512 512" xmlns="http://www.w3.org/2000/svg" xmlns:xlink="http://www.w3.org/1999/xlink">
<style>
<![CDATA[
@keyframes zk {
	to {
		stroke-dashoffset:0;
	}
}
svg.acjk path[clip-path] {
	--t:3s;
	animation:zk var(--t) linear forwards var(--d);
	stroke-dasharray:var(--length);
	stroke-dashoffset:var(--length);
	stroke-width:40;
	stroke-linecap:round;
	fill:none;
	stroke:#000;
}
svg.acjk path[id] {fill:#ccc;}
]]>
</style>
<path id="z12736d1" d="m 213.77606,184.30486 q 0,8.33333 8.33333,8.33333 h 86.66658 q -21.66664,-16.16665 -36.49996,-20.49998 -14.99999,-4.5 -33.49997,-4.5 -24.99998,0 -24.99998,16.66665 z m 102.66657,-10.99999 v -47.33328 h 22.33332 v 74.99992 q 0,8.33333 -16.66666,8.33333 h -99.9999 q -33.3333,0 -33.3333,-24.99998 0,-41.66662 49.99995,-41.66662 39.3333,0 77.66659,30.66663 z"/>
<defs>
	<clipPath id="z12736c1"><use xlink:href="#z12736d1"/></clipPath>
</defs>
<path style="--d:0s;--length:1000" clip-path="url(#z12736c1)" d="m 325.10429,207.31288 -124.07362,-1.57055 -4.71165,-25.12883 10.99386,-31.41105 47.11657,3.14111 72.2454,37.69325 L 252.8589,144.4908 306.25767,78.527607 328.2454,89.521472 V 229.30061"/>
</svg>
  