<svg id="z12736" class="acjk" version="1.1" viewBox="0 0 512 512" xmlns="http://www.w3.org/2000/svg" xmlns:xlink="http://www.w3.org/1999/xlink">
<style>
<![CDATA[
@keyframes zk {
	to {
		stroke-dashoffset:0;
	}
}
svg.acjk path[clip-path] {
	--t:3s;
	animation:zk var(--t) linear forwards var(--d);
	stroke-dasharray:var(--length);
	stroke-dashoffset:var(--length);
	stroke-width:40;
	stroke-linecap:round;
	fill:none;
	stroke:#000;
}
svg.acjk path[id] {fill:#ccc;}
]]>
</style>
<path id="z12736d1" d="m 204.35273,196.86932 q 0,8.33332 8.33332,8.33332 h 86.66658 q -23.99997,-14.16665 -40.16662,-19.49998 -16.33332,-5.49999 -33.16664,-5.49999 -21.66664,0 -21.66664,16.66665 z m 58.99994,-32.49997 v -0.66667 q 1.83333,-12.49999 9.99999,-18.83331 8.33332,-6.33333 22.66664,-6.33333 16.66666,0 24.99998,8.33332 8.33333,8.33333 8.33333,24.99998 0,19.16665 -10.99999,27.33331 l -0.33334,0.33333 q 11.33333,9.49999 11.33333,13.99999 0,8.33332 -16.66665,8.33332 h -99.99991 q -33.3333,0 -33.3333,-24.99997 0,-41.66663 46.66662,-41.66663 17.99998,0 37.3333,9.16666 z m 19.49998,10.66665 q 4,2.5 8.16666,5.16667 4,2.49999 7.49999,4.99999 10.83332,-1.33333 10.83332,-13.33332 0,-13.33332 -13.33332,-13.33332 -13.33332,0 -13.33332,13.33332 0,1 0.16667,3.16666 z"/>
<defs>
	<clipPath id="z12736c1"><use xlink:href="#z12736d1"/></clipPath>
</defs>
<path style="--d:0s;--length:1000" clip-path="url(#z12736c1)" d="m 314.11043,224.58896 h -111.5092 l -15.70552,-26.69939 12.56441,-29.84049 31.41105,-3.1411 87.95092,47.11656 -69.1043,-26.69939 25.12884,-29.84049 26.69938,-15.70552 26.69939,26.69939 -14.13497,23.55828 -50.25767,42.40491"/>
</svg>
  