<svg id="z12736" class="acjk" version="1.1" viewBox="0 0 512 512" xmlns="http://www.w3.org/2000/svg" xmlns:xlink="http://www.w3.org/1999/xlink">
<style>
<![CDATA[
@keyframes zk {
	to {
		stroke-dashoffset:0;
	}
}
svg.acjk path[clip-path] {
	--t:3s;
	animation:zk var(--t) linear forwards var(--d);
	stroke-dasharray:var(--length);
	stroke-dashoffset:var(--length);
	stroke-width:40;
	stroke-linecap:round;
	fill:none;
	stroke:#000;
}
svg.acjk path[id] {fill:#ccc;}
]]>
</style>
<path id="z12736d1" d="m 218.4877,190.58709 q 0,8.33332 8.33333,8.33332 h 86.66658 q -21.66664,-16.16665 -36.49996,-20.49998 -14.99999,-4.49999 -33.49997,-4.49999 -24.99998,0 -24.99998,16.66665 z m 60.99995,-35.16663 v -23.16665 h 22.33331 v 33.8333 q 9.83332,5.83333 19.33331,13.49999 v -47.33329 h 22.33332 v 74.99993 q 0,8.33333 -16.66666,8.33333 h -99.9999 q -33.3333,0 -33.3333,-24.99998 0,-41.66663 49.99995,-41.66663 18.16665,0 35.99997,6.5 z"/>
<defs>
	<clipPath id="z12736c1"><use xlink:href="#z12736d1"/></clipPath>
</defs>
<path style="--d:0s;--length:1000" clip-path="url(#z12736c1)" d="m 337.66871,218.30675 -130.35583,-6.28221 -3.1411,-28.26994 17.27607,-29.84049 23.55828,7.85276 92.66258,43.97546 53.39877,-26.69939 -40.83435,-94.233124 -62.82209,21.987734 1.57056,72.24539 51.82822,20.41718 58.11043,-1.57055 -14.13497,-120.932515 -59.68099,26.699385 6.28221,142.92025"/>
</svg>
  