<svg id="z20023" class="acjk" version="1.1" viewBox="0 0 512 512" xmlns="http://www.w3.org/2000/svg" xmlns:xlink="http://www.w3.org/1999/xlink">
<style>
<![CDATA[
@keyframes zk {
	to {
		stroke-dashoffset:0;
	}
}
svg.acjk path[clip-path] {
	--t:0.8s;
	animation:zk var(--t) linear forwards var(--d);
	stroke-dasharray:3337;
	stroke-dashoffset:3339;
	stroke-width:40;
	stroke-linecap:round;
	fill:none;
	stroke:#000;
}
svg.acjk path[id] {fill:#ccc;}
]]>
</style>
<path id="z20023d1" d="m 315.21764,503.46809 h -24.99997 v -63.83328 q -8.33333,-2.99999 -8.33333,-13.33332 0,-14.49998 16.66665,-14.49998 16.66665,0 16.66665,14.49998 z M 226.88439,49.301854 q 0,8.333325 3.33333,12.499988 3.33333,4.166662 9.99999,4.166662 6.66666,0 9.99999,-4.166662 3.33333,-4.166663 3.33333,-12.499988 0,-8.333326 -3.33333,-12.499988 -3.33333,-4.166663 -9.99999,-4.166663 -6.66666,0 -9.99999,4.166663 -3.33333,4.166662 -3.33333,12.499988 z m 50.83329,0 q 0,18.833315 -9.33333,28.166639 -9.33332,9.333325 -28.16664,9.333325 -18.83331,0 -28.16664,-9.333325 -9.33332,-9.333324 -9.33332,-28.166639 0,-18.833316 9.33332,-28.16664 9.33333,-9.333325 28.16664,-9.333325 18.83332,0 28.16664,9.333325 9.33333,9.333324 9.33333,28.16664 z"/>
<path id="z20023d2" d="m 315.21764,503.46809 h -24.99997 v -63.83328 q -8.33333,-2.99999 -8.33333,-13.33332 0,-14.49998 16.66665,-14.49998 16.66665,0 16.66665,14.49998 z M 226.88439,49.301854 q 0,8.333325 3.33333,12.499988 3.33333,4.166662 9.99999,4.166662 6.66666,0 9.99999,-4.166662 3.33333,-4.166663 3.33333,-12.499988 0,-8.333326 -3.33333,-12.499988 -3.33333,-4.166663 -9.99999,-4.166663 -6.66666,0 -9.99999,4.166663 -3.33333,4.166662 -3.33333,12.499988 z m 50.83329,0 q 0,18.833315 -9.33333,28.166639 -9.33332,9.333325 -28.16664,9.333325 -18.83331,0 -28.16664,-9.333325 -9.33332,-9.333324 -9.33332,-28.166639 0,-18.833316 9.33332,-28.16664 9.33333,-9.333325 28.16664,-9.333325 18.83332,0 28.16664,9.333325 9.33333,9.333324 9.33333,28.16664 z"/>
<defs>
	<clipPath id="z20023c1"><use xlink:href="#z20023d1"/></clipPath>
	<clipPath id="z20023c2"><use xlink:href="#z20023d2"/></clipPath>
</defs>
<path style="--d:1s;" pathLength="3333" clip-path="url(#z20023c1)" d="m 285.84049,425.61963 h 18.84663 v 94.23313"/>
<path style="--d:2s;" pathLength="3333" clip-path="url(#z20023c2)" d="m 235.58282,12.564417 -31.41104,25.128835 3.1411,29.84049 36.1227,17.276074 29.84049,-7.852761 V 29.840491 L 252.8589,18.846626 205.74233,4.7116564"/>
</svg>
  