<svg id="z12736" class="acjk" version="1.1" viewBox="0 0 512 512" xmlns="http://www.w3.org/2000/svg" xmlns:xlink="http://www.w3.org/1999/xlink">
<style>
<![CDATA[
@keyframes zk {
	to {
		stroke-dashoffset:0;
	}
}
svg.acjk path[clip-path] {
	--t:3s;
	animation:zk var(--t) linear forwards var(--d);
	stroke-dasharray:var(--length);
	stroke-dashoffset:var(--length);
	stroke-width:40;
	stroke-linecap:round;
	fill:none;
	stroke:#000;
}
svg.acjk path[id] {fill:#ccc;}
]]>
</style>
<path id="z12736d1" d="m 251.47331,385.67664 q -38.16663,0 -38.16663,-27.99997 0,-7.99999 3.16667,-18.16665 l 8.33332,-22.83331 q -13.33332,0 -13.33332,-15.16665 0,-14.99999 19.99998,-14.99999 20.49998,0 20.49998,18.99998 0,7.83333 -3.49999,18.83332 l -6.83333,19.49998 q -1.83333,5.16666 -1.83333,8.83333 0,9.49999 11.66665,9.49999 16.16665,0 26.66664,-34.16664 11.99999,-41.49996 20.99998,-41.49996 4.16667,0 4.16667,10.16666 0,13.33332 -6.33333,42.83329 -9.66666,46.16662 -45.49996,46.16662 z"/>
<defs>
	<clipPath id="z12736c1"><use xlink:href="#z12736d1"/></clipPath>
</defs>
<path style="--d:0s;--length:1000" clip-path="url(#z12736c1)" d="m 218.30675,307.82822 -12.56442,-12.56442 21.98773,-15.70552 23.55828,15.70552 -26.69938,58.11043 12.56441,26.69939 31.41105,-10.99387 18.84662,-12.56441 20.41718,-87.95092"/>
</svg>
  