<svg id="z20023" class="acjk" version="1.1" viewBox="0 0 512 512" xmlns="http://www.w3.org/2000/svg" xmlns:xlink="http://www.w3.org/1999/xlink">
<style>
<![CDATA[
@keyframes zk {
	to {
		stroke-dashoffset:0;
	}
}
svg.acjk path[clip-path] {
	--t:0.8s;
	animation:zk var(--t) linear forwards var(--d);
	stroke-dasharray:3337;
	stroke-dashoffset:3339;
	stroke-width:40;
	stroke-linecap:round;
	fill:none;
	stroke:#000;
}
svg.acjk path[id] {fill:#ccc;}
]]>
</style>
<path id="z20023d1" d="m 125.16187,368.55624 q 9.375,0 9.375,-23.4375 0,-15.625 -9.375,-15.625 z M 97.036865,241.52499 q 0,-16.5625 -31.25,-26.25 3.125,-15.78125 14.84375,-36.71875 11.875,-20.9375 20.312505,-20.9375 6.875,0 17.96875,6.71875 l 10.9375,6.71875 q 4.84375,2.96875 11.40625,2.96875 3.4375,0 7.34375,-0.78125 -1.5625,10.9375 -6.40625,17.96875 -4.6875,6.875 -12.65625,7.65625 -0.78125,0.15625 -1.5625,0.15625 -7.8125,0 -21.09375,-8.28125 -4.0625,-2.34375 -7.500005,-2.34375 -9.84375,0 -17.03125,17.96875 42.812505,13.75 42.812505,26.25 v 81.25 q 25,0 25,31.25 0,15.625 -8.28125,31.25 -8.125,15.625 -24.53125,15.625 -20.312505,0 -20.312505,-15.625 z M 287.34937,80.431244 h 78.125 q -15.15625,-12.03125 -27.8125,-15.46875 -12.65625,-3.59375 -26.875,-3.59375 -23.4375,0 -23.4375,19.0625 z m 103.4375,45.937496 q 0,-23.4375 -17.5,-23.4375 h -85.9375 q -22.5,0 -22.5,-22.499996 0,-40 45.9375,-40 17.03125,0 33.75,6.09375 v -29.53125 h 20.9375 v 15.625 l 0.15625,23.90625 q 9.0625,5.46875 17.96875,12.65625 v -44.375 h 20.9375 v 62.96875 q 14.375,11.09375 14.375,38.593746 v 328.125 q 0,39.0625 -59.375,39.0625 -59.375,0 -59.375,-39.0625 v -46.875 h 28.125 v 46.875 q 0,20.3125 31.25,20.3125 31.25,0 31.25,-20.3125 z"/>
<path id="z20023d2" d="m 125.16187,368.55624 q 9.375,0 9.375,-23.4375 0,-15.625 -9.375,-15.625 z M 97.036865,241.52499 q 0,-16.5625 -31.25,-26.25 3.125,-15.78125 14.84375,-36.71875 11.875,-20.9375 20.312505,-20.9375 6.875,0 17.96875,6.71875 l 10.9375,6.71875 q 4.84375,2.96875 11.40625,2.96875 3.4375,0 7.34375,-0.78125 -1.5625,10.9375 -6.40625,17.96875 -4.6875,6.875 -12.65625,7.65625 -0.78125,0.15625 -1.5625,0.15625 -7.8125,0 -21.09375,-8.28125 -4.0625,-2.34375 -7.500005,-2.34375 -9.84375,0 -17.03125,17.96875 42.812505,13.75 42.812505,26.25 v 81.25 q 25,0 25,31.25 0,15.625 -8.28125,31.25 -8.125,15.625 -24.53125,15.625 -20.312505,0 -20.312505,-15.625 z M 287.34937,80.431244 h 78.125 q -15.15625,-12.03125 -27.8125,-15.46875 -12.65625,-3.59375 -26.875,-3.59375 -23.4375,0 -23.4375,19.0625 z m 103.4375,45.937496 q 0,-23.4375 -17.5,-23.4375 h -85.9375 q -22.5,0 -22.5,-22.499996 0,-40 45.9375,-40 17.03125,0 33.75,6.09375 v -29.53125 h 20.9375 v 15.625 l 0.15625,23.90625 q 9.0625,5.46875 17.96875,12.65625 v -44.375 h 20.9375 v 62.96875 q 14.375,11.09375 14.375,38.593746 v 328.125 q 0,39.0625 -59.375,39.0625 -59.375,0 -59.375,-39.0625 v -46.875 h 28.125 v 46.875 q 0,20.3125 31.25,20.3125 31.25,0 31.25,-20.3125 z"/>
<defs>
	<clipPath id="z20023c1"><use xlink:href="#z20023d1"/></clipPath>
	<clipPath id="z20023c2"><use xlink:href="#z20023d2"/></clipPath>
</defs>
<path style="--d:1s;" pathLength="3333" clip-path="url(#z20023c1)" d="m 125.64417,317.25153 25.12884,9.42332 -6.28221,50.25767 -39.26381,15.70552 4.71166,-163.33743 -37.693251,-21.98773 23.558282,-39.2638 31.411039,15.70552 42.40491,1.57055"/>
<path style="--d:2s;" pathLength="3333" clip-path="url(#z20023c2)" d="m 314.11043,397.34969 1.57055,70.67485 18.84663,20.41718 h 42.40491 l 25.12883,-20.41718 6.28221,-9.42331 -4.71166,-353.37424 -40.83435,-34.552143 -42.40491,-18.846626 -40.83436,3.141104 -4.71165,36.1227 113.07975,4.711656 89.52147,54.969329 6.28221,-153.9141143 -131.92638,-4.7116564 V 133.49693 L 428.76074,158.62577 461.74233,4.7116564 394.20859,6.2822086 380.07362,152.34356"/>
</svg>
  