<svg id="z12736" class="acjk" version="1.1" viewBox="0 0 512 512" xmlns="http://www.w3.org/2000/svg" xmlns:xlink="http://www.w3.org/1999/xlink">
<style>
<![CDATA[
@keyframes zk {
	to {
		stroke-dashoffset:0;
	}
}
svg.acjk path[clip-path] {
	--t:3s;
	animation:zk var(--t) linear forwards var(--d);
	stroke-dasharray:var(--length);
	stroke-dashoffset:var(--length);
	stroke-width:40;
	stroke-linecap:round;
	fill:none;
	stroke:#000;
}
svg.acjk path[id] {fill:#ccc;}
]]>
</style>
<path id="z12736d1" d="m 274.57978,352.85879 q 9.99999,0 9.99999,-24.99998 0,-16.66665 -9.99999,-16.66665 z M 244.57981,217.35892 q 0,-17.66665 -33.3333,-27.99998 3.33333,-16.83331 15.83332,-39.16662 12.66665,-22.33332 21.66664,-22.33332 7.33333,0 19.16665,7.16666 l 11.66666,7.16666 q 5.16666,3.16667 12.16665,3.16667 3.66666,0 7.83333,-0.83334 -1.66667,11.66666 -6.83333,19.16665 -5,7.33333 -13.49999,8.16666 -0.83333,0.16667 -1.66666,0.16667 -8.33333,0 -22.49998,-8.83333 -4.33333,-2.49999 -7.99999,-2.49999 -10.49999,0 -18.16665,19.16664 45.66662,14.66666 45.66662,27.99998 v 86.66658 q 26.66664,0 26.66664,33.3333 0,16.66665 -8.83332,33.3333 -8.66666,16.66665 -26.16664,16.66665 -21.66665,0 -21.66665,-16.66665 z"/>
<defs>
	<clipPath id="z12736c1"><use xlink:href="#z12736d1"/></clipPath>
</defs>
<path style="--d:0s;--length:1000" clip-path="url(#z12736c1)" d="m 274.84663,296.83436 21.98773,14.13497 1.57055,39.2638 -18.84663,25.12883 -20.41718,-3.1411 V 204.17178 l -40.83435,-18.84663 26.69938,-45.54601 21.98774,12.56442 67.53374,17.27607"/>
</svg>
  