<svg id="z17553" class="acjk" version="1.1" viewBox="0 0 512 512" xmlns="http://www.w3.org/2000/svg" xmlns:xlink="http://www.w3.org/1999/xlink">
<style>
<![CDATA[
@keyframes zk {
	to {
		stroke-dashoffset:0;
	}
}
svg.acjk path[clip-path] {
	--t:0.8s;
	animation:zk var(--t) linear forwards var(--d);
	stroke-dasharray:3337;
	stroke-dashoffset:3339;
	stroke-width:40;
	stroke-linecap:round;
	fill:none;
	stroke:#000;
}
svg.acjk path[id] {fill:#ccc;}
]]>
</style>
<path id="z17553d1" d="m 104.80172,355.9999 q 9.99999,0 9.99999,-24.99997 0,-16.66666 -9.99999,-16.66666 z M 74.80175,220.50003 q 0,-17.66665 -33.333302,-27.99997 3.33333,-16.83332 15.833318,-39.16663 12.666655,-22.33331 21.666646,-22.33331 7.333327,0 19.166649,7.16666 l 11.666659,7.16666 q 5.16666,3.16666 12.16665,3.16666 3.66666,0 7.83333,-0.83333 -1.66667,11.66665 -6.83333,19.16665 -4.99999,7.33332 -13.49999,8.16665 -0.83333,0.16667 -1.66666,0.16667 -8.333327,0 -22.49998,-8.83332 -4.33333,-2.5 -7.999993,-2.5 -10.49999,0 -18.166649,19.16665 45.666622,14.66665 45.666622,27.99997 v 86.66658 q 26.66664,0 26.66664,33.33331 0,16.66665 -8.83332,33.3333 -8.66666,16.66665 -26.166644,16.66665 -21.666646,0 -21.666646,-16.66665 z m 337.49968,-43.66662 q 0,8.33332 3.33333,12.49998 3.33333,4.16667 9.99999,4.16667 6.66666,0 9.99999,-4.16667 3.33333,-4.16666 3.33333,-12.49998 0,-8.33333 -3.33333,-12.49999 -3.33333,-4.16666 -9.99999,-4.16666 -6.66666,0 -9.99999,4.16666 -3.33333,4.16666 -3.33333,12.49999 z m 50.83329,0 q 0,18.83331 -9.33333,28.16664 -9.33332,9.33332 -28.16664,9.33332 -18.83331,0 -28.16664,-9.33332 -9.33332,-9.33333 -9.33332,-28.16664 0,-18.83332 9.33332,-28.16664 9.33333,-9.33333 28.16664,-9.33333 18.83332,0 28.16664,9.33333 9.33333,9.33332 9.33333,28.16664 z m -50.83329,158.33318 q 0,8.33332 3.33333,12.49999 3.33333,4.16666 9.99999,4.16666 6.66666,0 9.99999,-4.16666 3.33333,-4.16667 3.33333,-12.49999 0,-8.33333 -3.33333,-12.49999 -3.33333,-4.16666 -9.99999,-4.16666 -6.66666,0 -9.99999,4.16666 -3.33333,4.16666 -3.33333,12.49999 z m 50.83329,0 q 0,18.83331 -9.33333,28.16664 -9.33332,9.33332 -28.16664,9.33332 -18.83331,0 -28.16664,-9.33332 -9.33332,-9.33333 -9.33332,-28.16664 0,-18.83332 9.33332,-28.16664 9.33333,-9.33333 28.16664,-9.33333 18.83332,0 28.16664,9.33333 9.33333,9.33332 9.33333,28.16664 z"/>
<path id="z17553d2" d="m 104.80172,355.9999 q 9.99999,0 9.99999,-24.99997 0,-16.66666 -9.99999,-16.66666 z M 74.80175,220.50003 q 0,-17.66665 -33.333302,-27.99997 3.33333,-16.83332 15.833318,-39.16663 12.666655,-22.33331 21.666646,-22.33331 7.333327,0 19.166649,7.16666 l 11.666659,7.16666 q 5.16666,3.16666 12.16665,3.16666 3.66666,0 7.83333,-0.83333 -1.66667,11.66665 -6.83333,19.16665 -4.99999,7.33332 -13.49999,8.16665 -0.83333,0.16667 -1.66666,0.16667 -8.333327,0 -22.49998,-8.83332 -4.33333,-2.5 -7.999993,-2.5 -10.49999,0 -18.166649,19.16665 45.666622,14.66665 45.666622,27.99997 v 86.66658 q 26.66664,0 26.66664,33.33331 0,16.66665 -8.83332,33.3333 -8.66666,16.66665 -26.166644,16.66665 -21.666646,0 -21.666646,-16.66665 z m 337.49968,-43.66662 q 0,8.33332 3.33333,12.49998 3.33333,4.16667 9.99999,4.16667 6.66666,0 9.99999,-4.16667 3.33333,-4.16666 3.33333,-12.49998 0,-8.33333 -3.33333,-12.49999 -3.33333,-4.16666 -9.99999,-4.16666 -6.66666,0 -9.99999,4.16666 -3.33333,4.16666 -3.33333,12.49999 z m 50.83329,0 q 0,18.83331 -9.33333,28.16664 -9.33332,9.33332 -28.16664,9.33332 -18.83331,0 -28.16664,-9.33332 -9.33332,-9.33333 -9.33332,-28.16664 0,-18.83332 9.33332,-28.16664 9.33333,-9.33333 28.16664,-9.33333 18.83332,0 28.16664,9.33333 9.33333,9.33332 9.33333,28.16664 z m -50.83329,158.33318 q 0,8.33332 3.33333,12.49999 3.33333,4.16666 9.99999,4.16666 6.66666,0 9.99999,-4.16666 3.33333,-4.16667 3.33333,-12.49999 0,-8.33333 -3.33333,-12.49999 -3.33333,-4.16666 -9.99999,-4.16666 -6.66666,0 -9.99999,4.16666 -3.33333,4.16666 -3.33333,12.49999 z m 50.83329,0 q 0,18.83331 -9.33333,28.16664 -9.33332,9.33332 -28.16664,9.33332 -18.83331,0 -28.16664,-9.33332 -9.33332,-9.33333 -9.33332,-28.16664 0,-18.83332 9.33332,-28.16664 9.33333,-9.33333 28.16664,-9.33333 18.83332,0 28.16664,9.33333 9.33333,9.33332 9.33333,28.16664 z"/>
<path id="z17553d3" d="m 104.80172,355.9999 q 9.99999,0 9.99999,-24.99997 0,-16.66666 -9.99999,-16.66666 z M 74.80175,220.50003 q 0,-17.66665 -33.333302,-27.99997 3.33333,-16.83332 15.833318,-39.16663 12.666655,-22.33331 21.666646,-22.33331 7.333327,0 19.166649,7.16666 l 11.666659,7.16666 q 5.16666,3.16666 12.16665,3.16666 3.66666,0 7.83333,-0.83333 -1.66667,11.66665 -6.83333,19.16665 -4.99999,7.33332 -13.49999,8.16665 -0.83333,0.16667 -1.66666,0.16667 -8.333327,0 -22.49998,-8.83332 -4.33333,-2.5 -7.999993,-2.5 -10.49999,0 -18.166649,19.16665 45.666622,14.66665 45.666622,27.99997 v 86.66658 q 26.66664,0 26.66664,33.33331 0,16.66665 -8.83332,33.3333 -8.66666,16.66665 -26.166644,16.66665 -21.666646,0 -21.666646,-16.66665 z m 337.49968,-43.66662 q 0,8.33332 3.33333,12.49998 3.33333,4.16667 9.99999,4.16667 6.66666,0 9.99999,-4.16667 3.33333,-4.16666 3.33333,-12.49998 0,-8.33333 -3.33333,-12.49999 -3.33333,-4.16666 -9.99999,-4.16666 -6.66666,0 -9.99999,4.16666 -3.33333,4.16666 -3.33333,12.49999 z m 50.83329,0 q 0,18.83331 -9.33333,28.16664 -9.33332,9.33332 -28.16664,9.33332 -18.83331,0 -28.16664,-9.33332 -9.33332,-9.33333 -9.33332,-28.16664 0,-18.83332 9.33332,-28.16664 9.33333,-9.33333 28.16664,-9.33333 18.83332,0 28.16664,9.33333 9.33333,9.33332 9.33333,28.16664 z m -50.83329,158.33318 q 0,8.33332 3.33333,12.49999 3.33333,4.16666 9.99999,4.16666 6.66666,0 9.99999,-4.16666 3.33333,-4.16667 3.33333,-12.49999 0,-8.33333 -3.33333,-12.49999 -3.33333,-4.16666 -9.99999,-4.16666 -6.66666,0 -9.99999,4.16666 -3.33333,4.16666 -3.33333,12.49999 z m 50.83329,0 q 0,18.83331 -9.33333,28.16664 -9.33332,9.33332 -28.16664,9.33332 -18.83331,0 -28.16664,-9.33332 -9.33332,-9.33333 -9.33332,-28.16664 0,-18.83332 9.33332,-28.16664 9.33333,-9.33333 28.16664,-9.33333 18.83332,0 28.16664,9.33333 9.33333,9.33332 9.33333,28.16664 z"/>
<defs>
	<clipPath id="z17553c1"><use xlink:href="#z17553d1"/></clipPath>
	<clipPath id="z17553c2"><use xlink:href="#z17553d2"/></clipPath>
	<clipPath id="z17553c3"><use xlink:href="#z17553d3"/></clipPath>
</defs>
<path style="--d:1s;" pathLength="3333" clip-path="url(#z17553c1)" d="m 105.22699,304.68712 23.55829,10.99386 v 43.97546 l -28.26994,25.12884 -15.705524,1.57055 9.423313,-174.33129 -47.116565,-25.12883 29.840491,-43.97546 29.840495,17.27607 h 43.97546"/>
<path style="--d:2s;" pathLength="3333" clip-path="url(#z17553c2)" d="m 427.19018,138.20859 -25.12883,26.69939 v 31.41104 l 25.12883,15.70552 23.55829,-12.56442 1.57055,-29.84049 -7.85276,-26.69938 -39.26381,-25.12884"/>
<path style="--d:3s;" pathLength="3333" clip-path="url(#z17553c3)" d="m 427.19018,303.11656 -29.84049,21.98773 1.57056,31.41105 28.26993,14.13497 25.12884,-9.42332 9.42331,-28.26993 -14.13497,-25.12884 -40.83435,-15.70552"/>
</svg>
  