<svg id="z20023" class="acjk" version="1.1" viewBox="0 0 512 512" xmlns="http://www.w3.org/2000/svg" xmlns:xlink="http://www.w3.org/1999/xlink">
<style>
<![CDATA[
@keyframes zk {
	to {
		stroke-dashoffset:0;
	}
}
svg.acjk path[clip-path] {
	--t:0.8s;
	animation:zk var(--t) linear forwards var(--d);
	stroke-dasharray:3337;
	stroke-dashoffset:3339;
	stroke-width:40;
	stroke-linecap:round;
	fill:none;
	stroke:#000;
}
svg.acjk path[id] {fill:#ccc;}
]]>
</style>
<path id="z20023d1" d="m 257.30369,406.25756 q 9.99999,0 9.99999,-24.99997 0,-16.66666 -9.99999,-16.66666 z M 227.30372,270.75769 q 0,-17.66665 -33.3333,-27.99997 3.33333,-16.83332 15.83331,-39.16663 12.66666,-22.33331 21.66665,-22.33331 7.33333,0 19.16665,7.16666 l 11.66665,7.16666 q 5.16667,3.16666 12.16666,3.16666 3.66666,0 7.83332,-0.83333 -1.66666,11.66665 -6.83332,19.16665 -5,7.33332 -13.49999,8.16665 -0.83333,0.16667 -1.66666,0.16667 -8.33333,0 -22.49998,-8.83332 -4.33333,-2.5 -8,-2.5 -10.49999,0 -18.16665,19.16665 45.66663,14.66665 45.66663,27.99997 v 86.66658 q 26.66664,0 26.66664,33.33331 0,16.66665 -8.83333,33.3333 -8.66665,16.66665 -26.16664,16.66665 -21.66664,0 -21.66664,-16.66665 z m 3.33333,-139.49987 q -9.16666,0 -9.16666,4.16667 0,4.16666 14.16665,4.16666 11.16666,0 18.16665,-7.99999 6.83333,-7.83333 6.83333,-20.33332 0,-9.16665 -5,-15.499982 -4.99999,-6.166661 -13.33332,-6.166661 -14.99998,0 -14.99998,-12.499988 0,-12.499988 14.99998,-12.499988 18.66665,0 30.99997,11.999988 12.33332,12.166655 12.33332,34.666631 0,17.49999 -11.99998,31.16664 -12.16666,13.83332 -37.99997,13.83332 -18.66665,0 -30.16664,-5.16666 -11.49998,-5.16666 -11.49998,-15.66665 0,-10.49999 4.66666,-15.66666 4.49999,-5.16666 13.66665,-5.16666 9.16666,0 13.66665,4.16667 4.66667,4.16666 4.66667,12.49998 z"/>
<path id="z20023d2" d="m 257.30369,406.25756 q 9.99999,0 9.99999,-24.99997 0,-16.66666 -9.99999,-16.66666 z M 227.30372,270.75769 q 0,-17.66665 -33.3333,-27.99997 3.33333,-16.83332 15.83331,-39.16663 12.66666,-22.33331 21.66665,-22.33331 7.33333,0 19.16665,7.16666 l 11.66665,7.16666 q 5.16667,3.16666 12.16666,3.16666 3.66666,0 7.83332,-0.83333 -1.66666,11.66665 -6.83332,19.16665 -5,7.33332 -13.49999,8.16665 -0.83333,0.16667 -1.66666,0.16667 -8.33333,0 -22.49998,-8.83332 -4.33333,-2.5 -8,-2.5 -10.49999,0 -18.16665,19.16665 45.66663,14.66665 45.66663,27.99997 v 86.66658 q 26.66664,0 26.66664,33.33331 0,16.66665 -8.83333,33.3333 -8.66665,16.66665 -26.16664,16.66665 -21.66664,0 -21.66664,-16.66665 z m 3.33333,-139.49987 q -9.16666,0 -9.16666,4.16667 0,4.16666 14.16665,4.16666 11.16666,0 18.16665,-7.99999 6.83333,-7.83333 6.83333,-20.33332 0,-9.16665 -5,-15.499982 -4.99999,-6.166661 -13.33332,-6.166661 -14.99998,0 -14.99998,-12.499988 0,-12.499988 14.99998,-12.499988 18.66665,0 30.99997,11.999988 12.33332,12.166655 12.33332,34.666631 0,17.49999 -11.99998,31.16664 -12.16666,13.83332 -37.99997,13.83332 -18.66665,0 -30.16664,-5.16666 -11.49998,-5.16666 -11.49998,-15.66665 0,-10.49999 4.66666,-15.66666 4.49999,-5.16666 13.66665,-5.16666 9.16666,0 13.66665,4.16667 4.66667,4.16666 4.66667,12.49998 z"/>
<defs>
	<clipPath id="z20023c1"><use xlink:href="#z20023d1"/></clipPath>
	<clipPath id="z20023c2"><use xlink:href="#z20023d2"/></clipPath>
</defs>
<path style="--d:1s;" pathLength="3333" clip-path="url(#z20023c1)" d="m 260.71166,353.37423 28.26994,14.13497 -10.99387,43.97546 -31.41104,17.27608 -4.71166,-168.04908 -40.83436,-23.55829 26.69939,-50.25766 20.41718,21.98773 45.54601,3.1411"/>
<path style="--d:2s;" pathLength="3333" clip-path="url(#z20023c2)" d="m 227.73006,111.5092 -21.98773,14.13497 1.57055,18.84663 32.9816,4.71165 32.98159,-15.70552 6.28221,-36.122697 L 268.56442,78.527607 216.7362,65.96319"/>
</svg>
  