<svg id="z20023" class="acjk" version="1.1" viewBox="0 0 512 512" xmlns="http://www.w3.org/2000/svg" xmlns:xlink="http://www.w3.org/1999/xlink">
<style>
<![CDATA[
@keyframes zk {
	to {
		stroke-dashoffset:0;
	}
}
svg.acjk path[clip-path] {
	--t:0.8s;
	animation:zk var(--t) linear forwards var(--d);
	stroke-dasharray:3337;
	stroke-dashoffset:3339;
	stroke-width:40;
	stroke-linecap:round;
	fill:none;
	stroke:#000;
}
svg.acjk path[id] {fill:#ccc;}
]]>
</style>
<path id="z20023d1" d="m 104.16673,355.9999 q 9.99999,0 9.99999,-24.99997 0,-16.66666 -9.99999,-16.66666 z M 74.166758,220.50003 q 0,-17.66665 -33.333302,-27.99997 3.33333,-16.83332 15.833318,-39.16663 12.666655,-22.33331 21.666646,-22.33331 7.333327,0 19.166649,7.16666 l 11.666651,7.16666 q 5.16667,3.16666 12.16666,3.16666 3.66666,0 7.83333,-0.83333 -1.66667,11.66665 -6.83333,19.16665 -5,7.33332 -13.49999,8.16665 -0.83333,0.16667 -1.66666,0.16667 -8.333329,0 -22.499982,-8.83332 -4.33333,-2.5 -7.999993,-2.5 -10.49999,0 -18.166649,19.16665 45.666624,14.66665 45.666624,27.99997 v 86.66658 q 26.66664,0 26.66664,33.33331 0,16.66665 -8.83332,33.3333 -8.66666,16.66665 -26.166646,16.66665 -21.666646,0 -21.666646,-16.66665 z M 320.66653,172.16674 q -8.16666,-7.83332 -8.16666,-17.66665 0,-6.16666 6.33332,-10.49999 18.99999,-12.99998 34.16664,-12.99998 14.83332,0 29.16664,11.16665 l 31.99997,25.16665 q 12.99998,9.83332 12.99998,25.66664 v 171.33317 q 0,16.66665 -15.66665,16.66665 -15.66665,0 -15.66665,-16.66665 V 193.00006 l -39.49996,-31.83331 q -6,-4.49999 -10.66666,-4.49999 -2.83333,0 -5.16666,1.66666 z"/>
<path id="z20023d2" d="m 104.16673,355.9999 q 9.99999,0 9.99999,-24.99997 0,-16.66666 -9.99999,-16.66666 z M 74.166758,220.50003 q 0,-17.66665 -33.333302,-27.99997 3.33333,-16.83332 15.833318,-39.16663 12.666655,-22.33331 21.666646,-22.33331 7.333327,0 19.166649,7.16666 l 11.666651,7.16666 q 5.16667,3.16666 12.16666,3.16666 3.66666,0 7.83333,-0.83333 -1.66667,11.66665 -6.83333,19.16665 -5,7.33332 -13.49999,8.16665 -0.83333,0.16667 -1.66666,0.16667 -8.333329,0 -22.499982,-8.83332 -4.33333,-2.5 -7.999993,-2.5 -10.49999,0 -18.166649,19.16665 45.666624,14.66665 45.666624,27.99997 v 86.66658 q 26.66664,0 26.66664,33.33331 0,16.66665 -8.83332,33.3333 -8.66666,16.66665 -26.166646,16.66665 -21.666646,0 -21.666646,-16.66665 z M 320.66653,172.16674 q -8.16666,-7.83332 -8.16666,-17.66665 0,-6.16666 6.33332,-10.49999 18.99999,-12.99998 34.16664,-12.99998 14.83332,0 29.16664,11.16665 l 31.99997,25.16665 q 12.99998,9.83332 12.99998,25.66664 v 171.33317 q 0,16.66665 -15.66665,16.66665 -15.66665,0 -15.66665,-16.66665 V 193.00006 l -39.49996,-31.83331 q -6,-4.49999 -10.66666,-4.49999 -2.83333,0 -5.16666,1.66666 z"/>
<defs>
	<clipPath id="z20023c1"><use xlink:href="#z20023d1"/></clipPath>
	<clipPath id="z20023c2"><use xlink:href="#z20023d2"/></clipPath>
</defs>
<path style="--d:1s;" pathLength="3333" clip-path="url(#z20023c1)" d="m 105.22699,296.83436 25.12884,10.99386 v 53.39877 l -26.69939,23.55829 -15.70552,-6.28221 -1.570552,-169.61963 -39.263804,-21.98773 28.269939,-47.11657 28.269937,20.41718 37.69325,-3.14111"/>
<path style="--d:2s;" pathLength="3333" clip-path="url(#z20023c2)" d="m 306.25767,166.47853 39.2638,-26.69939 31.41105,18.84663 37.69325,34.55214 v 202.60123"/>
</svg>
  