<svg id="z20023" class="acjk" version="1.1" viewBox="0 0 512 512" xmlns="http://www.w3.org/2000/svg" xmlns:xlink="http://www.w3.org/1999/xlink">
<style>
<![CDATA[
@keyframes zk {
	to {
		stroke-dashoffset:0;
	}
}
svg.acjk path[clip-path] {
	--t:0.8s;
	animation:zk var(--t) linear forwards var(--d);
	stroke-dasharray:3337;
	stroke-dashoffset:3339;
	stroke-width:40;
	stroke-linecap:round;
	fill:none;
	stroke:#000;
}
svg.acjk path[id] {fill:#ccc;}
]]>
</style>
<path id="z20023d1" d="m 104.16673,355.9999 q 9.99999,0 9.99999,-24.99997 0,-16.66666 -9.99999,-16.66666 z M 74.166758,220.50003 q 0,-17.66665 -33.333302,-27.99997 3.33333,-16.83332 15.833318,-39.16663 12.666655,-22.33331 21.666646,-22.33331 7.333327,0 19.166649,7.16666 l 11.666651,7.16666 q 5.16667,3.16666 12.16666,3.16666 3.66666,0 7.83333,-0.83333 -1.66667,11.66665 -6.83333,19.16665 -5,7.33332 -13.49999,8.16665 -0.83333,0.16667 -1.66666,0.16667 -8.333329,0 -22.499982,-8.83332 -4.33333,-2.5 -7.999993,-2.5 -10.49999,0 -18.166649,19.16665 45.666624,14.66665 45.666624,27.99997 v 86.66658 q 26.66664,0 26.66664,33.33331 0,16.66665 -8.83332,33.3333 -8.66666,16.66665 -26.166646,16.66665 -21.666646,0 -21.666646,-16.66665 z M 424.99976,181.00007 q 2.16666,5.49999 2.16666,11.99999 v 171.33317 q 0,16.66665 -15.66665,16.66665 -15.66665,0 -15.66665,-16.66665 V 193.00006 l -39.49996,-31.83331 q -6,-4.49999 -10.66666,-4.49999 -2.83333,0 -5.16666,1.66666 l -19.83331,13.83332 q -8.16666,-7.83332 -8.16666,-17.66665 0,-6.16666 6.33332,-10.49999 18.99999,-12.99998 34.16664,-12.99998 14.83332,0 29.16664,11.16665 l 26.33331,20.66665 V 97.666815 q 0,-16.666651 -16.66665,-16.666651 0,-16.666651 20.83331,-16.666651 27.16664,0 27.16664,33.333302 v 49.999955 q 0,12.33332 -14.83332,33.3333 z"/>
<path id="z20023d2" d="m 104.16673,355.9999 q 9.99999,0 9.99999,-24.99997 0,-16.66666 -9.99999,-16.66666 z M 74.166758,220.50003 q 0,-17.66665 -33.333302,-27.99997 3.33333,-16.83332 15.833318,-39.16663 12.666655,-22.33331 21.666646,-22.33331 7.333327,0 19.166649,7.16666 l 11.666651,7.16666 q 5.16667,3.16666 12.16666,3.16666 3.66666,0 7.83333,-0.83333 -1.66667,11.66665 -6.83333,19.16665 -5,7.33332 -13.49999,8.16665 -0.83333,0.16667 -1.66666,0.16667 -8.333329,0 -22.499982,-8.83332 -4.33333,-2.5 -7.999993,-2.5 -10.49999,0 -18.166649,19.16665 45.666624,14.66665 45.666624,27.99997 v 86.66658 q 26.66664,0 26.66664,33.33331 0,16.66665 -8.83332,33.3333 -8.66666,16.66665 -26.166646,16.66665 -21.666646,0 -21.666646,-16.66665 z M 424.99976,181.00007 q 2.16666,5.49999 2.16666,11.99999 v 171.33317 q 0,16.66665 -15.66665,16.66665 -15.66665,0 -15.66665,-16.66665 V 193.00006 l -39.49996,-31.83331 q -6,-4.49999 -10.66666,-4.49999 -2.83333,0 -5.16666,1.66666 l -19.83331,13.83332 q -8.16666,-7.83332 -8.16666,-17.66665 0,-6.16666 6.33332,-10.49999 18.99999,-12.99998 34.16664,-12.99998 14.83332,0 29.16664,11.16665 l 26.33331,20.66665 V 97.666815 q 0,-16.666651 -16.66665,-16.666651 0,-16.666651 20.83331,-16.666651 27.16664,0 27.16664,33.333302 v 49.999955 q 0,12.33332 -14.83332,33.3333 z"/>
<defs>
	<clipPath id="z20023c1"><use xlink:href="#z20023d1"/></clipPath>
	<clipPath id="z20023c2"><use xlink:href="#z20023d2"/></clipPath>
</defs>
<path style="--d:1s;" pathLength="3333" clip-path="url(#z20023c1)" d="m 103.65644,303.11656 26.69939,9.42332 -4.71166,51.82822 -37.69325,25.12883 3.141105,-177.47239 -40.834356,-25.12883 23.558282,-43.97546 32.981599,15.70552 40.83435,6.28221"/>
<path style="--d:2s;" pathLength="3333" clip-path="url(#z20023c2)" d="m 306.25767,172.76074 31.41104,-28.26994 h 23.55828 l 48.68712,51.82822 1.57055,223.0184 73.81595,-32.98159 4.71166,-370.650309 -139.77914,1.570553 25.12883,54.969325 28.26994,1.570552 25.12884,9.423313 v 78.527606 l -51.82822,48.68712"/>
</svg>
  