<svg id="z12736" class="acjk" version="1.1" viewBox="0 0 512 512" xmlns="http://www.w3.org/2000/svg" xmlns:xlink="http://www.w3.org/1999/xlink">
<style>
<![CDATA[
@keyframes zk {
	to {
		stroke-dashoffset:0;
	}
}
svg.acjk path[clip-path] {
	--t:3s;
	animation:zk var(--t) linear forwards var(--d);
	stroke-dasharray:var(--length);
	stroke-dashoffset:var(--length);
	stroke-width:40;
	stroke-linecap:round;
	fill:none;
	stroke:#000;
}
svg.acjk path[id] {fill:#ccc;}
]]>
</style>
<path id="z12736d1" d="m 236.7534,172.12174 q 0,8.33332 3.33333,12.49998 3.33333,4.16667 9.99999,4.16667 6.66666,0 9.99999,-4.16667 3.33333,-4.16666 3.33333,-12.49998 0,-8.33333 -3.33333,-12.49999 -3.33333,-4.16666 -9.99999,-4.16666 -6.66666,0 -9.99999,4.16666 -3.33333,4.16666 -3.33333,12.49999 z m 50.83329,0 q 0,18.83331 -9.33333,28.16664 -9.33332,9.33332 -28.16664,9.33332 -18.83331,0 -28.16664,-9.33332 -9.33332,-9.33333 -9.33332,-28.16664 0,-18.83332 9.33332,-28.16664 9.33333,-9.33333 28.16664,-9.33333 18.83332,0 28.16664,9.33333 9.33333,9.33332 9.33333,28.16664 z M 236.7534,330.45492 q 0,8.33332 3.33333,12.49999 3.33333,4.16666 9.99999,4.16666 6.66666,0 9.99999,-4.16666 3.33333,-4.16667 3.33333,-12.49999 0,-8.33333 -3.33333,-12.49999 -3.33333,-4.16666 -9.99999,-4.16666 -6.66666,0 -9.99999,4.16666 -3.33333,4.16666 -3.33333,12.49999 z m 50.83329,0 q 0,18.83331 -9.33333,28.16664 -9.33332,9.33332 -28.16664,9.33332 -18.83331,0 -28.16664,-9.33332 -9.33332,-9.33333 -9.33332,-28.16664 0,-18.83332 9.33332,-28.16664 9.33333,-9.33333 28.16664,-9.33333 18.83332,0 28.16664,9.33333 9.33333,9.33332 9.33333,28.16664 z"/>
<defs>
	<clipPath id="z12736c1"><use xlink:href="#z12736d1"/></clipPath>
</defs>
<path style="--d:0s;--length:1000" clip-path="url(#z12736c1)" d="m 248.14724,138.20859 -28.26994,17.27607 -3.1411,28.26994 9.42331,20.41718 28.26994,3.1411 20.41718,-6.28221 9.42331,-26.69938 -7.85276,-34.55215 -37.69325,-15.70552 -83.23927,-59.680982 -7.85276,210.453992 103.65644,-1.57056 -4.71165,29.84049 -23.55829,10.99387 -4.71165,29.84049 21.98773,17.27607 31.41104,1.57056 15.70552,-25.12884 -14.13497,-37.69325 -65.96319,-12.56442"/>
</svg>
  