<svg id="z12736" class="acjk" version="1.1" viewBox="0 0 512 512" xmlns="http://www.w3.org/2000/svg" xmlns:xlink="http://www.w3.org/1999/xlink">
<style>
<![CDATA[
@keyframes zk {
	to {
		stroke-dashoffset:0;
	}
}
svg.acjk path[clip-path] {
	--t:3s;
	animation:zk var(--t) linear forwards var(--d);
	stroke-dasharray:var(--length);
	stroke-dashoffset:var(--length);
	stroke-width:40;
	stroke-linecap:round;
	fill:none;
	stroke:#000;
}
svg.acjk path[id] {fill:#ccc;}
]]>
</style>
<path id="z12736d1" d="m 217.39772,369.38221 v 11.16665 q 8.33333,-3.16666 8.33333,-7.66665 0,-3.5 -8.33333,-3.5 z m -24.99998,-19.99998 q 0,-21.66665 18.33332,-31.66664 18.33332,-9.99999 48.33329,-9.99999 29.99997,0 48.33328,9.99999 18.33332,9.99999 18.33332,31.66664 v 49.99995 h -24.99998 v -49.99995 q 0,-13.33332 -11.99998,-19.16665 -12.16666,-5.83333 -29.66664,-5.83333 -17.49999,0 -29.49997,5.83333 -12.16666,5.83333 -12.16666,19.16665 v 3.33333 q 12.49999,0 18.83332,4.99999 6.16666,5 6.16666,14.99999 0,11.66665 -12.49999,19.16665 -12.49999,7.49999 -24.99998,7.49999 -12.49999,0 -12.49999,-12.49999 z"/>
<defs>
	<clipPath id="z12736c1"><use xlink:href="#z12736d1"/></clipPath>
</defs>
<path style="--d:0s;--length:1000" clip-path="url(#z12736c1)" d="m 219.8773,358.08589 21.98773,3.1411 -1.57055,21.98773 -37.69325,20.41718 4.71165,-73.81595 31.41105,-12.56442 h 53.39877 l 23.55828,20.41718 v 84.80982"/>
</svg>
  