<svg id="z12736" class="acjk" version="1.1" viewBox="0 0 512 512" xmlns="http://www.w3.org/2000/svg" xmlns:xlink="http://www.w3.org/1999/xlink">
<style>
<![CDATA[
@keyframes zk {
	to {
		stroke-dashoffset:0;
	}
}
svg.acjk path[clip-path] {
	--t:3s;
	animation:zk var(--t) linear forwards var(--d);
	stroke-dasharray:var(--length);
	stroke-dashoffset:var(--length);
	stroke-width:40;
	stroke-linecap:round;
	fill:none;
	stroke:#000;
}
svg.acjk path[id] {fill:#ccc;}
]]>
</style>
<path id="z12736d1" d="m 326.40374,370.88939 q 0,24.99997 -11.16666,37.49996 -11.33332,12.49999 -33.8333,12.49999 -18.83331,0 -32.8333,-5.99999 -13.99999,-6 -23.16664,-18.16665 -13.16666,-17.16665 -23.16665,-25.66665 -10.33332,-8.49999 -17.49998,-8.49999 -8.83333,0 -14.99999,3.66666 -6.16666,3.83333 -9.99999,11.33333 v -8.33333 q 0,-8.33332 6.33333,-15.83332 6.16666,-7.49999 18.66665,-7.49999 16.49998,0 31.8333,9.16666 15.33332,9.16666 29.49997,27.66664 8.16666,10.83332 17.16665,16.16665 8.66666,5.33333 18.16665,5.33333 9.99999,0 14.99999,-8.33333 4.99999,-8.33332 4.99999,-24.99997 0,-8.33333 -4.16666,-12.49999 -4.16666,-4.16666 -12.49999,-4.16666 0,-8.33333 4.16667,-12.49999 4.16666,-4.16666 12.49998,-4.16666 12.49999,0 18.83332,8.33332 6.16666,8.33333 6.16666,24.99998 z"/>
<defs>
	<clipPath id="z12736c1"><use xlink:href="#z12736d1"/></clipPath>
</defs>
<path style="--d:0s;--length:1000" clip-path="url(#z12736c1)" d="m 279.55828,340.80982 31.41105,9.42331 4.71165,34.55215 -17.27607,25.12883 h -37.69325 l -45.54602,-42.40491 -34.55214,-18.84662 -47.11657,7.85276"/>
</svg>
  