<svg id="z12736" class="acjk" version="1.1" viewBox="0 0 512 512" xmlns="http://www.w3.org/2000/svg" xmlns:xlink="http://www.w3.org/1999/xlink">
<style>
<![CDATA[
@keyframes zk {
	to {
		stroke-dashoffset:0;
	}
}
svg.acjk path[clip-path] {
	--t:3s;
	animation:zk var(--t) linear forwards var(--d);
	stroke-dasharray:var(--length);
	stroke-dashoffset:var(--length);
	stroke-width:40;
	stroke-linecap:round;
	fill:none;
	stroke:#000;
}
svg.acjk path[id] {fill:#ccc;}
]]>
</style>
<path id="z12736d1" d="m 293.96821,274.75955 q 0,-5.66666 4.16666,-8.66665 4.16666,-2.83334 12.49999,-2.83334 8.33332,0 12.49998,5.83333 4.16667,5.66666 4.16667,17.16665 v 62.66661 q 0,7.16666 -4.5,10.66666 -4.33333,3.66666 -13.33332,3.66666 l -45.99996,-24.33331 -18.83331,18.33331 q -6.33333,6 -9.83332,6 -3.5,0 -8.16666,-6.66666 l -28.33331,-39.3333 q -4.16666,-5.66666 -4.16666,-15.49998 0,-9.49999 14.66665,-11.49999 15.16665,-2 27.33331,-3 12.33332,-0.83333 22.83331,-0.83333 h 43.49996 q -4.33333,-0.16667 -6.33333,-3.16666 -2.16666,-2.83334 -2.16666,-8.5 z m 8.33332,30.33331 h -45.49996 q -9.99999,0 -19.33331,0.83333 -9.16666,0.83333 -18.33332,2.66666 l 18.33332,26.33331 23.33331,-19.33331 41.49996,17.66665 z"/>
<defs>
	<clipPath id="z12736c1"><use xlink:href="#z12736d1"/></clipPath>
</defs>
<path style="--d:0s;--length:1000" clip-path="url(#z12736c1)" d="m 299.97546,251.28834 15.70552,32.9816 v 67.53374 l -51.82822,-25.12883 -26.69939,21.98773 -40.83435,-45.54602 18.84662,-6.2822 135.06749,-4.71166"/>
</svg>
  