<svg id="z17553" class="acjk" version="1.1" viewBox="0 0 512 512" xmlns="http://www.w3.org/2000/svg" xmlns:xlink="http://www.w3.org/1999/xlink">
<style>
<![CDATA[
@keyframes zk {
	to {
		stroke-dashoffset:0;
	}
}
svg.acjk path[clip-path] {
	--t:0.8s;
	animation:zk var(--t) linear forwards var(--d);
	stroke-dasharray:3337;
	stroke-dashoffset:3339;
	stroke-width:40;
	stroke-linecap:round;
	fill:none;
	stroke:#000;
}
svg.acjk path[id] {fill:#ccc;}
]]>
</style>
<path id="z17553d1" d="m 174.73722,408.38935 q 0,-12.49999 13.33332,-12.49999 v -36.66663 q 0,-4.99999 -5,-4.99999 -8.33332,0 -8.33332,-8.33333 0,-8.33332 9.16666,-8.33332 29.16663,0 29.16663,21.66664 v 9.99999 h 83.33326 v -9.99999 q 0,-4.99999 -5,-4.99999 -8.33332,0 -8.33332,-8.33333 0,-8.33332 9.16666,-8.33332 29.16663,0 29.16663,21.66664 v 53.33328 q 0,16.66665 -12.49998,16.66665 -12.49999,0 -19.16665,-6.66666 -6.66666,-6.49999 -6.66666,-14.16665 0,-12.49999 13.33332,-12.49999 v -9.99999 h -83.33326 v 26.66664 q 0,16.66665 -12.49998,16.66665 -12.49999,0 -19.16665,-6.66666 -6.66666,-6.49999 -6.66666,-14.16665 z"/>
<path id="z17553d2" d="m 174.73722,408.38935 q 0,-12.49999 13.33332,-12.49999 v -36.66663 q 0,-4.99999 -5,-4.99999 -8.33332,0 -8.33332,-8.33333 0,-8.33332 9.16666,-8.33332 29.16663,0 29.16663,21.66664 v 9.99999 h 83.33326 v -9.99999 q 0,-4.99999 -5,-4.99999 -8.33332,0 -8.33332,-8.33333 0,-8.33332 9.16666,-8.33332 29.16663,0 29.16663,21.66664 v 53.33328 q 0,16.66665 -12.49998,16.66665 -12.49999,0 -19.16665,-6.66666 -6.66666,-6.49999 -6.66666,-14.16665 0,-12.49999 13.33332,-12.49999 v -9.99999 h -83.33326 v 26.66664 q 0,16.66665 -12.49998,16.66665 -12.49999,0 -19.16665,-6.66666 -6.66666,-6.49999 -6.66666,-14.16665 z"/>
<path id="z17553d3" d="m 174.73722,408.38935 q 0,-12.49999 13.33332,-12.49999 v -36.66663 q 0,-4.99999 -5,-4.99999 -8.33332,0 -8.33332,-8.33333 0,-8.33332 9.16666,-8.33332 29.16663,0 29.16663,21.66664 v 9.99999 h 83.33326 v -9.99999 q 0,-4.99999 -5,-4.99999 -8.33332,0 -8.33332,-8.33333 0,-8.33332 9.16666,-8.33332 29.16663,0 29.16663,21.66664 v 53.33328 q 0,16.66665 -12.49998,16.66665 -12.49999,0 -19.16665,-6.66666 -6.66666,-6.49999 -6.66666,-14.16665 0,-12.49999 13.33332,-12.49999 v -9.99999 h -83.33326 v 26.66664 q 0,16.66665 -12.49998,16.66665 -12.49999,0 -19.16665,-6.66666 -6.66666,-6.49999 -6.66666,-14.16665 z"/>
<defs>
	<clipPath id="z17553c1"><use xlink:href="#z17553d1"/></clipPath>
	<clipPath id="z17553c2"><use xlink:href="#z17553d2"/></clipPath>
	<clipPath id="z17553c3"><use xlink:href="#z17553d3"/></clipPath>
</defs>
<path style="--d:1s;" pathLength="3333" clip-path="url(#z17553c1)" d="m 180.6135,400.4908 -12.56442,15.70552 18.84663,18.84662 14.13496,-4.71165 3.14111,-76.95706 -56.53988,-32.98159"/>
<path style="--d:2s;" pathLength="3333" clip-path="url(#z17553c2)" d="m 293.69325,397.34969 -18.84662,28.26994 39.2638,20.41718 -6.28221,-103.65644 -45.54601,-28.26994"/>
<path style="--d:3s;" pathLength="3333" clip-path="url(#z17553c3)" d="m 168.04908,378.50307 v 0 l 193.17791,-4.71166"/>
</svg>
  