<svg id="z20023" class="acjk" version="1.1" viewBox="0 0 512 512" xmlns="http://www.w3.org/2000/svg" xmlns:xlink="http://www.w3.org/1999/xlink">
<style>
<![CDATA[
@keyframes zk {
	to {
		stroke-dashoffset:0;
	}
}
svg.acjk path[clip-path] {
	--t:0.8s;
	animation:zk var(--t) linear forwards var(--d);
	stroke-dasharray:3337;
	stroke-dashoffset:3339;
	stroke-width:40;
	stroke-linecap:round;
	fill:none;
	stroke:#000;
}
svg.acjk path[id] {fill:#ccc;}
]]>
</style>
<path id="z20023d1" d="m 214.25661,341.40061 16.83331,-16.66665 q 16.66666,-16.66666 24.83331,-16.66666 16.66665,0 16.66665,12.49999 0,12.49999 -16.66665,12.49999 -8.33332,0 -24.99997,16.66665 l -16.66665,16.66665 h -24.99998 v -49.99995 q 0,-21.66665 18.33332,-31.66664 18.33331,-9.99999 48.33328,-9.99999 29.99998,0 48.33329,9.99999 18.33332,9.99999 18.33332,31.66664 v 49.99995 h -24.99998 v -49.99995 q 0,-13.33332 -11.99999,-19.16665 -12.16665,-5.83333 -29.66664,-5.83333 -17.49998,0 -29.49997,5.83333 -12.16665,5.83333 -12.16665,19.16665 z"/>
<path id="z20023d2" d="m 214.25661,341.40061 16.83331,-16.66665 q 16.66666,-16.66666 24.83331,-16.66666 16.66665,0 16.66665,12.49999 0,12.49999 -16.66665,12.49999 -8.33332,0 -24.99997,16.66665 l -16.66665,16.66665 h -24.99998 v -49.99995 q 0,-21.66665 18.33332,-31.66664 18.33331,-9.99999 48.33328,-9.99999 29.99998,0 48.33329,9.99999 18.33332,9.99999 18.33332,31.66664 v 49.99995 h -24.99998 v -49.99995 q 0,-13.33332 -11.99999,-19.16665 -12.16665,-5.83333 -29.66664,-5.83333 -17.49998,0 -29.49997,5.83333 -12.16665,5.83333 -12.16665,19.16665 z"/>
<defs>
	<clipPath id="z20023c1"><use xlink:href="#z20023d1"/></clipPath>
	<clipPath id="z20023c2"><use xlink:href="#z20023d2"/></clipPath>
</defs>
<path style="--d:1s;" pathLength="3333" clip-path="url(#z20023c1)" d="M 197.88957,383.21472 202.60123,293.69325 256,279.55828 l 43.97546,9.42332 14.13497,17.27607 10.99386,89.52147"/>
<path style="--d:2s;" pathLength="3333" clip-path="url(#z20023c2)" d="m 282.69939,307.82822 -36.1227,15.70552 -51.82822,56.53988"/>
</svg>
  