<svg id="z12736" class="acjk" version="1.1" viewBox="0 0 512 512" xmlns="http://www.w3.org/2000/svg" xmlns:xlink="http://www.w3.org/1999/xlink">
<style>
<![CDATA[
@keyframes zk {
	to {
		stroke-dashoffset:0;
	}
}
svg.acjk path[clip-path] {
	--t:3s;
	animation:zk var(--t) linear forwards var(--d);
	stroke-dasharray:var(--length);
	stroke-dashoffset:var(--length);
	stroke-width:40;
	stroke-linecap:round;
	fill:none;
	stroke:#000;
}
svg.acjk path[id] {fill:#ccc;}
]]>
</style>
<path id="z12736d1" d="m 252.33325,235.16668 v 12.49999 q 8,0 8,-8.33332 0,-2 -2.16667,-3.16667 -2,-1 -5.83333,-1 z m -6.66666,145.8332 q -44.99995,0 -68.33326,-19.16665 -23.33332,-19.16665 -23.33332,-47.49996 V 139.33344 q 0,-19.33331 -24.99997,-19.33331 0,-22.333315 21.66664,-22.333315 33.33331,0 33.33331,41.666625 v 174.99983 q 0,21.33332 16.16665,31.99997 16.16665,10.66666 45.49995,10.66666 h 18.33332 q 29.33331,0 45.49996,-10.66666 16.16665,-10.66665 16.16665,-31.99997 v -133.3332 q 0,-10.66666 -7.16666,-16.49999 -1.16667,-0.83333 -2.66667,-0.83333 -8.16666,0 -26.66664,25.66664 -18.16665,-25.66664 -26.49997,-25.66664 -1.5,0 -2.66667,0.83333 -7.66666,5.83333 -7.66666,16.49999 v 37.49996 q 12.33333,0 18.49999,5.16666 6.16666,5.33333 6.16666,15.66666 0,24.99997 -24.66665,24.99997 -29.99997,0 -29.99997,-16.66665 v -66.6666 q 0,-20.33332 18.16665,-35.16663 18.16665,-14.83332 23.16665,-14.83332 4.99999,0 25.49997,28.99997 20.49998,-28.99997 25.33331,-28.99997 5,0 22.99998,14.83332 18.16665,14.83331 18.16665,35.16663 v 133.3332 q 0,28.33331 -23.33331,47.49996 -23.33331,19.16665 -68.33327,19.16665 z"/>
<defs>
	<clipPath id="z12736c1"><use xlink:href="#z12736d1"/></clipPath>
</defs>
<path style="--d:0s;--length:1000" clip-path="url(#z12736c1)" d="m 249.71779,219.8773 21.98773,6.28221 3.14111,20.41718 -9.42332,12.56441 -34.55214,1.57056 4.71165,-87.95092 31.41105,-28.26994 23.55828,36.1227 29.84049,-36.1227 23.55828,31.41104 -6.28221,166.47853 -45.54601,25.12883 -65.96319,1.57055 -43.97546,-15.70552 -14.13497,-23.55828 3.1411,-207.31288 -69.10429,-43.975463"/>
</svg>
  