<svg id="z12736" class="acjk" version="1.1" viewBox="0 0 512 512" xmlns="http://www.w3.org/2000/svg" xmlns:xlink="http://www.w3.org/1999/xlink">
<style>
<![CDATA[
@keyframes zk {
	to {
		stroke-dashoffset:0;
	}
}
svg.acjk path[clip-path] {
	--t:3s;
	animation:zk var(--t) linear forwards var(--d);
	stroke-dasharray:var(--length);
	stroke-dashoffset:var(--length);
	stroke-width:40;
	stroke-linecap:round;
	fill:none;
	stroke:#000;
}
svg.acjk path[id] {fill:#ccc;}
]]>
</style>
<path id="z12736d1" d="m 237.6666,179.00007 q 5.66666,-5.66666 5.66666,-10.99999 0,-14.66665 -12.99998,-14.66665 -12.99999,0 -12.99999,14.66665 0,7.33333 20.33331,10.99999 z m 84.66659,101.9999 q 1.66666,-1.66666 1.66666,-5.83332 0,-5.16667 -6.66666,-8.5 v 16.16665 q 3.33333,0 5,-1.83333 z m -60.83328,-97.83324 33.49997,4.33333 q 1.66667,0.33334 3.33333,0.33334 13.99999,0 13.99999,-23.49998 v -38.3333 q 0,-28.333305 26.66664,-28.333305 19.99998,0 19.99998,16.666655 -16.66665,0 -16.66665,11.66665 v 38.3333 q 0,49.99995 -37.49997,49.99995 l -64.33327,-10.83332 q -5.16666,3.33333 -11.49999,6.66666 -31.66663,11.49999 -31.66663,52.49995 v 68.33327 q 0,9.66665 13.66665,17.83331 13.66665,8.16666 31.3333,8.16666 h 68.66661 q -23.66665,-29.49997 -23.66665,-42.66663 v -33.3333 q 0,-33.3333 20.99998,-33.3333 12.33332,0 19.83332,4.16666 7.66665,4 10.83332,11.49999 3.33333,7.33333 3.33333,16.83332 0,9.16666 -5.83333,17.49998 -5.83333,8.33333 -19.16665,8.33333 v 8.33332 q 0,16.83332 24.99998,45.83329 v 20.83332 h -99.99991 q -33.3333,0 -54.16661,-16.66665 -20.83331,-16.66665 -20.83331,-33.3333 v -68.33327 q 0,-46.66662 44.33329,-67.83327 -16.66665,-9.16666 -16.66665,-26.83331 0,-36.99996 35.3333,-36.99996 35.33329,0 35.33329,36.99996 0,7.83333 -4.16666,15.16665 z"/>
<defs>
	<clipPath id="z12736c1"><use xlink:href="#z12736d1"/></clipPath>
</defs>
<path style="--d:0s;--length:1000" clip-path="url(#z12736c1)" d="m 304.68712,296.83436 24.34356,-3.92638 12.56441,-18.06135 -10.99386,-19.63191 h -11.77914 -16.4908 l -3.14111,60.46626 33.76688,55.7546 -73.03068,-0.78527 -47.90184,-4.71166 -23.55828,-18.84663 -9.42332,-29.05521 3.14111,-70.67485 15.70552,-32.19632 21.98773,-14.92024 39.2638,-26.69939 -1.57055,-25.12883 -14.13497,-7.85276 -23.55828,-3.14111 -18.84663,14.92025 1.57056,23.55828 38.47852,15.70552 58.89571,10.20859 21.20245,-2.35583 12.56442,-39.2638 -4.71165,-42.40491 32.19631,-25.914109"/>
</svg>
  