<svg id="z12736" class="acjk" version="1.1" viewBox="0 0 512 512" xmlns="http://www.w3.org/2000/svg" xmlns:xlink="http://www.w3.org/1999/xlink">
<style>
<![CDATA[
@keyframes zk {
	to {
		stroke-dashoffset:0;
	}
}
svg.acjk path[clip-path] {
	--t:3s;
	animation:zk var(--t) linear forwards var(--d);
	stroke-dasharray:var(--length);
	stroke-dashoffset:var(--length);
	stroke-width:40;
	stroke-linecap:round;
	fill:none;
	stroke:#000;
}
svg.acjk path[id] {fill:#ccc;}
]]>
</style>
<path id="z12736d1" d="m 197.33331,153.50009 q 22.99997,-22.49997 58.49994,-22.49997 41.99996,0 64.16661,26.3333 22.33331,26.16665 22.33331,90.33325 v 33.3333 q 0,47.49996 -22.33331,73.83327 -22.16665,26.16664 -64.99994,26.16664 -47.99996,0 -67.83327,-23.66665 -19.83331,-23.83331 -19.83331,-54.66661 0,-25.49998 15.16665,-40.16663 11.66665,-14.83332 41.83329,-14.83332 21.49998,0 32.16664,9.83333 10.83332,9.66665 10.83332,32.49996 0,16.66666 -16.66665,16.66666 -16.66665,0 -16.66665,-16.66666 0,-9.33332 5.16666,-13.33332 -4.66666,-6.66666 -14.83332,-6.66666 -26.99997,0 -26.99997,32.66664 0,23.83331 12.66665,39.16663 12.66666,15.16665 44.99996,15.16665 27.16664,0 42.16662,-17.66665 15.16666,-17.83332 15.16666,-58.33328 v -33.3333 q 0,-57.16661 -15.16666,-74.83326 -14.99998,-17.83332 -41.33329,-17.83332 -38.16663,0 -58.49994,42.66663 0,16.66665 -15.99999,16.66665 -13.99998,0 -13.99998,-16.66665 v -66.6666 q 0,-19.33332 -24.99998,-19.33332 0,-22.333311 21.66665,-22.333311 33.3333,0 33.3333,41.666631 z"/>
<defs>
	<clipPath id="z12736c1"><use xlink:href="#z12736d1"/></clipPath>
</defs>
<path style="--d:0s;--length:1000" clip-path="url(#z12736c1)" d="m 243.43558,294.47853 10.99387,-7.06749 -4.71166,-21.98773 -27.48466,-7.85276 -32.9816,10.20859 -8.63803,45.54601 18.06135,39.26381 28.26994,11.77914 39.2638,4.71165 42.40491,-20.41717 20.41718,-41.61964 -2.35583,-79.31288 -9.42332,-58.11043 -34.55214,-27.48466 -51.82822,-0.78528 -36.90798,31.41105 -15.70552,18.84662 4.71166,-65.96319 -4.71166,-23.55828 -58.11043,-10.208589"/>
</svg>
  