<?xml version="1.0" encoding="UTF-8"?><svg xmlns="http://www.w3.org/2000/svg" xmlns:xlink="http://www.w3.org/1999/xlink" viewBox="0 0 750 500"><defs><radialGradient id="radial-gradient" cx="398.12" cy="-187.4" fx="398.12" fy="-187.4" r="728.47" gradientUnits="userSpaceOnUse"><stop offset="0" stop-color="#622ca7"/><stop offset="1" stop-color="#19244f"/></radialGradient><linearGradient id="linear-gradient" x1="86.37" y1="133.83" x2="86.37" y2="61.61" gradientTransform="translate(95.84 -31.85) rotate(45)" gradientUnits="userSpaceOnUse"><stop offset="0" stop-color="#43466e"/><stop offset="1" stop-color="#585e81"/></linearGradient><linearGradient id="linear-gradient-2" x1="86.79" y1="118.65" x2="86.79" y2="85.35" gradientUnits="userSpaceOnUse"><stop offset="0" stop-color="#21cf46"/><stop offset="1" stop-color="#67ff7d"/></linearGradient><linearGradient id="linear-gradient-3" x1="86.79" y1="118.65" x2="86.79" y2="85.35" gradientUnits="userSpaceOnUse"><stop offset="0" stop-color="#189934"/><stop offset="1" stop-color="#67ff7d"/></linearGradient><linearGradient id="linear-gradient-4" x1="86.79" y1="117.05" x2="86.79" y2="83.75" gradientUnits="userSpaceOnUse"><stop offset="0" stop-color="#bdf8c7"/><stop offset="1" stop-color="#d9ffde"/></linearGradient><linearGradient id="linear-gradient-5" x1="86.79" y1="116" x2="86.79" y2="84.81" xlink:href="#linear-gradient-2"/><linearGradient id="linear-gradient-6" x1="177.54" x2="177.54" gradientTransform="translate(122.55 -96.32) rotate(45)" xlink:href="#linear-gradient"/><linearGradient id="linear-gradient-7" x1="228.06" y1="185.38" x2="228.06" y2="152.08" gradientTransform="translate(136.13 -178.04) rotate(45)" gradientUnits="userSpaceOnUse"><stop offset="0" stop-color="#d92348"/><stop offset="1" stop-color="#ff476a"/></linearGradient><linearGradient id="linear-gradient-8" x1="226.74" y1="184.05" x2="226.74" y2="150.75" gradientTransform="translate(136.13 -178.04) rotate(45)" gradientUnits="userSpaceOnUse"><stop offset="0" stop-color="#fd859b"/><stop offset="1" stop-color="#ff8aa0"/></linearGradient><linearGradient id="linear-gradient-9" x1="178.05" y1="117.04" x2="178.05" y2="84.51" gradientTransform="matrix(1,0,0,1,0,0)" xlink:href="#linear-gradient-7"/><linearGradient id="linear-gradient-10" x1="268.7" x2="268.7" gradientTransform="translate(49.94 -85.43) rotate(19.88)" xlink:href="#linear-gradient"/><linearGradient id="linear-gradient-11" x1="269.62" y1="115.88" x2="269.62" y2="78.72" gradientUnits="userSpaceOnUse"><stop offset="0" stop-color="#fa6b49"/><stop offset="1" stop-color="#feb749"/></linearGradient><linearGradient id="linear-gradient-12" x1="269.62" y1="114.28" x2="269.62" y2="77.12" gradientUnits="userSpaceOnUse"><stop offset="0" stop-color="#fde049"/><stop offset="1" stop-color="#fefe49"/></linearGradient><linearGradient id="linear-gradient-13" x1="269.62" y1="113.29" x2="269.62" y2="78.66" xlink:href="#linear-gradient-11"/><linearGradient id="linear-gradient-14" y1="229.77" y2="157.54" gradientTransform="matrix(1,0,0,1,0,0)" xlink:href="#linear-gradient"/><linearGradient id="linear-gradient-15" x1="78.5" y1="213.05" x2="78.5" y2="177.98" gradientTransform="translate(-118.92 275.93) rotate(-90)" xlink:href="#linear-gradient-7"/><linearGradient id="linear-gradient-16" x1="78.5" y1="211.66" x2="78.5" y2="176.59" gradientTransform="translate(-117.53 274.54) rotate(-90)" xlink:href="#linear-gradient-8"/><linearGradient id="linear-gradient-17" x1="78.5" y1="210.58" x2="78.5" y2="177.93" gradientTransform="matrix(1,0,0,1,0,0)" xlink:href="#linear-gradient-7"/><linearGradient id="linear-gradient-18" x1="94.14" y1="213.05" x2="94.14" y2="177.98" gradientTransform="translate(-103.28 291.57) rotate(-90)" xlink:href="#linear-gradient-7"/><linearGradient id="linear-gradient-19" x1="94.14" y1="211.66" x2="94.14" y2="176.59" gradientTransform="translate(-101.89 290.18) rotate(-90)" xlink:href="#linear-gradient-8"/><linearGradient id="linear-gradient-20" x1="94.14" y1="210.58" x2="94.14" y2="177.93" gradientTransform="matrix(1,0,0,1,0,0)" xlink:href="#linear-gradient-7"/><linearGradient id="linear-gradient-21" x1="177.54" y1="229.77" x2="177.54" y2="157.54" gradientTransform="matrix(1,0,0,1,0,0)" xlink:href="#linear-gradient"/><linearGradient id="linear-gradient-22" x1="178.42" y1="210.91" x2="182.24" y2="181.71" xlink:href="#linear-gradient-3"/><linearGradient id="linear-gradient-23" x1="178.42" y1="209.03" x2="182.24" y2="179.83" xlink:href="#linear-gradient-4"/><linearGradient id="linear-gradient-24" x1="178.54" y1="208.16" x2="182.08" y2="181.04" xlink:href="#linear-gradient-2"/><linearGradient id="linear-gradient-25" x1="268.7" y1="229.77" x2="268.7" y2="157.54" gradientTransform="matrix(1,0,0,1,0,0)" xlink:href="#linear-gradient"/><linearGradient id="linear-gradient-26" x1="269.74" y1="211.68" x2="269.74" y2="165.53" xlink:href="#linear-gradient-3"/><linearGradient id="linear-gradient-27" x1="269.74" y1="217.32" x2="269.74" y2="181.61" xlink:href="#linear-gradient-4"/><linearGradient id="linear-gradient-28" x1="269.74" y1="215.76" x2="269.74" y2="182.93" xlink:href="#linear-gradient-3"/><linearGradient id="linear-gradient-29" x1="262.34" y1="200.6" x2="262.34" y2="193.55" xlink:href="#linear-gradient-4"/><linearGradient id="linear-gradient-30" x1="133.47" y1="137.34" x2="202.06" y2="137.34" gradientTransform="translate(-50.97 465.55) rotate(-90)" xlink:href="#linear-gradient"/><linearGradient id="linear-gradient-31" x1="82.01" y1="311.45" x2="90.67" y2="286.04" xlink:href="#linear-gradient-11"/><linearGradient id="linear-gradient-32" x1="82.01" y1="310.13" x2="90.67" y2="284.72" xlink:href="#linear-gradient-12"/><linearGradient id="linear-gradient-33" x1="82.38" y1="309.06" x2="90.25" y2="285.97" xlink:href="#linear-gradient-11"/><linearGradient id="linear-gradient-34" x1="133.47" y1="228.5" x2="202.06" y2="228.5" gradientTransform="translate(-50.97 465.55) rotate(-90)" xlink:href="#linear-gradient"/><linearGradient id="linear-gradient-35" x1="178.48" y1="309" x2="178.48" y2="285.8" xlink:href="#linear-gradient-2"/><linearGradient id="linear-gradient-36" x1="178.48" y1="292.76" x2="178.48" y2="323.74" gradientUnits="userSpaceOnUse"><stop offset="0" stop-color="#219a90"/><stop offset="1" stop-color="#67ff7d"/></linearGradient><linearGradient id="linear-gradient-37" x1="178.48" y1="309" x2="178.48" y2="285.8" xlink:href="#linear-gradient-4"/><linearGradient id="linear-gradient-38" x1="133.47" y1="319.67" x2="202.06" y2="319.67" gradientTransform="translate(-50.97 465.55) rotate(-90)" xlink:href="#linear-gradient"/><linearGradient id="linear-gradient-39" x1="272.06" y1="315.35" x2="266.73" y2="288.04" gradientUnits="userSpaceOnUse"><stop offset="0" stop-color="#3d2c98"/><stop offset="1" stop-color="#dc93fd"/></linearGradient><linearGradient id="linear-gradient-40" x1="271.77" y1="313.88" x2="266.9" y2="288.9" gradientUnits="userSpaceOnUse"><stop offset="0" stop-color="#3d2c98"/><stop offset="1" stop-color="#c548fd"/></linearGradient><linearGradient id="linear-gradient-41" x1="274.42" y1="299.17" x2="272.91" y2="291.43" gradientUnits="userSpaceOnUse"><stop offset="0" stop-color="#ff47ff"/><stop offset="1" stop-color="#d9ffde"/></linearGradient><linearGradient id="linear-gradient-42" x1="269.71" y1="315.1" x2="267.68" y2="280.03" gradientUnits="userSpaceOnUse"><stop offset="0" stop-color="#2e1d8c"/><stop offset="1" stop-color="#c548fd"/></linearGradient><linearGradient id="linear-gradient-43" x1="55.97" y1="380.29" x2="300.08" y2="380.29" gradientTransform="matrix(1,0,0,1,0,0)" xlink:href="#linear-gradient"/><linearGradient id="linear-gradient-44" x1="178.02" y1="405.35" x2="178.02" y2="381.08" gradientUnits="userSpaceOnUse"><stop offset="0" stop-color="#06290e"/><stop offset="1" stop-color="#29c43f"/></linearGradient><linearGradient id="linear-gradient-45" x1="178.02" y1="385.84" x2="178.02" y2="371.63" xlink:href="#linear-gradient-2"/><linearGradient id="linear-gradient-46" x1="55.97" y1="432.08" x2="300.08" y2="432.08" gradientTransform="matrix(1,0,0,1,0,0)" xlink:href="#linear-gradient"/><linearGradient id="linear-gradient-47" x1="103.56" y1="439.56" x2="103.56" y2="433.13" gradientUnits="userSpaceOnUse"><stop offset="0" stop-color="#8a172e"/><stop offset="1" stop-color="#ff476a"/></linearGradient><linearGradient id="linear-gradient-48" x1="103.56" y1="437.63" x2="103.56" y2="423.42" gradientUnits="userSpaceOnUse"><stop offset="0" stop-color="#d92348"/><stop offset="1" stop-color="#ff6381"/></linearGradient><linearGradient id="linear-gradient-49" x1="610.33" y1="258.16" x2="610.33" y2="63.55" gradientTransform="matrix(1,0,0,1,0,0)" xlink:href="#linear-gradient"/><linearGradient id="linear-gradient-50" x1="610.33" y1="128.49" x2="610.33" y2="61.75" gradientUnits="userSpaceOnUse"><stop offset="0" stop-color="#b2f1e8"/><stop offset="1" stop-color="#f7ffec"/></linearGradient><linearGradient id="linear-gradient-51" x1="610.51" y1="125.15" x2="610.51" y2="64.58" gradientUnits="userSpaceOnUse"><stop offset="0" stop-color="#7dc9e1"/><stop offset="1" stop-color="#f7ffec"/></linearGradient><linearGradient id="linear-gradient-52" x1="597.45" y1="150.58" x2="597.28" y2="137.44" xlink:href="#linear-gradient-48"/><linearGradient id="linear-gradient-53" x1="574.04" y1="186.02" x2="573.88" y2="173.55" gradientUnits="userSpaceOnUse"><stop offset="0" stop-color="#2a4ebf"/><stop offset="1" stop-color="#47c8fe"/></linearGradient><linearGradient id="linear-gradient-54" x1="586.45" y1="222.46" x2="586.28" y2="209.63" gradientUnits="userSpaceOnUse"><stop offset="0" stop-color="#3d2c98"/><stop offset=".01" stop-color="#3e2c99"/><stop offset=".35" stop-color="#7838c3"/><stop offset=".64" stop-color="#a140e2"/><stop offset=".86" stop-color="#bb46f5"/><stop offset="1" stop-color="#c548fd"/></linearGradient><linearGradient id="linear-gradient-55" x1="165.82" y1="711.68" x2="234.41" y2="711.68" gradientTransform="translate(-50.97 465.55) rotate(-90)" xlink:href="#linear-gradient"/><linearGradient id="linear-gradient-56" x1="660.71" y1="294.6" x2="660.71" y2="229.81" xlink:href="#linear-gradient-4"/><linearGradient id="linear-gradient-57" x1="660.71" y1="292.49" x2="660.71" y2="232.4" xlink:href="#linear-gradient-2"/><linearGradient id="linear-gradient-58" x1="620.79" y1="362.06" x2="620.79" y2="304" gradientTransform="translate(286.34 955.24) rotate(-90)" xlink:href="#linear-gradient-11"/><linearGradient id="linear-gradient-59" x1="620.79" y1="357.89" x2="620.79" y2="299.83" gradientTransform="translate(290.52 951.07) rotate(-90)" xlink:href="#linear-gradient-12"/><linearGradient id="linear-gradient-60" x1="620.79" y1="354.41" x2="620.79" y2="303.66" xlink:href="#linear-gradient-11"/><linearGradient id="linear-gradient-61" x1="620.79" y1="354.41" x2="620.79" y2="303.66" gradientUnits="userSpaceOnUse"><stop offset="0" stop-color="#eb5634"/><stop offset="1" stop-color="#feb749"/></linearGradient><linearGradient id="linear-gradient-62" x1="620.99" y1="357.35" x2="620.99" y2="336.6" gradientUnits="userSpaceOnUse"><stop offset="0" stop-color="#d64f2f"/><stop offset="1" stop-color="#feb749"/></linearGradient><linearGradient id="linear-gradient-63" x1="577.85" y1="343.22" x2="577.85" y2="297.07" xlink:href="#linear-gradient-3"/><linearGradient id="linear-gradient-64" x1="577.85" y1="348.86" x2="577.85" y2="313.16" xlink:href="#linear-gradient-4"/><linearGradient id="linear-gradient-65" x1="577.85" y1="347.31" x2="577.85" y2="314.47" xlink:href="#linear-gradient-3"/><linearGradient id="linear-gradient-66" x1="570.44" y1="332.15" x2="570.44" y2="325.09" xlink:href="#linear-gradient-4"/><linearGradient id="linear-gradient-67" x1="620.79" y1="343.22" x2="620.79" y2="297.07" xlink:href="#linear-gradient-3"/><linearGradient id="linear-gradient-68" x1="620.79" y1="348.86" x2="620.79" y2="313.16" xlink:href="#linear-gradient-4"/><linearGradient id="linear-gradient-69" x1="620.8" y1="347.31" x2="620.8" y2="314.47" xlink:href="#linear-gradient-3"/><linearGradient id="linear-gradient-70" x1="613.39" y1="332.15" x2="613.39" y2="325.09" xlink:href="#linear-gradient-4"/><linearGradient id="linear-gradient-71" x1="662.91" y1="329.31" x2="662.91" y2="345.97" gradientUnits="userSpaceOnUse"><stop offset="0" stop-color="#914736"/><stop offset="1" stop-color="#feb749"/></linearGradient><linearGradient id="linear-gradient-72" x1="621.01" y1="466.06" x2="621.01" y2="344.49" gradientTransform="matrix(1,0,0,1,0,0)" xlink:href="#linear-gradient"/><linearGradient id="linear-gradient-73" x1="611.59" y1="434.62" x2="611.59" y2="420.19" xlink:href="#linear-gradient-11"/><linearGradient id="linear-gradient-74" x1="611.59" y1="434" x2="611.59" y2="419.57" xlink:href="#linear-gradient-12"/><linearGradient id="linear-gradient-75" x1="611.59" y1="433.62" x2="611.59" y2="420.17" xlink:href="#linear-gradient-11"/><linearGradient id="linear-gradient-76" x1="628.14" y1="434.62" x2="628.14" y2="420.19" xlink:href="#linear-gradient-11"/><linearGradient id="linear-gradient-77" x1="628.14" y1="434" x2="628.14" y2="419.57" xlink:href="#linear-gradient-12"/><linearGradient id="linear-gradient-78" x1="628.14" y1="433.62" x2="628.14" y2="420.17" xlink:href="#linear-gradient-11"/><linearGradient id="linear-gradient-79" x1="644.54" y1="434.62" x2="644.54" y2="420.19" xlink:href="#linear-gradient-11"/><linearGradient id="linear-gradient-80" x1="644.54" y1="434" x2="644.54" y2="419.57" xlink:href="#linear-gradient-12"/><linearGradient id="linear-gradient-81" x1="644.54" y1="433.62" x2="644.54" y2="420.17" xlink:href="#linear-gradient-11"/><linearGradient id="linear-gradient-82" x1="661.06" y1="434.62" x2="661.06" y2="420.19" gradientUnits="userSpaceOnUse"><stop offset="0" stop-color="#929292"/><stop offset="1" stop-color="silver"/></linearGradient><linearGradient id="linear-gradient-83" x1="661.06" y1="434" x2="661.06" y2="419.57" gradientUnits="userSpaceOnUse"><stop offset="0" stop-color="#d8d8d8"/><stop offset="1" stop-color="#eaeaea"/></linearGradient><linearGradient id="linear-gradient-84" x1="661.06" y1="433.62" x2="661.06" y2="420.17" xlink:href="#linear-gradient-82"/><linearGradient id="linear-gradient-85" x1="677.58" x2="677.58" xlink:href="#linear-gradient-82"/><linearGradient id="linear-gradient-86" x1="677.58" x2="677.58" xlink:href="#linear-gradient-83"/><linearGradient id="linear-gradient-87" x1="677.58" y1="433.62" x2="677.58" y2="420.17" xlink:href="#linear-gradient-82"/><linearGradient id="linear-gradient-88" x1="576.93" y1="431.2" x2="576.93" y2="388.37" gradientUnits="userSpaceOnUse"><stop offset="0" stop-color="#7bf1e0"/><stop offset="1" stop-color="#f7ffec"/></linearGradient><linearGradient id="linear-gradient-89" x1="576.93" y1="429.62" x2="576.93" y2="403.1" xlink:href="#linear-gradient-2"/><linearGradient id="linear-gradient-90" x1="570.89" y1="429.57" x2="570.89" y2="403.15" xlink:href="#linear-gradient-3"/><linearGradient id="linear-gradient-91" x1="576.92" y1="417.9" x2="576.92" y2="412.59" xlink:href="#linear-gradient-50"/><linearGradient id="linear-gradient-92" x1="576.92" y1="417.66" x2="576.92" y2="412.83" xlink:href="#linear-gradient-2"/><linearGradient id="linear-gradient-93" x1="580.1" y1="416.95" x2="580.1" y2="414.7" xlink:href="#linear-gradient-50"/><linearGradient id="linear-gradient-94" x1="575.71" y1="416.85" x2="575.71" y2="415.85" xlink:href="#linear-gradient-50"/></defs><g style="isolation:isolate;"><g id="Background"><rect x="9.22" y="8.57" width="750" height="500" style="fill:url(#radial-gradient);"/></g><g id="Objects"><circle cx="86.37" cy="104.5" r="31.42" transform="translate(-48.59 91.68) rotate(-45)" style="fill:#464866; stroke:#464866; stroke-miterlimit:10; stroke-width:1.08px;"/><circle cx="86.37" cy="99.77" r="31.42" transform="translate(-45.25 90.3) rotate(-45)" style="fill:url(#linear-gradient); stroke:#6e78b3; stroke-miterlimit:10; stroke-width:2.55px;"/><path d="m83.85,119.13c-2.71,0-4.92-2.2-4.92-4.91v-4.3h-4.29c-2.71,0-4.92-2.2-4.92-4.91v-5.88c0-2.71,2.21-4.92,4.92-4.92h4.29v-4.29c0-2.71,2.21-4.92,4.92-4.92h5.88c2.71,0,4.92,2.21,4.92,4.92v4.29h4.29c2.71,0,4.91,2.21,4.91,4.92v5.88c0,2.71-2.2,4.91-4.91,4.91h-4.29v4.3c0,2.71-2.21,4.91-4.92,4.91h-5.88Z" style="fill:url(#linear-gradient-2);"/><path d="m83.85,119.13c-2.71,0-4.92-2.2-4.92-4.91v-4.3h-4.29c-2.71,0-4.92-2.2-4.92-4.91v-5.88c0-2.71,2.21-4.92,4.92-4.92h4.29v-4.29c0-2.71,2.21-4.92,4.92-4.92h5.88c2.71,0,4.92,2.21,4.92,4.92v4.29h4.29c2.71,0,4.91,2.21,4.91,4.92v5.88c0,2.71-2.2,4.91-4.91,4.91h-4.29v4.3c0,2.71-2.21,4.91-4.92,4.91h-5.88Z" style="fill:url(#linear-gradient-3);"/><path d="m83.85,117.53c-2.71,0-4.92-2.2-4.92-4.91v-4.29h-4.29c-2.71,0-4.92-2.2-4.92-4.91v-5.88c0-2.71,2.21-4.92,4.92-4.92h4.29v-4.29c0-2.71,2.21-4.92,4.92-4.92h5.88c2.71,0,4.92,2.21,4.92,4.92v4.29h4.29c2.71,0,4.91,2.21,4.91,4.92v5.88c0,2.71-2.2,4.91-4.91,4.91h-4.29v4.29c0,2.71-2.21,4.91-4.92,4.91h-5.88Z" style="fill:url(#linear-gradient-4);"/><path d="m98.94,93.68h-5.37v-5.37c0-2.12-1.72-3.84-3.84-3.84h-5.88c-2.12,0-3.84,1.72-3.84,3.84v5.37h-5.37c-2.12,0-3.84,1.72-3.84,3.84v5.88c0,2.12,1.72,3.84,3.84,3.84h5.37v5.37c0,2.12,1.72,3.84,3.84,3.84h5.88c2.12,0,3.84-1.72,3.84-3.84v-5.37h5.37c2.12,0,3.84-1.72,3.84-3.84v-5.88c0-2.12-1.72-3.84-3.84-3.84Z" style="fill:url(#linear-gradient-5);"/><circle cx="177.54" cy="104.5" r="31.42" transform="translate(-21.89 156.14) rotate(-45)" style="fill:#464866; stroke:#464866; stroke-miterlimit:10; stroke-width:1.08px;"/><circle cx="177.54" cy="99.77" r="31.42" transform="translate(-18.55 154.76) rotate(-45)" style="fill:url(#linear-gradient-6); stroke:#6e78b3; stroke-miterlimit:10; stroke-width:2.55px;"/><path d="m163.9,112.56c-1.92-1.92-1.92-5.03,0-6.95l3.04-3.04-3.04-3.04c-1.92-1.92-1.92-5.03,0-6.95l4.16-4.16c1.92-1.92,5.03-1.92,6.95,0l3.04,3.04,3.04-3.04c1.92-1.92,5.03-1.92,6.95,0l4.16,4.16c1.92,1.92,1.92,5.03,0,6.95l-3.04,3.04,3.04,3.04c1.92,1.92,1.92,5.03,0,6.95l-4.16,4.16c-1.92,1.92-5.03,1.92-6.95,0l-3.04-3.04-3.04,3.04c-1.92,1.92-5.03,1.92-6.95,0l-4.16-4.16Z" style="fill:url(#linear-gradient-7);"/><path d="m163.9,110.68c-1.92-1.92-1.92-5.03,0-6.95l3.04-3.04-3.04-3.04c-1.92-1.92-1.92-5.03,0-6.95l4.16-4.16c1.92-1.92,5.03-1.92,6.95,0l3.04,3.04,3.04-3.04c1.92-1.92,5.03-1.92,6.95,0l4.16,4.16c1.92,1.92,1.92,5.03,0,6.95l-3.04,3.04,3.04,3.04c1.92,1.92,1.92,5.03,0,6.95l-4.16,4.16c-1.92,1.92-5.03,1.92-6.95,0l-3.04-3.04-3.04,3.04c-1.92,1.92-5.03,1.92-6.95,0l-4.16-4.16Z" style="fill:url(#linear-gradient-8);"/><path d="m191.43,104.5l-3.8-3.8,3.8-3.8c1.5-1.5,1.5-3.93,0-5.43l-4.16-4.16c-1.5-1.5-3.93-1.5-5.43,0l-3.8,3.8-3.8-3.8c-1.5-1.5-3.93-1.5-5.43,0l-4.16,4.16c-1.5,1.5-1.5,3.93,0,5.43l3.8,3.8-3.8,3.8c-1.5,1.5-1.5,3.93,0,5.43l4.16,4.16c1.5,1.5,3.93,1.5,5.43,0l3.8-3.8,3.8,3.8c1.5,1.5,3.93,1.5,5.43,0l4.16-4.16c1.5-1.5,1.5-3.93,0-5.43Z" style="fill:url(#linear-gradient-9);"/><circle cx="268.7" cy="104.5" r="31.42" transform="translate(-19.52 97.6) rotate(-19.88)" style="fill:#464866; stroke:#464866; stroke-miterlimit:10; stroke-width:1.08px;"/><circle cx="268.7" cy="99.77" r="31.42" transform="translate(-17.91 97.32) rotate(-19.88)" style="fill:url(#linear-gradient-10); stroke:#6e78b3; stroke-miterlimit:10; stroke-width:2.55px;"/><path d="m276.64,117.11c-.81,0-1.6-.2-2.33-.59l-4.68-2.46-4.68,2.46c-.74.39-1.52.59-2.33.59-1.48,0-2.88-.66-3.85-1.8-.96-1.14-1.35-2.58-1.09-4.07l.89-5.21-3.79-3.69c-1.38-1.34-1.86-3.31-1.27-5.14.59-1.83,2.15-3.14,4.05-3.41l5.23-.76,2.34-4.74c.85-1.72,2.57-2.8,4.5-2.8s3.65,1.07,4.5,2.8l2.34,4.74,5.24.76c1.9.28,3.45,1.58,4.05,3.41.59,1.83.11,3.8-1.27,5.14l-3.79,3.69.89,5.21c.25,1.48-.13,2.93-1.09,4.07-.97,1.15-2.37,1.8-3.85,1.81Z" style="fill:url(#linear-gradient-11);"/><path d="m276.64,115.51c-.81,0-1.6-.2-2.33-.59l-4.68-2.46-4.68,2.46c-.74.39-1.52.59-2.33.59-1.48,0-2.88-.66-3.85-1.8-.96-1.14-1.35-2.58-1.09-4.07l.89-5.21-3.79-3.69c-1.38-1.34-1.86-3.31-1.27-5.14.59-1.83,2.15-3.14,4.05-3.41l5.23-.76,2.34-4.74c.85-1.72,2.57-2.8,4.5-2.8s3.65,1.07,4.5,2.8l2.34,4.74,5.24.76c1.9.28,3.45,1.58,4.05,3.41.59,1.83.11,3.8-1.27,5.14l-3.79,3.69.89,5.21c.25,1.48-.13,2.93-1.09,4.07-.97,1.15-2.37,1.8-3.85,1.81Z" style="fill:url(#linear-gradient-12);"/><path d="m273.15,87.15l2.59,5.25,5.8.84c3.23.47,4.52,4.44,2.18,6.72l-4.19,4.09.99,5.77c.55,3.22-2.82,5.67-5.71,4.15l-5.18-2.73-5.18,2.73c-2.89,1.52-6.26-.93-5.71-4.15l.99-5.77-4.19-4.09c-2.34-2.28-1.05-6.25,2.18-6.72l5.8-.84,2.59-5.25c1.44-2.93,5.62-2.93,7.06,0Z" style="fill:url(#linear-gradient-13);"/><path d="m277.27,95.21c0,1-.81,1.81-1.81,1.81s-1.81-.81-1.81-1.81.81-1.81,1.81-1.81,1.81.81,1.81,1.81Z" style="fill:#fff;"/><path d="m278.1,98.06c0,.33-.26.59-.59.59s-.59-.26-.59-.59.26-.59.59-.59.59.26.59.59Z" style="fill:#fff;"/><circle cx="86.37" cy="200.43" r="31.42" style="fill:#464866; stroke:#464866; stroke-miterlimit:10; stroke-width:1.08px;"/><circle cx="86.37" cy="195.7" r="31.42" style="fill:url(#linear-gradient-14); stroke:#6e78b3; stroke-miterlimit:10; stroke-width:2.55px;"/><rect x="62.88" y="191.34" width="31.25" height="12.17" rx="5.14" ry="5.14" transform="translate(275.93 118.92) rotate(90)" style="fill:url(#linear-gradient-15);"/><path d="m68.02,189.95h20.96c2.84,0,5.14,2.31,5.14,5.14v1.88c0,2.84-2.3,5.14-5.14,5.14h-20.96c-2.84,0-5.14-2.3-5.14-5.14v-1.88c0-2.84,2.31-5.14,5.14-5.14Z" transform="translate(274.54 117.53) rotate(90)" style="fill:url(#linear-gradient-16);"/><rect x="73.5" y="181.49" width="10.01" height="29.09" rx="4.07" ry="4.07" style="fill:url(#linear-gradient-17);"/><path d="m83.66,191.34h20.96c2.84,0,5.14,2.31,5.14,5.14v1.88c0,2.84-2.31,5.14-5.14,5.14h-20.96c-2.84,0-5.14-2.3-5.14-5.14v-1.88c0-2.84,2.31-5.14,5.14-5.14Z" transform="translate(291.57 103.28) rotate(90)" style="fill:url(#linear-gradient-18);"/><path d="m83.66,189.95h20.96c2.84,0,5.14,2.31,5.14,5.14v1.88c0,2.84-2.31,5.14-5.14,5.14h-20.96c-2.84,0-5.14-2.3-5.14-5.14v-1.88c0-2.84,2.31-5.14,5.14-5.14Z" transform="translate(290.18 101.89) rotate(90)" style="fill:url(#linear-gradient-19);"/><rect x="89.14" y="181.49" width="10.01" height="29.09" rx="4.07" ry="4.07" style="fill:url(#linear-gradient-20);"/><circle cx="177.54" cy="200.43" r="31.42" style="fill:#464866; stroke:#464866; stroke-miterlimit:10; stroke-width:1.08px;"/><circle cx="177.54" cy="195.7" r="31.42" style="fill:url(#linear-gradient-21); stroke:#6e78b3; stroke-miterlimit:10; stroke-width:2.55px;"/><path d="m172.25,212.77c-2.89,0-5.25-2.35-5.25-5.25v-19.76c0-2.89,2.35-5.25,5.25-5.25.91,0,1.81.25,2.61.71l17.12,9.88c1.64.95,2.62,2.64,2.62,4.54s-.98,3.59-2.62,4.54l-17.12,9.88c-.8.46-1.71.71-2.61.71Z" style="fill:url(#linear-gradient-22);"/><path d="m172.25,210.89c-2.89,0-5.25-2.35-5.25-5.25v-19.76c0-2.89,2.35-5.25,5.25-5.25.91,0,1.81.25,2.61.71l17.12,9.88c1.64.95,2.62,2.64,2.62,4.54s-.98,3.59-2.62,4.54l-17.12,9.88c-.8.46-1.71.71-2.61.71Z" style="fill:url(#linear-gradient-23);"/><path d="m191.44,192.16c2.78,1.6,2.78,5.61,0,7.21l-8.56,4.94-8.56,4.94c-2.78,1.6-6.25-.4-6.25-3.61v-19.76c0-3.21,3.47-5.21,6.25-3.61l8.56,4.94,8.56,4.94Z" style="fill:url(#linear-gradient-24);"/><circle cx="268.7" cy="200.43" r="31.42" style="fill:#464866; stroke:#464866; stroke-miterlimit:10; stroke-width:1.08px;"/><circle cx="268.7" cy="195.7" r="31.42" style="fill:url(#linear-gradient-25); stroke:#6e78b3; stroke-miterlimit:10; stroke-width:2.55px;"/><path d="m265.8,212.87c-1.13,0-2.23-.41-3.08-1.16-.17-.15-.33-.31-.48-.49l-8.15-9.64c-2.15-2.55-1.83-6.37.72-8.52,1.09-.92,2.47-1.43,3.9-1.43,1.79,0,3.47.78,4.62,2.14.24.29.47.62.67.96l2.98,5.37,13.54-12.99c.7-.67,1.62-1.04,2.59-1.04,1.03,0,1.99.41,2.7,1.15,1.32,1.38,1.38,3.59.12,5.04l-16.58,18.99c-.89,1.02-2.18,1.61-3.53,1.61h0Z" style="fill:url(#linear-gradient-26);"/><path d="m265.8,211.36c-1.13,0-2.23-.41-3.08-1.16-.17-.15-.33-.31-.48-.49l-8.15-9.64c-2.15-2.55-1.83-6.37.72-8.52,1.09-.92,2.47-1.43,3.9-1.43,1.79,0,3.47.78,4.62,2.14.24.29.47.62.67.96l2.98,5.37,13.54-12.99c.7-.67,1.62-1.04,2.59-1.04,1.03,0,1.99.41,2.7,1.15,1.32,1.38,1.38,3.59.12,5.04l-16.58,18.99c-.89,1.02-2.18,1.61-3.53,1.61h0Z" style="fill:url(#linear-gradient-27);"/><path d="m285.01,186.47c-1.02-1.06-2.7-1.09-3.76-.08l-14.55,13.95-3.65-6.59c-.15-.27-.34-.55-.55-.8-1.77-2.1-4.91-2.36-7-.59-2.1,1.77-2.36,4.91-.59,7l7.78,9.21.37.43c.11.13.24.26.37.37,1.5,1.31,3.78,1.16,5.1-.35l16.57-18.98c.89-1.03.87-2.59-.08-3.59Z" style="fill:url(#linear-gradient-28);"/><path d="m263.85,200.6c-.36,0-.71-.18-.92-.51l-3.02-4.9c-.31-.51-.16-1.17.35-1.48.51-.31,1.17-.16,1.48.35l3.02,4.9c.31.51.16,1.17-.35,1.48-.18.11-.37.16-.56.16Z" style="fill:url(#linear-gradient-29); mix-blend-mode:overlay; opacity:.52;"/><path d="m55.48,285.08v25.41c0,3.17,1.69,6.11,4.44,7.69l22.01,12.71c2.75,1.59,6.13,1.59,8.88,0l22.01-12.71c2.75-1.59,4.44-4.52,4.44-7.69v-25.41c0-3.17-1.69-6.11-4.44-7.69l-22.01-12.71c-2.75-1.59-6.13-1.59-8.88,0l-22.01,12.71c-2.75,1.59-4.44,4.52-4.44,7.69Z" style="fill:url(#linear-gradient-30); stroke:#6e78b3; stroke-miterlimit:10; stroke-width:2.65px;"/><path d="m63.09,288.2v19.16c0,2.39,1.28,4.6,3.35,5.8l16.59,9.58c2.07,1.2,4.62,1.2,6.7,0l16.59-9.58c2.07-1.2,3.35-3.41,3.35-5.8v-19.16c0-2.39-1.28-4.6-3.35-5.8l-16.59-9.58c-2.07-1.2-4.62-1.2-6.7,0l-16.59,9.58c-2.07,1.2-3.35,3.41-3.35,5.8Z" style="fill:#282844;"/><path d="m76.3,308.44c-1.14,0-2.11-.82-2.3-1.95l-1.67-10c-.11-.68.07-1.36.51-1.88.45-.53,1.1-.83,1.79-.83.51,0,1,.17,1.41.48l2.8,2.14,5.65-7.63c.44-.6,1.13-.94,1.87-.94s1.43.34,1.87.94l5.65,7.63,2.8-2.14c.41-.32.9-.48,1.41-.48.69,0,1.34.3,1.79.84.44.52.63,1.2.51,1.88l-1.67,10c-.19,1.13-1.16,1.95-2.3,1.95h-20.15Z" style="fill:url(#linear-gradient-31);"/><path d="m76.3,307.12c-1.14,0-2.11-.82-2.3-1.95l-1.67-10c-.11-.68.07-1.36.51-1.88.45-.53,1.1-.83,1.79-.83.51,0,1,.17,1.41.48l2.8,2.14,5.65-7.63c.44-.6,1.13-.94,1.87-.94s1.43.34,1.87.94l5.65,7.63,2.8-2.14c.41-.32.9-.48,1.41-.48.69,0,1.34.3,1.79.84.44.52.63,1.2.51,1.88l-1.67,10c-.19,1.13-1.16,1.95-2.3,1.95h-20.15Z" style="fill:url(#linear-gradient-32);"/><path d="m93.69,296.56l-6.29-8.49c-.51-.69-1.55-.69-2.06,0l-6.29,8.49-3.64-2.79c-.92-.71-2.23.08-2.04,1.23l1.67,10c.1.62.64,1.07,1.26,1.07h20.15c.63,0,1.16-.45,1.26-1.07l1.67-10c.19-1.15-1.12-1.94-2.04-1.23l-3.64,2.79Z" style="fill:url(#linear-gradient-33);"/><path d="m146.65,285.08v25.41c0,3.17,1.69,6.11,4.44,7.69l22.01,12.71c2.75,1.59,6.13,1.59,8.88,0l22.01-12.71c2.75-1.59,4.44-4.52,4.44-7.69v-25.41c0-3.17-1.69-6.11-4.44-7.69l-22.01-12.71c-2.75-1.59-6.13-1.59-8.88,0l-22.01,12.71c-2.75,1.59-4.44,4.52-4.44,7.69Z" style="fill:url(#linear-gradient-34); stroke:#6e78b3; stroke-miterlimit:10; stroke-width:2.65px;"/><path d="m154.25,288.2v19.16c0,2.39,1.28,4.6,3.35,5.8l16.59,9.58c2.07,1.2,4.62,1.2,6.7,0l16.59-9.58c2.07-1.2,3.35-3.41,3.35-5.8v-19.16c0-2.39-1.28-4.6-3.35-5.8l-16.59-9.58c-2.07-1.2-4.62-1.2-6.7,0l-16.59,9.58c-2.07,1.2-3.35,3.41-3.35,5.8Z" style="fill:#282844;"/><polygon points="186.88 289.53 178.48 289.53 170.09 289.53 164.13 295.48 178.48 309.07 192.83 295.48 186.88 289.53" style="fill:url(#linear-gradient-35);"/><polygon points="192.83 295.48 164.13 295.48 178.48 309.07 192.83 295.48" style="fill:url(#linear-gradient-36);"/><polygon points="181.74 289.53 178.48 289.53 175.22 289.53 172.91 295.48 178.48 309.07 184.06 295.48 181.74 289.53" style="fill:url(#linear-gradient-37); mix-blend-mode:overlay; opacity:.52;"/><path d="m237.81,285.08v25.41c0,3.17,1.69,6.11,4.44,7.69l22.01,12.71c2.75,1.59,6.13,1.59,8.88,0l22.01-12.71c2.75-1.59,4.44-4.52,4.44-7.69v-25.41c0-3.17-1.69-6.11-4.44-7.69l-22.01-12.71c-2.75-1.59-6.13-1.59-8.88,0l-22.01,12.71c-2.75,1.59-4.44,4.52-4.44,7.69Z" style="fill:url(#linear-gradient-38); stroke:#6e78b3; stroke-miterlimit:10; stroke-width:2.65px;"/><path d="m245.41,288.2v19.16c0,2.39,1.28,4.6,3.35,5.8l16.59,9.58c2.07,1.2,4.62,1.2,6.7,0l16.59-9.58c2.07-1.2,3.35-3.41,3.35-5.8v-19.16c0-2.39-1.28-4.6-3.35-5.8l-16.59-9.58c-2.07-1.2-4.62-1.2-6.7,0l-16.59,9.58c-2.07,1.2-3.35,3.41-3.35,5.8Z" style="fill:#282844;"/><path d="m268.7,310.46c-6.8,0-12.32-5.53-12.32-12.32s5.53-12.32,12.32-12.32,12.32,5.53,12.32,12.32-5.53,12.32-12.32,12.32Z" style="fill:url(#linear-gradient-39);"/><circle cx="268.7" cy="298.13" r="11.27" style="fill:url(#linear-gradient-40);"/><circle cx="273.47" cy="294.29" r="3.49" style="fill:url(#linear-gradient-41); mix-blend-mode:overlay; opacity:.52;"/><path d="m279.98,298.13c0-.63-.06-1.25-.16-1.85-.48,3.78-2.41,6.91-6.98,8.06-8.31,2.09-12.87-1.26-15.28-4.64.77,5.48,5.46,9.7,11.15,9.7,6.23,0,11.27-5.05,11.27-11.27Z" style="fill:url(#linear-gradient-42);"/><path d="m72.03,364.23h211.99c8.86,0,16.06,7.2,16.06,16.06h0c0,8.86-7.2,16.06-16.06,16.06H72.03c-8.86,0-16.06-7.2-16.06-16.06h0c0-8.86,7.2-16.06,16.06-16.06Z" style="fill:url(#linear-gradient-43); stroke:#6e78b3; stroke-miterlimit:10; stroke-width:2.65px;"/><path d="m79.29,390.3c-5.22,0-9.46-4.24-9.46-9.46s4.24-9.46,9.46-9.46h197.47c5.22,0,9.46,4.24,9.46,9.46s-4.24,9.46-9.46,9.46H79.29Z" style="fill:#282844;"/><path d="m276.76,387.27H79.29c-3.55,0-6.43-2.88-6.43-6.43h0c0-3.55,2.88-6.43,6.43-6.43h197.47c3.55,0,6.43,2.88,6.43,6.43h0c0,3.55-2.88,6.43-6.43,6.43Z" style="fill:#282844;"/><path d="m276.76,387.27H79.29c-3.55,0-6.43-2.88-6.43-6.43h0c0-3.55,2.88-6.43,6.43-6.43h197.47c3.55,0,6.43,2.88,6.43,6.43h0c0,3.55-2.88,6.43-6.43,6.43Z" style="fill:url(#linear-gradient-44);"/><path d="m277.51,385.77H78.54c-3.14,0-5.68-2.54-5.68-5.68h0c0-3.14,2.54-5.68,5.68-5.68h198.97c3.14,0,5.68,2.54,5.68,5.68h0c0,3.14-2.54,5.68-5.68,5.68Z" style="fill:url(#linear-gradient-45);"/><path d="m284.02,448.14H72.03c-8.87,0-16.06-7.19-16.06-16.06h0c0-8.87,7.19-16.06,16.06-16.06h211.99c8.87,0,16.06,7.19,16.06,16.06h0c0,8.87-7.19,16.06-16.06,16.06Z" style="fill:url(#linear-gradient-46); stroke:#6e78b3; stroke-miterlimit:10; stroke-width:2.65px;"/><path d="m79.29,442.09c-5.22,0-9.46-4.24-9.46-9.46s4.24-9.46,9.46-9.46h197.47c5.22,0,9.46,4.24,9.46,9.46s-4.24,9.46-9.46,9.46H79.29Z" style="fill:#282844;"/><path d="m79.29,426.2h48.55c3.55,0,6.43,2.88,6.43,6.43h0c0,3.55-2.88,6.43-6.43,6.43h-48.55c-3.55,0-6.43-2.88-6.43-6.43h0c0-3.55,2.88-6.43,6.43-6.43Z" style="fill:#282844;"/><path d="m79.29,426.2h48.55c3.55,0,6.43,2.88,6.43,6.43h0c0,3.55-2.88,6.43-6.43,6.43h-48.55c-3.55,0-6.43-2.88-6.43-6.43h0c0-3.55,2.88-6.43,6.43-6.43Z" style="fill:url(#linear-gradient-47);"/><path d="m128.58,437.56h-50.04c-3.14,0-5.68-2.54-5.68-5.68h0c0-3.14,2.54-5.68,5.68-5.68h50.04c3.14,0,5.68,2.54,5.68,5.68h0c0,3.14-2.54,5.68-5.68,5.68Z" style="fill:url(#linear-gradient-48);"/><rect x="533.96" y="101.11" width="152.74" height="176.98" rx="19.68" ry="19.68" style="fill:#464866; stroke:#464866; stroke-miterlimit:10; stroke-width:1.08px;"/><rect x="533.96" y="96.86" width="152.74" height="176.98" rx="19.68" ry="19.68" style="fill:url(#linear-gradient-49); stroke:#6e78b3; stroke-miterlimit:10; stroke-width:2.55px;"/><path d="m553.97,92.46l5.06,15.76c.91,2.83,3.54,4.75,6.51,4.75h89.57c2.97,0,5.6-1.92,6.51-4.75l5.06-15.76c1.42-4.41-1.88-8.93-6.51-8.93h-99.69c-4.64,0-7.93,4.51-6.51,8.93Z" style="fill:url(#linear-gradient-50);"/><path d="m559.57,101.55l1.67,5.21c.82,2.57,3.21,4.31,5.91,4.31h86.7c2.7,0,5.09-1.74,5.91-4.31l1.67-5.21h-101.87Z" style="fill:url(#linear-gradient-51);"/><path d="m595.66,93.07h3.4c3.06,0,5.55,2.49,5.55,5.55v90.08c0,3.06-2.49,5.55-5.55,5.55h-3.4c-3.06,0-5.55-2.49-5.55-5.55v-90.08c0-3.06,2.49-5.55,5.55-5.55Z" transform="translate(741.02 -453.7) rotate(90)" style="fill:#282844;"/><rect x="548.8" y="138.43" width="97.13" height="10.45" rx="3.52" ry="3.52" style="fill:url(#linear-gradient-52);"/><path d="m595.66,128.86h3.4c3.06,0,5.55,2.49,5.55,5.55v90.08c0,3.06-2.49,5.55-5.55,5.55h-3.4c-3.06,0-5.55-2.49-5.55-5.55v-90.08c0-3.06,2.49-5.55,5.55-5.55Z" transform="translate(776.81 -417.91) rotate(90)" style="fill:#282844;"/><rect x="548.8" y="174.22" width="50.33" height="10.45" rx="3.52" ry="3.52" style="fill:url(#linear-gradient-53);"/><path d="m595.66,165.11h3.4c3.06,0,5.55,2.49,5.55,5.55v90.08c0,3.06-2.49,5.55-5.55,5.55h-3.4c-3.06,0-5.55-2.49-5.55-5.55v-90.08c0-3.06,2.49-5.55,5.55-5.55Z" transform="translate(813.06 -381.66) rotate(90)" style="fill:#282844;"/><rect x="548.8" y="210.47" width="75.13" height="10.45" rx="3.53" ry="3.53" style="fill:url(#linear-gradient-54);"/><path d="m629.82,252.73v25.41c0,3.17,1.69,6.11,4.44,7.69l22.01,12.71c2.75,1.59,6.13,1.59,8.88,0l22.01-12.71c2.75-1.59,4.44-4.52,4.44-7.69v-25.41c0-3.17-1.69-6.11-4.44-7.69l-22.01-12.71c-2.75-1.59-6.13-1.59-8.88,0l-22.01,12.71c-2.75,1.59-4.44,4.52-4.44,7.69Z" style="fill:url(#linear-gradient-55); stroke:#6e78b3; stroke-miterlimit:10; stroke-width:2.65px;"/><path d="m660.71,293.31c-1.53,0-3.04-.4-4.36-1.17l-16.59-9.58c-2.69-1.55-4.36-4.45-4.36-7.55v-19.16c0-3.11,1.67-6,4.36-7.55l16.59-9.58c1.32-.76,2.83-1.17,4.36-1.17s3.04.4,4.36,1.17l16.59,9.58c2.69,1.55,4.36,4.45,4.36,7.55v19.16c0,3.11-1.67,6-4.36,7.55l-16.59,9.58c-1.32.76-2.83,1.17-4.36,1.17Z" style="fill:url(#linear-gradient-56);"/><path d="m637.42,255.86v19.16c0,2.39,1.28,4.6,3.35,5.8l16.59,9.58c2.07,1.2,4.62,1.2,6.7,0l16.59-9.58c2.07-1.2,3.35-3.41,3.35-5.8v-19.16c0-2.39-1.28-4.6-3.35-5.8l-16.59-9.58c-2.07-1.2-4.62-1.2-6.7,0l-16.59,9.58c-2.07,1.2-3.35,3.41-3.35,5.8Z" style="fill:url(#linear-gradient-57);"/><rect x="596.69" y="258.18" width="48.21" height="152.55" rx="14.42" ry="14.42" transform="translate(955.24 -286.34) rotate(90)" style="fill:url(#linear-gradient-58);"/><rect x="596.69" y="254" width="48.21" height="152.55" rx="14.42" ry="14.42" transform="translate(951.07 -290.52) rotate(90)" style="fill:url(#linear-gradient-59);"/><rect x="547.56" y="309.2" width="146.48" height="42.14" rx="11.39" ry="11.39" style="fill:url(#linear-gradient-60);"/><path d="m547.56,333.75v6.2c0,6.29,5.1,11.39,11.39,11.39h123.7c6.29,0,11.39-5.1,11.39-11.39v-6.2h-146.48Z" style="fill:url(#linear-gradient-61);"/><rect x="574.58" y="354.38" width="92.82" height="4.18" style="fill:url(#linear-gradient-62);"/><path d="m573.91,344.42c-1.13,0-2.23-.41-3.08-1.16-.17-.15-.33-.31-.48-.49l-8.15-9.64c-2.15-2.55-1.83-6.37.72-8.52,1.09-.92,2.48-1.43,3.9-1.43,1.79,0,3.47.78,4.62,2.14.24.29.47.62.67.96l2.98,5.37,13.54-12.99c.7-.67,1.62-1.04,2.59-1.04,1.03,0,1.99.41,2.7,1.15,1.32,1.38,1.38,3.59.12,5.04l-16.58,18.99c-.89,1.02-2.18,1.61-3.53,1.61h0Z" style="fill:url(#linear-gradient-63);"/><path d="m573.91,342.91c-1.13,0-2.23-.41-3.08-1.16-.17-.15-.33-.31-.48-.49l-8.15-9.64c-2.15-2.55-1.83-6.37.72-8.52,1.09-.92,2.48-1.43,3.9-1.43,1.79,0,3.47.78,4.62,2.14.24.29.47.62.67.96l2.98,5.37,13.54-12.99c.7-.67,1.62-1.04,2.59-1.04,1.03,0,1.99.41,2.7,1.15,1.32,1.38,1.38,3.59.12,5.04l-16.58,18.99c-.89,1.02-2.18,1.61-3.53,1.61h0Z" style="fill:url(#linear-gradient-64);"/><path d="m593.12,318.02c-1.02-1.06-2.7-1.09-3.76-.08l-14.55,13.95-3.65-6.59c-.15-.27-.34-.55-.55-.8-1.77-2.1-4.91-2.36-7-.59-2.1,1.77-2.36,4.91-.59,7l7.78,9.21.37.43c.11.13.24.26.37.37,1.5,1.31,3.78,1.16,5.1-.35l16.57-18.98c.89-1.03.87-2.59-.08-3.59Z" style="fill:url(#linear-gradient-65);"/><path d="m571.96,332.15c-.36,0-.71-.18-.92-.51l-3.02-4.9c-.31-.51-.16-1.17.35-1.48.51-.31,1.17-.16,1.48.35l3.02,4.9c.31.51.16,1.17-.35,1.48-.18.11-.37.16-.56.16Z" style="fill:url(#linear-gradient-66); mix-blend-mode:overlay; opacity:.52;"/><path d="m616.85,344.42c-1.13,0-2.23-.41-3.08-1.16-.17-.15-.33-.31-.48-.49l-8.15-9.64c-2.15-2.55-1.83-6.37.72-8.52,1.09-.92,2.48-1.43,3.9-1.43,1.79,0,3.47.78,4.62,2.14.24.29.47.62.67.96l2.98,5.37,13.54-12.99c.7-.67,1.62-1.04,2.59-1.04,1.03,0,1.99.41,2.7,1.15,1.32,1.38,1.38,3.59.12,5.04l-16.58,18.99c-.89,1.02-2.18,1.61-3.53,1.61h0Z" style="fill:url(#linear-gradient-67);"/><path d="m616.85,342.91c-1.13,0-2.23-.41-3.08-1.16-.17-.15-.33-.31-.48-.49l-8.15-9.64c-2.15-2.55-1.83-6.37.72-8.52,1.09-.92,2.48-1.43,3.9-1.43,1.79,0,3.47.78,4.62,2.14.24.29.47.62.67.96l2.98,5.37,13.54-12.99c.7-.67,1.62-1.04,2.59-1.04,1.03,0,1.99.41,2.7,1.15,1.32,1.38,1.38,3.59.12,5.04l-16.58,18.99c-.89,1.02-2.18,1.61-3.53,1.61h0Z" style="fill:url(#linear-gradient-68);"/><path d="m636.06,318.02c-1.02-1.06-2.7-1.09-3.76-.08l-14.55,13.95-3.65-6.59c-.15-.27-.34-.55-.55-.8-1.77-2.1-4.91-2.36-7-.59-2.1,1.77-2.36,4.91-.59,7l7.78,9.21.37.43c.11.13.24.26.37.37,1.5,1.31,3.78,1.16,5.1-.35l16.57-18.98c.89-1.03.87-2.59-.08-3.59Z" style="fill:url(#linear-gradient-69);"/><path d="m614.9,332.15c-.36,0-.71-.18-.92-.51l-3.02-4.9c-.31-.51-.16-1.17.35-1.48.51-.31,1.17-.16,1.48.35l3.02,4.9c.31.51.16,1.17-.35,1.48-.18.11-.37.16-.56.16Z" style="fill:url(#linear-gradient-70); mix-blend-mode:overlay; opacity:.52;"/><path d="m658.98,343.92c-1.38,0-2.71-.5-3.75-1.41-.21-.18-.4-.38-.58-.59l-8.15-9.65c-1.22-1.44-1.8-3.27-1.64-5.15.16-1.88,1.04-3.59,2.48-4.8,1.27-1.08,2.89-1.67,4.55-1.67,2.08,0,4.05.91,5.39,2.5.28.33.55.72.77,1.12l2.34,4.23,12.59-12.08c.89-.85,2.06-1.32,3.29-1.32,1.31,0,2.52.52,3.43,1.46,1.68,1.75,1.75,4.57.15,6.4l-16.58,18.99c-1.08,1.24-2.65,1.95-4.3,1.95Z" style="fill:url(#linear-gradient-71);"/><path d="m658.98,342.91c-1.13,0-2.23-.41-3.08-1.16-.17-.15-.33-.31-.48-.49l-8.15-9.64c-2.15-2.55-1.83-6.37.72-8.52,1.09-.92,2.48-1.43,3.9-1.43,1.79,0,3.47.78,4.62,2.14.24.29.47.62.67.96l2.98,5.37,13.54-12.99c.7-.67,1.62-1.04,2.59-1.04,1.03,0,1.99.41,2.7,1.15,1.32,1.38,1.38,3.59.12,5.04l-16.58,18.99c-.89,1.02-2.18,1.61-3.53,1.61h0Z" style="fill:#7a4633;"/><rect x="547.56" y="380.84" width="146.91" height="67.08" rx="11.59" ry="11.59" style="fill:url(#linear-gradient-72); stroke:#6e78b3; stroke-miterlimit:10; stroke-width:2.55px;"/><rect x="552.33" y="393.33" width="50.32" height="40.88" rx="9.69" ry="9.69" transform="translate(991.26 -163.71) rotate(90)" style="fill:#393961;"/><rect x="559.07" y="390.64" width="36.84" height="46.28" rx="7.67" ry="7.67" style="fill:#282844;"/><path d="m614.31,435.1c-.31,0-.62-.08-.91-.23l-1.82-.96-1.82.96c-.29.15-.59.23-.91.23-.57,0-1.12-.26-1.49-.7-.37-.44-.52-1-.42-1.58l.35-2.03-1.47-1.43c-.53-.52-.72-1.29-.49-2,.23-.71.83-1.22,1.57-1.33l2.03-.3.91-1.84c.33-.67,1-1.09,1.75-1.09s1.42.42,1.75,1.09l.91,1.84,2.03.3c.74.11,1.34.62,1.57,1.33.23.71.04,1.48-.49,2l-1.47,1.43.35,2.03c.1.58-.05,1.14-.42,1.58-.38.45-.92.7-1.49.7Z" style="fill:url(#linear-gradient-73);"/><path d="m614.31,434.48c-.31,0-.62-.08-.91-.23l-1.82-.96-1.82.96c-.29.15-.59.23-.91.23-.57,0-1.12-.26-1.49-.7-.37-.44-.52-1-.42-1.58l.35-2.03-1.47-1.43c-.53-.52-.72-1.29-.49-2,.23-.71.83-1.22,1.57-1.33l2.03-.3.91-1.84c.33-.67,1-1.09,1.75-1.09s1.42.42,1.75,1.09l.91,1.84,2.03.3c.74.11,1.34.62,1.57,1.33.23.71.04,1.48-.49,2l-1.47,1.43.35,2.03c.1.58-.05,1.14-.42,1.58-.38.45-.92.7-1.49.7Z" style="fill:url(#linear-gradient-74);"/><path d="m612.96,423.46l1.01,2.04,2.25.33c1.25.18,1.76,1.72.85,2.61l-1.63,1.59.38,2.24c.21,1.25-1.1,2.2-2.22,1.61l-2.01-1.06-2.01,1.06c-1.12.59-2.43-.36-2.22-1.61l.38-2.24-1.63-1.59c-.91-.88-.41-2.43.85-2.61l2.25-.33,1.01-2.04c.56-1.14,2.18-1.14,2.74,0Z" style="fill:url(#linear-gradient-75);"/><path d="m614.56,426.6c0,.39-.31.7-.7.7s-.7-.31-.7-.7.31-.7.7-.7.7.31.7.7Z" style="fill:#fff;"/><path d="m614.88,427.7c0,.13-.1.23-.23.23s-.23-.1-.23-.23.1-.23.23-.23.23.1.23.23Z" style="fill:#fff;"/><path d="m630.86,435.1c-.31,0-.62-.08-.91-.23l-1.82-.96-1.82.96c-.29.15-.59.23-.91.23-.57,0-1.12-.26-1.49-.7-.37-.44-.52-1-.42-1.58l.35-2.03-1.47-1.43c-.53-.52-.72-1.29-.49-2,.23-.71.83-1.22,1.57-1.33l2.03-.3.91-1.84c.33-.67,1-1.09,1.75-1.09s1.42.42,1.75,1.09l.91,1.84,2.03.3c.74.11,1.34.62,1.57,1.33.23.71.04,1.48-.49,2l-1.47,1.43.35,2.03c.1.58-.05,1.14-.42,1.58-.38.45-.92.7-1.49.7Z" style="fill:url(#linear-gradient-76);"/><path d="m630.86,434.48c-.31,0-.62-.08-.91-.23l-1.82-.96-1.82.96c-.29.15-.59.23-.91.23-.57,0-1.12-.26-1.49-.7-.37-.44-.52-1-.42-1.58l.35-2.03-1.47-1.43c-.53-.52-.72-1.29-.49-2,.23-.71.83-1.22,1.57-1.33l2.03-.3.91-1.84c.33-.67,1-1.09,1.75-1.09s1.42.42,1.75,1.09l.91,1.84,2.03.3c.74.11,1.34.62,1.57,1.33.23.71.04,1.48-.49,2l-1.47,1.43.35,2.03c.1.58-.05,1.14-.42,1.58-.38.45-.92.7-1.49.7Z" style="fill:url(#linear-gradient-77);"/><path d="m629.51,423.46l1.01,2.04,2.25.33c1.25.18,1.76,1.72.85,2.61l-1.63,1.59.38,2.24c.21,1.25-1.1,2.2-2.22,1.61l-2.01-1.06-2.01,1.06c-1.12.59-2.43-.36-2.22-1.61l.38-2.24-1.63-1.59c-.91-.88-.41-2.43.85-2.61l2.25-.33,1.01-2.04c.56-1.14,2.18-1.14,2.74,0Z" style="fill:url(#linear-gradient-78);"/><path d="m631.11,426.6c0,.39-.31.7-.7.7s-.7-.31-.7-.7.31-.7.7-.7.7.31.7.7Z" style="fill:#fff;"/><circle cx="631.2" cy="427.7" r=".23" style="fill:#fff;"/><path d="m647.27,435.1c-.31,0-.62-.08-.91-.23l-1.82-.96-1.82.96c-.29.15-.59.23-.91.23-.57,0-1.12-.26-1.49-.7-.37-.44-.52-1-.42-1.58l.35-2.03-1.47-1.43c-.53-.52-.72-1.29-.49-2,.23-.71.83-1.22,1.57-1.33l2.03-.3.91-1.84c.33-.67,1-1.09,1.75-1.09s1.42.42,1.75,1.09l.91,1.84,2.03.3c.74.11,1.34.62,1.57,1.33.23.71.04,1.48-.49,2l-1.47,1.43.35,2.03c.1.58-.05,1.14-.42,1.58-.38.45-.92.7-1.49.7Z" style="fill:url(#linear-gradient-79);"/><path d="m647.27,434.48c-.31,0-.62-.08-.91-.23l-1.82-.96-1.82.96c-.29.15-.59.23-.91.23-.57,0-1.12-.26-1.49-.7-.37-.44-.52-1-.42-1.58l.35-2.03-1.47-1.43c-.53-.52-.72-1.29-.49-2,.23-.71.83-1.22,1.57-1.33l2.03-.3.91-1.84c.33-.67,1-1.09,1.75-1.09s1.42.42,1.75,1.09l.91,1.84,2.03.3c.74.11,1.34.62,1.57,1.33.23.71.04,1.48-.49,2l-1.47,1.43.35,2.03c.1.58-.05,1.14-.42,1.58-.38.45-.92.7-1.49.7Z" style="fill:url(#linear-gradient-80);"/><path d="m645.91,423.46l1.01,2.04,2.25.33c1.25.18,1.76,1.72.85,2.61l-1.63,1.59.38,2.24c.21,1.25-1.1,2.2-2.22,1.61l-2.01-1.06-2.01,1.06c-1.12.59-2.43-.36-2.22-1.61l.38-2.24-1.63-1.59c-.91-.88-.41-2.43.85-2.61l2.25-.33,1.01-2.04c.56-1.14,2.18-1.14,2.74,0Z" style="fill:url(#linear-gradient-81);"/><path d="m647.51,426.6c0,.39-.31.7-.7.7s-.7-.31-.7-.7.31-.7.7-.7.7.31.7.7Z" style="fill:#fff;"/><circle cx="647.61" cy="427.7" r=".23" style="fill:#fff;"/><path d="m663.78,435.1c-.31,0-.62-.08-.91-.23l-1.82-.96-1.82.96c-.29.15-.59.23-.91.23-.57,0-1.12-.26-1.49-.7-.37-.44-.52-1-.42-1.58l.35-2.03-1.47-1.43c-.53-.52-.72-1.29-.49-2,.23-.71.83-1.22,1.57-1.33l2.03-.3.91-1.84c.33-.67,1-1.09,1.75-1.09s1.42.42,1.75,1.09l.91,1.84,2.03.3c.74.11,1.34.62,1.57,1.33.23.71.04,1.48-.49,2l-1.47,1.43.35,2.03c.1.58-.05,1.14-.42,1.58-.38.45-.92.7-1.49.7Z" style="fill:url(#linear-gradient-82);"/><path d="m663.78,434.48c-.31,0-.62-.08-.91-.23l-1.82-.96-1.82.96c-.29.15-.59.23-.91.23-.57,0-1.12-.26-1.49-.7-.37-.44-.52-1-.42-1.58l.35-2.03-1.47-1.43c-.53-.52-.72-1.29-.49-2,.23-.71.83-1.22,1.57-1.33l2.03-.3.91-1.84c.33-.67,1-1.09,1.75-1.09s1.42.42,1.75,1.09l.91,1.84,2.03.3c.74.11,1.34.62,1.57,1.33.23.71.04,1.48-.49,2l-1.47,1.43.35,2.03c.1.58-.05,1.14-.42,1.58-.38.45-.92.7-1.49.7Z" style="fill:url(#linear-gradient-83);"/><path d="m662.43,423.46l1.01,2.04,2.25.33c1.25.18,1.76,1.72.85,2.61l-1.63,1.59.38,2.24c.21,1.25-1.1,2.2-2.22,1.61l-2.01-1.06-2.01,1.06c-1.12.59-2.43-.36-2.22-1.61l.38-2.24-1.63-1.59c-.91-.88-.41-2.43.85-2.61l2.25-.33,1.01-2.04c.56-1.14,2.18-1.14,2.74,0Z" style="fill:url(#linear-gradient-84);"/><path d="m664.03,426.6c0,.39-.31.7-.7.7s-.7-.31-.7-.7.31-.7.7-.7.7.31.7.7Z" style="fill:#fff;"/><path d="m664.35,427.7c0,.13-.1.23-.23.23s-.23-.1-.23-.23.1-.23.23-.23.23.1.23.23Z" style="fill:#fff;"/><path d="m680.3,435.1c-.31,0-.62-.08-.91-.23l-1.82-.96-1.82.96c-.29.15-.59.23-.91.23-.57,0-1.12-.26-1.49-.7-.37-.44-.52-1-.42-1.58l.35-2.03-1.47-1.43c-.54-.52-.72-1.29-.49-2,.23-.71.83-1.22,1.57-1.33l2.03-.3.91-1.84c.33-.67,1-1.09,1.75-1.09s1.42.42,1.75,1.09l.91,1.84,2.03.3c.74.11,1.34.62,1.57,1.33.23.71.04,1.48-.49,2l-1.47,1.43.35,2.03c.1.58-.05,1.14-.42,1.58-.38.45-.92.7-1.49.7Z" style="fill:url(#linear-gradient-85);"/><path d="m680.3,434.48c-.31,0-.62-.08-.91-.23l-1.82-.96-1.82.96c-.29.15-.59.23-.91.23-.57,0-1.12-.26-1.49-.7-.37-.44-.52-1-.42-1.58l.35-2.03-1.47-1.43c-.54-.52-.72-1.29-.49-2,.23-.71.83-1.22,1.57-1.33l2.03-.3.91-1.84c.33-.67,1-1.09,1.75-1.09s1.42.42,1.75,1.09l.91,1.84,2.03.3c.74.11,1.34.62,1.57,1.33.23.71.04,1.48-.49,2l-1.47,1.43.35,2.03c.1.58-.05,1.14-.42,1.58-.38.45-.92.7-1.49.7Z" style="fill:url(#linear-gradient-86);"/><path d="m678.95,423.46l1.01,2.04,2.25.33c1.25.18,1.76,1.72.85,2.61l-1.63,1.59.38,2.24c.21,1.25-1.1,2.2-2.22,1.61l-2.01-1.06-2.01,1.06c-1.12.59-2.43-.36-2.22-1.61l.38-2.24-1.63-1.59c-.91-.88-.41-2.43.85-2.61l2.25-.33,1.01-2.04c.56-1.14,2.18-1.14,2.74,0Z" style="fill:url(#linear-gradient-87);"/><path d="m680.55,426.6c0,.39-.31.7-.7.7s-.7-.31-.7-.7.31-.7.7-.7.7.31.7.7Z" style="fill:#fff;"/><circle cx="680.64" cy="427.7" r=".23" style="fill:#fff;"/><circle cx="555.28" cy="441" r=".98" style="fill:#393961;"/><circle cx="684.92" cy="388.61" r=".98" style="fill:#393961;"/><path d="m576.93,430.75c-7.17,0-13.01-5.83-13.01-13.01,0-5.45,3.38-10.25,8.39-12.15v-6.28h9.24v6.28c5.01,1.89,8.39,6.7,8.39,12.15,0,7.17-5.83,13.01-13.01,13.01Z" style="fill:url(#linear-gradient-88);"/><path d="m565.87,416.51c-.04.4-.08.81-.08,1.23,0,6.15,4.98,11.13,11.13,11.13s11.13-4.98,11.13-11.13c0-.42-.03-.82-.08-1.23h-22.11Z" style="fill:url(#linear-gradient-89);"/><path d="m569.97,416.51h-4.09c-.04.4-.08.81-.08,1.23,0,5.83,4.49,10.61,10.2,11.08-5.86-4.22-6.53-9.77-6.03-12.31Z" style="fill:url(#linear-gradient-90);"/><ellipse cx="576.92" cy="416.51" rx="11.06" ry="1.24" style="fill:url(#linear-gradient-91);"/><path d="m587.98,416.4c0,.62-4.95,1.13-11.06,1.13s-11.06-.5-11.06-1.13,4.95-1.13,11.06-1.13,11.06.5,11.06,1.13Z" style="fill:url(#linear-gradient-92);"/><path d="m582.66,416.36c0,.29-1.15.52-2.56.52s-2.56-.23-2.56-.52,1.15-.52,2.56-.52,2.56.23,2.56.52Z" style="fill:url(#linear-gradient-93); mix-blend-mode:overlay; opacity:.71;"/><path d="m576.86,416.59c0,.13-.51.23-1.14.23s-1.14-.1-1.14-.23.51-.23,1.14-.23,1.14.1,1.14.23Z" style="fill:url(#linear-gradient-94); mix-blend-mode:overlay; opacity:.71;"/><g style="mix-blend-mode:multiply; opacity:.18;"><path d="m573.25,421.02c-.75,0-.75,1.16,0,1.16s.75-1.16,0-1.16Z" style="fill:#393961;"/><path d="m577.37,419.64c-2.24,0-2.25,3.48,0,3.48s2.25-3.48,0-3.48Z" style="fill:#393961;"/><path d="m577.29,424.96c-.75,0-.75,1.16,0,1.16s.75-1.16,0-1.16Z" style="fill:#393961;"/></g><rect x="571.11" y="398.3" width="11.69" height="4.87" style="fill:#6e78b3;"/><rect x="573.28" y="398.3" width="7.34" height="4.87" style="fill:#393961; mix-blend-mode:multiply; opacity:.14;"/><rect x="605.48" y="389.56" width="74.15" height="14.1" rx="4.83" ry="4.83" style="fill:#282844;"/></g><g id="Texts"><path d="m381.35,107.27l.71-4.18c1.55.39,2.95.58,4.19.58s2.24-.05,3-.15v-1.27l-2.28-.2c-2.06-.19-3.48-.68-4.25-1.48-.77-.8-1.15-1.99-1.15-3.56,0-2.16.47-3.65,1.41-4.46.94-.81,2.53-1.22,4.78-1.22s4.27.21,6.08.63l-.63,4.05c-1.57-.25-2.83-.38-3.78-.38s-1.75.04-2.41.13v1.24l1.82.18c2.21.22,3.74.75,4.59,1.58.84.84,1.27,2,1.27,3.48,0,1.06-.14,1.96-.43,2.7-.29.73-.63,1.29-1.03,1.67-.4.38-.96.67-1.69.87-.73.2-1.36.33-1.91.37-.55.04-1.28.06-2.19.06-2.2,0-4.23-.22-6.11-.66Z" style="fill:#282844; stroke:#282844; stroke-linecap:round; stroke-linejoin:round; stroke-width:.51px;"/><path d="m396.9,94.07c-.38-.29-.57-.81-.57-1.57s.19-1.29.57-1.6,1.13-.46,2.26-.46,1.88.15,2.25.46.57.84.57,1.6-.19,1.28-.57,1.57-1.13.43-2.25.43-1.88-.14-2.26-.43Zm-.29,13.48v-12.04l5.07-.63v12.67h-5.07Z" style="fill:#282844; stroke:#282844; stroke-linecap:round; stroke-linejoin:round; stroke-width:.51px;"/><path d="m403.53,110.97l.66-3.78c1.44.49,3.12.74,5.04.74.57,0,.98-.02,1.22-.05v-.89c-1.5,0-2.49-.06-2.95-.19-.46-.13-.77-.25-.91-.38-.14-.13-.23-.23-.25-.32s-.04-.2-.04-.35l.76-2.18c-1.22-.22-2.14-.68-2.78-1.37-.63-.69-.95-1.78-.95-3.26s.5-2.59,1.5-3.33,2.62-1.12,4.87-1.12c.81,0,1.53.05,2.15.15l2.2-1.7,2.66,2.56-1.44,1.7c.22.59.33,1.35.33,2.28,0,1.33-.33,2.33-1,2.98-.67.65-1.85,1.04-3.56,1.18l-.1.61c1.83.1,3.11.38,3.87.82.75.45,1.13,1.27,1.13,2.47,0,2.04-.99,3.31-2.97,3.8-.98.25-2.3.38-3.97.38s-3.48-.25-5.46-.76Zm4.56-12.04v1.65h.79c.61,0,1.05-.06,1.33-.19.28-.13.42-.42.42-.87v-1.65h-.79c-.61,0-1.05.06-1.33.19-.28.13-.42.42-.42.87Z" style="fill:#282844; stroke:#282844; stroke-linecap:round; stroke-linejoin:round; stroke-width:.51px;"/><path d="m420.33,94.88l1.27,1.27c1.57-1.1,3.26-1.65,5.07-1.65,1.18,0,2.11.26,2.79.77.68.52,1.01,1.23,1.01,2.14v10.14h-5.07v-8.87h-.79c-.57,0-1.01.06-1.3.19-.3.13-.44.38-.44.77v7.91h-5.07v-12.67h2.53Z" style="fill:#282844; stroke:#282844; stroke-linecap:round; stroke-linejoin:round; stroke-width:.51px;"/><path d="m441.36,91.71v11.89h1.8c.64,0,1.08-.08,1.32-.24.24-.16.36-.53.36-1.1v-10.54h5.07v8.9c0,1.44-.09,2.59-.28,3.47s-.53,1.62-1.04,2.23c-.51.61-1.2,1.03-2.08,1.27-.88.24-2.02.35-3.42.35s-2.54-.12-3.41-.35c-.87-.24-1.56-.66-2.07-1.27-.51-.61-.85-1.35-1.04-2.23-.19-.88-.28-2.04-.28-3.47v-8.9h5.07Z" style="fill:#282844; stroke:#282844; stroke-linecap:round; stroke-linejoin:round; stroke-width:.51px;"/><path d="m452.06,94.88h2.53l.94,1.27c.74-1.1,2.12-1.65,4.13-1.65,1.03,0,1.92.19,2.66.58.74.39,1.31.92,1.7,1.6.73,1.27,1.09,2.78,1.09,4.54,0,2.15-.46,3.77-1.39,4.87-.37.42-.87.77-1.5,1.05-.63.28-1.35.42-2.18.42h-2.91v3.8l-5.07.38v-16.85Zm5.07,4.26v5.09h.79c.61,0,1.05-.06,1.33-.19.28-.13.42-.42.42-.87v-4.97h-.79c-.37,0-.67.02-.89.05-.22.03-.41.12-.58.27-.17.14-.26.35-.28.62Z" style="fill:#282844; stroke:#282844; stroke-linecap:round; stroke-linejoin:round; stroke-width:.51px;"/><path d="m381.35,105.84l.71-4.18c1.55.39,2.95.58,4.19.58s2.24-.05,3-.15v-1.27l-2.28-.2c-2.06-.19-3.48-.68-4.25-1.48-.77-.8-1.15-1.99-1.15-3.56,0-2.16.47-3.65,1.41-4.46.94-.81,2.53-1.22,4.78-1.22s4.27.21,6.08.63l-.63,4.05c-1.57-.25-2.83-.38-3.78-.38s-1.75.04-2.41.13v1.24l1.82.18c2.21.22,3.74.75,4.59,1.58.84.84,1.27,2,1.27,3.48,0,1.06-.14,1.96-.43,2.7-.29.73-.63,1.29-1.03,1.67-.4.38-.96.67-1.69.87-.73.2-1.36.33-1.91.37-.55.04-1.28.06-2.19.06-2.2,0-4.23-.22-6.11-.66Z" style="fill:#f7ffec; stroke:#282844; stroke-linecap:round; stroke-linejoin:round; stroke-width:.51px;"/><path d="m396.9,92.63c-.38-.29-.57-.81-.57-1.57s.19-1.29.57-1.6,1.13-.46,2.26-.46,1.88.15,2.25.46.57.84.57,1.6-.19,1.28-.57,1.57-1.13.43-2.25.43-1.88-.14-2.26-.43Zm-.29,13.48v-12.04l5.07-.63v12.67h-5.07Z" style="fill:#f7ffec; stroke:#282844; stroke-linecap:round; stroke-linejoin:round; stroke-width:.51px;"/><path d="m403.53,109.54l.66-3.78c1.44.49,3.12.74,5.04.74.57,0,.98-.02,1.22-.05v-.89c-1.5,0-2.49-.06-2.95-.19-.46-.13-.77-.25-.91-.38-.14-.13-.23-.23-.25-.32s-.04-.2-.04-.35l.76-2.18c-1.22-.22-2.14-.68-2.78-1.37-.63-.69-.95-1.78-.95-3.26s.5-2.59,1.5-3.33,2.62-1.12,4.87-1.12c.81,0,1.53.05,2.15.15l2.2-1.7,2.66,2.56-1.44,1.7c.22.59.33,1.35.33,2.28,0,1.33-.33,2.33-1,2.98-.67.65-1.85,1.04-3.56,1.18l-.1.61c1.83.1,3.11.38,3.87.82.75.45,1.13,1.27,1.13,2.47,0,2.04-.99,3.31-2.97,3.8-.98.25-2.3.38-3.97.38s-3.48-.25-5.46-.76Zm4.56-12.04v1.65h.79c.61,0,1.05-.06,1.33-.19.28-.13.42-.42.42-.87v-1.65h-.79c-.61,0-1.05.06-1.33.19-.28.13-.42.42-.42.87Z" style="fill:#f7ffec; stroke:#282844; stroke-linecap:round; stroke-linejoin:round; stroke-width:.51px;"/><path d="m420.33,93.44l1.27,1.27c1.57-1.1,3.26-1.65,5.07-1.65,1.18,0,2.11.26,2.79.77.68.52,1.01,1.23,1.01,2.14v10.14h-5.07v-8.87h-.79c-.57,0-1.01.06-1.3.19-.3.13-.44.38-.44.77v7.91h-5.07v-12.67h2.53Z" style="fill:#f7ffec; stroke:#282844; stroke-linecap:round; stroke-linejoin:round; stroke-width:.51px;"/><path d="m441.36,90.28v11.89h1.8c.64,0,1.08-.08,1.32-.24.24-.16.36-.53.36-1.1v-10.54h5.07v8.9c0,1.44-.09,2.59-.28,3.47s-.53,1.62-1.04,2.23c-.51.61-1.2,1.03-2.08,1.27-.88.24-2.02.35-3.42.35s-2.54-.12-3.41-.35c-.87-.24-1.56-.66-2.07-1.27-.51-.61-.85-1.35-1.04-2.23-.19-.88-.28-2.04-.28-3.47v-8.9h5.07Z" style="fill:#f7ffec; stroke:#282844; stroke-linecap:round; stroke-linejoin:round; stroke-width:.51px;"/><path d="m452.06,93.44h2.53l.94,1.27c.74-1.1,2.12-1.65,4.13-1.65,1.03,0,1.92.19,2.66.58.74.39,1.31.92,1.7,1.6.73,1.27,1.09,2.78,1.09,4.54,0,2.15-.46,3.77-1.39,4.87-.37.42-.87.77-1.5,1.05-.63.28-1.35.42-2.18.42h-2.91v3.8l-5.07.38v-16.85Zm5.07,4.26v5.09h.79c.61,0,1.05-.06,1.33-.19.28-.13.42-.42.42-.87v-4.97h-.79c-.37,0-.67.02-.89.05-.22.03-.41.12-.58.27-.17.14-.26.35-.28.62Z" style="fill:#f7ffec; stroke:#282844; stroke-linecap:round; stroke-linejoin:round; stroke-width:.51px;"/><path d="m403.32,175.31h-10.14v-15.84h5.07v11.78h5.07v4.05Z" style="fill:#282844; stroke:#282844; stroke-linecap:round; stroke-linejoin:round; stroke-width:.51px;"/><path d="m405.79,174.03c-1.06-1.11-1.58-2.79-1.58-5.06s.53-3.95,1.58-5.06c1.06-1.11,2.77-1.66,5.13-1.66s4.08.55,5.13,1.66c1.06,1.11,1.58,2.79,1.58,5.06s-.53,3.95-1.58,5.06c-1.06,1.11-2.77,1.66-5.13,1.66s-4.08-.55-5.13-1.66Zm3.87-7.01v4.97h.79c.61,0,1.05-.06,1.33-.19.28-.13.42-.42.42-.87v-4.97h-.79c-.61,0-1.05.06-1.33.19-.28.13-.42.42-.42.87Z" style="fill:#282844; stroke:#282844; stroke-linecap:round; stroke-linejoin:round; stroke-width:.51px;"/><path d="m418.99,178.73l.66-3.78c1.44.49,3.12.74,5.04.74.57,0,.98-.02,1.22-.05v-.89c-1.5,0-2.49-.06-2.95-.19-.46-.13-.77-.25-.91-.38-.14-.13-.23-.23-.25-.32s-.04-.2-.04-.35l.76-2.18c-1.22-.22-2.14-.68-2.78-1.37-.63-.69-.95-1.78-.95-3.26s.5-2.59,1.5-3.33,2.62-1.12,4.87-1.12c.81,0,1.53.05,2.15.15l2.2-1.7,2.66,2.56-1.44,1.7c.22.59.33,1.35.33,2.28,0,1.33-.33,2.33-1,2.98-.67.65-1.85,1.04-3.56,1.18l-.1.61c1.83.1,3.11.38,3.87.82.75.45,1.13,1.27,1.13,2.47,0,2.04-.99,3.31-2.97,3.8-.98.25-2.3.38-3.97.38s-3.48-.25-5.46-.76Zm4.56-12.04v1.65h.79c.61,0,1.05-.06,1.33-.19.28-.13.42-.42.42-.87v-1.65h-.79c-.61,0-1.05.06-1.33.19-.28.13-.42.42-.42.87Z" style="fill:#282844; stroke:#282844; stroke-linecap:round; stroke-linejoin:round; stroke-width:.51px;"/><path d="m433.54,161.82c-.38-.29-.57-.81-.57-1.57s.19-1.29.57-1.6,1.13-.46,2.26-.46,1.88.15,2.25.46.57.84.57,1.6-.19,1.28-.57,1.57-1.13.43-2.25.43-1.88-.14-2.26-.43Zm-.29,13.48v-12.04l5.07-.63v12.67h-5.07Z" style="fill:#282844; stroke:#282844; stroke-linecap:round; stroke-linejoin:round; stroke-width:.51px;"/><path d="m443.39,162.63l1.27,1.27c1.57-1.1,3.26-1.65,5.07-1.65,1.18,0,2.11.26,2.79.77.68.52,1.01,1.23,1.01,2.14v10.14h-5.07v-8.87h-.79c-.57,0-1.01.06-1.3.19-.3.13-.44.38-.44.77v7.91h-5.07v-12.67h2.53Z" style="fill:#282844; stroke:#282844; stroke-linecap:round; stroke-linejoin:round; stroke-width:.51px;"/><path d="m403.32,173.87h-10.14v-15.84h5.07v11.78h5.07v4.05Z" style="fill:#f7ffec; stroke:#282844; stroke-linecap:round; stroke-linejoin:round; stroke-width:.51px;"/><path d="m405.79,172.59c-1.06-1.11-1.58-2.79-1.58-5.06s.53-3.95,1.58-5.06c1.06-1.11,2.77-1.66,5.13-1.66s4.08.55,5.13,1.66c1.06,1.11,1.58,2.79,1.58,5.06s-.53,3.95-1.58,5.06c-1.06,1.11-2.77,1.66-5.13,1.66s-4.08-.55-5.13-1.66Zm3.87-7.01v4.97h.79c.61,0,1.05-.06,1.33-.19.28-.13.42-.42.42-.87v-4.97h-.79c-.61,0-1.05.06-1.33.19-.28.13-.42.42-.42.87Z" style="fill:#f7ffec; stroke:#282844; stroke-linecap:round; stroke-linejoin:round; stroke-width:.51px;"/><path d="m418.99,177.29l.66-3.78c1.44.49,3.12.74,5.04.74.57,0,.98-.02,1.22-.05v-.89c-1.5,0-2.49-.06-2.95-.19-.46-.13-.77-.25-.91-.38-.14-.13-.23-.23-.25-.32s-.04-.2-.04-.35l.76-2.18c-1.22-.22-2.14-.68-2.78-1.37-.63-.69-.95-1.78-.95-3.26s.5-2.59,1.5-3.33,2.62-1.12,4.87-1.12c.81,0,1.53.05,2.15.15l2.2-1.7,2.66,2.56-1.44,1.7c.22.59.33,1.35.33,2.28,0,1.33-.33,2.33-1,2.98-.67.65-1.85,1.04-3.56,1.18l-.1.61c1.83.1,3.11.38,3.87.82.75.45,1.13,1.27,1.13,2.47,0,2.04-.99,3.31-2.97,3.8-.98.25-2.3.38-3.97.38s-3.48-.25-5.46-.76Zm4.56-12.04v1.65h.79c.61,0,1.05-.06,1.33-.19.28-.13.42-.42.42-.87v-1.65h-.79c-.61,0-1.05.06-1.33.19-.28.13-.42.42-.42.87Z" style="fill:#f7ffec; stroke:#282844; stroke-linecap:round; stroke-linejoin:round; stroke-width:.51px;"/><path d="m433.54,160.39c-.38-.29-.57-.81-.57-1.57s.19-1.29.57-1.6,1.13-.46,2.26-.46,1.88.15,2.25.46.57.84.57,1.6-.19,1.28-.57,1.57-1.13.43-2.25.43-1.88-.14-2.26-.43Zm-.29,13.48v-12.04l5.07-.63v12.67h-5.07Z" style="fill:#f7ffec; stroke:#282844; stroke-linecap:round; stroke-linejoin:round; stroke-width:.51px;"/><path d="m443.39,161.2l1.27,1.27c1.57-1.1,3.26-1.65,5.07-1.65,1.18,0,2.11.26,2.79.77.68.52,1.01,1.23,1.01,2.14v10.14h-5.07v-8.87h-.79c-.57,0-1.01.06-1.3.19-.3.13-.44.38-.44.77v7.91h-5.07v-12.67h2.53Z" style="fill:#f7ffec; stroke:#282844; stroke-linecap:round; stroke-linejoin:round; stroke-width:.51px;"/><path d="m587.23,104.33l.56-3.28c1.22.31,2.32.46,3.29.46s1.76-.04,2.36-.12v-.99l-1.79-.16c-1.62-.15-2.73-.53-3.33-1.16s-.9-1.56-.9-2.79c0-1.7.37-2.86,1.1-3.5s1.99-.96,3.75-.96,3.36.17,4.77.5l-.5,3.18c-1.23-.2-2.22-.3-2.96-.3s-1.37.03-1.89.1v.98l1.43.14c1.74.17,2.94.59,3.6,1.24.66.66,1,1.57,1,2.74,0,.84-.11,1.54-.34,2.12s-.49,1.01-.81,1.31-.75.53-1.32.69c-.57.16-1.07.25-1.5.29-.43.03-1,.05-1.72.05-1.72,0-3.32-.17-4.79-.52Z" style="fill:#282844;"/><path d="m598.61,97.17v-2.57h1v-1.59l3.98-.99v2.59h1.37v2.57h-1.37v4.54c.34.07.74.11,1.17.14l-.18,2.92c-1.82,0-3-.1-3.54-.3-.68-.24-1.1-.56-1.27-.96-.11-.24-.16-.52-.16-.84v-5.51h-1Z" style="fill:#282844;"/><path d="m611.16,94.31c3.18,0,4.77,1.09,4.77,3.28v6.96h-1.99l-1.13-1.13c-.38.45-.91.8-1.57,1.05s-1.29.38-1.88.38-1.06-.05-1.42-.14c-.36-.09-.71-.25-1.05-.48-.76-.48-1.13-1.37-1.13-2.67,0-2.39,1.8-3.58,5.41-3.58h.8v-.72c-.42-.03-.78-.04-1.05-.04-1.5,0-2.79.18-3.86.54l-.48-2.84c1.33-.41,2.86-.62,4.59-.62Zm-1.39,6.82v.82h.82c.58,0,.96-.07,1.12-.2.17-.13.25-.3.25-.52v-.94h-.82c-.48,0-.83.05-1.04.15-.22.1-.33.33-.33.69Z" style="fill:#282844;"/><path d="m617.13,97.17v-2.57h1v-1.59l3.98-.99v2.59h1.37v2.57h-1.37v4.54c.34.07.74.11,1.17.14l-.18,2.92c-1.82,0-3-.1-3.54-.3-.68-.24-1.1-.56-1.27-.96-.11-.24-.16-.52-.16-.84v-5.51h-1Z" style="fill:#282844;"/><path d="m625.91,95c.86-.46,2.03-.7,3.51-.7s2.85.21,4.1.62l-.46,2.71c-1.03-.29-2.07-.44-3.1-.44-.32,0-.77.03-1.35.08v.64c2.15,0,3.61.32,4.38.96.38.32.66.67.82,1.04s.24.84.24,1.37-.06,1.02-.19,1.44-.32.76-.58,1.01-.53.46-.81.62-.64.27-1.09.34c-.7.11-1.52.16-2.45.16-1.64,0-3.13-.19-4.46-.58l.5-2.83c1.11.35,2.32.52,3.62.52.6,0,1.14-.03,1.63-.08v-.64c-2.12,0-3.58-.28-4.39-.84-.8-.56-1.2-1.48-1.2-2.78s.43-2.17,1.28-2.64Z" style="fill:#282844;"/><path d="m553.92,130.78v-2.83h-1.92v2.83h-2.56v-8.01h2.56v2.83h1.92v-2.83h2.56v8.01h-2.56Z" style="fill:#f3edf7;"/><path d="m557.77,124.37h1.28l.47.64c.38-.56,1.07-.83,2.09-.83.52,0,.97.1,1.35.29s.66.47.86.81c.37.64.55,1.41.55,2.3,0,1.09-.24,1.91-.71,2.46-.19.21-.44.39-.76.53s-.68.21-1.1.21h-1.47v1.92l-2.56.19v-8.53Zm2.56,2.15v2.58h.4c.31,0,.53-.03.67-.1s.21-.21.21-.44v-2.51h-.4c-.19,0-.34,0-.45.03-.11.02-.21.06-.29.13-.09.07-.13.18-.14.31Z" style="fill:#f3edf7;"/><path d="m659.71,146.19h-6.41v-2.05h2.28v-3.4l-2.28.15v-2.05l2.95-.67h2.03v5.96h1.44v2.05Z" style="fill:#f3edf7;"/><path d="m661.22,145.31c-.24-.37-.41-.8-.51-1.29-.09-.49-.14-1.1-.14-1.84s.05-1.35.14-1.84c.09-.49.26-.92.51-1.29.24-.37.59-.64,1.05-.81.46-.17,1.04-.26,1.74-.26s1.28.09,1.73.26c.45.17.8.44,1.05.81.25.37.42.8.51,1.29s.13,1.1.13,1.85-.04,1.36-.13,1.84-.26.91-.51,1.28c-.25.37-.6.64-1.05.81s-1.03.26-1.73.26-1.28-.09-1.74-.26-.81-.44-1.05-.81Zm1.99-4.58v3.59h.54c.38,0,.65-.04.81-.12.15-.08.23-.27.23-.56v-3.59h-.6c-.38,0-.63.04-.77.12-.14.08-.21.26-.21.56Z" style="fill:#f3edf7;"/><path d="m668.91,145.31c-.24-.37-.41-.8-.51-1.29-.09-.49-.14-1.1-.14-1.84s.05-1.35.14-1.84c.09-.49.26-.92.51-1.29.24-.37.59-.64,1.05-.81.46-.17,1.04-.26,1.74-.26s1.28.09,1.73.26c.45.17.8.44,1.05.81.25.37.42.8.51,1.29s.13,1.1.13,1.85-.04,1.36-.13,1.84-.26.91-.51,1.28c-.25.37-.6.64-1.05.81s-1.03.26-1.73.26-1.28-.09-1.74-.26-.81-.44-1.05-.81Zm1.99-4.58v3.59h.54c.38,0,.65-.04.81-.12.15-.08.23-.27.23-.56v-3.59h-.6c-.38,0-.63.04-.77.12-.14.08-.21.26-.21.56Z" style="fill:#f3edf7;"/><path d="m551.8,166.58h-2.68l.49-8.01h3.35l1,4.08h.09l1-4.08h3.35l.49,8.01h-2.68l-.15-3.89h-.09l-.97,3.89h-1.96l-.99-3.89h-.08l-.15,3.89Z" style="fill:#f3edf7;"/><path d="m562.88,159.97c2.05,0,3.08.71,3.08,2.12v4.49h-1.28l-.73-.73c-.25.29-.58.52-1.01.68s-.83.24-1.21.24-.69-.03-.92-.09c-.23-.06-.46-.16-.68-.31-.49-.31-.73-.88-.73-1.72,0-1.54,1.16-2.31,3.49-2.31h.51v-.46c-.27-.02-.5-.03-.68-.03-.97,0-1.8.12-2.49.35l-.31-1.83c.86-.27,1.84-.4,2.96-.4Zm-.9,4.4v.53h.53c.38,0,.62-.04.72-.13.11-.09.16-.2.16-.33v-.6h-.53c-.31,0-.53.03-.67.1-.14.06-.21.21-.21.44Z" style="fill:#f3edf7;"/><path d="m568.39,160.17l.64.64c.79-.56,1.65-.83,2.56-.83.6,0,1.07.13,1.41.39s.51.62.51,1.08v5.13h-2.56v-4.49h-.4c-.29,0-.51.03-.66.1-.15.06-.22.19-.22.39v4h-2.56v-6.41h1.28Z" style="fill:#f3edf7;"/><path d="m577.77,159.97c2.05,0,3.08.71,3.08,2.12v4.49h-1.28l-.73-.73c-.25.29-.58.52-1.01.68s-.83.24-1.21.24-.69-.03-.92-.09c-.23-.06-.46-.16-.68-.31-.49-.31-.73-.88-.73-1.72,0-1.54,1.16-2.31,3.49-2.31h.51v-.46c-.27-.02-.5-.03-.68-.03-.97,0-1.8.12-2.49.35l-.31-1.83c.86-.27,1.84-.4,2.96-.4Zm-.9,4.4v.53h.53c.38,0,.62-.04.72-.13.11-.09.16-.2.16-.33v-.6h-.53c-.31,0-.53.03-.67.1-.14.06-.21.21-.21.44Z" style="fill:#f3edf7;"/><path d="m652.99,181.84l.36-2.12c.81.2,1.52.29,2.13.29s1.11-.03,1.51-.08v-.64l-.96-.1c-1.06-.11-1.78-.29-2.16-.54-.38-.25-.57-.7-.57-1.35,0-.09.04-1.21.13-3.33h5.83l-.19,2.21-3.04-.18v.65l.76.09c1.12.14,1.89.41,2.32.83.43.42.64.99.64,1.74,0,.54-.07.99-.22,1.37-.15.37-.32.65-.52.85-.2.19-.49.34-.85.44-.37.1-.69.16-.97.19-.28.02-.65.03-1.11.03-1.11,0-2.14-.11-3.09-.33Z" style="fill:#f3edf7;"/><path d="m661.22,181.1c-.24-.37-.41-.8-.51-1.29-.09-.49-.14-1.1-.14-1.84s.05-1.35.14-1.84c.09-.49.26-.92.51-1.29.24-.37.59-.64,1.05-.81.46-.17,1.04-.26,1.74-.26s1.28.09,1.73.26c.45.17.8.44,1.05.81.25.37.42.8.51,1.29s.13,1.1.13,1.85-.04,1.36-.13,1.84-.26.91-.51,1.28c-.25.37-.6.64-1.05.81s-1.03.26-1.73.26-1.28-.09-1.74-.26-.81-.44-1.05-.81Zm1.99-4.58v3.59h.54c.38,0,.65-.04.81-.12.15-.08.23-.27.23-.56v-3.59h-.6c-.38,0-.63.04-.77.12-.14.08-.21.26-.21.56Z" style="fill:#f3edf7;"/><path d="m551.35,202.83h-2.71l2.08-8.01h3.96l2.08,8.01h-2.71l-.29-1.27h-2.12l-.29,1.27Zm1.28-5.55l-.53,2.24h1.18l-.51-2.24h-.14Z" style="fill:#f3edf7;"/><path d="m557.25,196.42h1.28l.71.72c.5-.46,1.14-.76,1.9-.91l.15,2.42c-.21,0-.47.06-.8.15-.33.09-.55.21-.67.36v3.67h-2.56v-6.41Z" style="fill:#f3edf7;"/><path d="m565.64,198.34h-.18c-.2,0-.34,0-.44.03-.1.02-.19.07-.28.16-.09.09-.13.22-.13.4v3.9h-2.56v-6.41h1.28l.58.59c.52-.52,1.21-.78,2.05-.78s1.46.18,1.83.53c.52-.35,1.13-.53,1.81-.53s1.22.13,1.61.39.58.62.58,1.08v5.13h-2.57v-4.49h-.18c-.18,0-.32,0-.42.03-.1.02-.2.06-.28.14-.08.08-.13.19-.14.35v3.98h-2.56v-4.49Z" style="fill:#f3edf7;"/><path d="m573.55,202.18c-.54-.56-.8-1.41-.8-2.56s.27-2,.8-2.56c.53-.56,1.4-.84,2.6-.84s2.06.28,2.6.84.8,1.41.8,2.56-.27,2-.8,2.56-1.4.84-2.6.84-2.06-.28-2.6-.84Zm1.96-3.55v2.51h.4c.31,0,.53-.03.67-.1.14-.06.21-.21.21-.44v-2.51h-.4c-.31,0-.53.03-.67.1-.14.06-.21.21-.21.44Z" style="fill:#f3edf7;"/><path d="m580.57,196.42h1.28l.71.72c.5-.46,1.14-.76,1.9-.91l.15,2.42c-.21,0-.47.06-.8.15-.33.09-.55.21-.67.36v3.67h-2.56v-6.41Z" style="fill:#f3edf7;"/><path d="m659.56,211.82l-2.47,6.41h-2.9l2.29-5.78-3.08.04-.19-2.27h6.35v1.6Z" style="fill:#f3edf7;"/><path d="m661.22,217.35c-.24-.37-.41-.8-.51-1.29-.09-.49-.14-1.1-.14-1.84s.05-1.35.14-1.84c.09-.49.26-.92.51-1.29.24-.37.59-.64,1.05-.81.46-.17,1.04-.26,1.74-.26s1.28.09,1.73.26c.45.17.8.44,1.05.81.25.37.42.8.51,1.29s.13,1.1.13,1.85-.04,1.36-.13,1.84-.26.91-.51,1.28c-.25.37-.6.64-1.05.81s-1.03.26-1.73.26-1.28-.09-1.74-.26-.81-.44-1.05-.81Zm1.99-4.58v3.59h.54c.38,0,.65-.04.81-.12.15-.08.23-.27.23-.56v-3.59h-.6c-.38,0-.63.04-.77.12-.14.08-.21.26-.21.56Z" style="fill:#f3edf7;"/><path d="m659.05,274.32h-12.3v-3.94h4.38v-6.52l-4.38.3v-3.94l5.66-1.28h3.89v11.44h2.76v3.94Z" style="fill:#282844;"/><path d="m661.94,272.63c-.47-.71-.79-1.54-.97-2.47-.18-.94-.27-2.11-.27-3.53s.09-2.59.27-3.53c.18-.93.5-1.76.97-2.47.47-.71,1.14-1.23,2.02-1.56.88-.33,1.99-.49,3.33-.49s2.45.16,3.32.49c.87.33,1.54.85,2.02,1.56.48.71.8,1.54.97,2.47.17.94.26,2.12.26,3.54s-.09,2.6-.26,3.53c-.17.93-.5,1.75-.97,2.46-.48.71-1.15,1.23-2.02,1.56-.87.33-1.98.49-3.32.49s-2.46-.16-3.33-.49c-.88-.33-1.55-.85-2.02-1.56Zm3.83-8.79v6.89h1.03c.74,0,1.25-.08,1.55-.23.29-.16.44-.51.44-1.07v-6.89h-1.16c-.72,0-1.21.07-1.48.22-.26.15-.39.51-.39,1.08Z" style="fill:#282844;"/><path d="m562.62,259.17h-10.14v-15.84h5.07v11.78h5.07v4.05Z" style="fill:#282844; stroke:#282844; stroke-linecap:round; stroke-linejoin:round; stroke-width:.51px;"/><path d="m568.96,254.86v.89c.51.05,1.01.08,1.52.08,1.57,0,3.16-.25,4.76-.76l.61,3.72c-1.89.51-3.77.76-5.63.76-2.37,0-4.08-.55-5.13-1.66-1.06-1.11-1.58-2.79-1.58-5.06s.53-3.95,1.58-5.06,2.76-1.66,5.12-1.66,3.98.32,4.88.96c.9.64,1.34,1.84,1.34,3.6,0,1.49-.54,2.56-1.61,3.21-1.07.65-3.03.98-5.87.98Zm0-3.98v1.04h1.04c.61,0,1.05-.06,1.33-.19.28-.13.42-.42.42-.87v-1.04h-1.04c-.61,0-1.05.06-1.33.19-.28.13-.42.42-.42.87Z" style="fill:#282844; stroke:#282844; stroke-linecap:round; stroke-linejoin:round; stroke-width:.51px;"/><path d="m580.24,259.17l-3.17-12.67h5.07l1.39,8.24h.25l1.39-8.24h5.07l-3.17,12.67h-6.84Z" style="fill:#282844; stroke:#282844; stroke-linecap:round; stroke-linejoin:round; stroke-width:.51px;"/><path d="m596.46,254.86v.89c.51.05,1.01.08,1.52.08,1.57,0,3.16-.25,4.76-.76l.61,3.72c-1.89.51-3.77.76-5.63.76-2.37,0-4.08-.55-5.13-1.66-1.06-1.11-1.58-2.79-1.58-5.06s.53-3.95,1.58-5.06,2.76-1.66,5.12-1.66,3.98.32,4.88.96c.9.64,1.34,1.84,1.34,3.6,0,1.49-.54,2.56-1.61,3.21-1.07.65-3.03.98-5.87.98Zm0-3.98v1.04h1.04c.61,0,1.05-.06,1.33-.19.28-.13.42-.42.42-.87v-1.04h-1.04c-.61,0-1.05.06-1.33.19-.28.13-.42.42-.42.87Z" style="fill:#282844; stroke:#282844; stroke-linecap:round; stroke-linejoin:round; stroke-width:.51px;"/><path d="m610.9,242.31v13.23c.54.1.95.16,1.24.18l-.23,3.73c-2.16,0-3.59-.13-4.28-.38-.86-.32-1.39-.73-1.6-1.22-.14-.3-.2-.66-.2-1.06v-14.09l5.07-.38Z" style="fill:#282844; stroke:#282844; stroke-linecap:round; stroke-linejoin:round; stroke-width:.51px;"/><path d="m562.62,257.73h-10.14v-15.84h5.07v11.78h5.07v4.05Z" style="fill:#f7ffec; stroke:#282844; stroke-linecap:round; stroke-linejoin:round; stroke-width:.51px;"/><path d="m568.96,253.42v.89c.51.05,1.01.08,1.52.08,1.57,0,3.16-.25,4.76-.76l.61,3.73c-1.89.51-3.77.76-5.63.76-2.37,0-4.08-.55-5.13-1.66s-1.58-2.79-1.58-5.06.53-3.95,1.58-5.06c1.06-1.11,2.76-1.66,5.12-1.66s3.98.32,4.88.96c.9.64,1.34,1.84,1.34,3.6,0,1.49-.54,2.56-1.61,3.21-1.07.65-3.03.98-5.87.98Zm0-3.98v1.04h1.04c.61,0,1.05-.06,1.33-.19.28-.13.42-.42.42-.88v-1.04h-1.04c-.61,0-1.05.06-1.33.19-.28.13-.42.42-.42.87Z" style="fill:#f7ffec; stroke:#282844; stroke-linecap:round; stroke-linejoin:round; stroke-width:.51px;"/><path d="m580.24,257.73l-3.17-12.67h5.07l1.39,8.24h.25l1.39-8.24h5.07l-3.17,12.67h-6.84Z" style="fill:#f7ffec; stroke:#282844; stroke-linecap:round; stroke-linejoin:round; stroke-width:.51px;"/><path d="m596.46,253.42v.89c.51.05,1.01.08,1.52.08,1.57,0,3.16-.25,4.76-.76l.61,3.73c-1.89.51-3.77.76-5.63.76-2.37,0-4.08-.55-5.13-1.66s-1.58-2.79-1.58-5.06.53-3.95,1.58-5.06c1.06-1.11,2.76-1.66,5.12-1.66s3.98.32,4.88.96c.9.64,1.34,1.84,1.34,3.6,0,1.49-.54,2.56-1.61,3.21-1.07.65-3.03.98-5.87.98Zm0-3.98v1.04h1.04c.61,0,1.05-.06,1.33-.19.28-.13.42-.42.42-.88v-1.04h-1.04c-.61,0-1.05.06-1.33.19-.28.13-.42.42-.42.87Z" style="fill:#f7ffec; stroke:#282844; stroke-linecap:round; stroke-linejoin:round; stroke-width:.51px;"/><path d="m610.9,240.88v13.23c.54.1.95.16,1.24.18l-.23,3.73c-2.16,0-3.59-.13-4.28-.38-.86-.32-1.39-.73-1.6-1.22-.14-.3-.2-.66-.2-1.06v-14.09l5.07-.38Z" style="fill:#f7ffec; stroke:#282844; stroke-linecap:round; stroke-linejoin:round; stroke-width:.51px;"/><path d="m606.35,417.8v-5.89h1.88v5.89h-1.88Z" style="fill:#f3edf7;"/><path d="m608.89,414.3v-1.22h.47v-.75l1.88-.47v1.23h.65v1.22h-.65v2.15c.16.03.35.05.56.07l-.08,1.38c-.86,0-1.42-.05-1.68-.14-.32-.11-.52-.26-.6-.45-.05-.11-.08-.25-.08-.4v-2.61h-.47Z" style="fill:#f3edf7;"/><path d="m614.44,416.19v.33c.19.02.38.03.57.03.58,0,1.17-.09,1.77-.28l.23,1.38c-.7.19-1.4.28-2.09.28-.88,0-1.52-.21-1.91-.62-.39-.41-.59-1.04-.59-1.88s.2-1.47.59-1.88c.39-.41,1.03-.62,1.9-.62s1.48.12,1.81.36c.33.24.5.68.5,1.34,0,.55-.2.95-.6,1.19-.4.24-1.13.36-2.18.36Zm0-1.48v.39h.39c.23,0,.39-.02.5-.07.1-.05.16-.16.16-.33v-.39h-.39c-.23,0-.39.02-.49.07-.1.05-.16.16-.16.33Z" style="fill:#f3edf7;"/><path d="m620.57,414.5h-.13c-.14,0-.25,0-.33.02s-.14.05-.2.12c-.06.07-.09.17-.09.3v2.87h-1.88v-4.71h.94l.42.43c.38-.38.89-.58,1.51-.58s1.07.13,1.35.39c.38-.26.83-.39,1.33-.39s.9.1,1.18.29c.28.19.42.46.42.8v3.77h-1.88v-3.3h-.13c-.13,0-.24,0-.31.02-.08.01-.14.05-.21.1s-.1.14-.1.25v2.92h-1.88v-3.3Z" style="fill:#f3edf7;"/><path d="m629.28,411.53v4.92c.2.04.35.06.46.07l-.08,1.38c-.8,0-1.34-.05-1.59-.14-.32-.12-.52-.27-.59-.45-.05-.11-.08-.25-.08-.4v-5.24l1.88-.14Z" style="fill:#f3edf7;"/><path d="m632.14,416.19v.33c.19.02.38.03.57.03.58,0,1.17-.09,1.77-.28l.23,1.38c-.7.19-1.4.28-2.09.28-.88,0-1.52-.21-1.91-.62-.39-.41-.59-1.04-.59-1.88s.2-1.47.59-1.88c.39-.41,1.03-.62,1.9-.62s1.48.12,1.81.36c.33.24.5.68.5,1.34,0,.55-.2.95-.6,1.19-.4.24-1.13.36-2.18.36Zm0-1.48v.39h.39c.23,0,.39-.02.5-.07.1-.05.16-.16.16-.33v-.39h-.39c-.23,0-.39.02-.49.07-.1.05-.16.16-.16.33Z" style="fill:#f3edf7;"/><path d="m636.34,417.8l-1.18-4.71h1.88l.52,3.06h.09l.52-3.06h1.88l-1.18,4.71h-2.54Z" style="fill:#f3edf7;"/><path d="m642.37,416.19v.33c.19.02.38.03.57.03.58,0,1.17-.09,1.77-.28l.23,1.38c-.7.19-1.4.28-2.09.28-.88,0-1.52-.21-1.91-.62-.39-.41-.59-1.04-.59-1.88s.2-1.47.59-1.88c.39-.41,1.03-.62,1.9-.62s1.48.12,1.81.36c.33.24.5.68.5,1.34,0,.55-.2.95-.6,1.19-.4.24-1.13.36-2.18.36Zm0-1.48v.39h.39c.23,0,.39-.02.5-.07.1-.05.16-.16.16-.33v-.39h-.39c-.23,0-.39.02-.49.07-.1.05-.16.16-.16.33Z" style="fill:#f3edf7;"/><path d="m647.74,411.53v4.92c.2.04.35.06.46.07l-.08,1.38c-.8,0-1.34-.05-1.59-.14-.32-.12-.52-.27-.59-.45-.05-.11-.08-.25-.08-.4v-5.24l1.88-.14Z" style="fill:#f3edf7;"/><path d="m617.95,399.24h-1.96l.36-5.85h2.44l.73,2.97h.07l.73-2.97h2.44l.36,5.85h-1.95l-.11-2.83h-.07l-.71,2.83h-1.43l-.72-2.83h-.06l-.11,2.83Z" style="fill:#f3edf7;"/><path d="m626.03,394.42c1.5,0,2.24.51,2.24,1.54v3.27h-.94l-.53-.53c-.18.21-.43.38-.74.5-.31.12-.61.18-.88.18s-.5-.02-.67-.07c-.17-.04-.33-.12-.5-.22-.36-.22-.53-.64-.53-1.25,0-1.12.85-1.68,2.54-1.68h.37v-.34c-.2-.01-.37-.02-.5-.02-.7,0-1.31.08-1.81.25l-.22-1.34c.62-.19,1.34-.29,2.16-.29Zm-.66,3.21v.38h.38c.27,0,.45-.03.53-.09s.12-.14.12-.24v-.44h-.38c-.22,0-.39.02-.49.07-.1.05-.15.15-.15.32Z" style="fill:#f3edf7;"/><path d="m628.86,400.5l.24-1.39c.53.18,1.15.27,1.86.27.21,0,.36,0,.45-.02v-.33c-.56,0-.92-.02-1.09-.07-.17-.05-.28-.09-.34-.14s-.08-.09-.09-.12c0-.03-.01-.07-.01-.13l.28-.8c-.45-.08-.79-.25-1.02-.5-.23-.25-.35-.66-.35-1.2s.18-.96.55-1.23c.37-.27.97-.41,1.79-.41.3,0,.56.02.79.06l.81-.63.98.94-.53.63c.08.22.12.5.12.84,0,.49-.12.86-.37,1.1-.25.24-.68.38-1.31.43l-.04.22c.67.04,1.15.14,1.43.3s.42.47.42.91c0,.75-.36,1.22-1.09,1.4-.36.09-.85.14-1.46.14s-1.29-.09-2.02-.28Zm1.68-4.44v.61h.29c.22,0,.39-.02.49-.07.1-.05.15-.15.15-.32v-.61h-.29c-.22,0-.39.02-.49.07-.1.05-.15.15-.15.32Z" style="fill:#f3edf7;"/><path d="m634.23,394.26c-.14-.11-.21-.3-.21-.58s.07-.48.21-.59.42-.17.83-.17.69.06.83.17c.14.11.21.31.21.59s-.07.47-.21.58c-.14.11-.42.16-.83.16s-.69-.05-.83-.16Zm-.11,4.98v-4.44l1.87-.23v4.68h-1.87Z" style="fill:#f3edf7;"/><path d="m640.37,397.83l.11,1.35c-.32.13-.74.2-1.25.2-.87,0-1.5-.2-1.89-.61-.39-.41-.58-1.03-.58-1.87s.2-1.46.58-1.87,1.02-.61,1.89-.61c.54,0,.96.07,1.25.2l-.22,1.27c-.33-.07-.59-.1-.79-.1-.47,0-.71.17-.71.5v1.67c.18.04.41.06.7.06s.59-.06.91-.18Z" style="fill:#f3edf7;"/><path d="m645.71,397.82h-1.22v1.41h-1.87v-5.85h2.95c1.34,0,2.01.72,2.01,2.16,0,.79-.17,1.38-.52,1.76-.13.14-.31.27-.54.37s-.5.15-.8.15Zm-1.22-2.94v1.44h.43c.22,0,.39-.02.49-.07.1-.05.15-.15.15-.32v-.65c0-.17-.05-.28-.15-.32-.1-.05-.27-.07-.49-.07h-.43Z" style="fill:#f3edf7;"/><path d="m648.54,398.76c-.39-.41-.58-1.03-.58-1.87s.2-1.46.58-1.87,1.02-.61,1.89-.61,1.5.2,1.89.61.58,1.03.58,1.87-.2,1.46-.58,1.87c-.39.41-1.02.61-1.89.61s-1.5-.2-1.89-.61Zm1.43-2.59v1.83h.29c.22,0,.39-.02.49-.07.1-.05.15-.15.15-.32v-1.83h-.29c-.22,0-.39.02-.49.07-.1.05-.15.15-.15.32Z" style="fill:#f3edf7;"/><path d="m653.38,395.77v-1.21h.47v-.75l1.87-.47v1.22h.65v1.21h-.65v2.13c.16.03.35.05.55.07l-.08,1.37c-.85,0-1.41-.05-1.67-.14-.32-.11-.52-.26-.6-.45-.05-.11-.08-.24-.08-.39v-2.59h-.47Z" style="fill:#f3edf7;"/><path d="m657.18,394.26c-.14-.11-.21-.3-.21-.58s.07-.48.21-.59.42-.17.83-.17.69.06.83.17c.14.11.21.31.21.59s-.07.47-.21.58c-.14.11-.42.16-.83.16s-.69-.05-.83-.16Zm-.11,4.98v-4.44l1.87-.23v4.68h-1.87Z" style="fill:#f3edf7;"/><path d="m660.27,398.76c-.39-.41-.58-1.03-.58-1.87s.2-1.46.58-1.87,1.02-.61,1.89-.61,1.5.2,1.89.61.58,1.03.58,1.87-.2,1.46-.58,1.87c-.39.41-1.02.61-1.89.61s-1.5-.2-1.89-.61Zm1.43-2.59v1.83h.29c.22,0,.39-.02.49-.07.1-.05.15-.15.15-.32v-1.83h-.29c-.22,0-.39.02-.49.07-.1.05-.15.15-.15.32Z" style="fill:#f3edf7;"/><path d="m666.33,394.56l.47.47c.58-.41,1.2-.61,1.87-.61.44,0,.78.09,1.03.29s.37.45.37.79v3.74h-1.87v-3.27h-.29c-.21,0-.37.02-.48.07-.11.05-.16.14-.16.29v2.92h-1.87v-4.68h.94Z" style="fill:#f3edf7;"/></g></g></svg>