<?xml version="1.0" encoding="UTF-8"?><svg xmlns="http://www.w3.org/2000/svg" viewBox="0 0 180.76 115.84"><g style="isolation:isolate;"><g id="Objects"><path d="m53.79,47.32l6.32-16.71L.55,8.08S-3.78,25.54,11.87,31.46c15.65,5.92,41.92,15.86,41.92,15.86Z" style="fill:#ffaa17;"/><path d="m58.89,70.32l6.32-16.7L5.65,31.09s-4.33,17.46,11.32,23.38c15.65,5.92,41.92,15.86,41.92,15.86Z" style="fill:#ffaa17;"/><path d="m10.74,54.09s-4.33,17.46,11.32,23.38c15.65,5.92,41.92,15.86,41.92,15.86l6.32-16.71L10.74,54.09Z" style="fill:#ffaa17;"/><path d="m53.79,39.24l6.32-16.71L.55,0S-3.78,17.46,11.87,23.38c15.65,5.92,41.92,15.86,41.92,15.86Z" style="fill:#ffda33;"/><path d="m58.89,62.24l6.32-16.7L5.65,23s-4.33,17.46,11.32,23.38c15.65,5.92,41.92,15.86,41.92,15.86Z" style="fill:#ffda33;"/><path d="m10.74,46.01s-4.33,17.45,11.32,23.38c15.65,5.92,41.92,15.86,41.92,15.86l6.32-16.71L10.74,46.01Z" style="fill:#ffda33;"/><path d="m40.38,69.92c.6,2.61,1.43,5.04,2.45,7.32,11.26,4.26,21.16,8,21.16,8l6.32-16.71-31.98-12.1c.34,4.31.99,8.83,2.06,13.48Z" style="fill:#ffaa17;"/><path d="m38.19,54.41c11.07,4.19,20.7,7.83,20.7,7.83l6.32-16.7-26.32-9.96c-.72,5.47-1.1,11.86-.7,18.83Z" style="fill:#ffaa17;"/><path d="m60.11,22.53l-16.58-6.27c-.58,1.48-2.94,7.91-4.38,17.44,8.3,3.14,14.64,5.54,14.64,5.54l6.32-16.71Z" style="fill:#ffaa17;"/><path d="m126.97,47.32l-6.32-16.71,59.56-22.53s4.33,17.46-11.32,23.38c-15.65,5.92-41.92,15.86-41.92,15.86Z" style="fill:#ffaa17;"/><path d="m121.87,70.32l-6.32-16.7,59.56-22.53s4.33,17.46-11.32,23.38c-15.65,5.92-41.92,15.86-41.92,15.86Z" style="fill:#ffaa17;"/><path d="m170.01,54.09s4.33,17.46-11.32,23.38c-15.65,5.92-41.92,15.86-41.92,15.86l-6.32-16.71,59.56-22.53Z" style="fill:#ffaa17;"/><path d="m126.97,39.24l-6.32-16.71L180.21,0s4.33,17.46-11.32,23.38c-15.65,5.92-41.92,15.86-41.92,15.86Z" style="fill:#ffda33;"/><path d="m121.87,62.24l-6.32-16.7,59.56-22.53s4.33,17.46-11.32,23.38c-15.65,5.92-41.92,15.86-41.92,15.86Z" style="fill:#ffda33;"/><path d="m170.01,46.01s4.33,17.45-11.32,23.38c-15.65,5.92-41.92,15.86-41.92,15.86l-6.32-16.71,59.56-22.53Z" style="fill:#ffda33;"/><path d="m140.38,69.92c-.6,2.61-1.43,5.04-2.45,7.32-11.26,4.26-21.16,8-21.16,8l-6.32-16.71,31.98-12.1c-.34,4.31-.99,8.83-2.06,13.48Z" style="fill:#ffaa17;"/><path d="m142.57,54.41c-11.07,4.19-20.7,7.83-20.7,7.83l-6.32-16.7,26.32-9.96c.72,5.47,1.1,11.86.7,18.83Z" style="fill:#ffaa17;"/><path d="m120.65,22.53l16.58-6.27c.58,1.48,2.94,7.91,4.38,17.44-8.3,3.14-14.64,5.54-14.64,5.54l-6.32-16.71Z" style="fill:#ffaa17;"/><path d="m131.31,24.75l-19.72,2.11-21.22-14.2h0s0,0,0,0h0s-21.22,14.2-21.22,14.2l-19.72-2.11s-10.1,24.18-3.29,54c6.8,29.8,44.19,37.09,44.22,37.09h0s37.42-7.29,44.22-37.09c6.81-29.81-3.29-54-3.29-54Z" style="fill:#ffaa17;"/><path d="m131.31,19.3l-19.72,2.11-21.22-14.2h0s0,0,0,0h0s-21.22,14.2-21.22,14.2l-19.72-2.11s-10.1,24.18-3.29,54c6.8,29.8,44.19,37.08,44.22,37.09h0s37.42-7.29,44.22-37.09c6.81-29.82-3.29-54-3.29-54Z" style="fill:#fff; mix-blend-mode:overlay; opacity:.8;"/><path d="m131.31,18.48l-19.72,2.11-21.22-14.2h0l-21.22,14.2-19.72-2.11s-10.1,24.18-3.29,54c6.8,29.8,44.19,37.09,44.22,37.09h0s37.42-7.29,44.22-37.09c6.81-29.82-3.29-54-3.29-54Z" style="fill:#ffda33;"/><path d="m112.11,20.53l-.52.05-21.22-14.2h0l-8.67,5.8,50.85,66.67c.84-2,1.53-4.13,2.04-6.38,1.56-6.84,2.23-13.37,2.33-19.39l-24.82-32.55Z" style="fill:#fff; mix-blend-mode:overlay; opacity:.2;"/><path d="m47.37,24.76c-2.38,8.54-5.53,24.95-1.96,44.09l25.46,33.38c10.18,5.52,19.49,7.33,19.51,7.34h0s7.88-1.54,17.05-6.07L47.37,24.76Z" style="fill:#fff; mix-blend-mode:overlay; opacity:.2;"/><path d="m90.38,99.94c-6.78-1.79-30.5-9.44-35.1-29.55-4.04-17.7-1.41-33.37.77-41.79l15.49,1.66,18.83-12.61,18.83,12.61,15.5-1.66c2.18,8.41,4.81,24.08.77,41.79-4.59,20.11-28.32,27.76-35.1,29.55Z" style="fill:#ffaa17;"/><path d="m70.3,33.94l19.7-12.61,19.7,12.61,15.88-1.63c-.29-1.36-.58-2.61-.87-3.72l-15.5,1.66-18.83-12.61-18.83,12.61-15.49-1.66c-.29,1.14-.59,2.41-.89,3.8l15.14,1.55Z" style="fill:#f80;"/></g></g></svg>