<?xml version="1.0" encoding="UTF-8"?><svg id="Objects" xmlns="http://www.w3.org/2000/svg" xmlns:xlink="http://www.w3.org/1999/xlink" viewBox="0 0 65.86 83.87"><defs><linearGradient id="linear-gradient" x1="32.93" y1="104.59" x2="32.93" y2="-42.79" gradientUnits="userSpaceOnUse"><stop offset="0" stop-color="#43466e"/><stop offset="1" stop-color="#585e81"/></linearGradient><linearGradient id="linear-gradient-2" x1="16.78" y1="76.59" x2="16.78" y2="62.16" gradientUnits="userSpaceOnUse"><stop offset="0" stop-color="#fa6b49"/><stop offset="1" stop-color="#feb749"/></linearGradient><linearGradient id="linear-gradient-3" x1="16.78" y1="75.97" x2="16.78" y2="61.54" gradientUnits="userSpaceOnUse"><stop offset="0" stop-color="#fde049"/><stop offset="1" stop-color="#fefe49"/></linearGradient><linearGradient id="linear-gradient-4" x1="16.78" y1="75.59" x2="16.78" y2="62.14" xlink:href="#linear-gradient-2"/><linearGradient id="linear-gradient-5" x1="33.12" y1="75.99" x2="33.12" y2="55.95" xlink:href="#linear-gradient-2"/><linearGradient id="linear-gradient-6" x1="33.12" y1="75.13" x2="33.12" y2="55.09" xlink:href="#linear-gradient-3"/><linearGradient id="linear-gradient-7" x1="33.12" y1="74.59" x2="33.12" y2="55.92" xlink:href="#linear-gradient-2"/><linearGradient id="linear-gradient-8" x1="49.73" x2="49.73" xlink:href="#linear-gradient-2"/><linearGradient id="linear-gradient-9" x1="49.73" x2="49.73" xlink:href="#linear-gradient-3"/><linearGradient id="linear-gradient-10" x1="49.73" y1="75.59" x2="49.73" y2="62.14" xlink:href="#linear-gradient-2"/></defs><rect x="1.28" y="1.28" width="63.3" height="81.32" rx="11.59" ry="11.59" style="fill:url(#linear-gradient); stroke:#6e78b3; stroke-miterlimit:10; stroke-width:2.55px;"/><rect x="14.45" y="12.22" width="36.84" height="46.28" rx="7.67" ry="7.67" style="fill:#282844;"/><path d="m19.51,77.07c-.31,0-.62-.08-.91-.23l-1.82-.96-1.82.96c-.29.15-.59.23-.91.23-.57,0-1.12-.26-1.49-.7-.37-.44-.52-1-.42-1.58l.35-2.03-1.47-1.43c-.53-.52-.72-1.29-.49-2,.23-.71.83-1.22,1.57-1.33l2.03-.3.91-1.84c.33-.67,1-1.09,1.75-1.09s1.42.42,1.75,1.09l.91,1.84,2.03.3c.74.11,1.34.62,1.57,1.33.23.71.04,1.48-.49,2l-1.47,1.43.35,2.03c.1.58-.05,1.14-.42,1.58-.38.45-.92.7-1.49.7Z" style="fill:url(#linear-gradient-2);"/><path d="m19.51,76.45c-.31,0-.62-.08-.91-.23l-1.82-.96-1.82.96c-.29.15-.59.23-.91.23-.57,0-1.12-.26-1.49-.7-.37-.44-.52-1-.42-1.58l.35-2.03-1.47-1.43c-.53-.52-.72-1.29-.49-2,.23-.71.83-1.22,1.57-1.33l2.03-.3.91-1.84c.33-.67,1-1.09,1.75-1.09s1.42.42,1.75,1.09l.91,1.84,2.03.3c.74.11,1.34.62,1.57,1.33.23.71.04,1.48-.49,2l-1.47,1.43.35,2.03c.1.58-.05,1.14-.42,1.58-.38.45-.92.7-1.49.7Z" style="fill:url(#linear-gradient-3);"/><path d="m18.15,65.43l1.01,2.04,2.25.33c1.25.18,1.76,1.72.85,2.61l-1.63,1.59.38,2.24c.21,1.25-1.1,2.2-2.22,1.61l-2.01-1.06-2.01,1.06c-1.12.59-2.43-.36-2.22-1.61l.38-2.24-1.63-1.59c-.91-.88-.41-2.43.85-2.61l2.25-.33,1.01-2.04c.56-1.14,2.18-1.14,2.74,0Z" style="fill:url(#linear-gradient-4);"/><path d="m19.75,68.57c0,.39-.31.7-.7.7s-.7-.31-.7-.7.31-.7.7-.7.7.31.7.7Z" style="fill:#fff;"/><path d="m20.08,69.67c0,.13-.1.23-.23.23s-.23-.1-.23-.23.1-.23.23-.23.23.1.23.23Z" style="fill:#fff;"/><path d="m36.9,76.65c-.44,0-.86-.11-1.26-.32l-2.53-1.33-2.53,1.33c-.4.21-.82.32-1.26.32-.8,0-1.55-.35-2.08-.97-.52-.61-.73-1.39-.59-2.19l.48-2.81-2.04-1.99c-.74-.72-1.01-1.79-.68-2.77.32-.99,1.16-1.69,2.18-1.84l2.82-.41,1.26-2.56c.46-.93,1.39-1.51,2.42-1.51s1.97.58,2.43,1.51l1.26,2.56,2.82.41c1.03.15,1.86.85,2.18,1.84.32.99.06,2.05-.68,2.77l-2.04,1.99.48,2.81c.14.8-.07,1.58-.59,2.19-.52.62-1.28.97-2.08.97Z" style="fill:url(#linear-gradient-5);"/><path d="m36.9,75.79c-.44,0-.86-.11-1.26-.32l-2.53-1.33-2.53,1.33c-.4.21-.82.32-1.26.32-.8,0-1.55-.36-2.08-.97-.52-.61-.73-1.39-.59-2.19l.48-2.81-2.04-1.99c-.74-.72-1.01-1.79-.68-2.77.32-.99,1.16-1.69,2.18-1.84l2.82-.41,1.26-2.56c.46-.93,1.39-1.51,2.42-1.51s1.97.58,2.43,1.51l1.26,2.56,2.82.41c1.03.15,1.86.85,2.18,1.84.32.99.06,2.05-.68,2.77l-2.04,1.99.48,2.81c.14.8-.07,1.58-.59,2.19-.52.62-1.28.97-2.08.97Z" style="fill:url(#linear-gradient-6);"/><path d="m35.02,60.49l1.4,2.83,3.13.45c1.74.25,2.44,2.39,1.18,3.62l-2.26,2.2.53,3.11c.3,1.73-1.52,3.06-3.08,2.24l-2.8-1.47-2.8,1.47c-1.56.82-3.38-.5-3.08-2.24l.53-3.11-2.26-2.2c-1.26-1.23-.56-3.37,1.18-3.62l3.13-.45,1.4-2.83c.78-1.58,3.03-1.58,3.81,0Z" style="fill:url(#linear-gradient-7);"/><path d="m37.24,64.84c0,.54-.44.97-.97.97s-.97-.44-.97-.97.44-.97.97-.97.97.44.97.97Z" style="fill:#fff;"/><circle cx="37.37" cy="66.38" r=".32" style="fill:#fff;"/><path d="m52.46,77.07c-.31,0-.62-.08-.91-.23l-1.82-.96-1.82.96c-.29.15-.59.23-.91.23-.57,0-1.12-.26-1.49-.7-.37-.44-.52-1-.42-1.58l.35-2.03-1.47-1.43c-.54-.52-.72-1.29-.49-2,.23-.71.83-1.22,1.57-1.33l2.03-.3.91-1.84c.33-.67,1-1.09,1.75-1.09s1.42.42,1.75,1.09l.91,1.84,2.03.3c.74.11,1.34.62,1.57,1.33.23.71.04,1.48-.49,2l-1.47,1.43.35,2.03c.1.58-.05,1.14-.42,1.58-.38.45-.92.7-1.49.7Z" style="fill:url(#linear-gradient-8);"/><path d="m52.46,76.45c-.31,0-.62-.08-.91-.23l-1.82-.96-1.82.96c-.29.15-.59.23-.91.23-.57,0-1.12-.26-1.49-.7-.37-.44-.52-1-.42-1.58l.35-2.03-1.47-1.43c-.54-.52-.72-1.29-.49-2,.23-.71.83-1.22,1.57-1.33l2.03-.3.91-1.84c.33-.67,1-1.09,1.75-1.09s1.42.42,1.75,1.09l.91,1.84,2.03.3c.74.11,1.34.62,1.57,1.33.23.71.04,1.48-.49,2l-1.47,1.43.35,2.03c.1.58-.05,1.14-.42,1.58-.38.45-.92.7-1.49.7Z" style="fill:url(#linear-gradient-9);"/><path d="m51.11,65.43l1.01,2.04,2.25.33c1.25.18,1.76,1.72.85,2.61l-1.63,1.59.38,2.24c.21,1.25-1.1,2.2-2.22,1.61l-2.01-1.06-2.01,1.06c-1.12.59-2.43-.36-2.22-1.61l.38-2.24-1.63-1.59c-.91-.88-.41-2.43.85-2.61l2.25-.33,1.01-2.04c.56-1.14,2.18-1.14,2.74,0Z" style="fill:url(#linear-gradient-10);"/><path d="m52.7,68.57c0,.39-.31.7-.7.7s-.7-.31-.7-.7.31-.7.7-.7.7.31.7.7Z" style="fill:#fff;"/><circle cx="52.8" cy="69.67" r=".23" style="fill:#fff;"/></svg>