<?xml version="1.0" encoding="UTF-8"?><svg id="Objects" xmlns="http://www.w3.org/2000/svg" xmlns:xlink="http://www.w3.org/1999/xlink" viewBox="0 0 27.6 32.14"><defs><linearGradient id="linear-gradient" x1="11.42" y1="30.28" x2="15.24" y2="1.07" gradientUnits="userSpaceOnUse"><stop offset="0" stop-color="#189934"/><stop offset="1" stop-color="#67ff7d"/></linearGradient><linearGradient id="linear-gradient-2" x1="11.42" y1="28.4" x2="15.24" y2="-.8" gradientUnits="userSpaceOnUse"><stop offset="0" stop-color="#bdf8c7"/><stop offset="1" stop-color="#d9ffde"/></linearGradient><linearGradient id="linear-gradient-3" x1="11.53" y1="27.52" x2="15.08" y2=".41" gradientUnits="userSpaceOnUse"><stop offset="0" stop-color="#21cf46"/><stop offset="1" stop-color="#67ff7d"/></linearGradient></defs><path d="m5.25,32.14c-2.89,0-5.25-2.35-5.25-5.25V7.12C0,4.23,2.35,1.88,5.25,1.88c.91,0,1.81.25,2.61.71l17.12,9.88c1.64.95,2.62,2.64,2.62,4.54s-.98,3.59-2.62,4.54L7.86,31.43c-.8.46-1.71.71-2.61.71Z" style="fill:url(#linear-gradient);"/><path d="m5.25,30.26c-2.89,0-5.25-2.35-5.25-5.25V5.25C0,2.35,2.35,0,5.25,0c.91,0,1.81.25,2.61.71l17.12,9.88c1.64.95,2.62,2.64,2.62,4.54s-.98,3.59-2.62,4.54L7.86,29.55c-.8.46-1.71.71-2.61.71Z" style="fill:url(#linear-gradient-2);"/><path d="m24.44,11.52c2.78,1.6,2.78,5.61,0,7.21l-8.56,4.94-8.56,4.94c-2.78,1.6-6.25-.4-6.25-3.61V5.25C1.08,2.04,4.55.04,7.32,1.64l8.56,4.94,8.56,4.94Z" style="fill:url(#linear-gradient-3);"/></svg>