<?xml version="1.0" encoding="UTF-8"?><svg id="Objects" xmlns="http://www.w3.org/2000/svg" xmlns:xlink="http://www.w3.org/1999/xlink" viewBox="0 0 27.6 32.14"><defs><linearGradient id="linear-gradient" x1="11.42" y1="30.28" x2="15.24" y2="1.07" gradientTransform="translate(27.6) rotate(-180) scale(1 -1)" gradientUnits="userSpaceOnUse"><stop offset="0" stop-color="#189934"/><stop offset="1" stop-color="#67ff7d"/></linearGradient><linearGradient id="linear-gradient-2" x1="11.42" y1="28.4" x2="15.24" y2="-.8" gradientTransform="translate(27.6) rotate(-180) scale(1 -1)" gradientUnits="userSpaceOnUse"><stop offset="0" stop-color="#bdf8c7"/><stop offset="1" stop-color="#d9ffde"/></linearGradient><linearGradient id="linear-gradient-3" x1="11.53" y1="27.52" x2="15.08" y2=".41" gradientTransform="translate(27.6) rotate(-180) scale(1 -1)" gradientUnits="userSpaceOnUse"><stop offset="0" stop-color="#21cf46"/><stop offset="1" stop-color="#67ff7d"/></linearGradient></defs><path d="m22.35,32.14c2.89,0,5.25-2.35,5.25-5.25V7.12c0-2.89-2.35-5.25-5.25-5.25-.91,0-1.81.25-2.61.71L2.62,12.47C.98,13.41,0,15.11,0,17.01s.98,3.59,2.62,4.54l17.12,9.88c.8.46,1.71.71,2.61.71Z" style="fill:url(#linear-gradient);"/><path d="m22.35,30.26c2.89,0,5.25-2.35,5.25-5.25V5.25C27.6,2.35,25.25,0,22.35,0c-.91,0-1.81.25-2.61.71L2.62,10.59C.98,11.54,0,13.23,0,15.13s.98,3.59,2.62,4.54l17.12,9.88c.8.46,1.71.71,2.61.71Z" style="fill:url(#linear-gradient-2);"/><path d="m3.16,11.52c-2.78,1.6-2.78,5.61,0,7.21l8.56,4.94,8.56,4.94c2.78,1.6,6.25-.4,6.25-3.61v-9.88s0-9.88,0-9.88c0-3.21-3.47-5.21-6.25-3.61l-8.56,4.94L3.16,11.52Z" style="fill:url(#linear-gradient-3);"/></svg>