<?xml version="1.0" encoding="UTF-8"?><svg id="Objects" xmlns="http://www.w3.org/2000/svg" xmlns:xlink="http://www.w3.org/1999/xlink" viewBox="0 0 246.76 34.76"><defs><linearGradient id="linear-gradient" x1="1.32" y1="17.38" x2="245.43" y2="17.38" gradientUnits="userSpaceOnUse"><stop offset="0" stop-color="#43466e"/><stop offset="1" stop-color="#585e81"/></linearGradient></defs><rect x="1.32" y="1.32" width="244.11" height="32.12" rx="16.06" ry="16.06" style="fill:url(#linear-gradient); stroke:#6e78b3; stroke-miterlimit:10; stroke-width:2.65px;"/><path d="m24.64,27.39c-5.22,0-9.46-4.24-9.46-9.46s4.24-9.46,9.46-9.46h197.47c5.22,0,9.46,4.24,9.46,9.46s-4.24,9.46-9.46,9.46H24.64Z" style="fill:#282844;"/><path d="m222.12,24.36H24.64c-3.55,0-6.43-2.88-6.43-6.43h0c0-3.55,2.88-6.43,6.43-6.43h197.47c3.55,0,6.43,2.88,6.43,6.43h0c0,3.55-2.88,6.43-6.43,6.43Z" style="fill:#282844;"/></svg>