<?xml version="1.0" encoding="UTF-8"?><svg xmlns="http://www.w3.org/2000/svg" xmlns:xlink="http://www.w3.org/1999/xlink" viewBox="0 0 65.4 69.39"><defs><linearGradient id="linear-gradient" x1="32.7" y1="66.76" x2="32.7" y2="-5.46" gradientUnits="userSpaceOnUse"><stop offset="0" stop-color="#43466e"/><stop offset="1" stop-color="#585e81"/></linearGradient><linearGradient id="linear-gradient-2" x1="33.74" y1="48.67" x2="33.74" y2="2.52" gradientUnits="userSpaceOnUse"><stop offset="0" stop-color="#189934"/><stop offset="1" stop-color="#67ff7d"/></linearGradient><linearGradient id="linear-gradient-3" x1="33.74" y1="54.31" x2="33.74" y2="18.61" gradientUnits="userSpaceOnUse"><stop offset="0" stop-color="#bdf8c7"/><stop offset="1" stop-color="#d9ffde"/></linearGradient><linearGradient id="linear-gradient-4" x1="33.74" y1="52.75" x2="33.74" y2="19.92" xlink:href="#linear-gradient-2"/><linearGradient id="linear-gradient-5" x1="26.34" y1="37.6" x2="26.34" y2="30.54" xlink:href="#linear-gradient-3"/></defs><g style="isolation:isolate;"><g id="Objects"><circle cx="32.7" cy="37.43" r="31.42" style="fill:#464866; stroke:#464866; stroke-miterlimit:10; stroke-width:1.08px;"/><circle cx="32.7" cy="32.7" r="31.42" style="fill:url(#linear-gradient); stroke:#6e78b3; stroke-miterlimit:10; stroke-width:2.55px;"/><path d="m29.8,49.87c-1.13,0-2.23-.41-3.08-1.16-.17-.15-.33-.31-.48-.49l-8.15-9.64c-2.15-2.55-1.83-6.37.72-8.52,1.09-.92,2.47-1.43,3.9-1.43,1.79,0,3.47.78,4.62,2.14.24.29.47.62.67.96l2.98,5.37,13.54-12.99c.7-.67,1.62-1.04,2.59-1.04,1.03,0,1.99.41,2.7,1.15,1.32,1.38,1.38,3.59.12,5.04l-16.58,18.99c-.89,1.02-2.18,1.61-3.53,1.61h0Z" style="fill:url(#linear-gradient-2);"/><path d="m29.8,48.36c-1.13,0-2.23-.41-3.08-1.16-.17-.15-.33-.31-.48-.49l-8.15-9.64c-2.15-2.55-1.83-6.37.72-8.52,1.09-.92,2.47-1.43,3.9-1.43,1.79,0,3.47.78,4.62,2.14.24.29.47.62.67.96l2.98,5.37,13.54-12.99c.7-.67,1.62-1.04,2.59-1.04,1.03,0,1.99.41,2.7,1.15,1.32,1.38,1.38,3.59.12,5.04l-16.58,18.99c-.89,1.02-2.18,1.61-3.53,1.61h0Z" style="fill:url(#linear-gradient-3);"/><path d="m49.01,23.47c-1.02-1.06-2.7-1.09-3.76-.08l-14.55,13.95-3.65-6.59c-.15-.27-.34-.55-.55-.8-1.77-2.1-4.91-2.36-7-.59-2.1,1.77-2.36,4.91-.59,7l7.78,9.21.37.43c.11.13.24.26.37.37,1.5,1.31,3.78,1.16,5.1-.35l16.57-18.98c.89-1.03.87-2.59-.08-3.59Z" style="fill:url(#linear-gradient-4);"/><path d="m27.85,37.6c-.36,0-.71-.18-.92-.51l-3.02-4.9c-.31-.51-.16-1.17.35-1.48.51-.31,1.17-.16,1.48.35l3.02,4.9c.31.51.16,1.17-.35,1.48-.18.11-.37.16-.56.16Z" style="fill:url(#linear-gradient-5); mix-blend-mode:overlay; opacity:.52;"/></g></g></svg>