<?xml version="1.0" encoding="UTF-8"?><svg id="Objects" xmlns="http://www.w3.org/2000/svg" xmlns:xlink="http://www.w3.org/1999/xlink" viewBox="0 0 65.4 69.39"><defs><linearGradient id="linear-gradient" x1="32.7" y1="66.76" x2="32.7" y2="-5.46" gradientTransform="translate(32.7 -13.54) rotate(45)" gradientUnits="userSpaceOnUse"><stop offset="0" stop-color="#43466e"/><stop offset="1" stop-color="#585e81"/></linearGradient><linearGradient id="linear-gradient-2" x1="-708.57" y1="-2089.81" x2="-708.57" y2="-2123.12" gradientTransform="translate(-955.2 2025.97) rotate(45)" gradientUnits="userSpaceOnUse"><stop offset="0" stop-color="#d92348"/><stop offset="1" stop-color="#ff476a"/></linearGradient><linearGradient id="linear-gradient-3" x1="-709.9" y1="-2091.14" x2="-709.9" y2="-2124.44" gradientTransform="translate(-955.2 2025.97) rotate(45)" gradientUnits="userSpaceOnUse"><stop offset="0" stop-color="#fd859b"/><stop offset="1" stop-color="#ff8aa0"/></linearGradient><linearGradient id="linear-gradient-4" x1="33.21" y1="49.97" x2="33.21" y2="17.44" gradientTransform="matrix(1,0,0,1,0,0)" xlink:href="#linear-gradient-2"/></defs><circle cx="32.7" cy="37.43" r="31.42" transform="translate(-16.89 34.08) rotate(-45)" style="fill:#464866; stroke:#464866; stroke-miterlimit:10; stroke-width:1.08px;"/><circle cx="32.7" cy="32.7" r="31.42" transform="translate(-13.54 32.7) rotate(-45)" style="fill:url(#linear-gradient); stroke:#6e78b3; stroke-miterlimit:10; stroke-width:2.55px;"/><path d="m19.06,45.49c-1.92-1.92-1.92-5.03,0-6.95l3.04-3.04-3.04-3.04c-1.92-1.92-1.92-5.03,0-6.95l4.16-4.16c1.92-1.92,5.03-1.92,6.95,0l3.04,3.04,3.04-3.04c1.92-1.92,5.03-1.92,6.95,0l4.16,4.16c1.92,1.92,1.92,5.03,0,6.95l-3.04,3.04,3.04,3.04c1.92,1.92,1.92,5.03,0,6.95l-4.16,4.16c-1.92,1.92-5.03,1.92-6.95,0l-3.04-3.04-3.04,3.04c-1.92,1.92-5.03,1.92-6.95,0l-4.16-4.16Z" style="fill:url(#linear-gradient-2);"/><path d="m19.06,43.62c-1.92-1.92-1.92-5.03,0-6.95l3.04-3.04-3.04-3.04c-1.92-1.92-1.92-5.03,0-6.95l4.16-4.16c1.92-1.92,5.03-1.92,6.95,0l3.04,3.04,3.04-3.04c1.92-1.92,5.03-1.92,6.95,0l4.16,4.16c1.92,1.92,1.92,5.03,0,6.95l-3.04,3.04,3.04,3.04c1.92,1.92,1.92,5.03,0,6.95l-4.16,4.16c-1.92,1.92-5.03,1.92-6.95,0l-3.04-3.04-3.04,3.04c-1.92,1.92-5.03,1.92-6.95,0l-4.16-4.16Z" style="fill:url(#linear-gradient-3);"/><path d="m46.6,37.43l-3.8-3.8,3.8-3.8c1.5-1.5,1.5-3.93,0-5.43l-4.16-4.16c-1.5-1.5-3.93-1.5-5.43,0l-3.8,3.8-3.8-3.8c-1.5-1.5-3.93-1.5-5.43,0l-4.16,4.16c-1.5,1.5-1.5,3.93,0,5.43l3.8,3.8-3.8,3.8c-1.5,1.5-1.5,3.93,0,5.43l4.16,4.16c1.5,1.5,3.93,1.5,5.43,0l3.8-3.8,3.8,3.8c1.5,1.5,3.93,1.5,5.43,0l4.16-4.16c1.5-1.5,1.5-3.93,0-5.43Z" style="fill:url(#linear-gradient-4);"/></svg>