<?xml version="1.0" encoding="UTF-8"?><svg id="Objects" xmlns="http://www.w3.org/2000/svg" xmlns:xlink="http://www.w3.org/1999/xlink" viewBox="0 0 58.74 62.66"><defs><linearGradient id="linear-gradient" x1="29.37" y1="62.76" x2="29.37" y2="-6.79" gradientUnits="userSpaceOnUse"><stop offset="0" stop-color="#2a4ebf"/><stop offset="1" stop-color="#47c8fe"/></linearGradient><linearGradient id="linear-gradient-2" x1="29.37" y1="58.85" x2="29.37" y2="-10.7" gradientUnits="userSpaceOnUse"><stop offset="0" stop-color="#abd5f5"/><stop offset="1" stop-color="#c1ecfe"/></linearGradient><linearGradient id="linear-gradient-3" x1="29.37" y1="56.82" x2="29.37" y2="-7.94" xlink:href="#linear-gradient"/><linearGradient id="linear-gradient-4" x1="28.82" y1="44.42" x2="28.82" y2="15.08" gradientUnits="userSpaceOnUse"><stop offset="0" stop-color="#b2f1e8"/><stop offset="1" stop-color="#f7ffec"/></linearGradient></defs><path d="m29.37,62.66c-4.51,0-9.09-.19-13.6-.58-8.12-.69-14.51-7.08-15.2-15.2C-.19,37.87-.19,28.71.57,19.69,1.26,11.57,7.65,5.18,15.77,4.49c4.51-.38,9.09-.58,13.6-.58s9.09.19,13.6.58c8.12.69,14.51,7.08,15.2,15.2.77,9.02.77,18.17,0,27.2-.69,8.12-7.08,14.51-15.2,15.2-4.51.38-9.09.58-13.6.58Z" style="fill:url(#linear-gradient);"/><path d="m29.37,58.75c-4.51,0-9.09-.19-13.6-.58-8.12-.69-14.51-7.08-15.2-15.2C-.19,33.95-.19,24.8.57,15.77,1.26,7.66,7.65,1.27,15.77.58c4.51-.38,9.09-.58,13.6-.58s9.09.19,13.6.58c8.12.69,14.51,7.08,15.2,15.2.77,9.02.77,18.17,0,27.2-.69,8.12-7.08,14.51-15.2,15.2-4.51.38-9.09.58-13.6.58Z" style="fill:url(#linear-gradient-2);"/><path d="m42.8,56.15c-8.95.76-17.9.76-26.86,0-7.09-.6-12.75-6.26-13.35-13.35-.76-8.95-.76-17.9,0-26.86.6-7.09,6.26-12.75,13.35-13.35,8.95-.76,17.9-.76,26.86,0,7.09.6,12.75,6.26,13.35,13.35.76,8.95.76,17.9,0,26.86-.6,7.09-6.26,12.75-13.35,13.35Z" style="fill:url(#linear-gradient-3);"/><path d="m44.47,33.4v-5.9h-4.02c-.27-1.15-.7-2.24-1.27-3.24l2.79-2.79-4.17-4.17-2.72,2.72c-1.01-.63-2.13-1.11-3.31-1.42v-3.8h-5.9v3.77c-1.2.3-2.33.77-3.36,1.4l-2.67-2.67-4.17,4.17,2.72,2.72c-.59,1.02-1.04,2.13-1.32,3.31h-3.9v5.9h4.01c.31,1.12.77,2.18,1.37,3.14l-2.89,2.89,4.17,4.17,2.96-2.96c.95.54,1.98.96,3.07,1.23v4.23h5.9v-4.26c1.07-.28,2.09-.7,3.02-1.24l3,3,4.17-4.17-2.96-2.96c.58-.94,1.03-1.97,1.33-3.07h4.13Zm-15.71,2.22c-2.98,0-5.4-2.42-5.4-5.4s2.42-5.4,5.4-5.4,5.4,2.42,5.4,5.4-2.42,5.4-5.4,5.4Z" style="fill:url(#linear-gradient-4);"/></svg>