<?xml version="1.0" encoding="UTF-8"?><svg xmlns="http://www.w3.org/2000/svg" xmlns:xlink="http://www.w3.org/1999/xlink" viewBox="0 0 34.15 28.29"><defs><linearGradient id="linear-gradient" x1="17.08" y1="27.1" x2="17.08" y2="-19.05" gradientUnits="userSpaceOnUse"><stop offset="0" stop-color="#189934"/><stop offset="1" stop-color="#67ff7d"/></linearGradient><linearGradient id="linear-gradient-2" x1="17.08" y1="32.74" x2="17.08" y2="-2.97" gradientUnits="userSpaceOnUse"><stop offset="0" stop-color="#bdf8c7"/><stop offset="1" stop-color="#d9ffde"/></linearGradient><linearGradient id="linear-gradient-3" x1="17.08" y1="31.18" x2="17.08" y2="-1.65" xlink:href="#linear-gradient"/><linearGradient id="linear-gradient-4" x1="9.67" y1="16.03" x2="9.67" y2="8.97" xlink:href="#linear-gradient-2"/></defs><g style="isolation:isolate;"><g id="Objects"><path d="m13.14,28.29c-1.13,0-2.23-.41-3.08-1.16-.17-.15-.33-.31-.48-.49L1.43,17.01c-2.15-2.55-1.83-6.37.72-8.52,1.09-.92,2.47-1.43,3.9-1.43,1.79,0,3.47.78,4.62,2.14.24.29.47.62.67.96l2.98,5.37L27.84,2.55c.7-.67,1.62-1.04,2.59-1.04,1.03,0,1.99.41,2.7,1.15,1.32,1.38,1.38,3.59.12,5.04l-16.58,18.99c-.89,1.02-2.18,1.61-3.53,1.61h0Z" style="fill:url(#linear-gradient);"/><path d="m13.14,26.78c-1.13,0-2.23-.41-3.08-1.16-.17-.15-.33-.31-.48-.49L1.43,15.5c-2.15-2.55-1.83-6.37.72-8.52,1.09-.92,2.47-1.43,3.9-1.43,1.79,0,3.47.78,4.62,2.14.24.29.47.62.67.96l2.98,5.37L27.84,1.04c.7-.67,1.62-1.04,2.59-1.04,1.03,0,1.99.41,2.7,1.15,1.32,1.38,1.38,3.59.12,5.04l-16.58,18.99c-.89,1.02-2.18,1.61-3.53,1.61h0Z" style="fill:url(#linear-gradient-2);"/><path d="m32.35,1.9c-1.02-1.06-2.7-1.09-3.76-.08l-14.55,13.95-3.65-6.59c-.15-.27-.34-.55-.55-.8-1.77-2.1-4.91-2.36-7-.59-2.1,1.77-2.36,4.91-.59,7l7.78,9.21.37.43c.11.13.24.26.37.37,1.5,1.31,3.78,1.16,5.1-.35L32.43,5.48c.89-1.03.87-2.59-.08-3.59Z" style="fill:url(#linear-gradient-3);"/><path d="m11.19,16.03c-.36,0-.71-.18-.92-.51l-3.02-4.9c-.31-.51-.16-1.17.35-1.48.51-.31,1.17-.16,1.48.35l3.02,4.9c.31.51.16,1.17-.35,1.48-.18.11-.37.16-.56.16Z" style="fill:url(#linear-gradient-4); mix-blend-mode:overlay; opacity:.52;"/></g></g></svg>