<?xml version="1.0" encoding="UTF-8" standalone="no"?>
<!-- Created with Inkscape (http://www.inkscape.org/) -->

<svg
   width="512"
   height="512"
   viewBox="0 0 512 512"
   version="1.1"
   id="svg1"
   inkscape:version="1.3.2 (091e20e, 2023-11-25)"
   sodipodi:docname="ឫ.svg"
   xmlns:inkscape="http://www.inkscape.org/namespaces/inkscape"
   xmlns:sodipodi="http://sodipodi.sourceforge.net/DTD/sodipodi-0.dtd"
   xmlns="http://www.w3.org/2000/svg"
   xmlns:svg="http://www.w3.org/2000/svg">
  <sodipodi:namedview
     id="namedview1"
     pagecolor="#ffffff"
     bordercolor="#000000"
     borderopacity="0.25"
     inkscape:showpageshadow="2"
     inkscape:pageopacity="0.0"
     inkscape:pagecheckerboard="0"
     inkscape:deskcolor="#d1d1d1"
     inkscape:document-units="px"
     inkscape:zoom="0.63671875"
     inkscape:cx="254.42945"
     inkscape:cy="380.8589"
     inkscape:window-width="1392"
     inkscape:window-height="942"
     inkscape:window-x="0"
     inkscape:window-y="25"
     inkscape:window-maximized="0"
     inkscape:current-layer="svg1" />
  <defs
     id="defs1" />
  <path
     style="font-size:341.333px;font-family:'Khmer OS Content';-inkscape-font-specification:'Khmer OS Content';text-align:center;text-anchor:middle;stroke:#000000;stroke-width:0"
     d="m 338.16651,422.6665 q 0,24.99998 -25.83331,37.49997 -25.66665,12.49999 -77.1666,12.49999 -25.8333,0 -43.83329,-5.33333 -17.99998,-5.5 -28.16664,-16.33332 30.99997,5 72.1666,5 36.8333,0 55.33328,-8.33333 18.33332,-8.33332 18.33332,-24.99998 0,-4.16666 -3,-6.33332 -3.16666,-2 -9.33332,-2 0,-8.33333 5.16666,-12.49999 5.16666,-4.16666 15.49998,-4.16666 10.49999,0 15.66665,6.33333 5.16667,6.16666 5.16667,18.66664 z M 308.16653,220.50003 q 0,-17.66665 -33.3333,-27.99997 3.33333,-16.83332 15.83332,-39.16663 12.66666,-22.33331 21.66665,-22.33331 7.33332,0 19.16665,7.16666 l 11.66665,7.16666 q 5.16666,3.16666 12.16666,3.16666 3.66666,0 7.83332,-0.83333 -1.66666,11.66665 -6.83332,19.16665 -5,7.33332 -13.49999,8.16665 -0.83333,0.16667 -1.66667,0.16667 -8.33332,0 -22.49998,-8.83332 -4.33332,-2.5 -7.99999,-2.5 -10.49999,0 -18.16665,19.16665 45.66663,14.66665 45.66663,27.99997 v 136.66654 q -16.66665,33.3333 -83.33326,33.3333 -66.6666,0 -83.33325,-33.3333 V 220.50003 q 0,-17.66665 -33.3333,-27.99997 3.33333,-16.83332 15.83331,-39.16663 12.66666,-22.33331 21.66665,-22.33331 7.33333,0 19.16665,7.16666 l 11.66665,7.16666 q 5.16667,3.16666 12.16666,3.16666 3.66666,0 7.83333,-0.83333 -1.66667,11.66665 -6.83333,19.16665 -5,7.33332 -13.49999,8.16665 -0.83333,0.16667 -1.66666,0.16667 -8.33333,0 -22.49998,-8.83332 -4.33333,-2.5 -7.99999,-2.5 -10.49999,0 -18.16665,19.16665 45.66662,14.66665 45.66662,27.99997 v 129.99988 q 9.99999,19.99998 53.33328,19.99998 43.33329,0 53.33328,-19.99998 z"
     id="text1"
     inkscape:label="text1"
     aria-label="ឫ" />
  <path
     style="fill:#000000;stroke:#000000;stroke-width:0"
     d="m 185.32515,213.59509 -3.1411,138.20859 47.11656,23.55828 50.25767,-4.71165 47.11657,-21.98773 -6.28221,-139.77914 -36.1227,-21.98773 25.12883,-47.11657 31.41105,23.55828 37.69325,3.14111"
     id="path1" />
  <path
     style="fill:#000000;stroke:#000000;stroke-width:0"
     d="m 196.31902,234.01227 -29.84049,-39.2638 -20.41718,-10.99387 25.12883,-43.97546 34.55215,20.41718 h 32.9816"
     id="path2" />
  <path
     style="fill:#000000;stroke:#000000;stroke-width:0"
     d="m 293.69325,395.77914 28.26994,14.13497 7.85276,23.55828 -23.55828,26.69939 -64.39264,4.71166 -109.93865,-6.28221"
     id="path3" />
</svg>
