<?xml version="1.0" encoding="UTF-8" standalone="no"?>
<!-- Created with Inkscape (http://www.inkscape.org/) -->

<svg
   width="512"
   height="512"
   viewBox="0 0 512 512"
   version="1.1"
   id="svg1"
   inkscape:version="1.3.2 (091e20e, 2023-11-25)"
   sodipodi:docname="ឬ.svg"
   xmlns:inkscape="http://www.inkscape.org/namespaces/inkscape"
   xmlns:sodipodi="http://sodipodi.sourceforge.net/DTD/sodipodi-0.dtd"
   xmlns="http://www.w3.org/2000/svg"
   xmlns:svg="http://www.w3.org/2000/svg">
  <sodipodi:namedview
     id="namedview1"
     pagecolor="#ffffff"
     bordercolor="#000000"
     borderopacity="0.25"
     inkscape:showpageshadow="2"
     inkscape:pageopacity="0.0"
     inkscape:pagecheckerboard="0"
     inkscape:deskcolor="#d1d1d1"
     inkscape:document-units="px"
     inkscape:zoom="0.63671875"
     inkscape:cx="254.42945"
     inkscape:cy="380.8589"
     inkscape:window-width="1392"
     inkscape:window-height="942"
     inkscape:window-x="0"
     inkscape:window-y="25"
     inkscape:window-maximized="0"
     inkscape:current-layer="svg1" />
  <defs
     id="defs1" />
  <path
     style="font-size:341.333px;font-family:'Khmer OS Content';-inkscape-font-specification:'Khmer OS Content';text-align:center;text-anchor:middle;stroke:#000000;stroke-width:0"
     d="m 338.16651,422.6665 q 0,11.66666 -5.83333,20.66665 1.66666,6.33333 9.33332,9.66666 7.66666,3.16666 21.33332,3.16666 0,8.16666 -6.66666,12.33332 -6.83333,4.16667 -20.33332,4.16667 -9.66666,0 -16.83332,-2.66667 -6.99999,-2.66666 -11.33332,-7.83332 -12.83332,5.16666 -30.99997,7.83332 -18.16665,2.66667 -41.83329,2.66667 -25.66664,0 -43.66663,-5.33333 -17.99998,-5.5 -28.16664,-16.33332 30.83331,5 72.1666,5 36.66663,0 55.16661,-8.33333 18.33332,-8.33332 18.33332,-24.99998 0,-8.33332 -12.49999,-8.33332 0,-8.33333 5.33333,-12.49999 5.33333,-4.16666 15.83332,-4.16666 10.33332,0 15.49998,6.33333 5.16667,6.16666 5.16667,18.66664 z M 308.16653,220.50003 q 0,-17.66665 -33.3333,-27.99997 3.33333,-16.83332 15.83332,-39.16663 12.66666,-22.33331 21.66665,-22.33331 7.33332,0 19.16665,7.16666 l 11.66665,7.16666 q 5.16666,3.16666 12.16666,3.16666 3.66666,0 7.83332,-0.83333 -1.66666,11.66665 -6.83332,19.16665 -5,7.33332 -13.49999,8.16665 -0.83333,0.16667 -1.66667,0.16667 -8.33332,0 -22.49998,-8.83332 -4.33332,-2.5 -7.99999,-2.5 -10.49999,0 -18.16665,19.16665 45.66663,14.66665 45.66663,27.99997 v 136.66654 q -16.66665,33.3333 -83.33326,33.3333 -66.6666,0 -83.33325,-33.3333 V 220.50003 q 0,-17.66665 -33.3333,-27.99997 3.33333,-16.83332 15.83331,-39.16663 12.66666,-22.33331 21.66665,-22.33331 7.33333,0 19.16665,7.16666 l 11.66665,7.16666 q 5.16667,3.16666 12.16666,3.16666 3.66666,0 7.83333,-0.83333 -1.66667,11.66665 -6.83333,19.16665 -5,7.33332 -13.49999,8.16665 -0.83333,0.16667 -1.66666,0.16667 -8.33333,0 -22.49998,-8.83332 -4.33333,-2.5 -7.99999,-2.5 -10.49999,0 -18.16665,19.16665 45.66662,14.66665 45.66662,27.99997 v 129.99988 q 9.99999,19.99998 53.33328,19.99998 43.33329,0 53.33328,-19.99998 z"
     id="text1"
     inkscape:label="text1"
     aria-label="ឬ" />
  <path
     style="fill:#000000;stroke:#000000;stroke-width:0"
     d="m 182.18405,210.45399 1.57055,133.49693 37.69325,28.26994 64.39264,-6.28221 45.54601,-20.41718 -4.71165,-136.63803 -43.97546,-23.55829 25.12883,-43.97546 25.12884,17.27608 50.25766,1.57055"
     id="path1" />
  <path
     style="fill:#000000;stroke:#000000;stroke-width:0"
     d="m 213.59509,230.87117 -67.53374,-43.97546 25.12883,-47.11657 40.83436,25.12884 25.12883,-3.14111"
     id="path2" />
  <path
     style="fill:#000000;stroke:#000000;stroke-width:0"
     d="m 281.12883,400.4908 34.55215,6.28221 1.57055,28.26993 -51.82822,25.12884 -113.07975,1.57055 -18.84663,-51.82822 120.93252,6.28221 70.67484,40.83435 65.96319,7.85277"
     id="path3" />
</svg>
