<?xml version="1.0" encoding="UTF-8" standalone="no"?>
<!-- Created with Inkscape (http://www.inkscape.org/) -->

<svg
   width="512"
   height="512"
   viewBox="0 0 512 512"
   version="1.1"
   id="svg1"
   inkscape:version="1.3.2 (091e20e, 2023-11-25)"
   sodipodi:docname="ោះ.svg"
   xmlns:inkscape="http://www.inkscape.org/namespaces/inkscape"
   xmlns:sodipodi="http://sodipodi.sourceforge.net/DTD/sodipodi-0.dtd"
   xmlns="http://www.w3.org/2000/svg"
   xmlns:svg="http://www.w3.org/2000/svg">
  <sodipodi:namedview
     id="namedview1"
     pagecolor="#ffffff"
     bordercolor="#000000"
     borderopacity="0.25"
     inkscape:showpageshadow="2"
     inkscape:pageopacity="0.0"
     inkscape:pagecheckerboard="0"
     inkscape:deskcolor="#d1d1d1"
     inkscape:document-units="px"
     inkscape:zoom="0.63671875"
     inkscape:cx="254.42945"
     inkscape:cy="380.8589"
     inkscape:window-width="1392"
     inkscape:window-height="942"
     inkscape:window-x="0"
     inkscape:window-y="25"
     inkscape:window-maximized="0"
     inkscape:current-layer="svg1" />
  <defs
     id="defs1" />
  <path
     style="font-size:306.667px;font-family:'Khmer OS Content';-inkscape-font-specification:'Khmer OS Content';text-align:center;text-anchor:middle;stroke:#000000;stroke-width:0"
     d="m 68.393557,358.53892 q 8.984385,0 8.984385,-22.46096 0,-14.97398 -8.984385,-14.97398 z M 41.440403,236.80051 q 0,-15.87242 -29.947948,-25.15628 2.994795,-15.12371 14.225276,-35.18884 11.38022,-20.06513 19.466166,-20.06513 6.588549,0 17.22007,6.43881 l 10.481782,6.43881 q 4.641932,2.84506 10.931002,2.84506 3.294274,0 7.037767,-0.7487 -1.497397,10.48178 -6.139329,17.22007 -4.492192,6.58855 -12.128919,7.33725 -0.748699,0.14974 -1.497398,0.14974 -7.486987,0 -20.214865,-7.93621 -3.893233,-2.2461 -7.187507,-2.2461 -9.433604,0 -16.321632,17.22007 41.028689,13.1771 41.028689,25.15628 v 77.86467 q 23.958359,0 23.958359,29.94795 0,14.97397 -7.936207,29.94794 -7.786466,14.97398 -23.509139,14.97398 -19.466167,0 -19.466167,-14.97398 z M 262.90548,193.37598 q -7.33725,-7.03777 -7.33725,-15.87241 0,-5.54037 5.69011,-9.43361 17.07033,-11.6797 30.69665,-11.6797 13.32684,0 26.20445,10.03257 l 28.75003,22.6107 q 11.6797,8.83464 11.6797,23.05992 V 366.0259 q 0,14.97398 -14.07553,14.97398 -14.07554,0 -14.07554,-14.97398 V 212.09345 l -35.48832,-28.60029 q -5.39063,-4.04298 -9.58334,-4.04298 -2.54558,0 -4.64193,1.4974 z m 184.77886,4.19271 q 0,7.48699 2.9948,11.23048 2.99479,3.7435 8.98438,3.7435 5.98959,0 8.98439,-3.7435 2.99479,-3.74349 2.99479,-11.23048 0,-7.48698 -2.99479,-11.23048 -2.9948,-3.74349 -8.98439,-3.74349 -5.98959,0 -8.98438,3.74349 -2.9948,3.7435 -2.9948,11.23048 z m 45.67062,0 q 0,16.92059 -8.38542,25.30602 -8.38543,8.38543 -25.30602,8.38543 -16.92059,0 -25.30601,-8.38543 -8.38543,-8.38543 -8.38543,-25.30602 0,-16.92059 8.38543,-25.30601 8.38542,-8.38543 25.30601,-8.38543 16.92059,0 25.30602,8.38543 8.38542,8.38542 8.38542,25.30601 z m -45.67062,142.25276 q 0,7.48699 2.9948,11.23048 2.99479,3.74349 8.98438,3.74349 5.98959,0 8.98439,-3.74349 2.99479,-3.74349 2.99479,-11.23048 0,-7.48699 -2.99479,-11.23048 -2.9948,-3.7435 -8.98439,-3.7435 -5.98959,0 -8.98438,3.7435 -2.9948,3.74349 -2.9948,11.23048 z m 45.67062,0 q 0,16.92059 -8.38542,25.30602 -8.38543,8.38542 -25.30602,8.38542 -16.92059,0 -25.30601,-8.38542 -8.38543,-8.38543 -8.38543,-25.30602 0,-16.92059 8.38543,-25.30602 8.38542,-8.38542 25.30601,-8.38542 16.92059,0 25.30602,8.38542 8.38542,8.38543 8.38542,25.30602 z"
     id="text1"
     inkscape:label="text1"
     aria-label="ោះ" />
  <path
     style="fill:#000000;stroke:#000000;stroke-width:0"
     d="m 67.533742,307.82822 25.128835,15.70552 -3.141105,32.9816 -20.417178,31.41104 -17.276073,1.57055 1.570552,-163.33742 -39.263804,-20.41718 28.269939,-42.40491 26.699386,17.27608 48.687116,3.1411"
     id="path1" />
  <path
     style="fill:#000000;stroke:#000000;stroke-width:0"
     d="m 251.28834,190.03681 32.9816,-23.55828 61.25153,36.1227 v 196.31902"
     id="path2" />
  <path
     style="fill:#000000;stroke:#000000;stroke-width:0"
     d="m 457.03067,169.61963 -26.69938,10.99387 -1.57055,34.55214 21.98773,12.56442 21.98773,-4.71166 12.56441,-18.84662 -7.85276,-29.84049 -36.1227,-12.56442"
     id="path3" />
  <path
     style="fill:#000000;stroke:#000000;stroke-width:0"
     d="m 460.17178,309.39877 -26.69939,25.12884 6.28221,28.26994 25.12884,1.57055 26.69938,-17.27608 -4.71165,-31.41104 -58.11043,-20.41718"
     id="path4" />
</svg>
