<?xml version="1.0" encoding="UTF-8" standalone="no"?>
<!-- Created with Inkscape (http://www.inkscape.org/) -->

<svg
   width="512"
   height="512"
   viewBox="0 0 512 512"
   version="1.1"
   id="svg1"
   xmlns="http://www.w3.org/2000/svg"
   xmlns:svg="http://www.w3.org/2000/svg">
  <defs
     id="defs1" />
  <path
     style="font-size:341.333px;font-family:'Khmer OS Content';-inkscape-font-specification:'Khmer OS Content';text-align:center;text-anchor:middle;stroke:#000000;stroke-width:0"
     d="M 185.66665,209.50004 Q 172,207.66671 163.33334,199.66672 q -8.49999,-8.16666 -8.49999,-19.66665 0,-11.49999 38.99996,-48.99995 34.99997,0 65.49994,28.99997 31.49997,-28.99997 39.33329,-28.99997 14.33332,0 30.83331,15.16665 10.33332,9.66666 17.66665,9.66666 4.33333,0 7.66666,-3.33333 0,13.83332 -5.5,23.33331 -5.66666,9.49999 -15.16665,9.49999 -9.49999,0 -41.49996,-24.66665 h -0.16667 q -11.66665,0 -44.16662,29.49998 -18.33332,-17.33332 -30.66664,-23.16665 -12.16665,-5.83333 -23.83331,-6.66666 l -16.66665,15.66665 q 3,17.83332 21.49998,26.99998 z m 15.83332,126.49988 q 19.66665,-38.3333 46.99995,-38.3333 22.99998,0 22.99998,19.99998 0,13.33333 -12.83332,13.33333 -9.49999,0 -9.49999,-5.5 0,-5.49999 -7.33333,-5.49999 -11.99998,0 -40.33329,54.83328 v 6.16666 H 171.5 V 231.00002 q 16.66665,-33.3333 83.33325,-33.3333 66.66661,0 83.33326,33.3333 v 149.99986 h -29.99998 v -143.3332 q -9.99999,-19.99998 -53.33328,-19.99998 -43.33329,0 -53.33328,19.99998 z"
     id="text1"
     aria-label="គ" />
  <path
     style="display:none;fill:#000000;stroke:#000000;stroke-width:0"
     d="m 180.6135,391.06748 6.28221,-161.76687 36.12269,-18.84662 78.52761,4.71165 26.69939,25.12884 -3.14111,155.48466"
     id="path1" />
  <path
     style="fill:#000000;stroke:#000000;stroke-width:0"
     d="m 166.47853,403.6319 39.2638,-56.53988 34.55215,-43.97546 37.69325,28.26994"
     id="path2" />
  <path
     style="fill:#000000;stroke:#000000;stroke-width:0"
     d="m 204.17178,224.58896 -45.54601,-47.11657 42.4049,-37.69325 54.96933,34.55215 43.97546,-31.41104 39.2638,25.12883 78.52761,-18.84663"
     id="path3" />
</svg>
