<?xml version="1.0" encoding="UTF-8" standalone="no"?>
<!-- Created with Inkscape (http://www.inkscape.org/) -->

<svg
   width="512"
   height="512"
   viewBox="0 0 512 512"
   version="1.1"
   id="svg1"
   xmlns="http://www.w3.org/2000/svg"
   xmlns:svg="http://www.w3.org/2000/svg">
  <defs
     id="defs1" />
  <path
     style="font-size:341.333px;font-family:'Khmer OS Content';-inkscape-font-specification:'Khmer OS Content';text-align:center;text-anchor:middle;stroke:#000000;stroke-width:0"
     d="m 308.16653,220.50003 q 0,-17.66665 -33.3333,-27.99997 3.33333,-16.83332 15.83332,-39.16663 12.66666,-22.33331 21.66665,-22.33331 7.33332,0 19.16665,7.16666 l 11.66665,7.16666 q 5.16666,3.16666 12.16666,3.16666 3.66666,0 7.83332,-0.83333 -1.66666,11.66665 -6.83332,19.16665 -5,7.33332 -13.49999,8.16665 -0.83333,0.16667 -1.66667,0.16667 -8.33332,0 -22.49998,-8.83332 -4.33332,-2.5 -7.99999,-2.5 -10.49999,0 -18.16665,19.16665 45.66663,14.66665 45.66663,27.99997 v 136.66654 q -16.66665,33.3333 -83.33326,33.3333 -66.6666,0 -83.33325,-33.3333 V 220.50003 q 0,-17.66665 -33.3333,-27.99997 3.33333,-16.83332 15.83331,-39.16663 12.66666,-22.33331 21.66665,-22.33331 7.33333,0 19.16665,7.16666 l 11.66665,7.16666 q 5.16667,3.16666 12.16666,3.16666 3.66666,0 7.83333,-0.83333 -1.66667,11.66665 -6.83333,19.16665 -5,7.33332 -13.49999,8.16665 -0.83333,0.16667 -1.66666,0.16667 -8.33333,0 -22.49998,-8.83332 -4.33333,-2.5 -7.99999,-2.5 -10.49999,0 -18.16665,19.16665 45.66662,14.66665 45.66662,27.99997 v 129.99988 q 9.99999,19.99998 53.33328,19.99998 43.33329,0 53.33328,-19.99998 z"
     id="text1"
     aria-label="ប" />
  <path
     style="fill:#000000;stroke:#000000;stroke-width:0"
     d="m 185.32515,212.02454 4.71166,136.63804 40.83436,21.98773 h 48.68711 l 50.25767,-23.55829 -7.85276,-139.77914"
     id="path1" />
  <path
     style="fill:#000000;stroke:#000000;stroke-width:0"
     d="m 196.31902,229.30061 -47.11657,-40.83435 25.12884,-45.54601 31.41104,20.41717 18.84663,-9.42331"
     id="path2" />
  <path
     style="fill:#000000;stroke:#000000;stroke-width:0"
     d="m 328.2454,232.44172 -7.85276,-25.12884 -36.1227,-25.12883 25.12883,-39.2638 39.26381,21.98773 17.27607,-6.28221"
     id="path3" />
</svg>
