<?xml version="1.0" encoding="UTF-8" standalone="no"?>
<!-- Created with Inkscape (http://www.inkscape.org/) -->

<svg
   width="512"
   height="512"
   viewBox="0 0 512 512"
   version="1.1"
   id="svg1"
   inkscape:version="1.3.2 (091e20e, 2023-11-25)"
   sodipodi:docname="អ1.svg"
   xmlns:inkscape="http://www.inkscape.org/namespaces/inkscape"
   xmlns:sodipodi="http://sodipodi.sourceforge.net/DTD/sodipodi-0.dtd"
   xmlns="http://www.w3.org/2000/svg"
   xmlns:svg="http://www.w3.org/2000/svg">
  <sodipodi:namedview
     id="namedview1"
     pagecolor="#ffffff"
     bordercolor="#000000"
     borderopacity="0.25"
     inkscape:showpageshadow="2"
     inkscape:pageopacity="0.0"
     inkscape:pagecheckerboard="0"
     inkscape:deskcolor="#d1d1d1"
     inkscape:document-units="px"
     inkscape:zoom="0.63671875"
     inkscape:cx="254.42945"
     inkscape:cy="380.8589"
     inkscape:window-width="1392"
     inkscape:window-height="942"
     inkscape:window-x="0"
     inkscape:window-y="25"
     inkscape:window-maximized="0"
     inkscape:current-layer="svg1" />
  <defs
     id="defs1" />
  <path
     style="font-size:341.333px;font-family:'Khmer OS Content';-inkscape-font-specification:'Khmer OS Content';text-align:center;text-anchor:middle;stroke:#000000;stroke-width:0"
     d="m 174.73722,408.38935 q 0,-12.49999 13.33332,-12.49999 v -36.66663 q 0,-4.99999 -5,-4.99999 -8.33332,0 -8.33332,-8.33333 0,-8.33332 9.16666,-8.33332 29.16663,0 29.16663,21.66664 v 9.99999 h 83.33326 v -9.99999 q 0,-4.99999 -5,-4.99999 -8.33332,0 -8.33332,-8.33333 0,-8.33332 9.16666,-8.33332 29.16663,0 29.16663,21.66664 v 53.33328 q 0,16.66665 -12.49998,16.66665 -12.49999,0 -19.16665,-6.66666 -6.66666,-6.49999 -6.66666,-14.16665 0,-12.49999 13.33332,-12.49999 v -9.99999 h -83.33326 v 26.66664 q 0,16.66665 -12.49998,16.66665 -12.49999,0 -19.16665,-6.66666 -6.66666,-6.49999 -6.66666,-14.16665 z"
     id="text1"
     inkscape:label="text1"
     aria-label="្អ" />
  <path
     style="fill:#000000;stroke:#000000;stroke-width:0"
     d="m 180.6135,400.4908 -12.56442,15.70552 18.84663,18.84662 14.13496,-4.71165 3.14111,-76.95706 -56.53988,-32.98159"
     id="path1" />
  <path
     style="fill:#000000;stroke:#000000;stroke-width:0"
     d="m 293.69325,397.34969 -18.84662,28.26994 39.2638,20.41718 -6.28221,-103.65644 -45.54601,-28.26994"
     id="path2" />
  <path
     style="fill:#000000;stroke:#000000;stroke-width:0"
     d="m 168.04908,378.50307 v 0 l 193.17791,-4.71166"
     id="path3" />
</svg>
