<?xml version="1.0" encoding="UTF-8" standalone="no"?>
<!-- Created with Inkscape (http://www.inkscape.org/) -->

<svg
   width="512"
   height="512"
   viewBox="0 0 512 512"
   version="1.1"
   id="svg1"
   inkscape:version="1.3.2 (091e20e, 2023-11-25)"
   sodipodi:docname="ុះ.svg"
   xmlns:inkscape="http://www.inkscape.org/namespaces/inkscape"
   xmlns:sodipodi="http://sodipodi.sourceforge.net/DTD/sodipodi-0.dtd"
   xmlns="http://www.w3.org/2000/svg"
   xmlns:svg="http://www.w3.org/2000/svg">
  <sodipodi:namedview
     id="namedview1"
     pagecolor="#ffffff"
     bordercolor="#000000"
     borderopacity="0.25"
     inkscape:showpageshadow="2"
     inkscape:pageopacity="0.0"
     inkscape:pagecheckerboard="0"
     inkscape:deskcolor="#d1d1d1"
     inkscape:document-units="px"
     inkscape:zoom="0.63671875"
     inkscape:cx="254.42945"
     inkscape:cy="380.8589"
     inkscape:window-width="1392"
     inkscape:window-height="942"
     inkscape:window-x="0"
     inkscape:window-y="25"
     inkscape:window-maximized="0"
     inkscape:current-layer="svg1" />
  <defs
     id="defs1" />
  <path
     style="font-size:341.333px;font-family:'Khmer OS Content';-inkscape-font-specification:'Khmer OS Content';text-align:center;text-anchor:middle;stroke:#000000;stroke-width:0"
     d="m 250.66659,454.78095 h -24.99998 v -63.83327 q -8.33332,-3 -8.33332,-13.33332 0,-14.49999 16.66665,-14.49999 16.66665,0 16.66665,14.49999 z m 99.16657,-312.4997 q 0,8.33333 3.33333,12.49999 3.33333,4.16666 9.99999,4.16666 6.66666,0 9.99999,-4.16666 3.33333,-4.16666 3.33333,-12.49999 0,-8.33332 -3.33333,-12.49999 -3.33333,-4.16666 -9.99999,-4.16666 -6.66666,0 -9.99999,4.16666 -3.33333,4.16667 -3.33333,12.49999 z m 50.83328,0 q 0,18.83332 -9.33332,28.16664 -9.33332,9.33333 -28.16664,9.33333 -18.83332,0 -28.16664,-9.33333 -9.33332,-9.33332 -9.33332,-28.16664 0,-18.83331 9.33332,-28.16664 9.33332,-9.33332 28.16664,-9.33332 18.83332,0 28.16664,9.33332 9.33332,9.33333 9.33332,28.16664 z m -50.83328,158.33318 q 0,8.33333 3.33333,12.49999 3.33333,4.16666 9.99999,4.16666 6.66666,0 9.99999,-4.16666 3.33333,-4.16666 3.33333,-12.49999 0,-8.33332 -3.33333,-12.49998 -3.33333,-4.16667 -9.99999,-4.16667 -6.66666,0 -9.99999,4.16667 -3.33333,4.16666 -3.33333,12.49998 z m 50.83328,0 q 0,18.83332 -9.33332,28.16664 -9.33332,9.33333 -28.16664,9.33333 -18.83332,0 -28.16664,-9.33333 -9.33332,-9.33332 -9.33332,-28.16664 0,-18.83331 9.33332,-28.16664 9.33332,-9.33332 28.16664,-9.33332 18.83332,0 28.16664,9.33332 9.33332,9.33333 9.33332,28.16664 z"
     id="text1"
     inkscape:label="text1"
     aria-label="ុះ" />
  <path
     style="fill:#000000;stroke:#000000;stroke-width:0"
     d="m 205.74233,373.79141 h 32.9816 l 7.85276,94.23313"
     id="path1" />
  <path
     style="fill:#000000;stroke:#000000;stroke-width:0"
     d="m 358.08589,109.93865 -29.84049,23.55828 7.85276,31.41105 23.55828,7.85276 28.26994,-1.57056 10.99387,-21.98773 -9.42332,-32.98159 -53.39877,-25.128835"
     id="path2" />
  <path
     style="fill:#000000;stroke:#000000;stroke-width:0"
     d="m 359.65644,270.13497 -34.55215,20.41718 6.28221,36.1227 36.1227,10.99386 29.84049,-17.27607 1.57056,-31.41104 -64.39264,-39.26381"
     id="path3" />
</svg>
